<svg width="14" height="14" viewBox="0 0 14 14" fill="none" xmlns="http://www.w3.org/2000/svg">
<path fill-rule="evenodd" clip-rule="evenodd" d="M0.682404 0.682404C0.837067 0.52774 1.08783 0.52774 1.24249 0.682404L13.7837 13.2237C13.9384 13.3783 13.9384 13.6291 13.7837 13.7837C13.6291 13.9384 13.3783 13.9384 13.2237 13.7837L0.682404 1.24249C0.52774 1.08783 0.52774 0.837067 0.682404 0.682404Z" fill="#2180FF"/>
<path fill-rule="evenodd" clip-rule="evenodd" d="M13.2838 0.617157C13.44 0.460948 13.6933 0.460948 13.8495 0.617157C14.0057 0.773367 14.0057 1.02663 13.8495 1.18284L1.18284 13.8495C1.02663 14.0057 0.773367 14.0057 0.617157 13.8495C0.460948 13.6933 0.460948 13.44 0.617157 13.2838L13.2838 0.617157Z" fill="#2180FF"/>
</svg>
