<svg xmlns="http://www.w3.org/2000/svg" width="15" height="14" viewBox="0 0 15 14" fill="none">
  <path fill-rule="evenodd" clip-rule="evenodd" d="M1.06229 0.721466C1.21695 0.566803 1.46771 0.566803 1.62237 0.721466L14.1636 13.2627C14.3183 13.4174 14.3183 13.6681 14.1636 13.8228C14.009 13.9775 13.7582 13.9775 13.6035 13.8228L1.06229 1.28155C0.907623 1.12689 0.907623 0.876129 1.06229 0.721466Z" fill="#4C4C4C"/>
  <path fill-rule="evenodd" clip-rule="evenodd" d="M13.6637 0.65622C13.8199 0.50001 14.0732 0.50001 14.2294 0.65622C14.3856 0.81243 14.3856 1.0657 14.2294 1.22191L1.56273 13.8886C1.40652 14.0448 1.15325 14.0448 0.99704 13.8886C0.84083 13.7324 0.84083 13.4791 0.99704 13.3229L13.6637 0.65622Z" fill="#4C4C4C"/>
</svg>