<svg width="96" height="51" viewBox="0 0 96 51" fill="none" xmlns="http://www.w3.org/2000/svg">
<g filter="url(#filter0_d_282_28827)">
<path d="M10.3721 11.4883C10.3721 8.17457 13.0584 5.48828 16.3721 5.48828H84.896C88.2097 5.48828 90.896 8.17457 90.896 11.4883V39.4883C90.896 42.802 88.2097 45.4883 84.896 45.4883H16.3721C13.0584 45.4883 10.3721 42.802 10.3721 39.4883V11.4883Z" fill="#51AF70"/>
</g>
<path d="M1.87378 26.955C1.20744 26.57 1.20744 25.6082 1.87378 25.2232L13.2659 18.6417C13.9325 18.2566 14.7661 18.7377 14.7661 19.5076L14.7661 32.6706C14.7661 33.4406 13.9325 33.9217 13.2659 33.5365L1.87378 26.955Z" fill="#51AF70"/>
<path d="M21.9175 24.0083H23.1715V25.2263H21.9175V24.0083ZM21.9175 26.1683H23.1715V32.6483H21.9175V26.1683ZM29.0603 30.6683C28.1963 30.6683 27.4603 30.4803 26.8523 30.1043C26.2443 29.7243 25.7783 29.1963 25.4543 28.5203C25.1343 27.8443 24.9743 27.0603 24.9743 26.1683C24.9743 25.2763 25.1343 24.4923 25.4543 23.8163C25.7783 23.1403 26.2443 22.6143 26.8523 22.2383C27.4603 21.8583 28.1963 21.6683 29.0603 21.6683C30.0563 21.6683 30.8803 21.9203 31.5323 22.4243C32.1883 22.9283 32.6443 23.6063 32.9003 24.4583L31.6283 24.8003C31.4603 24.1963 31.1603 23.7223 30.7283 23.3783C30.3003 23.0343 29.7443 22.8623 29.0603 22.8623C28.4483 22.8623 27.9383 23.0003 27.5303 23.2763C27.1223 23.5523 26.8143 23.9383 26.6063 24.4343C26.4023 24.9303 26.3003 25.5083 26.3003 26.1683C26.2963 26.8283 26.3963 27.4063 26.6003 27.9023C26.8083 28.3983 27.1163 28.7843 27.5243 29.0603C27.9363 29.3363 28.4483 29.4743 29.0603 29.4743C29.7443 29.4743 30.3003 29.3023 30.7283 28.9583C31.1603 28.6103 31.4603 28.1363 31.6283 27.5363L32.9003 27.8783C32.6443 28.7303 32.1883 29.4083 31.5323 29.9123C30.8803 30.4163 30.0563 30.6683 29.0603 30.6683ZM37.0339 30.6683C36.3859 30.6683 35.8239 30.5223 35.3479 30.2303C34.8719 29.9383 34.5039 29.5363 34.2439 29.0243C33.9879 28.5083 33.8599 27.9143 33.8599 27.2423C33.8599 26.5663 33.9919 25.9723 34.2559 25.4603C34.5199 24.9443 34.8899 24.5443 35.3659 24.2603C35.8419 23.9723 36.3979 23.8283 37.0339 23.8283C37.6819 23.8283 38.2439 23.9743 38.7199 24.2663C39.1959 24.5583 39.5639 24.9603 39.8239 25.4723C40.0839 25.9843 40.2139 26.5743 40.2139 27.2423C40.2139 27.9183 40.0819 28.5143 39.8179 29.0303C39.5579 29.5423 39.1899 29.9443 38.7139 30.2363C38.2379 30.5243 37.6779 30.6683 37.0339 30.6683ZM37.0339 29.4863C37.6539 29.4863 38.1159 29.2783 38.4199 28.8623C38.7279 28.4423 38.8819 27.9023 38.8819 27.2423C38.8819 26.5663 38.7259 26.0263 38.4139 25.6223C38.1059 25.2143 37.6459 25.0103 37.0339 25.0103C36.6139 25.0103 36.2679 25.1063 35.9959 25.2983C35.7239 25.4863 35.5219 25.7483 35.3899 26.0843C35.2579 26.4163 35.1919 26.8023 35.1919 27.2423C35.1919 27.9223 35.3479 28.4663 35.6599 28.8743C35.9719 29.2823 36.4299 29.4863 37.0339 29.4863ZM44.5744 30.6683C43.9544 30.6683 43.4344 30.5183 43.0144 30.2183C42.5944 29.9143 42.2764 29.5043 42.0604 28.9883C41.8444 28.4723 41.7364 27.8903 41.7364 27.2423C41.7364 26.5943 41.8424 26.0123 42.0544 25.4963C42.2704 24.9803 42.5864 24.5743 43.0024 24.2783C43.4224 23.9783 43.9384 23.8283 44.5504 23.8283C45.1584 23.8283 45.6824 23.9783 46.1224 24.2783C46.5664 24.5743 46.9084 24.9803 47.1484 25.4963C47.3884 26.0083 47.5084 26.5903 47.5084 27.2423C47.5084 27.8903 47.3884 28.4743 47.1484 28.9943C46.9124 29.5103 46.5744 29.9183 46.1344 30.2183C45.6984 30.5183 45.1784 30.6683 44.5744 30.6683ZM41.5264 33.3683V24.0083H42.6424V28.6703H42.7864V33.3683H41.5264ZM44.4004 29.5343C44.8004 29.5343 45.1304 29.4323 45.3904 29.2283C45.6544 29.0243 45.8504 28.7503 45.9784 28.4063C46.1104 28.0583 46.1764 27.6703 46.1764 27.2423C46.1764 26.8183 46.1104 26.4343 45.9784 26.0903C45.8504 25.7463 45.6524 25.4723 45.3844 25.2683C45.1164 25.0643 44.7744 24.9623 44.3584 24.9623C43.9664 24.9623 43.6424 25.0583 43.3864 25.2503C43.1344 25.4423 42.9464 25.7103 42.8224 26.0543C42.7024 26.3983 42.6424 26.7943 42.6424 27.2423C42.6424 27.6903 42.7024 28.0863 42.8224 28.4303C42.9424 28.7743 43.1324 29.0443 43.3924 29.2403C43.6524 29.4363 43.9884 29.5343 44.4004 29.5343ZM48.9532 22.9463V21.7283H50.2072V22.9463H48.9532ZM48.9532 30.4883V24.0083H50.2072V30.4883H48.9532ZM53.8389 30.6683C53.3589 30.6683 52.9569 30.5803 52.6329 30.4043C52.3089 30.2243 52.0629 29.9883 51.8949 29.6963C51.7309 29.4003 51.6489 29.0763 51.6489 28.7243C51.6489 28.3963 51.7069 28.1083 51.8229 27.8603C51.9389 27.6123 52.1109 27.4023 52.3389 27.2303C52.5669 27.0543 52.8469 26.9123 53.1789 26.8043C53.4669 26.7203 53.7929 26.6463 54.1569 26.5823C54.5209 26.5183 54.9029 26.4583 55.3029 26.4023C55.7069 26.3463 56.1069 26.2903 56.5029 26.2343L56.0469 26.4863C56.0549 25.9783 55.9469 25.6023 55.7229 25.3583C55.5029 25.1103 55.1229 24.9863 54.5829 24.9863C54.2429 24.9863 53.9309 25.0663 53.6469 25.2263C53.3629 25.3823 53.1649 25.6423 53.0529 26.0063L51.8829 25.6463C52.0429 25.0903 52.3469 24.6483 52.7949 24.3203C53.2469 23.9923 53.8469 23.8283 54.5949 23.8283C55.1749 23.8283 55.6789 23.9283 56.1069 24.1283C56.5389 24.3243 56.8549 24.6363 57.0549 25.0643C57.1589 25.2763 57.2229 25.5003 57.2469 25.7363C57.2709 25.9723 57.2829 26.2263 57.2829 26.4983V30.4883H56.1729V29.0063L56.3889 29.1983C56.1209 29.6943 55.7789 30.0643 55.3629 30.3083C54.9509 30.5483 54.4429 30.6683 53.8389 30.6683ZM54.0609 29.6423C54.4169 29.6423 54.7229 29.5803 54.9789 29.4563C55.2349 29.3283 55.4409 29.1663 55.5969 28.9703C55.7529 28.7743 55.8549 28.5703 55.9029 28.3583C55.9709 28.1663 56.0089 27.9503 56.0169 27.7103C56.0289 27.4703 56.0349 27.2783 56.0349 27.1343L56.4429 27.2843C56.0469 27.3443 55.6869 27.3983 55.3629 27.4463C55.0389 27.4943 54.7449 27.5423 54.4809 27.5903C54.2209 27.6343 53.9889 27.6883 53.7849 27.7523C53.6129 27.8123 53.4589 27.8843 53.3229 27.9683C53.1909 28.0523 53.0849 28.1543 53.0049 28.2743C52.9289 28.3943 52.8909 28.5403 52.8909 28.7123C52.8909 28.8803 52.9329 29.0363 53.0169 29.1803C53.1009 29.3203 53.2289 29.4323 53.4009 29.5163C53.5729 29.6003 53.7929 29.6423 54.0609 29.6423ZM61.415 30.6683C60.811 30.6683 60.289 30.5183 59.849 30.2183C59.413 29.9183 59.075 29.5103 58.835 28.9943C58.599 28.4743 58.481 27.8903 58.481 27.2423C58.481 26.5903 58.601 26.0083 58.841 25.4963C59.081 24.9803 59.421 24.5743 59.861 24.2783C60.305 23.9783 60.831 23.8283 61.439 23.8283C62.051 23.8283 62.565 23.9783 62.981 24.2783C63.401 24.5743 63.717 24.9803 63.929 25.4963C64.145 26.0123 64.253 26.5943 64.253 27.2423C64.253 27.8903 64.145 28.4723 63.929 28.9883C63.713 29.5043 63.395 29.9143 62.975 30.2183C62.555 30.5183 62.035 30.6683 61.415 30.6683ZM61.589 29.5343C62.001 29.5343 62.337 29.4363 62.597 29.2403C62.857 29.0443 63.047 28.7743 63.167 28.4303C63.287 28.0863 63.347 27.6903 63.347 27.2423C63.347 26.7943 63.285 26.3983 63.161 26.0543C63.041 25.7103 62.853 25.4423 62.597 25.2503C62.345 25.0583 62.023 24.9623 61.631 24.9623C61.215 24.9623 60.873 25.0643 60.605 25.2683C60.337 25.4723 60.137 25.7463 60.005 26.0903C59.877 26.4343 59.813 26.8183 59.813 27.2423C59.813 27.6703 59.877 28.0583 60.005 28.4063C60.137 28.7503 60.333 29.0243 60.593 29.2283C60.857 29.4323 61.189 29.5343 61.589 29.5343ZM63.347 30.4883V25.8263H63.203V21.8483H64.463V30.4883H63.347ZM68.9558 30.6683C68.3078 30.6683 67.7458 30.5223 67.2698 30.2303C66.7938 29.9383 66.4258 29.5363 66.1658 29.0243C65.9098 28.5083 65.7818 27.9143 65.7818 27.2423C65.7818 26.5663 65.9138 25.9723 66.1778 25.4603C66.4418 24.9443 66.8118 24.5443 67.2878 24.2603C67.7638 23.9723 68.3198 23.8283 68.9558 23.8283C69.6038 23.8283 70.1658 23.9743 70.6418 24.2663C71.1178 24.5583 71.4858 24.9603 71.7458 25.4723C72.0058 25.9843 72.1358 26.5743 72.1358 27.2423C72.1358 27.9183 72.0038 28.5143 71.7398 29.0303C71.4798 29.5423 71.1118 29.9443 70.6358 30.2363C70.1598 30.5243 69.5998 30.6683 68.9558 30.6683ZM68.9558 29.4863C69.5758 29.4863 70.0378 29.2783 70.3418 28.8623C70.6498 28.4423 70.8038 27.9023 70.8038 27.2423C70.8038 26.5663 70.6478 26.0263 70.3358 25.6223C70.0278 25.2143 69.5678 25.0103 68.9558 25.0103C68.5358 25.0103 68.1898 25.1063 67.9178 25.2983C67.6458 25.4863 67.4438 25.7483 67.3118 26.0843C67.1798 26.4163 67.1138 26.8023 67.1138 27.2423C67.1138 27.9223 67.2698 28.4663 67.5818 28.8743C67.8938 29.2823 68.3518 29.4863 68.9558 29.4863ZM74.0543 30.4883V29.2703H75.3083V30.4883H74.0543ZM74.0543 28.3283V21.8483H75.3083V28.3283H74.0543Z" fill="white"/>
<defs>
<filter id="filter0_d_282_28827" x="5.37207" y="0.488281" width="90.5244" height="50" filterUnits="userSpaceOnUse" color-interpolation-filters="sRGB">
<feFlood flood-opacity="0" result="BackgroundImageFix"/>
<feColorMatrix in="SourceAlpha" type="matrix" values="0 0 0 0 0 0 0 0 0 0 0 0 0 0 0 0 0 0 127 0" result="hardAlpha"/>
<feOffset/>
<feGaussianBlur stdDeviation="2.5"/>
<feComposite in2="hardAlpha" operator="out"/>
<feColorMatrix type="matrix" values="0 0 0 0 0 0 0 0 0 0 0 0 0 0 0 0 0 0 0.1 0"/>
<feBlend mode="normal" in2="BackgroundImageFix" result="effect1_dropShadow_282_28827"/>
<feBlend mode="normal" in="SourceGraphic" in2="effect1_dropShadow_282_28827" result="shape"/>
</filter>
</defs>
</svg>
