<svg xmlns="http://www.w3.org/2000/svg" width="24" height="25" viewBox="0 0 24 25" fill="none">
  <path d="M15.8002 2.99219H11.8802C9.57023 2.99219 7.70023 4.85219 7.68023 7.15219C5.37023 7.15219 3.49023 9.03219 3.49023 11.3522V17.7922C3.49023 20.1122 5.37023 21.9922 7.69023 21.9922H11.6102C13.9202 21.9922 15.7902 20.1322 15.8102 17.8322C18.1202 17.8322 20.0002 15.9522 20.0002 13.6322V7.19219C20.0002 4.87219 18.1202 2.99219 15.8002 2.99219ZM11.6202 20.7922H7.70023C6.05023 20.7922 4.70023 19.4422 4.70023 17.7922V11.3522C4.70023 9.70219 6.04023 8.36219 7.68023 8.35219V13.6222C7.68023 15.9422 9.56024 17.8222 11.8802 17.8222H14.6102C14.5902 19.4622 13.2602 20.7822 11.6102 20.7822L11.6202 20.7922ZM18.8002 7.22219V13.6622C18.8002 15.3122 17.4502 16.6622 15.8002 16.6622H11.8802C10.2302 16.6622 8.88023 15.3122 8.88023 13.6622V7.22219C8.88023 7.22219 8.88023 7.17219 8.88023 7.15219C8.88023 7.05219 8.90023 6.96219 8.91023 6.87219C8.92023 6.78219 8.92023 6.69219 8.94023 6.60219C9.21023 5.23219 10.4202 4.19219 11.8702 4.19219H15.7902C17.4402 4.19219 18.7902 5.54219 18.7902 7.19219V7.22219H18.8002Z" fill="#4C4C4C"/>
</svg>