<svg width="20" height="18" viewBox="0 0 20 18" fill="none" xmlns="http://www.w3.org/2000/svg">
<path d="M19.4059 10.7861C19.734 10.7861 20 11.0548 20 11.3861V14.3861C20 16.3677 18.4777 17.9861 16.5842 17.9861H2.47525C1.1012 17.9861 0 16.8154 0 15.3861V11.3861C0 11.0548 0.26597 10.7861 0.594059 10.7861C0.922149 10.7861 1.18812 11.0548 1.18812 11.3861V15.3861C1.18812 16.166 1.77139 16.7861 2.47525 16.7861H16.5842C17.8075 16.7861 18.8119 15.7183 18.8119 14.3861V11.3861C18.8119 11.0548 19.0779 10.7861 19.4059 10.7861Z" fill="#DB3B2B"/>
<path d="M9.99907 14.0342L5.68572 9.72083C5.45141 9.48651 5.45141 9.10661 5.68572 8.8723C5.92004 8.63799 6.29993 8.63799 6.53425 8.8723L9.39916 11.7372L9.39841 0.985904C9.39841 0.654532 9.66704 0.385903 9.99841 0.385903C10.3298 0.385903 10.5984 0.654532 10.5984 0.985904L10.5992 11.7372L13.4639 8.8723C13.6748 8.66142 14.0036 8.64033 14.2381 8.80904L14.3124 8.8723C14.5467 9.10661 14.5467 9.48651 14.3124 9.72083L9.99907 14.0342Z" fill="#DB3B2B"/>
</svg>
