<svg width="17" height="17" viewBox="0 0 17 17" fill="none" xmlns="http://www.w3.org/2000/svg">
<path fill-rule="evenodd" clip-rule="evenodd" d="M11.3605 3.56022L12.737 4.94192C13.2597 5.46655 13.2597 6.31714 12.737 6.84177L6.61402 12.9879C6.49993 13.1024 6.3452 13.1667 6.18386 13.1667H3.77496C3.43899 13.1667 3.16663 12.8934 3.16663 12.5561V10.1381C3.16663 9.97618 3.23072 9.82087 3.3448 9.70635L9.46783 3.56022C9.99048 3.03559 10.8379 3.03559 11.3605 3.56022ZM8.88371 5.52705L4.13974 10.2901L4.14031 12.1894H6.03187L10.7769 7.42734L8.88371 5.52705ZM10.1561 4.25107L9.57154 4.83663L11.4647 6.73692L12.0488 6.15092C12.1755 6.02373 12.1896 5.82631 12.091 5.68352L12.0488 5.63278L10.6723 4.25107C10.5297 4.10799 10.2986 4.10799 10.1561 4.25107Z" fill="#4C4C4C"/>
<rect x="5.16663" y="12.5" width="7.33333" height="0.666667" fill="#4C4C4C"/>
</svg>
