<svg xmlns="http://www.w3.org/2000/svg" width="24" height="24" viewBox="0 0 24 24" fill="none">
  <path fill-rule="evenodd" clip-rule="evenodd" d="M4.0999 5.99941C4.0999 4.67393 5.17442 3.59941 6.4999 3.59941H7.55434V2.39941H6.4999C4.51168 2.39941 2.8999 4.01119 2.8999 5.99941V8.00039V19.9994V20.0004C2.8999 21.9886 4.51168 23.6004 6.4999 23.6004L17.4999 23.6004C19.4881 23.6004 21.0999 21.9886 21.0999 20.0004V18.9994L21.0999 7.00039L21.0999 5.99941C21.0999 4.01119 19.4881 2.39941 17.4999 2.39941H17.2063V3.59941H17.4999C18.8254 3.59941 19.8999 4.67393 19.8999 5.99941L19.8999 7.00039L19.8999 18.9994V20.0004C19.8999 21.3259 18.8254 22.4004 17.4999 22.4004H16.4736V22.3994H6.4999C5.17587 22.3994 4.10226 21.3273 4.09991 20.0038C4.0999 20.0023 4.0999 20.0009 4.0999 19.9994L4.0999 8.00039" fill="white"/>
  <rect x="7.86045" y="1.24375" width="9.01616" height="2.99883" rx="1.49941" stroke="white" stroke-width="1.3"/>
  <path d="M10.8153 8.5H17.1789" stroke="white" stroke-width="1.2" stroke-linecap="round"/>
  <path d="M10.9256 13.5H16.0685" stroke="white" stroke-width="1.2" stroke-linecap="round"/>
  <path d="M15.2322 18.5H10.9465" stroke="white" stroke-width="1.2" stroke-linecap="round"/>
  <rect x="5.99561" y="7" width="3" height="3" rx="0.5" stroke="white"/>
  <rect x="5.99561" y="12" width="3" height="3" rx="0.5" stroke="white"/>
  <rect x="5.99561" y="17" width="3" height="3" rx="0.5" stroke="white"/>
</svg>