<svg width="16" height="17" viewBox="0 0 16 17" fill="none" xmlns="http://www.w3.org/2000/svg">
<path fill-rule="evenodd" clip-rule="evenodd" d="M7.66699 13.5359L8.08766 13.061C8.56499 12.5133 8.99433 11.9937 9.37633 11.4995L9.69166 11.0827C11.0083 9.3054 11.667 7.8948 11.667 6.8522C11.667 4.62676 9.87633 2.82275 7.66699 2.82275C5.45766 2.82275 3.66699 4.62676 3.66699 6.8522C3.66699 7.8948 4.32566 9.3054 5.64233 11.0827L5.95766 11.4995C6.50262 12.199 7.07277 12.8778 7.66699 13.5359Z" stroke="#4A4A4A" stroke-linecap="round" stroke-linejoin="round"/>
<path d="M7.66667 8.49991C8.58714 8.49991 9.33333 7.75233 9.33333 6.83015C9.33333 5.90797 8.58714 5.1604 7.66667 5.1604C6.74619 5.1604 6 5.90797 6 6.83015C6 7.75233 6.74619 8.49991 7.66667 8.49991Z" stroke="#4A4A4A" stroke-linecap="round" stroke-linejoin="round"/>
</svg>
