<svg xmlns="http://www.w3.org/2000/svg" width="18" height="18" viewBox="0 0 18 18" fill="none">
  <g clip-path="url(#clip0_606_50395)">
    <path d="M18 0H0V18H18V0Z" fill="white"/>
    <path d="M9 3V15" stroke="#4C4C4C" stroke-linecap="round"/>
    <path d="M3 9H15" stroke="#4C4C4C" stroke-linecap="round"/>
    <path d="M8.99951 2.55078C9.24688 2.55078 9.4495 2.75267 9.44971 3V8.55078H14.9995C15.2469 8.55078 15.4495 8.75268 15.4497 9C15.4497 9.2475 15.247 9.4502 14.9995 9.4502H9.44971V15C9.44971 15.2475 9.24701 15.4502 8.99951 15.4502C8.7522 15.45 8.55029 15.2474 8.55029 15V9.4502H2.99951C2.7522 9.44997 2.55029 9.24736 2.55029 9C2.5505 8.75281 2.75233 8.55101 2.99951 8.55078H8.55029V3C8.5505 2.75281 8.75233 2.55101 8.99951 2.55078Z" fill="#4C4C4C"/>
  </g>
  <defs>
    <clipPath id="clip0_606_50395">
      <rect width="18" height="18" fill="white"/>
    </clipPath>
  </defs>
</svg>