<svg width="16" height="17" viewBox="0 0 16 17" fill="none" xmlns="http://www.w3.org/2000/svg">
<path d="M12.0058 1.98779C12.8953 1.98779 13.6755 2.5823 13.913 3.44107L14.8214 6.72463L14.8298 6.78833L14.8327 12.9455C14.8327 14.2712 13.7601 15.3458 12.4369 15.3458H3.89521C2.57202 15.3458 1.49937 14.2712 1.49937 12.9455V6.80824L1.50774 6.74392L1.49707 6.61337L1.54107 6.61301L2.41903 3.44107C2.65659 2.5823 3.43681 1.98779 4.32631 1.98779H12.0058ZM11.1208 8.11623L11.0747 8.20331C10.7723 8.733 10.2029 9.08461 9.55853 9.08461C8.8774 9.08461 8.28302 8.69249 7.99584 8.11623C7.70904 8.69249 7.11466 9.08461 6.43353 9.08461C5.7524 9.08461 5.15802 8.69249 4.87084 8.11623C4.58404 8.69249 3.98966 9.08461 3.30853 9.08461C2.93341 9.08461 2.58459 8.96567 2.29892 8.76254L2.29937 12.9455C2.29937 13.7917 2.95555 14.4844 3.78594 14.5406L3.89521 14.5443H4.22374L4.22437 11.0671C4.22437 10.5637 4.60735 10.1445 5.09104 10.1445H7.49104C7.97473 10.1445 8.35771 10.5637 8.35771 11.0671L8.35707 14.5443H12.4369C13.3182 14.5443 14.0327 13.8285 14.0327 12.9459L14.031 8.44776C13.7099 8.83768 13.224 9.08461 12.6835 9.08461C12.0024 9.08461 11.408 8.69249 11.1208 8.11623ZM7.49104 10.946H5.09104C5.06574 10.946 5.02437 10.9913 5.02437 11.0671L5.02374 14.5443H7.55707L7.55771 11.0671C7.55771 10.9913 7.51634 10.946 7.49104 10.946ZM4.25103 7.41485H2.36604C2.40622 7.90107 2.81284 8.28312 3.30853 8.28312C3.80422 8.28312 4.21085 7.90107 4.25103 7.41485ZM7.37603 7.41485H5.49104C5.53122 7.90107 5.93784 8.28312 6.43353 8.28312C6.92922 8.28312 7.33585 7.90107 7.37603 7.41485ZM10.501 7.41485H8.61604C8.65622 7.90107 9.06284 8.28312 9.55853 8.28312C10.0352 8.28312 10.4294 7.92989 10.4948 7.47048L10.501 7.41485ZM13.626 7.41485H11.741C11.7812 7.90107 12.1878 8.28312 12.6835 8.28312C13.1792 8.28312 13.5858 7.90107 13.626 7.41485ZM5.41107 2.78861L4.32631 2.78927C3.79636 2.78927 3.3315 3.14347 3.18997 3.65512L2.37107 6.61301H4.7404L5.41107 2.78861ZM10.3151 2.78861H8.7324V6.61301H10.9511L10.3151 2.78861ZM12.0058 2.78927L11.1257 2.78861L11.7617 6.61301H13.9597L13.1421 3.65512C13.0094 3.17545 12.5926 2.83416 12.1043 2.79338L12.0058 2.78927ZM7.9324 2.78861H6.22174L5.55107 6.61301H7.9324V2.78861Z" fill="#4C4C4C"/>
</svg>
