<svg xmlns="http://www.w3.org/2000/svg" width="22" height="21" viewBox="0 0 22 21" fill="none">
  <g clip-path="url(#clip0_6589_2638)">
    <path d="M2.56771 15.666C1.59885 15.666 0.773763 15.0046 0.561409 14.059C0.291542 12.8667 0.291542 11.6058 0.561409 10.4125C0.773763 9.46681 1.59885 8.80542 2.56882 8.80542H3.92368C4.22009 8.80542 4.4612 9.04653 4.4612 9.34294C4.4612 9.63935 4.22009 9.88046 3.92368 9.88046H2.56771C2.10761 9.88046 1.70613 10.2034 1.6088 10.648C1.37433 11.6877 1.37433 12.786 1.6088 13.8245C1.70613 14.2702 2.10761 14.5932 2.56329 14.5932H3.92258C4.21899 14.5932 4.4601 14.8343 4.4601 15.1307C4.4601 15.4271 4.21899 15.6682 3.92258 15.6682H2.56771V15.666Z" fill="white"/>
    <path d="M4.87374 16.2709C3.99999 16.2709 3.28883 15.5586 3.28772 14.6848V9.78743C3.29878 8.92253 4.01105 8.22021 4.87374 8.22021H4.89475C5.76076 8.23127 6.4487 8.91921 6.46087 9.78633V14.686C6.46087 15.5597 5.74859 16.272 4.87485 16.272L4.87374 16.2709ZM4.87374 9.27424C4.59171 9.27424 4.36166 9.50429 4.36166 9.78743V14.6848C4.35613 14.9702 4.58175 15.2047 4.86379 15.2102C5.15135 15.2102 5.38029 14.9846 5.38582 14.7081V9.78743C5.38582 9.5054 5.15577 9.27535 4.87374 9.27535V9.27424Z" fill="white"/>
    <path d="M18.7299 9.87932C18.4335 9.87932 18.1935 9.63821 18.1935 9.3418V8.75451C18.1935 4.91776 15.0723 1.79659 11.2355 1.79659H10.7677C6.93094 1.79659 3.80978 4.91776 3.80978 8.75451V9.3418C3.80978 9.63821 3.56867 9.87932 3.27226 9.87932C2.97585 9.87932 2.73584 9.63821 2.73584 9.3418V8.75451C2.73363 4.32604 6.33701 0.722656 10.7666 0.722656H11.2344C15.6629 0.722656 19.2663 4.32604 19.2663 8.75451V9.3418C19.2663 9.63821 19.0252 9.87932 18.7288 9.87932H18.7299Z" fill="white"/>
    <path d="M18.0773 15.6659C17.7809 15.6659 17.5398 15.4248 17.5398 15.1284C17.5398 14.832 17.7809 14.5908 18.0773 14.5908H19.4322C19.8923 14.5908 20.2938 14.2679 20.3911 13.8233C20.6256 12.7836 20.6256 11.6854 20.3911 10.6468C20.2938 10.2011 19.8923 9.87814 19.4366 9.87814H18.0773C17.7809 9.87814 17.5398 9.63703 17.5398 9.34172C17.5398 9.04642 17.7809 8.8042 18.0773 8.8042H19.4322C20.401 8.8042 21.2261 9.46559 21.4385 10.4101C21.7084 11.6024 21.7084 12.8633 21.4385 14.0566C21.2483 14.9027 20.5669 15.521 19.7308 15.6416L19.7518 15.6626H19.4322H18.0773V15.6659Z" fill="white"/>
    <path d="M17.1262 16.2709C16.2524 16.2709 15.5413 15.5587 15.5402 14.6849V9.7875C15.5568 8.92592 16.2679 8.22803 17.1262 8.22803H17.156C18.0132 8.24462 18.6967 8.92813 18.7133 9.78529V14.6849C18.7133 15.5587 18.001 16.2698 17.1273 16.2709H17.1262ZM17.1262 9.27431C16.8441 9.27431 16.6141 9.50436 16.6141 9.7875V14.6849C16.6086 14.9703 16.8342 15.2047 17.1162 15.2103C17.4038 15.2103 17.6327 14.9846 17.6383 14.7081V9.7875C17.6383 9.50547 17.4082 9.27542 17.1262 9.27542V9.27431Z" fill="white"/>
    <path d="M8.67624 19.5713C7.55696 19.5713 6.50293 19.2041 5.7066 18.5372C4.88041 17.8459 4.37386 16.8671 4.27985 15.7788C4.26768 15.6361 4.31082 15.4968 4.40372 15.3873C4.49552 15.2778 4.62492 15.2103 4.7676 15.197C4.78308 15.1959 4.79967 15.1948 4.81516 15.1948C5.09498 15.1948 5.32503 15.405 5.34936 15.6848C5.49425 17.3405 6.86238 18.4974 8.67624 18.4974H9.37966C9.67608 18.4974 9.91719 18.7385 9.91719 19.0349C9.91719 19.3313 9.67608 19.5724 9.37966 19.5724H8.67624V19.5713Z" fill="white"/>
    <path d="M10.8252 20.7226C9.8386 20.7226 9.03674 19.9207 9.03674 18.9342C9.03674 17.9476 9.8386 17.1458 10.8252 17.1458C11.8117 17.1458 12.6136 17.9476 12.6136 18.9342C12.6136 19.9207 11.8117 20.7226 10.8252 20.7226ZM10.8252 18.2407C10.4425 18.2407 10.1317 18.5515 10.1317 18.9342C10.1317 19.3169 10.4425 19.6276 10.8252 19.6276C11.2078 19.6276 11.5186 19.3169 11.5186 18.9342C11.5186 18.5515 11.2078 18.2407 10.8252 18.2407Z" fill="white"/>
  </g>
  <defs>
    <clipPath id="clip0_6589_2638">
      <rect width="21.2797" height="20" fill="white" transform="translate(0.360107 0.722656)"/>
    </clipPath>
  </defs>
</svg>