<svg width="17" height="17" viewBox="0 0 17 17" fill="none" xmlns="http://www.w3.org/2000/svg">
<path d="M9.5154 1.59424C10.2844 1.59424 10.9154 2.19524 10.9154 2.94662L10.9149 3.6269L14.4149 3.62757C14.6358 3.62757 14.8149 3.80666 14.8149 4.02757C14.8149 4.24849 14.6358 4.42757 14.4149 4.42757L13.6049 4.42691L13.1501 12.3822C13.0672 13.8344 11.9328 14.9927 10.5401 14.9927H5.60182C4.20913 14.9927 3.07471 13.8344 2.99186 12.3824L2.53621 4.42691L1.74821 4.42757C1.52729 4.42757 1.34821 4.24849 1.34821 4.02757C1.34821 3.80666 1.52729 3.62757 1.74821 3.62757L5.44821 3.6269L5.44873 2.94662C5.44873 2.19524 6.07978 1.59424 6.84874 1.59424H9.5154ZM12.8024 4.44662H3.33911L3.79055 12.3367C3.85019 13.3819 4.65074 14.1927 5.60182 14.1927H10.5401C11.4912 14.1927 12.2917 13.3819 12.3514 12.3367L12.8024 4.44662ZM6.74821 5.49424C6.96912 5.49424 7.14821 5.67332 7.14821 5.89424V11.2276C7.14821 11.4485 6.96912 11.6276 6.74821 11.6276C6.52729 11.6276 6.34821 11.4485 6.34821 11.2276V5.89424C6.34821 5.67332 6.52729 5.49424 6.74821 5.49424ZM9.41487 5.49424C9.63579 5.49424 9.81487 5.67332 9.81487 5.89424V11.2276C9.81487 11.4485 9.63579 11.6276 9.41487 11.6276C9.19396 11.6276 9.01487 11.4485 9.01487 11.2276V5.89424C9.01487 5.67332 9.19396 5.49424 9.41487 5.49424ZM9.5154 2.39424H6.84874C6.51312 2.39424 6.24873 2.64603 6.24873 2.94662V3.62557H10.1154V2.94662C10.1154 2.66915 9.89013 2.43326 9.5915 2.39862L9.5154 2.39424Z" fill="#4C4C4C"/>
</svg>
