<svg width="28" height="27" viewBox="0 0 28 27" fill="none" xmlns="http://www.w3.org/2000/svg">
<path d="M24.5336 15.2305C24.901 15.2305 25.1989 15.5313 25.1989 15.9024V19.2621C25.1989 21.4813 23.494 23.2938 21.3734 23.2938H5.57282C4.03402 23.2938 2.80078 21.9827 2.80078 20.382V15.9024C2.80078 15.5313 3.09864 15.2305 3.46607 15.2305C3.8335 15.2305 4.13136 15.5313 4.13136 15.9024V20.382C4.13136 21.2554 4.78457 21.9499 5.57282 21.9499H21.3734C22.7435 21.9499 23.8683 20.754 23.8683 19.2621V15.9024C23.8683 15.5313 24.1661 15.2305 24.5336 15.2305Z" fill="#4C4C4C"/>
<path d="M13.9985 3.58398L18.8291 8.41453C19.0915 8.67693 19.0915 9.10239 18.8291 9.36479C18.5667 9.6272 18.1412 9.6272 17.8788 9.36479L14.6704 6.1564L14.6712 18.1968C14.6712 18.5679 14.3704 18.8687 13.9993 18.8687C13.6282 18.8687 13.3273 18.5679 13.3273 18.1968L13.3265 6.1564L10.1183 9.36479C9.8821 9.60096 9.51387 9.62458 9.25129 9.43565L9.168 9.36479C8.90559 9.10239 8.90559 8.67693 9.168 8.41453L13.9985 3.58398Z" fill="#4C4C4C"/>
</svg>
