<svg width="25" height="24" viewBox="0 0 25 24" fill="none" xmlns="http://www.w3.org/2000/svg">
<g clip-path="url(#clip0_3049_4267)">
<path fill-rule="evenodd" clip-rule="evenodd" d="M2.75 8C2.75 6.48122 3.98122 5.25 5.5 5.25H20.25C21.7688 5.25 23 6.48122 23 8V16.5C23 18.0188 21.7688 19.25 20.25 19.25H5.5C3.98122 19.25 2.75 18.0188 2.75 16.5V8ZM4.83301 9.125C4.83301 8.71079 5.16879 8.375 5.58301 8.375H8.70801C9.12222 8.375 9.45801 8.71079 9.45801 9.125C9.45801 9.53921 9.12222 9.875 8.70801 9.875H5.58301C5.16879 9.875 4.83301 9.53921 4.83301 9.125ZM16.2913 15.375C16.2913 14.9608 16.6271 14.625 17.0413 14.625H20.1663C20.5806 14.625 20.9163 14.9608 20.9163 15.375C20.9163 15.7892 20.5806 16.125 20.1663 16.125H17.0413C16.6271 16.125 16.2913 15.7892 16.2913 15.375ZM10.042 12.25C10.042 10.6852 11.3105 9.41663 12.8753 9.41663C14.4401 9.41663 15.7087 10.6852 15.7087 12.25C15.7087 13.8148 14.4401 15.0833 12.8753 15.0833C11.3105 15.0833 10.042 13.8148 10.042 12.25Z" fill="#4C4C4C"/>
</g>
<defs>
<clipPath id="clip0_3049_4267">
<rect width="24" height="24" fill="white" transform="translate(0.5)"/>
</clipPath>
</defs>
</svg>
