<svg width="20" height="20" viewBox="0 0 20 20" fill="none" xmlns="http://www.w3.org/2000/svg">
<g clip-path="url(#clip0_902_111743)">
<path d="M2.29173 9.28875C2.4084 9.44714 2.57506 9.5305 2.7584 9.5305C2.87506 9.5305 2.99173 9.5055 3.09173 9.42213L3.04173 9.35544L3.0584 9.38045L3.09173 9.42213L7.81673 5.98758L11.7501 9.38879C11.9917 9.5972 12.3501 9.57219 12.5584 9.33877L17.8417 3.46168C18.0584 3.21993 18.0417 2.85313 17.8001 2.64473C17.5584 2.43632 17.1917 2.45299 16.9834 2.69475L12.0834 8.14668L8.22506 4.81216L8.17506 4.87052L8.22506 4.80383C8.02506 4.62876 7.72506 4.62043 7.5084 4.77882L2.41673 8.48013C2.1584 8.67187 2.1084 9.03033 2.29173 9.28875Z" fill="#4C4C4C"/>
<path d="M12.2001 11.7896C11.2501 11.7896 10.4668 12.5732 10.4668 13.5235V15.766C10.4668 16.7163 11.2501 17.4999 12.2001 17.4999C13.1501 17.4999 13.9335 16.7163 13.9335 15.766V13.5235C13.9335 12.5732 13.1501 11.7896 12.2001 11.7896ZM12.7751 15.766C12.7751 16.0827 12.5168 16.3412 12.2001 16.3412C11.8835 16.3412 11.6251 16.0827 11.6251 15.766V13.5235C11.6251 13.2067 11.8835 12.9483 12.2001 12.9483C12.5168 12.9483 12.7751 13.2067 12.7751 13.5235V15.766Z" fill="#4C4C4C"/>
<path d="M16.6 8.255C15.65 8.255 14.8667 9.03862 14.8667 9.98895V15.766C14.8667 16.7163 15.65 17.5 16.6 17.5C17.55 17.5 18.3334 16.7163 18.3334 15.766V9.98895C18.3334 9.03862 17.55 8.255 16.6 8.255ZM17.175 15.766C17.175 16.0828 16.9167 16.3412 16.6 16.3412C16.2834 16.3412 16.025 16.0828 16.025 15.766V9.98895C16.025 9.67217 16.2834 9.41375 16.6 9.41375C16.9167 9.41375 17.175 9.67217 17.175 9.98895V15.766Z" fill="#4C4C4C"/>
<path d="M7.79974 8.255C6.84974 8.255 6.06641 9.03862 6.06641 9.98895V15.766C6.06641 16.7163 6.84974 17.5 7.79974 17.5C8.74974 17.5 9.53307 16.7163 9.53307 15.766V9.98895C9.53307 9.03862 8.74974 8.255 7.79974 8.255ZM8.37474 15.766C8.37474 16.0828 8.11641 16.3412 7.79974 16.3412C7.48307 16.3412 7.22474 16.0828 7.22474 15.766V9.98895C7.22474 9.67217 7.48307 9.41375 7.79974 9.41375C8.11641 9.41375 8.37474 9.67217 8.37474 9.98895V15.766Z" fill="#4C4C4C"/>
<path d="M3.39984 11.7896C2.44984 11.7896 1.6665 12.5732 1.6665 13.5235V15.766C1.6665 16.7163 2.44984 17.4999 3.39984 17.4999C4.34984 17.4999 5.13317 16.7163 5.13317 15.766V13.5235C5.13317 12.5732 4.34984 11.7896 3.39984 11.7896ZM3.97484 15.766C3.97484 16.0827 3.7165 16.3412 3.39984 16.3412C3.08317 16.3412 2.82484 16.0827 2.82484 15.766V13.5235C2.82484 13.2067 3.08317 12.9483 3.39984 12.9483C3.7165 12.9483 3.97484 13.2067 3.97484 13.5235V15.766Z" fill="#4C4C4C"/>
</g>
<defs>
<clipPath id="clip0_902_111743">
<rect width="20" height="20" fill="white"/>
</clipPath>
</defs>
</svg>
