<svg width="24" height="24" viewBox="0 0 24 24" fill="none" xmlns="http://www.w3.org/2000/svg">
<g clip-path="url(#clip0_33_1972)">
<path d="M18.6921 19.1042H16.0879C15.94 19.1042 15.8164 19.0542 15.7171 18.9542C15.6171 18.8542 15.5671 18.7306 15.5671 18.5833C15.5671 18.4361 15.6171 18.3125 15.7171 18.2125C15.8171 18.1132 15.9407 18.0635 16.0879 18.0635H18.6921V15.4594C18.6921 15.3115 18.7421 15.1878 18.8421 15.0885C18.9421 14.9892 19.0657 14.9389 19.2129 14.9375C19.3601 14.9375 19.4838 14.9875 19.5838 15.0875C19.6831 15.1875 19.7327 15.3111 19.7327 15.4583V18.0625H22.3369C22.4848 18.0625 22.6084 18.1125 22.7077 18.2125C22.807 18.3125 22.8574 18.4361 22.8588 18.5833C22.8588 18.7306 22.8088 18.8542 22.7088 18.9542C22.6095 19.0535 22.4858 19.1031 22.3379 19.1031H19.7338V21.7073C19.7338 21.8552 19.6838 21.9788 19.5838 22.0781C19.4838 22.1781 19.3598 22.2281 19.2119 22.2281C19.0647 22.2281 18.9411 22.1781 18.8411 22.0781C18.7417 21.9795 18.6921 21.8563 18.6921 21.7083V19.1042ZM4.14834 19.625C3.91015 19.625 3.7105 19.5444 3.54938 19.3833C3.38827 19.2222 3.30772 19.0222 3.30772 18.7833V13.375H2.84522C2.58133 13.375 2.36223 13.2691 2.18793 13.0573C2.01293 12.8455 1.96015 12.6083 2.02959 12.3458L3.07126 7.77812C3.11431 7.58785 3.21431 7.4316 3.37126 7.30937C3.5282 7.18646 3.70668 7.125 3.90668 7.125H16.8108C17.0108 7.125 17.1893 7.18611 17.3463 7.30833C17.5032 7.43125 17.6032 7.5875 17.6463 7.77708L18.6879 12.3458C18.7574 12.6083 18.7046 12.8455 18.5296 13.0573C18.3546 13.2691 18.1358 13.375 17.8733 13.375H17.4098V16.2604C17.4098 16.4076 17.3598 16.5309 17.2598 16.6302C17.1598 16.7302 17.0362 16.7802 16.889 16.7802C16.7411 16.7802 16.6174 16.7302 16.5181 16.6302C16.4181 16.5309 16.3681 16.4073 16.3681 16.2594V13.375H11.6411V18.7833C11.6411 19.0222 11.5605 19.2222 11.3994 19.3833C11.2376 19.5444 11.0376 19.625 10.7994 19.625H4.14834ZM4.34938 18.5833H10.5994V13.375H4.34938V18.5833ZM3.74834 5.04167C3.60043 5.04167 3.47681 4.99167 3.37751 4.89167C3.27751 4.79167 3.22751 4.66771 3.22751 4.51979C3.22751 4.37187 3.27751 4.24826 3.37751 4.14896C3.47681 4.04965 3.60043 4 3.74834 4H16.9692C17.1171 4 17.2407 4.05 17.34 4.15C17.44 4.25 17.49 4.37396 17.49 4.52187C17.49 4.66979 17.44 4.7934 17.34 4.89271C17.2407 4.99201 17.1171 5.04167 16.9692 5.04167H3.74834ZM3.07959 12.3333H17.6379L16.6733 8.16667H4.04418L3.07959 12.3333Z" fill="#4C4C4C"/>
<path d="M3.07855 12.3333H17.6379M17.6379 12.3333H3.07959L4.04418 8.16667H16.6733L17.6379 12.3333ZM18.6921 19.1042H16.0879C15.94 19.1042 15.8164 19.0542 15.7171 18.9542C15.6171 18.8542 15.5671 18.7306 15.5671 18.5833C15.5671 18.4361 15.6171 18.3125 15.7171 18.2125C15.8171 18.1132 15.9407 18.0635 16.0879 18.0635H18.6921V15.4594C18.6921 15.3115 18.7421 15.1878 18.8421 15.0885C18.9421 14.9892 19.0657 14.9389 19.2129 14.9375C19.3601 14.9375 19.4838 14.9875 19.5838 15.0875C19.6831 15.1875 19.7327 15.3111 19.7327 15.4583V18.0625H22.3369C22.4848 18.0625 22.6084 18.1125 22.7077 18.2125C22.807 18.3125 22.8574 18.4361 22.8588 18.5833C22.8588 18.7306 22.8088 18.8542 22.7088 18.9542C22.6095 19.0535 22.4858 19.1031 22.3379 19.1031H19.7338V21.7073C19.7338 21.8552 19.6838 21.9788 19.5838 22.0781C19.4838 22.1781 19.3598 22.2281 19.2119 22.2281C19.0647 22.2281 18.9411 22.1781 18.8411 22.0781C18.7417 21.9795 18.6921 21.8563 18.6921 21.7083V19.1042ZM4.14834 19.625C3.91015 19.625 3.7105 19.5444 3.54938 19.3833C3.38827 19.2222 3.30772 19.0222 3.30772 18.7833V13.375H2.84522C2.58133 13.375 2.36223 13.2691 2.18793 13.0573C2.01293 12.8455 1.96015 12.6083 2.02959 12.3458L3.07126 7.77812C3.11431 7.58785 3.21431 7.4316 3.37126 7.30937C3.5282 7.18646 3.70668 7.125 3.90668 7.125H16.8108C17.0108 7.125 17.1893 7.18611 17.3463 7.30833C17.5032 7.43125 17.6032 7.5875 17.6463 7.77708L18.6879 12.3458C18.7574 12.6083 18.7046 12.8455 18.5296 13.0573C18.3546 13.2691 18.1358 13.375 17.8733 13.375H17.4098V16.2604C17.4098 16.4076 17.3598 16.5309 17.2598 16.6302C17.1598 16.7302 17.0362 16.7802 16.889 16.7802C16.7411 16.7802 16.6174 16.7302 16.5181 16.6302C16.4181 16.5309 16.3681 16.4073 16.3681 16.2594V13.375H11.6411V18.7833C11.6411 19.0222 11.5605 19.2222 11.3994 19.3833C11.2376 19.5444 11.0376 19.625 10.7994 19.625H4.14834ZM4.34938 18.5833H10.5994V13.375H4.34938V18.5833ZM3.74834 5.04167C3.60043 5.04167 3.47681 4.99167 3.37751 4.89167C3.27751 4.79167 3.22751 4.66771 3.22751 4.51979C3.22751 4.37187 3.27751 4.24826 3.37751 4.14896C3.47681 4.04965 3.60043 4 3.74834 4H16.9692C17.1171 4 17.2407 4.05 17.34 4.15C17.44 4.25 17.49 4.37396 17.49 4.52187C17.49 4.66979 17.44 4.7934 17.34 4.89271C17.2407 4.99201 17.1171 5.04167 16.9692 5.04167H3.74834Z" stroke="#4C4C4C" stroke-width="0.5"/>
</g>
<defs>
<clipPath id="clip0_33_1972">
<rect width="24" height="24" fill="white"/>
</clipPath>
</defs>
</svg>
