<svg xmlns="http://www.w3.org/2000/svg" width="25" height="25" viewBox="0 0 25 25" fill="none">
<path d="M12.4714 3.17188C12.8112 3.17188 13.0867 3.44736 13.0867 3.78718L13.0537 4.86987L13.0654 4.87158C13.5975 4.92583 14.093 5.04607 14.5517 5.23237L14.8226 5.35208C15.5335 5.69267 16.1175 6.17475 16.5738 6.79789C16.8223 7.13725 17.062 7.68452 17.2943 8.44076C17.3862 8.73992 17.2182 9.05694 16.919 9.14882C16.8893 9.15737 16.8893 9.15737 16.859 9.16372C16.5255 9.22745 16.1973 9.03069 16.0964 8.70651C15.9337 8.18413 15.7641 7.80146 15.5888 7.5593C15.2418 7.08021 14.7965 6.70789 14.2522 6.44191C13.7075 6.17577 13.0966 6.04155 12.4188 6.03943C11.7821 6.03731 11.2177 6.14838 10.7252 6.37235C10.2336 6.59589 9.84713 6.90534 9.56486 7.30094C9.28346 7.69531 9.14286 8.14637 9.14286 8.6556C9.14286 9.21072 9.33706 9.67671 9.72654 10.0566C10.1193 10.4396 10.7429 10.7653 11.5971 11.0321L14.3484 11.8685C15.4631 12.2087 16.2704 12.6646 16.7697 13.2379C17.2705 13.8129 17.5204 14.5809 17.5204 15.5399C17.5204 16.3672 17.3209 17.0882 16.9218 17.7016C16.5228 18.3146 15.9601 18.7909 15.2347 19.1302C14.6714 19.3937 14.0324 19.5546 13.3179 19.6131L13.0857 19.6269L13.0867 20.6566C13.0867 20.9655 12.859 21.2213 12.5623 21.2652L12.4714 21.2719C12.1315 21.2719 11.8561 20.9964 11.8561 20.6566L11.8867 19.5929L11.6832 19.5698C11.2545 19.5091 10.849 19.4078 10.4668 19.266L10.1845 19.152C9.44277 18.8276 8.82836 18.3678 8.3419 17.7729C8.07746 17.4496 7.82008 16.9414 7.56851 16.2479C7.45714 15.9409 7.61426 15.6015 7.9204 15.4878C8.22102 15.3762 8.55738 15.5101 8.69897 15.7978C9.1489 16.7121 9.58735 17.3228 10.0117 17.6296C10.756 18.1678 11.6559 18.4369 12.713 18.4369C13.8056 18.4369 14.6809 18.1705 15.3406 17.6386C15.9979 17.1085 16.3258 16.4103 16.3258 15.5399C16.3258 14.8903 16.1358 14.3748 15.7562 13.9904C15.3737 13.603 14.7181 13.2667 13.7896 12.9835L10.741 12.036C8.85024 11.4417 7.89923 10.3258 7.89923 8.69481C7.89923 7.93154 8.08982 7.25949 8.47108 6.67988C8.85193 6.1009 9.38147 5.64865 10.0588 5.32353C10.5661 5.08003 11.1337 4.92822 11.7615 4.86794L11.8557 4.86088L11.8561 3.78718C11.8561 3.47825 12.0837 3.22249 12.3804 3.17855L12.4714 3.17188Z" fill="#4C4C4C"/>
</svg>