<?xml version="1.0" encoding="UTF-8"?>
<svg width="23px" height="23px" viewBox="0 0 23 23" version="1.1" xmlns="http://www.w3.org/2000/svg"
    xmlns:xlink="http://www.w3.org/1999/xlink">
    <title>Shape</title>
    <g id="Symbols" stroke="none" stroke-width="1" fill="none" fill-rule="evenodd">
        <g id="menu_desktop" transform="translate(-25, -549)" fill="currentColor">
            <g id="Group-3" transform="translate(0, 444.1639)">
                <g id="Group-14-Copy" transform="translate(0, 93)">
                    <g id="solar:chat-round-money-outline" transform="translate(24, 11)">
                        <path
                            d="M12.5,2.86458333 C7.17850632,2.86458333 2.86458333,7.17850632 2.86458333,12.5 C2.86458333,14.0427083 3.22708333,15.4989583 3.86979167,16.7895833 C4.128125,17.3083333 4.22708333,17.9270833 4.06458333,18.5364583 L3.44375,20.8541667 C3.39069785,21.0517956 3.44707787,21.2627162 3.5916627,21.4075159 C3.73624753,21.5523155 3.9470842,21.6090087 4.14479167,21.55625 L6.46458333,20.9354167 C7.05081741,20.7853783 7.67166864,20.8546499 8.21041667,21.1302083 C9.54291117,21.79358 11.0115114,22.1377274 12.5,22.1354282 C17.8214937,22.1354282 22.1354167,17.8214937 22.1354167,12.5 C22.1354167,7.17850632 17.8214937,2.86458333 12.5,2.86458333 M1.30207516,12.5 C1.30207516,6.315625 6.315625,1.30208333 12.5,1.30208333 C18.684375,1.30208333 23.6979167,6.315625 23.6979167,12.5 C23.6979167,18.684375 18.684375,23.6979167 12.5,23.6979167 C10.7104167,23.6979167 9.01666667,23.2770833 7.51354167,22.5291667 C7.31556927,22.423749 7.08595552,22.3941214 6.86770833,22.4458333 L4.54895833,23.065625 C2.96145833,23.490625 1.509375,22.0385417 1.934375,20.4510417 L2.55520833,18.1322917 C2.60692028,17.9140445 2.5772927,17.6844307 2.471875,17.4864583 C1.70047469,15.937531 1.29998884,14.2303843 1.30207516,12.5 M12.5,7.55208333 C12.9314725,7.55208333 13.28125,7.90186087 13.28125,8.33333333 L13.28125,8.34375 C14.415625,8.63020833 15.3645833,9.52395833 15.3645833,10.7635417 C15.3645833,11.1950141 15.0148058,11.5447917 14.5833333,11.5447917 C14.1518609,11.5447917 13.8020833,11.1950141 13.8020833,10.7635417 C13.8020833,10.3635417 13.3583333,9.809375 12.5,9.809375 C11.6416667,9.809375 11.1979167,10.3635417 11.1979167,10.7635417 C11.1979167,11.1635417 11.6416667,11.71875 12.5,11.71875 C13.9427083,11.71875 15.3645833,12.71875 15.3645833,14.2364583 C15.3645833,15.4760417 14.415625,16.3708333 13.28125,16.65625 L13.28125,16.6666667 C13.28125,17.0981391 12.9314725,17.4479167 12.5,17.4479167 C12.0685275,17.4479167 11.71875,17.0981391 11.71875,16.6666667 L11.71875,16.65625 C10.584375,16.3708333 9.63541667,15.4760417 9.63541667,14.2364583 C9.63541667,13.8049859 9.98519421,13.4552083 10.4166667,13.4552083 C10.8481391,13.4552083 11.1979167,13.8049859 11.1979167,14.2364583 C11.1979167,14.6364583 11.6416667,15.190625 12.5,15.190625 C13.3583333,15.190625 13.8020833,14.6364583 13.8020833,14.2364583 C13.8020833,13.8364583 13.3583333,13.28125 12.5,13.28125 C11.0572917,13.28125 9.63541667,12.28125 9.63541667,10.7635417 C9.63541667,9.52395833 10.584375,8.63020833 11.71875,8.34375 L11.71875,8.33333333 C11.71875,7.90186087 12.0685275,7.55208333 12.5,7.55208333"
                            id="Shape"></path>
                    </g>
                </g>
            </g>
        </g>
    </g>
</svg>