<svg width="25" height="16" viewBox="0 0 25 16" fill="none" xmlns="http://www.w3.org/2000/svg">
<rect width="25" height="16" stroke="#E7E7E7"/>
<path d="M22.9096 14.2507L21.8003 13.0133L20.6485 14.2507H18.3874H13.5239V8.49067H11.2628L14.0785 2.048H16.8089L17.7901 4.26667V2.048H21.2031L21.8003 3.712L22.3976 2.048H25V1.06667C25 0.469333 24.5307 0 23.9334 0H1.06655C0.469283 0 0 0.469333 0 1.06667V14.9333C0 15.5307 0.469283 16 1.06655 16H23.9334C24.5307 16 25 15.5307 25 14.9333V14.2507H22.9096Z" fill="#0071CE"/>
<path d="M23.2085 13.568H25.0003L22.6539 11.0507L25.0003 8.576H23.2511L21.7579 10.1973L20.3074 8.576H18.5156L20.9047 11.0933L18.5156 13.568H20.2648L21.7579 11.9467L23.2085 13.568Z" fill="#0071CE"/>
<path d="M15.6572 12.416V11.648H18.4729V10.496H15.6572V9.728H18.5155V8.576H14.292V13.568H18.5155V12.416H15.6572Z" fill="#0071CE"/>
<path d="M23.6777 7.85067H24.9576V2.816L22.9098 2.85867L21.8006 5.97333L20.6487 2.85867H18.5156V7.85067H19.8808V4.352L21.1607 7.85067H22.3552L23.6777 4.352V7.85067Z" fill="#0071CE"/>
<path fill-rule="evenodd" clip-rule="evenodd" d="M14.5905 2.85867H16.3396L18.5581 7.85067H17.0222L16.5956 6.86933H14.2919L13.8652 7.85067H12.3721L14.5905 2.85867ZM15.4433 4.09597L14.7607 5.71731H16.1259L15.4433 4.09597Z" fill="#0071CE"/>
<path d="M24 10.5L25 12V9L24 10.5Z" fill="#0071CE"/>
</svg>
