<svg width="20" height="20" viewBox="0 0 20 20" fill="none" xmlns="http://www.w3.org/2000/svg">
<g id="Symbols">
<g id="Men&#195;&#186;-lateral">
<g id="healthicons:home-alt-outline-copy">
<path id="Shape" fill-rule="evenodd" clip-rule="evenodd" d="M18.2049 10.3606L10.4448 2.5L2.63466 10.3597C2.52023 10.471 2.47417 10.636 2.51419 10.7912C2.5542 10.9465 2.67408 11.0679 2.82773 11.1087C2.98139 11.1495 3.14491 11.1035 3.25547 10.9883L4.26405 9.97352V16.2228C4.26405 16.4679 4.46089 16.6667 4.70371 16.6667H8.66067C8.90349 16.6667 9.10033 16.4679 9.10033 16.2228V12.3431C9.10033 12.0979 9.29718 11.8992 9.53999 11.8992H11.2986C11.5415 11.8992 11.7383 12.0979 11.7383 12.3431V16.2228C11.7383 16.4679 11.9351 16.6667 12.178 16.6667H16.1349C16.3777 16.6667 16.5746 16.4679 16.5746 16.2228V9.96686L17.5823 10.9878C17.6933 11.1001 17.8551 11.1441 18.0069 11.1032C18.1587 11.0623 18.2774 10.9428 18.3182 10.7896C18.359 10.6364 18.3158 10.4729 18.2049 10.3606ZM15.6953 9.07595L10.4426 3.75535L5.14337 9.08838V15.7789H8.22101V12.3431C8.22101 11.6076 8.81154 11.0114 9.53999 11.0114H11.2986C12.0271 11.0114 12.6176 11.6076 12.6176 12.3431V15.7789H15.6953V9.07595Z" fill="#4C4C4C" stroke="#4C4C4C" stroke-width="0.52"/>
</g>
</g>
</g>
</svg>
