<svg width="16" height="17" viewBox="0 0 16 17" fill="none" xmlns="http://www.w3.org/2000/svg">
<g id="Symbols">
<g id="Group 4644">
<path id="Vector 33" d="M10.5 10.25C9.25 10.3889 7.00923 11.2408 5.5 12.75C4.75433 13.4957 4.37007 13.8799 4.12334 14.1267C3.73282 14.5172 3.10008 14.5168 2.70956 14.1262L1.29003 12.7067C0.868582 12.2852 0.941364 11.6403 1.4235 11.2899C1.67627 11.1062 2.01284 10.8205 2.58333 10.25C3.91667 8.91667 4.80556 6.36111 5.08333 5.25" stroke="black" stroke-linejoin="round"/>
<rect id="Rectangle 2202" x="4.59129" y="4.55742" width="1.5" height="8.64927" rx="0.5" transform="rotate(-45.9258 4.59129 4.55742)" stroke="black"/>
<line id="Line 166" x1="3.35355" y1="9.89645" x2="5.85355" y2="12.3964" stroke="black"/>
<path id="Vector 34" d="M4.25 14L6.13066 16.1941C6.46475 16.5839 7.05994 16.6067 7.42294 16.2437V16.2437C7.74856 15.9181 7.76858 15.3967 7.46889 15.047L5.5 12.75" stroke="black" stroke-linejoin="round"/>
<path id="Vector 35" d="M6.75 13.9998L7.16795 13.7212C7.62748 13.4149 7.75165 12.794 7.4453 12.3345L7.16667 11.9165" stroke="black" stroke-linejoin="round"/>
<path id="Vector 36" d="M8.8335 3.58317L9.25016 0.666504" stroke="black" stroke-linecap="round" stroke-linejoin="round"/>
<path id="Vector 38" d="M11.3335 4.3741L13.0002 2.74962" stroke="black" stroke-linecap="round" stroke-linejoin="round"/>
<path id="Vector 37" d="M12.1165 6.88823L15.0617 6.80919" stroke="black" stroke-linecap="round" stroke-linejoin="round"/>
</g>
</g>
</svg>
