<svg width="13" height="19" viewBox="0 0 13 19" fill="none" xmlns="http://www.w3.org/2000/svg">
<g id="Symbols">
<g id="Group 4646">
<path id="Rectangle 2204" d="M3.54835 3.56689H2.85205C1.74748 3.56689 0.852051 4.46233 0.852051 5.5669V15.9669C0.852051 17.0715 1.74748 17.9669 2.85205 17.9669H10.4076C11.5122 17.9669 12.4076 17.0715 12.4076 15.9669V5.56689C12.4076 4.46233 11.5122 3.56689 10.4076 3.56689H10.0965" stroke="#4C4C4C" stroke-width="1.2"/>
<path id="Line 167" d="M5.47412 7.16699H10.0963" stroke="#4C4C4C" stroke-linecap="round"/>
<path id="Line 168" d="M5.47412 10.7671H10.0963" stroke="#4C4C4C" stroke-linecap="round"/>
<path id="Vector 39" d="M2.77783 6.76729L3.16302 7.56729L4.31857 5.96729" stroke="#4C4C4C" stroke-linecap="round" stroke-linejoin="round"/>
<path id="Vector 40" d="M2.77783 10.1999L3.16302 10.9999L4.31857 9.3999" stroke="#4C4C4C" stroke-linecap="round" stroke-linejoin="round"/>
<path id="Line 169" d="M5.47412 14.7671H10.0963" stroke="#4C4C4C" stroke-linecap="round"/>
<path id="Ellipse 31" d="M3.54827 15.2673C4.05476 15.2673 4.43346 14.8464 4.43346 14.3673C4.43346 13.8882 4.05476 13.4673 3.54827 13.4673C3.04178 13.4673 2.66309 13.8882 2.66309 14.3673C2.66309 14.8464 3.04178 15.2673 3.54827 15.2673Z" stroke="#4C4C4C"/>
<path id="Rectangle 2205" d="M3.76309 2.83372C3.76309 2.68644 3.88248 2.56705 4.02975 2.56705H4.21295C4.92179 2.56705 5.49642 1.99242 5.49642 1.28358C5.49642 1.23748 5.53379 1.2001 5.57989 1.2001H6.54633H7.67961C7.72571 1.2001 7.76309 1.23748 7.76309 1.28358C7.76309 1.99242 8.33772 2.56705 9.04656 2.56705H9.22975C9.37703 2.56705 9.49642 2.68644 9.49642 2.83372V3.36705C9.49642 3.58796 9.31733 3.76705 9.09642 3.76705H4.16309C3.94217 3.76705 3.76309 3.58796 3.76309 3.36705V2.83372Z" stroke="#4C4C4C" stroke-width="1.2" stroke-linejoin="round"/>
</g>
</g>
</svg>
