<svg width="18" height="14" viewBox="0 0 18 14" fill="none" xmlns="http://www.w3.org/2000/svg">
<g id="Symbols">
<g id="Group 4643">
<path id="Line 165" d="M17.333 12.8335L1.49967 12.8335" stroke="#4C4C4C" stroke-linecap="round"/>
<g id="Group 4642">
<path id="Vector 32" d="M1.5 8.66699C5.25 9.08366 4.82959 2.83366 7.33333 2.83366C9.41667 2.83366 9.42683 6.16699 11.5 6.16699C13.5732 6.16699 13.3902 1.16699 16.5 1.16699" stroke="#4C4C4C" stroke-linecap="round" stroke-linejoin="round"/>
<rect id="Rectangle 2198" x="10.333" y="8.3335" width="2.33333" height="4" rx="0.5" stroke="#4C4C4C"/>
<rect id="Rectangle 2201" x="2" y="10" width="2.33333" height="2.33333" rx="0.5" stroke="#4C4C4C"/>
<rect id="Rectangle 2199" x="6.1665" y="5.8335" width="2.33333" height="6.5" rx="0.5" stroke="#4C4C4C"/>
<rect id="Rectangle 2200" x="14.5" y="4.16699" width="2.33333" height="8.16667" rx="0.5" stroke="#4C4C4C"/>
<ellipse id="Ellipse 26" cx="1.49984" cy="8.66683" rx="0.833333" ry="0.833333" fill="#4C4C4C"/>
<ellipse id="Ellipse 27" cx="11.4998" cy="6.16683" rx="0.833333" ry="0.833333" fill="#4C4C4C"/>
<ellipse id="Ellipse 28" cx="7.33333" cy="2.83333" rx="0.833333" ry="0.833333" fill="#4C4C4C"/>
<ellipse id="Ellipse 29" cx="16.4998" cy="1.16683" rx="0.833334" ry="0.833333" fill="#4C4C4C"/>
</g>
</g>
</g>
</svg>
