<?xml version="1.0" encoding="UTF-8"?>
<svg width="25px" height="26px" viewBox="0 0 25 26" version="1.1" xmlns="http://www.w3.org/2000/svg"
    xmlns:xlink="http://www.w3.org/1999/xlink">
    <title>Icon/Menú/Dashboard </title>
    <g id="Symbols" stroke="none" stroke-width="1" fill="none" fill-rule="evenodd">
        <g id="menu_desktop" transform="translate(-24, -731)" fill="currentColor" fill-rule="nonzero"
            stroke="currentColor" stroke-width="0.5">
            <g id="Group-3" transform="translate(0, 444.1639)">
                <g id="Group-8-Copy" transform="translate(0, 277)">
                    <g id="Group" transform="translate(25.9432, 15.5682)">
                        <path
                            d="M11.2374862,3.38492405 C12.8582503,5.00568812 13.2307913,7.48989127 12.1699167,9.50892559 C12.0068533,9.8192644 11.623085,9.93865473 11.3127462,9.77559134 C11.0024074,9.61252795 10.883017,9.22875963 11.0460804,8.91842082 C11.8488851,7.39053994 11.5667052,5.5095282 10.3397937,4.28261661 C8.79518601,2.73800896 6.29088222,2.73800896 4.74627458,4.28261661 L2.42798471,6.60090647 C0.883377071,8.14551411 0.883377071,10.6498179 2.42798471,12.1944255 C3.97259235,13.7390332 6.47689614,13.7390332 8.02150379,12.1944255 L8.94881973,11.2671096 C9.19671069,11.0192186 9.59862133,11.0192186 9.84651228,11.2671096 C10.0944032,11.5150006 10.0944032,11.9169112 9.84651228,12.1648022 L8.91919634,13.0921181 C6.87880679,15.1325076 3.57068171,15.1325076 1.53029216,13.0921181 C-0.510097387,11.0517285 -0.510097387,7.74360347 1.53029216,5.70321392 L3.84858203,3.38492405 C5.88897157,1.34453451 9.19709666,1.34453451 11.2374862,3.38492405 Z M19.8833195,1.53029216 C21.9237091,3.57068171 21.9237091,6.87880679 19.8833195,8.91919634 L17.5650297,11.2374862 C15.5246401,13.2778758 12.216515,13.2778758 10.1761255,11.2374862 C8.55536143,9.61672214 8.18282036,7.13251899 9.243695,5.11348467 C9.40675839,4.80314585 9.7905267,4.68375553 10.1008655,4.84681892 C10.4112043,5.00988231 10.5305947,5.39365062 10.3675313,5.70398944 C9.56472665,7.23187032 9.84690645,9.11288206 11.073818,10.3397937 C12.6184257,11.8844013 15.1227295,11.8844013 16.6673371,10.3397937 L18.985627,8.02150379 C20.5302346,6.47689614 20.5302346,3.97259235 18.985627,2.42798471 C17.4410193,0.883377071 14.9367156,0.883377071 13.3921079,2.42798471 L12.464792,3.35530066 C12.216901,3.60319161 11.8149904,3.60319161 11.5670994,3.35530066 C11.3192085,3.10740971 11.3192085,2.70549906 11.5670994,2.45760811 L12.4944154,1.53029216 C14.5348049,-0.510097387 17.84293,-0.510097387 19.8833195,1.53029216 Z"
                            id="Shape"></path>
                    </g>
                </g>
            </g>
        </g>
    </g>
</svg>