<svg width="28" height="28" viewBox="0 0 28 28" fill="none" xmlns="http://www.w3.org/2000/svg">
<path fill-rule="evenodd" clip-rule="evenodd" d="M2.1543 14C2.1543 7.45754 7.458 2.15384 14.0005 2.15384C20.5429 2.15384 25.8466 7.45754 25.8466 14C25.8466 20.5424 20.5429 25.8461 14.0005 25.8461C7.458 25.8461 2.1543 20.5424 2.1543 14Z" fill="#51AF70"/>
<path d="M12.8358 18.11C12.7203 18.2222 12.5627 18.2848 12.399 18.2848C12.2354 18.2848 12.0778 18.2222 11.9623 18.11L8.47459 14.7407C8.11264 14.3911 8.11264 13.8241 8.47459 13.4752L8.9113 13.0533C9.27337 12.7037 9.85961 12.7037 10.2216 13.0533L12.399 15.1566L18.2829 9.47332C18.6449 9.12372 19.2318 9.12372 19.5931 9.47332L20.0299 9.89525C20.3918 10.2449 20.3918 10.8117 20.0299 11.1607L12.8358 18.11Z" fill="white"/>
</svg>
