<svg width="24" height="24" viewBox="0 0 24 24" fill="none" xmlns="http://www.w3.org/2000/svg">
  <g clip-path="url(#clip0_129_5417)">
    <path
      d="M6.44377 6.21207C6.18998 6.21207 5.98417 6.41695 5.98417 6.67074C5.98417 6.92453 6.18998 7.13033 6.44377 7.13033H11.8869C12.1398 7.13033 12.3456 6.92453 12.3456 6.67074C12.3456 6.41695 12.1398 6.21207 11.8869 6.21207H6.44377ZM6.44377 8.03107V8.03199C6.18998 8.03107 5.98417 8.23687 5.98417 8.49066C5.98417 8.74445 6.18998 8.95026 6.44377 8.95026H9.62853V8.95118C9.88232 8.95026 10.0881 8.74445 10.0881 8.49066C10.0881 8.23687 9.88232 8.03199 9.62853 8.03199L6.44377 8.03107ZM17.5063 6.1853C17.4113 6.1853 17.3144 6.21483 17.2322 6.27666L15.1096 7.86033L14.5319 6.69011C14.4525 6.52769 14.2892 6.43356 14.1203 6.43356C14.052 6.43356 13.9827 6.44925 13.9172 6.48063C13.6893 6.59322 13.5961 6.86823 13.7077 7.0962L14.5291 8.76201C14.59 8.88476 14.7017 8.97335 14.8337 9.00564C14.8697 9.01395 14.9056 9.01856 14.9416 9.01856C15.0395 9.01856 15.1364 8.98719 15.2157 8.9272L17.7813 7.0122C17.9852 6.86085 18.0268 6.5729 17.8745 6.36986C17.785 6.24897 17.6466 6.1853 17.5063 6.1853ZM6.44377 11.9155C6.18998 11.9155 5.98417 12.1213 5.98417 12.3751C5.98417 12.628 6.18998 12.8338 6.44377 12.8338H11.8869C12.1398 12.8338 12.3456 12.628 12.3456 12.3751C12.3456 12.1213 12.1398 11.9155 11.8869 11.9155H6.44377ZM6.44377 13.7354C6.18998 13.7354 5.98417 13.9403 5.98417 14.1941C5.98417 14.4479 6.18998 14.6537 6.44377 14.6537H9.62853V14.6546C9.88232 14.6537 10.0881 14.4488 10.0881 14.195C10.0881 13.9412 9.88232 13.7354 9.62853 13.7354L6.44377 13.7354ZM17.5063 11.8887C17.4113 11.8887 17.3144 11.9183 17.2322 11.9801L15.1096 13.5638V13.5647L14.5319 12.3936C14.4525 12.2311 14.2892 12.137 14.1203 12.137C14.052 12.137 13.9827 12.1527 13.9172 12.185C13.6893 12.2967 13.5961 12.5726 13.7077 12.7996L14.5291 14.4655C14.59 14.5882 14.7017 14.6777 14.8337 14.7091C14.8697 14.7174 14.9056 14.722 14.9416 14.722C15.0395 14.722 15.1364 14.6906 15.2157 14.6306L17.7813 12.7166C17.9852 12.5643 18.0268 12.2764 17.8745 12.0733C17.785 11.9524 17.6466 11.8887 17.5063 11.8887ZM7.81241 18.1642V21.0768L4.91919 18.1827V18.1651L7.81241 18.1642ZM4.91919 2.91919L19.0919 2.92011V21.0806L8.73075 21.0815V17.7056C8.73075 17.4518 8.52495 17.246 8.27208 17.246H4.91933L4.91919 2.91919ZM4.4596 2V2.00092H4.45867C4.33685 2 4.22057 2.04891 4.13474 2.13474C4.04891 2.22057 4 2.33778 4 2.4596L4.00369 18.4089C4.01107 18.5151 4.0563 18.6194 4.13751 18.7006L7.30219 21.8653C7.39264 21.9557 7.50984 22 7.62705 22H19.5517C19.8055 22 20.0113 21.7942 20.0113 21.5404V2.45969C20.0113 2.20591 19.8055 2.0001 19.5517 2.0001L4.4596 2Z"
      fill="currentColor" />
  </g>
  <defs>
    <clipPath id="clip0_129_5417">
      <rect width="24" height="24" fill="white" />
    </clipPath>
  </defs>
</svg>