<svg width="20" height="20" viewBox="0 0 20 20" fill="none" xmlns="http://www.w3.org/2000/svg">
<g clip-path="url(#clip0_2904_4307)">
<path fill-rule="evenodd" clip-rule="evenodd" d="M16.41 2.42H15.2V1.11C15.2 0.77 14.93 0.5 14.6 0.5C14.27 0.5 14 0.77 14 1.11V2.42H6V1.11C6 0.77 5.73 0.5 5.4 0.5C5.07 0.5 4.8 0.77 4.8 1.11V2.42H3.59C1.61 2.42 0 4.03 0 6.01V15.9C0 17.88 1.61 19.49 3.59 19.49H16.4C18.38 19.49 19.99 17.88 19.99 15.9V6.01C19.99 4.03 18.38 2.42 16.4 2.42H16.41ZM3.59 3.62H4.8V4.89C4.8 5.23 5.07 5.5 5.4 5.5C5.73 5.5 6 5.23 6 4.89V3.62H14V4.89C14 5.23 14.27 5.5 14.6 5.5C14.93 5.5 15.2 5.23 15.2 4.89V3.62H16.41C17.73 3.62 18.8 4.69 18.8 6.01V7.2H1.2V6.01C1.2 4.69 2.27 3.62 3.59 3.62ZM16.4 18.29H3.59C2.27 18.29 1.2 17.22 1.2 15.9V8.4H18.8V15.9C18.8 17.22 17.73 18.29 16.41 18.29H16.4Z" fill="#4C4C4C"/>
</g>
<defs>
<clipPath id="clip0_2904_4307">
<rect width="20" height="18.99" fill="white" transform="translate(0 0.5)"/>
</clipPath>
</defs>
</svg>
