<svg width="25" height="25" viewBox="0 0 25 25" fill="none" xmlns="http://www.w3.org/2000/svg">
  <path
    d="M11.9577 3.44995C12.2975 3.44995 12.573 3.72543 12.573 4.06526L12.5401 5.14795L12.5517 5.14966C13.0838 5.2039 13.5793 5.32415 14.0381 5.51045L14.3089 5.63016C15.0198 5.97075 15.6038 6.45282 16.0602 7.07597C16.3087 7.41532 16.5484 7.9626 16.7806 8.71884C16.8725 9.018 16.7045 9.33502 16.4053 9.4269C16.3756 9.43544 16.3756 9.43544 16.3453 9.4418C16.0118 9.50553 15.6836 9.30876 15.5827 8.98459C15.4201 8.4622 15.2505 8.07953 15.0751 7.83737C14.7281 7.35829 14.2828 6.98596 13.7385 6.71998C13.1939 6.45384 12.5829 6.31963 11.9051 6.31751C11.2684 6.31539 10.704 6.42646 10.2115 6.65043C9.71994 6.87397 9.33346 7.18341 9.05118 7.57902C8.76978 7.97338 8.62919 8.42445 8.62919 8.93368C8.62919 9.48879 8.82339 9.95479 9.21287 10.3347C9.60559 10.7177 10.2292 11.0434 11.0835 11.3102L13.8347 12.1466C14.9494 12.4867 15.7567 12.9427 16.256 13.5159C16.7568 14.0909 17.0068 14.859 17.0068 15.818C17.0068 16.6453 16.8073 17.3663 16.4081 17.9796C16.0092 18.5926 15.4465 19.069 14.721 19.4083C14.1578 19.6718 13.5188 19.8327 12.8043 19.8912L12.5721 19.905L12.573 20.9346C12.573 21.2436 12.3453 21.4993 12.0486 21.5433L11.9577 21.55C11.6179 21.55 11.3424 21.2745 11.3424 20.9346L11.3731 19.871L11.1696 19.8479C10.7409 19.7871 10.3354 19.6859 9.95315 19.5441L9.67085 19.4301C8.92909 19.1057 8.31468 18.6459 7.82822 18.051C7.56379 17.7276 7.30641 17.2195 7.05484 16.526C6.94347 16.219 7.10059 15.8796 7.40673 15.7659C7.70735 15.6542 8.0437 15.7882 8.18529 16.0759C8.63523 16.9902 9.07367 17.6009 9.49803 17.9077C10.2423 18.4458 11.1422 18.715 12.1994 18.715C13.292 18.715 14.1672 18.4486 14.8269 17.9167C15.4843 17.3866 15.8121 16.6884 15.8121 15.818C15.8121 15.1684 15.6221 14.6529 15.2425 14.2684C14.86 13.8811 14.2044 13.5448 13.2759 13.2616L10.2273 12.3141C8.33657 11.7198 7.38556 10.6039 7.38556 8.97288C7.38556 8.20962 7.57615 7.53757 7.95741 6.95796C8.33826 6.37897 8.8678 5.92673 9.54511 5.60161C10.0524 5.35811 10.62 5.2063 11.2478 5.14602L11.3421 5.13895L11.3424 4.06526C11.3424 3.75633 11.5701 3.50057 11.8668 3.45662L11.9577 3.44995Z"
    fill="currentColor" />
</svg>