<svg width="24" height="24" viewBox="0 0 24 24" fill="currentColor" xmlns="http://www.w3.org/2000/svg">
  <path
    d="M15.8002 2.5H11.8802C9.57023 2.5 7.70023 4.36 7.68023 6.66C5.37023 6.66 3.49023 8.54 3.49023 10.86V17.3C3.49023 19.62 5.37023 21.5 7.69023 21.5H11.6102C13.9202 21.5 15.7902 19.64 15.8102 17.34C18.1202 17.34 20.0002 15.46 20.0002 13.14V6.7C20.0002 4.38 18.1202 2.5 15.8002 2.5ZM11.6202 20.3H7.70023C6.05023 20.3 4.70023 18.95 4.70023 17.3V10.86C4.70023 9.21 6.04023 7.87 7.68023 7.86V13.13C7.68023 15.45 9.56024 17.33 11.8802 17.33H14.6102C14.5902 18.97 13.2602 20.29 11.6102 20.29L11.6202 20.3ZM18.8002 6.73V13.17C18.8002 14.82 17.4502 16.17 15.8002 16.17H11.8802C10.2302 16.17 8.88023 14.82 8.88023 13.17V6.73C8.88023 6.73 8.88023 6.68 8.88023 6.66C8.88023 6.56 8.90023 6.47 8.91023 6.38C8.92023 6.29 8.92023 6.2 8.94023 6.11C9.21023 4.74 10.4202 3.7 11.8702 3.7H15.7902C17.4402 3.7 18.7902 5.05 18.7902 6.7V6.73H18.8002Z"
    fill="currentColor" />
</svg>