<svg width="25" height="14" viewBox="0 0 25 14" fill="none" xmlns="http://www.w3.org/2000/svg">
<path fill-rule="evenodd" clip-rule="evenodd" d="M20.5526 5.17241C19.8472 3.09852 16.3235 1.52053 12.069 1.52053H12.0673C7.81445 1.52053 4.28903 3.09852 3.58361 5.17241C3.50072 4.92447 3.44828 4.67159 3.44828 4.41215C3.44828 1.97537 7.30864 0 12.069 0C16.8293 0 20.688 1.97537 20.6897 4.41215C20.6897 4.67323 20.6355 4.92447 20.5526 5.17241ZM20.5526 7.75862C19.8472 5.68407 16.3235 4.10557 12.069 4.10557L12.0673 4.10393C7.81445 4.10393 4.28903 5.68243 3.58361 7.75698C3.50072 7.51059 3.44828 7.25764 3.44828 6.99812C3.44828 4.5622 7.30695 2.58621 12.069 2.58621C16.831 2.58621 20.6897 4.5622 20.6897 6.99976C20.6897 7.25928 20.6355 7.51224 20.5526 7.75862ZM16.4305 12.6581L14.6432 10.3448H13.7931V13.7931H14.604V11.5301L16.3657 13.7931H17.2414V10.3448H16.4305V12.6581ZM1.79341 13.2173C2.00514 13.2173 2.18728 13.1602 2.33985 13.046L2.34452 13.0494C2.49864 12.9352 2.60761 12.7556 2.67455 12.5105L3.44828 12.7119C3.3284 13.0779 3.13225 13.3499 2.85514 13.5262C2.57803 13.7041 2.22776 13.7931 1.80276 13.7931C1.27812 13.7931 0.845334 13.6403 0.507511 13.3381C0.169689 13.036 0 12.623 0 12.0975C0 11.5435 0.168133 11.112 0.509068 10.8048C0.850004 10.4993 1.2968 10.3448 1.85102 10.3448C2.33518 10.3448 2.72748 10.4657 3.0295 10.7058C3.20853 10.8485 3.34397 11.0533 3.43426 11.3202L2.64186 11.478C2.59516 11.3051 2.49708 11.1691 2.34919 11.0684C2.19974 10.9677 2.02071 10.9173 1.80898 10.9173C1.51475 10.9173 1.27812 11.0063 1.09598 11.1842C0.915389 11.3622 0.823539 11.6493 0.823539 12.0471C0.823539 12.4685 0.912275 12.769 1.09286 12.9487C1.27189 13.1266 1.50541 13.2173 1.79341 13.2173ZM21.5534 10.3448V10.9279H22.8433V13.7931H23.7203V10.9279H25V10.3448H21.5534ZM21.295 12.2729H19.0199V12.2746V13.21H21.5517V13.7931H18.1034V10.3448H21.4626V10.9279H19.0199V11.6898H21.295V12.2729ZM11.7964 12.5644C11.6607 12.4586 11.4873 12.3631 11.28 12.2746C11.7003 12.2312 12.0151 12.1254 12.228 11.9553C12.4391 11.787 12.5447 11.5718 12.5447 11.3132C12.5447 11.1084 12.4749 10.9279 12.3355 10.77C12.196 10.6121 12.0113 10.501 11.7776 10.4385C11.5458 10.3761 11.1745 10.3448 10.66 10.3448H8.62069V13.7931L6.90263 10.3448H5.98284L4.31034 13.7931H5.23013L5.58623 13.0122H7.3043L7.67727 13.7931H8.62069H9.58943V12.3562H9.78544C10.0078 12.3562 10.1699 12.3683 10.2736 12.3944C10.3772 12.4204 10.4734 12.4672 10.5657 12.5367C10.6562 12.6061 10.8277 12.7744 11.0765 13.0399L11.7719 13.7931H12.931L12.3449 13.1215C12.115 12.8542 11.9321 12.6668 11.7964 12.5627V12.5644ZM9.48276 12.069H10.1135C10.5229 12.069 10.7792 12.0536 10.8807 12.0264C10.9839 11.9991 11.0638 11.9514 11.1204 11.8833C11.1786 11.8151 11.2069 11.7299 11.2069 11.6277C11.2069 11.5153 11.1703 11.4216 11.0937 11.3517C11.0172 11.2819 10.9107 11.2376 10.7725 11.2188C10.7026 11.2103 10.4946 11.2069 10.1484 11.2069H9.48276V12.069ZM6.46242 11.2069L6.03448 12.069H6.89655L6.46242 11.2069Z" fill="#D3262B"/>
</svg>
