<svg width="25" height="25" viewBox="0 0 25 25" fill="none" xmlns="http://www.w3.org/2000/svg">
  <path
    d="M14.4265 3.90002C15.3496 3.90002 16.1489 4.55058 16.3414 5.45911L16.5213 6.33435C16.5542 6.49491 16.7016 6.61484 16.8681 6.61484H18.7978C20.9063 6.61484 22.6194 8.32797 22.6194 10.4364L22.6112 18.3845C22.3143 20.1549 20.7615 21.5353 18.9305 21.6112L5.24104 21.614C3.13256 21.614 1.41943 19.9009 1.41943 17.7924V10.4364C1.41943 8.32797 3.13256 6.61484 5.24104 6.61484H7.17081C7.33477 6.61484 7.48417 6.49313 7.51849 6.33011L7.70051 5.46127C7.88487 4.55485 8.68964 3.90002 9.61587 3.90002H14.4265ZM14.4265 5.10002H9.61587C9.25917 5.10002 8.94687 5.35413 8.87573 5.70388L8.69287 6.57674C8.54173 7.29466 7.90324 7.81484 7.17081 7.81484H5.24104C3.79531 7.81484 2.61943 8.99071 2.61943 10.4364V17.7924C2.61943 19.2381 3.79531 20.414 5.24092 20.414L18.9054 20.4117C20.1429 20.3601 21.2243 19.3987 21.4194 18.2853V10.4364C21.4194 8.99071 20.2436 7.81484 18.7978 7.81484H16.8681C16.1325 7.81484 15.4934 7.2949 15.3458 6.57579L15.1667 5.70426C15.0922 5.35281 14.7817 5.10002 14.4265 5.10002ZM12.0194 9.50002C14.2631 9.50002 16.0819 11.3189 16.0819 13.5625C16.0819 15.8062 14.2631 17.625 12.0194 17.625C9.77578 17.625 7.95693 15.8062 7.95693 13.5625C7.95693 11.3189 9.77578 9.50002 12.0194 9.50002ZM12.0194 10.7C10.4385 10.7 9.15693 11.9816 9.15693 13.5625C9.15693 15.1434 10.4385 16.425 12.0194 16.425C13.6003 16.425 14.8819 15.1434 14.8819 13.5625C14.8819 11.9816 13.6003 10.7 12.0194 10.7Z"
    fill="currentColor" />
</svg>