<svg width="25" height="25" viewBox="0 0 25 25" fill="none" xmlns="http://www.w3.org/2000/svg">
    <path fill-rule="evenodd" clip-rule="evenodd"
        d="M12.4997 2.86462C7.17819 2.86462 2.86427 7.17855 2.86427 12.5C2.86427 14.0427 3.22677 15.499 3.86947 16.7896C4.12781 17.3084 4.22677 17.9271 4.06427 18.5365L3.44343 20.8542C3.39038 21.0518 3.44676 21.2628 3.59135 21.4076C3.73593 21.5524 3.94677 21.6091 4.14447 21.5563L6.46427 20.9355C7.0505 20.7854 7.67135 20.8547 8.2101 21.1302C9.54259 21.7936 11.0112 22.1378 12.4997 22.1355C17.8212 22.1355 22.1351 17.8215 22.1351 12.5C22.1351 7.17855 17.8212 2.86462 12.4997 2.86462ZM1.30177 12.5C1.30177 6.31567 6.31531 1.30212 12.4997 1.30212C18.6841 1.30212 23.6976 6.31567 23.6976 12.5C23.6976 18.6844 18.6841 23.698 12.4997 23.698C10.7101 23.698 9.01635 23.2771 7.51322 22.5292C7.31525 22.4238 7.08564 22.3942 6.86739 22.4459L4.54864 23.0657C2.96114 23.4907 1.50906 22.0386 1.93406 20.4511L2.55489 18.1323C2.6066 17.9141 2.57698 17.6845 2.47156 17.4865C1.70016 15.9376 1.29967 14.2304 1.30177 12.5ZM12.4993 7.55212C12.9308 7.55212 13.2806 7.9019 13.2806 8.33337V8.34379C14.415 8.63025 15.3639 9.524 15.3639 10.7636C15.3639 11.1951 15.0141 11.5448 14.5827 11.5448C14.1512 11.5448 13.8014 11.1951 13.8014 10.7636C13.8014 10.3636 13.3577 9.80942 12.4993 9.80942C11.641 9.80942 11.1973 10.3636 11.1973 10.7636C11.1973 11.1636 11.641 11.7188 12.4993 11.7188C13.942 11.7188 15.3639 12.7188 15.3639 14.2365C15.3639 15.4761 14.415 16.3709 13.2806 16.6563V16.6667C13.2806 17.0982 12.9308 17.448 12.4993 17.448C12.0679 17.448 11.7181 17.0982 11.7181 16.6667V16.6563C10.5837 16.3709 9.63476 15.4761 9.63476 14.2365C9.63476 13.805 9.98454 13.4552 10.416 13.4552C10.8475 13.4552 11.1973 13.805 11.1973 14.2365C11.1973 14.6365 11.641 15.1907 12.4993 15.1907C13.3577 15.1907 13.8014 14.6365 13.8014 14.2365C13.8014 13.8365 13.3577 13.2813 12.4993 13.2813C11.0566 13.2813 9.63476 12.2813 9.63476 10.7636C9.63476 9.524 10.5837 8.63025 11.7181 8.34379V8.33337C11.7181 7.9019 12.0679 7.55212 12.4993 7.55212Z"
        fill="currentColor" />
</svg>