<svg width="24" height="24" viewBox="0 0 24 24" fill="none" xmlns="http://www.w3.org/2000/svg">
<path fill-rule="evenodd" clip-rule="evenodd" d="M16.2909 4.59021L18.3556 6.66276C19.1396 7.4497 19.1396 8.72559 18.3556 9.51253L9.17108 18.7317C8.99996 18.9035 8.76786 19 8.52585 19H4.91251C4.40854 19 4 18.5899 4 18.0841V14.4571C4 14.2142 4.09614 13.9812 4.26727 13.8094L13.4518 4.59021C14.2358 3.80326 15.5069 3.80326 16.2909 4.59021ZM12.5756 7.54045L5.45967 14.6851L5.46053 17.534H8.29786L15.4153 10.3909L12.5756 7.54045ZM14.4842 5.62648L13.6074 6.50482L16.4471 9.35525L17.3232 8.47625C17.5133 8.28548 17.5344 7.98934 17.3866 7.77515L17.3232 7.69904L15.2585 5.62648C15.0447 5.41186 14.698 5.41186 14.4842 5.62648Z" fill="#4C4C4C"/>
<rect x="7" y="18" width="11" height="1" fill="#4C4C4C"/>
</svg>
