<svg width="24" height="24" viewBox="0 0 24 24" fill="none" xmlns="http://www.w3.org/2000/svg">
<path d="M15.4818 2H6.32874C6.07706 2 5.87305 2.20402 5.87305 2.4557V20.2278C5.87305 20.4795 6.07706 20.6835 6.32874 20.6835H19.5439C19.7956 20.6835 19.9996 20.4795 19.9996 20.2278V6.51786C19.9996 6.39701 19.9516 6.28111 19.8662 6.19564L15.804 2.13347C15.7185 2.04801 15.6026 2 15.4818 2Z" fill="white" stroke="#979593"/>
<path d="M15.4434 2V6.10127C15.4434 6.35295 15.6474 6.55696 15.8991 6.55696H20.0003" stroke="#979593"/>
<path fill-rule="evenodd" clip-rule="evenodd" d="M11.797 10.2023H9.51855V9.74658H11.797C11.9229 9.74658 12.0249 9.84859 12.0249 9.97443C12.0249 10.1003 11.9229 10.2023 11.797 10.2023ZM9.51855 11.5695H11.797C11.9229 11.5695 12.0249 11.4675 12.0249 11.3416C12.0249 11.2158 11.9229 11.1138 11.797 11.1138H9.51855V11.5695ZM11.797 12.9367H9.51855V12.481H11.797C11.9229 12.481 12.0249 12.583 12.0249 12.7088C12.0249 12.8346 11.9229 12.9367 11.797 12.9367ZM11.797 14.3038H9.51855V13.8481H11.797C11.9229 13.8481 12.0249 13.9502 12.0249 14.076C12.0249 14.2018 11.9229 14.3038 11.797 14.3038ZM9.51855 15.671H11.797C11.9229 15.671 12.0249 15.569 12.0249 15.4432C12.0249 15.3173 11.9229 15.2153 11.797 15.2153H9.51855V15.671ZM18.1772 14.3038H15.8987C15.7729 14.3038 15.6709 14.2018 15.6709 14.076C15.6709 13.9502 15.7729 13.8481 15.8987 13.8481H18.1772C18.3031 13.8481 18.4051 13.9502 18.4051 14.076C18.4051 14.2018 18.3031 14.3038 18.1772 14.3038ZM15.8987 15.671H18.1772C18.3031 15.671 18.4051 15.569 18.4051 15.4432C18.4051 15.3173 18.3031 15.2153 18.1772 15.2153H15.8987C15.7729 15.2153 15.6709 15.3173 15.6709 15.4432C15.6709 15.569 15.7729 15.671 15.8987 15.671ZM18.1772 12.9367H15.8987C15.7729 12.9367 15.6709 12.8346 15.6709 12.7088C15.6709 12.583 15.7729 12.481 15.8987 12.481H18.1772C18.3031 12.481 18.4051 12.583 18.4051 12.7088C18.4051 12.8346 18.3031 12.9367 18.1772 12.9367ZM15.8987 11.5695H18.1772C18.3031 11.5695 18.4051 11.4675 18.4051 11.3416C18.4051 11.2158 18.3031 11.1138 18.1772 11.1138H15.8987C15.7729 11.1138 15.6709 11.2158 15.6709 11.3416C15.6709 11.4675 15.7729 11.5695 15.8987 11.5695ZM18.1772 10.2023H15.8987C15.7729 10.2023 15.6709 10.1003 15.6709 9.97443C15.6709 9.84859 15.7729 9.74658 15.8987 9.74658H18.1772C18.3031 9.74658 18.4051 9.84859 18.4051 9.97443C18.4051 10.1003 18.3031 10.2023 18.1772 10.2023ZM12.7084 14.3038H14.9869C15.1127 14.3038 15.2148 14.2018 15.2148 14.076C15.2148 13.9502 15.1127 13.8481 14.9869 13.8481H12.7084C12.5826 13.8481 12.4806 13.9502 12.4806 14.076C12.4806 14.2018 12.5826 14.3038 12.7084 14.3038ZM14.9869 15.671H12.7084C12.5826 15.671 12.4806 15.569 12.4806 15.4432C12.4806 15.3173 12.5826 15.2153 12.7084 15.2153H14.9869C15.1127 15.2153 15.2148 15.3173 15.2148 15.4432C15.2148 15.569 15.1127 15.671 14.9869 15.671ZM12.7084 12.9367H14.9869C15.1127 12.9367 15.2148 12.8346 15.2148 12.7088C15.2148 12.583 15.1127 12.481 14.9869 12.481H12.7084C12.5826 12.481 12.4806 12.583 12.4806 12.7088C12.4806 12.8346 12.5826 12.9367 12.7084 12.9367ZM14.9869 11.5695H12.7084C12.5826 11.5695 12.4806 11.4675 12.4806 11.3416C12.4806 11.2158 12.5826 11.1138 12.7084 11.1138H14.9869C15.1127 11.1138 15.2148 11.2158 15.2148 11.3416C15.2148 11.4675 15.1127 11.5695 14.9869 11.5695ZM12.7084 10.2023H14.9869C15.1127 10.2023 15.2148 10.1003 15.2148 9.97443C15.2148 9.84859 15.1127 9.74658 14.9869 9.74658H12.7084C12.5826 9.74658 12.4806 9.84859 12.4806 9.97443C12.4806 10.1003 12.5826 10.2023 12.7084 10.2023Z" fill="#C8C6C4"/>
<path d="M2.91139 17.2658H10.2025C10.7059 17.2658 11.1139 16.8577 11.1139 16.3544V9.06325C11.1139 8.55991 10.7059 8.15186 10.2025 8.15186H2.91139C2.40805 8.15186 2 8.55991 2 9.06325V16.3544C2 16.8577 2.40805 17.2658 2.91139 17.2658Z" fill="#107C41"/>
<path d="M4.03906 15.4431L5.8356 12.7012L4.19015 9.97473H5.51429L6.41256 11.7175C6.49511 11.8827 6.55184 12.0061 6.58278 12.0874H6.59436C6.65398 11.9552 6.71584 11.8268 6.78037 11.7023L7.74048 9.97473H8.95605L7.2681 12.6861L8.99877 15.4431H7.70555L6.668 13.5288C6.62416 13.4578 6.58278 13.3725 6.54407 13.2732H6.52871C6.51069 13.3344 6.47063 13.417 6.40877 13.5211L5.34008 15.4431H4.03906Z" fill="white"/>
</svg>
