<svg width="18" height="18" viewBox="0 0 18 18" fill="none" xmlns="http://www.w3.org/2000/svg">
<path d="M9.00005 0C4.02951 0 0 4.02951 0 9.00005C0 13.458 3.2447 17.15 7.49903 17.8649V10.8777H5.32795V8.36329H7.49903V6.50925C7.49903 4.35804 8.81292 3.18575 10.7322 3.18575C11.6515 3.18575 12.4414 3.25425 12.6708 3.28442V5.53301L11.3396 5.53365C10.296 5.53365 10.0948 6.02945 10.0948 6.75726V8.362H12.5849L12.2601 10.8764H10.0948V17.9251C14.5478 17.3831 18 13.5971 18 8.99748C18 4.02951 13.9705 0 9.00005 0Z" fill="#1976D2"/>
</svg>
