<svg width="16" height="20" viewBox="0 0 16 20" fill="none" xmlns="http://www.w3.org/2000/svg">
  <path fill-rule="evenodd" clip-rule="evenodd"
    d="M12.5 0C14.433 0 16 1.567 16 3.5V16.5C16 18.433 14.433 20 12.5 20H3.5C1.567 20 0 18.433 0 16.5V3.5C0 1.567 1.567 0 3.5 0H12.5ZM12.5 1.2H3.5C2.22974 1.2 1.2 2.22974 1.2 3.5V16.5C1.2 17.7703 2.22974 18.8 3.5 18.8H12.5C13.7703 18.8 14.8 17.7703 14.8 16.5V3.5C14.8 2.22974 13.7703 1.2 12.5 1.2ZM12.5 12.9C12.8314 12.9 13.1 13.1686 13.1 13.5C13.1 13.8314 12.8314 14.1 12.5 14.1H3.5C3.16863 14.1 2.9 13.8314 2.9 13.5C2.9 13.1686 3.16863 12.9 3.5 12.9H12.5ZM10.5 8.9C10.8314 8.9 11.1 9.16863 11.1 9.5C11.1 9.83137 10.8314 10.1 10.5 10.1H3.5C3.16863 10.1 2.9 9.83137 2.9 9.5C2.9 9.16863 3.16863 8.9 3.5 8.9H10.5ZM12.5 4.9C12.8314 4.9 13.1 5.16863 13.1 5.5C13.1 5.83137 12.8314 6.1 12.5 6.1H3.5C3.16863 6.1 2.9 5.83137 2.9 5.5C2.9 5.16863 3.16863 4.9 3.5 4.9H12.5Z"
    fill="currentColor" />
</svg>