<svg width="25" height="25" viewBox="0 0 25 25" fill="currentColor" xmlns="http://www.w3.org/2000/svg">
  <path
    d="M11.9291 2.53071C10.7253 2.74998 9.74502 3.47659 9.2119 4.54714C9.01413 4.94269 8.84645 5.5919 8.84645 5.95306V6.22822L8.47241 6.41739C6.13786 7.59114 4.40951 9.86124 3.88069 12.4538C3.76461 13.0127 3.67432 13.8855 3.69152 14.2767L3.70442 14.5347L3.44216 14.6723C2.03197 15.4247 1.26668 17.0112 1.56334 18.5719C1.8256 19.9649 2.86604 21.0741 4.26764 21.4525C4.5342 21.5256 4.73197 21.5471 5.149 21.5471C5.75521 21.5471 6.15075 21.4611 6.66668 21.2246C6.86445 21.1343 6.98053 21.0999 7.01922 21.13C7.55234 21.517 8.24454 21.9426 8.66588 22.1447C11.1595 23.3442 13.9885 23.3227 16.4606 22.0888C16.7874 21.9254 17.5269 21.4611 17.9826 21.13C18.0213 21.0999 18.1331 21.13 18.3351 21.2246C18.8726 21.4697 19.2509 21.5514 19.8528 21.5471C20.2612 21.5471 20.4719 21.5256 20.7342 21.4525C21.6542 21.2074 22.4152 20.6528 22.9225 19.866C24.0748 18.086 23.4428 15.6784 21.5597 14.6723L21.2974 14.5347L21.3103 14.2767C21.3146 14.1392 21.2974 13.7823 21.2716 13.49C21.0007 10.4632 19.2853 7.8792 16.6111 6.46039L16.1683 6.22822L16.1425 5.84987C16.0393 4.36227 14.9816 3.06814 13.5113 2.6382C13.0856 2.51351 12.3117 2.46192 11.9291 2.53071ZM12.9394 4.00971C13.3479 4.1 13.6746 4.26768 13.9756 4.55144C14.7065 5.23505 14.8956 6.21962 14.4743 7.1139C13.9541 8.22315 12.5826 8.6617 11.4476 8.08987C10.9531 7.83621 10.4759 7.19559 10.3555 6.62377C10.1105 5.44142 10.8671 4.27198 12.0495 4.01401C12.3891 3.93662 12.5912 3.93662 12.9394 4.00971ZM9.59884 8.37793C10.1019 9.03145 10.8027 9.49578 11.6195 9.71506C11.8861 9.78815 12.0882 9.80964 12.5009 9.80964C12.9136 9.80964 13.1157 9.78815 13.3823 9.71506C14.3754 9.44849 15.2009 8.81218 15.7125 7.91789L15.8372 7.69432L16.1683 7.8792C17.6386 8.71759 18.8296 10.1407 19.4014 11.7315C19.6335 12.3893 19.7539 12.9955 19.8313 13.907L19.8571 14.2166L19.5218 14.2467C18.2491 14.3627 17.1313 15.128 16.5638 16.2674C16.28 16.8349 16.1898 17.2262 16.1898 17.8797C16.1855 18.6364 16.3617 19.2383 16.7659 19.8703C16.9249 20.1197 16.9249 20.1197 16.3961 20.4464C13.9971 21.934 11.0047 21.934 8.60569 20.4464C8.07687 20.1197 8.07687 20.1197 8.23594 19.8703C8.64008 19.2383 8.81635 18.6364 8.81206 17.8797C8.81206 17.2262 8.72177 16.8349 8.43801 16.2674C7.8705 15.128 6.75266 14.3627 5.48005 14.2467L5.149 14.2166L5.1748 13.864C5.29518 12.127 5.8455 10.7555 6.92894 9.46139C7.44486 8.85087 8.11556 8.29194 8.82495 7.8878L9.1646 7.69432L9.28928 7.91789C9.36237 8.04258 9.49995 8.24895 9.59884 8.37793ZM5.60044 15.7515C6.5248 15.9492 7.24709 16.7231 7.33738 17.6174C7.42336 18.4773 7.07512 19.2469 6.40442 19.7026C6.00028 19.9735 5.65203 20.081 5.1705 20.081C4.29343 20.081 3.57544 19.6338 3.1928 18.8513C2.492 17.4196 3.53244 15.7386 5.149 15.6913C5.23069 15.6913 5.43276 15.7171 5.60044 15.7515ZM20.1968 15.7343C20.8675 15.8417 21.4995 16.3147 21.8004 16.9338C22.11 17.5658 22.1143 18.2365 21.809 18.847C21.6241 19.2254 21.4522 19.4318 21.134 19.6682C19.8958 20.5797 18.1073 19.9391 17.7031 18.4429C17.5698 17.9528 17.6773 17.2348 17.9525 16.7661C18.2319 16.2889 18.8124 15.8761 19.3799 15.7558C19.7281 15.6784 19.8442 15.6741 20.1968 15.7343Z"
    fill="currentColor" />
</svg>