<svg width="25" height="15" viewBox="0 0 25 15" fill="none" xmlns="http://www.w3.org/2000/svg">
<rect x="8.74463" y="1.58436" width="6.48148" height="11.6481" fill="#FF5F00"/>
<path d="M9.15638 7.40741C9.15638 5.04527 10.2634 2.94033 11.9856 1.58436C10.7263 0.592593 9.1358 0 7.40741 0C3.31687 0 0 3.31687 0 7.40741C0 11.4979 3.31687 14.8148 7.40741 14.8148C9.1358 14.8148 10.7243 14.2222 11.9856 13.2305C10.2634 11.8745 9.15638 9.76955 9.15638 7.40741Z" fill="#EB001B"/>
<path d="M23.9714 7.40741C23.9714 11.4979 20.6546 14.8148 16.564 14.8148C14.8356 14.8148 13.2472 14.2222 11.9858 13.2305C13.7081 11.8745 14.8151 9.76955 14.8151 7.40741C14.8151 5.04527 13.7081 2.94033 11.9858 1.58436C13.2451 0.592593 14.8356 0 16.564 0C20.6546 0 23.9714 3.31687 23.9714 7.40741Z" fill="#F79E1B"/>
<path fill-rule="evenodd" clip-rule="evenodd" d="M23.4447 11.9461V13.0887H23.3305V11.9461H23.1157V11.7097H23.6594V11.9461H23.4447ZM24.5003 11.7097V13.0887L24.5048 13.0986H24.3861V12.0545L24.2079 12.9508H24.0845L23.9063 12.0545V13.0887H23.7876V11.7097H23.952L24.1439 12.6553L24.3358 11.7097H24.5003Z" fill="#F79E1B"/>
</svg>
