<svg width="24" height="24" viewBox="0 0 24 24" fill="none" xmlns="http://www.w3.org/2000/svg">
  <path fill-rule="evenodd" clip-rule="evenodd"
    d="M5 5.3871C5 3.49085 6.51436 2 8.327 2H15.673C17.4856 2 19 3.49085 19 5.3871V18.6129C19 20.5091 17.4856 22 15.673 22H8.327C6.51436 22 5 20.5091 5 18.6129V5.3871ZM8.327 3.29032C7.14091 3.29032 6.22433 4.25468 6.22433 5.3871V18.6129C6.22433 19.7453 7.14091 20.7097 8.327 20.7097H15.673C16.8591 20.7097 17.7757 19.7453 17.7757 18.6129V5.3871C17.7757 4.25468 16.8591 3.29032 15.673 3.29032H8.327Z"
    fill="currentColor" />
  <path fill-rule="evenodd" clip-rule="evenodd"
    d="M13.4999 18.1499C13.4999 17.4044 12.8955 16.7999 12.1499 16.7999C11.4043 16.7999 10.7999 17.4044 10.7999 18.1499C10.7999 18.8955 11.4043 19.4999 12.1499 19.4999C12.8955 19.4999 13.4999 18.8955 13.4999 18.1499ZM11.6998 18.1499C11.6998 17.9013 11.9012 17.6999 12.1498 17.6999C12.3983 17.6999 12.5998 17.9013 12.5998 18.1499C12.5998 18.3984 12.3983 18.5999 12.1498 18.5999C11.9012 18.5999 11.6998 18.3984 11.6998 18.1499Z"
    fill="currentColor" />
  <path fill-rule="evenodd" clip-rule="evenodd"
    d="M9.89999 4.99985C9.89999 4.66848 10.1686 4.39985 10.5 4.39985H13.5C13.8314 4.39985 14.1 4.66848 14.1 4.99985C14.1 5.33122 13.8314 5.59985 13.5 5.59985H10.5C10.1686 5.59985 9.89999 5.33122 9.89999 4.99985Z"
    fill="currentColor" />
</svg>