<svg width="24" height="25" viewBox="0 0 24 25" fill="none" xmlns="http://www.w3.org/2000/svg">
    <path fill-rule="evenodd" clip-rule="evenodd"
        d="M21.9989 6.73709L21.9978 6.72724C21.9973 6.72263 21.9966 6.71807 21.9957 6.71351C21.9951 6.70996 21.9944 6.70646 21.9936 6.70295L21.9936 6.70284L21.9926 6.69877L21.9904 6.69062C21.9893 6.68655 21.9881 6.68293 21.9869 6.67914L21.9845 6.67266L21.9828 6.66835L21.9776 6.65613C21.9762 6.65291 21.9747 6.64973 21.973 6.6466C21.9709 6.64253 21.9686 6.63845 21.9663 6.63438L21.9634 6.62905L20.0879 3.59253C19.8962 3.27967 19.5555 3.08952 19.1891 3.09083H5.18513C4.85054 3.09148 4.53586 3.25023 4.33602 3.5191L2.04789 6.61202L2.04512 6.61609C2.04248 6.61984 2.03996 6.62367 2.03752 6.62754L2.03195 6.6367C2.02995 6.64022 2.02816 6.64378 2.02635 6.64737L2.02594 6.64819C2.02398 6.65206 2.02252 6.65499 2.02098 6.65845C2.01943 6.66191 2.01789 6.66586 2.01642 6.66961C2.01496 6.67336 2.01354 6.67722 2.01236 6.68109L2.00919 6.69184L2.00856 6.69413L2.00856 6.69413L2.00855 6.69414C2.00768 6.69728 2.00668 6.70089 2.00593 6.70443L2.00398 6.71477C2.00313 6.71933 2.00244 6.7239 2.00187 6.7285L2.00093 6.73835C2.00061 6.7432 2.00033 6.74805 2.00024 6.75289L2 6.75749V8.05759C2.00606 9.00829 2.72529 9.80208 3.66919 9.89986V19.2427C3.66988 19.8329 4.14732 20.3112 4.73643 20.3119H19.2635C19.8526 20.3112 20.33 19.8329 20.3307 19.2427V9.89966C21.2829 9.80134 22.0051 8.99501 21.9999 8.036V6.75754L21.9997 6.75183C21.9995 6.74691 21.9993 6.74202 21.9989 6.73709ZM19.6733 3.84963L21.3184 6.5131H18.6508L17.0977 3.57946H19.1892C19.3866 3.57872 19.5701 3.68107 19.6733 3.84963ZM9.66032 6.51318L10.5763 3.57945H7.81292L5.94124 6.51318H9.66032ZM12.9127 3.57946L13.8287 6.51319H10.1719L11.0879 3.57946H12.9127ZM18.0986 6.51319L16.5457 3.57946H13.4238L14.3396 6.51319H18.0986ZM10.084 7.00195H13.9168V8.40699C13.9175 9.46737 13.06 10.3275 12.0016 10.3281C10.9432 10.3288 10.0846 9.46973 10.084 8.40935V8.40829V7.00195ZM9.59546 7.00195H5.76273V8.40846V8.42609C5.76793 9.48643 6.63013 10.3418 7.6885 10.3366C8.74688 10.3314 9.60067 9.46757 9.59546 8.40723V7.00195ZM7.12419 10.7482C8.22155 11.0183 9.357 10.4768 9.83964 9.45314C10.4103 10.6484 11.8401 11.1539 13.0332 10.5822C13.535 10.3417 13.9376 9.93375 14.1719 9.42834C14.5703 10.2706 15.4147 10.8102 16.345 10.8171C16.5238 10.816 16.7019 10.7949 16.876 10.7542V15.8234C16.8756 16.1437 16.6167 16.4033 16.2969 16.4038H7.70342C7.38358 16.4035 7.12439 16.1438 7.12402 15.8234L7.12419 10.7482ZM14.4268 8.40846C14.4359 9.46545 15.2893 10.3198 16.3444 10.3284C17.399 10.3187 18.2512 9.46383 18.2595 8.40723V7.00195H14.4268V8.40846ZM4.7273 3.81009C4.8349 3.66531 5.00438 3.57983 5.18454 3.57946H7.23333L5.36169 6.51319H2.72754L4.7273 3.81009ZM2.48828 7.00195V8.05471C2.49304 8.81046 3.1058 9.42062 3.86016 9.42074H3.88902C4.64642 9.41512 5.25634 8.79641 5.25252 8.03761V7.00195H2.48828ZM19.2637 19.8231H4.73666C4.41682 19.8228 4.15759 19.5631 4.15723 19.2427V9.88835C4.6532 9.81305 5.09784 9.54039 5.39044 9.1322C5.59394 9.76145 6.04361 10.281 6.63654 10.572V15.8233C6.63723 16.4134 7.11443 16.8917 7.70346 16.8925H16.297C16.8861 16.8918 17.3635 16.4135 17.3642 15.8233V10.5834C17.9609 10.2981 18.4163 9.78218 18.6259 9.15395C18.9185 9.55078 19.3563 9.81513 19.8432 9.88897V19.2427C19.8428 19.5631 19.5836 19.8228 19.2638 19.8231H19.2637ZM20.1488 9.42068C20.9066 9.41596 21.517 8.79668 21.5123 8.03755V7.00189H18.748V8.05466C18.7531 8.81358 19.3709 9.42496 20.1285 9.42068H20.1488H20.1488Z"
        fill="currentColor" />
    <path
        d="M21.9978 6.72724L22.0973 6.71657L22.0971 6.71494L21.9978 6.72724ZM21.9989 6.73709L22.0987 6.72968L22.0983 6.72643L21.9989 6.73709ZM21.9957 6.71351L21.8971 6.73027L21.8974 6.73193L21.9957 6.71351ZM21.9936 6.70295L21.8956 6.72305L21.8959 6.72427L21.9936 6.70295ZM21.9936 6.70284L22.0916 6.68274L22.0909 6.67992L21.9936 6.70284ZM21.9926 6.69877L22.09 6.67585L22.0892 6.67304L21.9926 6.69877ZM21.9904 6.69062L22.0871 6.66489L22.0867 6.6637L21.9904 6.69062ZM21.9869 6.67914L22.0818 6.64755L22.081 6.64536L21.9869 6.67914ZM21.9845 6.67266L22.0787 6.63886L22.0773 6.63526L21.9845 6.67266ZM21.9828 6.66835L22.0755 6.63094L22.0749 6.62942L21.9828 6.66835ZM21.9776 6.65613L22.0698 6.61719L22.0687 6.61474L21.9776 6.65613ZM21.973 6.6466L22.0618 6.60055L22.0618 6.60054L21.973 6.6466ZM21.9663 6.63438L21.8786 6.6825L21.8797 6.68448L21.9663 6.63438ZM21.9634 6.62905L22.0511 6.58087L22.0484 6.5765L21.9634 6.62905ZM20.0879 3.59253L20.0026 3.64478L20.0028 3.64508L20.0879 3.59253ZM19.1891 3.09083V3.19083L19.1894 3.19083L19.1891 3.09083ZM5.18513 3.09083V2.99083L5.18494 2.99083L5.18513 3.09083ZM4.33602 3.5191L4.25576 3.45945L4.25563 3.45963L4.33602 3.5191ZM2.04789 6.61202L1.96743 6.5525L1.96515 6.55586L2.04789 6.61202ZM2.04512 6.61609L2.12686 6.67374L2.12786 6.67226L2.04512 6.61609ZM2.03752 6.62754L1.95292 6.5742L1.95207 6.5756L2.03752 6.62754ZM2.03195 6.6367L1.94646 6.58474L1.94503 6.58726L2.03195 6.6367ZM2.02635 6.64737L2.11565 6.69237L2.11565 6.69237L2.02635 6.64737ZM2.02594 6.64819L2.11522 6.69322L2.11524 6.69319L2.02594 6.64819ZM2.02098 6.65845L1.92966 6.6177L1.92965 6.6177L2.02098 6.65845ZM2.01642 6.66961L1.92328 6.63323L1.92328 6.63323L2.01642 6.66961ZM2.01236 6.68109L1.9167 6.65194L1.91644 6.65281L2.01236 6.68109ZM2.00919 6.69184L1.91326 6.66355L1.91279 6.66525L2.00919 6.69184ZM2.00856 6.69413L2.10175 6.73235L2.10495 6.72073L2.00856 6.69413ZM2.00856 6.69413L1.91527 6.65587L1.91194 6.66832L2.00856 6.69413ZM2.00855 6.69414L2.10492 6.72088L2.10516 6.71995L2.00855 6.69414ZM2.00593 6.70443L1.90806 6.68382L1.90767 6.68589L2.00593 6.70443ZM2.00398 6.71477L1.90572 6.69624L1.90569 6.69638L2.00398 6.71477ZM2.00187 6.7285L1.90259 6.71622L1.90232 6.71905L2.00187 6.7285ZM2.00093 6.73835L1.90134 6.72891L1.90116 6.73166L2.00093 6.73835ZM2.00024 6.75289L2.10017 6.75819L2.10023 6.75457L2.00024 6.75289ZM2 6.75749L1.9 6.7522V6.75749H2ZM2 8.05759H1.9L1.9 8.05822L2 8.05759ZM3.66919 9.89986H3.76919V9.80968L3.6795 9.80039L3.66919 9.89986ZM3.66919 19.2427H3.56919L3.56919 19.2428L3.66919 19.2427ZM4.73643 20.3119L4.73631 20.4119H4.73643V20.3119ZM19.2635 20.3119V20.4119H19.2636L19.2635 20.3119ZM20.3307 19.2427L20.4307 19.2428V19.2427H20.3307ZM20.3307 9.89966L20.3204 9.80018L20.2307 9.80945V9.89966H20.3307ZM21.9999 8.036H21.8999L21.8999 8.03654L21.9999 8.036ZM21.9999 6.75754H22.1001L22.0998 6.75256L21.9999 6.75754ZM21.9997 6.75183L21.8997 6.75512L21.8998 6.75681L21.9997 6.75183ZM21.3184 6.5131V6.6131H21.4977L21.4035 6.46055L21.3184 6.5131ZM19.6733 3.84963L19.588 3.90187L19.5882 3.90218L19.6733 3.84963ZM18.6508 6.5131L18.5625 6.55989L18.5906 6.6131H18.6508V6.5131ZM17.0977 3.57946V3.47946H16.9316L17.0093 3.62625L17.0977 3.57946ZM19.1892 3.57946V3.67946L19.1896 3.67946L19.1892 3.57946ZM10.5763 3.57945L10.6718 3.60926L10.7123 3.47945H10.5763V3.57945ZM9.66032 6.51318V6.61318H9.73386L9.75578 6.54298L9.66032 6.51318ZM7.81292 3.57945V3.47945H7.7581L7.72861 3.52567L7.81292 3.57945ZM5.94124 6.51318L5.85694 6.45939L5.75883 6.61318H5.94124V6.51318ZM13.8287 6.51319V6.61319H13.9647L13.9242 6.48339L13.8287 6.51319ZM12.9127 3.57946L13.0082 3.54966L12.9863 3.47946H12.9127V3.57946ZM10.1719 6.51319L10.0764 6.48339L10.0359 6.61319H10.1719V6.51319ZM11.0879 3.57946V3.47946H11.0143L10.9924 3.54966L11.0879 3.57946ZM16.5457 3.57946L16.6341 3.53268L16.6059 3.47946H16.5457V3.57946ZM18.0986 6.51319V6.61319H18.2646L18.1869 6.46641L18.0986 6.51319ZM13.4238 3.57946V3.47946H13.2879L13.3284 3.60926L13.4238 3.57946ZM14.3396 6.51319L14.2441 6.54299L14.2661 6.61319H14.3396V6.51319ZM13.9168 7.00195H14.0168V6.90195H13.9168V7.00195ZM10.084 7.00195V6.90195H9.98398V7.00195H10.084ZM13.9168 8.40699H13.8168V8.40705L13.9168 8.40699ZM12.0016 10.3281L12.0017 10.4281L12.0016 10.3281ZM10.084 8.40935H9.98398V8.40941L10.084 8.40935ZM5.76273 7.00195V6.90195H5.66273V7.00195H5.76273ZM9.59546 7.00195H9.69546V6.90195H9.59546V7.00195ZM5.76273 8.42609H5.66272L5.66273 8.42658L5.76273 8.42609ZM7.6885 10.3366L7.68801 10.2366L7.6885 10.3366ZM9.59546 8.40723H9.49546L9.49546 8.40773L9.59546 8.40723ZM9.83964 9.45314L9.92988 9.41006L9.83908 9.21986L9.74919 9.4105L9.83964 9.45314ZM7.12419 10.7482L7.14809 10.6511L7.02419 10.6206L7.02419 10.7482L7.12419 10.7482ZM13.0332 10.5822L12.99 10.492L12.99 10.492L13.0332 10.5822ZM14.1719 9.42834L14.2622 9.38557L14.1709 9.19256L14.0811 9.38629L14.1719 9.42834ZM16.345 10.8171L16.3443 10.9171L16.3456 10.9171L16.345 10.8171ZM16.876 10.7542H16.976V10.6281L16.8532 10.6568L16.876 10.7542ZM16.876 15.8234L16.976 15.8235V15.8234H16.876ZM16.2969 16.4038V16.5038L16.2971 16.5038L16.2969 16.4038ZM7.70342 16.4038L7.7033 16.5038H7.70342V16.4038ZM7.12402 15.8234L7.02402 15.8234V15.8235L7.12402 15.8234ZM16.3444 10.3284L16.3436 10.4284L16.3453 10.4283L16.3444 10.3284ZM14.4268 8.40846H14.3268L14.3268 8.40933L14.4268 8.40846ZM18.2595 8.40723L18.3595 8.40802V8.40723H18.2595ZM18.2595 7.00195H18.3595V6.90195H18.2595V7.00195ZM14.4268 7.00195V6.90195H14.3268V7.00195H14.4268ZM5.18454 3.57946V3.47946L5.18434 3.47946L5.18454 3.57946ZM4.7273 3.81009L4.64704 3.75044L4.64691 3.75062L4.7273 3.81009ZM7.23333 3.57946L7.31763 3.63325L7.41574 3.47946H7.23333V3.57946ZM5.36169 6.51319V6.61319H5.41651L5.446 6.56697L5.36169 6.51319ZM2.72754 6.51319L2.64715 6.45371L2.52917 6.61319H2.72754V6.51319ZM2.48828 8.05471H2.38828L2.38828 8.05534L2.48828 8.05471ZM2.48828 7.00195V6.90195H2.38828V7.00195H2.48828ZM3.86016 9.42074L3.86014 9.52074H3.86016V9.42074ZM3.88902 9.42074V9.52074L3.88976 9.52073L3.88902 9.42074ZM5.25252 8.03761H5.15252L5.15252 8.03811L5.25252 8.03761ZM5.25252 7.00195H5.35252V6.90195H5.25252V7.00195ZM4.73666 19.8231L4.73654 19.9231H4.73666V19.8231ZM4.15723 19.2427H4.05723L4.05723 19.2428L4.15723 19.2427ZM4.15723 9.88835L4.14222 9.78949L4.05723 9.80239V9.88835H4.15723ZM5.39044 9.1322L5.48559 9.10143L5.42462 8.91288L5.30917 9.07394L5.39044 9.1322ZM6.63654 10.572H6.73654V10.5097L6.6806 10.4822L6.63654 10.572ZM6.63654 15.8233H6.53654V15.8234L6.63654 15.8233ZM7.70346 16.8925L7.70332 16.9925H7.70346V16.8925ZM16.297 16.8925V16.9925L16.2971 16.9925L16.297 16.8925ZM17.3642 15.8233L17.4642 15.8234V15.8233H17.3642ZM17.3642 10.5834L17.321 10.4932L17.2642 10.5204V10.5834H17.3642ZM18.6259 9.15395L18.7063 9.09459L18.592 8.93952L18.531 9.1223L18.6259 9.15395ZM19.8432 9.88897H19.9432V9.80299L19.8582 9.7901L19.8432 9.88897ZM19.8432 19.2427L19.9432 19.2428V19.2427H19.8432ZM19.2638 19.8231V19.9231H19.2639L19.2638 19.8231ZM21.5123 8.03755H21.4123L21.4123 8.03817L21.5123 8.03755ZM20.1488 9.42068V9.52068L20.1494 9.52068L20.1488 9.42068ZM21.5123 7.00189H21.6123V6.90189H21.5123V7.00189ZM18.748 7.00189V6.90189H18.648V7.00189H18.748ZM18.748 8.05466H18.648L18.648 8.05532L18.748 8.05466ZM20.1285 9.42068V9.32068L20.1279 9.32068L20.1285 9.42068ZM21.8984 6.7379L21.8995 6.74775L22.0983 6.72643L22.0973 6.71658L21.8984 6.7379ZM21.8974 6.73193C21.8979 6.73421 21.8982 6.73671 21.8986 6.73953L22.0971 6.71494C22.0963 6.70856 22.0953 6.70194 22.094 6.6951L21.8974 6.73193ZM21.8959 6.72427C21.8967 6.72814 21.897 6.72939 21.8971 6.73027L22.0943 6.69676C22.0932 6.69054 22.092 6.68477 22.0913 6.68164L21.8959 6.72427ZM21.8956 6.72294L21.8956 6.72305L22.0915 6.68286L22.0915 6.68275L21.8956 6.72294ZM21.8953 6.72169L21.8962 6.72576L22.0909 6.67992L22.0899 6.67586L21.8953 6.72169ZM21.8938 6.71636L21.896 6.72451L22.0892 6.67304L22.0871 6.66489L21.8938 6.71636ZM21.892 6.71072C21.8931 6.71415 21.8937 6.7159 21.8941 6.71755L22.0867 6.6637C22.0849 6.6572 22.0831 6.6517 22.0817 6.64756L21.892 6.71072ZM21.8904 6.70644L21.8927 6.71292L22.081 6.64536L22.0787 6.63889L21.8904 6.70644ZM21.89 6.70575L21.8918 6.71006L22.0773 6.63526L22.0755 6.63095L21.89 6.70575ZM21.8855 6.69506L21.8907 6.70727L22.0749 6.62942L22.0697 6.6172L21.8855 6.69506ZM21.8843 6.69265C21.8848 6.69368 21.8855 6.69516 21.8866 6.69752L22.0687 6.61474C22.0668 6.61067 22.0645 6.60579 22.0618 6.60055L21.8843 6.69265ZM21.8797 6.68448C21.8816 6.68776 21.8831 6.69041 21.8843 6.69266L22.0618 6.60054C22.0587 6.59465 22.0557 6.58915 22.0528 6.58428L21.8797 6.68448ZM21.8757 6.67716L21.8786 6.68249L22.054 6.58627L22.051 6.58093L21.8757 6.67716ZM20.0028 3.64508L21.8783 6.68159L22.0484 6.5765L20.173 3.53998L20.0028 3.64508ZM19.1894 3.19083C19.5209 3.18965 19.8291 3.36164 20.0026 3.64478L20.1732 3.54027C19.9632 3.1977 19.5902 2.9894 19.1887 2.99083L19.1894 3.19083ZM5.18513 3.19083H19.1891V2.99083H5.18513V3.19083ZM4.41628 3.57875C4.59733 3.33516 4.88235 3.19142 5.18533 3.19083L5.18494 2.99083C4.81873 2.99154 4.4744 3.16529 4.25576 3.45945L4.41628 3.57875ZM2.12828 6.6715L4.41642 3.57857L4.25563 3.45963L1.96749 6.55255L2.12828 6.6715ZM2.12786 6.67226L2.13063 6.66818L1.96515 6.55586L1.96238 6.55993L2.12786 6.67226ZM2.12211 6.68087C2.12386 6.67809 2.12542 6.67575 2.12684 6.67373L1.9634 6.55846C1.95954 6.56393 1.95605 6.56925 1.95293 6.57421L2.12211 6.68087ZM2.11741 6.68864L2.12297 6.67948L1.95207 6.5756L1.9465 6.58476L2.11741 6.68864ZM2.11565 6.69237C2.11763 6.68843 2.11832 6.68712 2.11887 6.68615L1.94503 6.58726C1.94158 6.59333 1.93868 6.59912 1.93705 6.60236L2.11565 6.69237ZM2.11524 6.69319L2.11565 6.69237L1.93705 6.60236L1.93663 6.60318L2.11524 6.69319ZM2.1123 6.6992C2.11278 6.69811 2.11329 6.69705 2.11522 6.69322L1.93665 6.60316C1.93468 6.60706 1.93226 6.61186 1.92966 6.6177L2.1123 6.6992ZM2.10957 6.70599C2.11122 6.70176 2.11189 6.7001 2.1123 6.6992L1.92965 6.6177C1.92697 6.62372 1.92455 6.62996 1.92328 6.63323L2.10957 6.70599ZM2.10802 6.71024C2.10814 6.70985 2.10853 6.70864 2.10957 6.70599L1.92328 6.63323C1.92138 6.63807 1.91894 6.6446 1.9167 6.65195L2.10802 6.71024ZM2.1051 6.72013L2.10827 6.70938L1.91644 6.65281L1.91327 6.66356L2.1051 6.72013ZM2.10495 6.72073L2.10559 6.71844L1.91279 6.66525L1.91216 6.66754L2.10495 6.72073ZM2.10108 6.73208L2.10108 6.73208L1.91604 6.65618L1.91604 6.65618L2.10108 6.73208ZM2.10516 6.71995L2.10517 6.71995L1.91194 6.66832L1.91194 6.66833L2.10516 6.71995ZM2.10379 6.72504C2.10378 6.7251 2.10391 6.72451 2.10491 6.72088L1.9122 6.6674C1.91146 6.67005 1.90958 6.67668 1.90808 6.68382L2.10379 6.72504ZM2.10225 6.73331L2.1042 6.72297L1.90767 6.68589L1.90572 6.69624L2.10225 6.73331ZM2.10111 6.74077C2.10146 6.73797 2.10185 6.73547 2.10228 6.73317L1.90569 6.69638C1.90441 6.7032 1.90342 6.70982 1.90263 6.71622L2.10111 6.74077ZM2.10049 6.7478L2.10142 6.73794L1.90232 6.71905L1.90138 6.72891L2.10049 6.7478ZM2.10023 6.75457C2.10027 6.75233 2.10041 6.74953 2.10071 6.74505L1.90116 6.73166C1.90081 6.73687 1.90038 6.74376 1.90026 6.75122L2.10023 6.75457ZM2.09986 6.76279L2.1001 6.75819L1.90038 6.7476L1.90014 6.7522L2.09986 6.76279ZM2.1 8.05759V6.75749H1.9V8.05759H2.1ZM3.6795 9.80039C2.78646 9.70788 2.10573 8.9568 2.1 8.05695L1.9 8.05822C1.90638 9.05977 2.66411 9.89627 3.65889 9.99933L3.6795 9.80039ZM3.76919 19.2427V9.89986H3.56919V19.2427H3.76919ZM4.73655 20.2119C4.20275 20.2113 3.76982 19.7778 3.76919 19.2426L3.56919 19.2428C3.56995 19.888 4.0919 20.4111 4.73631 20.4119L4.73655 20.2119ZM19.2635 20.2119H4.73643V20.4119H19.2635V20.2119ZM20.2307 19.2426C20.2301 19.7778 19.7972 20.2113 19.2634 20.2119L19.2636 20.4119C19.908 20.4111 20.43 19.888 20.4307 19.2428L20.2307 19.2426ZM20.2307 9.89966V19.2427H20.4307V9.89966H20.2307ZM21.8999 8.03654C21.9048 8.94425 21.2213 9.70717 20.3204 9.80018L20.341 9.99913C21.3445 9.89551 22.1054 9.04578 22.0999 8.03546L21.8999 8.03654ZM21.8999 6.75754V8.036H22.0999V6.75754H21.8999ZM21.8998 6.75681L21.9001 6.76251L22.0998 6.75256L22.0995 6.74686L21.8998 6.75681ZM21.8992 6.7445C21.8994 6.74783 21.8996 6.75132 21.8997 6.75512L22.0996 6.74855C22.0994 6.74249 22.0991 6.73621 22.0986 6.72968L21.8992 6.7445ZM21.4035 6.46055L19.7584 3.79708L19.5882 3.90218L21.2333 6.56565L21.4035 6.46055ZM18.6508 6.6131H21.3184V6.4131H18.6508V6.6131ZM17.0093 3.62625L18.5625 6.55989L18.7392 6.46631L17.186 3.53267L17.0093 3.62625ZM19.1892 3.47946H17.0977V3.67946H19.1892V3.47946ZM19.7586 3.7974C19.6371 3.59908 19.4212 3.4786 19.1888 3.47946L19.1896 3.67946C19.352 3.67885 19.503 3.76306 19.588 3.90187L19.7586 3.7974ZM10.4808 3.54965L9.56487 6.48338L9.75578 6.54298L10.6718 3.60926L10.4808 3.54965ZM7.81292 3.67945H10.5763V3.47945H7.81292V3.67945ZM6.02555 6.56696L7.89722 3.63324L7.72861 3.52567L5.85694 6.45939L6.02555 6.56696ZM9.66032 6.41318H5.94124V6.61318H9.66032V6.41318ZM13.9242 6.48339L13.0082 3.54966L12.8173 3.60927L13.7333 6.54299L13.9242 6.48339ZM10.1719 6.61319H13.8287V6.41319H10.1719V6.61319ZM10.9924 3.54966L10.0764 6.48339L10.2673 6.54299L11.1833 3.60927L10.9924 3.54966ZM12.9127 3.47946H11.0879V3.67946H12.9127V3.47946ZM16.4573 3.62625L18.0102 6.55997L18.1869 6.46641L16.6341 3.53268L16.4573 3.62625ZM13.4238 3.67946H16.5457V3.47946H13.4238V3.67946ZM14.4351 6.48339L13.5193 3.54967L13.3284 3.60926L14.2441 6.54299L14.4351 6.48339ZM18.0986 6.41319H14.3396V6.61319H18.0986V6.41319ZM13.9168 6.90195H10.084V7.10195H13.9168V6.90195ZM14.0168 8.40699V7.00195H13.8168V8.40699H14.0168ZM12.0017 10.4281C13.1155 10.4275 14.0175 9.52236 14.0168 8.40693L13.8168 8.40705C13.8175 9.41238 13.0045 10.2275 12.0015 10.2281L12.0017 10.4281ZM9.98398 8.40941C9.98467 9.52485 10.8878 10.4288 12.0017 10.4281L12.0015 10.2281C10.9985 10.2288 10.1846 9.41462 10.184 8.40929L9.98398 8.40941ZM9.98398 8.40829V8.40935H10.184V8.40829H9.98398ZM9.98398 7.00195V8.40829H10.184V7.00195H9.98398ZM5.76273 7.10195H9.59546V6.90195H5.76273V7.10195ZM5.86273 8.40846V7.00195H5.66273V8.40846H5.86273ZM5.86273 8.42609V8.40846H5.66273V8.42609H5.86273ZM7.68801 10.2366C6.68504 10.2415 5.86766 9.43088 5.86272 8.4256L5.66273 8.42658C5.6682 9.54197 6.57522 10.4421 7.689 10.4366L7.68801 10.2366ZM9.49546 8.40773C9.5004 9.41301 8.69099 10.2316 7.68801 10.2366L7.689 10.4366C8.80277 10.4311 9.70093 9.52214 9.69546 8.40674L9.49546 8.40773ZM9.49546 7.00195V8.40723H9.69546V7.00195H9.49546ZM9.74919 9.4105C9.2868 10.3912 8.19913 10.9098 7.14809 10.6511L7.10029 10.8453C8.24396 11.1268 9.42719 10.5624 9.93009 9.49579L9.74919 9.4105ZM12.99 10.492C11.8469 11.0398 10.4768 10.5556 9.92988 9.41006L9.7494 9.49623C10.3439 10.7413 11.8334 11.2681 13.0764 10.6724L12.99 10.492ZM14.0811 9.38629C13.8566 9.87065 13.4708 10.2616 12.99 10.492L13.0764 10.6724C13.5992 10.4219 14.0186 9.99684 14.2626 9.4704L14.0811 9.38629ZM16.3458 10.7171C15.4539 10.7105 14.6444 10.1932 14.2622 9.38557L14.0815 9.47111C14.4963 10.348 15.3755 10.9099 16.3443 10.9171L16.3458 10.7171ZM16.8532 10.6568C16.6864 10.6959 16.5157 10.7161 16.3444 10.7171L16.3456 10.9171C16.5319 10.916 16.7174 10.894 16.8988 10.8516L16.8532 10.6568ZM16.976 15.8234V10.7542H16.776V15.8234H16.976ZM16.2971 16.5038C16.6721 16.5032 16.9756 16.1987 16.976 15.8235L16.776 15.8232C16.7757 16.0886 16.5612 16.3034 16.2968 16.3038L16.2971 16.5038ZM7.70342 16.5038H16.2969V16.3038H7.70342V16.5038ZM7.02402 15.8235C7.02445 16.1989 7.32815 16.5034 7.7033 16.5038L7.70353 16.3038C7.439 16.3035 7.22433 16.0887 7.22402 15.8232L7.02402 15.8235ZM7.02419 10.7482L7.02402 15.8234L7.22402 15.8234L7.22419 10.7482L7.02419 10.7482ZM16.3452 10.2284C15.3449 10.2203 14.5355 9.41018 14.5268 8.40759L14.3268 8.40933C14.3364 9.52073 15.2338 10.4194 16.3436 10.4283L16.3452 10.2284ZM18.1595 8.40645C18.1516 9.40864 17.3434 10.2192 16.3434 10.2284L16.3453 10.4283C17.4547 10.4182 18.3508 9.51901 18.3595 8.40802L18.1595 8.40645ZM18.1595 7.00195V8.40723H18.3595V7.00195H18.1595ZM14.4268 7.10195H18.2595V6.90195H14.4268V7.10195ZM14.5268 8.40846V7.00195H14.3268V8.40846H14.5268ZM5.18434 3.47946C4.97257 3.47989 4.77344 3.58037 4.64704 3.75044L4.80756 3.86974C4.89637 3.75025 5.03618 3.67977 5.18474 3.67946L5.18434 3.47946ZM7.23333 3.47946H5.18454V3.67946H7.23333V3.47946ZM5.446 6.56697L7.31763 3.63325L7.14902 3.52568L5.27739 6.4594L5.446 6.56697ZM2.72754 6.61319H5.36169V6.41319H2.72754V6.61319ZM4.64691 3.75062L2.64715 6.45371L2.80793 6.57266L4.80769 3.86957L4.64691 3.75062ZM2.58828 8.05471V7.00195H2.38828V8.05471H2.58828ZM3.86017 9.32074C3.16097 9.32062 2.59269 8.75503 2.58828 8.05408L2.38828 8.05534C2.39338 8.86589 3.05064 9.52061 3.86014 9.52074L3.86017 9.32074ZM3.88902 9.32074H3.86016V9.52074H3.88902V9.32074ZM5.15252 8.03811C5.15606 8.74195 4.59037 9.31553 3.88828 9.32074L3.88976 9.52073C4.70247 9.5147 5.35661 8.85087 5.35252 8.0371L5.15252 8.03811ZM5.15252 7.00195V8.03761H5.35252V7.00195H5.15252ZM2.48828 7.10195H5.25252V6.90195H2.48828V7.10195ZM4.73666 19.9231H19.2637V19.7231H4.73666V19.9231ZM4.05723 19.2428C4.05766 19.6182 4.3614 19.9227 4.73654 19.9231L4.73677 19.7231C4.47224 19.7228 4.25753 19.508 4.25723 19.2426L4.05723 19.2428ZM4.05723 9.88835V19.2427H4.25723V9.88835H4.05723ZM5.30917 9.07394C5.03225 9.46025 4.61149 9.71824 4.14222 9.78949L4.17224 9.98722C4.69491 9.90787 5.16343 9.62054 5.47172 9.19046L5.30917 9.07394ZM6.6806 10.4822C6.11203 10.2032 5.68076 9.70494 5.48559 9.10143L5.29529 9.16297C5.50711 9.81796 5.9752 10.3589 6.59249 10.6618L6.6806 10.4822ZM6.73654 15.8233V10.572H6.53654V15.8233H6.73654ZM7.7036 16.7925C7.16988 16.7918 6.73717 16.3584 6.73654 15.8232L6.53654 15.8234C6.5373 16.4685 7.05898 16.9916 7.70332 16.9925L7.7036 16.7925ZM16.297 16.7925H7.70346V16.9925H16.297V16.7925ZM17.2642 15.8232C17.2636 16.3584 16.8307 16.7919 16.2969 16.7925L16.2971 16.9925C16.9415 16.9917 17.4634 16.4686 17.4642 15.8234L17.2642 15.8232ZM17.2642 10.5834V15.8233H17.4642V10.5834H17.2642ZM18.531 9.1223C18.33 9.72484 17.8932 10.2196 17.321 10.4932L17.4073 10.6736C18.0285 10.3766 18.5025 9.83952 18.7207 9.18559L18.531 9.1223ZM19.8582 9.7901C19.3975 9.72024 18.9833 9.47013 18.7063 9.09459L18.5454 9.2133C18.8537 9.63143 19.3151 9.91002 19.8282 9.98784L19.8582 9.7901ZM19.9432 19.2427V9.88897H19.7432V19.2427H19.9432ZM19.2639 19.9231C19.639 19.9227 19.9428 19.6182 19.9432 19.2428L19.7432 19.2426C19.7429 19.508 19.5282 19.7228 19.2637 19.7231L19.2639 19.9231ZM19.2637 19.9231H19.2638V19.7231H19.2637V19.9231ZM21.4123 8.03817C21.4167 8.74225 20.8506 9.3163 20.1482 9.32068L20.1494 9.52068C20.9626 9.51561 21.6173 8.8511 21.6123 8.03693L21.4123 8.03817ZM21.4123 7.00189V8.03755H21.6123V7.00189H21.4123ZM18.748 7.10189H21.5123V6.90189H18.748V7.10189ZM18.848 8.05466V7.00189H18.648V8.05466H18.848ZM20.1279 9.32068C19.4257 9.32465 18.8528 8.7579 18.848 8.05399L18.648 8.05532C18.6535 8.86926 19.3161 9.52527 20.129 9.52068L20.1279 9.32068ZM20.1488 9.32068H20.1285V9.52068H20.1488V9.32068ZM20.1488 9.32068H20.1488V9.52068H20.1488V9.32068Z"
        fill="currentColor" />
</svg>