<svg width="25" height="25" viewBox="0 0 25 25" fill="none" xmlns="http://www.w3.org/2000/svg">
    <path
        d="M8.18507 5.70874H6.8147C5.71013 5.70874 4.8147 6.60417 4.8147 7.70874V21.7087C4.8147 22.8133 5.71013 23.7087 6.8147 23.7087H17.2591C18.3637 23.7087 19.2591 22.8133 19.2591 21.7087V7.70874C19.2591 6.60417 18.3637 5.70874 17.2591 5.70874H16.3703"
        stroke="currentColor" stroke-width="1.2" />
    <path d="M10.5925 10.2087H16.3703" stroke="currentColor" stroke-linecap="round" />
    <path d="M10.5925 14.7087H16.3703" stroke="currentColor" stroke-linecap="round" />
    <path d="M7.22217 9.70874L7.70365 10.7087L9.14809 8.70874" stroke="currentColor" stroke-linecap="round"
        stroke-linejoin="round" />
    <path d="M7.22217 14L7.70365 15L9.14809 13" stroke="currentColor" stroke-linecap="round" stroke-linejoin="round" />
    <path d="M10.5925 19.7087H16.3703" stroke="currentColor" stroke-linecap="round" />
    <path
        d="M8.18509 20.2087C8.74477 20.2087 9.16658 19.7431 9.16658 19.2087C9.16658 18.6744 8.74477 18.2087 8.18509 18.2087C7.62542 18.2087 7.20361 18.6744 7.20361 19.2087C7.20361 19.7431 7.62542 20.2087 8.18509 20.2087Z"
        stroke="currentColor" />
    <path
        d="M8.30361 4.70869C8.30361 4.48778 8.4827 4.30869 8.70361 4.30869H9.01594C9.81915 4.30869 10.4703 3.65756 10.4703 2.85435C10.4703 2.71388 10.5842 2.60001 10.7246 2.60001H11.9327H13.3493C13.4897 2.60001 13.6036 2.71388 13.6036 2.85435C13.6036 3.65756 14.2547 4.30869 15.058 4.30869H15.3703C15.5912 4.30869 15.7703 4.48778 15.7703 4.70869V5.70869C15.7703 5.9296 15.5912 6.10869 15.3703 6.10869H8.70361C8.4827 6.10869 8.30361 5.9296 8.30361 5.70869V4.70869Z"
        stroke="currentColor" stroke-width="1.2" stroke-linejoin="round" />
</svg>