<?xml version="1.0" encoding="UTF-8"?>
<svg width="25px" height="26px" viewBox="0 0 25 26" version="1.1" xmlns="http://www.w3.org/2000/svg"
    xmlns:xlink="http://www.w3.org/1999/xlink">
    <title>bi:clipboard2-data</title>
    <g id="Symbols" stroke="none" stroke-width="1" fill="none" fill-rule="evenodd">
        <g id="menu_desktop" transform="translate(-24, -640)">
            <g id="Group-3" transform="translate(0, 444.1639)">
                <g id="Group-13" transform="translate(0, 185)">
                    <g id="bi:clipboard2-data" transform="translate(24, 11)">
                        <rect id="ViewBox" x="0" y="0" width="25" height="25"></rect>
                        <g id="Group" transform="translate(6, 4)" fill="currentColor" fill-rule="nonzero">
                            <path
                                d="M8.4375,0 C8.74816017,0 9,0.251839828 9,0.5625 C9,0.873160172 9.25183983,1.125 9.5625,1.125 C9.87316017,1.125 10.125,1.37683983 10.125,1.6875 L10.125,2.25 C10.125,2.56066017 9.87316017,2.8125 9.5625,2.8125 L3.9375,2.8125 C3.62683983,2.8125 3.375,2.56066017 3.375,2.25 L3.375,1.6875 C3.375,1.37683983 3.62683983,1.125 3.9375,1.125 C4.24816017,1.125 4.5,0.873160172 4.5,0.5625 C4.5,0.251839828 4.75183983,0 5.0625,0 L8.4375,0 Z"
                                id="Path"></path>
                            <path
                                d="M1.125,2.8125 C1.125,2.50183983 1.37683983,2.25 1.6875,2.25 L2.25,2.25 C2.56066017,2.25 2.8125,1.99816017 2.8125,1.6875 C2.8125,1.37683983 2.56066017,1.125 2.25,1.125 L1.6875,1.125 C0.755519485,1.125 0,1.88051948 0,2.8125 L0,16.3125 C0,17.2444805 0.755519485,18 1.6875,18 L11.8125,18 C12.7444805,18 13.5,17.2444805 13.5,16.3125 L13.5,2.8125 C13.5,1.88051948 12.7444805,1.125 11.8125,1.125 L11.25,1.125 C10.9393398,1.125 10.6875,1.37683983 10.6875,1.6875 C10.6875,1.99816017 10.9393398,2.25 11.25,2.25 L11.8125,2.25 C12.1231602,2.25 12.375,2.50183983 12.375,2.8125 L12.375,16.3125 C12.375,16.6231602 12.1231602,16.875 11.8125,16.875 L1.6875,16.875 C1.37683983,16.875 1.125,16.6231602 1.125,16.3125 L1.125,2.8125 Z"
                                id="Path"></path>
                            <path
                                d="M9,7.875 C9,7.25367966 9.50367966,6.75 10.125,6.75 C10.7463203,6.75 11.25,7.25367966 11.25,7.875 L11.25,13.5 C11.25,14.1213203 10.7463203,14.625 10.125,14.625 C9.50367966,14.625 9,14.1213203 9,13.5 L9,7.875 Z M2.25,12.375 C2.25,11.7536797 2.75367966,11.25 3.375,11.25 C3.99632034,11.25 4.5,11.7536797 4.5,12.375 L4.5,13.5 C4.5,14.1213203 3.99632034,14.625 3.375,14.625 C2.75367966,14.625 2.25,14.1213203 2.25,13.5 L2.25,12.375 Z M6.75,9 C6.12867966,9 5.625,9.50367966 5.625,10.125 L5.625,13.5 C5.625,14.1213203 6.12867966,14.625 6.75,14.625 C7.37132034,14.625 7.875,14.1213203 7.875,13.5 L7.875,10.125 C7.875,9.50367966 7.37132034,9 6.75,9"
                                id="Shape"></path>
                        </g>
                    </g>
                </g>
            </g>
        </g>
    </g>
</svg>