<svg width="25" height="25" viewBox="0 0 25 25" fill="none" xmlns="http://www.w3.org/2000/svg">
  <path
    d="M2.99367 5.74014C2.29507 5.96387 1.74258 6.57115 1.5919 7.28801C1.51885 7.63046 1.51885 17.6483 1.5919 17.9907C1.74715 18.7122 2.29963 19.3194 3.00736 19.5386C3.27676 19.6208 3.57811 19.6254 12.1805 19.6254C20.7828 19.6254 21.0842 19.6208 21.3536 19.5386C22.0613 19.3194 22.6138 18.7122 22.769 17.9907C22.8421 17.6483 22.8421 7.63046 22.769 7.28801C22.6138 6.56658 22.0613 5.9593 21.3536 5.74014C21.0842 5.65795 20.7874 5.65338 12.1668 5.65795C3.65117 5.65795 3.24023 5.66251 2.99367 5.74014Z"
    stroke="currentColor" />
  <path
    d="M23.2715 9.83138V11.1327L12.2715 11.1327L1.27148 11.1327L1.27148 9.83138V8.53007L12.2715 8.53007L23.2715 8.53007V9.83138Z"
    fill="currentColor" />
</svg>