<svg width="24" height="24" viewBox="0 0 24 24" fill="none" xmlns="http://www.w3.org/2000/svg">
    <path fill-rule="evenodd" clip-rule="evenodd"
        d="M14.2809 8.51036L16.4893 10.7187C16.8955 11.1249 17.5518 11.1249 17.958 10.7083L22.3747 6.29161C22.7803 5.88603 22.7803 5.22845 22.3747 4.82286C21.9691 4.41728 21.3115 4.41728 20.9059 4.82286L17.2184 8.51036L15.7497 7.04161C15.4873 6.77925 15.1049 6.67678 14.7465 6.77281C14.3881 6.86885 14.1082 7.14879 14.0121 7.50719C13.9161 7.86559 14.0186 8.248 14.2809 8.51036ZM3.12467 7.29161H10.4163C10.9893 7.29161 11.458 7.76036 11.458 8.33328C11.458 8.9062 10.9893 9.37495 10.4163 9.37495H3.12467C2.55176 9.37495 2.08301 8.9062 2.08301 8.33328C2.08301 7.76036 2.55176 7.29161 3.12467 7.29161ZM21.1351 13.2395C20.9405 13.0445 20.6762 12.9349 20.4007 12.9349C20.1252 12.9349 19.861 13.0445 19.6663 13.2395L17.708 15.1979L15.7497 13.2395C15.3441 12.8339 14.6865 12.8339 14.2809 13.2395C13.8753 13.6451 13.8753 14.3027 14.2809 14.7083L16.2393 16.6666L14.2809 18.6249C14.0186 18.8873 13.9161 19.2697 14.0121 19.6281C14.1082 19.9865 14.3881 20.2665 14.7465 20.3625C15.1049 20.4585 15.4873 20.3561 15.7497 20.0937L17.708 18.1354L19.6663 20.0937C20.0719 20.4993 20.7295 20.4993 21.1351 20.0937C21.5407 19.6881 21.5407 19.0305 21.1351 18.6249L19.1768 16.6666L21.1351 14.7083C21.3301 14.5137 21.4397 14.2494 21.4397 13.9739C21.4397 13.6984 21.3301 13.4342 21.1351 13.2395ZM3.12467 15.6249H10.4163C10.9893 15.6249 11.458 16.0937 11.458 16.6666C11.458 17.2395 10.9893 17.7083 10.4163 17.7083H3.12467C2.55176 17.7083 2.08301 17.2395 2.08301 16.6666C2.08301 16.0937 2.55176 15.6249 3.12467 15.6249Z"
        fill="currentColor" />
</svg>