<svg width="18" height="11" viewBox="0 0 18 11" fill="currentColor" xmlns="http://www.w3.org/2000/svg">
  <path fill-rule="evenodd" clip-rule="evenodd"
    d="M13.2597 1.16C14.6597 1.89 15.8997 2.96 16.8597 4.26C17.2297 4.76 17.2297 5.46 16.8597 5.96C15.8997 7.26 14.6497 8.33 13.2597 9.06C11.8397 9.81 10.2997 10.2 8.69969 10.22C8.65969 10.22 8.47969 10.22 8.42969 10.22C6.82969 10.2 5.29969 9.81 3.86969 9.06C2.46969 8.33 1.22969 7.26 0.269688 5.96C-0.100313 5.46 -0.100313 4.76 0.269688 4.26C1.23969 2.96 2.48969 1.89 3.87969 1.16C5.30969 0.41 6.83969 0.02 8.43969 0C8.47969 0 8.65969 0 8.70969 0C10.3097 0.02 11.8397 0.41 13.2697 1.16H13.2597Z"
    fill="white" />
  <path fill-rule="evenodd" clip-rule="evenodd"
    d="M13.261 1.15634C14.6565 1.88842 15.9028 2.9605 16.8649 4.25661C17.2355 4.7559 17.2355 5.45326 16.8649 5.95263C15.9027 7.24877 14.6565 8.32082 13.261 9.05289C11.8364 9.80021 10.3038 10.1879 8.70393 10.2083C8.65987 10.2095 8.48295 10.2095 8.43889 10.2083C6.83902 10.188 5.30645 9.80021 3.88185 9.05289C2.48629 8.32082 1.24009 7.24873 0.277984 5.95263C-0.0926615 5.45333 -0.0926615 4.7559 0.277984 4.25661C1.24012 2.96047 2.48629 1.88842 3.88185 1.15634C5.30645 0.409028 6.83905 0.0213186 8.43889 0.000949837C8.48295 -0.000316612 8.65987 -0.000316612 8.70393 0.000949837C10.3038 0.0212834 11.8364 0.409028 13.261 1.15634ZM0.827893 5.50198C1.72652 6.71253 2.89028 7.71373 4.1934 8.39733C4.56355 8.59149 4.94159 8.75943 5.32654 8.90155C4.3361 7.96625 3.71213 6.61062 3.71213 5.1046C3.71213 3.59865 4.33607 2.24313 5.3264 1.30778C4.94146 1.44991 4.56351 1.61778 4.1934 1.8119C2.89025 2.4955 1.72648 3.4967 0.827893 4.70725C0.654222 4.94123 0.654222 5.26801 0.827893 5.50198ZM4.4095 5.10456C4.4095 7.51581 6.27652 9.47747 8.57144 9.47747C10.8664 9.47747 12.7334 7.51585 12.7334 5.1046C12.7334 2.69335 10.8664 0.731691 8.57144 0.731691C6.27652 0.731691 4.4095 2.69332 4.4095 5.10456ZM12.9495 8.3973C14.2526 7.7137 15.4164 6.7125 16.315 5.50195C16.4887 5.26797 16.4887 4.94119 16.315 4.70718C15.4164 3.49663 14.2526 2.49543 12.9495 1.81183C12.5793 1.61761 12.2012 1.44952 11.8162 1.30736C12.8067 2.24271 13.4308 3.5984 13.4308 5.10456C13.4308 6.60991 12.8073 7.96501 11.8176 8.90032C12.2021 8.75834 12.5798 8.5912 12.9495 8.3973ZM6.65234 5.10465C6.65234 4.06765 7.4558 3.224 8.44339 3.224C9.43101 3.224 10.2344 4.06765 10.2344 5.10465C10.2344 6.14165 9.43098 6.9853 8.44339 6.9853C7.4558 6.9853 6.65234 6.14165 6.65234 5.10465Z"
    fill="currentColor" />
</svg>