<svg width="24" height="24" viewBox="0 0 24 24" fill="none" xmlns="http://www.w3.org/2000/svg">
  <rect width="24" height="24" stroke="none" />
  <path fill-rule="evenodd" clip-rule="evenodd"
    d="M4 2C2.34315 2 1 3.34315 1 5V15C1 16.6569 2.34315 18 4 18H8.14479L7.80979 19.8999H6.99999C6.66862 19.8999 6.39999 20.1685 6.39999 20.4999C6.39999 20.8313 6.66862 21.0999 6.99999 21.0999H17C17.3314 21.0999 17.6 20.8313 17.6 20.4999C17.6 20.1685 17.3314 19.8999 17 19.8999H16.5033L16.1683 18H20C21.6569 18 23 16.6569 23 15V5C23 3.34315 21.6569 2 20 2H4ZM20 3.2H4C3.00589 3.2 2.2 4.00589 2.2 5V12.8H21.8V5C21.8 4.00589 20.9941 3.2 20 3.2ZM21.8 14H2.2V15C2.2 15.9941 3.00589 16.8 4 16.8H20C20.9941 16.8 21.8 15.9941 21.8 15V14ZM15.2848 19.8999H9.0283L9.36331 18H14.9498L15.2848 19.8999Z"
    fill="currentColor" />
</svg>