<svg width="25" height="25" viewBox="0 0 25 25" fill="none" xmlns="http://www.w3.org/2000/svg">
    <path
        d="M14.4375 4C14.7482 4 15 4.25184 15 4.5625C15 4.87316 15.2518 5.125 15.5625 5.125C15.8732 5.125 16.125 5.37684 16.125 5.6875V6.25C16.125 6.56066 15.8732 6.8125 15.5625 6.8125H9.9375C9.62684 6.8125 9.375 6.56066 9.375 6.25V5.6875C9.375 5.37684 9.62684 5.125 9.9375 5.125C10.2482 5.125 10.5 4.87316 10.5 4.5625C10.5 4.25184 10.7518 4 11.0625 4H14.4375Z"
        fill="currentColor" />
    <path
        d="M7.125 6.8125C7.125 6.50184 7.37684 6.25 7.6875 6.25H8.25C8.56066 6.25 8.8125 5.99816 8.8125 5.6875C8.8125 5.37684 8.56066 5.125 8.25 5.125H7.6875C6.75552 5.125 6 5.88052 6 6.8125V20.3125C6 21.2445 6.75552 22 7.6875 22H17.8125C18.7445 22 19.5 21.2445 19.5 20.3125V6.8125C19.5 5.88052 18.7445 5.125 17.8125 5.125H17.25C16.9393 5.125 16.6875 5.37684 16.6875 5.6875C16.6875 5.99816 16.9393 6.25 17.25 6.25H17.8125C18.1232 6.25 18.375 6.50184 18.375 6.8125V20.3125C18.375 20.6232 18.1232 20.875 17.8125 20.875H7.6875C7.37684 20.875 7.125 20.6232 7.125 20.3125V6.8125Z"
        fill="currentColor" />
    <path fill-rule="evenodd" clip-rule="evenodd"
        d="M15 11.875C15 11.2537 15.5037 10.75 16.125 10.75C16.7463 10.75 17.25 11.2537 17.25 11.875V17.5C17.25 18.1213 16.7463 18.625 16.125 18.625C15.5037 18.625 15 18.1213 15 17.5V11.875ZM8.25 16.375C8.25 15.7537 8.75368 15.25 9.375 15.25C9.99632 15.25 10.5 15.7537 10.5 16.375V17.5C10.5 18.1213 9.99632 18.625 9.375 18.625C8.75368 18.625 8.25 18.1213 8.25 17.5V16.375ZM11.625 14.125C11.625 13.5037 12.1287 13 12.75 13C13.3713 13 13.875 13.5037 13.875 14.125V17.5C13.875 18.1213 13.3713 18.625 12.75 18.625C12.1287 18.625 11.625 18.1213 11.625 17.5V14.125Z"
        fill="currentColor" />
</svg>