<svg width="24" height="24" viewBox="0 0 24 24" fill="none" xmlns="http://www.w3.org/2000/svg">
    <path
        d="M5.72222 7.27778C5.72222 6.81754 5.34913 6.44444 4.88889 6.44444C4.42865 6.44444 4.05556 6.81754 4.05556 7.27778H5.72222ZM4.05556 7.27778C4.05556 7.73802 4.42865 8.11111 4.88889 8.11111C5.34913 8.11111 5.72222 7.73802 5.72222 7.27778H4.05556ZM2.16667 20.5C2.16667 20.9602 2.53976 21.3333 3 21.3333C3.46024 21.3333 3.83333 20.9602 3.83333 20.5H2.16667ZM13.5 20.5C13.5 20.9602 13.8731 21.3333 14.3333 21.3333C14.7936 21.3333 15.1667 20.9602 15.1667 20.5H13.5ZM15.484 2.81551C15.0382 2.70135 14.5842 2.97025 14.4701 3.4161C14.3559 3.86196 14.6248 4.31594 15.0706 4.43009L15.484 2.81551ZM15.0706 10.135C14.6248 10.2491 14.3559 10.7031 14.4701 11.1489C14.5842 11.5948 15.0382 11.8637 15.484 11.7495L15.0706 10.135ZM19.167 20.5C19.167 20.9602 19.5401 21.3333 20.0003 21.3333C20.4606 21.3333 20.8337 20.9602 20.8337 20.5H19.167ZM20.0003 18.6111H20.8337L20.8336 18.6063L20.0003 18.6111ZM17.3753 14.1681C16.9297 14.053 16.4752 14.321 16.3601 14.7667C16.2451 15.2123 16.513 15.6668 16.9587 15.7819L17.3753 14.1681ZM4.05556 7.27778C4.05556 9.82442 6.12002 11.8889 8.66667 11.8889V10.2222C7.04049 10.2222 5.72222 8.90395 5.72222 7.27778H4.05556ZM8.66667 11.8889C11.2133 11.8889 13.2778 9.82442 13.2778 7.27778H11.6111C11.6111 8.90395 10.2928 10.2222 8.66667 10.2222V11.8889ZM13.2778 7.27778C13.2778 4.73113 11.2133 2.66667 8.66667 2.66667V4.33333C10.2928 4.33333 11.6111 5.65161 11.6111 7.27778H13.2778ZM8.66667 2.66667C6.12002 2.66667 4.05556 4.73113 4.05556 7.27778H5.72222C5.72222 5.65161 7.04049 4.33333 8.66667 4.33333V2.66667ZM3.83333 20.5V18.6111H2.16667V20.5H3.83333ZM3.83333 18.6111C3.83333 16.9849 5.15161 15.6667 6.77778 15.6667V14C4.23113 14 2.16667 16.0645 2.16667 18.6111H3.83333ZM6.77778 15.6667H10.5556V14H6.77778V15.6667ZM10.5556 15.6667C12.1817 15.6667 13.5 16.9849 13.5 18.6111H15.1667C15.1667 16.0645 13.1022 14 10.5556 14V15.6667ZM13.5 18.6111V20.5H15.1667V18.6111H13.5ZM15.0706 4.43009C16.3735 4.76368 17.2848 5.93764 17.2848 7.28253H18.9514C18.9514 5.17639 17.5244 3.33792 15.484 2.81551L15.0706 4.43009ZM17.2848 7.28253C17.2848 8.62741 16.3735 9.80137 15.0706 10.135L15.484 11.7495C17.5244 11.2271 18.9514 9.38866 18.9514 7.28253H17.2848ZM20.8337 20.5V18.6111H19.167V20.5H20.8337ZM20.8336 18.6063C20.8216 16.5135 19.4017 14.6913 17.3753 14.1681L16.9587 15.7819C18.2526 16.1159 19.1593 17.2795 19.167 18.6159L20.8336 18.6063Z"
        fill="currentColor" />
</svg>