<svg width="24" height="24" viewBox="0 0 24 24" fill="none" xmlns="http://www.w3.org/2000/svg">
    <g clip-path="url(#clip0_1061_7112)">
        <path
            d="M9.19037 11.5433C8.80342 12.4774 9.01731 13.5527 9.73229 14.2677C10.4473 14.9827 11.5226 15.1966 12.4567 14.8096C13.3909 14.4227 14 13.5111 14 12.5C14.001 11.8366 13.7379 11.2002 13.2689 10.7311C12.7998 10.2621 12.1634 9.99902 11.5 10C10.4889 10 9.57732 10.6091 9.19037 11.5433Z"
            fill="currentColor" />
        <path
            d="M17.5335 17.5462C17.434 17.7036 17.2354 17.7723 17.0563 17.7112L15.1323 16.9613C14.7363 17.26 14.3015 17.5066 13.8393 17.6945L13.5485 19.676C13.5141 19.8578 13.3518 19.99 13.162 19.991H10.0835C9.89205 19.9939 9.72773 19.8587 9.69869 19.6743L9.40794 17.6962C8.93725 17.5139 8.49601 17.2664 8.09786 16.9613L6.18918 17.7112C6.00971 17.7777 5.80727 17.707 5.71201 17.5445L4.17275 14.9515C4.0842 14.7902 4.12261 14.5906 4.26511 14.4716L5.89672 13.2267C5.8352 12.7386 5.8352 12.245 5.89672 11.7569L4.26511 10.512C4.11563 10.397 4.07621 10.1921 4.17275 10.0321L5.71201 7.43737C5.81114 7.27852 6.0109 7.209 6.19089 7.27073L8.09786 8.02064C8.5014 7.72477 8.94084 7.47849 9.40623 7.28739L9.69869 5.30762C9.73234 5.12576 9.89387 4.99286 10.0835 4.99094H13.162C13.3502 4.9889 13.5096 5.12553 13.5314 5.30762L13.8239 7.28739C14.2939 7.4693 14.7346 7.71626 15.1323 8.02064L17.041 7.27073C17.2209 7.20328 17.4244 7.2741 17.5198 7.43737L19.0591 10.0321C19.1472 10.1937 19.1081 10.3934 18.965 10.512L17.3334 11.7569C17.3773 11.9989 17.3979 12.2444 17.395 12.4901C17.3905 12.7367 17.3699 12.9827 17.3334 13.2267L18.9804 14.4716C19.1229 14.5906 19.1613 14.7902 19.0728 14.9515L17.5335 17.5462Z"
            stroke="currentColor" stroke-width="1.5" />
    </g>
    <defs>
        <clipPath id="clip0_1061_7112">
            <rect width="24" height="24" fill="currentColor" />
        </clipPath>
    </defs>
</svg>