<svg width="24" height="24" viewBox="0 0 24 24" fill="none" xmlns="http://www.w3.org/2000/svg">
    <path
        d="M1.33833 4.84627C0.990907 4.65941 0.557784 4.78958 0.370926 5.13701C0.184069 5.48443 0.314237 5.91756 0.661665 6.10442L1.33833 4.84627ZM4.75516 7.49498L4.41682 8.12405C4.5574 8.19966 4.71925 8.226 4.87655 8.19888L4.75516 7.49498ZM8.10981 6.91647L8.2312 7.62037L8.23161 7.6203L8.10981 6.91647ZM19.7856 16.6641C20.1072 16.4356 20.1826 15.9897 19.9541 15.6681C19.7257 15.3465 19.2797 15.271 18.9582 15.4995L19.7856 16.6641ZM14.0626 19.8541L14.4763 20.4364L14.4763 20.4364L14.0626 19.8541ZM10.1517 19.8917L10.5541 19.3016L10.554 19.3015L10.1517 19.8917ZM1.40233 13.0629C1.07638 12.8407 0.632004 12.9248 0.409803 13.2508C0.187601 13.5767 0.271711 14.0211 0.597668 14.2433L1.40233 13.0629ZM0.661665 6.10442L4.41682 8.12405L5.09349 6.86591L1.33833 4.84627L0.661665 6.10442ZM4.87655 8.19888L8.2312 7.62037L7.98843 6.21258L4.63377 6.79109L4.87655 8.19888ZM8.23161 7.6203C9.15099 7.46121 10.0932 7.72434 10.7971 8.33679L11.7348 7.25906C10.7068 6.36459 9.33075 5.9803 7.98802 6.21265L8.23161 7.6203ZM18.9582 15.4995L13.6489 19.2718L14.4763 20.4364L19.7856 16.6641L18.9582 15.4995ZM13.6489 19.2718C12.7251 19.9281 11.4904 19.94 10.5541 19.3016L9.74931 20.4819C11.1794 21.457 13.0653 21.4388 14.4763 20.4364L13.6489 19.2718ZM10.554 19.3015L1.40233 13.0629L0.597668 14.2433L9.74937 20.4819L10.554 19.3015Z"
        fill="currentColor" />
    <path
        d="M22.9997 13.6137L19.2428 16.1811L13.4132 11.4743L11.2686 13.0335C10.3962 13.6669 9.17892 13.496 8.51474 12.6467V12.6467C7.85332 11.7983 7.9811 10.5788 8.80399 9.88597L11.0376 8.00839C12.1074 7.10787 13.4981 6.68261 14.8886 6.83084L18.3682 7.20396L22.9997 4.69995"
        stroke="currentColor" stroke-width="1.42857" stroke-linecap="round" stroke-linejoin="round" />
    <path d="M13.4141 11.4863C14.8175 12.7357 16.8064 12.0973 17.5458 11.0772" stroke="currentColor"
        stroke-width="1.42857" stroke-linecap="round" stroke-linejoin="round" />
</svg>