<svg width="18" height="19" viewBox="0 0 18 19" fill="none" xmlns="http://www.w3.org/2000/svg">
<path d="M0.384672 18.1573C0.283157 18.1573 0.184401 18.117 0.111161 18.0426C0.0146113 17.9445 -0.0226292 17.8021 0.0136459 17.669L1.18893 13.3585C0.457222 12.0296 0.0714377 10.5263 0.0719893 9.00025C0.0740583 4.03744 4.09521 0 9.03606 0C11.4326 0.000969707 13.6844 0.938536 15.3769 2.63968C17.0691 4.34096 18.0007 6.60245 18 9.00746C17.9978 13.9704 13.9766 18.0081 9.03606 18.0081C9.03606 18.0081 9.03234 18.0081 9.0322 18.0081C7.58906 18.0076 6.15834 17.6543 4.88443 16.9852L0.482187 18.1447C0.449912 18.1532 0.417085 18.1573 0.384672 18.1573Z" fill="#E5E5E5"/>
<path fill-rule="evenodd" clip-rule="evenodd" d="M1.60184 13.3075L0.384766 17.7713L4.9328 16.5735C6.18588 17.2599 7.5966 17.6216 9.03243 17.6221H9.03616C13.7643 17.6221 17.6133 13.7573 17.6154 9.00768C17.6162 6.70574 16.7245 4.54135 15.1048 2.91308C13.485 1.2848 11.331 0.387688 9.03616 0.386719C4.30716 0.386719 0.458695 4.251 0.456764 9.00075C0.456212 10.519 0.8511 12.001 1.60184 13.3075ZM5.40396 15.169L5.14342 15.014L2.44458 15.7247L3.16512 13.0827L2.99547 12.8117C2.28155 11.6716 1.90473 10.3542 1.90528 9.00131C1.9068 5.0535 5.10549 1.84169 9.03878 1.84169C10.9436 1.84252 12.7337 2.58823 14.0802 3.94152C15.4265 5.29481 16.1674 7.0939 16.1668 9.00712C16.1651 12.9551 12.9663 16.1673 9.03616 16.1673H9.0334C7.75357 16.1666 6.49856 15.8215 5.40396 15.169Z" fill="white"/>
<path d="M0.683105 17.4703L1.85811 13.1608C1.13316 11.8997 0.752069 10.4688 0.752483 9.00328C0.754276 4.41796 4.46964 0.6875 9.03464 0.6875C11.2503 0.68847 13.3299 1.55456 14.8933 3.12645C16.4571 4.69834 17.3178 6.78778 17.3169 9.00979C17.315 13.5953 13.5995 17.3261 9.03506 17.3261C9.03464 17.3261 9.03519 17.3261 9.03506 17.3261H9.03133C7.64529 17.3256 6.28326 16.9762 5.07363 16.314L0.683105 17.4703Z" fill="#64B161"/>
<path fill-rule="evenodd" clip-rule="evenodd" d="M1.60184 13.3075L0.384766 17.7713L4.9328 16.5735C6.18588 17.2599 7.5966 17.6216 9.03243 17.6221H9.03616C13.7643 17.6221 17.6133 13.7573 17.6154 9.00768C17.6162 6.70574 16.7245 4.54135 15.1048 2.91308C13.485 1.2848 11.331 0.387688 9.03616 0.386719C4.30716 0.386719 0.458695 4.251 0.456764 9.00075C0.456212 10.519 0.8511 12.001 1.60184 13.3075ZM5.40396 15.169L5.14342 15.014L2.44458 15.7247L3.16512 13.0827L2.99547 12.8117C2.28155 11.6716 1.90473 10.3542 1.90528 9.00131C1.9068 5.0535 5.10549 1.84169 9.03878 1.84169C10.9436 1.84252 12.7337 2.58823 14.0802 3.94152C15.4265 5.29481 16.1674 7.0939 16.1668 9.00712C16.1651 12.9551 12.9663 16.1673 9.03616 16.1673H9.0334C7.75357 16.1666 6.49856 15.8215 5.40396 15.169Z" fill="white"/>
<path d="M6.89202 5.40052C6.73147 5.042 6.56237 5.0348 6.40955 5.02857C6.28458 5.02316 6.14155 5.02344 5.9988 5.02344C5.8559 5.02344 5.62363 5.07747 5.42722 5.29288C5.23068 5.50829 4.67676 6.02916 4.67676 7.0885C4.67676 8.14797 5.44502 9.17156 5.55219 9.31536C5.65936 9.45901 7.03519 11.7024 9.21404 12.5654C11.0249 13.2827 11.3933 13.14 11.7864 13.1041C12.1795 13.0683 13.0546 12.5833 13.2333 12.0805C13.412 11.5778 13.412 11.147 13.3584 11.0568C13.3047 10.9672 13.1618 10.9133 12.9475 10.8057C12.7331 10.698 11.6792 10.177 11.4827 10.1053C11.2861 10.0334 11.1432 9.99761 11.0003 10.2132C10.8573 10.4284 10.4468 10.9133 10.3217 11.0568C10.1966 11.2007 10.0715 11.2187 9.85719 11.111C9.64285 11.0031 8.95239 10.7759 8.13337 10.0424C7.49614 9.47176 7.06581 8.76692 6.94071 8.55137C6.81574 8.33609 6.93864 8.2297 7.03491 8.11209C7.20829 7.90028 7.49918 7.51946 7.57062 7.37595C7.64207 7.23215 7.60635 7.10651 7.55283 6.99873C7.49918 6.89109 7.0825 5.82636 6.89202 5.40052Z" fill="white"/>
</svg>
