<?xml version="1.0" encoding="UTF-8"?>
<svg width="92px" height="92px" viewBox="0 0 92 92" version="1.1" xmlns="http://www.w3.org/2000/svg" xmlns:xlink="http://www.w3.org/1999/xlink">
    <title>act tienda</title>
    <g id="V4.1" stroke="none" stroke-width="1" fill="none" fill-rule="evenodd">
        <g id="modal-categoria-a" transform="translate(-594, -155)">
            <g id="Group-11" transform="translate(403, 156)">
                <g id="act-tienda" transform="translate(192, 0)">
                    <path d="M41.7547252,65.1294317 C31.1235225,64.2845679 21.4427915,59.9722423 13.8390173,52.685292 C5.44318334,44.6414846 0.638020507,33.9222752 0.039575318,21.9181688 C-0.154039302,18.186687 0.37400057,13.2055109 1.37727633,9.24521188 C2.25734278,5.83055404 4.01747569,1.20140449 4.75673151,0.391743351 C5.2319674,-0.118695192 6.14723651,-0.136296521 6.65767505,0.374142022 C7.18571492,0.902181894 7.04490429,1.5710324 5.88321657,4.40484638 C3.63024645,9.84365706 2.60936936,15.4936837 2.82058531,21.5661422 C3.4190305,39.3258833 14.9302997,54.7622489 31.739569,60.3594715 C36.4039212,61.9083885 40.2938149,62.524435 45.274991,62.524435 C54.4100808,62.5068337 62.9291241,59.637817 70.356885,54.0933984 C72.4690445,52.5268801 75.602081,49.5522555 77.2214033,47.5985079 L78.3126857,46.2784083 L73.0498883,46.4016176 C67.364659,46.5424282 67.1534431,46.5072255 66.8190178,45.6447604 C66.6078019,45.0815179 66.8894231,44.2542554 67.364659,44.0078368 C67.7342869,43.8142222 80.9176824,43.3917903 81.5689316,43.5678036 C82.3609914,43.7614182 82.448998,44.3774647 82.5722074,50.168302 C82.765822,59.0921758 82.7834233,58.458528 82.3257887,58.8281559 C81.7449449,59.3033918 80.7768718,59.1801825 80.3720412,58.6169399 C80.09042,58.2297107 80.037616,57.6136642 79.932008,53.5653585 L79.8087987,48.9362089 L77.6966392,51.1539764 C72.2754298,56.8216044 66.079762,60.7290994 58.8104131,63.0700762 C53.6004197,64.7598038 46.9471173,65.5518636 41.7547252,65.1294317 Z" id="Path" stroke="#FFFFFF" stroke-width="0.5" fill="#4A4A4A" fill-rule="nonzero" transform="translate(41.3505, 32.6207) scale(-1, 1) rotate(-180) translate(-41.3505, -32.6207)"></path>
                    <path d="M42.4587784,72.3016707 C40.9802667,72.1784614 37.8824328,71.5096109 36.3335159,70.9991723 C34.0629444,70.2423152 31.1411238,68.7638035 29.1697749,67.3556972 C27.0224128,65.8419829 24.1357948,62.9553649 22.6220805,60.8080028 C17.5528977,53.6618632 16.2151967,44.4563681 19.0490107,36.1309394 C21.3195822,29.4424344 26.3711636,23.6339958 32.6372368,20.5009592 C41.7723266,15.9246136 52.5267386,16.7166735 60.8521673,22.577916 C62.9995294,24.0916303 65.8861474,26.9782483 67.3998617,29.1256105 C69.6176292,32.2762484 71.1841474,35.9901288 71.9762072,39.8976238 C72.5394498,42.7314378 72.5394498,47.2021754 71.9762072,50.0359894 C70.8497222,55.633212 68.3503335,60.3503682 64.3724331,64.3282686 C58.5639945,70.1367072 50.6081938,73.0233252 42.4587784,72.3016707 Z M49.0768781,69.3270461 C52.6147453,68.7462022 56.3286257,67.1972852 59.3560543,65.0499231 C61.1513899,63.7826274 63.8267919,61.1072254 65.1292902,59.2766872 C67.2062471,56.3724679 68.7727654,52.5705808 69.3712105,49.0327136 C69.7408385,46.8677502 69.7408385,43.0658631 69.3712105,40.9008996 C68.7727654,37.3630325 67.2062471,33.5611454 65.1292902,30.6569261 C63.8267919,28.8263879 61.1513899,26.1509858 59.3208516,24.8484875 C56.4166323,22.7715307 52.6147453,21.2050124 49.0768781,20.6065672 C46.9119146,20.2369393 43.1100276,20.2369393 40.9450641,20.6065672 C37.4071969,21.2050124 33.6053099,22.7715307 30.7010906,24.8484875 C28.8705523,26.1509858 26.1951503,28.8263879 24.892652,30.6569261 C22.8156951,33.5611454 21.2491769,37.3630325 20.6507317,40.9008996 C20.2811038,43.0658631 20.2811038,46.8677502 20.6507317,49.0327136 C21.2491769,52.5705808 22.8156951,56.3724679 24.892652,59.2766872 C26.1951503,61.1072254 28.8705523,63.7826274 30.7010906,65.0851258 C33.5525059,67.1092786 37.3719943,68.7109995 40.7866521,69.3094447 C42.8284063,69.6790726 46.98232,69.6790726 49.0768781,69.3270461 Z" id="Shape" stroke="#E5F2F5" stroke-width="1.5" fill="#4A4A4A" fill-rule="nonzero" transform="translate(44.9931, 44.9811) scale(-1, 1) rotate(-180) translate(-44.9931, -44.9811)"></path>
                    <path d="M42.664772,70.0809714 C41.3064382,69.9677769 38.4604053,69.3532925 37.0373888,68.8843439 C34.9513761,68.1890063 32.2670496,66.8306725 30.4559377,65.5370212 C28.4831195,64.146346 25.8311343,61.4943608 24.4404591,59.5215425 C19.7833144,52.9562621 18.5543456,44.4990166 21.1578189,36.8503032 C23.2438317,30.7054595 27.8848058,25.3691478 33.6415541,22.4907736 C42.034117,18.2864068 51.9143789,19.0140857 59.5630923,24.3989093 C61.5359106,25.7895845 64.1878958,28.4415697 65.578571,30.4143879 C67.6160718,33.3089327 69.0552589,36.7209381 69.7829377,40.3108205 C70.3003983,42.9142938 70.3003983,47.0216367 69.7829377,49.62511 C68.7480167,54.7673739 66.4517856,59.1011059 62.7972206,62.7556708 C57.460909,68.0919825 50.151779,70.7439677 42.664772,70.0809714 Z" id="Path" fill="#E5F2F5"></path>
                    <path d="M29.5746055,61.8266911 C29.3809909,61.6858804 29.1521736,61.3690565 29.0993696,61.1226379 C28.905755,60.3305781 29.3809909,59.7673356 31.1763265,58.7464585 C32.1091969,58.2184186 32.9012567,57.6551761 32.9540607,57.5143654 C32.9892633,57.3735548 34.0981471,53.2724451 35.4182468,48.396877 C37.6360142,40.1418536 37.7768249,39.5258071 37.5480076,39.0681726 C37.143177,38.2761128 37.037569,37.0968237 37.3367916,36.1639533 C37.7768249,34.7206443 38.3928714,34.1045978 40.2234096,33.2949366 C40.2410109,33.2949366 40.135403,32.995714 39.9945923,32.6436875 C39.2553365,30.8483519 40.2410109,28.7361924 42.1243531,28.1201459 C44.1661073,27.433694 46.3838748,28.877003 46.5598881,30.9715612 C46.6126921,31.605209 46.5422867,32.1508502 46.3486721,32.5908835 C46.1902602,32.9605114 46.0670508,33.2949366 46.0670508,33.3301393 C46.0670508,33.3653419 47.1759346,33.4005446 48.5136356,33.4005446 L50.9778217,33.4005446 L50.7138017,32.7844981 C50.5905924,32.4500728 50.4673831,31.7812223 50.4673831,31.2883851 C50.4673831,29.3346376 51.8578881,27.9441326 53.8116356,27.9441326 C56.4342337,27.9441326 58.0711573,30.5843319 56.8742669,32.9077074 C56.6278483,33.3653419 56.6454496,33.4005446 56.9798749,33.4005446 C57.1910908,33.4005446 57.5431174,33.5941592 57.7719347,33.8405778 C58.3175759,34.3686177 58.3527785,35.1958802 57.8599413,35.6887174 C57.5255161,36.0231426 57.2790975,36.040744 49.0592768,36.040744 C40.8394561,36.040744 40.5930375,36.0583453 40.2586123,36.3927705 C39.871383,36.7799998 39.7833764,37.7656742 40.135403,37.8888835 C40.2410109,37.9416875 44.3245193,38.4873287 49.1648848,39.1033752 C54.0228516,39.7194217 58.1591639,40.3178669 58.3527785,40.4234749 C58.5463932,40.5290829 58.7576091,40.7579002 58.8280144,40.9515148 C58.8808184,41.1275281 59.391257,44.0317474 59.9721008,47.4112025 C61.0985859,54.0645049 61.0985859,54.1877142 60.1481141,54.6277475 C59.9016955,54.7509568 54.9909247,55.138186 48.7072502,55.5606179 C42.652393,55.9654485 37.3367916,56.3350764 36.8967584,56.3878804 L36.0694959,56.4934883 L35.7878747,57.5671694 C35.2422335,59.5561196 35.2774361,59.5209169 33.024466,60.858618 C30.8595025,62.1259137 30.243456,62.3019269 29.5746055,61.8266911 Z M48.267217,52.8500132 C53.4068051,52.4979866 57.683928,52.1987641 57.789536,52.1635614 C57.9303466,52.1107574 57.736732,50.6498471 57.2262935,47.5344118 C56.8038616,45.0350231 56.451835,42.940465 56.451835,42.887661 C56.451835,42.8172557 56.1174098,42.729249 55.7125792,42.6940464 C55.2901473,42.6412424 51.6818748,42.1836078 47.6863731,41.6731693 C43.6908714,41.1627307 40.3994229,40.7755015 40.3466189,40.8107041 C40.2586123,40.9163121 36.9143597,53.2548438 36.9143597,53.5012624 C36.9143597,53.6068704 37.2839876,53.642073 37.9352368,53.5716677 C38.480878,53.5188637 43.1452302,53.1844385 48.267217,52.8500132 Z M43.7964794,31.6228104 C43.9548914,31.3059864 43.9196887,31.1827771 43.6204661,30.8659532 C43.3212435,30.5843319 43.1804329,30.5491293 42.9340143,30.6899399 C42.599589,30.9011559 42.4587784,31.3411891 42.6171904,31.7460197 C42.758001,32.1332489 43.5676621,32.0452423 43.7964794,31.6228104 Z M54.4804861,31.4467971 C54.5860941,30.5843319 53.4596091,30.3027107 53.1955891,31.1299731 C53.0371772,31.605209 53.4244064,32.0276409 53.9700476,31.9572356 C54.3220742,31.922033 54.4452835,31.7988237 54.4804861,31.4467971 Z" id="Shape" stroke="#E5F2F5" fill="#4A4A4A" fill-rule="nonzero" transform="translate(44.9497, 45.0064) scale(-1, 1) rotate(-180) translate(-44.9497, -45.0064)"></path>
                    <path d="M83.3642672,89.6058053 C82.8362273,89.0777654 82.9770379,88.4089149 84.1387256,85.5751009 C86.3916958,80.1538915 87.4125728,74.4510609 87.2013569,68.5018117 C86.9549383,62.0773266 85.5820346,56.6033132 82.7482206,50.918084 C77.6966392,40.7445157 69.0543866,33.2111469 58.2823732,29.6204758 C53.7412303,28.1067615 49.9041406,27.490715 44.9757684,27.490715 C38.1288514,27.490715 32.0035889,28.9516253 25.9487317,32.0142565 C20.9323529,34.5664492 16.1447914,38.3331337 12.7653362,42.416642 L11.7092565,43.701539 L17.2008712,43.648735 L22.7100872,43.5959311 L23.0445124,44.0535656 C23.4845456,44.6344095 23.343735,45.5144759 22.7628912,45.8841038 C22.2524526,46.2185291 8.82263853,46.640961 8.259396,46.3417384 C8.04818005,46.2361304 7.80176144,45.8489012 7.71375479,45.4792733 C7.4145322,44.4055922 7.20331625,32.2782765 7.44973486,31.5918246 C7.69615347,30.9757781 8.27699733,30.7117582 9.01625315,30.9053728 C9.8963196,31.1341901 9.94912359,31.451014 10.0899342,36.3969875 L10.2131435,41.0085357 L12.8709442,38.3155323 C14.3318545,36.854622 16.1271901,35.1648944 16.8488446,34.6016519 C20.4219144,31.7854392 25.2974825,29.0220306 29.2401803,27.5787216 C42.1067518,22.8439641 56.2230177,24.0936584 67.9103002,31.0109808 C87.2893635,42.4870473 95.227563,66.6184695 86.4268984,87.3352338 C85.9868652,88.3561109 85.4764266,89.3593867 85.2652107,89.5882039 C84.7899748,90.0986425 83.8747057,90.1162438 83.3642672,89.6058053 Z" id="Path" stroke="#FFFFFF" stroke-width="0.5" fill="#4A4A4A" fill-rule="nonzero" transform="translate(48.6707, 57.3646) scale(-1, 1) rotate(-180) translate(-48.6707, -57.3646)"></path>
                </g>
            </g>
        </g>
    </g>
</svg>