<svg width="19" height="18" viewBox="0 0 19 18" fill="none" xmlns="http://www.w3.org/2000/svg">
<g id="Icon">
<path id="Shape" fill-rule="evenodd" clip-rule="evenodd" d="M5.30389 3.12047C5.38068 3.19413 5.42516 3.29647 5.42769 3.40091L5.42824 3.49966C5.44408 4.073 5.59597 4.64708 5.95871 4.9945C6.17765 5.20423 6.45653 5.30587 6.82192 5.30587C7.05824 5.30587 7.25023 5.48709 7.25023 5.7117C7.25023 5.93631 7.05824 6.11753 6.82192 6.11753C6.45218 6.11753 6.17092 6.2215 5.95093 6.43622C5.6113 6.76774 5.46152 7.2905 5.43329 7.79763L5.42842 7.9985C5.4348 8.17084 5.33149 8.32439 5.16914 8.39035C5.11559 8.41212 5.05841 8.42309 5.00054 8.42309C4.76662 8.42072 4.58014 8.24833 4.5726 8.03113L4.57197 7.93759C4.55943 7.36418 4.40897 6.78094 4.04152 6.4289C3.82258 6.21917 3.5437 6.11753 3.17831 6.11753C2.94199 6.11753 2.75 5.93631 2.75 5.7117C2.75 5.48709 2.94199 5.30587 3.17831 5.30587C3.54797 5.30587 3.82898 5.20195 4.04902 4.98718C4.38819 4.65609 4.53774 4.13516 4.56647 3.62701L4.57147 3.41998L4.57533 3.34921C4.59586 3.21025 4.69159 3.08935 4.83065 3.03285C4.99167 2.96715 5.18029 3.00184 5.30389 3.12047ZM12.1451 4.23735C12.1492 4.11867 12.0998 3.99965 12.0097 3.91193C11.8277 3.73484 11.5092 3.73484 11.3273 3.91193C11.2373 3.99953 11.1889 4.11853 11.1931 4.24102L11.1939 4.30259L11.1873 4.61468C11.155 5.36457 11.0016 6.19392 10.6615 6.94079C10.0919 8.19172 9.11375 8.91253 7.6102 8.91253C7.34811 8.91253 7.13501 9.11368 7.13501 9.36312C7.13501 9.61256 7.34811 9.81371 7.6102 9.81371C9.11375 9.81371 10.0919 10.5345 10.6615 11.7855C11.0441 12.6257 11.1904 13.5703 11.1939 14.3895L11.193 14.4889C11.1889 14.6077 11.2373 14.7267 11.3273 14.8143C11.4168 14.9015 11.5398 14.9507 11.6702 14.9507C11.7982 14.9507 11.9212 14.9015 12.0108 14.8143C12.1008 14.7267 12.1492 14.6077 12.145 14.4852L12.1442 14.4237L12.1508 14.1115C12.1831 13.3615 12.3364 12.5323 12.6764 11.7854C13.246 10.5345 14.2241 9.81371 15.7276 9.81371C15.9897 9.81371 16.2028 9.61256 16.2028 9.36312C16.2028 9.11368 15.9897 8.91253 15.7276 8.91253C14.2241 8.91253 13.246 8.19173 12.6764 6.94079C12.2939 6.10058 12.1477 5.15613 12.1442 4.33678L12.1451 4.23735ZM11.6215 7.10942L11.6687 6.98474L11.7165 7.10949C12.12 8.11027 12.7505 8.88845 13.6519 9.35095L13.6769 9.36324L13.6519 9.37526C12.7505 9.83776 12.12 10.6159 11.7165 11.6167L11.6687 11.7408L11.6215 11.6168C11.218 10.6161 10.5874 9.8378 9.6859 9.37527L9.65967 9.36324L9.6859 9.35094C10.5874 8.8884 11.218 8.11013 11.6215 7.10942ZM4.96537 5.18037L5 5.12159L5.03117 5.17436C5.11952 5.31325 5.22091 5.43983 5.33627 5.55256L5.44722 5.65286L5.52313 5.71152L5.44704 5.77076C5.40896 5.80267 5.37201 5.83614 5.33621 5.87117L5.22539 5.98842C5.15456 6.06964 5.08978 6.15685 5.03084 6.24956L5 6.30144L4.96946 6.24975C4.88109 6.11066 4.77948 5.98382 4.66389 5.87104L4.55272 5.77047L4.47688 5.71152L4.54313 5.66091C4.57983 5.63056 4.61556 5.59874 4.65032 5.56545C4.76975 5.45096 4.87448 5.32202 4.96537 5.18037Z" fill="white"/>
</g>
</svg>
