<svg width="18" height="19" viewBox="0 0 18 19" fill="none" xmlns="http://www.w3.org/2000/svg">
<g id="Group">
<path id="Vector" d="M8.73265 1.01167C8.4496 1.2161 7.99881 1.5437 7.24663 2.09408C6.98717 2.28278 6.63335 2.53962 6.46038 2.66542C6.05153 2.96158 5.41728 3.42285 5.26789 3.53292C5.1552 3.61417 4.95339 3.76094 4.26411 4.2589C4.10424 4.37683 3.91292 4.51836 3.83953 4.57078C3.76877 4.62581 3.46738 4.84335 3.17122 5.05563C2.87506 5.27054 2.5527 5.50642 2.45049 5.5798C2.3509 5.65581 1.78741 6.06466 1.20035 6.49186C0.034071 7.33839 0 7.36198 0 7.38556C0 7.39343 0.474373 7.40129 1.05358 7.40129H2.10454L2.42166 7.17327C2.59726 7.04747 2.84624 6.86926 2.97466 6.77229C3.1057 6.67794 3.31537 6.52331 3.44379 6.42896C3.57221 6.33723 3.74256 6.21405 3.82381 6.15377C4.1619 5.90741 4.99008 5.30461 5.23644 5.1264C5.48018 4.94818 5.61122 4.85383 6.17208 4.44498C6.90854 3.9077 7.39078 3.55651 7.66597 3.35733C7.83894 3.23153 8.10365 3.04021 8.25565 2.92751C8.99735 2.38499 8.98949 2.39024 9.0655 2.43741C9.10219 2.461 9.53201 2.77288 10.0195 3.12669C11.5029 4.20386 12.2472 4.74637 12.5355 4.95866C12.6403 5.03467 12.7766 5.13426 12.8421 5.17881C12.9889 5.28103 13.8643 5.91789 14.1132 6.10397C14.2155 6.17998 14.5378 6.41585 14.834 6.62814C15.1301 6.84043 15.4551 7.0763 15.5547 7.15231C15.9373 7.43274 15.7617 7.40129 16.9569 7.40129C17.6042 7.40129 18.0052 7.3908 17.9999 7.3777C17.9973 7.36198 16.9831 6.62028 15.7513 5.72395C14.5195 4.82762 13.4344 4.03875 13.3401 3.9706C13.2457 3.90246 13.0099 3.72949 12.8159 3.58796C12.622 3.44644 12.3966 3.28132 12.3153 3.22366C12.1057 3.07165 11.8069 2.85413 11.191 2.40858C10.6799 2.03642 10.313 1.77172 10.0247 1.55681C9.77312 1.37073 9.13364 0.909459 9.0655 0.867526C8.99997 0.822971 8.99735 0.825593 8.73265 1.01167Z" fill="#4C4C4C"/>
<path id="Vector_2" d="M2.25921 15.2589C2.23562 15.2772 2.22776 15.4318 2.233 15.9482C2.23736 16.3172 2.53753 16.6142 2.9066 16.6146L9.0105 16.6217L15.0987 16.6264C15.4735 16.6267 15.7775 16.323 15.7775 15.9482C15.7775 15.3532 15.7723 15.2667 15.7356 15.2536C15.6727 15.23 2.29852 15.2353 2.25921 15.2589Z" fill="#4C4C4C"/>
<path id="Vector_3" d="M0.319695 18.1001C0.325875 18.5482 0.54777 18.7772 0.995887 18.7771C2.30703 18.7769 5.37319 18.7763 9.02876 18.7763H17.0092C17.3856 18.7763 17.6906 18.4712 17.6906 18.0949C17.6906 17.7186 17.3856 17.4135 17.0092 17.4135H9.00255H1.00114C0.622743 17.4135 0.316806 17.7217 0.319695 18.1001Z" fill="#4C4C4C"/>
<g id="Group 1999">
<path id="Vector_4" d="M5.75739 6.4845L5.75782 6.48407L8.20419 5.28945L8.18538 5.19123C8.18544 5.19122 8.18549 5.19121 8.18555 5.1912C8.41725 5.14686 8.77613 5.13179 9.12767 5.14067C9.47914 5.14954 9.83601 5.18267 10.0632 5.23946C10.9236 5.45101 11.6077 5.84155 12.2551 6.48902L12.2554 6.48928C12.9123 7.15097 13.2932 7.82078 13.5141 8.70438L13.5143 8.70533C13.5713 8.94301 13.5994 9.34551 13.6 9.73883C13.6006 10.1315 13.5738 10.5326 13.514 10.7668C13.3939 11.2423 13.1689 11.7738 12.9143 12.1871C12.7625 12.4367 12.514 12.7289 12.2435 12.9959C11.9726 13.2631 11.6739 13.5108 11.4184 13.669L11.4181 13.6692C10.062 14.5011 8.38331 14.5734 6.96903 13.8615C6.69423 13.7241 6.49908 13.6141 6.31244 13.4769C6.1261 13.3399 5.9512 13.1779 5.71488 12.9392L5.71482 12.9391C4.8926 12.1073 4.4736 11.1431 4.4064 9.9528L4.40637 9.95227C4.33902 8.63412 4.80658 7.44011 5.75739 6.4845ZM9.87654 6.1811L9.87546 6.1808C9.70413 6.13247 9.42003 6.10212 9.12415 6.09395C8.82925 6.0858 8.53527 6.10002 8.34542 6.1357C6.8378 6.43375 5.70232 7.5738 5.40895 9.08632C5.08429 10.7691 6.07777 12.5335 7.70336 13.1517C9.90136 13.9851 12.2876 12.5752 12.6312 10.2384C12.8325 8.84753 12.1918 7.44604 10.9914 6.66715L10.9914 6.66715L10.9904 6.66646C10.6483 6.4384 10.3388 6.3059 9.87654 6.1811Z" fill="#4C4C4C" stroke="#4C4C4C" stroke-width="0.2"/>
<path id="Vector_5" d="M8.82293 6.9105L8.82305 6.91061L8.81894 6.91451C8.77707 6.95439 8.76041 6.98 8.75001 7.01515C8.73756 7.05722 8.73236 7.119 8.73236 7.2373V7.52429V7.58798L8.67465 7.61491L8.46327 7.71355C8.46321 7.71358 8.46315 7.71361 8.46308 7.71364C8.2793 7.80031 8.11049 7.96175 7.98735 8.1589C7.86421 8.35602 7.79141 8.58139 7.79141 8.78987C7.79141 9.22374 8.08149 9.69573 8.45454 9.87593C8.55087 9.92195 8.77516 9.98552 8.94651 10.0081L8.94651 10.0081L8.94736 10.0082C9.08268 10.0272 9.18162 10.0473 9.26351 10.0813C9.349 10.1168 9.41022 10.165 9.47465 10.2294C9.53773 10.2925 9.58678 10.3493 9.61586 10.4236C9.64437 10.4965 9.64979 10.5764 9.64979 10.6765C9.64979 10.7787 9.64447 10.8594 9.61413 10.9337C9.58357 11.0085 9.53176 11.0665 9.46524 11.133C9.39872 11.1995 9.34072 11.2513 9.26592 11.2819C9.19168 11.3122 9.11093 11.3175 9.00874 11.3175C8.8359 11.3175 8.68644 11.2678 8.57094 11.161C8.4569 11.0556 8.38616 10.9039 8.35066 10.7188L8.35066 10.7188L8.35051 10.718C8.31936 10.5477 8.23584 10.4486 8.15366 10.4121C8.07702 10.3781 7.97824 10.388 7.88041 10.4878L7.88042 10.4878L7.8792 10.489C7.82491 10.5424 7.79389 10.625 7.79287 10.7355C7.79186 10.846 7.82136 10.9762 7.87861 11.11C7.99382 11.3792 8.2109 11.6392 8.46446 11.7628L8.46457 11.7628L8.67628 11.8663L8.73236 11.8938V11.9562V12.2338C8.73236 12.3521 8.73756 12.4138 8.75001 12.4559C8.76041 12.4911 8.77707 12.5167 8.81894 12.5565L8.81905 12.5564L8.82293 12.5606C8.87579 12.617 8.94869 12.6466 9.00874 12.6466C9.06879 12.6466 9.14169 12.617 9.19455 12.5606L9.19443 12.5605L9.19854 12.5565C9.24041 12.5167 9.25707 12.4911 9.26747 12.4559C9.27992 12.4138 9.28512 12.3521 9.28512 12.2338V11.9562V11.8938L9.3412 11.8663L9.55292 11.7628L9.55293 11.7628C9.93237 11.5774 10.2261 11.109 10.2261 10.6765C10.2261 10.2475 9.93615 9.77539 9.56291 9.59512C9.46656 9.5491 9.2423 9.48554 9.07097 9.463L9.07097 9.463L9.07012 9.46288C8.9348 9.44389 8.83586 9.42376 8.75397 9.38975C8.66848 9.35426 8.60726 9.3061 8.54283 9.24167C8.47975 9.17859 8.4307 9.12176 8.40162 9.04744C8.37311 8.97457 8.36769 8.89471 8.36769 8.79458C8.36769 8.69239 8.37301 8.61164 8.40335 8.5374C8.43391 8.4626 8.48572 8.4046 8.55224 8.33808C8.61876 8.27156 8.67676 8.21975 8.75156 8.18919C8.8258 8.15885 8.90655 8.15353 9.00874 8.15353C9.18158 8.15353 9.33104 8.20329 9.44654 8.31007C9.56058 8.41551 9.63132 8.56712 9.66682 8.75222L9.66682 8.75222L9.66698 8.75306C9.69812 8.92333 9.78164 9.02249 9.86383 9.05898C9.94046 9.09299 10.0392 9.08302 10.1371 8.98331L10.1371 8.9833L10.1383 8.9821C10.1926 8.92862 10.2236 8.84606 10.2246 8.73558C10.2256 8.62509 10.1961 8.49487 10.1389 8.3611C10.0237 8.09191 9.80658 7.83186 9.55302 7.70828L9.55292 7.70823L9.3412 7.60472L9.28512 7.5773V7.51488V7.2373C9.28512 7.119 9.27992 7.05722 9.26747 7.01515C9.25707 6.98 9.24041 6.95439 9.19854 6.91451L9.19843 6.91463L9.19455 6.9105C9.14169 6.85411 9.06879 6.82448 9.00874 6.82448C8.94869 6.82448 8.87579 6.85411 8.82293 6.9105Z" fill="#4C4C4C" stroke="#4C4C4C" stroke-width="0.2"/>
</g>
</g>
</svg>
