<?xml version="1.0" encoding="UTF-8"?>
<svg width="17px" height="16px" viewBox="0 0 17 16" version="1.1" xmlns="http://www.w3.org/2000/svg" xmlns:xlink="http://www.w3.org/1999/xlink">
    <title>169026E8-CDC3-4895-BE1A-D8471E84C9DD</title>
    <g id="Pantallas-mobile-concentrado" stroke="none" stroke-width="1" fill="none" fill-rule="evenodd">
        <g id="Dashboard" transform="translate(-981.000000, -153.000000)" fill="#4A4A4A" fill-rule="nonzero">
            <g id="Group-8" transform="translate(798.000000, 140.000000)">
                <g id="Group" transform="translate(183.000000, 13.000000)">
                    <path d="M14.9435484,16 L2.05645161,16 C0.923599321,16 0,15.2914502 0,14.3880491 L0,2.61195087 C0,1.72272083 0.923599321,1 2.05645161,1 L14.9435484,1 C16.0764007,1 17,1.70854983 17,2.61195087 L17,14.3880491 C17,15.2772792 16.0764007,16 14.9435484,16 Z M2.05645161,1.70854983 C1.33488964,1.70854983 0.721561969,2.11950874 0.721561969,2.61195087 L0.721561969,14.3880491 C0.721561969,14.8804913 1.33128183,15.2914502 2.05645161,15.2914502 L14.9435484,15.2914502 C15.6651104,15.2914502 16.278438,14.8804913 16.278438,14.3880491 L16.278438,2.61195087 C16.278438,2.11950874 15.6687182,1.70854983 14.9435484,1.70854983 L2.05645161,1.70854983 Z" id="Shape"></path>
                    <path d="M16.639219,6 L0.360780985,6 C0.161527149,6 0,5.77614237 0,5.5 C0,5.22385763 0.161527149,5 0.360780985,5 L16.639219,5 C16.8384729,5 17,5.22385763 17,5.5 C17,5.77614237 16.8384729,6 16.639219,6 Z" id="Path"></path>
                    <path d="M4.5,3 C4.22385763,3 4,2.82373415 4,2.60629921 L4,0.393700787 C4,0.176265847 4.22385763,0 4.5,0 C4.77614237,0 5,0.176265847 5,0.393700787 L5,2.60629921 C5,2.82373415 4.77614237,3 4.5,3 Z" id="Path"></path>
                    <path d="M12.5,3 C12.2238576,3 12,2.82373415 12,2.60629921 L12,0.393700787 C12,0.176265847 12.2238576,0 12.5,0 C12.7761424,0 13,0.176265847 13,0.393700787 L13,2.60629921 C13,2.82373415 12.7761424,3 12.5,3 Z" id="Path"></path>
                </g>
            </g>
        </g>
    </g>
</svg>