<svg width="32" height="26" viewBox="0 0 32 26" xmlns="http://www.w3.org/2000/svg">
    <g fill="#ADADAD" fillRule="nonzero">
        <path d="M30.935 4.03a3.397 3.397 0 0 0-2.524-1.093h-5.05v-.062c0-.781-.304-1.531-.821-2.031A2.747 2.747 0 0 0 20.563 0h-9.126c-.79 0-1.49.312-2.007.844a2.899 2.899 0 0 0-.822 2.03v.063H3.59a3.397 3.397 0 0 0-2.524 1.094A3.765 3.765 0 0 0 0 6.624v15.561c0 1.031.395 1.938 1.065 2.594.638.656 1.551 1.093 2.524 1.093h24.822a3.397 3.397 0 0 0 2.524-1.093A3.765 3.765 0 0 0 32 22.185V6.625c0-1.032-.395-1.938-1.065-2.594zm-.517 18.155h-.03c0 .563-.213 1.063-.578 1.438a1.927 1.927 0 0 1-1.4.593H3.59a1.927 1.927 0 0 1-1.4-.593 2.034 2.034 0 0 1-.578-1.438V6.625c0-.563.213-1.063.578-1.438a1.927 1.927 0 0 1 1.4-.594h5.87a.83.83 0 0 0 .821-.843v-.907c0-.343.122-.656.335-.874.213-.22.517-.344.852-.344h9.095c.334 0 .639.125.851.344.213.218.335.53.335.874v.907a.83.83 0 0 0 .821.843h5.871c.548 0 1.034.219 1.4.594.364.375.577.875.577 1.437v15.561z"/>
        <path d="M16 6.718a7.398 7.398 0 0 0-5.293 2.25 7.73 7.73 0 0 0-2.19 5.437c0 2.125.852 4.062 2.19 5.437 1.369 1.406 3.225 2.25 5.293 2.25a7.398 7.398 0 0 0 5.293-2.25 7.73 7.73 0 0 0 2.19-5.437 7.807 7.807 0 0 0-2.19-5.437A7.398 7.398 0 0 0 16 6.718zm4.137 11.968c-1.065 1.062-2.525 1.75-4.137 1.75-1.612 0-3.072-.688-4.137-1.75a6.057 6.057 0 0 1-1.703-4.25c0-1.656.669-3.156 1.703-4.25A5.738 5.738 0 0 1 16 8.436c1.612 0 3.072.688 4.137 1.75a6.057 6.057 0 0 1 1.703 4.25c.03 1.656-.638 3.156-1.703 4.25z"/>
        <ellipse cx="26.829" cy="8.218" rx="1.49" ry="1.531"/>
    </g>
</svg>
