<svg width="20" height="20" viewBox="0 0 20 20" fill="none" xmlns="http://www.w3.org/2000/svg">
<path fill-rule="evenodd" clip-rule="evenodd" d="M1.53906 9.99963C1.53906 5.32645 5.32742 1.53809 10.0006 1.53809C14.6738 1.53809 18.4621 5.32645 18.4621 9.99963C18.4621 14.6728 14.6738 18.4612 10.0006 18.4612C5.32742 18.4612 1.53906 14.6728 1.53906 9.99963Z" fill="#51AF70"/>
<path d="M9.1684 12.9364C9.08591 13.0165 8.97336 13.0613 8.85646 13.0613C8.73955 13.0613 8.627 13.0165 8.54452 12.9364L6.05328 10.5297C5.79474 10.28 5.79474 9.8751 6.05328 9.62585L6.36522 9.32447C6.62383 9.07475 7.04258 9.07475 7.30112 9.32447L8.85646 10.8268L13.0592 6.76737C13.3178 6.51765 13.737 6.51765 13.9951 6.76737L14.307 7.06874C14.5656 7.31846 14.5656 7.72332 14.307 7.97264L9.1684 12.9364Z" fill="white"/>
</svg>
