<svg width="14" height="14" viewBox="0 0 14 14" fill="none" xmlns="http://www.w3.org/2000/svg">
<path fill-rule="evenodd" clip-rule="evenodd" d="M0.182404 0.182648C0.337067 0.0279846 0.587825 0.0279846 0.742488 0.182648L13.2837 12.7239C13.4384 12.8786 13.4384 13.1293 13.2837 13.284C13.1291 13.4386 12.8783 13.4386 12.7237 13.284L0.182404 0.742732C0.0277405 0.588069 0.0277405 0.337311 0.182404 0.182648Z" fill="#4C4C4C"/>
<path fill-rule="evenodd" clip-rule="evenodd" d="M12.7838 0.117157C12.94 -0.0390524 13.1933 -0.0390524 13.3495 0.117157C13.5057 0.273367 13.5057 0.526633 13.3495 0.682843L0.682843 13.3495C0.526633 13.5057 0.273367 13.5057 0.117157 13.3495C-0.0390524 13.1933 -0.0390524 12.94 0.117157 12.7838L12.7838 0.117157Z" fill="#4C4C4C"/>
</svg>
