<svg width="10" height="10" viewBox="0 0 10 10" fill="none" xmlns="http://www.w3.org/2000/svg">
<path d="M9.13778 0.345397L5.00018 4.483L0.862595 0.345415C0.719771 0.202585 0.488224 0.202585 0.345398 0.345415C0.202574 0.488226 0.202576 0.719778 0.3454 0.862608L4.48298 5.00019L0.345411 9.13775C0.202593 9.28058 0.202587 9.51213 0.345409 9.65496C0.488235 9.79777 0.719789 9.79777 0.862608 9.65496L5.00018 5.51738L9.13776 9.65496C9.28059 9.79779 9.51214 9.79779 9.65496 9.65496C9.79779 9.51215 9.79778 9.2806 9.65496 9.13777L5.51738 5.00019L9.65497 0.86259C9.79779 0.719778 9.7978 0.488226 9.65497 0.345397C9.51215 0.202567 9.2806 0.202585 9.13778 0.345397Z" fill="#4C4C4C"/>
<path d="M0.176853 0.176872C0.412661 -0.0589425 0.794965 -0.0589425 1.03077 0.17687L5 4.14642L8.96924 0.176847C9.17884 -0.0327465 9.5042 -0.0560421 9.73952 0.106986L9.82315 0.176855C10.059 0.412666 10.0589 0.794972 9.82315 1.03076L5.85357 5L9.82314 8.96922C10.0327 9.17884 10.056 9.5042 9.89301 9.73951L9.82314 9.82313C9.58733 10.0589 9.20503 10.0589 8.96922 9.82313L5 5.85357L1.03078 9.82314C0.821178 10.0327 0.495827 10.056 0.260491 9.89299L0.176862 9.82313C-0.0589358 9.58732 -0.058932 9.20502 0.176868 8.9692L4.14643 5L0.176853 1.03078C-0.0327497 0.821166 -0.0560404 0.495805 0.106985 0.260492L0.176853 0.176872ZM9.48643 0.513567C9.43659 0.463729 9.35579 0.463731 9.30595 0.513573L5.16835 4.65117L5 4.81953L0.694048 0.513584C0.644207 0.46374 0.563418 0.46374 0.513564 0.513595C0.463731 0.563424 0.463732 0.644219 0.513574 0.694063L4.65115 4.83164L4.81951 5L0.513591 9.30591C0.463744 9.35577 0.463743 9.43657 0.513574 9.48641C0.56342 9.53625 0.64423 9.53625 0.694064 9.48641L4.83164 5.34883L5 5.18048L9.30594 9.48642C9.35578 9.53626 9.43657 9.53626 9.48643 9.48641C9.53626 9.43658 9.53626 9.35578 9.48642 9.30594L5.18047 5L5.34883 4.83164L9.48643 0.69404C9.53627 0.644208 9.53627 0.56341 9.48643 0.513567Z" fill="#4C4C4C"/>
</svg>
