<svg width="25" height="25" viewBox="0 0 25 25" fill="none" xmlns="http://www.w3.org/2000/svg">
<g id="icon-info/comment-money">
<path id="Shape" fill-rule="evenodd" clip-rule="evenodd" d="M12.4997 2.86523C7.17819 2.86523 2.86427 7.17916 2.86427 12.5007C2.86427 14.0434 3.22677 15.4996 3.86947 16.7902C4.12781 17.309 4.22677 17.9277 4.06427 18.5371L3.44343 20.8548C3.39038 21.0524 3.44676 21.2634 3.59135 21.4082C3.73593 21.553 3.94677 21.6097 4.14447 21.5569L6.46427 20.9361C7.0505 20.786 7.67135 20.8553 8.2101 21.1309C9.54259 21.7942 11.0112 22.1384 12.4997 22.1361C17.8212 22.1361 22.1351 17.8221 22.1351 12.5007C22.1351 7.17916 17.8212 2.86523 12.4997 2.86523ZM1.30177 12.5007C1.30177 6.31628 6.31531 1.30273 12.4997 1.30273C18.6841 1.30273 23.6976 6.31628 23.6976 12.5007C23.6976 18.685 18.6841 23.6986 12.4997 23.6986C10.7101 23.6986 9.01635 23.2777 7.51322 22.5298C7.31525 22.4244 7.08564 22.3948 6.86739 22.4465L4.54864 23.0663C2.96114 23.4913 1.50906 22.0392 1.93406 20.4517L2.55489 18.1329C2.6066 17.9147 2.57698 17.6851 2.47156 17.4871C1.70016 15.9382 1.29967 14.231 1.30177 12.5007ZM12.4993 7.55273C12.9308 7.55273 13.2806 7.90251 13.2806 8.33398V8.3444C14.415 8.63086 15.3639 9.52461 15.3639 10.7642C15.3639 11.1957 15.0141 11.5454 14.5827 11.5454C14.1512 11.5454 13.8014 11.1957 13.8014 10.7642C13.8014 10.3642 13.3577 9.81003 12.4993 9.81003C11.641 9.81003 11.1973 10.3642 11.1973 10.7642C11.1973 11.1642 11.641 11.7194 12.4993 11.7194C13.942 11.7194 15.3639 12.7194 15.3639 14.2371C15.3639 15.4767 14.415 16.3715 13.2806 16.6569V16.6673C13.2806 17.0988 12.9308 17.4486 12.4993 17.4486C12.0679 17.4486 11.7181 17.0988 11.7181 16.6673V16.6569C10.5837 16.3715 9.63476 15.4767 9.63476 14.2371C9.63476 13.8056 9.98454 13.4559 10.416 13.4559C10.8475 13.4559 11.1973 13.8056 11.1973 14.2371C11.1973 14.6371 11.641 15.1913 12.4993 15.1913C13.3577 15.1913 13.8014 14.6371 13.8014 14.2371C13.8014 13.8371 13.3577 13.2819 12.4993 13.2819C11.0566 13.2819 9.63476 12.2819 9.63476 10.7642C9.63476 9.52461 10.5837 8.63086 11.7181 8.3444V8.33398C11.7181 7.90251 12.0679 7.55273 12.4993 7.55273Z" fill="#4C4C4C"/>
</g>
</svg>
