<svg width="18" height="18" viewBox="0 0 18 18" fill="none" xmlns="http://www.w3.org/2000/svg">
<path d="M1.84242 3.81264C1.31847 3.98044 0.904103 4.4359 0.791094 4.97355C0.736302 5.23039 0.736302 12.7438 0.791094 13.0006C0.907527 13.5417 1.32189 13.9971 1.85269 14.1615C2.05474 14.2231 2.28075 14.2266 8.73252 14.2266C15.1843 14.2266 15.4103 14.2231 15.6124 14.1615C16.1432 13.9971 16.5575 13.5417 16.674 13.0006C16.7287 12.7438 16.7287 5.23039 16.674 4.97355C16.5575 4.43248 16.1432 3.97702 15.6124 3.81264C15.4103 3.751 15.1877 3.74757 8.72225 3.751C2.33555 3.751 2.02734 3.75442 1.84242 3.81264Z" fill="#4C4C4C"/>
<path d="M16.1631 6.88095V7.85693L8.73196 7.85693L1.30078 7.85693L1.30078 6.88095V5.90497L8.73196 5.90497L16.1631 5.90497V6.88095Z" fill="white"/>
</svg>
