<svg width="16" height="16" viewBox="0 0 16 16" fill="none" xmlns="http://www.w3.org/2000/svg">
<path d="M1.63769 3.38893C1.17196 3.53809 0.803637 3.94294 0.703185 4.42085C0.65448 4.64915 0.65448 11.3277 0.703185 11.556C0.806681 12.037 1.17501 12.4418 1.64683 12.5879C1.82642 12.6427 2.02733 12.6458 7.76223 12.6458C13.4971 12.6458 13.698 12.6427 13.8776 12.5879C14.3495 12.4418 14.7178 12.037 14.8213 11.556C14.87 11.3277 14.87 4.64915 14.8213 4.42085C14.7178 3.9399 14.3495 3.53504 13.8776 3.38893C13.698 3.33414 13.5002 3.3311 7.7531 3.33414C2.07603 3.33414 1.80207 3.33718 1.63769 3.38893Z" fill="#4C4C4C"/>
<path d="M14.3673 6.11641V6.98395L7.7618 6.98395L1.15631 6.98395V6.11641L1.15631 5.24886L7.7618 5.24886L14.3673 5.24886V6.11641Z" fill="white"/>
</svg>
