<svg width="17" height="17" viewBox="0 0 17 17" fill="none" xmlns="http://www.w3.org/2000/svg">
<g id="Group" clip-path="url(#clip0_5920_4887)">
<g id="Group 1000003132">
<path id="Path" d="M2.05112 3.88869C1.58538 4.03784 1.21706 4.4427 1.11661 4.9206C1.0679 5.14891 1.0679 11.8275 1.11661 12.0558C1.2201 12.5367 1.58843 12.9416 2.06025 13.0877C2.23984 13.1425 2.44075 13.1455 8.17565 13.1455C13.9106 13.1455 14.1115 13.1425 14.2911 13.0877C14.7629 12.9416 15.1312 12.5367 15.2347 12.0558C15.2834 11.8275 15.2834 5.14891 15.2347 4.9206C15.1312 4.43965 14.7629 4.0348 14.2911 3.88869C14.1115 3.8339 13.9136 3.83085 8.16652 3.8339C2.48945 3.8339 2.21549 3.83694 2.05112 3.88869Z" stroke="#4C4C4C" stroke-width="1.5"/>
<path id="Path_2" d="M15.569 6.61586V7.4834L8.23568 7.4834L0.902344 7.4834L0.902344 6.61586L0.902344 5.74832L8.23568 5.74832L15.569 5.74832V6.61586Z" fill="#4C4C4C"/>
</g>
</g>
<defs>
<clipPath id="clip0_5920_4887">
<rect width="16" height="16" fill="white" transform="matrix(1 0 0 -1 0.412109 16.5)"/>
</clipPath>
</defs>
</svg>
