<svg width="18" height="19" viewBox="0 0 18 19" fill="none" xmlns="http://www.w3.org/2000/svg">
<g id="circum:delivery-truck-copy">
<path id="Shape" d="M16.7734 9.23828L15.9688 8.12109C15.6033 7.60788 15.0128 7.30243 14.3828 7.30078H10.9609V5.62891C10.9609 4.55023 10.0865 3.67578 9.00781 3.67578H3.5625C2.48507 3.67879 1.61238 4.55147 1.60938 5.62891V13.3945C1.60938 14.0417 2.13404 14.5664 2.78125 14.5664H3.73438C3.85634 15.4306 4.59596 16.0732 5.46875 16.0732C6.34154 16.0732 7.08116 15.4306 7.20313 14.5664H11.5469C11.6688 15.4306 12.4085 16.0732 13.2813 16.0732C14.154 16.0732 14.8937 15.4306 15.0156 14.5664H15.9688C16.616 14.5664 17.1406 14.0417 17.1406 13.3945V10.3711C17.1387 9.96454 17.0104 9.56865 16.7734 9.23828ZM5.46875 15.293C4.92941 15.293 4.49219 14.8557 4.49219 14.3164C4.49219 13.7771 4.92941 13.3398 5.46875 13.3398C6.00809 13.3398 6.44531 13.7771 6.44531 14.3164C6.44531 14.8557 6.00809 15.293 5.46875 15.293ZM10.1797 13.7852H7.14844C6.91503 13.0544 6.23591 12.5584 5.46875 12.5584C4.7016 12.5584 4.02247 13.0544 3.78906 13.7852H2.78125C2.56551 13.7852 2.39063 13.6103 2.39063 13.3945V5.62891C2.39063 4.9817 2.91529 4.45703 3.5625 4.45703H9.00781C9.65502 4.45703 10.1797 4.9817 10.1797 5.62891V13.7852ZM13.2813 15.293C12.7419 15.293 12.3047 14.8557 12.3047 14.3164C12.3047 13.7771 12.7419 13.3398 13.2813 13.3398C13.8206 13.3398 14.2578 13.7771 14.2578 14.3164C14.2578 14.8557 13.8206 15.293 13.2813 15.293ZM16.3594 13.3945C16.3594 13.6103 16.1845 13.7852 15.9688 13.7852H14.9609C14.7275 13.0544 14.0484 12.5584 13.2813 12.5584C12.5141 12.5584 11.835 13.0544 11.6016 13.7852H10.9609V8.08203H14.3828C14.7609 8.08457 15.115 8.26744 15.3359 8.57422L16.1406 9.69141C16.2812 9.89032 16.3576 10.1275 16.3594 10.3711V13.3945Z" fill="#4C4C4C" stroke="#4C4C4C" stroke-width="0.4"/>
<path id="Path" d="M14.0859 10.0352H12.5234C12.3077 10.0352 12.1328 9.86027 12.1328 9.64453C12.1328 9.42879 12.3077 9.25391 12.5234 9.25391H14.0859C14.3017 9.25391 14.4766 9.42879 14.4766 9.64453C14.4766 9.86027 14.3017 10.0352 14.0859 10.0352Z" fill="#4C4C4C"/>
</g>
</svg>
