<svg width="22" height="22" viewBox="0 0 22 22" fill="none" xmlns="http://www.w3.org/2000/svg">
<g id="Symbols">
<g id="UI2/Men&#195;&#186;/Open">
<g id="Group-9">
<g id="Icon/Men&#195;&#186;/Dashboard-">
<path id="Shape" d="M16.7594 0.34375C18.1493 0.34375 19.3684 1.27095 19.7396 2.6103L21.1588 7.73138L21.172 7.83073L21.1765 17.4336C21.1765 19.5011 19.5005 21.1771 17.433 21.1771H4.08669C2.01921 21.1771 0.343196 19.5011 0.343196 17.4336V7.86179L0.356266 7.76146L0.3396 7.55786L0.40835 7.55729L1.78016 2.6103C2.15134 1.27095 3.37045 0.34375 4.76028 0.34375H16.7594ZM15.3767 9.90173L15.3047 10.0375C14.8321 10.8637 13.9425 11.412 12.9356 11.412C11.8714 11.412 10.9426 10.8005 10.4939 9.90173C10.0458 10.8005 9.11709 11.412 8.05282 11.412C6.98856 11.412 6.05984 10.8005 5.61111 9.90173C5.16299 10.8005 4.23428 11.412 3.17001 11.412C2.58388 11.412 2.03885 11.2265 1.59248 10.9097L1.5932 17.4336C1.5932 18.7533 2.61848 19.8336 3.91597 19.9213L4.08669 19.9271H4.60002L4.60101 14.5039C4.60101 13.7188 5.19941 13.0651 5.95517 13.0651H9.70517C10.4609 13.0651 11.0593 13.7188 11.0593 14.5039L11.0583 19.9271H17.433C18.8102 19.9271 19.9265 18.8107 19.9265 17.4342L19.9239 10.4188C19.4222 11.0269 18.663 11.412 17.8184 11.412C16.7542 11.412 15.8255 10.8005 15.3767 9.90173ZM9.70517 14.3151H5.95517C5.91565 14.3151 5.85101 14.3857 5.85101 14.5039L5.85002 19.9271H9.80835L9.80934 14.5039C9.80934 14.3857 9.7447 14.3151 9.70517 14.3151ZM4.64266 8.80786H1.69736C1.76014 9.56617 2.39549 10.162 3.17001 10.162C3.94453 10.162 4.57988 9.56617 4.64266 8.80786ZM9.52547 8.80786H6.58018C6.64296 9.56617 7.2783 10.162 8.05282 10.162C8.82734 10.162 9.46269 9.56617 9.52547 8.80786ZM14.4083 8.80786H11.463C11.5258 9.56617 12.1611 10.162 12.9356 10.162C13.6804 10.162 14.2964 9.61112 14.3985 8.89461L14.4083 8.80786ZM19.2911 8.80786H16.3458C16.4086 9.56617 17.0439 10.162 17.8184 10.162C18.593 10.162 19.2283 9.56617 19.2911 8.80786ZM6.45522 1.59271L4.76028 1.59375C3.93223 1.59375 3.2059 2.14616 2.98476 2.94414L1.70522 7.55729H5.40731L6.45522 1.59271ZM14.1177 1.59271H11.6448V7.55729H15.1115L14.1177 1.59271ZM16.7594 1.59375L15.3844 1.59271L16.3781 7.55729H19.8125L18.535 2.94414C18.3276 2.19604 17.6763 1.66376 16.9134 1.60015L16.7594 1.59375ZM10.3948 1.59271H7.72189L6.67397 7.55729H10.3948V1.59271Z" fill="#4C4C4C"/>
</g>
</g>
</g>
</g>
</svg>
