<svg width="16" height="16" viewBox="0 0 16 16" fill="none" xmlns="http://www.w3.org/2000/svg">
<path fill-rule="evenodd" clip-rule="evenodd" d="M3 3.00128C1.34315 3.00128 0 4.34443 0 6.00128V10.0013C0 11.6581 1.34315 13.0013 3 13.0013H13C14.6569 13.0013 16 11.6581 16 10.0013V6.00128C16 4.34443 14.6569 3.00128 13 3.00128H3ZM5.35723 8.37954V7.00128H5.34434H4.27437V8.31746C4.27437 8.60304 4.18413 8.72721 3.99076 8.72721C3.81029 8.72721 3.70716 8.61546 3.70716 8.31746V7.00128H2.63718V8.31746C2.63718 8.60304 2.53405 8.72721 2.35358 8.72721C2.1731 8.72721 2.06997 8.61546 2.06997 8.31746V7.00128H1V8.37954C1 9.13696 1.47698 9.54671 2.3278 9.54671C2.66297 9.54671 2.95947 9.48463 3.17862 9.26113C3.39777 9.47221 3.69426 9.54671 4.02944 9.54671C4.86737 9.54671 5.35723 9.12454 5.35723 8.37954ZM10.1785 7.00128V8.37954C10.1785 9.12454 9.68865 9.54671 8.85073 9.54671C8.51555 9.54671 8.21906 9.47221 7.99991 9.26113C7.78075 9.48463 7.48426 9.54671 7.14909 9.54671C6.29826 9.54671 5.8084 9.13696 5.8084 8.37954V7.00128H6.87837V8.31746C6.87837 8.61546 6.9815 8.72721 7.16198 8.72721C7.34245 8.72721 7.44558 8.60304 7.44558 8.31746V7.00128H8.51555V8.31746C8.51555 8.61546 8.61868 8.72721 8.79916 8.72721C8.99253 8.72721 9.08277 8.60304 9.08277 8.31746V7.00128H10.1527H10.1785ZM15.0001 8.37954V7.00128H14.9744H13.9044V8.31746C13.9044 8.60304 13.8141 8.72721 13.6208 8.72721C13.4403 8.72721 13.3372 8.61546 13.3372 8.31746V7.00128H12.2672V8.31746C12.2672 8.60304 12.1641 8.72721 11.9836 8.72721C11.8031 8.72721 11.7 8.61546 11.7 8.31746V7.00128H10.63V8.37954C10.63 9.13696 11.1199 9.54671 11.9707 9.54671C12.3059 9.54671 12.6024 9.48463 12.8215 9.26113C13.0407 9.47221 13.3372 9.54671 13.6723 9.54671C14.5103 9.54671 15.0001 9.12454 15.0001 8.37954Z" fill="#4C4C4C"/>
</svg>
