<?xml version="1.0" encoding="UTF-8"?>
<svg width="5px" height="20px" viewBox="0 0 5 20" version="1.1" xmlns="http://www.w3.org/2000/svg" xmlns:xlink="http://www.w3.org/1999/xlink">
    <title>840CEC05-6FAF-42AB-99CC-7801A0900557</title>
    <g id="Desktop-SHEIN" stroke="none" stroke-width="1" fill="none" fill-rule="evenodd">
        <g id="01-Pedidos-Shein-Guias-Auto" transform="translate(-1322, -647)" fill="#898989">
            <g id="Group-15" transform="translate(341, 559)">
                <g id="icon/menu-puntosV" transform="translate(981, 88)">
                    <path d="M2.5,0 C3.88071187,-2.53632657e-16 5,1.11928813 5,2.5 C5,3.88071187 3.88071187,5 2.5,5 C1.11928813,5 8.45442189e-17,3.88071187 0,2.5 C-1.69088438e-16,1.11928813 1.11928813,1.69088438e-16 2.5,0 Z" id="Rectangle" transform="translate(2.5, 2.5) rotate(-270) translate(-2.5, -2.5)"></path>
                    <path d="M2.5,7.5 C3.88071187,7.5 5,8.61928813 5,10 C5,11.3807119 3.88071187,12.5 2.5,12.5 C1.11928813,12.5 8.45442189e-17,11.3807119 0,10 C-1.69088438e-16,8.61928813 1.11928813,7.5 2.5,7.5 Z" id="Rectangle" transform="translate(2.5, 10) rotate(-270) translate(-2.5, -10)"></path>
                    <path d="M2.5,15 C3.88071187,15 5,16.1192881 5,17.5 C5,18.8807119 3.88071187,20 2.5,20 C1.11928813,20 8.45442189e-17,18.8807119 0,17.5 C-1.69088438e-16,16.1192881 1.11928813,15 2.5,15 Z" id="Rectangle" transform="translate(2.5, 17.5) rotate(-270) translate(-2.5, -17.5)"></path>
                </g>
            </g>
        </g>
    </g>
</svg>