<svg width="28" height="27" viewBox="0 0 28 27" fill="none" xmlns="http://www.w3.org/2000/svg">
<path d="M25.0149 15.3008C25.384 15.3008 25.6832 15.603 25.6832 15.9758V19.3508C25.6832 21.58 23.9706 23.4008 21.8404 23.4008H5.96788C4.42208 23.4008 3.18323 22.0837 3.18323 20.4758V15.9758C3.18323 15.603 3.48244 15.3008 3.85154 15.3008C4.22065 15.3008 4.51986 15.603 4.51986 15.9758V20.4758C4.51986 21.3532 5.17605 22.0508 5.96788 22.0508H21.8404C23.2167 22.0508 24.3466 20.8495 24.3466 19.3508V15.9758C24.3466 15.603 24.6458 15.3008 25.0149 15.3008Z" fill="#4C4C4C"/>
<path d="M14.4322 18.9551L9.57971 14.1026C9.3161 13.839 9.3161 13.4116 9.57971 13.148C9.84331 12.8844 10.2707 12.8844 10.5343 13.148L13.7573 16.371L13.7565 4.27577C13.7565 3.90297 14.0587 3.60077 14.4315 3.60077C14.8043 3.60077 15.1065 3.90297 15.1065 4.27577L15.1073 16.371L18.3302 13.148C18.5674 12.9107 18.9373 12.887 19.2011 13.0768L19.2847 13.148C19.5484 13.4116 19.5484 13.839 19.2847 14.1026L14.4322 18.9551Z" fill="#4C4C4C"/>
</svg>
