<svg width="24" height="25" viewBox="0 0 24 25" fill="none" xmlns="http://www.w3.org/2000/svg">
<ellipse cx="12" cy="12.0091" rx="12" ry="12.0091" fill="#E2EAFF"/>
<path fill-rule="evenodd" clip-rule="evenodd" d="M7 14.305C7 15.17 7.7 15.87 8.565 15.87H15.64C16.5 15.87 17.205 15.17 17.205 14.305V10.065C17.205 9.2 16.505 8.5 15.64 8.5H8.565C7.705 8.5 7 9.2 7 10.065V14.305ZM7.605 10.065C7.605 9.535 8.035 9.105 8.565 9.105H15.64C16.17 9.105 16.6 9.535 16.6 10.065V14.305C16.6 14.835 16.17 15.265 15.64 15.265H8.565C8.035 15.265 7.605 14.835 7.605 14.305V10.065ZM10.79 12.165C11.175 12.435 11.635 12.575 12.105 12.575H12.115C12.585 12.575 13.04 12.435 13.43 12.165C13.9 11.84 15.315 10.865 15.315 10.865C15.38 10.82 15.425 10.75 15.44 10.67C15.455 10.59 15.435 10.51 15.39 10.445C15.335 10.365 15.24 10.315 15.14 10.315C15.08 10.315 15.02 10.335 14.97 10.37C14.934 10.3949 14.8953 10.4217 14.8543 10.45C14.3608 10.7913 13.5374 11.3607 13.085 11.67C12.795 11.87 12.46 11.975 12.11 11.975C11.76 11.975 11.425 11.87 11.135 11.67L9.24996 10.37C9.19996 10.335 9.13996 10.315 9.07996 10.315C8.97996 10.315 8.88496 10.365 8.82996 10.445C8.77996 10.51 8.76496 10.59 8.77996 10.67C8.79496 10.75 8.83996 10.82 8.90496 10.865L10.79 12.165Z" fill="#4C4C4C"/>
</svg>
