<?xml version="1.0" encoding="UTF-8"?>
<svg width="89px" height="67px" viewBox="0 0 89 67" version="1.1" xmlns="http://www.w3.org/2000/svg" xmlns:xlink="http://www.w3.org/1999/xlink">
    <title>ico_empty</title>
    <g id="UI" stroke="none" stroke-width="1" fill="none" fillRule="evenodd">
        <g id="Dash-board-/-Pantalla-sin-datos" transform="translate(-1022.000000, -873.000000)">
            <g id="Group-38" transform="translate(265.000000, 354.000000)">
                <g id="Group-36" transform="translate(646.000000, 399.000000)">
                    <g id="ico_empty" transform="translate(111.000000, 120.000000)">
                        <path d="M81,8 C85.418278,8 89,11.581722 89,16 L89,59 C89,63.418278 85.418278,67 81,67 L18,67 C13.581722,67 10,63.418278 10,59 L10,16 C10,11.581722 13.581722,8 18,8 L81,8 Z M81,10 L18,10 C14.6862915,10 12,12.6862915 12,16 L12,59 C12,62.3137085 14.6862915,65 18,65 L81,65 C84.3137085,65 87,62.3137085 87,59 L87,16 C87,12.6862915 84.3137085,10 81,10 Z" id="Rectangle" fill="#EEEEEE" fillRule="nonzero"></path>
                        <rect id="Rectangle" fill="#EDEDED" x="26" y="40" width="11" height="17"></rect>
                        <rect id="Rectangle-Copy-4" fill="#EDEDED" x="66" y="48" width="11" height="9"></rect>
                        <rect id="Rectangle-Copy-3" fill="#EDEDED" x="45" y="28" width="11" height="29"></rect>
                        <path d="M21,37 L21,38 L18,38 L18,37 L21,37 Z M25,37 L25,38 L22,38 L22,37 L25,37 Z M29,37 L29,38 L26,38 L26,37 L29,37 Z M33,37 L33,38 L30,38 L30,37 L33,37 Z M37,37 L37,38 L34,38 L34,37 L37,37 Z M41,37 L41,38 L38,38 L38,37 L41,37 Z M45,37 L45,38 L42,38 L42,37 L45,37 Z M49,37 L49,38 L46,38 L46,37 L49,37 Z M53,37 L53,38 L50,38 L50,37 L53,37 Z M57,37 L57,38 L54,38 L54,37 L57,37 Z M61,37 L61,38 L58,38 L58,37 L61,37 Z M65,37 L65,38 L62,38 L62,37 L65,37 Z M69,37 L69,38 L66,38 L66,37 L69,37 Z M73,37 L73,38 L70,38 L70,37 L73,37 Z M77,37 L77,38 L74,38 L74,37 L77,37 Z M81,37 L81,38 L78,38 L78,37 L81,37 Z" id="Line-2" fill="#EDEDED" fillRule="nonzero"></path>
                        <path d="M21,17 L21,18 L18,18 L18,17 L21,17 Z M25,17 L25,18 L22,18 L22,17 L25,17 Z M29,17 L29,18 L26,18 L26,17 L29,17 Z M33,17 L33,18 L30,18 L30,17 L33,17 Z M37,17 L37,18 L34,18 L34,17 L37,17 Z M41,17 L41,18 L38,18 L38,17 L41,17 Z M45,17 L45,18 L42,18 L42,17 L45,17 Z M49,17 L49,18 L46,18 L46,17 L49,17 Z M53,17 L53,18 L50,18 L50,17 L53,17 Z M57,17 L57,18 L54,18 L54,17 L57,17 Z M61,17 L61,18 L58,18 L58,17 L61,17 Z M65,17 L65,18 L62,18 L62,17 L65,17 Z M69,17 L69,18 L66,18 L66,17 L69,17 Z M73,17 L73,18 L70,18 L70,17 L73,17 Z M77,17 L77,18 L74,18 L74,17 L77,17 Z M81,17 L81,18 L78,18 L78,17 L81,17 Z" id="Line-2-Copy-2" fill="#EDEDED" fillRule="nonzero"></path>
                        <path d="M21,57 L21,58 L18,58 L18,57 L21,57 Z M25,57 L25,58 L22,58 L22,57 L25,57 Z M29,57 L29,58 L26,58 L26,57 L29,57 Z M33,57 L33,58 L30,58 L30,57 L33,57 Z M37,57 L37,58 L34,58 L34,57 L37,57 Z M41,57 L41,58 L38,58 L38,57 L41,57 Z M45,57 L45,58 L42,58 L42,57 L45,57 Z M49,57 L49,58 L46,58 L46,57 L49,57 Z M53,57 L53,58 L50,58 L50,57 L53,57 Z M57,57 L57,58 L54,58 L54,57 L57,57 Z M61,57 L61,58 L58,58 L58,57 L61,57 Z M65,57 L65,58 L62,58 L62,57 L65,57 Z M69,57 L69,58 L66,58 L66,57 L69,57 Z M73,57 L73,58 L70,58 L70,57 L73,57 Z M77,57 L77,58 L74,58 L74,57 L77,57 Z M81,57 L81,58 L78,58 L78,57 L81,57 Z" id="Line-2-Copy" fill="#EDEDED" fillRule="nonzero"></path>
                        <circle id="Oval" fill="#EDEDED" cx="15" cy="15" r="15"></circle>
                        <g id="Group-40" transform="translate(9.489592, 8.989592)" stroke="#FFFFFF" stroke-linecap="round" stroke-width="2">
                            <line x1="6.01040764" y1="-1.48959236" x2="6.01040764" y2="13.5104076" id="Line" transform="translate(6.010408, 6.010408) rotate(-45.000000) translate(-6.010408, -6.010408) "></line>
                            <line x1="-1.48959236" y1="6.01040764" x2="13.5104076" y2="6.01040764" id="Line" transform="translate(6.010408, 6.010408) rotate(-45.000000) translate(-6.010408, -6.010408) "></line>
                        </g>
                    </g>
                </g>
            </g>
        </g>
    </g>
</svg>