<svg width="20" height="20" viewBox="0 0 20 20" fill="none" xmlns="http://www.w3.org/2000/svg">
<g id="Prod dest">
<path id="Shape" fill-rule="evenodd" clip-rule="evenodd" d="M15.9029 1.66602C17.2452 1.66602 18.3334 2.51481 18.3334 3.56185V10.6035C18.3334 11.6506 17.2452 12.4993 15.9029 12.4993H4.0973C2.75494 12.4993 1.66675 11.6506 1.66675 10.6035V3.56185C1.66675 2.51481 2.75494 1.66602 4.0973 1.66602H15.9029ZM15.9029 2.49935H4.0973C3.21518 2.49935 2.50008 3.47796 2.50008 4.16602V9.99935C2.50008 10.6874 3.14574 11.666 4.02786 11.666H15.8334C16.7155 11.666 17.5001 10.6874 17.5001 9.99935V4.16602C17.5001 3.47796 16.785 2.49935 15.9029 2.49935Z" fill="#4C4C4C"/>
<path id="Vector 13" d="M8.75008 4.58268C8.75008 4.86046 8.91675 5.41602 9.58341 5.41602C10.2501 5.41602 10.4167 4.86046 10.4167 4.58268M8.33341 4.16602C7.77786 4.16602 6.66675 4.33268 6.66675 4.99935C6.66675 5.43988 6.66675 5.90467 6.66675 6.24945C6.66675 6.47957 6.8533 6.66602 7.08341 6.66602H7.50008C7.7302 6.66602 7.91675 6.85256 7.91675 7.08268V9.16602C7.91675 9.39613 8.1033 9.58268 8.33341 9.58268H11.2501C11.4802 9.58268 11.6667 9.39613 11.6667 9.16602V7.08268C11.6667 6.85256 11.8533 6.66602 12.0834 6.66602H12.6164C12.7958 6.66602 12.9603 6.55084 12.9737 6.37199C12.9989 6.0345 12.9167 5.64009 12.9167 4.99936C12.9167 4.16612 11.2501 4.16593 10.4167 4.16602H8.33341Z" stroke="#4C4C4C" stroke-width="0.833333" stroke-linecap="round"/>
<path id="Shape_2" fill-rule="evenodd" clip-rule="evenodd" d="M9.50988 16.666C9.78061 16.666 10.0001 17.0391 10.0001 17.4993C10.0001 17.9596 9.78061 18.3327 9.50988 18.3327H2.15694C1.88622 18.3327 1.66675 17.9596 1.66675 17.4993C1.66675 17.0391 1.88622 16.666 2.15694 16.666H9.50988Z" fill="#4C4C4C"/>
<path id="Shape_3" fill-rule="evenodd" clip-rule="evenodd" d="M15.5001 14.166C15.7762 14.166 16.0001 14.3899 16.0001 14.666C16.0001 14.9422 15.7762 15.166 15.5001 15.166H2.16675C1.89061 15.166 1.66675 14.9422 1.66675 14.666C1.66675 14.3899 1.89061 14.166 2.16675 14.166H15.5001Z" fill="#4C4C4C"/>
<path id="Shape_4" fill-rule="evenodd" clip-rule="evenodd" d="M17.8526 16.666C18.1182 16.666 18.3334 17.0391 18.3334 17.4993C18.3334 17.9596 18.1182 18.3327 17.8526 18.3327H14.6475C14.382 18.3327 14.1667 17.9596 14.1667 17.4993C14.1667 17.0391 14.382 16.666 14.6475 16.666H17.8526Z" fill="#4C4C4C"/>
</g>
</svg>
