<svg width="20" height="20" viewBox="0 0 20 20" fill="none" xmlns="http://www.w3.org/2000/svg">
<g id="Header">
<path id="Rectangle 2179" d="M3.20978 16.4763C2.59868 16.2229 2.10986 15.7341 1.85645 15.123L2.24134 14.9634C2.13971 14.7183 2.08341 14.4493 2.08341 14.166V13.3327H1.66675V11.666H2.08341V10.8327C2.08341 10.6624 2.11722 10.5011 2.1781 10.3543L1.79322 10.1947C1.96216 9.7873 2.28803 9.46143 2.69543 9.29248L2.85504 9.67737C3.00185 9.61649 3.16316 9.58268 3.33341 9.58268H4.16675V9.16602H5.83341V9.58268H7.50008V9.16602H9.16675V9.58268H10.8334V9.16602H12.5001V9.58268H14.1667V9.16602H15.8334V9.58268H16.6667C16.837 9.58268 16.9983 9.61649 17.1451 9.67737L17.3047 9.29248C17.7121 9.46143 18.038 9.7873 18.2069 10.1947L17.8221 10.3543C17.8829 10.5011 17.9167 10.6624 17.9167 10.8327V11.666H18.3334V13.3327H17.9167V14.166C17.9167 14.4493 17.8605 14.7183 17.7588 14.9634L18.1437 15.123C17.8903 15.7341 17.4015 16.2229 16.7904 16.4763L16.6308 16.0914C16.3857 16.1931 16.1167 16.2493 15.8334 16.2493H15.1042V16.666H13.6459V16.2493H12.1876V16.666H10.7292V16.2493H9.27091V16.666H7.81258V16.2493H6.35425V16.666H4.89591V16.2493H4.16675C3.8835 16.2493 3.61445 16.1931 3.36938 16.0914L3.20978 16.4763Z" stroke="black" stroke-width="0.833333" stroke-dasharray="1.67 1.67"/>
<rect id="Rectangle 2180" x="2.08341" y="3.75065" width="15.8333" height="4.16667" rx="1.25" stroke="black" stroke-width="0.833333"/>
</g>
</svg>
