<svg width="16" height="16" viewBox="0 0 16 16" fill="none" xmlns="http://www.w3.org/2000/svg">
<g id="icon/navigation/help-circle" clip-path="url(#clip0_367_32695)">
<g id="Vector">
<path fill-rule="evenodd" clip-rule="evenodd" d="M8 0C3.58 0 0 3.58 0 8C0 12.42 3.58 16 8 16C12.42 16 16 12.42 16 8C16 3.58 12.42 0 8 0ZM8 15C4.14 15 1 11.86 1 8C1 4.14 4.14 1 8 1C11.86 1 15 4.14 15 8C15 11.86 11.86 15 8 15Z" fill="#4C4C4C"/>
<path d="M8 11.69C7.82 11.69 7.66 11.63 7.54 11.5C7.41 11.37 7.35 11.22 7.35 11.04C7.35 10.86 7.41 10.7 7.54 10.58C7.79 10.33 8.21 10.33 8.46 10.58C8.59 10.71 8.65 10.86 8.65 11.04C8.65 11.22 8.59 11.38 8.46 11.5C8.34 11.62 8.19 11.69 8.01 11.69C8.01 11.69 8.01 11.69 8 11.69Z" fill="#4C4C4C"/>
<path d="M7.57 9.73C7.49 9.73 7.42 9.66 7.42 9.58C7.42 9.11 7.5 8.71 7.66 8.38C7.82 8.05 8.14 7.66 8.64 7.2C8.88 6.98 9.08 6.76 9.23 6.54C9.37 6.34 9.44 6.11 9.44 5.85C9.44 5.53 9.33 5.24 9.1 4.97C8.88 4.71 8.53 4.58 8.03 4.58C7.6 4.58 7.28 4.68 7.06 4.89C6.83 5.11 6.65 5.36 6.52 5.65C6.5 5.71 6.44 5.74 6.38 5.74C6.36 5.74 6.34 5.74 6.32 5.73L5.55 5.41C5.55 5.41 5.48 5.36 5.47 5.33C5.45 5.29 5.46 5.25 5.47 5.21C5.67 4.77 6 4.37 6.43 4.03C6.87 3.68 7.42 3.51 8.05 3.51C8.71 3.51 9.3 3.72 9.79 4.13C10.28 4.55 10.53 5.11 10.53 5.81C10.53 6.22 10.43 6.59 10.24 6.91C10.05 7.21 9.77 7.56 9.39 7.94C9.04 8.28 8.81 8.56 8.71 8.77C8.61 8.98 8.54 9.25 8.52 9.59C8.52 9.67 8.45 9.73 8.37 9.73H7.57Z" fill="#4C4C4C"/>
</g>
</g>
<defs>
<clipPath id="clip0_367_32695">
<rect width="16" height="16" fill="white"/>
</clipPath>
</defs>
</svg>
