<svg width="25" height="25" viewBox="0 0 25 25" fill="none" xmlns="http://www.w3.org/2000/svg">
<g id="Symbols">
<g id="Men&#195;&#186;-lateral">
<g id="healthicons:home-alt-outline-copy">
<path id="Shape" fill-rule="evenodd" clip-rule="evenodd" d="M22.7561 12.9508L13.056 3.125L3.29333 12.9496C3.15028 13.0888 3.09271 13.295 3.14273 13.489C3.19276 13.6831 3.3426 13.8348 3.53467 13.8859C3.72673 13.9369 3.93114 13.8794 4.06933 13.7354L5.33006 12.4669V20.2785C5.33006 20.5849 5.57612 20.8333 5.87964 20.8333H10.8258C11.1294 20.8333 11.3754 20.5849 11.3754 20.2785V15.4288C11.3754 15.1224 11.6215 14.874 11.925 14.874H14.1233C14.4268 14.874 14.6729 15.1224 14.6729 15.4288V20.2785C14.6729 20.5849 14.9189 20.8333 15.2225 20.8333H20.1687C20.4722 20.8333 20.7182 20.5849 20.7182 20.2785V12.4586L21.9779 13.7348C22.1166 13.8752 22.3189 13.9301 22.5087 13.879C22.6984 13.8279 22.8467 13.6785 22.8978 13.487C22.9488 13.2955 22.8948 13.0911 22.7561 12.9508ZM19.6191 11.3449L13.0533 4.69419L6.42922 11.3605V19.7236H10.2763V15.4288C10.2763 14.5095 11.0144 13.7642 11.925 13.7642H14.1233C15.0339 13.7642 15.772 14.5095 15.772 15.4288V19.7236H19.6191V11.3449Z" fill="#4C4C4C" stroke="#4C4C4C" stroke-width="0.52"/>
</g>
</g>
</g>
</svg>
