<svg width="29" height="27" viewBox="0 0 29 27" fill="none" xmlns="http://www.w3.org/2000/svg">
<g id="Group">
<g id="Shape">
<path fill-rule="evenodd" clip-rule="evenodd" d="M1.94147 16.6777H4.68986C5.36346 16.6777 5.91132 17.2189 5.91132 17.8842V24.9353C5.91132 25.6004 5.36346 26.1415 4.68986 26.1415H1.94147C1.26807 26.1415 0.720215 25.6004 0.720215 24.9353V17.8842C0.720215 17.2189 1.26807 16.6777 1.94147 16.6777ZM4.68986 25.3544C4.92394 25.3544 5.11444 25.1663 5.11444 24.9353V17.8842C5.11444 17.653 4.92394 17.4648 4.68986 17.4648H1.94147C1.70759 17.4648 1.51709 17.653 1.51709 17.8842V24.9353C1.51709 25.1663 1.70759 25.3544 1.94147 25.3544H4.68986Z" fill="#4C4C4C"/>
<path d="M4.68986 16.3777H1.94147V16.9777H4.68986V16.3777ZM6.21132 17.8842C6.21132 17.0497 5.52565 16.3777 4.68986 16.3777V16.9777C5.20128 16.9777 5.61132 17.388 5.61132 17.8842H6.21132ZM6.21132 24.9353V17.8842H5.61132V24.9353H6.21132ZM4.68986 26.4415C5.52561 26.4415 6.21132 25.7696 6.21132 24.9353H5.61132C5.61132 25.4312 5.20132 25.8415 4.68986 25.8415V26.4415ZM1.94147 26.4415H4.68986V25.8415H1.94147V26.4415ZM0.420215 24.9353C0.420215 25.7696 1.10588 26.4415 1.94147 26.4415V25.8415C1.43025 25.8415 1.02021 25.4312 1.02021 24.9353H0.420215ZM0.420215 17.8842V24.9353H1.02021V17.8842H0.420215ZM1.94147 16.3777C1.10585 16.3777 0.420215 17.0497 0.420215 17.8842H1.02021C1.02021 17.388 1.43028 16.9777 1.94147 16.9777V16.3777ZM4.81444 24.9353C4.81444 24.997 4.76185 25.0544 4.68986 25.0544V25.6544C5.08602 25.6544 5.41444 25.3355 5.41444 24.9353H4.81444ZM4.81444 17.8842V24.9353H5.41444V17.8842H4.81444ZM4.68986 17.7648C4.76176 17.7648 4.81444 17.8222 4.81444 17.8842H5.41444C5.41444 17.4838 5.08612 17.1648 4.68986 17.1648V17.7648ZM1.94147 17.7648H4.68986V17.1648H1.94147V17.7648ZM1.81709 17.8842C1.81709 17.8221 1.86987 17.7648 1.94147 17.7648V17.1648C1.54531 17.1648 1.21709 17.4839 1.21709 17.8842H1.81709ZM1.81709 24.9353V17.8842H1.21709V24.9353H1.81709ZM1.94147 25.0544C1.86977 25.0544 1.81709 24.9971 1.81709 24.9353H1.21709C1.21709 25.3354 1.54541 25.6544 1.94147 25.6544V25.0544ZM4.68986 25.0544H1.94147V25.6544H4.68986V25.0544Z" fill="#4C4C4C"/>
</g>
<path id="Path" d="M12.0263 11.1523H9.27789C8.60449 11.1523 8.05664 11.6935 8.05664 12.3586V14.5963C8.05664 14.8136 8.2349 14.9898 8.45508 14.9898C8.67505 14.9898 8.85352 14.8136 8.85352 14.5963V12.3586C8.85352 12.1276 9.04381 11.9394 9.27789 11.9394H12.0263C12.2604 11.9394 12.4507 12.1276 12.4507 12.3586V24.9364C12.4507 25.1674 12.2604 25.3555 12.0263 25.3555H9.27789C9.04381 25.3555 8.85352 25.1674 8.85352 24.9364V16.1705C8.85352 15.9532 8.67505 15.7769 8.45508 15.7769C8.2349 15.7769 8.05664 15.9532 8.05664 16.1705V24.9364C8.05664 25.6015 8.60449 26.1426 9.27789 26.1426H12.0263C12.6997 26.1426 13.2475 25.6015 13.2475 24.9364V12.3588C13.2475 11.6935 12.6997 11.1523 12.0263 11.1523Z" fill="#4C4C4C" stroke="#4C4C4C" stroke-width="0.6"/>
<g id="Shape_2">
<path fill-rule="evenodd" clip-rule="evenodd" d="M16.6143 14.4688H19.3627C20.0363 14.4688 20.5842 15.0099 20.5842 15.675V24.9367C20.5842 25.6018 20.0363 26.143 19.3627 26.143H16.6143C15.9409 26.143 15.3931 25.6018 15.3931 24.9367V15.675C15.3931 15.0099 15.9409 14.4688 16.6143 14.4688ZM19.3627 25.3559C19.5968 25.3559 19.7873 25.1677 19.7873 24.9367V15.675C19.7873 15.4438 19.5968 15.2558 19.3627 15.2558H16.6143C16.3802 15.2558 16.1899 15.4438 16.1899 15.675V24.9367C16.1899 25.1677 16.3802 25.3559 16.6143 25.3559H19.3627Z" fill="#4C4C4C"/>
<path d="M19.3627 14.1687H16.6143V14.7688H19.3627V14.1687ZM20.8842 15.675C20.8842 14.8407 20.1985 14.1687 19.3627 14.1687V14.7688C19.8742 14.7688 20.2842 15.1791 20.2842 15.675H20.8842ZM20.8842 24.9367V15.675H20.2842V24.9367H20.8842ZM19.3627 26.443C20.1985 26.443 20.8842 25.771 20.8842 24.9367H20.2842C20.2842 25.4326 19.8742 25.843 19.3627 25.843V26.443ZM16.6143 26.443H19.3627V25.843H16.6143V26.443ZM15.0931 24.9367C15.0931 25.771 15.7787 26.443 16.6143 26.443V25.843C16.1031 25.843 15.6931 25.4327 15.6931 24.9367H15.0931ZM15.0931 15.675V24.9367H15.6931V15.675H15.0931ZM16.6143 14.1687C15.7787 14.1687 15.0931 14.8407 15.0931 15.675H15.6931C15.6931 15.179 16.1031 14.7688 16.6143 14.7688V14.1687ZM19.4873 24.9367C19.4873 24.9985 19.4347 25.0559 19.3627 25.0559V25.6559C19.7589 25.6559 20.0873 25.337 20.0873 24.9367H19.4873ZM19.4873 15.675V24.9367H20.0873V15.675H19.4873ZM19.3627 15.5558C19.4348 15.5558 19.4873 15.6132 19.4873 15.675H20.0873C20.0873 15.2744 19.7588 14.9558 19.3627 14.9558V15.5558ZM16.6143 15.5558H19.3627V14.9558H16.6143V15.5558ZM16.4899 15.675C16.4899 15.613 16.5424 15.5558 16.6143 15.5558V14.9558C16.2181 14.9558 15.8899 15.2746 15.8899 15.675H16.4899ZM16.4899 24.9367V15.675H15.8899V24.9367H16.4899ZM16.6143 25.0559C16.5425 25.0559 16.4899 24.9986 16.4899 24.9367H15.8899C15.8899 25.3368 16.218 25.6559 16.6143 25.6559V25.0559ZM19.3627 25.0559H16.6143V25.6559H19.3627V25.0559Z" fill="#4C4C4C"/>
</g>
<path id="Path_2" d="M26.6989 8.38867H23.9505C23.2771 8.38867 22.729 8.9298 22.729 9.59494V20.8402C22.729 21.0574 22.9075 21.2337 23.1274 21.2337C23.3476 21.2337 23.5259 21.0574 23.5259 20.8402V9.59494C23.5259 9.36373 23.7164 9.17577 23.9505 9.17577H26.6989C26.9327 9.17577 27.1232 9.36373 27.1232 9.59494V24.9359C27.1232 25.1669 26.9327 25.3551 26.6989 25.3551H23.9505C23.7164 25.3551 23.5259 25.1669 23.5259 24.9359V22.4143C23.5259 22.1971 23.3476 22.0208 23.1274 22.0208C22.9075 22.0208 22.729 22.1971 22.729 22.4143V24.9359C22.729 25.6011 23.2771 26.1422 23.9505 26.1422H26.6989C27.3723 26.1422 27.9201 25.6011 27.9201 24.9359V9.59494C27.9201 8.9298 27.3723 8.38867 26.6989 8.38867Z" fill="#4C4C4C" stroke="#4C4C4C" stroke-width="0.6"/>
<g id="Shape_3">
<path fill-rule="evenodd" clip-rule="evenodd" d="M0.833008 11.8219C0.833008 10.4699 1.94677 9.36979 3.31556 9.36979C3.6561 9.36979 3.98046 9.43784 4.27617 9.56083L8.19082 6.61209C8.17712 6.50837 8.16945 6.40281 8.16945 6.2954C8.16945 4.9434 9.283 3.84332 10.652 3.84332C11.9434 3.84332 13.0069 4.82227 13.1236 6.06809L16.548 7.61604C16.9546 7.32888 17.4516 7.15916 17.9882 7.15916C18.2879 7.15916 18.5755 7.21204 18.8416 7.30859L22.8807 3.96138C22.8558 3.822 22.8419 3.67872 22.8419 3.53217C22.8419 2.18017 23.9557 1.08008 25.3247 1.08008C26.6935 1.08008 27.8072 2.18017 27.8072 3.53217C27.8072 4.88437 26.6935 5.98446 25.3247 5.98446C25.025 5.98446 24.7374 5.93178 24.4711 5.83504L20.4322 9.18224C20.4571 9.32162 20.471 9.4649 20.471 9.61145C20.471 10.9635 19.3572 12.0635 17.9882 12.0635C16.697 12.0635 15.6333 11.0846 15.5167 9.83877L12.0922 8.29102C11.6857 8.57798 11.1886 8.7477 10.652 8.7477C10.3117 8.7477 9.9869 8.67944 9.69139 8.55646L5.77695 11.5054C5.79044 11.6091 5.79833 11.7145 5.79833 11.8219C5.79833 13.1741 4.68457 14.2742 3.31556 14.2742C1.94677 14.2742 0.833008 13.1741 0.833008 11.8219ZM27.0104 3.53217C27.0104 2.61409 26.2542 1.86717 25.3247 1.86717C24.395 1.86717 23.6388 2.61409 23.6388 3.53217C23.6388 4.43651 24.4091 5.19737 25.3247 5.19737C26.2542 5.19737 27.0104 4.45024 27.0104 3.53217ZM23.1698 4.7493C23.1739 4.75638 23.1782 4.76332 23.1826 4.77024L23.1905 4.78312C23.3346 5.02273 23.5199 5.23795 23.7365 5.41648L20.1431 8.39412C20.1365 8.38264 20.0275 8.21169 19.9742 8.14139C19.8584 7.98889 19.725 7.84951 19.5764 7.72693L23.1698 4.7493ZM17.9882 7.94625C17.0795 7.94625 16.3165 8.69441 16.3028 9.58686C16.3026 9.59506 16.3026 9.60326 16.3026 9.61145C16.3026 10.5295 17.0588 11.2764 17.9882 11.2764C18.9177 11.2764 19.6739 10.5295 19.6739 9.61145C19.6739 8.71142 18.8943 7.94625 17.9882 7.94625ZM12.6992 7.68061C12.8623 7.44407 12.9854 7.18109 13.0572 6.90376L15.9508 8.21149C15.8035 8.42118 15.6883 8.65403 15.613 8.89835C15.6022 8.93299 15.5922 8.96784 15.5831 9.00289L12.6894 7.69516L12.6955 7.68616L12.6992 7.68061ZM12.3377 6.2954C12.3377 5.37733 11.5815 4.63041 10.652 4.63041C9.72231 4.63041 8.96611 5.37733 8.96611 6.2954C8.96611 7.19646 9.74493 7.9606 10.652 7.9606C11.5587 7.9606 12.3377 7.19237 12.3377 6.2954ZM8.44213 7.41251L8.4496 7.42604L8.45707 7.43956C8.5903 7.6884 8.76689 7.91469 8.97711 8.1047L5.52544 10.705C5.46152 10.582 5.3864 10.4639 5.30256 10.3535C5.20959 10.2309 5.10542 10.1165 4.99045 10.0126L8.44213 7.41251ZM5.00145 11.8219C5.00145 11.2908 4.72919 10.8066 4.32017 10.4992C4.03628 10.2854 3.68619 10.1569 3.31556 10.1569C2.38608 10.1569 1.62988 10.9038 1.62988 11.8219C1.62988 12.7402 2.38608 13.4871 3.31556 13.4871C4.24525 13.4871 5.00145 12.7402 5.00145 11.8219Z" fill="#4C4C4C"/>
<path d="M4.27617 9.56083L4.21857 9.69933L4.29784 9.73229L4.36642 9.68064L4.27617 9.56083ZM8.19082 6.61209L8.28107 6.7319L8.35099 6.67923L8.33953 6.59245L8.19082 6.61209ZM13.1236 6.06809L12.9742 6.08207L12.9823 6.16887L13.0618 6.20477L13.1236 6.06809ZM16.548 7.61604L16.4863 7.75273L16.5645 7.78808L16.6346 7.73856L16.548 7.61604ZM18.8416 7.30859L18.7904 7.44959L18.8711 7.47889L18.9373 7.42408L18.8416 7.30859ZM22.8807 3.96138L22.9764 4.07688L23.0438 4.02108L23.0284 3.935L22.8807 3.96138ZM24.4711 5.83504L24.5224 5.69406L24.4416 5.6647L24.3754 5.71954L24.4711 5.83504ZM20.4322 9.18224L20.3365 9.06675L20.2692 9.12254L20.2845 9.20862L20.4322 9.18224ZM15.5167 9.83877L15.666 9.82479L15.6579 9.73799L15.5785 9.70208L15.5167 9.83877ZM12.0922 8.29102L12.154 8.15433L12.0758 8.119L12.0057 8.16847L12.0922 8.29102ZM9.69139 8.55646L9.74903 8.41797L9.66974 8.38497L9.60114 8.43665L9.69139 8.55646ZM5.77695 11.5054L5.6867 11.3856L5.61694 11.4381L5.62821 11.5247L5.77695 11.5054ZM23.1826 4.77024L23.3101 4.69123L23.3097 4.69065L23.1826 4.77024ZM23.1698 4.7493L23.2996 4.67418L23.2107 4.52055L23.0741 4.6338L23.1698 4.7493ZM23.1905 4.78312L23.3191 4.70584L23.318 4.70411L23.1905 4.78312ZM23.7365 5.41648L23.8322 5.53198L23.972 5.41616L23.8319 5.30072L23.7365 5.41648ZM20.1431 8.39412L20.0133 8.46924L20.1022 8.62286L20.2388 8.50962L20.1431 8.39412ZM19.9742 8.14139L20.0937 8.05074L20.0937 8.05068L19.9742 8.14139ZM19.5764 7.72693L19.4807 7.61143L19.341 7.72719L19.4809 7.84264L19.5764 7.72693ZM16.3028 9.58686L16.4527 9.59066L16.4527 9.58916L16.3028 9.58686ZM13.0572 6.90376L13.1189 6.76707L12.9566 6.69371L12.9119 6.86617L13.0572 6.90376ZM12.6992 7.68061L12.5757 7.59544L12.5742 7.59761L12.6992 7.68061ZM15.9508 8.21149L16.0735 8.29773L16.1777 8.14944L16.0126 8.0748L15.9508 8.21149ZM15.613 8.89835L15.7562 8.94297L15.7563 8.94255L15.613 8.89835ZM15.5831 9.00289L15.5213 9.13958L15.6834 9.21283L15.7282 9.0407L15.5831 9.00289ZM12.6894 7.69516L12.565 7.61134L12.4658 7.75868L12.6277 7.83185L12.6894 7.69516ZM12.6955 7.68616L12.8199 7.76998L12.8204 7.76916L12.6955 7.68616ZM8.4496 7.42604L8.31829 7.49855L8.31829 7.49856L8.4496 7.42604ZM8.44213 7.41251L8.57344 7.34L8.4899 7.18872L8.35188 7.2927L8.44213 7.41251ZM8.45707 7.43956L8.58932 7.36876L8.58838 7.36705L8.45707 7.43956ZM8.97711 8.1047L9.06737 8.22451L9.21244 8.11522L9.07769 7.99342L8.97711 8.1047ZM5.52544 10.705L5.39234 10.7742L5.4741 10.9315L5.6157 10.8248L5.52544 10.705ZM5.30256 10.3535L5.18305 10.4441L5.18307 10.4441L5.30256 10.3535ZM4.99045 10.0126L4.9002 9.89277L4.75512 10.0021L4.88987 10.1239L4.99045 10.0126ZM4.32017 10.4992L4.22993 10.619L4.23004 10.6191L4.32017 10.4992ZM3.31556 9.21979C1.86567 9.21979 0.683008 10.3853 0.683008 11.8219H0.983008C0.983008 10.5545 2.02786 9.51979 3.31556 9.51979V9.21979ZM4.33377 9.42233C4.02016 9.2919 3.67626 9.21979 3.31556 9.21979V9.51979C3.63595 9.51979 3.94075 9.58378 4.21857 9.69933L4.33377 9.42233ZM8.10057 6.49227L4.18592 9.44101L4.36642 9.68064L8.28107 6.7319L8.10057 6.49227ZM8.01945 6.2954C8.01945 6.40997 8.02764 6.52212 8.04211 6.63172L8.33953 6.59245C8.32661 6.49462 8.31945 6.39565 8.31945 6.2954H8.01945ZM10.652 3.69332C9.2019 3.69332 8.01945 4.85883 8.01945 6.2954H8.31945C8.31945 5.02798 9.3641 3.99332 10.652 3.99332V3.69332ZM13.2729 6.05411C13.149 4.73053 12.0202 3.69332 10.652 3.69332V3.99332C11.8666 3.99332 12.8649 4.914 12.9742 6.08207L13.2729 6.05411ZM16.6098 7.47936L13.1853 5.93141L13.0618 6.20477L16.4863 7.75273L16.6098 7.47936ZM17.9882 7.00916C17.4195 7.00916 16.8924 7.18913 16.4615 7.49353L16.6346 7.73856C17.0167 7.46862 17.4837 7.30916 17.9882 7.30916V7.00916ZM18.8927 7.16758C18.6106 7.06519 18.3056 7.00916 17.9882 7.00916V7.30916C18.2702 7.30916 18.5405 7.3589 18.7904 7.44959L18.8927 7.16758ZM22.785 3.84588L18.7458 7.19309L18.9373 7.42408L22.9764 4.07688L22.785 3.84588ZM22.6919 3.53217C22.6919 3.68824 22.7067 3.84036 22.7331 3.98776L23.0284 3.935C23.0049 3.80364 22.9919 3.66921 22.9919 3.53217H22.6919ZM25.3247 0.930078C23.8746 0.930078 22.6919 2.09558 22.6919 3.53217H22.9919C22.9919 2.26476 24.0367 1.23008 25.3247 1.23008V0.930078ZM27.9572 3.53217C27.9572 2.09558 26.7746 0.930078 25.3247 0.930078V1.23008C26.6124 1.23008 27.6572 2.26475 27.6572 3.53217H27.9572ZM25.3247 6.13446C26.7746 6.13446 27.9572 4.96895 27.9572 3.53217H27.6572C27.6572 4.7998 26.6124 5.83446 25.3247 5.83446V6.13446ZM24.4199 5.97602C24.7024 6.07866 25.0073 6.13446 25.3247 6.13446V5.83446C25.0427 5.83446 24.7724 5.78491 24.5224 5.69406L24.4199 5.97602ZM20.5279 9.29773L24.5669 5.95053L24.3754 5.71954L20.3365 9.06675L20.5279 9.29773ZM20.621 9.61145C20.621 9.45538 20.6062 9.30326 20.5799 9.15586L20.2845 9.20862C20.308 9.33998 20.321 9.47442 20.321 9.61145H20.621ZM17.9882 12.2135C19.4383 12.2135 20.621 11.048 20.621 9.61145H20.321C20.321 10.8789 19.2762 11.9135 17.9882 11.9135V12.2135ZM15.3673 9.85275C15.4912 11.1763 16.6203 12.2135 17.9882 12.2135V11.9135C16.7738 11.9135 15.7754 10.9929 15.666 9.82479L15.3673 9.85275ZM12.0304 8.42771L15.4549 9.97546L15.5785 9.70208L12.154 8.15433L12.0304 8.42771ZM10.652 8.8977C11.2208 8.8977 11.7478 8.71773 12.1787 8.41356L12.0057 8.16847C11.6235 8.43823 11.1565 8.5977 10.652 8.5977V8.8977ZM9.63376 8.69494C9.94715 8.82537 10.2915 8.8977 10.652 8.8977V8.5977C10.3319 8.5977 10.0267 8.53351 9.74903 8.41797L9.63376 8.69494ZM5.86721 11.6252L9.78165 8.67627L9.60114 8.43665L5.6867 11.3856L5.86721 11.6252ZM5.94833 11.8219C5.94833 11.7071 5.9399 11.5952 5.9257 11.4861L5.62821 11.5247C5.64098 11.623 5.64833 11.7218 5.64833 11.8219H5.94833ZM3.31556 14.4242C4.76566 14.4242 5.94833 13.2587 5.94833 11.8219H5.64833C5.64833 13.0895 4.60348 14.1242 3.31556 14.1242V14.4242ZM0.683008 11.8219C0.683008 13.2587 1.86567 14.4242 3.31556 14.4242V14.1242C2.02786 14.1242 0.983008 13.0895 0.983008 11.8219H0.683008ZM25.3247 2.01717C26.1731 2.01717 26.8604 2.69868 26.8604 3.53217H27.1604C27.1604 2.52951 26.3352 1.71717 25.3247 1.71717V2.01717ZM23.7888 3.53217C23.7888 2.69869 24.4761 2.01717 25.3247 2.01717V1.71717C24.3139 1.71717 23.4888 2.5295 23.4888 3.53217H23.7888ZM25.3247 5.04737C24.4902 5.04737 23.7888 4.35192 23.7888 3.53217H23.4888C23.4888 4.52109 24.328 5.34737 25.3247 5.34737V5.04737ZM26.8604 3.53217C26.8604 4.36568 26.173 5.04737 25.3247 5.04737V5.34737C26.3353 5.34737 27.1604 4.5348 27.1604 3.53217H26.8604ZM23.3097 4.69065C23.3051 4.68336 23.3022 4.67863 23.2996 4.67418L23.0399 4.82441C23.0456 4.83413 23.0513 4.84327 23.0554 4.84982L23.3097 4.69065ZM23.318 4.70411L23.3101 4.69123L23.055 4.84924L23.063 4.86212L23.318 4.70411ZM23.8319 5.30072C23.6284 5.13305 23.4543 4.93085 23.3191 4.70584L23.062 4.86039C23.2148 5.11461 23.4113 5.34285 23.6411 5.53224L23.8319 5.30072ZM20.2388 8.50962L23.8322 5.53198L23.6408 5.30098L20.0474 8.27862L20.2388 8.50962ZM19.8547 8.23204C19.8778 8.26255 19.9158 8.31878 19.9507 8.37208C19.9678 8.39803 19.9833 8.42218 19.995 8.44048C20.008 8.46071 20.0137 8.47001 20.0133 8.46924L20.2729 8.319C20.2639 8.30328 20.1515 8.12695 20.0937 8.05074L19.8547 8.23204ZM19.4809 7.84264C19.6205 7.95776 19.7459 8.08873 19.8547 8.2321L20.0937 8.05068C19.9709 7.88905 19.8295 7.74126 19.6718 7.61123L19.4809 7.84264ZM23.0741 4.6338L19.4807 7.61143L19.6721 7.84243L23.2655 4.86479L23.0741 4.6338ZM16.4527 9.58916C16.4652 8.77995 17.1601 8.09625 17.9882 8.09625V7.79625C16.9989 7.79625 16.1678 8.60886 16.1528 9.58456L16.4527 9.58916ZM16.4526 9.61145C16.4526 9.60294 16.4526 9.59664 16.4527 9.59066L16.1528 9.58305C16.1525 9.59347 16.1526 9.60357 16.1526 9.61145H16.4526ZM17.9882 11.1264C17.1398 11.1264 16.4526 10.4449 16.4526 9.61145H16.1526C16.1526 10.6141 16.9777 11.4264 17.9882 11.4264V11.1264ZM19.5239 9.61145C19.5239 10.4449 18.8366 11.1264 17.9882 11.1264V11.4264C18.9988 11.4264 19.8239 10.6141 19.8239 9.61145H19.5239ZM17.9882 8.09625C18.8134 8.09625 19.5239 8.79627 19.5239 9.61145H19.8239C19.8239 8.62656 18.9751 7.79625 17.9882 7.79625V8.09625ZM12.9119 6.86617C12.8448 7.12557 12.7294 7.37257 12.5757 7.59546L12.8227 7.76576C12.9952 7.51557 13.1259 7.23662 13.2024 6.94136L12.9119 6.86617ZM16.0126 8.0748L13.1189 6.76707L12.9954 7.04045L15.889 8.34818L16.0126 8.0748ZM15.7563 8.94255C15.8269 8.71359 15.935 8.49488 16.0735 8.29773L15.8281 8.12525C15.6719 8.34747 15.5497 8.59446 15.4696 8.85416L15.7563 8.94255ZM15.7282 9.0407C15.7368 9.00794 15.7461 8.97536 15.7562 8.94297L15.4698 8.85374C15.4583 8.89063 15.4477 8.92774 15.4379 8.96508L15.7282 9.0407ZM12.6277 7.83185L15.5213 9.13958L15.6449 8.8662L12.7512 7.55847L12.6277 7.83185ZM12.5711 7.60234L12.565 7.61134L12.8138 7.77899L12.8199 7.76998L12.5711 7.60234ZM12.5742 7.59761L12.5706 7.60316L12.8204 7.76916L12.8241 7.76361L12.5742 7.59761ZM10.652 4.78041C11.5004 4.78041 12.1877 5.46192 12.1877 6.2954H12.4877C12.4877 5.29275 11.6626 4.48041 10.652 4.48041V4.78041ZM9.11611 6.2954C9.11611 5.46193 9.80339 4.78041 10.652 4.78041V4.48041C9.64124 4.48041 8.81611 5.29274 8.81611 6.2954H9.11611ZM10.652 7.8106C9.82573 7.8106 9.11611 7.11159 9.11611 6.2954H8.81611C8.81611 7.28134 9.66414 8.1106 10.652 8.1106V7.8106ZM12.1877 6.2954C12.1877 7.10772 11.4776 7.8106 10.652 7.8106V8.1106C11.6397 8.1106 12.4877 7.27701 12.4877 6.2954H12.1877ZM8.58091 7.35353L8.57344 7.34L8.31082 7.48502L8.31829 7.49855L8.58091 7.35353ZM8.58838 7.36705L8.58091 7.35353L8.31829 7.49856L8.32576 7.51208L8.58838 7.36705ZM9.07769 7.99342C8.88033 7.81503 8.71442 7.60245 8.58931 7.36876L8.32483 7.51036C8.46617 7.77435 8.65346 8.01435 8.87653 8.21598L9.07769 7.99342ZM5.6157 10.8248L9.06737 8.22451L8.88686 7.98489L5.43518 10.5852L5.6157 10.8248ZM5.18307 10.4441C5.26193 10.548 5.33246 10.6589 5.39234 10.7742L5.65854 10.6358C5.59059 10.5051 5.51088 10.3798 5.42205 10.2628L5.18307 10.4441ZM4.88987 10.1239C4.99765 10.2213 5.09553 10.3287 5.18305 10.4441L5.42208 10.2628C5.32366 10.133 5.21319 10.0117 5.09104 9.90131L4.88987 10.1239ZM8.35188 7.2927L4.9002 9.89277L5.08071 10.1324L8.53238 7.53232L8.35188 7.2927ZM4.23004 10.6191C4.60547 10.9013 4.85145 11.3429 4.85145 11.8219H5.15145C5.15145 11.2387 4.8529 10.712 4.4103 10.3793L4.23004 10.6191ZM3.31556 10.3069C3.6512 10.3069 3.97004 10.4233 4.22993 10.619L4.4104 10.3794C4.10252 10.1475 3.72119 10.0069 3.31556 10.0069V10.3069ZM1.77988 11.8219C1.77988 10.9884 2.46718 10.3069 3.31556 10.3069V10.0069C2.30499 10.0069 1.47988 10.8192 1.47988 11.8219H1.77988ZM3.31556 13.3371C2.46719 13.3371 1.77988 12.6556 1.77988 11.8219H1.47988C1.47988 12.8247 2.30498 13.6371 3.31556 13.6371V13.3371ZM4.85145 11.8219C4.85145 12.6556 4.16416 13.3371 3.31556 13.3371V13.6371C4.32634 13.6371 5.15145 12.8247 5.15145 11.8219H4.85145Z" fill="#4C4C4C"/>
</g>
</g>
</svg>
