<svg width="20" height="20" viewBox="0 0 20 20" fill="none" xmlns="http://www.w3.org/2000/svg">
<g id="Group 1945">
<path id="Shape" fill-rule="evenodd" clip-rule="evenodd" d="M16.0711 2.85742C17.4518 2.85742 18.5711 3.97671 18.5711 5.35742V14.6431C18.5711 16.0238 17.4518 17.1431 16.0711 17.1431H3.92822C2.54751 17.1431 1.42822 16.0238 1.42822 14.6431V5.35742C1.42822 3.97671 2.54751 2.85742 3.92822 2.85742H16.0711ZM16.0711 3.71456H3.92822C3.0209 3.71456 2.28537 4.4501 2.28537 5.35742V14.6431C2.28537 15.5505 3.0209 16.286 3.92822 16.286H16.0711C16.9784 16.286 17.7139 15.5505 17.7139 14.6431V5.35742C17.7139 4.4501 16.9784 3.71456 16.0711 3.71456Z" fill="#4C4C4C"/>
<path id="Vector (Stroke)" fill-rule="evenodd" clip-rule="evenodd" d="M7.09736 7.85886C7.28973 7.84665 7.47887 7.91271 7.62181 8.04204L12.7018 12.6382L17.2541 8.99631V10.1217V10.1115L13.2139 13.2146L15.6515 15.307L14.6425 15.3284L14.2854 15.3512L7.20743 8.87934L5.03211 11.4041L2.85679 13.9289V13.5717L2.83447 12.5003L6.60026 8.10686C6.72571 7.9605 6.90498 7.87106 7.09736 7.85886Z" fill="#4C4C4C"/>
<circle id="Ellipse 2" cx="14.6429" cy="6.78571" r="1.36905" stroke="#4C4C4C" stroke-width="0.833333"/>
</g>
</svg>
