<svg width="16" height="16" viewBox="0 0 16 16" fill="none" xmlns="http://www.w3.org/2000/svg">
<g clip-path="url(#clip0_1_31416)">
<path fill-rule="evenodd" clip-rule="evenodd" d="M8 0C3.58 0 0 3.58 0 8C0 12.42 3.58 16 8 16C12.42 16 16 12.42 16 8C16 3.58 12.42 0 8 0ZM8 15C4.14 15 1 11.86 1 8C1 4.14 4.14 1 8 1C11.86 1 15 4.14 15 8C15 11.86 11.86 15 8 15Z" fill="#4C4C4C"/>
<path d="M8 4.79004C8.41421 4.79004 8.75 4.45425 8.75 4.04004C8.75 3.62583 8.41421 3.29004 8 3.29004C7.58579 3.29004 7.25 3.62583 7.25 4.04004C7.25 4.45425 7.58579 4.79004 8 4.79004Z" fill="#4C4C4C"/>
<path fill-rule="evenodd" clip-rule="evenodd" d="M8 12.71C7.58 12.71 7.25 12.38 7.25 11.96V6.29004C7.25 5.87004 7.58 5.54004 8 5.54004C8.42 5.54004 8.75 5.87004 8.75 6.29004V11.96C8.75 12.38 8.42 12.71 8 12.71Z" fill="#4C4C4C"/>
</g>
<defs>
<clipPath id="clip0_1_31416">
<rect width="16" height="16" fill="white"/>
</clipPath>
</defs>
</svg>
