<svg width="22" height="22" viewBox="0 0 22 22" fill="none" xmlns="http://www.w3.org/2000/svg">
<g id="Icon/edit text/link">
<path id="Shape" fill-rule="evenodd" clip-rule="evenodd" d="M9.31363 6.22463C9.69118 6.22196 9.99986 6.52501 10.0041 6.90255C10.0065 7.28297 9.70287 7.59045 9.32593 7.59281L6.58255 7.60976C5.72993 7.58647 4.90473 7.88602 4.29596 8.43799C3.69218 8.98544 3.35309 9.73422 3.35309 10.5145C3.35309 11.2948 3.69218 12.0436 4.29596 12.5911C4.83707 13.0817 5.54922 13.3729 6.29962 13.4152L9.32505 13.4386C9.70218 13.4414 10.0056 13.7494 10.0028 14.1266C9.99992 14.5037 9.69195 14.8072 9.31478 14.8046L6.58728 14.7853C5.38395 14.7872 4.22806 14.3419 3.37321 13.5453C2.51364 12.7441 2.0292 11.6536 2.0293 10.5146C2.02922 9.37554 2.51366 8.28499 3.37324 7.48379C4.22814 6.68717 5.38402 6.24188 6.5844 6.24388L9.31363 6.22463ZM12.5813 6.22463L15.3094 6.24388C16.5113 6.2439 17.6652 6.69015 18.5184 7.48663C19.3762 8.28744 19.8596 9.37695 19.8596 10.5153C19.8575 11.6523 19.3735 12.7405 18.5163 13.5407C17.6636 14.3367 16.5111 14.7835 15.312 14.7854L12.5854 14.8068C12.2077 14.8098 11.8989 14.5068 11.8946 14.1292C11.8919 13.7491 12.1954 13.4413 12.5725 13.4386L15.304 13.4194C16.1406 13.419 16.9414 13.1091 17.5297 12.56C18.1132 12.0152 18.4397 11.2798 18.44 10.5144C18.4407 9.74912 18.1145 9.01329 17.5307 8.46836C16.9423 7.91902 16.1411 7.60945 15.3018 7.60989L12.571 7.59063C12.1939 7.58779 11.8905 7.27977 11.8933 6.90265C11.8962 6.52547 12.2041 6.22197 12.5813 6.22463ZM15.9328 10.5161C15.9328 10.1383 15.6265 9.83205 15.2487 9.83205H6.64903C6.27123 9.83205 5.96497 10.1383 5.96497 10.5161C5.96497 10.8939 6.27123 11.2002 6.64903 11.2002H15.2487C15.6265 11.2002 15.9328 10.8939 15.9328 10.5161Z" fill="#4C4C4C"/>
</g>
</svg>
