<svg width="14" height="18" viewBox="0 0 14 18" fill="none" xmlns="http://www.w3.org/2000/svg">
<g id="Group">
<g id="Shape">
<path fill-rule="evenodd" clip-rule="evenodd" d="M10.7397 12.9419C10.5638 13.2218 10.3848 13.4954 10.2057 13.7606L9.51539 14.7442C8.41595 16.2541 7.45912 17.3234 7.36533 17.4276C7.27205 17.5311 7.13915 17.5902 7.00013 17.5902H6.99476C6.85395 17.5886 6.72029 17.5265 6.62803 17.42C6.39828 17.1542 1 10.8653 1 6.99987C1 4.07852 3.09895 1.6384 5.86772 1.10759L6.85139 1.00179C6.90071 1.00051 6.95029 1 7.00013 1C10.3084 1 13 3.6916 13 6.99987C13 8.82877 11.9405 11.0319 10.7397 12.9419ZM1.98367 6.99987C1.98367 9.95854 5.79463 14.8559 7.00703 16.3387C8.22607 14.8986 12.0163 10.1658 12.0163 6.99987C12.0163 4.2339 9.7661 1.98367 7.00013 1.98367C4.23391 1.98367 1.98367 4.2339 1.98367 6.99987Z" fill="#4C4C4C"/>
<path d="M10.2057 13.7606L10.2875 13.818L10.2885 13.8165L10.2057 13.7606ZM10.7397 12.9419L10.6551 12.8887L10.7397 12.9419ZM9.51539 14.7442L9.59624 14.8031L9.59724 14.8017L9.51539 14.7442ZM7.36533 17.4276L7.43961 17.4946L7.43968 17.4945L7.36533 17.4276ZM6.99476 17.5902L6.99367 17.6902H6.99476V17.5902ZM6.62803 17.42L6.55237 17.4854L6.55242 17.4854L6.62803 17.42ZM5.86772 1.10759L5.85699 1.00783L5.8489 1.00938L5.86772 1.10759ZM6.85139 1.00179L6.84879 0.901492L6.8407 0.902362L6.85139 1.00179ZM7.00703 16.3387L6.92961 16.402L7.0057 16.495L7.08335 16.4033L7.00703 16.3387ZM10.2885 13.8165C10.4682 13.5505 10.6478 13.276 10.8244 12.9951L10.6551 12.8887C10.4797 13.1675 10.3014 13.4402 10.1228 13.7046L10.2885 13.8165ZM9.59724 14.8017L10.2875 13.818L10.1238 13.7031L9.43353 14.6868L9.59724 14.8017ZM7.43968 17.4945C7.53473 17.3889 8.49402 16.3168 9.59623 14.8031L9.43455 14.6854C8.33788 16.1914 7.38351 17.2579 7.29098 17.3608L7.43968 17.4945ZM7.00013 17.6902C7.16747 17.6902 7.32736 17.6191 7.43961 17.4946L7.29105 17.3607C7.21674 17.4432 7.11084 17.4902 7.00013 17.4902V17.6902ZM6.99476 17.6902H7.00013V17.4902H6.99476V17.6902ZM6.55242 17.4854C6.66337 17.6136 6.82413 17.6883 6.99367 17.6902L6.99585 17.4902C6.88376 17.489 6.7772 17.4395 6.70363 17.3545L6.55242 17.4854ZM0.9 6.99987C0.9 7.98693 1.24389 9.11992 1.75581 10.2623C2.26848 11.4062 2.95355 12.568 3.64439 13.6149C5.02611 15.7087 6.43629 17.3511 6.55237 17.4854L6.70368 17.3546C6.59001 17.2231 5.18618 15.5881 3.81132 13.5047C3.12387 12.463 2.44501 11.3111 1.93833 10.1805C1.4309 9.04817 1.1 7.94552 1.1 6.99987H0.9ZM5.8489 1.00938C3.03397 1.54903 0.9 4.02958 0.9 6.99987H1.1C1.1 4.12747 3.16392 1.72776 5.88655 1.2058L5.8489 1.00938ZM6.8407 0.902362L5.85703 1.00817L5.87842 1.20702L6.86208 1.10122L6.8407 0.902362ZM7.00013 0.9C6.94962 0.9 6.89916 0.900518 6.8488 0.901822L6.85398 1.10176C6.90227 1.1005 6.95097 1.1 7.00013 1.1V0.9ZM13.1 6.99987C13.1 3.63637 10.3636 0.9 7.00013 0.9V1.1C10.2532 1.1 12.9 3.74683 12.9 6.99987H13.1ZM10.8244 12.9951C12.0258 11.084 13.1 8.85962 13.1 6.99987H12.9C12.9 8.79793 11.8551 10.9798 10.6551 12.8887L10.8244 12.9951ZM7.08444 16.2754C6.47945 15.5355 5.22667 13.9442 4.12567 12.17C3.57516 11.2829 3.06378 10.3519 2.69031 9.4601C2.31625 8.56689 2.08367 7.7203 2.08367 6.99987H1.88367C1.88367 7.75878 2.12746 8.63385 2.50583 9.53736C2.8848 10.4423 3.40195 11.3831 3.95573 12.2755C5.06331 14.0603 6.32221 15.6591 6.92961 16.402L7.08444 16.2754ZM11.9163 6.99987C11.9163 7.773 11.6845 8.64867 11.3126 9.55418C10.941 10.4587 10.4322 11.3869 9.88403 12.2634C8.78771 14.0166 7.53882 15.5557 6.9307 16.2741L7.08335 16.4033C7.69428 15.6816 8.95004 14.1342 10.0536 12.3695C10.6054 11.4871 11.1203 10.5485 11.4976 9.63017C11.8744 8.71286 12.1163 7.80971 12.1163 6.99987H11.9163ZM7.00013 2.08367C9.71087 2.08367 11.9163 4.28913 11.9163 6.99987H12.1163C12.1163 4.17868 9.82132 1.88367 7.00013 1.88367V2.08367ZM2.08367 6.99987C2.08367 4.28914 4.28913 2.08367 7.00013 2.08367V1.88367C4.17868 1.88367 1.88367 4.17867 1.88367 6.99987H2.08367Z" fill="white"/>
</g>
<g id="Shape_2">
<path fill-rule="evenodd" clip-rule="evenodd" d="M4.26431 6.85788C4.26431 5.38557 5.46214 4.18774 6.93444 4.18774C8.40675 4.18774 9.60458 5.38557 9.60458 6.85788C9.60458 8.33018 8.40675 9.52801 6.93444 9.52801C5.46214 9.52801 4.26431 8.33018 4.26431 6.85788ZM5.24798 6.85788C5.24798 7.78787 6.00445 8.54434 6.93444 8.54434C7.86444 8.54434 8.62091 7.78787 8.62091 6.85788C8.62091 5.92788 7.86444 5.17141 6.93444 5.17141C6.00445 5.17141 5.24798 5.92788 5.24798 6.85788Z" fill="#4C4C4C"/>
<path d="M6.93444 4.08774C5.40691 4.08774 4.16431 5.33034 4.16431 6.85788H4.36431C4.36431 5.4408 5.51737 4.28774 6.93444 4.28774V4.08774ZM9.70458 6.85788C9.70458 5.33034 8.46198 4.08774 6.93444 4.08774V4.28774C8.35152 4.28774 9.50458 5.4408 9.50458 6.85788H9.70458ZM6.93444 9.62801C8.46198 9.62801 9.70458 8.38541 9.70458 6.85788H9.50458C9.50458 8.27495 8.35152 9.42801 6.93444 9.42801V9.62801ZM4.16431 6.85788C4.16431 8.38541 5.40691 9.62801 6.93444 9.62801V9.42801C5.51737 9.42801 4.36431 8.27495 4.36431 6.85788H4.16431ZM6.93444 8.44434C6.05968 8.44434 5.34798 7.73264 5.34798 6.85788H5.14798C5.14798 7.8431 5.94922 8.64434 6.93444 8.64434V8.44434ZM8.52091 6.85788C8.52091 7.73264 7.80921 8.44434 6.93444 8.44434V8.64434C7.91967 8.64434 8.72091 7.8431 8.72091 6.85788H8.52091ZM6.93444 5.27141C7.80921 5.27141 8.52091 5.98311 8.52091 6.85788H8.72091C8.72091 5.87265 7.91967 5.07141 6.93444 5.07141V5.27141ZM5.34798 6.85788C5.34798 5.98311 6.05968 5.27141 6.93444 5.27141V5.07141C5.94922 5.07141 5.14798 5.87265 5.14798 6.85788H5.34798Z" fill="white"/>
</g>
</g>
</svg>
