<svg width="29" height="44" viewBox="0 0 29 44" fill="none" xmlns="http://www.w3.org/2000/svg">
<path d="M7.96582 19.5609V11.5954C7.96582 11.5954 8.03823 5.07812 14.302 5.07812C21.1813 5.07812 20.6382 11.5954 20.6382 11.5954V19.5609" stroke="#4C4C4C" stroke-width="2"/>
<path d="M4 20V9.83461C4.24906 7.14804 6.09851 1 14.467 1C24 1 24 9.83461 24 9.83461V20" stroke="#4C4C4C" stroke-width="2"/>
<path d="M5 20.3789H23.2412C25.4504 20.3789 27.2412 22.1698 27.2412 24.3789V31.5C27.241 37.8511 22.0923 43 15.7412 43H12.5C6.14886 43 1.00022 37.8511 1 31.5V24.3789C1 22.1698 2.79086 20.3789 5 20.3789Z" stroke="#4C4C4C" stroke-width="2"/>
<circle cx="14.5" cy="28.5" r="2.5" fill="#4C4C4C"/>
<path d="M12.2508 34.796L13.25 30H15.4628L16.6802 34.7518C16.8423 35.3844 16.3645 36 15.7115 36H13.2298C12.5955 36 12.1215 35.417 12.2508 34.796Z" fill="#4C4C4C"/>
</svg>
