<svg width="18" height="17" viewBox="0 0 18 17" fill="none" xmlns="http://www.w3.org/2000/svg">
<path fill-rule="evenodd" clip-rule="evenodd" d="M7.60238 0C11.5144 0 14.6857 3.17132 14.6857 7.08333C14.6857 8.85956 14.0319 10.4831 12.9519 11.7264L17.0807 15.8546C17.276 16.0498 17.276 16.3664 17.0807 16.5617C16.8855 16.7569 16.5689 16.7569 16.3736 16.5617L12.2488 12.4369C11.0021 13.5129 9.3786 14.1667 7.60238 14.1667C3.69036 14.1667 0.519043 10.9954 0.519043 7.08333C0.519043 3.17132 3.69036 0 7.60238 0ZM7.60238 1C4.24264 1 1.51904 3.7236 1.51904 7.08333C1.51904 10.4431 4.24264 13.1667 7.60238 13.1667C10.9621 13.1667 13.6857 10.4431 13.6857 7.08333C13.6857 3.7236 10.9621 1 7.60238 1Z" fill="#4C4C4C"/>
</svg>
