<svg width="24" height="25" viewBox="0 0 24 25" fill="none" xmlns="http://www.w3.org/2000/svg">
<g id="icon izq">
<path id="Union" fill-rule="evenodd" clip-rule="evenodd" d="M2 17.11C2 18.84 3.4 20.24 5.13 20.24H19.28C21 20.24 22.41 18.84 22.41 17.11V8.63C22.41 6.9 21.01 5.5 19.28 5.5H5.13C3.41 5.5 2 6.9 2 8.63V17.11ZM3.21 8.63C3.21 7.57 4.07 6.71 5.13 6.71H19.28C20.34 6.71 21.2 7.57 21.2 8.63V17.11C21.2 18.17 20.34 19.03 19.28 19.03H5.13C4.07 19.03 3.21 18.17 3.21 17.11V8.63ZM9.57993 12.83C10.3499 13.37 11.2699 13.65 12.2099 13.65H12.2299C13.1699 13.65 14.0799 13.37 14.8599 12.83C15.7999 12.18 18.6299 10.23 18.6299 10.23C18.7599 10.14 18.8499 10 18.8799 9.84C18.9099 9.68001 18.8699 9.52 18.7799 9.39C18.6699 9.23 18.4799 9.13 18.2799 9.13C18.1599 9.13 18.0399 9.17 17.9399 9.24C17.8679 9.28982 17.7905 9.34334 17.7086 9.4C16.7215 10.0826 15.0748 11.2214 14.1699 11.84C13.5899 12.24 12.9199 12.45 12.2199 12.45C11.5199 12.45 10.8499 12.24 10.2699 11.84L6.49993 9.24C6.39993 9.17 6.27993 9.13 6.15993 9.13C5.95993 9.13 5.76993 9.23 5.65993 9.39C5.55993 9.52 5.52993 9.68001 5.55993 9.84C5.58993 10 5.67993 10.14 5.80993 10.23L9.57993 12.83Z" fill="#4C4C4C"/>
</g>
</svg>
