<svg width="24" height="17" viewBox="0 0 24 17" fill="none" xmlns="http://www.w3.org/2000/svg">
<g id="Symbols">
<g id="UI2/Men&#195;&#186;/Open">
<g id="Group-7">
<g id="Icon/Men&#195;&#186;/Dashboard-">
<path id="Shape" fill-rule="evenodd" clip-rule="evenodd" d="M14.9347 1.29192C15.3595 1.47213 15.6394 1.86299 15.6649 2.29426V12.5346C15.6649 13.016 15.3727 13.4408 14.9055 13.6391C14.7595 13.6957 14.6135 13.724 14.4383 13.724C14.117 13.724 13.7958 13.5824 13.5622 13.3559L13.4454 13.2709C13.3578 13.2143 13.241 13.101 13.0658 12.9594L12.8732 12.8097L12.5623 12.5803C12.3345 12.4176 12.0655 12.2367 11.7553 12.0473L11.5765 11.9399C10.7265 11.4178 9.43654 10.8158 7.89348 10.5735L9.49966 12.9203C9.92877 13.514 9.82609 14.351 9.25471 14.7956L7.7245 16.0211C7.48557 16.2195 7.19028 16.326 6.88649 16.326L6.69148 16.3196C6.3306 16.2661 5.99282 16.0558 5.8037 15.7609L2.43033 10.8606C2.33693 10.725 2.30766 10.5641 2.3359 10.4141C1.01582 10.063 0.041748 8.88665 0.041748 7.49381C0.0701814 5.86695 1.37213 4.53542 3.03107 4.49261L7.22541 4.49198C9.06512 4.35039 10.6128 3.64241 11.6057 3.04771C12.2773 2.65124 12.7738 2.28309 13.095 2.02822L13.2518 1.89606C13.3448 1.81425 13.4162 1.74503 13.4746 1.68839L13.5622 1.57511C13.9418 1.20696 14.4675 1.12201 14.9347 1.29192ZM3.64175 10.5264L6.7923 15.1033L6.81116 15.1278C6.81372 15.1348 6.8077 15.1396 6.77854 15.1385H6.88649C6.91328 15.1385 6.94028 15.1288 6.97408 15.1009L8.51887 13.8636C8.58376 13.8131 8.59769 13.6996 8.52874 13.6039L6.66664 10.8877C6.59464 10.7827 6.56099 10.6627 6.5626 10.5444L3.64175 10.5264ZM14.4167 2.50382L14.3448 2.58573C14.2372 2.69009 14.1729 2.75066 14.0573 2.85192L13.8719 3.00743C13.5012 3.30155 13.0988 3.59057 12.6463 3.8767L12.6449 11.1296L12.7367 11.1877C13.0583 11.3958 13.3562 11.6063 13.6405 11.8229L13.8515 11.9872C13.954 12.0701 14.1509 12.2386 14.1807 12.26L14.2975 12.345L14.4147 12.4434L14.4167 2.50382ZM7.22559 5.74198L3.06332 5.7422C2.08248 5.76751 1.30845 6.54901 1.29175 7.49381C1.29175 8.46555 2.12535 9.27396 3.17407 9.27398L7.75876 9.3023L7.92563 9.31453C9.17081 9.49017 10.3522 9.88349 11.3963 10.4093L11.3962 4.58637C10.149 5.20624 8.75967 5.6269 7.22559 5.74198ZM18.0309 5.13393C17.8583 5.43287 17.4761 5.53529 17.1772 5.3627C16.8782 5.19011 16.7758 4.80787 16.9484 4.50893L19.0317 0.900495C19.2043 0.601562 19.5866 0.49914 19.8855 0.671729C20.1844 0.844318 20.2869 1.22656 20.1143 1.52549L18.0309 5.13393ZM16.9484 11.4487C16.7758 11.1498 16.8782 10.7675 17.1772 10.5949C17.4761 10.4223 17.8583 10.5248 18.0309 10.8237L20.1143 14.4321C20.2869 14.7311 20.1844 15.1133 19.8855 15.2859C19.5866 15.4585 19.2043 15.3561 19.0317 15.0571L16.9484 11.4487ZM22.4376 7.35382C22.7828 7.35382 23.0626 7.63364 23.0626 7.97882C23.0626 8.324 22.7828 8.60382 22.4376 8.60382H18.2709C17.9257 8.60382 17.6459 8.324 17.6459 7.97882C17.6459 7.63364 17.9257 7.35382 18.2709 7.35382H22.4376Z" fill="#4C4C4C"/>
</g>
</g>
</g>
</g>
</svg>
