<svg width="22" height="19" viewBox="0 0 22 19" fill="none" xmlns="http://www.w3.org/2000/svg">
<rect x="1.09082" y="12" width="8" height="6" rx="2" stroke="#DB3B2B"/>
<rect x="13" y="12" width="8" height="6" rx="2" stroke="#DB3B2B"/>
<rect x="8" y="1" width="5" height="5" rx="2.5" stroke="#DB3B2B"/>
<path d="M10.5 6V7C10.5 8.10457 9.60457 9 8.5 9H7C5.89543 9 5 9.89543 5 11V12" stroke="#DB3B2B"/>
<path d="M11 6V7C11 8.10457 11.8954 9 13 9H14.5C15.6046 9 16.5 9.89543 16.5 11V12" stroke="#DB3B2B"/>
<path d="M3.5 15L4.5 16L6 13.5" stroke="#DB3B2B" stroke-linecap="round" stroke-linejoin="round"/>
<path d="M15.5 15L16.5 16L18 13.5" stroke="#DB3B2B" stroke-linecap="round" stroke-linejoin="round"/>
</svg>
