<svg width="24" height="25" viewBox="0 0 24 25" fill="none" xmlns="http://www.w3.org/2000/svg">
<ellipse cx="12" cy="12.0091" rx="12" ry="12.0091" fill="#E2EAFF"/>
<path d="M9.5837 8.19531V8.19531C8.54131 8.19531 7.69629 9.04034 7.69629 10.0827V16.2753C7.69629 17.3799 8.59172 18.2753 9.69629 18.2753H13.7852C14.8897 18.2753 15.7852 17.3799 15.7852 16.2753V9.81309C15.7852 8.91962 15.0609 8.19531 14.1674 8.19531V8.19531" stroke="#4C4C4C" stroke-width="0.8"/>
<path d="M10.9321 10.7109H14.1677" stroke="#4C4C4C" stroke-width="0.8" stroke-linecap="round"/>
<path d="M10.9321 13.2344H14.1677" stroke="#4C4C4C" stroke-width="0.8" stroke-linecap="round"/>
<path d="M9.04443 10.4346L9.31406 10.9942L10.123 9.875" stroke="#4C4C4C" stroke-width="0.8" stroke-linecap="round" stroke-linejoin="round"/>
<path d="M9.04443 12.8408L9.31406 13.4004L10.123 12.2812" stroke="#4C4C4C" stroke-width="0.8" stroke-linecap="round" stroke-linejoin="round"/>
<path d="M10.9321 16.0312H14.1677" stroke="#4C4C4C" stroke-width="0.8" stroke-linecap="round"/>
<path d="M9.58359 16.4361C9.96724 16.4361 10.2532 16.1177 10.2532 15.7564C10.2532 15.395 9.96724 15.0766 9.58359 15.0766C9.19995 15.0766 8.91396 15.395 8.91396 15.7564C8.91396 16.1177 9.19995 16.4361 9.58359 16.4361Z" stroke="#4C4C4C" stroke-width="0.8"/>
<path d="M9.71396 7.68072C9.71396 7.56658 9.80649 7.47405 9.92063 7.47405H10.0489C10.534 7.47405 10.9273 7.08077 10.9273 6.59562C10.9273 6.55231 10.9624 6.51719 11.0057 6.51719H11.6822H12.4755C12.5188 6.51719 12.554 6.55231 12.554 6.59562C12.554 7.08077 12.9473 7.47405 13.4324 7.47405H13.5606C13.6748 7.47405 13.7673 7.56658 13.7673 7.68072V7.91405C13.7673 8.15706 13.5703 8.35405 13.3273 8.35405H10.154C9.91096 8.35405 9.71396 8.15706 9.71396 7.91405V7.68072Z" stroke="#4C4C4C" stroke-width="0.8" stroke-linejoin="round"/>
</svg>
