<svg width="25" height="25" viewBox="0 0 25 25" fill="none" xmlns="http://www.w3.org/2000/svg">
<g id="icon/navigation/file-text">
<path id="Shape" fill-rule="evenodd" clip-rule="evenodd" d="M17.1876 2.08398C19.2011 2.08398 20.8334 3.71628 20.8334 5.72982V19.2715C20.8334 21.285 19.2011 22.9173 17.1876 22.9173H7.81258C5.79904 22.9173 4.16675 21.285 4.16675 19.2715V5.72982C4.16675 3.71628 5.79904 2.08398 7.81258 2.08398H17.1876ZM17.1876 3.33398H7.81258C6.4894 3.33398 5.41675 4.40664 5.41675 5.72982V19.2715C5.41675 20.5947 6.4894 21.6673 7.81258 21.6673H17.1876C18.5108 21.6673 19.5834 20.5947 19.5834 19.2715V5.72982C19.5834 4.40664 18.5108 3.33398 17.1876 3.33398ZM17.1876 15.5215C17.5328 15.5215 17.8126 15.8013 17.8126 16.1465C17.8126 16.4917 17.5328 16.7715 17.1876 16.7715H7.81258C7.4674 16.7715 7.18758 16.4917 7.18758 16.1465C7.18758 15.8013 7.4674 15.5215 7.81258 15.5215H17.1876ZM15.1042 11.3548C15.4494 11.3548 15.7292 11.6346 15.7292 11.9798C15.7292 12.325 15.4494 12.6048 15.1042 12.6048H7.81258C7.4674 12.6048 7.18758 12.325 7.18758 11.9798C7.18758 11.6346 7.4674 11.3548 7.81258 11.3548H15.1042ZM17.1876 7.18815C17.5328 7.18815 17.8126 7.46797 17.8126 7.81315C17.8126 8.15833 17.5328 8.43815 17.1876 8.43815H7.81258C7.4674 8.43815 7.18758 8.15833 7.18758 7.81315C7.18758 7.46797 7.4674 7.18815 7.81258 7.18815H17.1876Z" fill="#4C4C4C"/>
</g>
</svg>
