<svg width="134" height="134" viewBox="0 0 134 134" xmlns="http://www.w3.org/2000/svg">
    <g fillRule="nonzero" fill="none">
        <path fill="#FFF" d="M0 0h134v134H0z"/>
        <path d="M99.662 20.666c11.806 8.609 21.592 20.6 23.922 33.973 2.486 13.528-2.485 28.132-10.252 40.89-7.767 12.913-18.486 23.828-31.38 28.593-13.048 4.765-28.272 3.382-41.476-2.152-13.204-5.534-24.389-14.911-28.272-26.287-3.884-11.375-.466-24.595 2.64-37.2 3.107-12.606 5.748-24.596 13.36-33.974 7.612-9.223 19.884-15.987 32.933-16.755 13.048-.769 26.874 4.304 38.525 12.912z" fill="#F9F9F9"/>
        <path fill="#FFF" d="m50.948 105.385 4.1-13.958h24.016l4.686 13.958"/>
        <path fill="#E1E1E1" d="m53.042 98.406 3.576-6.979h20.95l4.088 6.98"/>
        <rect fill="#FFF" x="23.031" y="34.896" width="88.06" height="57.201" rx="7"/>
        <path d="M104.112 34.198a7.677 7.677 0 0 1 7.677 7.677v43.242a7.677 7.677 0 0 1-7.677 7.677H30.01a7.677 7.677 0 0 1-7.677-7.677V41.875a7.677 7.677 0 0 1 7.677-7.677h74.102zm0 1.396H30.01a6.281 6.281 0 0 0-6.28 6.281v43.242a6.281 6.281 0 0 0 6.28 6.281h74.102a6.281 6.281 0 0 0 6.281-6.28V41.874a6.281 6.281 0 0 0-6.281-6.281z" fill="#4C4C4C"/>
        <path d="M23.031 43.27v-1.395a6.98 6.98 0 0 1 6.98-6.98h74.1a6.98 6.98 0 0 1 6.98 6.98v1.396" stroke="#4C4C4C" stroke-width="1.4" fill="#E1E1E1"/>
        <path fill="#FFF" d="m78.86 92.096 4.604 12.712"/>
        <path fill="#4C4C4C" d="m79.279 91.203.237.656 4.605 12.71.237.657-1.312.476-.238-.657-4.604-12.71-.238-.657z"/>
        <path fill="#FFF" d="m51.233 104.808 4.029-12.712"/>
        <path fill="#4C4C4C" d="m54.808 91.22 1.33.422-.21.665-4.03 12.712-.21.665-1.33-.422.21-.665 4.029-12.711zM111.667 42.573v1.396h-.698l-87.65.003h-.698v-1.396h.698l87.65-.003z"/>
        <path d="M64.376 52.167a2.484 2.484 0 0 1 1.992-.717l8.065.766a2.484 2.484 0 0 1 2.24 2.251l.72 8.012a2.484 2.484 0 0 1-.718 1.979L63.603 77.529c-.97.97-2.542.97-3.512 0l-8.783-8.782a2.484 2.484 0 0 1 0-3.513l13.068-13.067z" fill="#D83C28"/>
        <circle fill="#4C4C4C" cx="67.061" cy="39.229" r="1"/>
        <path d="M72.15 56.946a1.227 1.227 0 1 0-1.736 1.736 1.227 1.227 0 0 0 1.736-1.736z" fill="#FFF"/>
        <g transform="translate(60.719 64.208)">
            <circle fill="#E1E1E1" cx="9.422" cy="9.422" r="8.724"/>
            <path d="M9.422 0a9.422 9.422 0 1 1 0 18.844A9.422 9.422 0 0 1 9.422 0zm0 1.396a8.026 8.026 0 1 0 0 16.052 8.026 8.026 0 0 0 0-16.052z" fill="#4C4C4C"/>
            <path d="m9.14 4.934-.03.801-.034-.002c-1.202-.043-2.19.954-2.23 2.16-.04 1.207.873 2.27 2.075 2.314l.6.02.603.024c.412.015.752.372.735.869-.017.497-.375.824-.788.81l-.424-.016-.008-.001-.014-.001-.024-.002h-.016l-1.805-.065a.698.698 0 1 0-.044 1.397l1.122.038-.025.807a.699.699 0 0 0 1.395.046l.025-.818c1.096-.08 1.964-1.022 2.002-2.15.04-1.207-.88-2.27-2.081-2.313l-.6-.02-.602-.023c-.412-.015-.748-.374-.731-.87.016-.498.373-.824.785-.809l2.29.084a.696.696 0 0 0 .72-.675.698.698 0 0 0-.67-.724l-.861-.03.027-.803a.696.696 0 1 0-1.392-.048z" fill="#4C4C4C"/>
        </g>
        <path d="M94.219 104.688a.698.698 0 0 1 0 1.395H39.78a.698.698 0 1 1 0-1.395H94.22z" fill="#4C4C4C"/>
    </g>
</svg>
