<svg width="21" height="21" viewBox="0 0 21 21" fill="none" xmlns="http://www.w3.org/2000/svg">
<g id="Symbols">
<path id="Shape" fill-rule="evenodd" clip-rule="evenodd" d="M17.2708 0.0839844C19.2843 0.0839844 20.9166 1.71628 20.9166 3.72982V17.2715C20.9166 19.285 19.2843 20.9173 17.2708 20.9173H3.72909C1.71555 20.9173 0.083252 19.285 0.083252 17.2715V3.72982C0.083252 1.71628 1.71555 0.0839844 3.72909 0.0839844H17.2708ZM17.2708 1.33398H14.6791L14.679 8.19926L14.6599 8.40865C14.6457 8.51228 14.6224 8.57105 14.5526 8.74736L14.3389 8.98216C13.8613 9.49593 13.7578 9.47792 12.8787 9.32483L10.355 8.09336L8.16271 9.26829L7.97543 9.34695C7.9027 9.3747 7.851 9.38767 7.77378 9.39753L7.57154 9.41657L7.16084 9.29395C6.59199 9.1092 6.55308 8.97422 6.31958 8.16437L6.31971 1.33398H3.72909C2.4059 1.33398 1.33325 2.40664 1.33325 3.72982V17.2715C1.33325 18.5947 2.4059 19.6673 3.72909 19.6673H17.2708C18.5939 19.6673 19.6666 18.5947 19.6666 17.2715V3.72982C19.6666 2.40664 18.5939 1.33398 17.2708 1.33398ZM13.4291 1.33398H7.56971L7.57265 8.16633L9.95992 6.88802C10.1614 6.78008 10.3975 6.76252 10.6107 6.83644L10.7005 6.87372L13.429 8.19914L13.4291 1.33398Z" fill="#4C4C4C"/>
</g>
</svg>
