<svg width="20" height="21" viewBox="0 0 20 21" fill="none" xmlns="http://www.w3.org/2000/svg">
<g id="Lista prod">
<rect id="Rectangle 2175" x="0.416667" y="5.08268" width="8.33333" height="10.8333" rx="1.25" stroke="#4C4C4C" stroke-width="0.833333"/>
<path id="Vector 13" d="M3.75033 8.41667C3.75033 8.69444 3.91699 9.25 4.58366 9.25C5.25033 9.25 5.41699 8.69444 5.41699 8.41667M3.33366 8C2.7781 8 1.66699 8.16667 1.66699 8.83333C1.66699 9.27387 1.66699 9.73866 1.66699 10.0834C1.66699 10.3136 1.85354 10.5 2.08366 10.5H2.50033C2.73044 10.5 2.91699 10.6865 2.91699 10.9167V13C2.91699 13.2301 3.10354 13.4167 3.33366 13.4167H6.25033C6.48044 13.4167 6.66699 13.2301 6.66699 13V10.9167C6.66699 10.6865 6.85354 10.5 7.08366 10.5H7.61668C7.79602 10.5 7.96058 10.3848 7.97392 10.206C7.9991 9.86849 7.91699 9.47408 7.91699 8.83335C7.91699 8.0001 6.25033 7.99991 5.41699 8H3.33366Z" stroke="#4C4C4C" stroke-width="0.833333" stroke-linecap="round"/>
<rect id="Rectangle 2176" x="10.4167" y="5.08268" width="8.33333" height="10.8333" rx="1.25" stroke="#4C4C4C" stroke-width="0.833333"/>
<path id="Vector 14" d="M13.7503 8.41667C13.7503 8.69444 13.917 9.25 14.5837 9.25C15.2503 9.25 15.417 8.69444 15.417 8.41667M13.3337 8C12.7781 8 11.667 8.16667 11.667 8.83333C11.667 9.27387 11.667 9.73866 11.667 10.0834C11.667 10.3136 11.8535 10.5 12.0837 10.5H12.5003C12.7304 10.5 12.917 10.6865 12.917 10.9167V13C12.917 13.2301 13.1035 13.4167 13.3337 13.4167H16.2503C16.4804 13.4167 16.667 13.2301 16.667 13V10.9167C16.667 10.6865 16.8535 10.5 17.0837 10.5H17.6167C17.796 10.5 17.9606 10.3848 17.9739 10.206C17.9991 9.86849 17.917 9.47408 17.917 8.83335C17.917 8.0001 16.2503 7.99991 15.417 8H13.3337Z" stroke="#4C4C4C" stroke-width="0.833333" stroke-linecap="round"/>
</g>
</svg>
