<svg width="17" height="17" viewBox="0 0 17 17" fill="none" xmlns="http://www.w3.org/2000/svg">
<g id="Group">
<path id="Vector" d="M8.2475 0.639101C7.98018 0.831406 7.55443 1.13959 6.84404 1.65733C6.59899 1.83485 6.26483 2.07646 6.10147 2.1948C5.71533 2.4734 5.11632 2.90732 4.97523 3.01087C4.8688 3.0873 4.6782 3.22537 4.02722 3.6938C3.87623 3.80475 3.69553 3.93788 3.62623 3.98719C3.5594 4.03897 3.27474 4.2436 2.99504 4.4433C2.71534 4.64547 2.41088 4.86736 2.31435 4.93639C2.22029 5.00789 1.68811 5.3925 1.13366 5.79437C0.0321781 6.59071 0 6.6129 0 6.63509C0 6.64249 0.448019 6.64989 0.995047 6.64989H1.98762L2.28712 6.43539C2.45296 6.31705 2.68811 6.1494 2.8094 6.05818C2.93316 5.96942 3.13118 5.82396 3.25247 5.7352C3.37375 5.64891 3.53464 5.53303 3.61138 5.47633C3.93068 5.24458 4.71286 4.67752 4.94553 4.50987C5.17573 4.34222 5.29949 4.25346 5.82919 3.86885C6.52473 3.36343 6.98018 3.03306 7.24008 2.84569C7.40344 2.72734 7.65344 2.54736 7.79701 2.44135C8.4975 1.931 8.49008 1.93593 8.56186 1.98031C8.59651 2.0025 9.00245 2.29589 9.46284 2.62872C10.8638 3.64203 11.5668 4.15238 11.8391 4.35208C11.9381 4.42358 12.0668 4.51727 12.1287 4.55918C12.2673 4.65533 13.094 5.25444 13.3292 5.42948C13.4257 5.50098 13.7302 5.72287 14.0099 5.92258C14.2896 6.12228 14.5965 6.34417 14.6906 6.41567C15.0519 6.67947 14.8861 6.64989 16.0148 6.64989C16.6262 6.64989 17.0049 6.64002 17 6.6277C16.9975 6.6129 16.0396 5.91518 14.8762 5.07199C13.7128 4.22881 12.6881 3.4867 12.599 3.4226C12.5099 3.3585 12.2871 3.19578 12.1039 3.06265C11.9208 2.92951 11.7079 2.77419 11.6312 2.71995C11.4331 2.57695 11.151 2.37232 10.5693 1.95319C10.0866 1.60309 9.74007 1.35408 9.4678 1.15192C9.23017 0.976868 8.62621 0.542948 8.56186 0.5035C8.49998 0.461587 8.4975 0.464053 8.2475 0.639101Z" fill="#4C4C4C"/>
<path id="Vector_2" d="M2.13364 13.046C2.11136 13.0633 2.10394 13.2088 2.10889 13.6945C2.113 14.0416 2.39539 14.321 2.74258 14.3214L8.50986 14.3281L14.2624 14.3325C14.615 14.3328 14.9009 14.047 14.9009 13.6945C14.9009 13.1348 14.896 13.0534 14.8613 13.0411C14.8019 13.0189 2.17077 13.0238 2.13364 13.046Z" fill="#4C4C4C"/>
<path id="Vector_3" d="M0.301948 15.7189C0.307785 16.1404 0.516483 16.3559 0.938064 16.3558C2.17496 16.3555 5.07236 16.355 8.52717 16.355H16.0668C16.4208 16.355 16.7078 16.068 16.7078 15.714C16.7078 15.3599 16.4208 15.0729 16.0668 15.0729H8.50242H0.942966C0.587011 15.0729 0.29922 15.3629 0.301948 15.7189Z" fill="#4C4C4C"/>
<path id="Vector_4" d="M3.94525 6.21927C3.53554 6.22154 3.30585 6.44863 3.30604 6.85835C3.3063 7.45519 3.30664 8.41664 3.30664 9.51971L3.30664 12.1587C3.30664 12.5141 3.59477 12.8023 3.9502 12.8023C4.30563 12.8023 4.59377 12.5141 4.59377 12.1587L4.59377 9.50978L4.59377 6.8658C4.59377 6.50796 4.3031 6.21818 3.94525 6.21927Z" fill="#4C4C4C"/>
<path id="Vector_5" d="M8.66742 6.21927C8.25771 6.22154 8.02802 6.44863 8.0282 6.85835C8.02847 7.45519 8.02881 8.41664 8.02881 9.51971L8.02881 12.1587C8.02881 12.5141 8.31694 12.8023 8.67237 12.8023C9.0278 12.8023 9.31594 12.5141 9.31594 12.1587L9.31594 9.50978L9.31594 6.8658C9.31594 6.50796 9.02526 6.21818 8.66742 6.21927Z" fill="#4C4C4C"/>
<path id="Vector_6" d="M13.3896 6.21927C12.9799 6.22154 12.7502 6.44863 12.7504 6.85835C12.7506 7.45519 12.751 8.41664 12.751 9.51971L12.751 12.1587C12.751 12.5141 13.0391 12.8023 13.3945 12.8023C13.75 12.8023 14.0381 12.5141 14.0381 12.1587L14.0381 9.50978L14.0381 6.8658C14.0381 6.50796 13.7474 6.21818 13.3896 6.21927Z" fill="#4C4C4C"/>
</g>
</svg>
