<svg width="18" height="18" viewBox="0 0 18 18" fill="none" xmlns="http://www.w3.org/2000/svg">
<path d="M16.7832 11.5459C16.3737 13.1634 15.0436 14.3542 13.3925 14.5848C13.1849 14.6137 12.9735 14.6319 12.7639 14.6319C10.9196 14.6358 9.07439 14.6348 7.23009 14.6338C6.83221 14.6338 6.57176 14.4522 6.48046 14.1216C6.36513 13.7055 6.66594 13.2816 7.09842 13.2586C7.257 13.2499 7.41654 13.2547 7.57608 13.2547C9.30793 13.2547 11.0398 13.2566 12.7707 13.2547C13.9903 13.2528 14.9811 12.5531 15.3886 11.4171C15.971 9.79485 14.7812 7.97169 13.0638 7.85637C12.8898 7.84483 12.7149 7.83907 12.54 7.83907C9.59529 7.8381 6.65153 7.83907 3.7068 7.83907H3.48479C3.54822 7.90634 3.58474 7.94478 3.62127 7.98227C4.19887 8.55987 4.77744 9.13651 5.35312 9.717C5.64432 10.0111 5.67315 10.3821 5.43673 10.6742C5.20223 10.9635 4.7784 11.0125 4.48431 10.7828C4.4276 10.7386 4.37667 10.6877 4.32573 10.6377C3.35505 9.66799 2.38533 8.69826 1.4156 7.72758C1.02829 7.34027 1.02829 6.96545 1.41464 6.5791C2.39974 5.594 3.38388 4.6089 4.36898 3.62476C4.66211 3.3326 5.03404 3.29512 5.32621 3.52097C5.62798 3.75451 5.6818 4.18122 5.44634 4.48204C5.40213 4.53874 5.3512 4.58968 5.30026 4.64062C4.74476 5.19708 4.1883 5.75258 3.6328 6.30904C3.59339 6.34844 3.55591 6.38977 3.48479 6.46377C3.57802 6.46377 3.63568 6.46377 3.69238 6.46377C6.69285 6.46377 9.69428 6.46473 12.6947 6.46281C13.2608 6.46281 13.8125 6.53585 14.3353 6.75594C15.5664 7.27299 16.3795 8.17064 16.7543 9.45463C16.8562 9.85636 16.9523 10.8174 16.7812 11.5459H16.7832Z" fill="#4C4C4C"/>
</svg>
