<svg width="21" height="21" viewBox="0 0 21 21" fill="none" xmlns="http://www.w3.org/2000/svg">
<g id="Symbols">
<g id="UI2/Men&#195;&#186;/Open">
<g id="Group-5">
<g id="Icon/Men&#195;&#186;/Dashboard-">
<path id="Shape" fill-rule="evenodd" clip-rule="evenodd" d="M8.56566 10.1659C9.19478 10.1659 9.70478 10.6759 9.70478 11.305V20.5807C9.70478 20.7605 9.55906 20.9062 9.37932 20.9062H6.01566C5.83591 20.9062 5.69019 20.7605 5.69019 20.5807V11.305C5.69019 10.6759 6.20019 10.1659 6.82931 10.1659H8.56566ZM2.96119 16.89C3.59031 16.89 4.10031 17.4 4.10031 18.0291V20.5807C4.10031 20.7605 3.95459 20.9062 3.77484 20.9062H0.411184C0.231435 20.9062 0.0857205 20.7605 0.0857205 20.5807V18.0291C0.0857205 17.4 0.595722 16.89 1.22484 16.89H2.96119ZM14.1718 13.5263C14.8009 13.5263 15.3109 14.0363 15.3109 14.6655V20.5807C15.3109 20.7605 15.1652 20.9062 14.9854 20.9062H11.6218C11.442 20.9062 11.2963 20.7605 11.2963 20.5807V14.6655C11.2963 14.0363 11.8063 13.5263 12.4354 13.5263H14.1718ZM19.7762 6.80064C20.4054 6.80064 20.9154 7.31064 20.9154 7.93976V20.5807C20.9154 20.7605 20.7696 20.9062 20.5899 20.9062H17.2262C17.0465 20.9062 16.9008 20.7605 16.9008 20.5807V7.93976C16.9008 7.31064 17.4108 6.80064 18.0399 6.80064H19.7762ZM8.45478 11.4159H6.94019V19.6555H8.45478V11.4159ZM2.8503 18.14H1.33572V19.6556H2.8503V18.14ZM14.0609 14.7763H12.5463V19.6555H14.0609V14.7763ZM19.6653 8.05064H18.1508V19.6558H19.6653V8.05064ZM20.195 0.549467C20.9975 1.21864 21.1521 2.39167 20.5504 3.24592C20.0222 3.9959 19.0662 4.27974 18.2314 3.97902L15.0541 7.84753L15.0918 7.91424C15.4455 8.61559 15.3616 9.47973 14.8372 10.1049C14.2048 10.8588 13.1188 11.0423 12.2738 10.5381C11.5057 10.0798 11.1432 9.17634 11.3564 8.32885L9.04153 6.94006C8.47432 7.45447 7.6597 7.59798 6.95198 7.31099L3.78013 11.0892L3.78995 11.1031C4.14431 11.6691 4.19703 12.3826 3.91375 13.002C3.58769 13.715 2.87621 14.1728 2.0922 14.174C1.2461 14.175 0.490298 13.6451 0.202768 12.8494C-0.0847624 12.0536 0.157776 11.163 0.809091 10.623C1.37561 10.1532 2.14548 10.0365 2.81592 10.2969L5.98675 6.49369C5.54381 5.76971 5.60117 4.82785 6.16219 4.15948C6.79456 3.40611 7.88007 3.22275 8.72481 3.72662C9.46307 4.16698 9.82685 5.01857 9.6649 5.83664L12.037 7.25617C12.6246 6.77463 13.444 6.66588 14.1416 6.98985L17.2447 3.20794L17.212 3.15981C16.7229 2.38473 16.8182 1.35674 17.4786 0.68441C18.2108 -0.0610038 19.3925 -0.119708 20.195 0.549467ZM1.60697 11.5852C1.36141 11.7888 1.26997 12.1246 1.37838 12.4246C1.48678 12.7246 1.77173 12.9244 2.09022 12.924C2.38581 12.9235 2.65405 12.751 2.77698 12.4821C2.88303 12.2503 2.86484 11.981 2.76959 11.8251L2.56867 11.5413L2.36327 11.4621C2.10891 11.3633 1.81882 11.4095 1.60697 11.5852ZM12.8293 8.22301L12.6301 8.38503L12.5686 8.63373C12.497 8.91861 12.5992 9.21835 12.8243 9.40165L12.9144 9.46467C13.2325 9.65452 13.6414 9.58542 13.8795 9.30157C14.0743 9.06928 14.1104 8.74413 14.0039 8.52977L13.8301 8.22253L13.6151 8.12355C13.3565 8.00348 13.0491 8.04291 12.8293 8.22301ZM7.11961 4.96313C6.91043 5.21233 6.88522 5.56707 7.05302 5.84134L7.18325 6.05586L7.42171 6.15261C7.65242 6.24616 7.91516 6.21642 8.11853 6.07939L8.20179 6.01414L8.3895 5.84232L8.4387 5.59389C8.4933 5.3181 8.38825 5.03507 8.17107 4.86036L8.08447 4.80015C7.76641 4.61044 7.35771 4.67947 7.11961 4.96313ZM18.3704 1.56036C18.1238 1.81138 18.0837 2.199 18.2456 2.45693L18.4239 2.7194L18.6551 2.803C18.9369 2.90453 19.2523 2.82761 19.4571 2.61297L19.5285 2.5261C19.7553 2.20403 19.697 1.76178 19.3945 1.50949C19.0919 1.2572 18.6464 1.27933 18.3704 1.56036Z" fill="#4C4C4C"/>
</g>
</g>
</g>
</g>
</svg>
