<svg width="15" height="15" viewBox="0 0 15 15" fill="none" xmlns="http://www.w3.org/2000/svg">
<path fill-rule="evenodd" clip-rule="evenodd" d="M10.3325 9.75618L14.5366 14.0188C14.6491 14.1327 14.6491 14.3174 14.5366 14.4315C14.4804 14.4884 14.4067 14.517 14.3331 14.517C14.2595 14.517 14.1858 14.4884 14.1296 14.4315L9.92549 10.1689C8.95592 11.0543 7.67763 11.5984 6.27319 11.5984C3.25747 11.5984 0.803955 9.11077 0.803955 6.05311C0.803955 2.99545 3.25747 0.507812 6.27319 0.507812C9.28891 0.507812 11.7424 2.99545 11.7424 6.05308C11.7424 7.47706 11.2057 8.77315 10.3325 9.75618ZM1.37968 6.05311C1.37968 8.78897 3.57512 11.0147 6.27319 11.0147C8.97125 11.0147 11.1667 8.789 11.1667 6.05311C11.1667 3.31722 8.97125 1.09152 6.27319 1.09152C3.57512 1.09152 1.37968 3.31725 1.37968 6.05311Z" fill="black"/>
<path d="M14.5366 14.0188L14.3586 14.1943L14.3586 14.1943L14.5366 14.0188ZM10.3325 9.75618L10.1456 9.59014L9.99019 9.76511L10.1545 9.93173L10.3325 9.75618ZM14.5366 14.4315L14.7146 14.607L14.7146 14.607L14.5366 14.4315ZM14.1296 14.4315L14.3076 14.2559L14.3076 14.2559L14.1296 14.4315ZM9.92549 10.1689L10.1035 9.99335L9.93455 9.82207L9.75691 9.98429L9.92549 10.1689ZM11.7424 6.05308L11.9924 6.05308L11.9924 6.05308L11.7424 6.05308ZM14.7146 13.8432L10.5105 9.58062L10.1545 9.93173L14.3586 14.1943L14.7146 13.8432ZM14.7146 14.607C14.923 14.3956 14.9231 14.0545 14.7146 13.8432L14.3586 14.1943C14.375 14.211 14.3751 14.2392 14.3586 14.2559L14.7146 14.607ZM14.3331 14.767C14.4715 14.767 14.6099 14.7131 14.7146 14.607L14.3587 14.2559C14.3509 14.2638 14.342 14.267 14.3331 14.267V14.767ZM13.9516 14.607C14.0563 14.7132 14.1947 14.767 14.3331 14.767V14.267C14.3242 14.267 14.3153 14.2637 14.3076 14.2559L13.9516 14.607ZM9.74749 10.3444L13.9516 14.607L14.3076 14.2559L10.1035 9.99335L9.74749 10.3444ZM6.27319 11.8484C7.7438 11.8484 9.08131 11.2783 10.0941 10.3535L9.75691 9.98429C8.83054 10.8302 7.61147 11.3484 6.27319 11.3484V11.8484ZM0.553955 6.05311C0.553955 9.24557 3.11615 11.8484 6.27319 11.8484V11.3484C3.39878 11.3484 1.05396 8.97596 1.05396 6.05311H0.553955ZM6.27319 0.257812C3.11615 0.257812 0.553955 2.86064 0.553955 6.05311H1.05396C1.05396 3.13025 3.39878 0.757812 6.27319 0.757812V0.257812ZM11.9924 6.05308C11.9924 2.86064 9.43022 0.257812 6.27319 0.257812V0.757812C9.14759 0.757812 11.4924 3.13025 11.4924 6.05308L11.9924 6.05308ZM10.5194 9.92221C11.4313 8.89563 11.9924 7.54114 11.9924 6.05308H11.4924C11.4924 7.41298 10.9801 8.65068 10.1456 9.59014L10.5194 9.92221ZM6.27319 10.7647C3.71643 10.7647 1.62968 8.65416 1.62968 6.05311H1.12968C1.12968 8.92378 3.43382 11.2647 6.27319 11.2647V10.7647ZM10.9167 6.05311C10.9167 8.65418 8.82994 10.7647 6.27319 10.7647V11.2647C9.11256 11.2647 11.4167 8.92381 11.4167 6.05311H10.9167ZM6.27319 1.34152C8.82994 1.34152 10.9167 3.45203 10.9167 6.05311H11.4167C11.4167 3.18241 9.11256 0.841518 6.27319 0.841518V1.34152ZM1.62968 6.05311C1.62968 3.45206 3.71643 1.34152 6.27319 1.34152V0.841518C3.43382 0.841518 1.12968 3.18244 1.12968 6.05311H1.62968Z" fill="#C3C3C3"/>
</svg>
