<svg width="16" height="16" viewBox="0 0 16 16" fill="none" xmlns="http://www.w3.org/2000/svg">
<g id="Icon/share">
<path id="Shape" d="M5.57847 1.66667C5.85462 1.66667 6.07847 1.89052 6.07847 2.16667C6.07847 2.44281 5.85462 2.66667 5.57847 2.66667H3.25006C2.00717 2.66667 1 3.67191 1 4.91145V12.7537C1 13.9933 2.00717 14.9985 3.25006 14.9985L11.0964 14.9985C12.3393 14.9912 13.3405 13.9801 13.3333 12.7408L13.326 10.6668C13.326 10.3906 13.5498 10.1668 13.826 10.1668C14.1021 10.1668 14.326 10.3906 14.326 10.6668L14.3334 12.7347C14.3438 14.5269 12.897 15.9879 11.0994 15.9985H3.25006C1.45531 15.9985 0 14.546 0 12.7537V4.91145C0 3.11919 1.45531 1.66667 3.25006 1.66667H5.57847ZM16 0V7.16667C16 7.44281 15.7761 7.66667 15.5 7.66667C15.2239 7.66667 15 7.44281 15 7.16667V1.70667L7.93689 8.77022C7.74162 8.96548 7.42504 8.96548 7.22978 8.77022C7.03452 8.57496 7.03452 8.25838 7.22978 8.06311L14.2917 1H8.83333C8.58481 1 8.37863 0.818675 8.33988 0.581103L8.33333 0.5C8.33333 0.223858 8.55719 0 8.83333 0H16Z" fill="#4C4C4C"/>
</g>
</svg>
