<svg width="19" height="16" viewBox="0 0 19 16" fill="none" xmlns="http://www.w3.org/2000/svg">
<g id="Vector">
<mask id="path-1-outside-1_192_1924" maskUnits="userSpaceOnUse" x="0" y="-0.341309" width="19" height="16" fill="black">
<rect fill="white" y="-0.341309" width="19" height="16"/>
<path d="M17.9991 3.74007C17.9988 3.73728 17.9985 3.73449 17.9982 3.73174C17.9977 3.72785 17.9971 3.724 17.9964 3.72014C17.9959 3.71711 17.9952 3.71412 17.9946 3.71113C17.9939 3.70813 17.9929 3.70424 17.9919 3.7008C17.9909 3.69736 17.9899 3.6943 17.9889 3.69109C17.9878 3.68789 17.9867 3.685 17.9854 3.68197C17.9841 3.67895 17.9826 3.67509 17.981 3.67165C17.9798 3.66893 17.9785 3.66625 17.9771 3.6636C17.9753 3.66015 17.9734 3.65671 17.9714 3.65327C17.9705 3.65179 17.9698 3.65024 17.9689 3.64876L16.3747 1.08267C16.2118 0.818286 15.9222 0.657596 15.6107 0.658697H3.70737C3.42296 0.659248 3.15549 0.793403 2.98562 1.02062L1.0407 3.63438C1.03984 3.63551 1.03918 3.63672 1.03835 3.63782C1.03611 3.64098 1.03397 3.64422 1.03189 3.64749C1.03027 3.65007 1.02868 3.65262 1.02716 3.65523C1.02533 3.65843 1.0237 3.66167 1.02204 3.66494C1.02039 3.66821 1.01914 3.67069 1.01783 3.67361C1.01652 3.67654 1.0152 3.67988 1.01396 3.68304C1.01272 3.68621 1.01151 3.68948 1.0105 3.69275C1.0095 3.69602 1.00864 3.6988 1.00781 3.70183C1.00698 3.70486 1.00584 3.70872 1.00504 3.71247C1.00442 3.71536 1.00387 3.71828 1.00339 3.72121C1.00266 3.72506 1.00207 3.72892 1.00159 3.73281C1.00124 3.73556 1.00104 3.73835 1.00079 3.74114C1.00052 3.74523 1.00028 3.74933 1.00021 3.75342C1.00021 3.75473 1 3.756 1 3.75731V4.85599C1.00515 5.65941 1.61649 6.33022 2.41882 6.41285V14.3083C2.4194 14.8071 2.82523 15.2112 3.32597 15.2118H15.674C16.1747 15.2112 16.5805 14.8071 16.5811 14.3083V6.41268C17.3905 6.3296 18.0044 5.64819 18 4.83775V3.75735C18 3.75573 17.9998 3.75415 17.9997 3.75253C17.9996 3.74836 17.9994 3.74423 17.9991 3.74007ZM16.0222 1.29994L17.4205 3.55078H15.1531L13.8329 1.07163H15.6107C15.7785 1.07101 15.9344 1.15749 16.0222 1.29994ZM8.28986 1.07163L7.51127 3.55085H4.35005L5.94098 1.07163H8.28986ZM10.2755 1.07163L11.0541 3.55085H7.94578L8.72436 1.07163H10.2755ZM13.3636 1.07163L14.6835 3.55085H11.4884L10.71 1.07163H13.3636ZM7.87097 3.96385H11.1289V5.15121C11.1295 6.04731 10.4006 6.77419 9.50094 6.77474C8.60128 6.77529 7.87152 6.04931 7.87097 5.15321C7.87097 5.1529 7.87097 5.15259 7.87097 5.15231V3.96385ZM4.1985 3.96385H7.45633V5.15142C7.46076 6.04748 6.73504 6.77746 5.83542 6.78186C4.9358 6.78627 4.20293 6.06342 4.1985 5.16735C4.19847 5.1624 4.19847 5.15741 4.1985 5.15245V3.96385ZM5.35534 7.12981C6.2881 7.35806 7.25323 6.90043 7.66348 6.03537C8.14857 7.04549 9.3639 7.47267 10.378 6.9895C10.8046 6.7863 11.1467 6.44152 11.3459 6.01441C11.6846 6.72618 12.4023 7.18216 13.1931 7.18801C13.345 7.18712 13.4964 7.16929 13.6444 7.13487V11.4187C13.6441 11.6894 13.4239 11.9088 13.1522 11.9092H5.84768C5.57582 11.9089 5.35551 11.6895 5.3552 11.4187L5.35534 7.12981ZM13.1932 6.77491C12.2964 6.76772 11.571 6.0457 11.5632 5.15245V3.96385H14.8211V5.15142C14.814 6.04432 14.0896 6.76672 13.1932 6.77491ZM3.31871 1.26653C3.41018 1.14418 3.55423 1.07194 3.70737 1.07163H5.44884L3.85795 3.55085H1.61891L3.31871 1.26653ZM1.41453 4.85351V3.96385H3.76414V4.83906C3.76739 5.4803 3.24895 6.00316 2.60516 6.00791H2.58063C1.93943 6.0078 1.41858 5.49218 1.41453 4.85351ZM15.6739 14.7988H3.3259C3.05404 14.7985 2.83369 14.5791 2.83338 14.3083V6.40318C3.25496 6.33954 3.63291 6.10912 3.88162 5.76417C4.05459 6.29594 4.43682 6.73502 4.94081 6.98093V11.4187C4.94139 11.9174 5.34701 12.3215 5.84768 12.3222H13.1522C13.6529 12.3216 14.0587 11.9174 14.0593 11.4187V6.99056C14.5665 6.74948 14.9536 6.31346 15.1317 5.78255C15.3805 6.1179 15.7526 6.3413 16.1665 6.4037V14.3083C16.1662 14.5791 15.9458 14.7985 15.674 14.7988H15.6739ZM17.5853 4.83906C17.5893 5.48058 17.0705 6.00391 16.4264 6.00791H16.4264H16.4091C15.7652 6.01152 15.2401 5.49486 15.2357 4.85351V3.96385H17.5853V4.83906Z"/>
</mask>
<path d="M17.9991 3.74007C17.9988 3.73728 17.9985 3.73449 17.9982 3.73174C17.9977 3.72785 17.9971 3.724 17.9964 3.72014C17.9959 3.71711 17.9952 3.71412 17.9946 3.71113C17.9939 3.70813 17.9929 3.70424 17.9919 3.7008C17.9909 3.69736 17.9899 3.6943 17.9889 3.69109C17.9878 3.68789 17.9867 3.685 17.9854 3.68197C17.9841 3.67895 17.9826 3.67509 17.981 3.67165C17.9798 3.66893 17.9785 3.66625 17.9771 3.6636C17.9753 3.66015 17.9734 3.65671 17.9714 3.65327C17.9705 3.65179 17.9698 3.65024 17.9689 3.64876L16.3747 1.08267C16.2118 0.818286 15.9222 0.657596 15.6107 0.658697H3.70737C3.42296 0.659248 3.15549 0.793403 2.98562 1.02062L1.0407 3.63438C1.03984 3.63551 1.03918 3.63672 1.03835 3.63782C1.03611 3.64098 1.03397 3.64422 1.03189 3.64749C1.03027 3.65007 1.02868 3.65262 1.02716 3.65523C1.02533 3.65843 1.0237 3.66167 1.02204 3.66494C1.02039 3.66821 1.01914 3.67069 1.01783 3.67361C1.01652 3.67654 1.0152 3.67988 1.01396 3.68304C1.01272 3.68621 1.01151 3.68948 1.0105 3.69275C1.0095 3.69602 1.00864 3.6988 1.00781 3.70183C1.00698 3.70486 1.00584 3.70872 1.00504 3.71247C1.00442 3.71536 1.00387 3.71828 1.00339 3.72121C1.00266 3.72506 1.00207 3.72892 1.00159 3.73281C1.00124 3.73556 1.00104 3.73835 1.00079 3.74114C1.00052 3.74523 1.00028 3.74933 1.00021 3.75342C1.00021 3.75473 1 3.756 1 3.75731V4.85599C1.00515 5.65941 1.61649 6.33022 2.41882 6.41285V14.3083C2.4194 14.8071 2.82523 15.2112 3.32597 15.2118H15.674C16.1747 15.2112 16.5805 14.8071 16.5811 14.3083V6.41268C17.3905 6.3296 18.0044 5.64819 18 4.83775V3.75735C18 3.75573 17.9998 3.75415 17.9997 3.75253C17.9996 3.74836 17.9994 3.74423 17.9991 3.74007ZM16.0222 1.29994L17.4205 3.55078H15.1531L13.8329 1.07163H15.6107C15.7785 1.07101 15.9344 1.15749 16.0222 1.29994ZM8.28986 1.07163L7.51127 3.55085H4.35005L5.94098 1.07163H8.28986ZM10.2755 1.07163L11.0541 3.55085H7.94578L8.72436 1.07163H10.2755ZM13.3636 1.07163L14.6835 3.55085H11.4884L10.71 1.07163H13.3636ZM7.87097 3.96385H11.1289V5.15121C11.1295 6.04731 10.4006 6.77419 9.50094 6.77474C8.60128 6.77529 7.87152 6.04931 7.87097 5.15321C7.87097 5.1529 7.87097 5.15259 7.87097 5.15231V3.96385ZM4.1985 3.96385H7.45633V5.15142C7.46076 6.04748 6.73504 6.77746 5.83542 6.78186C4.9358 6.78627 4.20293 6.06342 4.1985 5.16735C4.19847 5.1624 4.19847 5.15741 4.1985 5.15245V3.96385ZM5.35534 7.12981C6.2881 7.35806 7.25323 6.90043 7.66348 6.03537C8.14857 7.04549 9.3639 7.47267 10.378 6.9895C10.8046 6.7863 11.1467 6.44152 11.3459 6.01441C11.6846 6.72618 12.4023 7.18216 13.1931 7.18801C13.345 7.18712 13.4964 7.16929 13.6444 7.13487V11.4187C13.6441 11.6894 13.4239 11.9088 13.1522 11.9092H5.84768C5.57582 11.9089 5.35551 11.6895 5.3552 11.4187L5.35534 7.12981ZM13.1932 6.77491C12.2964 6.76772 11.571 6.0457 11.5632 5.15245V3.96385H14.8211V5.15142C14.814 6.04432 14.0896 6.76672 13.1932 6.77491ZM3.31871 1.26653C3.41018 1.14418 3.55423 1.07194 3.70737 1.07163H5.44884L3.85795 3.55085H1.61891L3.31871 1.26653ZM1.41453 4.85351V3.96385H3.76414V4.83906C3.76739 5.4803 3.24895 6.00316 2.60516 6.00791H2.58063C1.93943 6.0078 1.41858 5.49218 1.41453 4.85351ZM15.6739 14.7988H3.3259C3.05404 14.7985 2.83369 14.5791 2.83338 14.3083V6.40318C3.25496 6.33954 3.63291 6.10912 3.88162 5.76417C4.05459 6.29594 4.43682 6.73502 4.94081 6.98093V11.4187C4.94139 11.9174 5.34701 12.3215 5.84768 12.3222H13.1522C13.6529 12.3216 14.0587 11.9174 14.0593 11.4187V6.99056C14.5665 6.74948 14.9536 6.31346 15.1317 5.78255C15.3805 6.1179 15.7526 6.3413 16.1665 6.4037V14.3083C16.1662 14.5791 15.9458 14.7985 15.674 14.7988H15.6739ZM17.5853 4.83906C17.5893 5.48058 17.0705 6.00391 16.4264 6.00791H16.4264H16.4091C15.7652 6.01152 15.2401 5.49486 15.2357 4.85351V3.96385H17.5853V4.83906Z" fill="#4C4C4C"/>
<path d="M17.9991 3.74007C17.9988 3.73728 17.9985 3.73449 17.9982 3.73174C17.9977 3.72785 17.9971 3.724 17.9964 3.72014C17.9959 3.71711 17.9952 3.71412 17.9946 3.71113C17.9939 3.70813 17.9929 3.70424 17.9919 3.7008C17.9909 3.69736 17.9899 3.6943 17.9889 3.69109C17.9878 3.68789 17.9867 3.685 17.9854 3.68197C17.9841 3.67895 17.9826 3.67509 17.981 3.67165C17.9798 3.66893 17.9785 3.66625 17.9771 3.6636C17.9753 3.66015 17.9734 3.65671 17.9714 3.65327C17.9705 3.65179 17.9698 3.65024 17.9689 3.64876L16.3747 1.08267C16.2118 0.818286 15.9222 0.657596 15.6107 0.658697H3.70737C3.42296 0.659248 3.15549 0.793403 2.98562 1.02062L1.0407 3.63438C1.03984 3.63551 1.03918 3.63672 1.03835 3.63782C1.03611 3.64098 1.03397 3.64422 1.03189 3.64749C1.03027 3.65007 1.02868 3.65262 1.02716 3.65523C1.02533 3.65843 1.0237 3.66167 1.02204 3.66494C1.02039 3.66821 1.01914 3.67069 1.01783 3.67361C1.01652 3.67654 1.0152 3.67988 1.01396 3.68304C1.01272 3.68621 1.01151 3.68948 1.0105 3.69275C1.0095 3.69602 1.00864 3.6988 1.00781 3.70183C1.00698 3.70486 1.00584 3.70872 1.00504 3.71247C1.00442 3.71536 1.00387 3.71828 1.00339 3.72121C1.00266 3.72506 1.00207 3.72892 1.00159 3.73281C1.00124 3.73556 1.00104 3.73835 1.00079 3.74114C1.00052 3.74523 1.00028 3.74933 1.00021 3.75342C1.00021 3.75473 1 3.756 1 3.75731V4.85599C1.00515 5.65941 1.61649 6.33022 2.41882 6.41285V14.3083C2.4194 14.8071 2.82523 15.2112 3.32597 15.2118H15.674C16.1747 15.2112 16.5805 14.8071 16.5811 14.3083V6.41268C17.3905 6.3296 18.0044 5.64819 18 4.83775V3.75735C18 3.75573 17.9998 3.75415 17.9997 3.75253C17.9996 3.74836 17.9994 3.74423 17.9991 3.74007ZM16.0222 1.29994L17.4205 3.55078H15.1531L13.8329 1.07163H15.6107C15.7785 1.07101 15.9344 1.15749 16.0222 1.29994ZM8.28986 1.07163L7.51127 3.55085H4.35005L5.94098 1.07163H8.28986ZM10.2755 1.07163L11.0541 3.55085H7.94578L8.72436 1.07163H10.2755ZM13.3636 1.07163L14.6835 3.55085H11.4884L10.71 1.07163H13.3636ZM7.87097 3.96385H11.1289V5.15121C11.1295 6.04731 10.4006 6.77419 9.50094 6.77474C8.60128 6.77529 7.87152 6.04931 7.87097 5.15321C7.87097 5.1529 7.87097 5.15259 7.87097 5.15231V3.96385ZM4.1985 3.96385H7.45633V5.15142C7.46076 6.04748 6.73504 6.77746 5.83542 6.78186C4.9358 6.78627 4.20293 6.06342 4.1985 5.16735C4.19847 5.1624 4.19847 5.15741 4.1985 5.15245V3.96385ZM5.35534 7.12981C6.2881 7.35806 7.25323 6.90043 7.66348 6.03537C8.14857 7.04549 9.3639 7.47267 10.378 6.9895C10.8046 6.7863 11.1467 6.44152 11.3459 6.01441C11.6846 6.72618 12.4023 7.18216 13.1931 7.18801C13.345 7.18712 13.4964 7.16929 13.6444 7.13487V11.4187C13.6441 11.6894 13.4239 11.9088 13.1522 11.9092H5.84768C5.57582 11.9089 5.35551 11.6895 5.3552 11.4187L5.35534 7.12981ZM13.1932 6.77491C12.2964 6.76772 11.571 6.0457 11.5632 5.15245V3.96385H14.8211V5.15142C14.814 6.04432 14.0896 6.76672 13.1932 6.77491ZM3.31871 1.26653C3.41018 1.14418 3.55423 1.07194 3.70737 1.07163H5.44884L3.85795 3.55085H1.61891L3.31871 1.26653ZM1.41453 4.85351V3.96385H3.76414V4.83906C3.76739 5.4803 3.24895 6.00316 2.60516 6.00791H2.58063C1.93943 6.0078 1.41858 5.49218 1.41453 4.85351ZM15.6739 14.7988H3.3259C3.05404 14.7985 2.83369 14.5791 2.83338 14.3083V6.40318C3.25496 6.33954 3.63291 6.10912 3.88162 5.76417C4.05459 6.29594 4.43682 6.73502 4.94081 6.98093V11.4187C4.94139 11.9174 5.34701 12.3215 5.84768 12.3222H13.1522C13.6529 12.3216 14.0587 11.9174 14.0593 11.4187V6.99056C14.5665 6.74948 14.9536 6.31346 15.1317 5.78255C15.3805 6.1179 15.7526 6.3413 16.1665 6.4037V14.3083C16.1662 14.5791 15.9458 14.7985 15.674 14.7988H15.6739ZM17.5853 4.83906C17.5893 5.48058 17.0705 6.00391 16.4264 6.00791H16.4264H16.4091C15.7652 6.01152 15.2401 5.49486 15.2357 4.85351V3.96385H17.5853V4.83906Z" stroke="#4C4C4C" stroke-width="0.4" mask="url(#path-1-outside-1_192_1924)"/>
</g>
</svg>
