<svg width="49" height="32" viewBox="0 0 49 32" fill="none" xmlns="http://www.w3.org/2000/svg">
<g clip-path="url(#clip0_1_4313)">
<path d="M20.2484 11.8037H23.7663C23.8445 11.8037 24.0008 11.8037 24.079 11.8819C24.079 11.8819 24.079 11.8819 24.079 11.9601V18.7614V21.5757V25.25V25.7191V26.1099V27.9862C24.079 28.377 24.4699 28.6897 24.8608 28.5334L25.408 28.377C26.8934 27.8298 28.6132 27.2044 30.724 26.5008C30.724 26.4226 30.8021 26.3445 30.8021 26.2663V25.7191V25.25V11.9601V11.8819V11.8037V1.87541C30.8021 1.5627 30.5676 1.25 30.1767 1.25H27.1279C26.8934 1.25 26.6588 1.40635 26.5807 1.64088C25.6425 4.45521 23.7663 6.56596 20.952 7.03502C20.7175 7.11319 20.4829 7.11319 20.2484 7.11319C19.9357 7.11319 19.7012 7.4259 19.7012 7.7386V11.1002C19.7012 11.491 19.9357 11.8037 20.2484 11.8037Z" fill="#D93A26"/>
<path d="M24.8599 0.234528C24.7818 0.0781759 24.5472 0 24.3909 0H9.77199H9.22476H1.32899C0.625407 0 0 0.547231 0 1.17264V5.47231C0 5.70684 0.234528 5.86319 0.469055 5.86319H9.30293V9.14658V28.5342C9.30293 28.6906 9.38111 28.8469 9.61563 28.9251C11.7264 29.7068 13.759 30.4886 15.3225 31.2704C15.557 31.4267 15.8697 31.1922 15.8697 30.8795V6.8013C15.8697 6.72313 15.8697 6.72313 15.8697 6.64495C15.7915 6.41042 15.9479 6.09772 16.1824 5.94137C16.2606 5.94137 16.3388 5.94137 16.4169 5.94137H18.9186C24.3909 5.39414 24.9381 1.17264 25.0163 0.703583V0.625407V0.547231C25.0163 0.390879 24.9381 0.312704 24.8599 0.234528Z" fill="#D93A26"/>
<path fill-rule="evenodd" clip-rule="evenodd" d="M37.9187 16.5156C37.8148 16.5416 37.7128 16.5682 37.6135 16.5958C37.1313 18.1981 36.7701 20.2878 36.7227 22.9904C36.7227 22.9904 36.9342 19.4381 37.9187 16.5156Z" fill="#282828"/>
<path fill-rule="evenodd" clip-rule="evenodd" d="M34.7934 22.9486C34.8474 22.9605 34.9024 22.9777 34.9577 22.9978C34.9128 22.9416 34.8678 22.8861 34.824 22.8277C34.824 22.8277 37.8575 24.229 40.0843 23.744C40.0843 23.744 36.1891 23.6852 34.3027 21.8496C34.3326 21.9207 34.3623 21.9917 34.3916 22.063C34.5046 22.3399 34.6269 22.6634 34.7934 22.9486Z" fill="#282828"/>
<path fill-rule="evenodd" clip-rule="evenodd" d="M41.5208 12.749C41.5208 12.749 44.6314 12.6951 44.7898 21.8045C44.7898 21.8045 45.0006 13.8944 42.3643 12.3515C42.3643 12.3515 42.3947 12.3548 42.4498 12.3647C41.9164 12.0046 41.075 11.9204 40.3165 11.9282C39.8354 12.3185 38.5952 13.5384 37.7051 16.3033C37.8102 16.2779 37.915 16.2535 38.0185 16.2313C38.7394 14.2285 39.8434 12.5969 41.5208 12.749Z" fill="#282828"/>
<path fill-rule="evenodd" clip-rule="evenodd" d="M37.6116 16.5954C37.6417 16.496 37.6721 16.3985 37.7028 16.3027C36.3517 16.63 34.8787 17.227 33.4854 18.2759C33.432 18.7032 33.4395 19.1446 33.5193 19.5996C33.8536 18.8252 34.8333 17.3705 37.6116 16.5954Z" fill="#282828"/>
<path fill-rule="evenodd" clip-rule="evenodd" d="M42.7325 16.0906C42.7325 16.0906 40.6432 15.6659 38.0174 16.2311C37.9834 16.3253 37.9502 16.4198 37.918 16.5154C39.1585 16.2062 40.7327 16.0291 42.7325 16.0906Z" fill="#282828"/>
<path fill-rule="evenodd" clip-rule="evenodd" d="M45.1807 16.2275C45.1807 16.7057 44.8014 17.0936 44.3334 17.0936C43.8655 17.0936 43.4863 16.7057 43.4863 16.2275C43.4863 15.7491 43.8655 15.3613 44.3334 15.3613C44.8014 15.3613 45.1807 15.7491 45.1807 16.2275Z" fill="#282828"/>
<path fill-rule="evenodd" clip-rule="evenodd" d="M39.4693 14.0665C39.4693 14.5305 39.1015 14.9065 38.6478 14.9065C38.194 14.9065 37.8262 14.5305 37.8262 14.0665C37.8262 13.6026 38.194 13.2266 38.6478 13.2266C39.1015 13.2266 39.4693 13.6026 39.4693 14.0665Z" fill="#282828"/>
<path fill-rule="evenodd" clip-rule="evenodd" d="M37.8262 20.0872C37.8262 20.5872 37.4297 20.9925 36.9404 20.9925C36.4512 20.9925 36.0547 20.5872 36.0547 20.0872C36.0547 19.5872 36.4512 19.1816 36.9404 19.1816C37.4297 19.1816 37.8262 19.5872 37.8262 20.0872Z" fill="#282828"/>
<path fill-rule="evenodd" clip-rule="evenodd" d="M42.0887 23.7457C42.0887 24.2157 41.7162 24.5968 41.2563 24.5968C40.7966 24.5968 40.4238 24.2157 40.4238 23.7457C40.4238 23.2757 40.7966 22.8945 41.2563 22.8945C41.7162 22.8945 42.0887 23.2757 42.0887 23.7457Z" fill="#282828"/>
<path fill-rule="evenodd" clip-rule="evenodd" d="M45.2659 23.3142C45.2659 23.6709 44.9829 23.9601 44.6338 23.9601C44.2849 23.9601 44.002 23.6709 44.002 23.3142C44.002 22.9574 44.2849 22.668 44.6338 22.668C44.9829 22.668 45.2659 22.9574 45.2659 23.3142Z" fill="#282828"/>
<path fill-rule="evenodd" clip-rule="evenodd" d="M42.5208 24.5967C42.5208 24.5967 34.3486 19.1137 35.5613 15.5544C35.5613 15.5544 36.2474 13.3469 41.2559 14.9078C41.2559 14.9078 44.9462 16.1167 46.3171 17.2359C46.3171 17.2359 37.9338 11.7298 35.0868 14.9078C35.0868 14.9078 32.0815 17.6319 42.5208 24.5967Z" fill="#282828"/>
<path fill-rule="evenodd" clip-rule="evenodd" d="M33.4301 18.4846C33.4301 22.0676 36.4778 24.9987 40.2871 24.9987C44.0966 24.9987 47.1444 22.0676 47.1444 18.4846C47.1444 14.9019 44.0966 11.9708 40.2871 11.9708C36.4778 11.9708 33.4301 14.9019 33.4301 18.4846ZM31.9062 18.4848C31.9062 14.1205 35.7158 10.668 40.2872 10.668C44.8586 10.668 48.6682 14.1205 48.6682 18.4848C48.6682 22.8493 44.8586 26.3018 40.2872 26.3018C35.7158 26.3018 31.9062 22.8493 31.9062 18.4848Z" fill="#282828"/>
</g>
<defs>
<clipPath id="clip0_1_4313">
<rect width="48.7619" height="32" fill="white"/>
</clipPath>
</defs>
</svg>
