<svg width="83" height="25" viewBox="0 0 83 25" fill="none" xmlns="http://www.w3.org/2000/svg">
<g clip-path="url(#clip0_1_18868)">
<path fill-rule="evenodd" clip-rule="evenodd" d="M13.4182 11.5441H15.7705C15.8407 11.5441 15.9084 11.5632 15.9675 11.5974C15.9669 11.6077 15.966 11.6177 15.966 11.6281V16.1353V18.025V20.4552V20.7773V21.0365V22.3013C15.966 22.5641 16.2211 22.7515 16.4719 22.6729L16.8389 22.558C17.8098 22.1744 18.9682 21.7609 20.3433 21.3295C20.3677 21.2783 20.3818 21.2218 20.3818 21.1623V20.7773V20.4552V11.6281C20.3818 11.6102 20.3807 11.5926 20.3787 11.5753V11.5441H20.3818V4.99835C20.3818 4.77973 20.2046 4.60254 19.9861 4.60254H17.9609C17.7911 4.60254 17.6404 4.71129 17.5863 4.87218C16.9652 6.72074 15.7413 8.11324 13.8604 8.44997C13.7066 8.4774 13.5484 8.49785 13.3858 8.51099C13.1806 8.52747 13.0225 8.69907 13.0225 8.90497V11.1483C13.0225 11.3669 13.1998 11.5441 13.4182 11.5441Z" fill="#DB3B2B"/>
<path fill-rule="evenodd" clip-rule="evenodd" d="M16.482 3.89681C16.3936 3.8064 16.2722 3.75049 16.138 3.75049H6.44872H6.08446H0.86882C0.388976 3.75049 0 4.10291 0 4.53766V7.37302C0 7.52732 0.138123 7.65244 0.30847 7.65244H6.14527V9.83552C6.14527 9.84405 6.14356 9.85148 6.14288 9.85943V22.7112C6.14288 22.8292 6.22019 22.933 6.33292 22.9678C7.78045 23.4164 9.08788 23.9578 10.1235 24.4386C10.3016 24.5213 10.5049 24.3912 10.5049 24.1948V8.26655C10.5049 8.23443 10.4988 8.20289 10.492 8.17155C10.4543 7.99776 10.5222 7.79546 10.6963 7.7261C10.7361 7.71026 10.7814 7.70142 10.8323 7.70142H12.5031C12.5093 7.70071 12.5137 7.70026 12.5137 7.70026C16.1499 7.34558 16.5229 4.53698 16.5535 4.21917C16.5544 4.20153 16.5551 4.18433 16.556 4.1668V4.08914C16.556 4.01762 16.5312 3.94703 16.482 3.89681Z" fill="#DB3B2B"/>
<path fill-rule="evenodd" clip-rule="evenodd" d="M65.987 12.6196L65.4658 15.1399C65.4658 15.3921 65.6703 15.473 65.9222 15.473H66.4998C66.7524 15.473 66.9562 15.3921 66.9562 15.1399L66.4351 12.6196H65.987Z" fill="#1C1E1E"/>
<path fill-rule="evenodd" clip-rule="evenodd" d="M66.9562 12.8922C66.9562 13.3038 66.6229 13.6376 66.2113 13.6376C65.7998 13.6376 65.4658 13.3038 65.4658 12.8922C65.4658 12.4806 65.7998 12.147 66.2113 12.147C66.6229 12.147 66.9562 12.4806 66.9562 12.8922Z" fill="#1C1E1E"/>
<path fill-rule="evenodd" clip-rule="evenodd" d="M70.0692 4.41334C70.0692 2.15658 68.2525 0.320557 66.0192 0.320557C63.7864 0.320557 61.9697 2.15658 61.9697 4.41334V9.52729H63.2622V4.41334C63.2622 2.86917 64.4993 1.61297 66.0192 1.61297C67.5397 1.61297 68.7769 2.86917 68.7769 4.41334V6.13663H68.7782C68.7775 6.14711 68.7769 6.15747 68.7769 6.16806C68.7769 6.41312 68.9756 6.61177 69.2205 6.61177H69.6256C69.8705 6.61177 70.0692 6.41312 70.0692 6.16806C70.0692 6.15747 70.0686 6.14711 70.0673 6.13663H70.0692V4.41334Z" fill="#1C1E1E"/>
<path fill-rule="evenodd" clip-rule="evenodd" d="M23.0342 12.5982C23.0342 14.879 24.9289 16.7452 27.297 16.7452C29.6652 16.7452 31.5598 14.879 31.5598 12.5982C31.5598 10.3173 29.6652 8.45113 27.3207 8.45113C24.9524 8.4303 23.0816 10.3173 23.0342 12.5982ZM23.0342 9.75748C23.9815 8.45113 25.5683 7.601 27.3207 7.62171C30.139 7.62171 32.507 9.81972 32.507 12.5982C32.507 15.3766 30.139 17.5747 27.297 17.5747C25.5445 17.5747 23.9815 16.7452 23.0342 15.4597V21.0168V21.4314H22.0869V21.0168V12.5982V8.03632V7.62171H23.0342V8.03632V9.75748Z" fill="#1C1E1E"/>
<path d="M23.0339 12.5984L22.6172 12.5897V12.5984H23.0339ZM27.3204 8.45126L27.3167 8.86793H27.3204V8.45126ZM23.0339 9.75761H22.6172V11.042L23.3712 10.0022L23.0339 9.75761ZM27.3204 7.62184L27.3154 8.0385H27.3204V7.62184ZM23.0339 15.4598L23.3693 15.2126L22.6172 14.1919V15.4598H23.0339ZM23.0339 21.4315V21.8482H23.4506V21.4315H23.0339ZM22.0866 21.4315H21.6699V21.8482H22.0866V21.4315ZM22.0866 7.62184V7.20517H21.6699V7.62184H22.0866ZM23.0339 7.62184H23.4506V7.20517H23.0339V7.62184ZM22.6172 12.5984C22.6172 15.1186 24.7078 17.162 27.2967 17.162V16.3287C25.1493 16.3287 23.4506 14.6398 23.4506 12.5984H22.6172ZM27.2967 17.162C29.8857 17.162 31.9761 15.1186 31.9761 12.5984H31.1428C31.1428 14.6398 29.4442 16.3287 27.2967 16.3287V17.162ZM31.9761 12.5984C31.9761 10.0796 29.8872 8.03459 27.3204 8.03459V8.86793C29.4426 8.86793 31.1428 10.5554 31.1428 12.5984H31.9761ZM27.324 8.03466C24.724 8.01177 22.6693 10.0843 22.6172 12.5897L23.4505 12.607C23.4932 10.5506 25.1802 8.84915 27.3167 8.86793L27.324 8.03466ZM23.3712 10.0022C24.2408 8.80306 25.7011 8.0194 27.3154 8.0385L27.3253 7.20523C25.4348 7.18286 23.7216 8.09953 22.6966 9.51299L23.3712 10.0022ZM27.3204 8.0385C29.929 8.0385 32.0901 10.07 32.0901 12.5984H32.9234C32.9234 9.56972 30.3482 7.20517 27.3204 7.20517V8.0385ZM32.0901 12.5984C32.0901 15.1255 29.9303 17.1581 27.2967 17.1581V17.9915C30.347 17.9915 32.9234 15.6281 32.9234 12.5984H32.0901ZM27.2967 17.1581C25.6767 17.1581 24.2381 16.3916 23.3693 15.2126L22.6984 15.707C23.7242 17.0991 25.4118 17.9915 27.2967 17.9915V17.1581ZM22.6172 15.4598V21.0169H23.4506V15.4598H22.6172ZM22.6172 21.0169V21.4315H23.4506V21.0169H22.6172ZM23.0339 21.0149H22.0866V21.8482H23.0339V21.0149ZM22.5033 21.4315V21.0169H21.6699V21.4315H22.5033ZM22.5033 21.0169V12.5984H21.6699V21.0169H22.5033ZM22.5033 12.5984V8.03645H21.6699V12.5984H22.5033ZM22.5033 8.03645V7.62184H21.6699V8.03645H22.5033ZM22.0866 8.0385H23.0339V7.20517H22.0866V8.0385ZM22.6172 7.62184V8.03645H23.4506V7.62184H22.6172ZM22.6172 8.03645V9.75761H23.4506V8.03645H22.6172Z" fill="#1C1E1E"/>
<path fill-rule="evenodd" clip-rule="evenodd" d="M35.3497 12.5984C35.3497 14.8791 37.2442 16.7454 39.6124 16.7454C41.9806 16.7454 43.8751 14.8791 43.8751 12.5984C43.8751 10.3175 41.9806 8.45125 39.6124 8.45125C37.2442 8.45125 35.3497 10.3175 35.3497 12.5984ZM34.4023 12.5984C34.4023 9.81984 36.7706 7.62183 39.6124 7.62183C41.3648 7.62183 42.9278 8.45125 43.8751 9.73683V8.03644V7.62183H44.8223V8.03644V12.5984V17.1602V17.5748H43.8751V17.1602V15.4598C42.9278 16.7454 41.3648 17.5748 39.6124 17.5748C36.7706 17.5748 34.4023 15.3768 34.4023 12.5984Z" fill="#1C1E1E"/>
<path d="M43.8748 9.73674L43.5393 9.98392L44.2914 11.0046V9.73674H43.8748ZM43.8748 7.62175V7.20508H43.4581V7.62175H43.8748ZM44.822 7.62175H45.2387V7.20508H44.822V7.62175ZM44.822 17.5747V17.9914H45.2387V17.5747H44.822ZM43.8748 17.5747H43.4581V17.9914H43.8748V17.5747ZM43.8748 15.4597H44.2914V14.1918L43.5393 15.2125L43.8748 15.4597ZM34.9327 12.5983C34.9327 15.1184 37.0231 17.1619 39.6121 17.1619V16.3286C37.4646 16.3286 35.766 14.6397 35.766 12.5983H34.9327ZM39.6121 17.1619C42.201 17.1619 44.2914 15.1184 44.2914 12.5983H43.4581C43.4581 14.6397 41.7595 16.3286 39.6121 16.3286V17.1619ZM44.2914 12.5983C44.2914 10.078 42.201 8.0345 39.6121 8.0345V8.86784C41.7595 8.86784 43.4581 10.5567 43.4581 12.5983H44.2914ZM39.6121 8.0345C37.0231 8.0345 34.9327 10.078 34.9327 12.5983H35.766C35.766 10.5567 37.4646 8.86784 39.6121 8.86784V8.0345ZM34.8187 12.5983C34.8187 10.0711 36.9786 8.03841 39.6121 8.03841V7.20508C36.562 7.20508 33.9854 9.56841 33.9854 12.5983H34.8187ZM39.6121 8.03841C41.2321 8.03841 42.6705 8.80489 43.5393 9.98392L44.2102 9.48957C43.1845 8.09745 41.497 7.20508 39.6121 7.20508V8.03841ZM44.2914 9.73674V8.03636H43.4581V9.73674H44.2914ZM44.2914 8.03636V7.62175H43.4581V8.03636H44.2914ZM43.8748 8.03841H44.822V7.20508H43.8748V8.03841ZM44.4054 7.62175V8.03636H45.2387V7.62175H44.4054ZM44.4054 8.03636V12.5983H45.2387V8.03636H44.4054ZM44.4054 12.5983V17.1601H45.2387V12.5983H44.4054ZM44.4054 17.1601V17.5747H45.2387V17.1601H44.4054ZM44.822 17.158H43.8748V17.9914H44.822V17.158ZM44.2914 17.5747V17.1601H43.4581V17.5747H44.2914ZM44.2914 17.1601V15.4597H43.4581V17.1601H44.2914ZM43.5393 15.2125C42.6705 16.3916 41.2321 17.158 39.6121 17.158V17.9914C41.497 17.9914 43.1845 17.099 44.2102 15.7069L43.5393 15.2125ZM39.6121 17.158C36.9786 17.158 34.8187 15.1253 34.8187 12.5983H33.9854C33.9854 15.628 36.562 17.9914 39.6121 17.9914V17.158Z" fill="#1C1E1E"/>
<path fill-rule="evenodd" clip-rule="evenodd" d="M48.6112 12.5984C48.6112 14.8791 50.5059 16.7454 52.8741 16.7454C55.2423 16.7454 57.1368 14.8791 57.1368 12.5984C57.1368 10.3175 55.2423 8.45125 52.8741 8.45125C50.5059 8.45125 48.6112 10.3175 48.6112 12.5984ZM47.6641 12.5984C47.6641 9.81984 50.0322 7.62183 52.8741 7.62183C54.6266 7.62183 56.1896 8.45125 57.1368 9.73683V8.03644V7.64253H58.1315L58.1078 8.05727L58.0841 17.1602C58.0841 18.9434 56.0712 21.4109 52.8978 21.4315H52.4241V20.6021H52.8978C55.4553 20.5814 57.1368 18.6115 57.1368 17.1602V15.4598C56.1896 16.7454 54.6266 17.5748 52.8741 17.5748C50.0322 17.5748 47.6641 15.3768 47.6641 12.5984Z" fill="#1C1E1E"/>
<path d="M57.1365 9.73674L56.801 9.98392L57.5532 11.0046V9.73674H57.1365ZM57.1365 7.64245V7.22578H56.7198V7.64245H57.1365ZM58.1312 7.64245L58.5471 7.66623L58.5723 7.22578H58.1312V7.64245ZM58.1075 8.05719L57.6915 8.03341L57.6909 8.04476L57.6908 8.0561L58.1075 8.05719ZM58.0838 17.1601L57.6671 17.159V17.1601H58.0838ZM52.8975 21.4314V21.8481H52.9002L52.8975 21.4314ZM52.4237 21.4314H52.0071V21.8481H52.4237V21.4314ZM52.4237 20.602V20.1853H52.0071V20.602H52.4237ZM52.8975 20.602V21.0187H52.9009L52.8975 20.602ZM57.1365 15.4597H57.5532V14.1918L56.801 15.2125L57.1365 15.4597ZM48.1942 12.5983C48.1942 15.1185 50.2848 17.1619 52.8738 17.1619V16.3286C50.7263 16.3286 49.0276 14.6397 49.0276 12.5983H48.1942ZM52.8738 17.1619C55.4627 17.1619 57.5532 15.1184 57.5532 12.5983H56.7198C56.7198 14.6397 55.0212 16.3286 52.8738 16.3286V17.1619ZM57.5532 12.5983C57.5532 10.078 55.4627 8.0345 52.8738 8.0345V8.86784C55.0212 8.86784 56.7198 10.5567 56.7198 12.5983H57.5532ZM52.8738 8.0345C50.2848 8.0345 48.1942 10.078 48.1942 12.5983H49.0276C49.0276 10.5567 50.7264 8.86784 52.8738 8.86784V8.0345ZM48.0804 12.5983C48.0804 10.0711 50.2402 8.03841 52.8738 8.03841V7.20508C49.8235 7.20508 47.2471 9.56848 47.2471 12.5983H48.0804ZM52.8738 8.03841C54.4938 8.03841 55.9323 8.80489 56.801 9.98392L57.4719 9.48957C56.4462 8.09745 54.7587 7.20508 52.8738 7.20508V8.03841ZM57.5532 9.73674V8.03636H56.7198V9.73674H57.5532ZM57.5532 8.03636V7.64245H56.7198V8.03636H57.5532ZM57.1365 8.05912H58.1312V7.22578H57.1365V8.05912ZM57.7151 7.61873L57.6915 8.03341L58.5235 8.08098L58.5471 7.66623L57.7151 7.61873ZM57.6908 8.0561L57.6671 17.159L58.5005 17.1612L58.5241 8.05828L57.6908 8.0561ZM57.6671 17.1601C57.6671 17.9081 57.2348 18.8673 56.3959 19.6525C55.5673 20.4282 54.3696 21.0052 52.8948 21.0148L52.9002 21.8481C54.5988 21.8371 55.9943 21.1699 56.9654 20.2609C57.9263 19.3614 58.5005 18.1953 58.5005 17.1601H57.6671ZM52.8975 21.0148H52.4237V21.8481H52.8975V21.0148ZM52.8404 21.4314V20.602H52.0071V21.4314H52.8404ZM52.4237 21.0187H52.8975V20.1853H52.4237V21.0187ZM52.9009 21.0187C54.2894 21.0074 55.4464 20.4662 56.2572 19.7251C57.0575 18.9935 57.5532 18.0339 57.5532 17.1601H56.7198C56.7198 17.7376 56.3747 18.4886 55.695 19.11C55.0256 19.7218 54.0631 20.1758 52.8941 20.1853L52.9009 21.0187ZM57.5532 17.1601V15.4597H56.7198V17.1601H57.5532ZM56.801 15.2125C55.9323 16.3916 54.4938 17.158 52.8738 17.158V17.9914C54.7587 17.9914 56.4462 17.099 57.4719 15.7069L56.801 15.2125ZM52.8738 17.158C50.2402 17.158 48.0804 15.1253 48.0804 12.5983H47.2471C47.2471 15.628 49.8235 17.9914 52.8738 17.9914V17.158Z" fill="#1C1E1E"/>
<path fill-rule="evenodd" clip-rule="evenodd" d="M61.8739 12.5984C61.8739 14.8791 63.7686 16.7454 66.1366 16.7454C68.5052 16.7454 70.3994 14.8791 70.3994 12.5984C70.3994 10.3175 68.5052 8.45125 66.1366 8.45125C63.7686 8.45125 61.8739 10.3175 61.8739 12.5984ZM60.9268 12.5984C60.9268 9.81984 63.2949 7.62183 66.1366 7.62183C68.9789 7.62183 71.3468 9.81984 71.3468 12.5984C71.3468 15.3768 68.9789 17.5748 66.1366 17.5748C63.2949 17.5748 60.9268 15.3768 60.9268 12.5984Z" fill="#1C1E1E"/>
<path d="M61.4569 12.5983C61.4569 15.1185 63.5475 17.1619 66.1362 17.1619V16.3286C63.989 16.3286 62.2903 14.6397 62.2903 12.5983H61.4569ZM66.1362 17.1619C68.7253 17.1619 70.8157 15.1184 70.8157 12.5983H69.9824C69.9824 14.6397 68.2837 16.3286 66.1362 16.3286V17.1619ZM70.8157 12.5983C70.8157 10.078 68.7253 8.0345 66.1362 8.0345V8.86784C68.2837 8.86784 69.9824 10.5567 69.9824 12.5983H70.8157ZM66.1362 8.0345C63.5475 8.0345 61.4569 10.078 61.4569 12.5983H62.2903C62.2903 10.5567 63.989 8.86784 66.1362 8.86784V8.0345ZM61.3431 12.5983C61.3431 10.0711 63.5029 8.03841 66.1362 8.03841V7.20508C63.0862 7.20508 60.5098 9.56848 60.5098 12.5983H61.3431ZM66.1362 8.03841C68.7702 8.03841 70.9298 10.071 70.9298 12.5983H71.7632C71.7632 9.56848 69.1869 7.20508 66.1362 7.20508V8.03841ZM70.9298 12.5983C70.9298 15.1253 68.7702 17.158 66.1362 17.158V17.9914C69.1869 17.9914 71.7632 15.628 71.7632 12.5983H70.9298ZM66.1362 17.158C63.5029 17.158 61.3431 15.1253 61.3431 12.5983H60.5098C60.5098 15.628 63.0862 17.9914 66.1362 17.9914V17.158Z" fill="#1C1E1E"/>
<path fill-rule="evenodd" clip-rule="evenodd" d="M81.6483 10.2966H80.7008C80.7008 9.21837 79.2329 8.45125 77.6457 8.45125C76.0592 8.45125 74.5906 9.21837 74.5906 10.2966C74.5906 12.3287 82.0745 11.997 82.0508 14.9C82.0508 16.2891 80.2271 17.5747 77.6457 17.5747C75.0643 17.5747 73.2412 16.2891 73.2412 14.9H74.1886C74.1886 15.9988 75.8701 16.7453 77.6457 16.7453C79.422 16.7453 81.1034 15.9988 81.1034 14.9C81.1034 12.847 73.6675 13.2204 73.6438 10.2966C73.6438 8.88663 75.3489 7.62183 77.6457 7.62183C79.9431 7.62183 81.6483 8.88663 81.6483 10.2966Z" fill="#1C1E1E"/>
<path fill-rule="evenodd" clip-rule="evenodd" d="M81.6483 10.2966H80.7008C80.7008 9.21837 79.2329 8.45125 77.6457 8.45125C76.0592 8.45125 74.5906 9.21837 74.5906 10.2966C74.5906 12.3287 82.0745 11.997 82.0508 14.9C82.0508 16.2891 80.2271 17.5747 77.6457 17.5747C75.0643 17.5747 73.2412 16.2891 73.2412 14.9H74.1886C74.1886 15.9988 75.8701 16.7453 77.6457 16.7453C79.422 16.7453 81.1034 15.9988 81.1034 14.9C81.1034 12.847 73.6675 13.2204 73.6438 10.2966C73.6438 8.88663 75.3489 7.62183 77.6457 7.62183C79.9431 7.62183 81.6483 8.88663 81.6483 10.2966Z" stroke="#1C1E1E"/>
</g>
<defs>
<clipPath id="clip0_1_18868">
<rect width="82.6923" height="25" fill="white"/>
</clipPath>
</defs>
</svg>
