<svg width="18" height="18" viewBox="0 0 18 18" fill="none" xmlns="http://www.w3.org/2000/svg">
<g id="Icon/trashcan">
<path id="Shape" d="M10.7922 0.791016C11.7534 0.791016 12.5422 1.54226 12.5422 2.48149L12.5416 3.33185L16.9166 3.33268C17.1927 3.33268 17.4166 3.55654 17.4166 3.83268C17.4166 4.10883 17.1927 4.33268 16.9166 4.33268L15.9041 4.33185L15.3356 14.276C15.232 16.0912 13.814 17.539 12.0731 17.539L5.90027 17.539C4.15941 17.539 2.74138 16.0912 2.63782 14.2762L2.06825 4.33185L1.08325 4.33268C0.80711 4.33268 0.583252 4.10883 0.583252 3.83268C0.583252 3.55654 0.80711 3.33268 1.08325 3.33268L5.70825 3.33185L5.70891 2.48149C5.70891 1.54226 6.49772 0.791016 7.45891 0.791016L10.7922 0.791016ZM14.901 4.35649L3.07188 4.35649L3.63619 14.2191C3.71073 15.5256 4.71142 16.539 5.90027 16.539H12.0731C13.262 16.539 14.2626 15.5256 14.3372 14.2191L14.901 4.35649ZM7.33325 5.66602C7.60939 5.66602 7.83325 5.88987 7.83325 6.16602L7.83325 12.8327C7.83325 13.1088 7.60939 13.3327 7.33325 13.3327C7.05711 13.3327 6.83325 13.1088 6.83325 12.8327L6.83325 6.16602C6.83325 5.88987 7.05711 5.66602 7.33325 5.66602ZM10.6666 5.66602C10.9427 5.66602 11.1666 5.88987 11.1666 6.16602V12.8327C11.1666 13.1088 10.9427 13.3327 10.6666 13.3327C10.3904 13.3327 10.1666 13.1088 10.1666 12.8327V6.16602C10.1666 5.88987 10.3904 5.66602 10.6666 5.66602ZM10.7922 1.79102L7.45891 1.79102C7.03939 1.79102 6.70891 2.10576 6.70891 2.48149L6.70891 3.33018L11.5422 3.33018V2.48149C11.5422 2.13466 11.2607 1.8398 10.8874 1.79649L10.7922 1.79102Z" fill="#4C4C4C"/>
</g>
</svg>
