<svg width="16" height="16" viewBox="0 0 16 16" fill="none" xmlns="http://www.w3.org/2000/svg">
<g clip-path="url(#clip0_201_101923)">
<path d="M14.9095 7.76732L14.1942 6.77426C13.8694 6.31807 13.3445 6.04656 12.7845 6.0451H9.74283V4.55899C9.74283 3.60016 8.96554 2.82288 8.00672 2.82288H3.16644C2.20872 2.82555 1.433 3.60127 1.43033 4.55899V11.4618C1.43033 12.0371 1.8967 12.5034 2.47199 12.5034H3.31922C3.42763 13.2716 4.08507 13.8428 4.86088 13.8428C5.6367 13.8428 6.29413 13.2716 6.40255 12.5034H10.2637C10.3721 13.2716 11.0295 13.8428 11.8053 13.8428C12.5811 13.8428 13.2386 13.2716 13.347 12.5034H14.1942C14.7695 12.5034 15.2359 12.0371 15.2359 11.4618V8.77426C15.2342 8.41288 15.1201 8.06098 14.9095 7.76732ZM4.86088 13.1493C4.38147 13.1493 3.99283 12.7606 3.99283 12.2812C3.99283 11.8018 4.38147 11.4132 4.86088 11.4132C5.3403 11.4132 5.72894 11.8018 5.72894 12.2812C5.72894 12.7606 5.3403 13.1493 4.86088 13.1493ZM9.04838 11.809H6.35394C6.14647 11.1594 5.5428 10.7185 4.86088 10.7185C4.17897 10.7185 3.5753 11.1594 3.36783 11.809H2.47199C2.28023 11.809 2.12477 11.6535 2.12477 11.4618V4.55899C2.12477 3.98369 2.59114 3.51732 3.16644 3.51732H8.00672C8.58201 3.51732 9.04838 3.98369 9.04838 4.55899V11.809ZM11.8053 13.1493C11.3259 13.1493 10.9373 12.7606 10.9373 12.2812C10.9373 11.8018 11.3259 11.4132 11.8053 11.4132C12.2847 11.4132 12.6734 11.8018 12.6734 12.2812C12.6734 12.7606 12.2847 13.1493 11.8053 13.1493ZM14.5414 11.4618C14.5414 11.6535 14.386 11.809 14.1942 11.809H13.2984C13.0909 11.1594 12.4872 10.7185 11.8053 10.7185C11.1234 10.7185 10.5197 11.1594 10.3123 11.809H9.74283V6.73954H12.7845C13.1205 6.7418 13.4353 6.90435 13.6317 7.17704L14.347 8.1701C14.472 8.34691 14.5398 8.55775 14.5414 8.77426V11.4618Z" fill="#4C4C4C" stroke="#4C4C4C" stroke-width="0.4"/>
<path d="M12.52 8.47569H11.1311C10.9393 8.47569 10.7838 8.32024 10.7838 8.12847C10.7838 7.93671 10.9393 7.78125 11.1311 7.78125H12.52C12.7117 7.78125 12.8672 7.93671 12.8672 8.12847C12.8672 8.32024 12.7117 8.47569 12.52 8.47569Z" fill="#4C4C4C"/>
</g>
<defs>
<clipPath id="clip0_201_101923">
<rect width="16" height="16" fill="white"/>
</clipPath>
</defs>
</svg>
