<svg width="28" height="27" viewBox="0 0 28 27" fill="none" xmlns="http://www.w3.org/2000/svg">
<path d="M24.1741 15.2935C24.5415 15.2935 24.8394 15.5943 24.8394 15.9654V19.3251C24.8394 21.5442 23.1345 23.3568 21.014 23.3568H5.21335C3.67455 23.3568 2.44131 22.0456 2.44131 20.445V15.9654C2.44131 15.5943 2.73918 15.2935 3.1066 15.2935C3.47403 15.2935 3.77189 15.5943 3.77189 15.9654V20.445C3.77189 21.3184 4.42511 22.0129 5.21335 22.0129H21.014C22.384 22.0129 23.5088 20.817 23.5088 19.3251V15.9654C23.5088 15.5943 23.8067 15.2935 24.1741 15.2935Z" fill="#4C4C4C"/>
<path d="M13.6393 3.646L18.4699 8.47654C18.7323 8.73895 18.7323 9.1644 18.4699 9.42681C18.2075 9.68922 17.782 9.68922 17.5196 9.42681L14.3112 6.21842L14.312 18.2588C14.312 18.6299 14.0112 18.9308 13.6401 18.9308C13.269 18.9308 12.9681 18.6299 12.9681 18.2588L12.9673 6.21842L9.75908 9.42681C9.52291 9.66298 9.15468 9.68659 8.8921 9.49766L8.80881 9.42681C8.5464 9.1644 8.5464 8.73895 8.80881 8.47654L13.6393 3.646Z" fill="#4C4C4C"/>
</svg>
