<svg width="20" height="20" viewBox="0 0 20 20" xmlns="http://www.w3.org/2000/svg">
    <g fill="#DB3B2B" fillRule="nonzero" stroke="#DB3B2B" stroke-width=".2">
        <path d="M10.001 1c.311 0 .563.252.563.562v11.625a.563.563 0 0 1-1.125 0V1.562c0-.31.252-.562.562-.562z"/>
        <path d="M10.002 1c.144 0 .288.055.397.165l3 3a.563.563 0 0 1-.796.796l-2.602-2.603-2.603 2.603a.563.563 0 0 1-.795-.796l3-3A.564.564 0 0 1 10.002 1zM16.937 19H3.063A2.064 2.064 0 0 1 1 16.937v-3.375a.563.563 0 0 1 1.125 0v3.375c0 .517.42.938.938.938h13.874c.517 0 .938-.42.938-.938v-3.375a.563.563 0 0 1 1.125 0v3.375A2.064 2.064 0 0 1 16.937 19z"/>
        <path d="M7.548 10.764v5.098a.562.562 0 1 1-1.125 0v-5.098a.562.562 0 1 1 1.125 0zM13.577 10.765v5.097a.562.562 0 1 1-1.125 0v-5.097a.562.562 0 1 1 1.125 0z"/>
    </g>
</svg>
