<svg width="24" height="25" viewBox="0 0 24 25" fill="none" xmlns="http://www.w3.org/2000/svg">
<ellipse cx="12" cy="12.0091" rx="12" ry="12.0091" fill="#E2EAFF"/>
<path d="M14.7335 9.66406C14.7335 10.9895 13.659 12.0641 12.3335 12.0641C11.008 12.0641 9.9335 10.9895 9.9335 9.66406C9.9335 8.33858 11.008 7.26406 12.3335 7.26406C13.659 7.26406 14.7335 8.33858 14.7335 9.66406Z" stroke="#4C4C4C" stroke-width="1.2"/>
<path d="M10.6371 12.2129L9.53264 12.9491C8.96164 13.3298 8.50803 13.8621 8.22271 14.4862L7.99987 14.9737C7.99987 14.9737 9.31847 17.2812 12.2853 17.2812C15.2522 17.2812 16.5708 15.3033 16.5708 15.3033L16.554 15.2132C16.3556 14.1465 15.698 13.2211 14.7559 12.6828L13.9336 12.2129" stroke="#4C4C4C" stroke-width="1.2" stroke-linecap="round"/>
</svg>
