<svg width="15" height="17" viewBox="0 0 15 17" fill="none" xmlns="http://www.w3.org/2000/svg">
<g id="Group">
<path id="Vector" d="M6.93983 0.713519C4.58134 1.00579 2.87144 3.00295 3.13677 5.15707C3.37262 7.05681 4.9646 8.50733 7.05186 8.72382C9.76412 9.01068 12.1462 6.82949 11.8632 4.32898C11.6509 2.42383 10.0471 0.930014 7.98346 0.713519C7.41743 0.653983 7.44101 0.653983 6.93983 0.713519ZM8.44927 1.9746C9.26295 2.22898 9.87615 2.69986 10.2535 3.34934C10.7901 4.26403 10.7488 5.34651 10.1533 6.25037C9.27474 7.58181 7.32898 7.98774 5.83134 7.15424C4.39856 6.35862 3.93865 4.57795 4.81719 3.23027C5.21813 2.62408 5.77238 2.21816 6.55068 1.9746C6.84549 1.88259 7.07545 1.85553 7.49997 1.85553C7.9245 1.85553 8.15445 1.88259 8.44927 1.9746Z" fill="#4C4C4C"/>
<path id="Vector_2" d="M4.46344 9.48147C3.37264 9.74126 2.02241 10.2067 1.07311 10.6451C0.353774 10.9807 0 11.4678 0 12.1281C0 12.5232 0.0825472 12.756 0.383255 13.1889C1.4092 14.6936 2.94222 15.8194 4.74646 16.4039C5.70755 16.7124 6.35024 16.8098 7.5 16.8098C8.33726 16.8098 8.64387 16.7882 9.13326 16.6907C11.4564 16.2307 13.3726 15.0075 14.6167 13.1889C14.9175 12.756 15 12.5232 15 12.1281C15 11.4462 14.6462 10.9807 13.8502 10.6127C12.8715 10.158 11.191 9.60054 10.2005 9.40028C9.78774 9.3191 9.72288 9.3191 9.38679 9.39487C8.73821 9.54642 8.37854 9.85492 8.08373 10.5098C7.90094 10.9266 7.76533 11.0511 7.5 11.0511C7.23467 11.0511 7.09906 10.9266 6.91627 10.5098C6.62736 9.87116 6.2559 9.55183 5.63679 9.40028C5.20047 9.29745 5.22995 9.29745 4.46344 9.48147ZM5.51297 10.5748C5.56604 10.6127 5.71344 10.8508 5.83726 11.1052C6.22052 11.8629 6.74528 12.2093 7.5 12.2093C8.27241 12.2039 8.79127 11.8467 9.20401 11.0294C9.5342 10.3745 9.58137 10.3691 11.1792 10.8562C12.2229 11.1755 13.408 11.6464 13.6203 11.8196C13.8856 12.0523 13.7205 12.4583 13.0483 13.2377C12.0283 14.4175 10.5896 15.224 8.91509 15.5541C8.18986 15.7003 6.8691 15.7111 6.17335 15.5758C4.23939 15.2023 2.62972 14.2119 1.57429 12.756C1.18514 12.2201 1.14976 12.0036 1.42099 11.7926C1.66274 11.6085 3.125 11.0511 4.08019 10.7804C4.51651 10.656 4.90566 10.5477 4.93514 10.5369C5.08255 10.4936 5.42453 10.5152 5.51297 10.5748Z" fill="#4C4C4C"/>
</g>
</svg>
