<svg width="20" height="21" viewBox="0 0 20 21" fill="none" xmlns="http://www.w3.org/2000/svg">
<g id="video">
<path id="Shape" fill-rule="evenodd" clip-rule="evenodd" d="M15.9031 4.66602C17.2455 4.66602 18.3337 5.51481 18.3337 6.56185V13.6035C18.3337 14.6506 17.2455 15.4993 15.9031 15.4993H4.09755C2.75519 15.4993 1.66699 14.6506 1.66699 13.6035V6.56185C1.66699 5.51481 2.75519 4.66602 4.09755 4.66602H15.9031ZM15.9031 5.49935H4.09755C3.21543 5.49935 2.50033 6.47796 2.50033 7.16602V12.9993C2.50033 13.6874 3.14598 14.666 4.0281 14.666H15.8337C16.7158 14.666 17.5003 13.6874 17.5003 12.9993V7.16602C17.5003 6.47796 16.7852 5.49935 15.9031 5.49935Z" fill="#4C4C4C"/>
<path id="Vector 7 (Stroke)" fill-rule="evenodd" clip-rule="evenodd" d="M7.91699 8.65464C7.91699 8.04496 8.55024 7.64166 9.10273 7.89949L12.856 9.65101C13.4373 9.92227 13.507 10.721 12.9815 11.0889L9.22821 12.8828C8.6759 13.2694 7.91699 12.8743 7.91699 12.2001V8.65464ZM12.5036 10.4062L8.75033 8.65464V12.2001L12.5036 10.4062Z" fill="#4C4C4C"/>
</g>
</svg>
