<svg width="24" height="25" viewBox="0 0 24 25" fill="none" xmlns="http://www.w3.org/2000/svg">
<ellipse cx="12" cy="12.0091" rx="12" ry="12.0091" fill="#E2EAFF"/>
<path fill-rule="evenodd" clip-rule="evenodd" d="M5.875 12C5.875 15.379 8.62156 18.125 12 18.125C15.379 18.125 18.125 15.3784 18.125 12C18.125 8.62101 15.3784 5.875 12 5.875C8.62156 5.875 5.875 8.62156 5.875 12ZM6.72963 12C6.72963 9.09427 9.09427 6.72963 12 6.72963C14.9057 6.72963 17.2704 9.09427 17.2704 12C17.2704 14.9057 14.9057 17.2704 12 17.2704C9.09427 17.2704 6.72963 14.9057 6.72963 12ZM14.0229 14.0512C14.1024 14.1083 14.1879 14.1366 14.2793 14.1366V14.1313C14.4101 14.1313 14.5356 14.0741 14.6211 13.9604C14.7637 13.7724 14.7237 13.5048 14.5356 13.3621L12.4274 11.7837V8.58156C12.4274 8.34815 12.2335 8.15425 12.0001 8.15425C11.7667 8.15425 11.5728 8.34815 11.5728 8.58156V12.0001C11.5728 12.1368 11.6352 12.2623 11.7437 12.3419L14.0229 14.0512Z" fill="#4C4C4C"/>
</svg>
