<svg width="25" height="26" viewBox="0 0 25 26" fill="none" xmlns="http://www.w3.org/2000/svg">
<g id="bi:building-x">
<g id="Group">
<path id="Path" d="M3 3.53888C3 2.77949 3.61561 2.16388 4.375 2.16388H18.125C18.8844 2.16388 19.5 2.77949 19.5 3.53888V12.4764C19.5 12.8561 19.1922 13.1639 18.8125 13.1639C18.4328 13.1639 18.125 12.8561 18.125 12.4764V3.53888H4.375V22.7889H8.5V19.3514C8.5 18.9717 8.8078 18.6639 9.1875 18.6639H11.25V24.1639H4.375C3.61561 24.1639 3 23.5483 3 22.7889V3.53888Z" fill="black"/>
<path id="Shape" fill-rule="evenodd" clip-rule="evenodd" d="M5.75 5.60138C5.75 5.22168 6.0578 4.91388 6.4375 4.91388H7.8125C8.1922 4.91388 8.5 5.22168 8.5 5.60138V6.97638C8.5 7.35608 8.1922 7.66388 7.8125 7.66388H6.4375C6.0578 7.66388 5.75 7.35608 5.75 6.97638V5.60138ZM9.875 5.60138C9.875 5.22168 10.1828 4.91388 10.5625 4.91388H11.9375C12.3172 4.91388 12.625 5.22168 12.625 5.60138V6.97638C12.625 7.35608 12.3172 7.66388 11.9375 7.66388H10.5625C10.1828 7.66388 9.875 7.35608 9.875 6.97638V5.60138ZM14.6875 4.91388C14.3078 4.91388 14 5.22168 14 5.60138V6.97638C14 7.35608 14.3078 7.66388 14.6875 7.66388H16.0625C16.4422 7.66388 16.75 7.35608 16.75 6.97638V5.60138C16.75 5.22168 16.4422 4.91388 16.0625 4.91388H14.6875ZM5.75 9.72638C5.75 9.34668 6.0578 9.03888 6.4375 9.03888H7.8125C8.1922 9.03888 8.5 9.34668 8.5 9.72638V11.1014C8.5 11.4811 8.1922 11.7889 7.8125 11.7889H6.4375C6.0578 11.7889 5.75 11.4811 5.75 11.1014V9.72638ZM10.5625 9.03888C10.1828 9.03888 9.875 9.34668 9.875 9.72638V11.1014C9.875 11.4811 10.1828 11.7889 10.5625 11.7889H11.9375C12.3172 11.7889 12.625 11.4811 12.625 11.1014V9.72638C12.625 9.34668 12.3172 9.03888 11.9375 9.03888H10.5625ZM14 9.72638C14 9.34668 14.3078 9.03888 14.6875 9.03888H16.0625C16.4422 9.03888 16.75 9.34668 16.75 9.72638V11.1014C16.75 11.4811 16.4422 11.7889 16.0625 11.7889H14.6875C14.3078 11.7889 14 11.4811 14 11.1014V9.72638ZM6.4375 13.1639C6.0578 13.1639 5.75 13.4717 5.75 13.8514V15.2264C5.75 15.6061 6.0578 15.9139 6.4375 15.9139H7.8125C8.1922 15.9139 8.5 15.6061 8.5 15.2264V13.8514C8.5 13.4717 8.1922 13.1639 7.8125 13.1639H6.4375ZM9.875 13.8514C9.875 13.4717 10.1828 13.1639 10.5625 13.1639H11.9375C12.3172 13.1639 12.625 13.4717 12.625 13.8514V15.2264C12.625 15.6061 12.3172 15.9139 11.9375 15.9139H10.5625C10.1828 15.9139 9.875 15.6061 9.875 15.2264V13.8514ZM17.4375 24.1639C20.0954 24.1639 22.25 22.0093 22.25 19.3514C22.25 16.6935 20.0954 14.5389 17.4375 14.5389C14.7796 14.5389 12.625 16.6935 12.625 19.3514C12.625 22.0093 14.7796 24.1639 17.4375 24.1639ZM17.4375 18.3793L16.5492 17.4896C16.2804 17.2208 15.8446 17.2208 15.5757 17.4896C15.3069 17.7585 15.3069 18.1943 15.5757 18.4631L16.4654 19.3514L15.5757 20.2396C15.3069 20.5085 15.3069 20.9443 15.5757 21.2131C15.8446 21.482 16.2804 21.482 16.5492 21.2131L17.4375 20.3235L18.3257 21.2131C18.5946 21.482 19.0304 21.482 19.2992 21.2131C19.5681 20.9443 19.5681 20.5085 19.2992 20.2396L18.4096 19.3514L19.2992 18.4631C19.5681 18.1943 19.5681 17.7585 19.2992 17.4896C19.0304 17.2208 18.5946 17.2208 18.3257 17.4896L17.4375 18.3793Z" fill="black"/>
</g>
</g>
</svg>
