<?xml version="1.0" encoding="UTF-8"?>
<svg width="25px" height="25px" viewBox="0 0 25 25" version="1.1" xmlns="http://www.w3.org/2000/svg" xmlns:xlink="http://www.w3.org/1999/xlink">
    <title>icon/home</title>
    <g id="Symbols" stroke="none" stroke-width="1" fill="none" fill-rule="evenodd">
        <g id="menu" transform="translate(-19, -91)" fill="#4C4C4C" stroke="#4C4C4C" stroke-width="0.3">
            <g id="icon/home" transform="translate(21.5, 94.5)">
                <path d="M9.93102381,0 L0.168329862,9.82464592 C0.0252819431,9.96376016 -0.0322934681,10.1699766 0.0177313152,10.3640411 C0.0677560984,10.5581056 0.217596673,10.7098195 0.409665516,10.7608754 C0.60173436,10.8119314 0.806143461,10.7543844 0.944333231,10.6103513 L2.20506392,9.34190324 L2.20506392,17.1534567 C2.20506392,17.4599066 2.45111813,17.7083333 2.75464137,17.7083333 L7.70083849,17.7083333 C8.00436174,17.7083333 8.25041594,17.4599066 8.25041594,17.1534567 L8.25041594,12.3038348 C8.25041594,11.9973849 8.49647015,11.7489581 8.7999934,11.7489581 L10.9983032,11.7489581 C11.3018265,11.7489581 11.5478807,11.9973849 11.5478807,12.3038348 L11.5478807,17.1534567 C11.5478807,17.4599066 11.7939349,17.7083333 12.0974581,17.7083333 L17.0436553,17.7083333 C17.3471785,17.7083333 17.5932327,17.4599066 17.5932327,17.1534567 L17.5932327,9.33358009 L18.8528642,10.6097964 C18.9915821,10.7501491 19.1939248,10.8051218 19.383672,10.7540066 C19.5734191,10.7028915 19.7217435,10.5534541 19.7727728,10.3619863 C19.8238021,10.1705184 19.7697838,9.96610841 19.6310659,9.82575568 L9.93102381,0 Z M16.4940778,8.21994266 L9.92827592,1.56919116 L3.30421883,8.2354792 L3.30421883,16.59858 L7.15126103,16.59858 L7.15126103,12.3038348 C7.15126103,11.3844851 7.88942366,10.6392048 8.7999934,10.6392048 L10.9983032,10.6392048 C11.908873,10.6392048 12.6470356,11.3844851 12.6470356,12.3038348 L12.6470356,16.59858 L16.4940778,16.59858 L16.4940778,8.21994266 Z" id="Shape"></path>
            </g>
        </g>
    </g>
</svg>