<svg width="18" height="18" viewBox="0 0 18 18" fill="none" xmlns="http://www.w3.org/2000/svg">
<g id="Group 2017">
<g id="Vector">
<mask id="path-1-outside-1_181_2022" maskUnits="userSpaceOnUse" x="-0.1875" y="-0.019043" width="18" height="18" fill="black">
<rect fill="white" x="-0.1875" y="-0.019043" width="18" height="18"/>
<path d="M2.48524 1.02496C2.29454 1.06872 2.06008 1.20315 1.91002 1.3532C1.65368 1.61268 1.62867 1.69396 1.19726 3.86665C0.825241 5.72672 0.800232 5.8674 0.815863 6.1175C0.843998 6.55204 1.00656 6.92718 1.30355 7.23667L1.46298 7.40236V11.2757V15.1521L1.35669 15.1959C1.191 15.2647 0.978424 15.4804 0.897143 15.6617C0.840872 15.7868 0.825241 15.8774 0.825241 16.0587C0.825241 16.4464 0.997181 16.7309 1.33168 16.8934L1.50987 16.981H8.80949H16.1091L16.2529 16.9153C16.4592 16.8184 16.6124 16.6715 16.7093 16.4714C16.7812 16.3213 16.7937 16.2526 16.7937 16.0431C16.7937 15.8337 16.7812 15.768 16.7125 15.6336C16.6187 15.4554 16.4186 15.2616 16.2623 15.1959L16.156 15.1521V14.3518V13.5515L16.0622 13.4578C15.9841 13.3827 15.9497 13.3671 15.8809 13.3859C15.7058 13.4296 15.7027 13.4296 15.6871 14.3018L15.6714 15.1053H15.14H14.6085L14.5929 12.2292L14.5773 9.35309L14.4929 9.20616C14.3772 9.01234 14.1771 8.84665 13.9864 8.79038C13.7488 8.71848 10.8227 8.7216 10.6133 8.7935C10.4257 8.85603 10.2038 9.0561 10.0975 9.25618L10.0131 9.41561L10.0037 12.2667L9.99431 15.1209H7.0307C4.16087 15.1209 4.06708 15.124 4.01394 15.1803C3.93579 15.2647 3.93891 15.4241 4.02332 15.5054L4.09209 15.5742L10.0693 15.5898C14.7649 15.6023 16.0622 15.6148 16.1154 15.643C16.4186 15.818 16.3998 16.3088 16.081 16.462L15.9497 16.5277H8.80949H1.66931L1.53801 16.462C1.21601 16.3088 1.19726 15.8211 1.50362 15.643C1.55051 15.6179 1.81936 15.5992 2.3727 15.5898C3.10735 15.5742 3.18238 15.5679 3.24177 15.5148C3.32618 15.4398 3.33243 15.2459 3.25115 15.174C3.20426 15.1303 3.09484 15.1209 2.56965 15.1146L1.94754 15.1053L1.93816 11.3914C1.93503 9.34996 1.94129 7.68058 1.95379 7.68058C1.96942 7.68371 2.06321 7.70247 2.16637 7.72748C2.57277 7.82439 3.01982 7.76499 3.41371 7.56179C3.64818 7.43987 3.95454 7.17727 4.05771 7.00533C4.09522 6.94593 4.13586 6.89904 4.14524 6.89904C4.15774 6.90217 4.22027 6.97719 4.28592 7.07411C4.69545 7.66183 5.58328 7.92755 6.28667 7.67121C6.67119 7.53053 6.92753 7.33983 7.18701 6.99595L7.26516 6.88966L7.33394 6.99908C7.44961 7.18352 7.79036 7.48051 8.01232 7.5868C8.52188 7.83064 9.0971 7.83064 9.60667 7.5868C9.82862 7.48051 10.1694 7.18352 10.285 6.99908L10.3538 6.88966L10.432 6.99595C10.6914 7.33983 10.9478 7.53053 11.3323 7.67121C12.0357 7.92755 12.9235 7.66183 13.3331 7.07411C13.3987 6.97719 13.4612 6.90217 13.4737 6.89904C13.4831 6.89904 13.5238 6.94593 13.5613 7.00533C13.6644 7.17727 13.9708 7.43987 14.2053 7.56179C14.5992 7.76499 15.0618 7.82751 15.4464 7.72748C15.5464 7.70247 15.6402 7.68058 15.6558 7.68058C15.6746 7.68058 15.6871 8.60906 15.6871 10.1503C15.6871 12.5793 15.6871 12.6199 15.7496 12.6825C15.8371 12.77 15.9841 12.7637 16.0778 12.6668L16.156 12.5918V9.99708V7.40236L16.3248 7.22416C16.4186 7.12725 16.5374 6.96469 16.5937 6.86465C16.7156 6.63644 16.8125 6.25817 16.8125 6.01433C16.8125 5.89866 16.6624 5.06398 16.4186 3.85415C15.9872 1.68771 15.9684 1.61268 15.7027 1.35008C15.6246 1.2688 15.4651 1.15938 15.3495 1.10624L15.14 1.0062L8.87202 0.999948C5.29567 0.999948 2.55402 1.00933 2.48524 1.02496ZM3.89514 3.88853L3.88577 6.3207L3.78573 6.53328C3.5075 7.11787 2.81974 7.43362 2.21014 7.25542C1.71307 7.11162 1.32856 6.63957 1.28792 6.12687C1.27228 5.9393 1.31605 5.68296 1.64743 4.00733C1.85688 2.95693 2.04132 2.04722 2.06008 1.97844C2.10385 1.81588 2.34144 1.56891 2.504 1.50951C2.60091 1.47513 2.79473 1.46262 3.26991 1.46262L3.9014 1.4595L3.89514 3.88853ZM7.02757 2.03784C7.02757 2.57554 7.0307 2.61931 7.0901 2.6787C7.18388 2.77249 7.34957 2.76311 7.43085 2.65995C7.49025 2.58179 7.4965 2.5349 7.4965 2.01908V1.4595H8.80949H10.1225V3.7885C10.1225 5.37034 10.11 6.16752 10.0881 6.28006C10.0099 6.6552 9.72546 7.01471 9.38783 7.16789C8.60629 7.5274 7.6997 7.09286 7.53089 6.28006C7.509 6.17377 7.4965 5.64544 7.4965 4.81701V3.51964L7.41834 3.44462C7.32143 3.34458 7.18701 3.34145 7.09635 3.43524C7.03382 3.50714 7.0307 3.53528 7.02132 4.88266C7.00882 6.39573 7.00882 6.37697 6.79936 6.71772C6.54927 7.13038 5.99593 7.36797 5.48949 7.28043C4.90177 7.17727 4.48599 6.75211 4.40159 6.16439C4.38595 6.03622 4.37032 5.01396 4.37032 3.70096V1.4595H5.69895H7.02757V2.03784ZM13.2487 3.70096C13.2487 5.01396 13.233 6.03622 13.2174 6.16439C13.133 6.74273 12.7203 7.17102 12.1389 7.27731C11.6356 7.37109 11.0728 7.13038 10.8196 6.71772C10.5977 6.35821 10.6102 6.52077 10.5977 3.85727L10.5883 1.4595H11.92H13.2487V3.70096ZM15.0681 1.49701C15.2088 1.53765 15.4495 1.73772 15.5183 1.87215C15.5433 1.92217 15.7433 2.85064 15.9591 3.93855C16.4061 6.19878 16.403 6.17064 16.206 6.57392C15.709 7.5743 14.3022 7.53678 13.8208 6.50514L13.7332 6.3207L13.7238 3.88853L13.7176 1.4595H14.3303C14.7117 1.4595 14.9931 1.472 15.0681 1.49701ZM13.8895 9.25618C13.9489 9.28119 14.0271 9.34996 14.0615 9.40623C14.1209 9.50627 14.124 9.55942 14.124 10.7036V11.9009H13.7582C13.455 11.9009 13.3643 11.9134 13.2487 11.9666C12.6985 12.2135 12.5609 12.9326 12.9829 13.3546C13.1768 13.5453 13.3331 13.5984 13.7582 13.6141L14.124 13.6266V14.3737V15.1209L12.3046 15.1146L10.482 15.1053V12.3073C10.482 9.65945 10.4851 9.50314 10.5383 9.42186C10.5695 9.37185 10.6383 9.3062 10.6946 9.27493C10.7915 9.21554 10.8634 9.21241 12.2889 9.21241C13.5175 9.21241 13.802 9.22179 13.8895 9.25618ZM14.124 12.7606V13.1514H13.8364C13.5144 13.1514 13.3768 13.1045 13.2705 12.9576C13.1893 12.8482 13.1893 12.6418 13.2705 12.5324C13.3706 12.398 13.4581 12.3698 13.8051 12.3698H14.124V12.7606Z"/>
</mask>
<path d="M2.48524 1.02496C2.29454 1.06872 2.06008 1.20315 1.91002 1.3532C1.65368 1.61268 1.62867 1.69396 1.19726 3.86665C0.825241 5.72672 0.800232 5.8674 0.815863 6.1175C0.843998 6.55204 1.00656 6.92718 1.30355 7.23667L1.46298 7.40236V11.2757V15.1521L1.35669 15.1959C1.191 15.2647 0.978424 15.4804 0.897143 15.6617C0.840872 15.7868 0.825241 15.8774 0.825241 16.0587C0.825241 16.4464 0.997181 16.7309 1.33168 16.8934L1.50987 16.981H8.80949H16.1091L16.2529 16.9153C16.4592 16.8184 16.6124 16.6715 16.7093 16.4714C16.7812 16.3213 16.7937 16.2526 16.7937 16.0431C16.7937 15.8337 16.7812 15.768 16.7125 15.6336C16.6187 15.4554 16.4186 15.2616 16.2623 15.1959L16.156 15.1521V14.3518V13.5515L16.0622 13.4578C15.9841 13.3827 15.9497 13.3671 15.8809 13.3859C15.7058 13.4296 15.7027 13.4296 15.6871 14.3018L15.6714 15.1053H15.14H14.6085L14.5929 12.2292L14.5773 9.35309L14.4929 9.20616C14.3772 9.01234 14.1771 8.84665 13.9864 8.79038C13.7488 8.71848 10.8227 8.7216 10.6133 8.7935C10.4257 8.85603 10.2038 9.0561 10.0975 9.25618L10.0131 9.41561L10.0037 12.2667L9.99431 15.1209H7.0307C4.16087 15.1209 4.06708 15.124 4.01394 15.1803C3.93579 15.2647 3.93891 15.4241 4.02332 15.5054L4.09209 15.5742L10.0693 15.5898C14.7649 15.6023 16.0622 15.6148 16.1154 15.643C16.4186 15.818 16.3998 16.3088 16.081 16.462L15.9497 16.5277H8.80949H1.66931L1.53801 16.462C1.21601 16.3088 1.19726 15.8211 1.50362 15.643C1.55051 15.6179 1.81936 15.5992 2.3727 15.5898C3.10735 15.5742 3.18238 15.5679 3.24177 15.5148C3.32618 15.4398 3.33243 15.2459 3.25115 15.174C3.20426 15.1303 3.09484 15.1209 2.56965 15.1146L1.94754 15.1053L1.93816 11.3914C1.93503 9.34996 1.94129 7.68058 1.95379 7.68058C1.96942 7.68371 2.06321 7.70247 2.16637 7.72748C2.57277 7.82439 3.01982 7.76499 3.41371 7.56179C3.64818 7.43987 3.95454 7.17727 4.05771 7.00533C4.09522 6.94593 4.13586 6.89904 4.14524 6.89904C4.15774 6.90217 4.22027 6.97719 4.28592 7.07411C4.69545 7.66183 5.58328 7.92755 6.28667 7.67121C6.67119 7.53053 6.92753 7.33983 7.18701 6.99595L7.26516 6.88966L7.33394 6.99908C7.44961 7.18352 7.79036 7.48051 8.01232 7.5868C8.52188 7.83064 9.0971 7.83064 9.60667 7.5868C9.82862 7.48051 10.1694 7.18352 10.285 6.99908L10.3538 6.88966L10.432 6.99595C10.6914 7.33983 10.9478 7.53053 11.3323 7.67121C12.0357 7.92755 12.9235 7.66183 13.3331 7.07411C13.3987 6.97719 13.4612 6.90217 13.4737 6.89904C13.4831 6.89904 13.5238 6.94593 13.5613 7.00533C13.6644 7.17727 13.9708 7.43987 14.2053 7.56179C14.5992 7.76499 15.0618 7.82751 15.4464 7.72748C15.5464 7.70247 15.6402 7.68058 15.6558 7.68058C15.6746 7.68058 15.6871 8.60906 15.6871 10.1503C15.6871 12.5793 15.6871 12.6199 15.7496 12.6825C15.8371 12.77 15.9841 12.7637 16.0778 12.6668L16.156 12.5918V9.99708V7.40236L16.3248 7.22416C16.4186 7.12725 16.5374 6.96469 16.5937 6.86465C16.7156 6.63644 16.8125 6.25817 16.8125 6.01433C16.8125 5.89866 16.6624 5.06398 16.4186 3.85415C15.9872 1.68771 15.9684 1.61268 15.7027 1.35008C15.6246 1.2688 15.4651 1.15938 15.3495 1.10624L15.14 1.0062L8.87202 0.999948C5.29567 0.999948 2.55402 1.00933 2.48524 1.02496ZM3.89514 3.88853L3.88577 6.3207L3.78573 6.53328C3.5075 7.11787 2.81974 7.43362 2.21014 7.25542C1.71307 7.11162 1.32856 6.63957 1.28792 6.12687C1.27228 5.9393 1.31605 5.68296 1.64743 4.00733C1.85688 2.95693 2.04132 2.04722 2.06008 1.97844C2.10385 1.81588 2.34144 1.56891 2.504 1.50951C2.60091 1.47513 2.79473 1.46262 3.26991 1.46262L3.9014 1.4595L3.89514 3.88853ZM7.02757 2.03784C7.02757 2.57554 7.0307 2.61931 7.0901 2.6787C7.18388 2.77249 7.34957 2.76311 7.43085 2.65995C7.49025 2.58179 7.4965 2.5349 7.4965 2.01908V1.4595H8.80949H10.1225V3.7885C10.1225 5.37034 10.11 6.16752 10.0881 6.28006C10.0099 6.6552 9.72546 7.01471 9.38783 7.16789C8.60629 7.5274 7.6997 7.09286 7.53089 6.28006C7.509 6.17377 7.4965 5.64544 7.4965 4.81701V3.51964L7.41834 3.44462C7.32143 3.34458 7.18701 3.34145 7.09635 3.43524C7.03382 3.50714 7.0307 3.53528 7.02132 4.88266C7.00882 6.39573 7.00882 6.37697 6.79936 6.71772C6.54927 7.13038 5.99593 7.36797 5.48949 7.28043C4.90177 7.17727 4.48599 6.75211 4.40159 6.16439C4.38595 6.03622 4.37032 5.01396 4.37032 3.70096V1.4595H5.69895H7.02757V2.03784ZM13.2487 3.70096C13.2487 5.01396 13.233 6.03622 13.2174 6.16439C13.133 6.74273 12.7203 7.17102 12.1389 7.27731C11.6356 7.37109 11.0728 7.13038 10.8196 6.71772C10.5977 6.35821 10.6102 6.52077 10.5977 3.85727L10.5883 1.4595H11.92H13.2487V3.70096ZM15.0681 1.49701C15.2088 1.53765 15.4495 1.73772 15.5183 1.87215C15.5433 1.92217 15.7433 2.85064 15.9591 3.93855C16.4061 6.19878 16.403 6.17064 16.206 6.57392C15.709 7.5743 14.3022 7.53678 13.8208 6.50514L13.7332 6.3207L13.7238 3.88853L13.7176 1.4595H14.3303C14.7117 1.4595 14.9931 1.472 15.0681 1.49701ZM13.8895 9.25618C13.9489 9.28119 14.0271 9.34996 14.0615 9.40623C14.1209 9.50627 14.124 9.55942 14.124 10.7036V11.9009H13.7582C13.455 11.9009 13.3643 11.9134 13.2487 11.9666C12.6985 12.2135 12.5609 12.9326 12.9829 13.3546C13.1768 13.5453 13.3331 13.5984 13.7582 13.6141L14.124 13.6266V14.3737V15.1209L12.3046 15.1146L10.482 15.1053V12.3073C10.482 9.65945 10.4851 9.50314 10.5383 9.42186C10.5695 9.37185 10.6383 9.3062 10.6946 9.27493C10.7915 9.21554 10.8634 9.21241 12.2889 9.21241C13.5175 9.21241 13.802 9.22179 13.8895 9.25618ZM14.124 12.7606V13.1514H13.8364C13.5144 13.1514 13.3768 13.1045 13.2705 12.9576C13.1893 12.8482 13.1893 12.6418 13.2705 12.5324C13.3706 12.398 13.4581 12.3698 13.8051 12.3698H14.124V12.7606Z" fill="#4C4C4C"/>
<path d="M2.48524 1.02496C2.29454 1.06872 2.06008 1.20315 1.91002 1.3532C1.65368 1.61268 1.62867 1.69396 1.19726 3.86665C0.825241 5.72672 0.800232 5.8674 0.815863 6.1175C0.843998 6.55204 1.00656 6.92718 1.30355 7.23667L1.46298 7.40236V11.2757V15.1521L1.35669 15.1959C1.191 15.2647 0.978424 15.4804 0.897143 15.6617C0.840872 15.7868 0.825241 15.8774 0.825241 16.0587C0.825241 16.4464 0.997181 16.7309 1.33168 16.8934L1.50987 16.981H8.80949H16.1091L16.2529 16.9153C16.4592 16.8184 16.6124 16.6715 16.7093 16.4714C16.7812 16.3213 16.7937 16.2526 16.7937 16.0431C16.7937 15.8337 16.7812 15.768 16.7125 15.6336C16.6187 15.4554 16.4186 15.2616 16.2623 15.1959L16.156 15.1521V14.3518V13.5515L16.0622 13.4578C15.9841 13.3827 15.9497 13.3671 15.8809 13.3859C15.7058 13.4296 15.7027 13.4296 15.6871 14.3018L15.6714 15.1053H15.14H14.6085L14.5929 12.2292L14.5773 9.35309L14.4929 9.20616C14.3772 9.01234 14.1771 8.84665 13.9864 8.79038C13.7488 8.71848 10.8227 8.7216 10.6133 8.7935C10.4257 8.85603 10.2038 9.0561 10.0975 9.25618L10.0131 9.41561L10.0037 12.2667L9.99431 15.1209H7.0307C4.16087 15.1209 4.06708 15.124 4.01394 15.1803C3.93579 15.2647 3.93891 15.4241 4.02332 15.5054L4.09209 15.5742L10.0693 15.5898C14.7649 15.6023 16.0622 15.6148 16.1154 15.643C16.4186 15.818 16.3998 16.3088 16.081 16.462L15.9497 16.5277H8.80949H1.66931L1.53801 16.462C1.21601 16.3088 1.19726 15.8211 1.50362 15.643C1.55051 15.6179 1.81936 15.5992 2.3727 15.5898C3.10735 15.5742 3.18238 15.5679 3.24177 15.5148C3.32618 15.4398 3.33243 15.2459 3.25115 15.174C3.20426 15.1303 3.09484 15.1209 2.56965 15.1146L1.94754 15.1053L1.93816 11.3914C1.93503 9.34996 1.94129 7.68058 1.95379 7.68058C1.96942 7.68371 2.06321 7.70247 2.16637 7.72748C2.57277 7.82439 3.01982 7.76499 3.41371 7.56179C3.64818 7.43987 3.95454 7.17727 4.05771 7.00533C4.09522 6.94593 4.13586 6.89904 4.14524 6.89904C4.15774 6.90217 4.22027 6.97719 4.28592 7.07411C4.69545 7.66183 5.58328 7.92755 6.28667 7.67121C6.67119 7.53053 6.92753 7.33983 7.18701 6.99595L7.26516 6.88966L7.33394 6.99908C7.44961 7.18352 7.79036 7.48051 8.01232 7.5868C8.52188 7.83064 9.0971 7.83064 9.60667 7.5868C9.82862 7.48051 10.1694 7.18352 10.285 6.99908L10.3538 6.88966L10.432 6.99595C10.6914 7.33983 10.9478 7.53053 11.3323 7.67121C12.0357 7.92755 12.9235 7.66183 13.3331 7.07411C13.3987 6.97719 13.4612 6.90217 13.4737 6.89904C13.4831 6.89904 13.5238 6.94593 13.5613 7.00533C13.6644 7.17727 13.9708 7.43987 14.2053 7.56179C14.5992 7.76499 15.0618 7.82751 15.4464 7.72748C15.5464 7.70247 15.6402 7.68058 15.6558 7.68058C15.6746 7.68058 15.6871 8.60906 15.6871 10.1503C15.6871 12.5793 15.6871 12.6199 15.7496 12.6825C15.8371 12.77 15.9841 12.7637 16.0778 12.6668L16.156 12.5918V9.99708V7.40236L16.3248 7.22416C16.4186 7.12725 16.5374 6.96469 16.5937 6.86465C16.7156 6.63644 16.8125 6.25817 16.8125 6.01433C16.8125 5.89866 16.6624 5.06398 16.4186 3.85415C15.9872 1.68771 15.9684 1.61268 15.7027 1.35008C15.6246 1.2688 15.4651 1.15938 15.3495 1.10624L15.14 1.0062L8.87202 0.999948C5.29567 0.999948 2.55402 1.00933 2.48524 1.02496ZM3.89514 3.88853L3.88577 6.3207L3.78573 6.53328C3.5075 7.11787 2.81974 7.43362 2.21014 7.25542C1.71307 7.11162 1.32856 6.63957 1.28792 6.12687C1.27228 5.9393 1.31605 5.68296 1.64743 4.00733C1.85688 2.95693 2.04132 2.04722 2.06008 1.97844C2.10385 1.81588 2.34144 1.56891 2.504 1.50951C2.60091 1.47513 2.79473 1.46262 3.26991 1.46262L3.9014 1.4595L3.89514 3.88853ZM7.02757 2.03784C7.02757 2.57554 7.0307 2.61931 7.0901 2.6787C7.18388 2.77249 7.34957 2.76311 7.43085 2.65995C7.49025 2.58179 7.4965 2.5349 7.4965 2.01908V1.4595H8.80949H10.1225V3.7885C10.1225 5.37034 10.11 6.16752 10.0881 6.28006C10.0099 6.6552 9.72546 7.01471 9.38783 7.16789C8.60629 7.5274 7.6997 7.09286 7.53089 6.28006C7.509 6.17377 7.4965 5.64544 7.4965 4.81701V3.51964L7.41834 3.44462C7.32143 3.34458 7.18701 3.34145 7.09635 3.43524C7.03382 3.50714 7.0307 3.53528 7.02132 4.88266C7.00882 6.39573 7.00882 6.37697 6.79936 6.71772C6.54927 7.13038 5.99593 7.36797 5.48949 7.28043C4.90177 7.17727 4.48599 6.75211 4.40159 6.16439C4.38595 6.03622 4.37032 5.01396 4.37032 3.70096V1.4595H5.69895H7.02757V2.03784ZM13.2487 3.70096C13.2487 5.01396 13.233 6.03622 13.2174 6.16439C13.133 6.74273 12.7203 7.17102 12.1389 7.27731C11.6356 7.37109 11.0728 7.13038 10.8196 6.71772C10.5977 6.35821 10.6102 6.52077 10.5977 3.85727L10.5883 1.4595H11.92H13.2487V3.70096ZM15.0681 1.49701C15.2088 1.53765 15.4495 1.73772 15.5183 1.87215C15.5433 1.92217 15.7433 2.85064 15.9591 3.93855C16.4061 6.19878 16.403 6.17064 16.206 6.57392C15.709 7.5743 14.3022 7.53678 13.8208 6.50514L13.7332 6.3207L13.7238 3.88853L13.7176 1.4595H14.3303C14.7117 1.4595 14.9931 1.472 15.0681 1.49701ZM13.8895 9.25618C13.9489 9.28119 14.0271 9.34996 14.0615 9.40623C14.1209 9.50627 14.124 9.55942 14.124 10.7036V11.9009H13.7582C13.455 11.9009 13.3643 11.9134 13.2487 11.9666C12.6985 12.2135 12.5609 12.9326 12.9829 13.3546C13.1768 13.5453 13.3331 13.5984 13.7582 13.6141L14.124 13.6266V14.3737V15.1209L12.3046 15.1146L10.482 15.1053V12.3073C10.482 9.65945 10.4851 9.50314 10.5383 9.42186C10.5695 9.37185 10.6383 9.3062 10.6946 9.27493C10.7915 9.21554 10.8634 9.21241 12.2889 9.21241C13.5175 9.21241 13.802 9.22179 13.8895 9.25618ZM14.124 12.7606V13.1514H13.8364C13.5144 13.1514 13.3768 13.1045 13.2705 12.9576C13.1893 12.8482 13.1893 12.6418 13.2705 12.5324C13.3706 12.398 13.4581 12.3698 13.8051 12.3698H14.124V12.7606Z" stroke="#4C4C4C" stroke-width="0.4" mask="url(#path-1-outside-1_181_2022)"/>
</g>
<path id="Vector_2" d="M8.41632 11.9726L8.41654 11.9725C8.64312 11.8661 8.80975 11.7031 8.91989 11.4828L8.92021 11.4822L9.00774 11.304L9.01798 11.2831V11.2599V10.3377C9.01798 9.88951 9.01727 9.65367 9.00759 9.51256C9.00268 9.44094 8.99521 9.38894 8.98283 9.34339C8.9703 9.29734 8.95371 9.2618 8.9363 9.22538L8.9358 9.22434C8.82205 8.99341 8.61282 8.80032 8.38853 8.71271L8.38591 8.71168L8.38589 8.71172C8.28772 8.67652 8.21776 8.66063 7.90725 8.65274L8.41632 11.9726ZM8.41632 11.9726C8.37634 11.9913 8.33876 12.0075 8.26895 12.0187C8.20438 12.0291 8.11201 12.0353 7.96017 12.0394C7.65558 12.0477 7.09122 12.0477 5.98373 12.0477H5.97938C5.86051 12.0477 5.7474 12.0477 5.63976 12.0477C4.6002 12.048 4.06977 12.0481 3.77261 12.0211C3.60744 12.006 3.50151 11.9818 3.4166 11.9373C3.34684 11.9008 3.295 11.8514 3.24267 11.8016C3.23293 11.7923 3.22318 11.783 3.21329 11.7738L3.21316 11.7737M8.41632 11.9726L3.21316 11.7737M3.61089 11.2144C3.61936 11.2283 3.62683 11.2413 3.63315 11.2524C3.63385 11.2536 3.63453 11.2548 3.63519 11.2559C3.64231 11.2684 3.64765 11.2775 3.65284 11.2855C3.66239 11.3003 3.66904 11.3072 3.67678 11.3127C3.69594 11.3262 3.74136 11.3448 3.88268 11.3572C4.13172 11.3792 4.61063 11.3791 5.58754 11.3788C5.70089 11.3788 5.82094 11.3787 5.94812 11.3787C7.01502 11.3787 7.561 11.3779 7.85347 11.3698C8.00056 11.3657 8.07835 11.3598 8.12451 11.3523C8.16391 11.3459 8.1758 11.3394 8.19213 11.3299C8.24289 11.2996 8.26982 11.2796 8.28864 11.2568C8.30597 11.2358 8.32191 11.2055 8.33436 11.1457C8.36102 11.0178 8.36469 10.7964 8.36469 10.3533C8.36469 9.91043 8.36105 9.68943 8.33502 9.56071C8.32283 9.50045 8.30711 9.46883 8.28955 9.44632C8.27056 9.42196 8.24366 9.40053 8.19381 9.36756L8.19381 9.36756L8.19295 9.36698L8.11205 9.31225H5.96688C4.94233 9.31225 4.39843 9.31304 4.09793 9.32043C3.79055 9.32799 3.75707 9.34336 3.73186 9.35674C3.68066 9.38427 3.65518 9.4018 3.63758 9.42229C3.62158 9.44092 3.60574 9.46974 3.59321 9.53088C3.56647 9.66135 3.56281 9.8914 3.56281 10.3533C3.56281 10.73 3.56443 10.9306 3.57272 11.0489C3.57684 11.1076 3.58232 11.1411 3.58834 11.1633C3.59371 11.1831 3.6001 11.1964 3.61089 11.2144ZM3.61089 11.2144C3.61081 11.2143 3.61074 11.2141 3.61066 11.214L3.52533 11.2662L3.61108 11.2147C3.61102 11.2146 3.61095 11.2145 3.61089 11.2144ZM3.06401 9.0784C3.02603 9.13419 2.99318 9.18732 2.96782 9.25142C2.94228 9.31596 2.92607 9.38712 2.91563 9.47878C2.89522 9.65795 2.89548 9.93194 2.90014 10.4167L3.06401 9.0784ZM3.06401 9.0784C3.11853 8.99597 3.21074 8.9099 3.30545 8.8402C3.40009 8.77055 3.5095 8.7082 3.60403 8.6816M3.06401 9.0784L5.95423 8.64645C5.33805 8.64645 4.77024 8.65036 4.34964 8.65623C4.13938 8.65917 3.96558 8.66259 3.84081 8.66628C3.77851 8.66812 3.72787 8.67004 3.69081 8.67203C3.67237 8.67302 3.65653 8.67406 3.64398 8.67519L3.6438 8.67521C3.63521 8.67598 3.61831 8.6775 3.60403 8.6816M3.60403 8.6816C3.60382 8.68166 3.60361 8.68172 3.60341 8.68178L3.63162 8.77772L3.60466 8.68142C3.60445 8.68148 3.60424 8.68154 3.60403 8.6816ZM3.21316 11.7737C3.14801 11.7139 3.08992 11.6605 3.04505 11.5999M3.21316 11.7737L3.04505 11.5999M3.04505 11.5999C2.9974 11.5355 2.96625 11.4657 2.94584 11.3728M3.04505 11.5999L2.94584 11.3728M2.94584 11.3728C2.90743 11.1981 2.90477 10.9245 2.90014 10.4168L2.94584 11.3728Z" fill="#4C4C4C" stroke="#4C4C4C" stroke-width="0.2"/>
</g>
</svg>
