<svg width="63" height="42" viewBox="0 0 63 42" fill="none" xmlns="http://www.w3.org/2000/svg">
<g clip-path="url(#clip0_667_1724)">
<path d="M26.5747 15.4935H31.1919C31.2946 15.4935 31.4998 15.4935 31.6024 15.5961C31.6024 15.5961 31.6024 15.5961 31.6024 15.6987V24.6254V28.3192V33.1417V33.7574V34.2704V36.7329C31.6024 37.246 32.1154 37.6564 32.6284 37.4512L33.3467 37.246C35.2962 36.5277 37.5535 35.7069 40.3239 34.7834C40.3239 34.6808 40.4265 34.5782 40.4265 34.4756V33.7574V33.1417V15.6987V15.5961V15.4935V2.46257C40.4265 2.05215 40.1187 1.64172 39.6056 1.64172H35.604C35.2962 1.64172 34.9884 1.84694 34.8858 2.15475C33.6545 5.84856 31.1919 8.61892 27.4981 9.23456C27.1903 9.33716 26.8825 9.33716 26.5747 9.33716C26.1643 9.33716 25.8564 9.74759 25.8564 10.158V14.5701C25.8564 15.0831 26.1643 15.4935 26.5747 15.4935Z" fill="#D93A26"/>
<path d="M32.6287 0.307818C32.5261 0.102606 32.2182 0 32.013 0H12.8257H12.1075H1.7443C0.820847 0 0 0.718241 0 1.53909V7.18241C0 7.49023 0.307818 7.69544 0.615635 7.69544H12.2101V12.0049V37.4511C12.2101 37.6563 12.3127 37.8616 12.6205 37.9642C15.3909 38.9902 18.0586 40.0163 20.1107 41.0423C20.4186 41.2476 20.829 40.9397 20.829 40.5293V8.92671C20.829 8.8241 20.829 8.8241 20.829 8.7215C20.7264 8.41368 20.9316 8.00326 21.2394 7.79804C21.342 7.79804 21.4446 7.79804 21.5472 7.79804H24.8306C32.013 7.0798 32.7313 1.53909 32.8339 0.923453V0.820847V0.718241C32.8339 0.513029 32.7313 0.410423 32.6287 0.307818Z" fill="#D93A26"/>
<path d="M62.9996 14.1596L57.2537 14.057V13.0309C57.2537 9.95272 54.8938 7.38757 52.1234 7.38757C49.2505 7.38757 46.9931 9.85011 46.9931 13.0309V14.057H41.042V24.2149C41.042 24.2149 41.042 24.1123 41.042 24.0097C41.042 24.1123 41.042 24.3175 41.042 24.4201C41.042 30.1661 45.9671 34.7833 52.0208 34.7833C52.5338 34.7833 62.4866 34.7833 62.4866 34.7833H62.9996V14.1596ZM48.4296 13.0309C48.4296 10.7736 50.0713 9.02927 52.1234 9.02927C54.1755 9.02927 55.8172 10.8762 55.8172 13.0309V14.057L48.327 13.9543V13.0309H48.4296ZM44.1202 24.4201C44.1202 20.3159 47.7114 16.9299 52.0208 16.9299C56.3303 16.9299 59.9215 20.3159 59.9215 24.4201C59.9215 28.5244 56.3303 31.9104 52.0208 31.9104C47.7114 31.9104 44.1202 28.5244 44.1202 24.4201Z" fill="#282828"/>
</g>
<defs>
<clipPath id="clip0_667_1724">
<rect width="63" height="41.0423" fill="white"/>
</clipPath>
</defs>
</svg>
