<svg width="130" height="32" viewBox="0 0 130 32" fill="none" xmlns="http://www.w3.org/2000/svg">
<path d="M17.6687 5.86803L21.406 5.91679C22.9094 5.93683 24.3586 5.38804 25.4293 4.3932C26.5001 3.39837 27.1031 2.0405 27.1034 0.62337C27.1004 0.278249 26.8027 0 26.4365 0H0.966199C0.433303 0 0.00101892 0.406663 0 0.908935V5.31954C0.00304234 5.65215 0.28999 5.92028 0.642901 5.92027H10.1552V28.5879C10.1549 28.9891 10.4044 29.3532 10.7926 29.5178L16.5436 31.9555C16.7099 32.026 16.9027 32.012 17.0556 31.9183C17.2084 31.8247 17.3002 31.6642 17.2992 31.4923L17.0941 6.40608C17.0926 6.26234 17.1528 6.12412 17.261 6.02281C17.3692 5.92149 17.5162 5.86568 17.6687 5.86803Z" fill="#DB3A28"/>
<path d="M32.2278 0.888916H28.7056C28.5906 0.888916 28.4973 0.979341 28.4973 1.09089C28.4973 4.29204 25.8203 6.88709 22.518 6.88709H21.1099C21.0218 6.88566 20.9369 6.91895 20.8746 6.97934C20.8123 7.03974 20.7779 7.12206 20.7793 7.20745V10.9892C20.7793 11.2776 21.0206 11.5115 21.3182 11.5115L25.4331 11.5307V27.8049C25.4329 28.0137 25.5379 28.2093 25.7143 28.329C25.8908 28.4487 26.1164 28.4773 26.3186 28.4056L32.5242 26.224V1.18142C32.5242 1.02189 32.3924 0.891765 32.2278 0.888916Z" fill="#DB3A28"/>
<path d="M46.7842 11.9641C45.4819 11.3031 44.0395 10.9728 42.5821 11.0018C40.9577 11.0018 39.5209 11.3272 38.2716 11.978C37.0543 12.598 36.0434 13.5642 35.3635 14.7573C34.6752 15.9629 34.3311 17.367 34.3311 18.9698C34.3311 20.5725 34.6867 21.9813 35.3979 23.1961C36.0928 24.3966 37.1123 25.3722 38.337 26.0085C39.6516 26.6846 41.1104 27.0246 42.5856 26.9986C44.5748 26.9986 46.2382 26.5319 47.5758 25.5985C48.4477 25.0068 49.1731 24.2205 49.6958 23.3004L47.2712 21.9663C46.9515 22.831 46.3566 23.5641 45.5797 24.0508C44.7767 24.5707 43.7769 24.8302 42.5804 24.829C41.1177 24.829 39.8742 24.3999 38.8498 23.5418C37.8253 22.6837 37.2615 21.4915 37.1583 19.9651H50.5011C50.5602 19.4461 50.5906 18.9242 50.5923 18.4018C50.6126 17.0668 50.2704 15.7518 49.6028 14.5993C48.9288 13.4697 47.9515 12.5561 46.7842 11.9641ZM37.191 17.8702C37.3321 16.4006 37.8953 15.2507 38.8808 14.4203C39.8662 13.59 41.0592 13.1754 42.4599 13.1766C43.3775 13.1647 44.2867 13.3531 45.1254 13.729C46.7563 14.4352 47.7903 16.0798 47.7289 17.8702H37.191Z" fill="#282828"/>
<path d="M67.418 13.6395C66.1219 12.5457 64.4323 11.9994 62.3492 12.0005C61.2454 11.9883 60.1518 12.2006 59.1431 12.6228C58.2215 13.0021 57.4271 13.6107 56.8455 14.3833V12.2717H54V27.1111H56.8455V18.9027C56.8455 17.3496 57.2885 16.1671 58.1746 15.3551C59.0606 14.5431 60.2548 14.1371 61.7571 14.1371C63.2381 14.1371 64.4064 14.5297 65.2618 15.3151C66.1172 16.1005 66.5443 17.2332 66.5432 18.713V27.1078H69.3586V18.3652C69.3574 16.3074 68.7106 14.7322 67.418 13.6395Z" fill="#282828"/>
<path d="M80.161 24.7948L74.9723 12H72L78.5223 27.1111H81.7398L88.2621 12H85.3189L80.161 24.7948Z" fill="#282828"/>
<path d="M93.7103 12H91V27.1111H93.7103V12Z" fill="#282828"/>
<path d="M109.951 11.976C107.186 10.6747 103.979 10.6747 101.214 11.976C99.9409 12.6009 98.8723 13.571 98.1321 14.774C97.3642 16.0396 96.9723 17.4947 97.0015 18.9717C97.0015 20.573 97.3685 21.9816 98.1023 23.1973C98.8236 24.4021 99.8764 25.3776 101.137 26.0091C102.476 26.6801 103.958 27.0198 105.458 26.9991C106.983 27.0187 108.491 26.6794 109.858 26.0091C112.556 24.7009 114.239 21.9513 114.163 18.9717C114.163 17.3704 113.786 15.9665 113.033 14.7601C112.289 13.5636 111.221 12.5989 109.951 11.976ZM110.462 22.1379C109.944 22.9748 109.197 23.6487 108.309 24.0813C107.422 24.515 106.446 24.7379 105.458 24.7326C104.491 24.7431 103.535 24.5246 102.67 24.0952C101.817 23.6671 101.111 22.9974 100.642 22.1709C100.135 21.3048 99.8822 20.2402 99.8822 18.9769C99.8822 17.7334 100.141 16.678 100.658 15.8108C101.136 14.9759 101.853 14.3003 102.717 13.8691C104.505 13.0215 106.583 13.0215 108.37 13.8691C109.243 14.3009 109.972 14.9732 110.47 15.8056C111.007 16.6728 111.275 17.7282 111.275 18.9717C111.275 20.2153 111.004 21.2706 110.462 22.1379Z" fill="#282828"/>
<path d="M128.826 20.2489C128.3 19.6675 127.652 19.2179 126.932 18.9348C125.995 18.5797 125.038 18.2829 124.067 18.0459C123.134 17.8017 122.403 17.5801 121.877 17.381C121.393 17.2091 120.947 16.9401 120.566 16.5894C120.221 16.2698 120.03 15.8102 120.043 15.3325C120.043 14.6936 120.331 14.1728 120.908 13.7701C121.484 13.3673 122.26 13.1694 123.235 13.1763C124.288 13.1763 125.131 13.4217 125.762 13.9124C126.372 14.3693 126.75 15.0846 126.792 15.8602H129.496C129.416 14.3557 128.819 13.1694 127.707 12.3014C126.595 11.4334 125.134 11 123.326 11.0011C122.253 10.9834 121.188 11.1821 120.19 11.5861C119.363 11.9051 118.632 12.4442 118.073 13.1486C117.591 13.7648 117.328 14.5323 117.327 15.3238C117.327 16.3226 117.6 17.1281 118.148 17.7404C118.692 18.3524 119.365 18.8275 120.116 19.1292C121.084 19.5041 122.075 19.8109 123.083 20.0476C124.417 20.3681 125.401 20.6934 126.037 21.0232C126.673 21.3531 126.991 21.8565 126.991 22.5336C126.991 23.1933 126.693 23.7395 126.096 24.1724C125.499 24.6052 124.684 24.8222 123.651 24.8234C122.537 24.8234 121.638 24.578 120.955 24.0873C120.272 23.5966 119.889 22.9658 119.806 22.195H117C117.049 23.1121 117.384 23.9886 117.954 24.6949C118.585 25.4606 119.398 26.045 120.313 26.391C121.389 26.8109 122.532 27.0171 123.683 26.9986C124.749 27.0184 125.808 26.8214 126.8 26.4188C127.628 26.0919 128.355 25.5407 128.903 24.8234C129.393 24.1673 129.655 23.3611 129.648 22.5336C129.626 21.6007 129.352 20.8392 128.826 20.2489Z" fill="#282828"/>
<path d="M92.1594 10.8763L92.928 10.4735C92.9472 10.4631 92.9581 10.4487 92.9581 10.4335C92.9581 10.4184 92.9472 10.4039 92.928 10.3935L92.1964 10.0129C92.1718 9.99979 92.136 9.99634 92.1053 10.0041C92.0746 10.0118 92.0548 10.0293 92.0551 10.0485V10.8513C92.0521 10.8662 92.0666 10.8805 92.0908 10.8863C92.115 10.8921 92.1429 10.888 92.1594 10.8763Z" fill="#282828"/>
<path d="M97.3151 5.56316L90.3546 7.6973C90.302 7.71255 90.263 7.74835 90.2515 7.79196C90.24 7.83558 90.2577 7.88081 90.2982 7.91158L91.219 8.62248C91.2689 8.66288 91.3052 8.71269 91.3245 8.76727L91.8049 10.0703C91.8103 10.0836 91.8268 10.0919 91.8442 10.0902C91.8616 10.0884 91.8749 10.077 91.8759 10.0631V9.00037C91.8763 8.87034 91.9556 8.74846 92.0888 8.67316L96.4726 6.18719C96.481 6.18419 96.491 6.1862 96.4966 6.19206C96.5023 6.19792 96.5021 6.20609 96.4962 6.2118L92.3709 9.09303C92.326 9.1249 92.3004 9.17045 92.3004 9.21827C92.3004 9.2661 92.326 9.31165 92.3709 9.34351L94.4417 10.8493C94.4886 10.8827 94.5528 10.8961 94.6142 10.8851C94.6756 10.8742 94.7266 10.8404 94.7511 10.7943L97.4643 5.68623C97.4851 5.65186 97.4768 5.61086 97.4435 5.58343C97.4102 5.556 97.359 5.54791 97.3151 5.56316Z" fill="#282828"/>
</svg>
