<?xml version="1.0" encoding="UTF-8"?>
<svg width="218px" height="127px" viewBox="0 0 218 127" version="1.1" xmlns="http://www.w3.org/2000/svg" xmlns:xlink="http://www.w3.org/1999/xlink">
    <title>C7E59BC3-A596-47CC-BF66-0583045D5E2D</title>
    <g id="libreria" stroke="none" stroke-width="1" fill="none" fill-rule="evenodd">
        <g id="T1---UI-LIBRARY" transform="translate(-3697.000000, -3106.000000)">
            <g id="T1envios-small" transform="translate(3697.000000, 3106.000000)">
                <path d="M82.4214753,47.7846117 L96.8711612,47.7846117 C97.3013362,47.7846117 97.7168224,47.9026015 98.0819466,48.1113527 C98.0777498,48.1748857 98.072154,48.235626 98.072154,48.2998571 L98.072154,75.9346039 L98.072154,87.5213418 L98.072154,102.422266 L98.072154,104.397374 L98.072154,105.985698 L98.072154,113.740909 C98.072154,115.352273 99.6375716,116.501452 101.178508,116.01902 L103.432905,115.315968 C109.397999,112.962456 116.513725,110.426722 124.959845,107.782773 C125.109532,107.467901 125.196966,107.121612 125.196966,106.757868 L125.196966,104.397374 L125.196966,102.422266 L125.196966,48.2998571 C125.196966,48.1902453 125.190671,48.082728 125.17808,47.9759088 L125.17808,47.7846117 L125.196966,47.7846117 L125.196966,7.65202243 C125.196966,6.31084844 124.109288,5.22380634 122.766302,5.22380634 L110.326198,5.22380634 C109.281887,5.22380634 108.357186,5.89055342 108.024936,6.87705985 C104.208619,18.2117603 96.6906975,26.7489157 85.1382233,28.8133881 C84.1925376,28.9816457 83.2216709,29.1073153 82.2221259,29.1876042 C80.9609785,29.2895363 79.9894123,30.340972 79.9894123,31.6032534 L79.9894123,45.357792 C79.9894123,46.6982678 81.0784897,47.7846117 82.4214753,47.7846117" id="Fill-49" fill="#CC4236"></path>
                <path d="M101.245727,0.897141368 C100.702937,0.342798764 99.9559012,0 99.132623,0 L39.6131793,0 L37.37487,0 L5.33696887,0 C2.38939524,0 1.13601032e-13,2.16151726 1.13601032e-13,4.82641111 L1.13601032e-13,22.2100087 C1.13601032e-13,23.1567198 0.848459141,23.9233044 1.89486877,23.9233044 L37.7490873,23.9233044 L37.7490873,37.3092121 C37.7490873,37.3615744 37.7378958,37.4069551 37.7336989,37.4558266 L37.7336989,116.254162 C37.7336989,116.97746 38.2093397,117.613488 38.9011172,117.827126 C47.7921016,120.577894 55.8234354,123.896968 62.1851303,126.844619 C63.2805029,127.352184 64.5290598,126.554182 64.5290598,125.351245 L64.5290598,27.6885055 C64.5290598,27.4923212 64.4912884,27.2989297 64.450719,27.1069344 C64.2177949,26.0415354 64.6346801,24.800199 65.7041723,24.375715 C65.9489873,24.2786701 66.2280765,24.2242133 66.5414398,24.2242133 L76.8040883,24.2242133 C76.8411603,24.2200243 76.8677402,24.2172316 76.8677402,24.2172316 C99.2046686,22.0424492 101.495438,4.82152396 101.684995,2.87364503 C101.689891,2.76542954 101.694788,2.6600067 101.698985,2.55179121 L101.698985,2.07564302 C101.698985,1.63859205 101.547899,1.20503191 101.245727,0.897141368" id="Fill-51" fill="#CC4236"></path>
                <polygon id="Fill-53" fill="#1C1E1E" points="164.538401 95.8699927 153.358745 108.390875 151.729675 84.394263"></polygon>
                <path d="M126.549674,59.3656944 L218,23.6573735 L182.650101,107.257684 L152.074795,80.2352273 L217.718812,23.8661247 L214.142414,26.2168445 L147.813613,74.3385301 C147.427505,74.6799325 147.193182,75.2733723 147.193881,75.9114947 L151.759333,105.051484 L151.645319,105.023557 L142.518613,72.9149727 L126.549674,59.3656944 Z" id="Fill-55" fill="#1C1E1E"></path>
            </g>
        </g>
    </g>
</svg>