<svg width="24" height="25" viewBox="0 0 24 25" fill="none" xmlns="http://www.w3.org/2000/svg">
<g clip-path="url(#clip0_3893_3914)">
<path fill-rule="evenodd" clip-rule="evenodd" d="M18.41 4.50594H17.2V3.19594C17.2 2.85594 16.93 2.58594 16.6 2.58594C16.27 2.58594 16 2.85594 16 3.19594V4.50594H8V3.19594C8 2.85594 7.73 2.58594 7.4 2.58594C7.07 2.58594 6.8 2.85594 6.8 3.19594V4.50594H5.59C3.61 4.50594 2 6.11594 2 8.09594V17.9859C2 19.9659 3.61 21.5759 5.59 21.5759H18.4C20.38 21.5759 21.99 19.9659 21.99 17.9859V8.09594C21.99 6.11594 20.38 4.50594 18.4 4.50594H18.41ZM5.59 5.70594H6.8V6.97594C6.8 7.31594 7.07 7.58594 7.4 7.58594C7.73 7.58594 8 7.31594 8 6.97594V5.70594H16V6.97594C16 7.31594 16.27 7.58594 16.6 7.58594C16.93 7.58594 17.2 7.31594 17.2 6.97594V5.70594H18.41C19.73 5.70594 20.8 6.77594 20.8 8.09594V9.28594H3.2V8.09594C3.2 6.77594 4.27 5.70594 5.59 5.70594ZM18.4 20.3759H5.59C4.27 20.3759 3.2 19.3059 3.2 17.9859V10.4859H20.8V17.9859C20.8 19.3059 19.73 20.3759 18.41 20.3759H18.4Z" fill="#4C4C4C"/>
</g>
<defs>
<clipPath id="clip0_3893_3914">
<rect width="20" height="18.99" fill="white" transform="translate(2 2.58594)"/>
</clipPath>
</defs>
</svg>
