<svg xmlns="http://www.w3.org/2000/svg" width="17" height="17" viewBox="0 0 17 17" fill="none">
  <path fill-rule="evenodd" clip-rule="evenodd" d="M1.26758 8.05273C1.26758 11.9144 4.40651 15.0527 8.26758 15.0527C12.1293 15.0527 15.2676 11.9138 15.2676 8.05273C15.2676 4.19104 12.1287 1.05273 8.26758 1.05273C4.40651 1.05273 1.26758 4.19166 1.26758 8.05273ZM2.24429 8.05273C2.24429 4.7319 4.94675 2.02945 8.26758 2.02945C11.5884 2.02945 14.2909 4.7319 14.2909 8.05273C14.2909 11.3736 11.5884 14.076 8.26758 14.076C4.94675 14.076 2.24429 11.3736 2.24429 8.05273ZM10.5794 10.3969C10.6704 10.4622 10.7681 10.4946 10.8724 10.4946V10.4885C11.022 10.4885 11.1655 10.4232 11.2631 10.2932C11.4261 10.0783 11.3803 9.77245 11.1655 9.60946L8.75601 7.80558V4.14595C8.75601 3.87919 8.53441 3.65759 8.26765 3.65759C8.00089 3.65759 7.7793 3.87919 7.7793 4.14595V8.05281C7.7793 8.20909 7.85072 8.35254 7.97464 8.4435L10.5794 10.3969Z" fill="#828282"/>
</svg>