<svg width="12" height="22" viewBox="0 0 12 22" fill="none" xmlns="http://www.w3.org/2000/svg">
<path fill-rule="evenodd" clip-rule="evenodd" d="M2.73483 14.2358C2.88128 14.0893 3.11872 14.0893 3.26517 14.2358L6 16.9706L8.73484 14.2358C8.88128 14.0893 9.11872 14.0893 9.26517 14.2358C9.41161 14.3822 9.41161 14.6196 9.26517 14.7661L6 18.0312L2.73483 14.7661C2.58839 14.6196 2.58839 14.3822 2.73483 14.2358Z" fill="#4C4C4C"/>
<path fill-rule="evenodd" clip-rule="evenodd" d="M2.73483 7.76425C2.88128 7.91069 3.11872 7.91069 3.26517 7.76425L6 5.02941L8.73484 7.76425C8.88128 7.91069 9.11872 7.91069 9.26517 7.76425C9.41161 7.6178 9.41161 7.38036 9.26517 7.23391L6 3.96875L2.73483 7.23391C2.58839 7.38036 2.58839 7.6178 2.73483 7.76425Z" fill="#4C4C4C"/>
</svg>
