<svg width="28" height="24" viewBox="0 0 28 24" fill="none" xmlns="http://www.w3.org/2000/svg">
<g id="cart-shopping-light" clip-path="url(#clip0_1_5738)">
<path id="Vector" d="M1.38098 0C0.968481 0 0.630981 0.3375 0.630981 0.75C0.630981 1.1625 0.968481 1.5 1.38098 1.5H3.15754C3.51379 1.5 3.82317 1.74844 3.89348 2.1L6.65442 15.6C6.94036 16.9969 8.16848 18 9.59348 18H23.881C24.2935 18 24.631 17.6625 24.631 17.25C24.631 16.8375 24.2935 16.5 23.881 16.5H9.59348C8.88098 16.5 8.26692 15.9984 8.12161 15.3L7.75598 13.5H22.5029C23.881 13.5 25.081 12.5625 25.4138 11.2266L27.3779 3.36563C27.6122 2.41875 26.8997 1.5 25.9247 1.5H5.27629C4.96692 0.609375 4.11848 0 3.15754 0H1.38098ZM5.60442 3H25.92L23.956 10.8656C23.7872 11.5312 23.1872 12 22.4982 12H7.44661L5.60442 3ZM8.50598 21.375C8.50598 21.0766 8.62451 20.7905 8.83548 20.5795C9.04646 20.3685 9.33261 20.25 9.63098 20.25C9.92935 20.25 10.2155 20.3685 10.4265 20.5795C10.6375 20.7905 10.756 21.0766 10.756 21.375C10.756 21.6734 10.6375 21.9595 10.4265 22.1705C10.2155 22.3815 9.92935 22.5 9.63098 22.5C9.33261 22.5 9.04646 22.3815 8.83548 22.1705C8.62451 21.9595 8.50598 21.6734 8.50598 21.375ZM12.256 21.375C12.256 21.0303 12.1881 20.6889 12.0562 20.3705C11.9242 20.052 11.7309 19.7626 11.4871 19.5188C11.2434 19.2751 10.954 19.0817 10.6355 18.9498C10.317 18.8179 9.9757 18.75 9.63098 18.75C9.28626 18.75 8.94492 18.8179 8.62644 18.9498C8.30796 19.0817 8.01858 19.2751 7.77483 19.5188C7.53107 19.7626 7.33772 20.052 7.2058 20.3705C7.07388 20.6889 7.00598 21.0303 7.00598 21.375C7.00598 21.7197 7.07388 22.0611 7.2058 22.3795C7.33772 22.698 7.53107 22.9874 7.77483 23.2312C8.01858 23.4749 8.30796 23.6683 8.62644 23.8002C8.94492 23.9321 9.28626 24 9.63098 24C9.9757 24 10.317 23.9321 10.6355 23.8002C10.954 23.6683 11.2434 23.4749 11.4871 23.2312C11.7309 22.9874 11.9242 22.698 12.0562 22.3795C12.1881 22.0611 12.256 21.7197 12.256 21.375ZM21.631 20.25C21.9293 20.25 22.2155 20.3685 22.4265 20.5795C22.6375 20.7905 22.756 21.0766 22.756 21.375C22.756 21.6734 22.6375 21.9595 22.4265 22.1705C22.2155 22.3815 21.9293 22.5 21.631 22.5C21.3326 22.5 21.0465 22.3815 20.8355 22.1705C20.6245 21.9595 20.506 21.6734 20.506 21.375C20.506 21.0766 20.6245 20.7905 20.8355 20.5795C21.0465 20.3685 21.3326 20.25 21.631 20.25ZM21.631 24C22.3272 24 22.9949 23.7234 23.4871 23.2312C23.9794 22.7389 24.256 22.0712 24.256 21.375C24.256 20.6788 23.9794 20.0111 23.4871 19.5188C22.9949 19.0266 22.3272 18.75 21.631 18.75C20.9348 18.75 20.2671 19.0266 19.7748 19.5188C19.2825 20.0111 19.006 20.6788 19.006 21.375C19.006 22.0712 19.2825 22.7389 19.7748 23.2312C20.2671 23.7234 20.9348 24 21.631 24Z" fill="#4C4C4C"/>
</g>
<defs>
<clipPath id="clip0_1_5738">
<rect width="27" height="24" fill="white" transform="translate(0.630981)"/>
</clipPath>
</defs>
</svg>
