<svg width="28" height="24" viewBox="0 0 28 24" fill="none" xmlns="http://www.w3.org/2000/svg">
<g id="cart-shopping-duotone" clip-path="url(#clip0_1_5716)">
<path id="Vector" opacity="0.4" d="M6.26068 1.5C6.35443 1.69687 6.42474 1.9125 6.46693 2.13281C7.18881 5.92031 7.91068 9.7125 8.63256 13.5H22.156C23.6841 13.5 25.0201 12.4781 25.4138 11.0016L27.3357 3.8625C27.6591 2.67188 26.7591 1.5 25.5263 1.5H6.26068Z" fill="#4C4C4C"/>
<path id="Vector_2" d="M0.630981 1.125C0.630981 0.501562 1.13254 0 1.75598 0H3.88879C5.14973 0 6.23254 0.895313 6.46692 2.13281L8.88567 14.8359C8.98879 15.3656 9.45286 15.75 9.99192 15.75H23.506C24.1294 15.75 24.631 16.2516 24.631 16.875C24.631 17.4984 24.1294 18 23.506 18H9.99192C8.37004 18 6.97786 16.8469 6.67786 15.2578L4.25911 2.55469C4.22629 2.37656 4.07161 2.25 3.88879 2.25H1.75598C1.13254 2.25 0.630981 1.74844 0.630981 1.125ZM6.63098 21.75C6.63098 21.4545 6.68918 21.1619 6.80225 20.889C6.91533 20.616 7.08106 20.3679 7.28999 20.159C7.49892 19.9501 7.74696 19.7843 8.01994 19.6713C8.29293 19.5582 8.58551 19.5 8.88098 19.5C9.17646 19.5 9.46904 19.5582 9.74202 19.6713C10.015 19.7843 10.263 19.9501 10.472 20.159C10.6809 20.3679 10.8466 20.616 10.9597 20.889C11.0728 21.1619 11.131 21.4545 11.131 21.75C11.131 22.0455 11.0728 22.3381 10.9597 22.611C10.8466 22.884 10.6809 23.1321 10.472 23.341C10.263 23.5499 10.015 23.7157 9.74202 23.8287C9.46904 23.9418 9.17646 24 8.88098 24C8.58551 24 8.29293 23.9418 8.01994 23.8287C7.74696 23.7157 7.49892 23.5499 7.28999 23.341C7.08106 23.1321 6.91533 22.884 6.80225 22.611C6.68918 22.3381 6.63098 22.0455 6.63098 21.75ZM22.381 19.5C22.9777 19.5 23.55 19.7371 23.972 20.159C24.3939 20.581 24.631 21.1533 24.631 21.75C24.631 22.3467 24.3939 22.919 23.972 23.341C23.55 23.7629 22.9777 24 22.381 24C21.7842 24 21.2119 23.7629 20.79 23.341C20.368 22.919 20.131 22.3467 20.131 21.75C20.131 21.1533 20.368 20.581 20.79 20.159C21.2119 19.7371 21.7842 19.5 22.381 19.5Z" fill="#4C4C4C"/>
</g>
<defs>
<clipPath id="clip0_1_5716">
<rect width="27" height="24" fill="white" transform="translate(0.630981)"/>
</clipPath>
</defs>
</svg>
