<svg width="28" height="24" viewBox="0 0 28 24" fill="none" xmlns="http://www.w3.org/2000/svg">
<g id="cart-shopping-thin" clip-path="url(#clip0_1_5750)">
<path id="Vector" d="M1.00598 0C0.799731 0 0.630981 0.16875 0.630981 0.375C0.630981 0.58125 0.799731 0.75 1.00598 0.75H2.77317C3.30754 0.75 3.77161 1.12969 3.87473 1.65938L6.65911 15.8812C6.89817 17.1141 7.98098 18 9.23723 18H24.256C24.4622 18 24.631 17.8312 24.631 17.625C24.631 17.4188 24.4622 17.25 24.256 17.25H9.23254C8.33723 17.25 7.56379 16.6172 7.39036 15.7359L6.95442 13.5H22.845C24.0638 13.5 25.1232 12.6609 25.3997 11.4703L27.1904 3.80156C27.4669 2.625 26.5716 1.5 25.3669 1.5H4.60598C4.42786 0.628125 3.66379 0 2.77317 0H1.00598ZM4.75598 2.25H25.3669C26.0935 2.25 26.6279 2.925 26.4638 3.63281L24.6732 11.3016C24.4763 12.15 23.7169 12.75 22.845 12.75H6.80911L4.75598 2.25ZM7.38098 21.75C7.38098 21.3522 7.53902 20.9706 7.82032 20.6893C8.10163 20.408 8.48316 20.25 8.88098 20.25C9.27881 20.25 9.66034 20.408 9.94164 20.6893C10.2229 20.9706 10.381 21.3522 10.381 21.75C10.381 22.1478 10.2229 22.5294 9.94164 22.8107C9.66034 23.092 9.27881 23.25 8.88098 23.25C8.48316 23.25 8.10163 23.092 7.82032 22.8107C7.53902 22.5294 7.38098 22.1478 7.38098 21.75ZM11.131 21.75C11.131 21.4545 11.0728 21.1619 10.9597 20.889C10.8466 20.616 10.6809 20.3679 10.472 20.159C10.263 19.9501 10.015 19.7843 9.74202 19.6713C9.46904 19.5582 9.17646 19.5 8.88098 19.5C8.58551 19.5 8.29293 19.5582 8.01994 19.6713C7.74696 19.7843 7.49892 19.9501 7.28999 20.159C7.08106 20.3679 6.91533 20.616 6.80225 20.889C6.68918 21.1619 6.63098 21.4545 6.63098 21.75C6.63098 22.0455 6.68918 22.3381 6.80225 22.611C6.91533 22.884 7.08106 23.1321 7.28999 23.341C7.49892 23.5499 7.74696 23.7157 8.01994 23.8287C8.29293 23.9418 8.58551 24 8.88098 24C9.17646 24 9.46904 23.9418 9.74202 23.8287C10.015 23.7157 10.263 23.5499 10.472 23.341C10.6809 23.1321 10.8466 22.884 10.9597 22.611C11.0728 22.3381 11.131 22.0455 11.131 21.75ZM22.381 20.25C22.7788 20.25 23.1603 20.408 23.4416 20.6893C23.7229 20.9706 23.881 21.3522 23.881 21.75C23.881 22.1478 23.7229 22.5294 23.4416 22.8107C23.1603 23.092 22.7788 23.25 22.381 23.25C21.9832 23.25 21.6016 23.092 21.3203 22.8107C21.039 22.5294 20.881 22.1478 20.881 21.75C20.881 21.3522 21.039 20.9706 21.3203 20.6893C21.6016 20.408 21.9832 20.25 22.381 20.25ZM22.381 24C22.9777 24 23.55 23.7629 23.972 23.341C24.3939 22.919 24.631 22.3467 24.631 21.75C24.631 21.1533 24.3939 20.581 23.972 20.159C23.55 19.7371 22.9777 19.5 22.381 19.5C21.7842 19.5 21.2119 19.7371 20.79 20.159C20.368 20.581 20.131 21.1533 20.131 21.75C20.131 22.3467 20.368 22.919 20.79 23.341C21.2119 23.7629 21.7842 24 22.381 24Z" fill="#4C4C4C"/>
</g>
<defs>
<clipPath id="clip0_1_5750">
<rect width="27" height="24" fill="white" transform="translate(0.630981)"/>
</clipPath>
</defs>
</svg>
