<svg width="22" height="24" viewBox="0 0 22 24" fill="none" xmlns="http://www.w3.org/2000/svg">
<g id="user-thin" clip-path="url(#clip0_1_5748)">
<path id="Vector" d="M16.381 6C16.381 4.60761 15.8279 3.27226 14.8433 2.28769C13.8587 1.30312 12.5234 0.75 11.131 0.75C9.7386 0.75 8.40324 1.30312 7.41867 2.28769C6.4341 3.27226 5.88098 4.60761 5.88098 6C5.88098 7.39239 6.4341 8.72774 7.41867 9.71231C8.40324 10.6969 9.7386 11.25 11.131 11.25C12.5234 11.25 13.8587 10.6969 14.8433 9.71231C15.8279 8.72774 16.381 7.39239 16.381 6ZM5.13098 6C5.13098 4.4087 5.76312 2.88258 6.88834 1.75736C8.01356 0.632141 9.53968 0 11.131 0C12.7223 0 14.2484 0.632141 15.3736 1.75736C16.4988 2.88258 17.131 4.4087 17.131 6C17.131 7.5913 16.4988 9.11742 15.3736 10.2426C14.2484 11.3679 12.7223 12 11.131 12C9.53968 12 8.01356 11.3679 6.88834 10.2426C5.76312 9.11742 5.13098 7.5913 5.13098 6ZM1.38098 22.6078C1.38098 22.9641 1.66692 23.25 2.02317 23.25H20.2388C20.595 23.25 20.881 22.9641 20.881 22.6078C20.881 18.4078 17.4732 15 13.2732 15H8.98879C4.78879 15 1.38098 18.4078 1.38098 22.6078ZM0.630981 22.6078C0.630981 17.9906 4.37161 14.25 8.98879 14.25H13.2732C17.8904 14.25 21.631 17.9906 21.631 22.6078C21.631 23.3766 21.0075 24 20.2388 24H2.02317C1.25442 24 0.630981 23.3766 0.630981 22.6078Z" fill="#4C4C4C"/>
</g>
<defs>
<clipPath id="clip0_1_5748">
<rect width="21" height="24" fill="white" transform="translate(0.630981)"/>
</clipPath>
</defs>
</svg>
