<svg width="16" height="23" viewBox="0 0 16 23" fill="none" xmlns="http://www.w3.org/2000/svg">
<g id="Symbols">
<g id="Group 4646">
<path id="Rectangle 2204" d="M3.85775 4.48035H2.62219C1.51762 4.48035 0.622192 5.37577 0.622192 6.48034V19.7603C0.622192 20.8649 1.51762 21.7603 2.62219 21.7603H12.4889C13.5934 21.7603 14.4889 20.8649 14.4889 19.7603V6.48035C14.4889 5.37578 13.5934 4.48035 12.4889 4.48035H11.7155" stroke="#4C4C4C" stroke-width="1.2"/>
<path id="Line 167" d="M6.16882 8.80035H11.7155" stroke="#4C4C4C" stroke-linecap="round"/>
<path id="Line 168" d="M6.16882 13.1204H11.7155" stroke="#4C4C4C" stroke-linecap="round"/>
<path id="Vector 39" d="M2.93335 8.32035L3.39557 9.28035L4.78224 7.36035" stroke="#4C4C4C" stroke-linecap="round" stroke-linejoin="round"/>
<path id="Vector 40" d="M2.93335 12.44L3.39557 13.4L4.78224 11.48" stroke="#4C4C4C" stroke-linecap="round" stroke-linejoin="round"/>
<path id="Line 169" d="M6.16882 17.9203H11.7155" stroke="#4C4C4C" stroke-linecap="round"/>
<path id="Ellipse 31" d="M3.85773 18.4204C4.40677 18.4204 4.81995 17.9636 4.81995 17.4404C4.81995 16.9171 4.40677 16.4604 3.85773 16.4604C3.30869 16.4604 2.89551 16.9171 2.89551 17.4404C2.89551 17.9636 3.30869 18.4204 3.85773 18.4204Z" stroke="#4C4C4C"/>
<path id="Rectangle 2205" d="M3.99551 3.56036C3.99551 3.33944 4.17459 3.16036 4.39551 3.16036H4.65534C5.43968 3.16036 6.07551 2.52452 6.07551 1.74019C6.07551 1.61859 6.17408 1.52002 6.29568 1.52002H7.4554H8.81534C8.93693 1.52002 9.03551 1.61859 9.03551 1.74019C9.03551 2.52453 9.67134 3.16036 10.4557 3.16036H10.7155C10.9364 3.16036 11.1155 3.33944 11.1155 3.56036V4.44036C11.1155 4.66127 10.9364 4.84036 10.7155 4.84036H4.39551C4.17459 4.84036 3.99551 4.66127 3.99551 4.44036V3.56036Z" stroke="#4C4C4C" stroke-width="1.2" stroke-linejoin="round"/>
</g>
</g>
</svg>
