<svg width="21" height="21" viewBox="0 0 21 21" fill="none" xmlns="http://www.w3.org/2000/svg">
<g id="Symbols">
<g id="Group 4647">
<path id="Polygon 1" d="M10.27 1.6417C10.4247 1.55239 10.6153 1.55238 10.77 1.6417L18.0839 5.86435C18.2386 5.95367 18.3339 6.11873 18.3339 6.29736V14.7427C18.3339 14.9213 18.2386 15.0864 18.0839 15.1757L10.77 19.3983C10.6153 19.4876 10.4247 19.4876 10.27 19.3983L2.9562 15.1757C2.8015 15.0864 2.7062 14.9213 2.7062 14.7427V6.29736C2.7062 6.11873 2.8015 5.95367 2.9562 5.86435L10.27 1.6417Z" stroke="#4C4C4C" stroke-linejoin="round"/>
<path id="Vector 41" d="M3.80005 6.68002L10.52 10.04M10.52 10.04L16.76 6.68002M10.52 10.04V17.24" stroke="#4C4C4C" stroke-linecap="round" stroke-linejoin="round"/>
<path id="Vector 42" d="M4.76001 4.76001L12.44 8.60001V13.4L15.32 11.96V7.16001L7.64001 3.32001L4.76001 4.76001Z" stroke="#4C4C4C" stroke-linecap="round" stroke-linejoin="round"/>
</g>
</g>
</svg>
