<?xml version="1.0" encoding="utf-8"?>
<!-- Generator: Adobe Illustrator 28.0.0, SVG Export Plug-In . SVG Version: 6.00 Build 0)  -->
<svg version="1.1" id="Capa_1" xmlns="http://www.w3.org/2000/svg" xmlns:xlink="http://www.w3.org/1999/xlink" x="0px" y="0px"
	 viewBox="0 0 1000 1000" style="enable-background:new 0 0 1000 1000;" xml:space="preserve">
<style type="text/css">
	.st0{clip-path:url(#SVGID_00000026858149192018543000000003607490636439278263_);}
	.st1{fill:#EF3F3F;}
	.st2{fill:#FFFFFF;}
</style>
<g>
	<defs>
		<rect id="SVGID_1_" x="-9.5" y="-11" width="1018.1" height="1018.1"/>
	</defs>
	<clipPath id="SVGID_00000078020749593038899290000013521776816938572179_">
		<use xlink:href="#SVGID_1_"  style="overflow:visible;"/>
	</clipPath>
	<g style="clip-path:url(#SVGID_00000078020749593038899290000013521776816938572179_);">
		<g>
			<g>
				<path class="st1" d="M795.9,991.8H203C93,991.8,3.9,902.7,3.9,792.7V205.6C3.9,95.6,93,6.5,203,6.5h592.9
					c110,0,199.1,89.1,199.1,199.1v587.2C995,902.7,905.9,991.8,795.9,991.8z"/>
			</g>
		</g>
	</g>
</g>
<g>
	<path class="st2" d="M427.1,711.5c-19.3,0-36.9-2-52.7-16.1c-1.6-1.4-1.6-3.9-0.1-5.4l16.1-16.1c1.3-1.3,3.5-1.5,4.9-0.3
		c10.4,8.7,23,10,32.3,10c11.2,0,23-3.7,23-13.5c0-6.5-3.5-11-13.7-12l-20.5-2c-23.5-2.3-38-12.5-38-36.5c0-27,23.7-41.5,50.2-41.5
		c18.6,0,34.5,3,46.6,12.5c1.7,1.4,1.9,4,0.4,5.5l-14.9,15.1c-1.3,1.3-3.3,1.5-4.7,0.4c-7.4-5.2-17.7-6.8-27.8-6.8
		c-13,0-18.5,6-18.5,12.5c0,4.7,2,10.3,13.5,11.2l20.5,2c25.7,2.5,38.7,16.2,38.7,38.2C482.3,697.7,457.8,711.5,427.1,711.5"/>
	<path class="st2" d="M578,710c-2,0-3.7-1.7-3.7-3.7v-75.8c0-17.2-11-23-21.2-23c-10.3,0-21,6-21,23v75.8c0,2-1.7,3.7-3.7,3.7h-25.1
		c-2,0-3.7-1.7-3.7-3.7V535.7c0-2,1.7-3.7,3.7-3.7h25.1c2,0,3.7,1.7,3.7,3.7v47.9c0,3,3.4,4.8,5.9,3c7.6-5.6,16.3-8.4,25.4-8.4
		c28.5,0,43.5,20,43.5,47.5v80.5c0,2-1.7,3.7-3.7,3.7H578z"/>
	<path class="st2" d="M721.8,695.5c-8,8.5-21.2,16-40.5,16c-19.3,0-32.2-7.5-40.3-16c-11.7-12.2-14.7-27-14.7-50.7
		c0-23.5,3-38.2,14.7-50.5c8-8.5,21-16,40.3-16c19.2,0,32.5,7.5,40.5,16c11.8,12.2,14.8,27,14.8,50.5
		C736.5,668.5,733.5,683.2,721.8,695.5 M696.5,613.2c-3.8-3.7-8.8-5.8-15.2-5.8c-6.5,0-11.3,2-15,5.8c-6.8,6.8-7.5,18-7.5,31.5
		c0,13.5,0.7,25,7.5,31.7c3.7,3.7,8.5,5.7,15,5.7c6.5,0,11.5-2,15.2-5.7c6.8-6.8,7.5-18.2,7.5-31.7C704,631.2,703.3,620,696.5,613.2
		"/>
	<path class="st2" d="M853.2,699.7c-7.2,7.2-19,11.7-31.7,11.7c-10.3,0-18.5-2.1-25.6-7.5c-2.4-1.8-5.9-0.1-5.9,3V754
		c0,2-1.7,3.7-3.7,3.7h-25.1c-2,0-3.7-1.7-3.7-3.7V583.4c0-2,1.7-3.7,3.7-3.7h24.1c2,0,3.7,1.7,3.7,3.7l0,0c0,3.1,3.5,4.8,5.9,2.9
		c7.4-5.8,15.8-8.1,26.6-8.1c12.7,0,24.5,4.5,31.7,11.7c13,13,13.3,35.2,13.3,54.7C866.5,664.2,866.3,686.7,853.2,699.7 M812,607.5
		c-19.5,0-22,16-22,37.2c0,21.2,2.5,37.5,22,37.5c19.5,0,22-16.2,22-37.5C834,623.5,831.5,607.5,812,607.5"/>
	<path class="st2" d="M761.7,363.7l82.3-82.4c1.1-1.1,1.1-2.9,0-4.1l-18.6-18.6c-1.1-1.1-2.9-1.1-4.1,0L739,340.9
		c-1.1,1.1-1.1,2.9,0,4.1l18.6,18.7C758.7,364.8,760.5,364.8,761.7,363.7z"/>
	<path class="st2" d="M696.2,238.6H670c-1.6,0-2.9,1.3-2.9,2.9v86.9c0,1.6,1.3,2.9,2.9,2.9h26.2c1.6,0,2.9-1.3,2.9-2.9v-86.9
		C699.1,239.9,697.8,238.6,696.2,238.6z"/>
	<path class="st2" d="M778.3,433.6h88.8c1.6,0,2.9-1.3,2.9-2.9v-26.3c0-1.6-1.3-2.9-2.9-2.9h-88.8c-1.6,0-2.9,1.3-2.9,2.9v26.3
		C775.5,432.3,776.8,433.6,778.3,433.6z"/>
	<path class="st2" d="M706.7,463.5c-7.6,7.9-16.8,11.7-27.8,11.7c-10.7,0-19.9-3.8-27.5-11.7c-7.6-7.9-11.7-17.2-11.7-27.9
		c0-11.3,4.1-20.7,11.7-28.2c7.6-7.9,16.8-11.7,27.5-11.4c11-0.4,20.3,3.5,28.2,11.4c7.2,7.5,11,16.8,11.4,28.1c0,0.1,0,0.2,0,0.3
		C718,446.4,714.2,455.6,706.7,463.5 M731.8,382.3c-14.8-14.8-32.7-22.1-53-22.1c-20.3,0-37.8,7.3-52.3,22.1
		c-14.8,14.8-22,32.7-22,53.4c0,20.7,7.2,38.6,22,53c14.4,14.8,32,22.4,52.3,22.4c20.3,0,38.2-7.6,53-22.4
		c14.5-14.5,21.7-32.4,21.7-53C753.4,415,746.2,397.1,731.8,382.3"/>
	<path class="st2" d="M208,323.4c-25.8-0.3-47.1,8.6-65,27.2c-18.2,18.3-27.1,39.9-27.1,65.8c0,25.5,8.9,47.9,27.1,66.1
		c17.9,17.9,39.2,26.9,65,26.9c20.7,0,39.6-6.2,56-19c15.1-12.3,25.5-27.2,31.2-45.5c0.6-1.9-0.8-3.7-2.8-3.7h-31.9
		c-1.1,0-2,0.6-2.6,1.6c-4.7,8.9-11.3,16.2-19.4,22.1c-0.1,0.1-0.2,0.1-0.3,0.2c-9.6,5.8-19.5,8.9-30.5,8.9
		c-15.8,0-29.2-5.9-40.2-16.9c-11.3-11.3-16.8-24.7-16.5-40.6c-0.3-15.8,5.2-29.3,16.5-40.6c11-11,24.4-16.9,40.2-16.9
		c11,0,21,3.1,30.6,9.3c8.1,5.5,14.7,13.2,19.5,22.2c0.5,1,1.5,1.6,2.6,1.6h31.9c1.9,0,3.3-1.9,2.8-3.7
		c-5.8-18.3-16.1-33.6-31.2-45.5C247.6,329.6,228.7,323,208,323.4"/>
	<path class="st2" d="M450.4,440.6l2.3-1.2c1.9-1,4.3,0.3,4.3,2.5v9.6c0,12.4-3.4,21-10,25.8c-6.9,4.8-14.1,7.2-22.4,7.2
		c-5.1,0-9.2-1.4-12.6-4c-0.1-0.1-0.2-0.2-0.3-0.2c-3.3-3.1-5-7.5-5-14c0-7.2,2.8-12.4,8.6-16.2c3.4-2,9.2-3.8,16.7-4.8
		c0.1,0,0.2,0,0.3-0.1l17.4-4.4C450,440.8,450.2,440.7,450.4,440.6z M435,359.9c-24.1-0.4-40.9,6.2-50.6,18.9
		c-5.7,7.3-8.7,16.6-10,28.2c-0.2,1.7,1.2,3.2,2.9,3.2h30.1c1.4,0,2.6-1,2.8-2.3c0.9-4.9,2.7-8.4,4.8-10.7c3.8-4.8,9.9-7.3,18.8-6.9
		c0.1,0,0.1,0,0.2,0c7.5-0.4,13.3,1,17.4,3.4c4.1,2.1,5.8,6.2,6.2,12.1c0,4.7-2.6,8.5-7.9,10.9c-0.2,0.1-0.5,0.2-0.8,0.2l-27.1,4.4
		c-12.7,1.7-23,4.8-30.9,9.3c-13.4,7.9-19.9,20.6-19.6,38.9c-0.3,12.7,3.8,23.1,12,30.6c7.2,6.2,17.2,9.6,29.3,10
		c17.1-0.3,31-4,41.6-11.3c1.9-1.3,4.5,0.1,4.5,2.4v6.1c0,1.6,1.3,2.9,2.9,2.9h30c1.6,0,2.9-1.3,2.9-2.9V404.6
		c0-17.2-6.2-29.3-17.9-35.5C464.2,362.6,450.5,359.5,435,359.9"/>
	<path class="st2" d="M347.5,323.4h-30c-1.6,0-2.9,1.3-2.9,2.9v180.9c0,1.6,1.3,2.9,2.9,2.9h30c1.6,0,2.9-1.3,2.9-2.9V326.3
		C350.4,324.7,349.1,323.4,347.5,323.4z"/>
	<path class="st2" d="M577.9,365.1c-7.4,3-14.2,7.6-20.3,14.1c-1.8,1.9-5,0.7-5-1.9v-7.3c0-1.6-1.3-2.9-2.9-2.9l-28.3-0.3
		c-1.6,0-2.9,1.3-2.9,2.9v137.5c0,1.6,1.3,2.9,2.9,2.9h29.7c1.6,0,2.9-1.3,2.9-2.9v-65.7c0-11.7,1.4-19.9,4.4-25.1
		c0-0.1,0.1-0.1,0.1-0.2c2.4-5.4,6.8-9.9,12.3-13.7c6.1-4.1,12.6-6.2,19.5-6.2c0.1,0,0.2,0,0.2,0l7.8,0.5c1.7,0.1,3.1-1.2,3.1-2.9
		l-0.3-30.4c0-1.7-1.4-3-3.1-2.8l-5.9,0.5c-0.2,0-0.4,0-0.5,0.1l-13.3,3.7C578.1,365,578,365.1,577.9,365.1z"/>
</g>
</svg>
