<svg width="25" height="25" viewBox="0 0 25 25" fill="none" xmlns="http://www.w3.org/2000/svg">
<g id="liverpool">
<path id="Path" d="M0.00419919 0.0324707H1.98692V20.5039C1.98692 20.5039 1.98692 21.9812 3.29287 21.9812H13.9413V24.2017H2.36065C2.36065 24.2017 0 24.1968 0 21.5562L0.00419919 0.0324707Z" fill="#914883"/>
<path id="Path_2" d="M2.74023 0.0324707H4.71736V17.5917C4.71736 17.5917 4.57878 18.9566 5.86443 18.953C12.2255 18.9424 13.9311 18.953 13.9311 18.953V21.1453H3.90061C3.90061 21.1453 2.72974 21.0555 2.74093 19.8441C2.74723 18.9827 2.74023 0.0324707 2.74023 0.0324707V0.0324707Z" fill="#914883"/>
<path id="Path_3" d="M5.46289 0.0324707H7.44981L7.45261 14.8854C7.45261 14.8854 7.33783 15.8959 8.28265 15.8959H13.9425L13.9327 18.1037H6.30903C6.30903 18.1037 5.46289 17.9333 5.46289 16.9072V0.0324707Z" fill="#914883"/>
<path id="Path_4" d="M8.19238 0.0324707H10.18V12.0199C10.18 12.0199 10.0547 12.8706 10.924 12.8706H13.9418V15.0629H9.34786C8.52692 15.0629 8.19308 14.8132 8.19308 13.971L8.19238 0.0324707V0.0324707Z" fill="#914883"/>
<path id="Path_5" d="M24.8394 24.1756L22.856 24.1742L22.8658 3.70279C22.8658 3.70279 22.8665 2.2262 21.5613 2.22549L10.9121 2.22054L10.9128 0L22.4935 0.00565743C22.4935 0.00565743 24.8541 0.012022 24.8534 2.65192L24.8394 24.1756Z" fill="#DB812E"/>
<path id="Path_6" d="M22.1017 24.1742L20.1246 24.1735L20.133 6.61421C20.133 6.61421 20.2722 5.24865 18.9866 5.25219C12.6255 5.25997 10.9199 5.24865 10.9199 5.24865L10.9206 3.0564L20.9518 3.06135C20.9518 3.06135 22.1227 3.15116 22.1108 4.36256C22.1038 5.22461 22.1017 24.1742 22.1017 24.1742Z" fill="#DB812E"/>
<path id="Path_7" d="M19.3818 24.1728L17.3941 24.1721L17.3983 9.31849C17.3983 9.31849 17.5131 8.30864 16.569 8.30793L10.9092 8.3051L10.9197 6.09729L18.5426 6.10083C18.5426 6.10083 19.3895 6.27196 19.3888 7.29737L19.3818 24.1728Z" fill="#DB812E"/>
<path id="Path_8" d="M16.6503 24.1714L14.6627 24.1707L14.6683 12.1833C14.6683 12.1833 14.7943 11.3326 13.925 11.3319C12.9191 11.3317 11.9132 11.3312 10.9072 11.3305L10.9079 9.13892L15.5025 9.14104C16.3235 9.14104 16.6573 9.39138 16.6566 10.2329L16.6503 24.1714Z" fill="#DB812E"/>
</g>
</svg>
