<svg width="30" height="30" viewBox="0 0 30 30" fill="none" xmlns="http://www.w3.org/2000/svg">
<g id="Zeplin-aprobadas">
<g id="Integraciones">
<g id="Group-8">
<g id="logo-prestashop">
<path id="Path" d="M9.717 23.0193C9.9567 22.9095 10.1964 22.8196 10.4461 22.7197C10.7257 22.6199 11.0053 22.52 11.285 22.4301C11.6345 22.3202 11.994 22.2304 12.3535 22.1505C12.8429 22.0506 13.3322 21.9707 13.8216 21.9208C13.542 22.7896 13.2424 23.6585 12.9028 24.5173C12.9128 24.6871 12.9228 24.8469 12.9328 25.0167C13.6019 24.8868 14.291 24.8169 15 24.8169C15.7091 24.8169 16.3981 24.8868 17.0673 25.0167C17.0673 24.8469 17.0772 24.6771 17.0972 24.5173C16.7677 23.6585 16.4581 22.7896 16.1784 21.9208C16.6678 21.9707 17.1671 22.0406 17.6465 22.1505C18.006 22.2304 18.3555 22.3202 18.7151 22.4301C18.9947 22.52 19.2743 22.6099 19.5539 22.7197C19.8036 22.8096 20.0433 22.9095 20.283 23.0193C21.9807 23.7783 23.5286 24.8968 24.797 26.3549C27.9827 23.6085 30 19.5439 30 15C30 6.72104 23.289 0 15 0C6.72104 0 0 6.71105 0 15C0 19.534 2.01731 23.5985 5.20306 26.3549C6.47137 24.8968 8.01931 23.7783 9.717 23.0193Z" fill="#A0DBE8"/>
<path id="Path_2" d="M10.7052 25.7358C11.4042 25.4263 12.1532 25.1866 12.9222 25.0368C12.9222 24.867 12.9122 24.6972 12.8923 24.5374C13.2218 23.6786 13.5314 22.8097 13.811 21.9409C13.3217 21.9908 12.8224 22.0607 12.343 22.1706C11.9835 22.2505 11.6339 22.3404 11.2744 22.4502C10.9948 22.5401 10.7152 22.63 10.4355 22.7398L11.5241 23.0095L10.7052 25.7358Z" fill="#525353"/>
<path id="Path_3" d="M8.12847 27.3435C8.15843 27.0639 8.16841 26.7842 8.16841 26.4946C8.16841 26.3249 8.30823 26.185 8.478 26.185H8.74764L9.70641 23.0093C8.00863 23.7683 6.46069 24.8868 5.19238 26.3448C5.89145 26.954 6.65044 27.4933 7.44937 27.9627C7.67906 27.753 7.89877 27.5432 8.12847 27.3435Z" fill="#525353"/>
<path id="Path_4" d="M20.2725 23.0193L21.2313 26.1951H21.5009C21.6707 26.1951 21.8105 26.3349 21.8105 26.5046C21.8105 26.7943 21.8305 27.0739 21.8504 27.3535C22.0801 27.5532 22.3098 27.753 22.5196 27.9727C23.3285 27.5033 24.0775 26.964 24.7765 26.3548C23.5182 24.8968 21.9703 23.7783 20.2725 23.0193Z" fill="#525353"/>
<path id="Path_5" d="M18.4461 22.9895L19.5347 22.7198C19.2551 22.6199 18.9754 22.5201 18.6958 22.4302C18.3463 22.3203 17.9868 22.2305 17.6272 22.1506C17.1379 22.0507 16.6485 21.9708 16.1592 21.9209C16.4388 22.7897 16.7384 23.6586 17.078 24.5174C17.068 24.6872 17.058 24.847 17.048 25.0168C17.827 25.1666 18.566 25.4062 19.2651 25.7158L18.4461 22.9895Z" fill="#525353"/>
<path id="Path_6" d="M14.9902 26.1951H17.1074C17.0675 25.8056 17.0475 25.4161 17.0575 25.0366C16.3884 24.9068 15.6993 24.8369 14.9902 24.8369C14.2812 24.8369 13.5921 24.9068 12.923 25.0366C12.933 25.4261 12.913 25.8056 12.873 26.1951H14.9902Z" fill="black"/>
<path id="Path_7" d="M7.45996 27.9627C7.62973 28.0625 7.80949 28.1624 7.98925 28.2623C8.04917 27.9627 8.09911 27.6531 8.12907 27.3435C7.89937 27.5432 7.67967 27.753 7.45996 27.9627Z" fill="black"/>
<path id="Path_8" d="M10.5654 26.1951H12.8823C12.9223 25.8056 12.9422 25.4161 12.9323 25.0366C12.1533 25.1864 11.4143 25.4261 10.7152 25.7357L10.5654 26.1951Z" fill="black"/>
<path id="Path_9" d="M21.8604 27.3435C21.8904 27.6531 21.9403 27.9627 22.0003 28.2623C22.18 28.1724 22.3498 28.0725 22.5295 27.9627C22.3098 27.753 22.0901 27.5432 21.8604 27.3435Z" fill="black"/>
<path id="Path_10" d="M19.4248 26.1951L19.285 25.7357C18.586 25.4261 17.837 25.1864 17.068 25.0366C17.058 25.4261 17.078 25.8056 17.1179 26.1951H19.4248Z" fill="black"/>
<path id="Path_11" d="M10.5654 26.1951L10.7052 25.7357L11.5341 22.9894L10.4456 22.7197C10.1959 22.8096 9.95621 22.9095 9.71651 23.0193L8.75781 26.1951H9.78641H10.5654Z" fill="#AA9678"/>
<path id="Path_12" d="M19.285 25.7357L19.4248 26.1951H20.2037H21.2324L20.2736 23.0193C20.034 22.9095 19.7943 22.8196 19.5446 22.7197L18.4561 22.9894L19.285 25.7357Z" fill="#AA9678"/>
<path id="Path_13" d="M8.78809 26.8342C8.79807 26.8242 8.80806 26.8242 8.81805 26.8142H8.78809C8.78809 26.8142 8.78809 26.8242 8.78809 26.8342Z" fill="#C0B098"/>
<path id="Path_14" d="M14.99 26.8142H12.783H10.3762H8.81825C8.80826 26.8242 8.79827 26.8242 8.78829 26.8342C8.76831 27.4234 8.68842 27.9926 8.55859 28.5519C10.506 29.4807 12.6831 30 14.99 30V26.8142Z" fill="#C0B098"/>
<path id="Path_15" d="M21.2018 26.8142H21.1719C21.1819 26.8242 21.1918 26.8242 21.2018 26.8342C21.2018 26.8242 21.2018 26.8142 21.2018 26.8142Z" fill="#AA9678"/>
<path id="Path_16" d="M21.172 26.8142H19.6141H17.1973H14.9902V30C17.2872 30 19.4743 29.4807 21.4217 28.5519C21.2918 27.9926 21.2119 27.4134 21.192 26.8342C21.192 26.8242 21.182 26.8142 21.172 26.8142Z" fill="#AA9678"/>
<path id="Path_17" d="M21.861 27.3435C21.831 27.0639 21.821 26.7843 21.821 26.4946C21.821 26.3249 21.6812 26.1851 21.5115 26.1851H21.2418H20.1932H19.4143H17.0973H14.9802H12.863H10.5461H9.7671H8.73848H8.46884C8.29907 26.1851 8.15925 26.3249 8.15925 26.4946C8.15925 26.7843 8.13928 27.0639 8.11931 27.3435C8.08935 27.6531 8.03941 27.9627 7.97949 28.2623C8.16924 28.3622 8.35899 28.462 8.54873 28.5519C8.67856 27.9927 8.75845 27.4134 8.77843 26.8342C8.77843 26.8242 8.77843 26.8242 8.77843 26.8142H8.80839H10.3663H12.7731H14.9802H17.1972H19.604H21.1619H21.1919C21.1919 26.8242 21.1919 26.8242 21.1919 26.8342C21.2119 27.4234 21.2917 27.9927 21.4216 28.5519C21.6113 28.462 21.8011 28.3622 21.9908 28.2623C21.9309 27.9627 21.891 27.6531 21.861 27.3435Z" fill="#8B7460"/>
<path id="Path_18" d="M19.2843 24.0479C19.2344 23.998 19.1945 23.9381 19.1445 23.8782C19.1945 23.9481 19.2444 23.998 19.2843 24.0479Z" fill="#525353"/>
<path id="Path_19" d="M24.9768 11.6645C24.8469 11.4847 24.7171 11.3249 24.5873 11.1851C24.5274 11.1152 24.4674 11.0553 24.4075 10.9954C24.3875 10.9754 24.3576 10.9554 24.3376 10.9354C24.2977 10.8955 24.2577 10.8655 24.2178 10.8356V12.2337L24.7471 14.6804C24.7571 14.7004 24.7571 14.7204 24.767 14.7404L25.1365 15.1598H25.526C25.526 15.1199 25.526 15.0899 25.526 15.05C25.526 13.8915 25.3363 12.783 24.9967 11.7444C24.9867 11.7044 24.9867 11.6844 24.9768 11.6645Z" fill="#BBBCBD"/>
<path id="Path_20" d="M24.8073 14.9101V14.92C24.8073 14.92 24.8073 14.92 24.8073 14.93C24.8173 14.99 24.8173 15.0499 24.8173 15.1098C24.8173 15.1198 24.8173 15.1298 24.8173 15.1398C24.8173 15.1497 24.8173 15.1597 24.8173 15.1697C24.8173 15.2296 24.8173 15.2896 24.8073 15.3395V15.3495V15.3595C24.7973 15.4194 24.7873 15.4793 24.7773 15.5392L25.1469 15.1298L24.7773 14.7103C24.7873 14.7802 24.7973 14.8402 24.8073 14.9101Z" fill="#676A6A"/>
<path id="Shape" d="M24.7975 15.3794C24.7975 15.3694 24.7975 15.3694 24.7975 15.3594C24.8075 15.2995 24.8075 15.2396 24.8075 15.1897C24.8075 15.1797 24.8075 15.1597 24.8075 15.1497C24.8075 15.1397 24.8075 15.1297 24.8075 15.1098C24.8075 15.0499 24.8075 14.9899 24.7975 14.93C24.7975 14.92 24.7975 14.92 24.7975 14.91C24.7875 14.8501 24.7775 14.7902 24.7675 14.7303C24.7575 14.7103 24.7575 14.6903 24.7475 14.6704C24.7076 14.5505 24.6677 14.4507 24.6077 14.3608C24.5977 14.3508 24.5878 14.3408 24.5878 14.3308C24.5678 14.3108 24.5578 14.2909 24.5378 14.2709C24.5179 14.2409 24.4879 14.221 24.4579 14.201C24.4479 14.191 24.438 14.191 24.428 14.181C24.408 14.161 24.378 14.1511 24.3581 14.1411C24.3481 14.1411 24.3381 14.1311 24.3281 14.1311C24.2981 14.1211 24.2582 14.1111 24.2183 14.1111C24.1783 14.1111 24.1483 14.1211 24.1084 14.1311C24.0984 14.1311 24.0884 14.1411 24.0784 14.1411C24.0585 14.1511 24.0285 14.161 24.0085 14.181C23.9985 14.191 23.9886 14.191 23.9786 14.201C23.9486 14.221 23.9286 14.2509 23.8987 14.2709C23.8787 14.2909 23.8687 14.3108 23.8487 14.3308C23.8388 14.3408 23.8288 14.3508 23.8288 14.3608C23.7689 14.4507 23.7189 14.5505 23.689 14.6704V14.6803C23.669 14.7303 23.659 14.7902 23.649 14.8501C23.649 14.8701 23.639 14.8801 23.639 14.9001C23.629 14.97 23.629 15.0299 23.6191 15.0998C23.6191 15.1098 23.6191 15.1198 23.6191 15.1297C23.6191 15.699 23.8887 16.1684 24.2183 16.1684C24.2782 16.1684 24.3281 16.1484 24.388 16.1284C24.398 16.1284 24.408 16.1184 24.418 16.1184C24.438 16.1084 24.4579 16.0885 24.4779 16.0785C24.4879 16.0685 24.4979 16.0585 24.5079 16.0485C24.5378 16.0285 24.5578 15.9986 24.5878 15.9686C24.6077 15.9487 24.6177 15.9287 24.6377 15.8987C24.6477 15.8787 24.6577 15.8688 24.6677 15.8488C24.6876 15.8188 24.6976 15.7889 24.7176 15.7489C24.7276 15.7389 24.7276 15.7289 24.7376 15.709C24.7575 15.659 24.7675 15.6091 24.7875 15.5592C24.7875 15.4993 24.7975 15.4393 24.7975 15.3794ZM24.2382 14.9999C24.1084 14.9999 24.0085 14.8301 24.0085 14.6104C24.0085 14.4007 24.1084 14.221 24.2382 14.221C24.3681 14.221 24.4679 14.3907 24.4679 14.6104C24.4679 14.8301 24.3581 14.9999 24.2382 14.9999Z" fill="black"/>
<path id="Path_21" d="M24.2375 15.0001C24.3644 15.0001 24.4672 14.8258 24.4672 14.6106C24.4672 14.3955 24.3644 14.2212 24.2375 14.2212C24.1106 14.2212 24.0078 14.3955 24.0078 14.6106C24.0078 14.8258 24.1106 15.0001 24.2375 15.0001Z" fill="white"/>
<path id="Path_22" d="M23.6787 14.6705C23.7187 14.5507 23.7586 14.4508 23.8185 14.3609C23.8285 14.3509 23.8385 14.3409 23.8385 14.3309C23.8585 14.311 23.8685 14.291 23.8884 14.271C23.9084 14.2411 23.9384 14.2211 23.9683 14.2011C23.9783 14.1911 23.9883 14.1911 23.9983 14.1811C24.0183 14.1612 24.0482 14.1512 24.0682 14.1412C24.0782 14.1412 24.0882 14.1312 24.0982 14.1312C24.1281 14.1212 24.1681 14.1112 24.208 14.1112C24.248 14.1112 24.2779 14.1212 24.3179 14.1312C24.3278 14.1312 24.3378 14.1412 24.3478 14.1412C24.3678 14.1512 24.3978 14.1612 24.4177 14.1811C24.4277 14.1911 24.4377 14.1911 24.4477 14.2011C24.4776 14.2211 24.4976 14.2511 24.5276 14.271C24.5476 14.291 24.5575 14.311 24.5775 14.3309C24.5875 14.3409 24.5975 14.3509 24.5975 14.3609C24.6574 14.4508 24.7073 14.5507 24.7373 14.6705L24.208 12.2238L23.6787 14.6705Z" fill="#909393"/>
<path id="Shape_2" d="M17.138 15.1198C17.138 15.0699 17.138 15.02 17.128 14.97C17.118 14.9201 17.118 14.8802 17.108 14.8302C17.098 14.7803 17.0881 14.7403 17.0681 14.7004C17.0581 14.6605 17.0381 14.6105 17.0181 14.5706C16.9982 14.5306 16.9782 14.4907 16.9582 14.4507C16.8883 14.3309 16.8084 14.221 16.7086 14.1312C16.5787 14.0113 16.4289 13.9115 16.2691 13.8415C16.1893 13.8116 16.0994 13.7816 16.0195 13.7616C16.0195 13.7616 16.0195 13.7616 16.0095 13.7616C15.9196 13.7417 15.8297 13.7317 15.7399 13.7317C15.65 13.7317 15.5601 13.7417 15.4702 13.7616H15.4602C15.3703 13.7816 15.2905 13.8016 15.2106 13.8316C15.2106 13.8316 15.2106 13.8316 15.2006 13.8316C15.1207 13.8615 15.0408 13.9015 14.9709 13.9514C14.901 14.0013 14.8311 14.0513 14.7711 14.1112H14.7612C14.6613 14.2111 14.5714 14.3209 14.5015 14.4407C14.4815 14.4807 14.4616 14.5206 14.4416 14.5606C14.4416 14.5606 14.4416 14.5706 14.4316 14.5706C14.4116 14.6105 14.4016 14.6405 14.3916 14.6804C14.3916 14.6904 14.3817 14.6904 14.3817 14.7004C14.3717 14.7403 14.3617 14.7703 14.3517 14.8103C14.3517 14.8202 14.3417 14.8302 14.3417 14.8402C14.3317 14.8802 14.3317 14.9101 14.3217 14.9501C14.3217 14.9601 14.3217 14.97 14.3118 14.98C14.3118 15.03 14.3018 15.0799 14.3018 15.1298C14.3018 15.2197 14.3118 15.3096 14.3317 15.3995C14.3317 15.3995 14.3317 15.3995 14.3317 15.4095C14.3517 15.4993 14.3717 15.5792 14.4116 15.6691C14.4815 15.8289 14.5814 15.9787 14.7012 16.1085C14.8011 16.2084 14.911 16.2983 15.0308 16.3682C15.0707 16.3881 15.1107 16.4081 15.1506 16.4281H15.1606C15.2006 16.4481 15.2405 16.4581 15.2705 16.468C15.2805 16.468 15.2805 16.468 15.2905 16.478C15.3304 16.488 15.3604 16.498 15.4003 16.508C15.4103 16.508 15.4203 16.518 15.4303 16.518C15.4702 16.528 15.5002 16.528 15.5401 16.5379C15.5501 16.5379 15.5601 16.5379 15.5701 16.5479C15.62 16.5479 15.6699 16.5579 15.7199 16.5579C15.9196 16.5579 16.0994 16.518 16.2691 16.4481C16.349 16.4081 16.4289 16.3682 16.5088 16.3182C16.6586 16.2184 16.7885 16.0885 16.8883 15.9387C16.9383 15.8589 16.9782 15.779 17.0181 15.6991C17.0881 15.5293 17.128 15.3395 17.128 15.1498V15.1398C17.138 15.1198 17.138 15.1198 17.138 15.1198ZM15.7299 14.9501C15.4403 14.9501 15.2006 14.7104 15.2006 14.4208C15.2006 14.1312 15.4403 13.8915 15.7299 13.8915C16.0195 13.8915 16.2592 14.1312 16.2592 14.4208C16.2592 14.7104 16.0195 14.9501 15.7299 14.9501Z" fill="black"/>
<path id="Path_23" d="M15.7285 14.9502C16.0208 14.9502 16.2578 14.7132 16.2578 14.4209C16.2578 14.1286 16.0208 13.8916 15.7285 13.8916C15.4362 13.8916 15.1992 14.1286 15.1992 14.4209C15.1992 14.7132 15.4362 14.9502 15.7285 14.9502Z" fill="white"/>
<path id="Path_24" d="M14.7501 14.1112L15.7288 11.1252C15.7288 11.1252 15.7288 10.9454 15.7288 10.7757C15.7288 10.7257 15.7288 10.6758 15.7288 10.6358C15.7288 10.6159 15.7288 10.6059 15.7288 10.5959C15.7288 10.5759 15.7288 10.5559 15.7288 10.536C15.7288 10.526 15.7288 10.506 15.7288 10.496C15.7288 10.486 15.7288 10.4661 15.7288 10.4561C15.7288 10.4461 15.7288 10.4361 15.7288 10.4361C15.7288 10.4261 15.7288 10.4261 15.7288 10.4261C15.1895 10.3163 14.6302 10.2563 14.061 10.2563C13.8713 10.2563 13.6815 10.2663 13.4918 10.2763C13.4618 10.2763 13.4418 10.2763 13.4119 10.2863C12.4332 10.3562 11.4744 10.6159 10.5856 11.0253C9.82662 11.3749 9.10762 11.8342 8.47846 12.3735C8.30869 12.5233 8.13891 12.6731 7.97912 12.8329C7.94916 12.8629 7.9192 12.8928 7.88924 12.9228C7.73944 13.0726 7.58964 13.2324 7.44983 13.3922C7.41987 13.4321 7.38991 13.4621 7.35995 13.502C7.22014 13.6718 7.08032 13.8416 6.95049 14.0113C6.94051 14.0213 6.93052 14.0413 6.92054 14.0513C6.8007 14.2211 6.68085 14.3908 6.56101 14.5706C6.54104 14.6006 6.51108 14.6405 6.49111 14.6705C6.40123 14.8203 6.31135 14.9701 6.23145 15.1199H10.6555H10.6655L14.7501 14.1112Z" fill="#BBBCBD"/>
<path id="Path_25" d="M18.4954 13.7817C18.5053 13.6618 18.5153 13.552 18.5153 13.4321C18.5253 13.2723 18.5253 13.1225 18.5353 12.9627C18.5353 12.8429 18.5353 12.7231 18.5353 12.5932C18.5353 12.5533 18.5353 12.5233 18.5353 12.4834C18.5353 12.1638 18.5153 11.8542 18.5053 11.5346C18.5053 11.5346 18.4954 11.5346 18.4954 11.5247C18.4954 11.5247 18.4854 11.5247 18.4854 11.5147C18.4255 11.4847 18.2856 11.4048 18.1558 11.3249H18.1458C18.1159 11.305 18.0859 11.285 18.0559 11.275C18.036 11.265 18.016 11.245 17.996 11.235L17.986 11.2251C17.9661 11.2151 17.9461 11.2051 17.9361 11.1951C17.7364 11.0852 17.5267 10.9954 17.3169 10.9055C16.8176 10.6958 16.1385 10.506 15.749 10.4161V10.6858V10.7457V10.7657C15.749 10.9454 15.749 11.1152 15.749 11.1152L16.7177 14.0912C16.8176 14.1811 16.9075 14.291 16.9674 14.4108C16.9874 14.4508 17.0073 14.4907 17.0273 14.5307C17.0473 14.5706 17.0673 14.6105 17.0773 14.6605C17.0872 14.7004 17.1072 14.7504 17.1172 14.7903C17.1272 14.8402 17.1372 14.8802 17.1372 14.9301C17.1472 14.9801 17.1472 15.03 17.1472 15.0799V15.0899H18.3256C18.4055 14.6605 18.4654 14.2211 18.4954 13.7817C18.4954 13.8016 18.4954 13.7916 18.4954 13.7817Z" fill="#E2DDDB"/>
<path id="Path_26" d="M17.1479 19.3742C17.4175 19.1046 17.6672 18.8549 17.9069 18.6052C18.0467 18.4554 18.1865 18.3056 18.3263 18.1658C19.315 17.0973 20.034 16.0886 20.4735 14.8003C20.4834 14.7704 20.4934 14.7304 20.5034 14.6805C20.5034 14.6705 20.5034 14.6705 20.5034 14.6605C20.5134 14.6106 20.5234 14.5606 20.5334 14.5007C20.5334 14.4608 20.5434 14.4208 20.5434 14.3809C20.4335 13.8216 20.2238 13.2724 20.034 12.7331C20.034 12.7331 20.034 12.7331 20.034 12.7431C20.034 12.7431 20.034 12.7431 20.0241 12.7331C19.9841 12.7031 19.9541 12.6632 19.9142 12.6332C19.8043 12.5333 19.6945 12.4335 19.5747 12.3336C19.2251 12.044 18.8656 11.7743 18.4861 11.5447C18.5061 11.8642 18.5161 12.1738 18.5161 12.4934C18.5161 12.5333 18.5161 12.5633 18.5161 12.6032C18.5161 12.7231 18.5161 12.8429 18.5161 12.9728C18.5161 13.1325 18.5061 13.2923 18.4961 13.4421C18.4861 13.562 18.4861 13.6718 18.4761 13.7917C18.4761 13.8016 18.4761 13.8116 18.4761 13.8316C18.4362 14.271 18.3862 14.7104 18.3063 15.1399L18.1665 15.799C17.8769 16.9774 17.2877 18.036 16.8083 19.1345C16.6785 19.4242 16.5587 19.7238 16.4488 20.0234C16.4388 20.0533 16.4288 20.0833 16.4189 20.1132C16.5687 19.9535 16.7085 19.8136 16.8083 19.7138C16.9382 19.5839 17.038 19.4741 17.1479 19.3742Z" fill="#FBB040"/>
<path id="Path_27" d="M14.7607 14.1113C14.8206 14.0514 14.8905 14.0015 14.9604 13.9515C15.0303 13.9016 15.1102 13.8616 15.1901 13.8317C15.1901 13.8317 15.1901 13.8317 15.2001 13.8317C15.28 13.8017 15.3599 13.7718 15.4497 13.7618H15.4597C15.5496 13.7418 15.6395 13.7318 15.7294 13.7318C15.8192 13.7318 15.9091 13.7418 15.999 13.7618C15.999 13.7618 15.999 13.7618 16.009 13.7618C16.0989 13.7818 16.1788 13.8017 16.2587 13.8417C16.4184 13.9116 16.5682 14.0015 16.6981 14.1313L15.7294 11.1553L14.7607 14.1113Z" fill="#909393"/>
<path id="Path_28" d="M14.421 15.6691C14.391 15.5892 14.3611 15.4994 14.3411 15.4095C14.3411 15.4095 14.3411 15.4095 14.3411 15.3995C14.3211 15.3096 14.3112 15.2197 14.3112 15.1298C14.3112 15.0799 14.3112 15.03 14.3211 14.98C14.3211 14.9701 14.3211 14.9601 14.3311 14.9501C14.3311 14.9101 14.3411 14.8802 14.3511 14.8402C14.3511 14.8302 14.3611 14.8203 14.3611 14.8103C14.3711 14.7703 14.3811 14.7404 14.391 14.7004C14.391 14.6904 14.401 14.6904 14.401 14.6804C14.411 14.6405 14.431 14.6006 14.441 14.5706C14.441 14.5706 14.441 14.5606 14.451 14.5606C14.4709 14.5207 14.4909 14.4807 14.5109 14.4408C14.5808 14.3209 14.6707 14.2111 14.7705 14.1112L10.676 15.1199H10.666L14.7206 16.1085C14.5908 15.9887 14.4909 15.8389 14.421 15.6691Z" fill="#676A6A"/>
<path id="Path_29" d="M23.6284 14.9002C23.6284 14.8802 23.6384 14.8602 23.6384 14.8502C23.6484 14.7903 23.6584 14.7304 23.6783 14.6805C23.6783 14.6705 23.6783 14.6705 23.6783 14.6605L24.2076 12.2137V10.8156C23.7682 10.4561 23.3088 10.2563 22.8195 10.2563C22.2003 10.2563 21.6311 10.5959 21.2016 11.0153C20.7323 11.4747 20.3727 12.054 20.0731 12.6332C20.0632 12.6631 20.0432 12.6831 20.0332 12.7131C20.1231 12.793 20.213 12.8729 20.3028 12.9528C20.5026 13.1325 20.7023 13.3223 20.8921 13.512C20.9819 13.6019 21.0718 13.6918 21.1617 13.7816C21.2516 13.8815 21.3514 13.9714 21.4413 14.0713C21.5612 14.2011 21.681 14.3209 21.7909 14.4508C21.8408 14.5007 21.8907 14.5606 21.9407 14.6105C22.0805 14.7703 22.2203 14.9201 22.3601 15.0799C22.3801 15.0999 22.4001 15.1199 22.41 15.1299H23.6184C23.6184 15.1199 23.6184 15.1099 23.6184 15.0999C23.6184 15.04 23.6184 14.9701 23.6284 14.9002Z" fill="#E2DDDB"/>
<path id="Path_30" d="M5.5028 16.6678C5.5028 16.6578 5.51278 16.6478 5.51278 16.6379C5.59268 16.4381 5.67257 16.2384 5.76245 16.0387C5.78242 15.9787 5.81238 15.9288 5.84234 15.8789C5.91225 15.7191 5.99214 15.5693 6.07204 15.4195C6.102 15.3596 6.13196 15.2996 6.1719 15.2297C6.19188 15.1998 6.21185 15.1598 6.23182 15.1299C6.3217 14.9801 6.4016 14.8303 6.49148 14.6805C6.51145 14.6505 6.54141 14.6106 6.56139 14.5806C6.67124 14.4008 6.79108 14.2311 6.92091 14.0613C6.93089 14.0513 6.94088 14.0313 6.95087 14.0213C7.08069 13.8416 7.22051 13.6718 7.36032 13.512C7.39028 13.4721 7.42024 13.4421 7.4502 13.4022C7.59001 13.2424 7.73981 13.0826 7.88962 12.9328C7.91958 12.9028 7.94953 12.8729 7.9795 12.8429C8.13928 12.6831 8.29907 12.5333 8.47883 12.3835C9.14794 10.1265 11.2152 8.47873 13.6519 8.47873C14.6306 8.47873 15.6093 8.75836 16.4482 9.27766C17.3071 9.807 18.0061 10.5759 18.4555 11.4647C18.4555 11.4647 18.4555 11.4747 18.4655 11.4747C18.4755 11.4947 18.4855 11.5147 18.5055 11.5446C18.885 11.7743 19.2445 12.044 19.594 12.3336C19.7139 12.4335 19.8237 12.5333 19.9336 12.6332C19.9735 12.6632 20.0035 12.7031 20.0434 12.7331C20.0534 12.7031 20.0634 12.6831 20.0834 12.6532C20.4229 10.4861 21.3816 8.91814 22.5101 8.91814C23.359 8.91814 24.118 9.807 24.5774 11.1751V11.1851C24.7072 11.3249 24.837 11.4847 24.9669 11.6545C24.9669 11.6545 24.9669 11.6645 24.9768 11.6645C24.9868 11.6845 24.9868 11.7044 24.9968 11.7244L24.9768 11.6545C23.5687 7.50004 19.644 4.50403 15.0101 4.50403C9.19787 4.50403 4.49414 9.20776 4.49414 15.02C4.49414 16.1685 4.6739 17.267 5.01345 18.2956C5.01345 18.2956 5.01345 18.2956 5.01345 18.2857C5.08336 17.9761 5.16325 17.6665 5.25313 17.3669C5.33302 17.1272 5.41292 16.8975 5.5028 16.6678Z" fill="#525353"/>
<path id="Path_31" d="M25.136 15.1398L24.7665 15.5493C24.7565 15.5992 24.7365 15.6491 24.7165 15.6991C24.7165 15.7091 24.7065 15.7191 24.6966 15.739C24.6866 15.769 24.6666 15.8089 24.6466 15.8389C24.6366 15.8589 24.6267 15.8689 24.6167 15.8888C24.5967 15.9088 24.5867 15.9388 24.5667 15.9587C24.5468 15.9887 24.5168 16.0187 24.4868 16.0386C24.4769 16.0486 24.4669 16.0586 24.4569 16.0686C24.4369 16.0886 24.4169 16.0985 24.397 16.1085C24.387 16.1085 24.377 16.1185 24.367 16.1185C24.3171 16.1485 24.2571 16.1585 24.1972 16.1585C23.8677 16.1585 23.598 15.6991 23.598 15.1199H22.3896C22.6193 15.3795 22.839 15.6392 23.0488 15.9088L23.0587 15.9188C23.2685 16.1784 23.4782 16.4381 23.6879 16.6977C23.6979 16.7077 23.7079 16.7277 23.7179 16.7377C23.9176 16.9874 24.1073 17.237 24.2971 17.4867C24.3171 17.5067 24.337 17.5366 24.357 17.5566C24.5567 17.8262 24.7565 18.0959 24.9562 18.3555C24.9562 18.3555 24.9562 18.3555 24.9562 18.3655C25.3057 17.3369 25.4955 16.2483 25.5055 15.1099L25.136 15.1398Z" fill="white"/>
<path id="Path_32" d="M13.4124 10.2763C13.4423 10.2763 13.4623 10.2763 13.4923 10.2664C13.682 10.2564 13.8718 10.2464 14.0615 10.2464C14.6308 10.2464 15.19 10.3063 15.7293 10.4162C15.7293 10.4162 15.7293 10.4162 15.7293 10.4261C15.7293 10.4261 15.7293 10.4361 15.7293 10.4461C15.7293 10.4561 15.7293 10.4661 15.7293 10.4861C15.7293 10.496 15.7293 10.506 15.7293 10.526C15.7293 10.546 15.7293 10.566 15.7293 10.5859C15.7293 10.5959 15.7293 10.6159 15.7293 10.6259C15.7293 10.6458 15.7293 10.6658 15.7293 10.6858V10.4162C16.1088 10.506 16.7879 10.6958 17.2972 10.9055C17.5069 10.9954 17.7166 11.0953 17.9164 11.1951C17.9264 11.1951 17.9463 11.2051 17.9663 11.2251C17.9663 11.2251 17.9763 11.2251 17.9763 11.2351C17.9963 11.2451 18.0162 11.255 18.0362 11.275C18.0662 11.295 18.0961 11.305 18.1261 11.3249H18.1361C18.2659 11.3949 18.4057 11.4847 18.4657 11.5147C18.4756 11.5147 18.4756 11.5247 18.4756 11.5247L18.4856 11.5347C18.4756 11.5147 18.4656 11.4947 18.4457 11.4648C18.4457 11.4648 18.4457 11.4548 18.4357 11.4548C17.9863 10.556 17.2772 9.787 16.4284 9.26769C15.5895 8.75836 14.6108 8.46875 13.6321 8.46875C11.1953 8.46875 9.12809 10.1166 8.45898 12.3735C9.09813 11.8243 9.8072 11.3649 10.5662 11.0253C11.475 10.6059 12.4437 10.3562 13.4124 10.2763Z" fill="black"/>
<path id="Path_33" d="M21.2122 11.0252C21.6416 10.6057 22.2108 10.2662 22.83 10.2662C23.3194 10.2662 23.7888 10.4659 24.2183 10.8254C24.2582 10.8554 24.2982 10.8953 24.3381 10.9253C24.3581 10.9453 24.3879 10.9652 24.4079 10.9852C24.4678 11.0451 24.5278 11.1051 24.5877 11.175V11.165C24.1183 9.79678 23.3694 8.90796 22.5205 8.90796C21.392 8.90796 20.4333 10.4659 20.0938 12.643C20.3733 12.0638 20.7428 11.4845 21.2122 11.0252Z" fill="black"/>
<path id="Path_34" d="M11.2451 24.8369C11.345 24.8768 11.4349 24.9068 11.5348 24.9367C12.6233 25.3162 13.7917 25.526 15.0101 25.526C16.3983 25.526 17.7265 25.2563 18.9349 24.767C18.9948 24.737 19.0647 24.717 19.1246 24.6871C19.2245 24.6471 19.3344 24.5972 19.4342 24.5473C19.5241 24.5073 19.614 24.4674 19.7039 24.4174C19.6839 24.4174 19.6639 24.4274 19.6439 24.4274C19.2645 24.4674 18.8949 24.4774 18.5254 24.4174C16.3583 24.1078 15.879 23.0592 15.9489 21.9807C15.7891 21.8908 15.6393 21.7909 15.4695 21.6711C13.8017 20.4627 12.8131 19.1744 12.8131 19.1744C12.8131 19.1744 14.1013 20.1631 16.0188 20.9121C16.0587 20.9321 16.0987 20.9421 16.1386 20.962C16.2285 20.6525 16.3384 20.3529 16.4282 20.0932C16.4382 20.0632 16.4482 20.0333 16.4582 20.0033C16.5681 19.7037 16.6879 19.4041 16.8177 19.1145C17.2971 18.016 17.8863 16.9474 18.1759 15.7789L18.3157 15.1198H17.1373V15.1298C17.1373 15.3295 17.0973 15.5093 17.0274 15.6791C16.9875 15.759 16.9475 15.8489 16.8976 15.9188C16.7977 16.0686 16.6679 16.1984 16.5181 16.2983C16.4382 16.3482 16.3583 16.3881 16.2784 16.4281C16.1087 16.498 15.9189 16.5379 15.7292 16.5379C15.6792 16.5379 15.6293 16.5379 15.5794 16.528C15.5694 16.528 15.5594 16.528 15.5494 16.518C15.5095 16.518 15.4795 16.508 15.4396 16.498C15.4296 16.498 15.4196 16.488 15.4096 16.488C15.3696 16.478 15.3397 16.468 15.2997 16.458C15.2898 16.458 15.2898 16.458 15.2798 16.4481C15.2398 16.4381 15.1999 16.4181 15.1699 16.4081H15.1599C15.12 16.3881 15.08 16.3682 15.0401 16.3482C14.9202 16.2783 14.8104 16.1984 14.7105 16.0885L10.6559 15.0999H6.23183C6.21185 15.1298 6.19188 15.1698 6.17191 15.1997C6.14195 15.2596 6.102 15.3196 6.07204 15.3895C5.99215 15.5393 5.91225 15.6991 5.84235 15.8489C5.81239 15.8988 5.79241 15.9587 5.76245 16.0086C5.67257 16.2084 5.59268 16.4081 5.51278 16.6078C5.51278 16.6178 5.5028 16.6278 5.5028 16.6378C5.41292 16.8675 5.33302 17.1072 5.26312 17.3469C5.17324 17.6465 5.09334 17.956 5.02344 18.2656C5.72251 20.3928 7.07071 22.2204 8.84834 23.4987C8.89827 23.5386 8.95819 23.5686 9.00813 23.6085C9.30773 23.8182 9.6173 24.018 9.9369 24.1877C10.3563 24.4474 10.7957 24.6571 11.2451 24.8369Z" fill="white"/>
<path id="Path_35" d="M18.5052 21.5614C18.4852 21.6712 18.4752 21.7811 18.4752 21.8909C18.4653 22.0807 18.4852 22.2704 18.5152 22.4402C18.5352 22.5601 18.5551 22.6699 18.5851 22.7798C18.635 22.9395 18.685 23.0893 18.7549 23.2292C18.8248 23.369 18.8947 23.4988 18.9646 23.6087C18.9846 23.6486 19.0145 23.6885 19.0345 23.7185C19.0744 23.7684 19.1044 23.8184 19.1444 23.8683C19.1943 23.9282 19.2442 23.9881 19.2842 24.0381C19.4739 24.2578 19.6337 24.3776 19.6337 24.3776C19.6337 24.3776 19.6337 24.3776 19.6337 24.3876C19.6337 24.3976 19.6337 24.4076 19.6437 24.4176C19.6637 24.4176 19.6836 24.4076 19.7036 24.4076C20.173 24.3477 20.6424 24.2178 21.1117 24.0581C21.3514 23.9682 21.5911 23.8783 21.8208 23.7784C21.8907 23.7485 21.9606 23.7085 22.0305 23.6786C24.4373 22.5101 26.4546 20.4529 26.4546 20.4529C23.4386 21.9409 20.4726 21.881 18.5052 21.5614Z" fill="#9F2255"/>
<path id="Path_36" d="M24.3179 17.5066C24.1281 17.257 23.9284 17.0073 23.7387 16.7576C23.7287 16.7477 23.7187 16.7277 23.7087 16.7177C23.499 16.458 23.2893 16.1984 23.0795 15.9387L23.0696 15.9287C22.8498 15.6591 22.6301 15.3995 22.4104 15.1398C22.4004 15.1198 22.3805 15.1098 22.3705 15.0899C22.2307 14.9301 22.0909 14.7803 21.951 14.6205C21.9011 14.5706 21.8512 14.5106 21.8012 14.4607C21.6814 14.3309 21.5716 14.211 21.4517 14.0812C21.3618 13.9813 21.262 13.8915 21.1721 13.7916C21.0822 13.7017 20.9923 13.6118 20.9024 13.522C20.7127 13.3322 20.513 13.1425 20.3132 12.9627C20.2233 12.8828 20.1335 12.8029 20.0436 12.723C20.2333 13.2723 20.453 13.8216 20.5629 14.3908C20.5929 14.5406 20.6128 14.6804 20.6328 14.8202C20.9024 16.7876 20.2633 18.0759 19.2646 19.7736C19.1947 19.8935 19.1148 20.0233 19.0449 20.1431C18.8152 20.5226 18.6654 20.8921 18.5855 21.2317C18.5556 21.3415 18.5356 21.4514 18.5156 21.5612C20.483 21.8808 23.4391 21.9407 26.465 20.4527C26.465 20.4527 25.8758 19.5839 24.977 18.3855C24.7773 18.1158 24.5775 17.8462 24.3778 17.5865C24.3578 17.5566 24.3379 17.5266 24.3179 17.5066Z" fill="#E2066F"/>
<path id="Path_37" d="M19.6344 24.3976C19.6344 24.3976 19.4846 24.2777 19.2849 24.058C19.2349 24.0081 19.195 23.9482 19.145 23.8882C19.1051 23.8383 19.0751 23.7884 19.0352 23.7384C19.0152 23.6985 18.9853 23.6685 18.9653 23.6286C18.8954 23.5087 18.8255 23.3889 18.7556 23.2491C18.6956 23.1093 18.6357 22.9595 18.5858 22.7997C18.5558 22.6898 18.5259 22.58 18.5159 22.4601C18.4859 22.2904 18.4759 22.1006 18.4759 21.9109C18.4759 21.801 18.4859 21.6912 18.5059 21.5813C18.5259 21.4715 18.5458 21.3616 18.5758 21.2517C18.6657 20.9122 18.8055 20.5527 19.0352 20.1632C19.1051 20.0334 19.185 19.9135 19.2549 19.7937C20.2536 18.096 20.8927 16.8177 20.6231 14.8403C20.6031 14.7005 20.5831 14.5507 20.5532 14.4109C20.5432 14.5107 20.5232 14.6006 20.5032 14.6705C20.5032 14.6805 20.5032 14.6805 20.5032 14.6905C20.4933 14.7404 20.4833 14.7804 20.4733 14.8103C20.0339 16.0986 19.3148 17.1073 18.3261 18.1758C18.1963 18.3256 18.0565 18.4655 17.9067 18.6153C17.667 18.8649 17.4074 19.1246 17.1477 19.3842C17.0379 19.4941 16.928 19.594 16.8182 19.7038C16.7183 19.8037 16.5785 19.9435 16.4287 20.1033C16.3388 20.3629 16.2289 20.6625 16.1391 20.9721C16.0991 20.9521 16.0592 20.9422 16.0192 20.9222C14.1018 20.1832 12.8135 19.1845 12.8135 19.1845C12.8135 19.1845 13.8022 20.4728 15.4699 21.6812C15.6297 21.801 15.7895 21.9009 15.9493 21.9908C15.8794 23.0793 16.3588 24.1179 18.5259 24.4275C18.8954 24.4774 19.2649 24.4774 19.6444 24.4375C19.6444 24.4175 19.6344 24.4075 19.6344 24.3976Z" fill="black"/>
</g>
</g>
</g>
</g>
</svg>
