<svg width="30" height="30" viewBox="0 0 30 30" fill="none" xmlns="http://www.w3.org/2000/svg">
<mask id="mask0_3960_4714" style="mask-type:luminance" maskUnits="userSpaceOnUse" x="0" y="0" width="30" height="30">
<path d="M0 8C0 3.58172 3.58172 0 8 0H22C26.4183 0 30 3.58172 30 8V22C30 26.4183 26.4183 30 22 30H8C3.58172 30 0 26.4183 0 22V8Z" fill="white"/>
</mask>
<g mask="url(#mask0_3960_4714)">
<g clip-path="url(#clip0_3960_4714)">
<path d="M18.2233 12.8137H20.7008C20.7559 12.8137 20.866 12.8136 20.9211 12.8687C20.9211 12.8687 20.9211 12.8687 20.9211 12.9238V17.7137V19.6958V22.2834V22.6138V22.889V24.2104C20.9211 24.4857 21.1964 24.7059 21.4716 24.5958L21.857 24.4857C22.9031 24.1003 24.1144 23.6598 25.6009 23.1643C25.6009 23.1093 25.656 23.0542 25.656 22.9992V22.6138V22.2834V12.9238V12.8687V12.8137V5.82144C25.656 5.60121 25.4908 5.38098 25.2155 5.38098H23.0683C22.9031 5.38098 22.7379 5.49109 22.6829 5.65627C22.0222 7.63831 20.7008 9.12484 18.7188 9.45518C18.5536 9.51024 18.3885 9.51024 18.2233 9.51024C18.0031 9.51024 17.8379 9.73047 17.8379 9.9507V12.3181C17.8379 12.5934 18.0031 12.8137 18.2233 12.8137Z" fill="#D93A26"/>
<path d="M21.4719 4.66517C21.4169 4.55506 21.2517 4.5 21.1416 4.5H10.846H10.4606H4.89983C4.40432 4.5 3.96387 4.8854 3.96387 5.32585V8.35398C3.96387 8.51915 4.12904 8.62926 4.29421 8.62926H10.5156V10.9416V24.5957C10.5156 24.7058 10.5707 24.816 10.7359 24.871C12.2224 25.4216 13.6539 25.9722 14.755 26.5227C14.9202 26.6328 15.1404 26.4677 15.1404 26.2474V9.28994C15.1404 9.23489 15.1404 9.23489 15.1404 9.17983C15.0853 9.01466 15.1955 8.79443 15.3606 8.68432C15.4157 8.68432 15.4707 8.68432 15.5258 8.68432H17.2876C21.1416 8.29892 21.527 5.32585 21.582 4.99551V4.94045V4.8854C21.582 4.77528 21.527 4.72023 21.4719 4.66517Z" fill="#D93A26"/>
</g>
</g>
<defs>
<clipPath id="clip0_3960_4714">
<rect width="23.0732" height="22" fill="white" transform="translate(3.96387 4.5)"/>
</clipPath>
</defs>
</svg>
