<?xml version="1.0" encoding="UTF-8"?> <svg xmlns="http://www.w3.org/2000/svg" id="Слой_1" data-name="Слой 1" viewBox="0 0 602 602"><defs><style>.cls-1{fill:#e82051;}.cls-2{fill:#6ec5d6;}.cls-3{fill:#fff;}</style></defs><rect width="602" height="602" rx="107.87"></rect><path class="cls-1" d="M940,561V502s-41-6-75,17-55,70-44,114,49,88,119,83,95-71,95-104V489s39,29,81,26V457s-36,0-63-30c-19-23-18-51-18-51H976V611s-2,46-47,47-52-42-52-47,2-45,47-53A30.93,30.93,0,0,1,940,561Z" transform="translate(-650 -232)"></path><path class="cls-2" d="M924,548V489s-41-6-75,17-55,70-44,114,49,88,119,83,95-71,95-104V476s39,29,81,26V444s-36,0-63-30c-19-23-18-51-18-51H960V598s-2,46-47,47-52-42-52-47,2-45,47-53A30.93,30.93,0,0,1,924,548Z" transform="translate(-650 -232)"></path><path class="cls-3" d="M1099.5,502.5l.5-47.31s-22-4-42.72-24.84c0,0-18.94-11.67-28.36-28.76s-9.37-25.59-9.37-25.59l-44,.5.5,232.76s-.54,41.84-39,48c-33.48,4.2-49.23-17.53-49.23-17.53s-21.47-11.46-24.86-29.86-1.1-34.28,11.76-47.34,26.79-17.25,36.82-17.66c6-.41,13,3.59,13,3.59l-.5-47.16s-49.43-4.51-88,48.33-3.68,112.89-3.68,112.89,9.9,16.36,17,22.65c0,0,29.08,20.12,60.6,18.79,38,0,71.84-13.88,93.68-49.69,17.84-28.81,15.34-58.76,15.34-58.76l0-119.33s32.27,21.34,56.87,24.31C1092.5,502.5,1099.5,502.5,1099.5,502.5Z" transform="translate(-650 -232)"></path></svg> 