<svg width="26" height="30" viewBox="0 0 26 30" fill="none" xmlns="http://www.w3.org/2000/svg">
<path fill-rule="evenodd" clip-rule="evenodd" d="M14.3194 9.26138C14.2434 9.73331 13.681 10.0988 12.9977 10.0992C12.3162 10.0988 11.7538 9.73331 11.6797 9.26138L11.0049 1.41277C11.0049 0.636827 11.8883 0 12.9988 0C14.1103 0 14.9946 0.636853 14.9946 1.41277L14.3194 9.26138ZM8.82548 10.9557C9.18705 11.2594 9.21285 11.9428 8.86982 12.5508V12.5508L8.87208 12.5462C8.53176 13.1537 7.93938 13.4723 7.50496 13.3067L0.55564 9.98057C-0.0950943 9.5922 -0.193761 8.48784 0.363323 7.49932C0.918584 6.50938 1.89699 6.04186 2.54957 6.43031L8.82548 10.9557ZM17.1274 12.5465C17.47 13.1541 18.0592 13.4727 18.4941 13.3071L25.4434 9.98101C26.0983 9.59261 26.1915 8.4882 25.6394 7.49968C25.0814 6.51071 24.1012 6.04224 23.4504 6.43072L17.174 10.9561C16.8161 11.2586 16.7886 11.9397 17.1271 12.5465H17.127L17.1297 12.5512L17.1271 12.5465H17.1274ZM14.3194 20.7386C14.2434 20.2662 13.681 19.9039 12.9977 19.9035C12.3162 19.9039 11.7538 20.2662 11.6797 20.7385L11.0049 28.5863C11.0049 29.3646 11.8883 30 12.9988 30C14.1103 30 14.9946 29.3646 14.9946 28.5863L14.3194 20.7386ZM17.1274 17.4515L17.1282 17.4502H17.1297C16.7885 18.0576 16.8152 18.7419 17.174 19.0476L23.4504 23.5688C24.1012 23.9567 25.0814 23.4869 25.6394 22.5012C26.1915 21.5117 26.0983 20.4064 25.4434 20.0175L18.4941 16.6937C18.0596 16.5264 17.4709 16.8416 17.1282 17.4502H17.127L17.1274 17.4515ZM8.8706 17.452C9.21281 18.0588 9.18678 18.7422 8.82548 19.048L2.54957 23.5692C1.89699 23.9572 0.918584 23.4874 0.363323 22.5016C-0.193761 21.5122 -0.0950943 20.4068 0.55564 20.0179L7.50496 16.6942C7.93938 16.5267 8.53176 16.8425 8.87208 17.452H8.8706Z" fill="#FFC220"/>
</svg>
