<svg width="30" height="30" viewBox="0 0 30 30" fill="none" xmlns="http://www.w3.org/2000/svg">
<g id="Zeplin-aprobadas">
<g id="Integraciones">
<g id="Group-8">
<g id="logo-wix">
<path id="Path" d="M15 30C23.2843 30 30 23.2843 30 15C30 6.71573 23.2843 0 15 0C6.71573 0 0 6.71573 0 15C0 23.2843 6.71573 30 15 30Z" fill="black"/>
<path id="Shape" d="M16.0811 12.1933C16.3096 12.0732 16.7197 12.0849 16.7197 12.0849C16.7197 12.4833 16.6816 12.7206 16.4297 12.9052C16.3506 12.9638 16.21 13.0546 16.0488 13.1132C15.8262 13.1953 15.6738 13.3388 15.6738 13.3388C15.6738 12.6122 15.7852 12.3486 16.0811 12.1933ZM14.3203 12.3632C14.0771 12.5771 14.0068 12.9169 14.0068 12.9169L13.2041 16.0253L12.5361 13.4794C12.4717 13.2099 12.3545 12.873 12.1699 12.6474C11.9326 12.3603 11.4521 12.3398 11.4023 12.3398C11.3525 12.3398 10.8721 12.3574 10.6348 12.6474C10.4502 12.873 10.333 13.207 10.2686 13.4794L9.5977 16.0253L8.79492 12.9169C8.79492 12.9169 8.72461 12.5771 8.48145 12.3632C8.08887 12.0175 7.5 12.0908 7.5 12.0908L9.03516 17.9003C9.03516 17.9003 9.542 17.9355 9.7969 17.8066C10.1309 17.6367 10.2891 17.5048 10.4912 16.7138C10.6699 16.0078 11.1738 13.9394 11.2207 13.79C11.2441 13.7167 11.2734 13.5439 11.4023 13.5439C11.5342 13.5439 11.5605 13.7167 11.584 13.79C11.6309 13.9365 12.1348 16.0078 12.3135 16.7138C12.5156 17.5048 12.6738 17.6367 13.0078 17.8066C13.2627 17.9355 13.7695 17.9003 13.7695 17.9003L15.3076 12.0878C15.3018 12.0908 14.7129 12.0146 14.3203 12.3632ZM16.7197 13.04C16.7197 13.04 16.623 13.1894 16.4033 13.3124C16.2627 13.3915 16.1279 13.4443 15.9814 13.5146C15.7383 13.6318 15.6738 13.7607 15.6738 13.9599V17.9003C15.6738 17.9003 16.0605 17.9501 16.3154 17.8212C16.6406 17.6542 16.7168 17.4931 16.7197 16.7724V13.04ZM20.5518 15.0087L22.5029 12.1083C22.5029 12.1083 21.6797 11.9677 21.2725 12.3398C21.0117 12.5771 20.7187 13.0048 20.7187 13.0048L20.001 14.039C19.9658 14.0917 19.9219 14.1503 19.8486 14.1503C19.7754 14.1503 19.7314 14.0917 19.6963 14.039L18.9785 13.0048C18.9785 13.0048 18.6855 12.5771 18.4248 12.3398C18.0176 11.9677 17.1943 12.1083 17.1943 12.1083L19.1455 15.0087L17.1973 17.9003C17.1973 17.9003 18.0557 18.0087 18.4629 17.6367C18.7236 17.3994 18.9756 17.0126 18.9756 17.0126L19.6934 15.9785C19.7285 15.9257 19.7725 15.8671 19.8457 15.8671C19.9189 15.8671 19.9629 15.9257 19.998 15.9785L20.7158 17.0126C20.7158 17.0126 20.9824 17.3994 21.2432 17.6367C21.6504 18.0087 22.4941 17.9003 22.4941 17.9003L20.5518 15.0087Z" fill="white"/>
</g>
</g>
</g>
</g>
</svg>
