<svg width="181" height="32" viewBox="0 0 181 32" fill="none" xmlns="http://www.w3.org/2000/svg">
<g id="Symbols">
<g id="menu">
<g id="logo">
<path id="Fill-80" fill-rule="evenodd" clip-rule="evenodd" d="M46.139 23.6106L47.261 24.27C46.279 25.4991 44.4561 27.0879 40.985 27.0879C36.8129 27.0879 33.377 23.9103 33.377 19.8934C33.377 15.8765 36.8129 12.6991 40.985 12.6991C44.4561 12.6991 46.3144 14.1379 47.261 15.3369L46.139 15.9965C45.3325 15.0372 43.8249 13.8981 40.985 13.8981C37.5141 13.8981 34.7793 16.596 34.7793 19.8934C34.7793 23.1908 37.5141 25.8888 40.985 25.8888C43.8249 25.8888 45.2975 24.5998 46.139 23.6106Z" fill="#1C1E1E"/>
<path id="Stroke-81" fill-rule="evenodd" clip-rule="evenodd" d="M46.139 23.6106L47.261 24.27C46.279 25.4991 44.4561 27.0879 40.985 27.0879C36.8129 27.0879 33.377 23.9103 33.377 19.8934C33.377 15.8765 36.8129 12.6991 40.985 12.6991C44.4561 12.6991 46.3144 14.1379 47.261 15.3369L46.139 15.9965C45.3325 15.0372 43.8249 13.8981 40.985 13.8981C37.5141 13.8981 34.7793 16.596 34.7793 19.8934C34.7793 23.1908 37.5141 25.8888 40.985 25.8888C43.8249 25.8888 45.2975 24.5998 46.139 23.6106Z" stroke="#1C1E1E"/>
<path id="Fill-82" fill-rule="evenodd" clip-rule="evenodd" d="M51.6084 19.8935C51.6084 23.1909 54.4133 25.8889 57.9194 25.8889C61.4255 25.8889 64.2301 23.1909 64.2301 19.8935C64.2301 16.596 61.4255 13.898 57.9194 13.898C54.4133 13.898 51.6084 16.596 51.6084 19.8935ZM50.2061 19.8935C50.2061 15.8766 53.712 12.699 57.9194 12.699C62.1266 12.699 65.6327 15.8766 65.6327 19.8935C65.6327 23.9104 62.1266 27.0879 57.9194 27.0879C53.712 27.0879 50.2061 23.9104 50.2061 19.8935Z" fill="#1C1E1E"/>
<path id="Stroke-83" fill-rule="evenodd" clip-rule="evenodd" d="M51.6084 19.8935C51.6084 23.1909 54.4133 25.8889 57.9194 25.8889C61.4255 25.8889 64.2301 23.1909 64.2301 19.8935C64.2301 16.596 61.4255 13.898 57.9194 13.898C54.4133 13.898 51.6084 16.596 51.6084 19.8935ZM50.2061 19.8935C50.2061 15.8766 53.712 12.699 57.9194 12.699C62.1266 12.699 65.6327 15.8766 65.6327 19.8935C65.6327 23.9104 62.1266 27.0879 57.9194 27.0879C53.712 27.0879 50.2061 23.9104 50.2061 19.8935Z" stroke="#1C1E1E"/>
<path id="Fill-84" fill-rule="evenodd" clip-rule="evenodd" d="M80.6736 15.2771C81.6903 17.0457 80.288 13.4484 86.108 12.6991C89.2985 12.2793 91.9982 15.1272 91.9982 18.3048V26.4884L92.0332 27.1179H90.6657L90.6307 26.5184L90.5957 18.3048C90.5957 15.9065 88.6323 13.8981 86.108 13.8981C83.5835 13.8981 81.6201 15.9065 81.6201 18.3048V18.9042V26.4884L81.6551 27.1179H80.288L80.2529 26.5184C80.2529 23.9703 80.2176 21.4524 80.2176 18.9042V18.3048C80.2176 15.9065 78.2544 13.8981 75.7299 13.8981C73.2056 13.8981 71.2422 15.9065 71.2422 18.3048V18.9042V26.4884V27.0879H69.8398V26.4884V18.9042V18.3048V13.2985V12.6991H71.2422V13.2985V14.6476C72.329 13.4484 73.9419 12.6991 75.7299 12.6991C77.9738 12.6991 79.692 13.5084 80.6736 15.2771Z" fill="#1C1E1E"/>
<path id="Stroke-85" fill-rule="evenodd" clip-rule="evenodd" d="M80.6736 15.2771C81.6903 17.0457 80.288 13.4484 86.108 12.6991C89.2985 12.2793 91.9982 15.1272 91.9982 18.3048V26.4884L92.0332 27.1179H90.6657L90.6307 26.5184L90.5957 18.3048C90.5957 15.9065 88.6323 13.8981 86.108 13.8981C83.5835 13.8981 81.6201 15.9065 81.6201 18.3048V18.9042V26.4884L81.6551 27.1179H80.288L80.2529 26.5184C80.2529 23.9703 80.2176 21.4524 80.2176 18.9042V18.3048C80.2176 15.9065 78.2544 13.8981 75.7299 13.8981C73.2056 13.8981 71.2422 15.9065 71.2422 18.3048V18.9042V26.4884V27.0879H69.8398V26.4884V18.9042V18.3048V13.2985V12.6991H71.2422V13.2985V14.6476C72.329 13.4484 73.9419 12.6991 75.7299 12.6991C77.9738 12.6991 79.692 13.5084 80.6736 15.2771Z" stroke="#1C1E1E"/>
<path id="Fill-86" fill-rule="evenodd" clip-rule="evenodd" d="M97.6434 19.294H110.23C110.23 16.596 107.426 13.8981 103.919 13.8981C100.589 13.8981 97.959 16.2662 97.6434 19.294ZM109.459 23.4907L110.581 24.2102C109.529 25.4693 107.566 27.1179 103.919 27.0879C99.677 27.0879 96.2061 23.9105 96.2061 19.8936C96.2061 15.8767 99.677 12.6991 103.919 12.6991C108.127 12.6991 111.633 15.8767 111.633 19.8936V20.493H110.931H97.6434C97.959 23.5207 100.589 25.8888 103.919 25.8888C106.935 25.9188 108.547 24.5699 109.459 23.4907Z" fill="#1C1E1E"/>
<path id="Stroke-87" fill-rule="evenodd" clip-rule="evenodd" d="M97.6434 19.294H110.23C110.23 16.596 107.426 13.8981 103.919 13.8981C100.589 13.8981 97.959 16.2662 97.6434 19.294ZM109.459 23.4907L110.581 24.2102C109.529 25.4693 107.566 27.1179 103.919 27.0879C99.677 27.0879 96.2061 23.9105 96.2061 19.8936C96.2061 15.8767 99.677 12.6991 103.919 12.6991C108.127 12.6991 111.633 15.8767 111.633 19.8936V20.493H110.931H97.6434C97.959 23.5207 100.589 25.8888 103.919 25.8888C106.935 25.9188 108.547 24.5699 109.459 23.4907Z" stroke="#1C1E1E"/>
<path id="Fill-88" fill-rule="evenodd" clip-rule="evenodd" d="M117.241 15.4269C118.644 13.6283 121.028 12.6991 123.833 12.6991H124.534V13.8981H123.833C120.011 13.8981 117.276 15.9965 117.241 19.7435V19.8934V20.493V26.4884V27.0879H115.839V26.4884V20.493V19.8934V19.7435V13.2985V12.6991H117.241V13.2985V15.4269Z" fill="#1C1E1E"/>
<path id="Stroke-89" fill-rule="evenodd" clip-rule="evenodd" d="M117.241 15.4269C118.644 13.6283 121.028 12.6991 123.833 12.6991H124.534V13.8981H123.833C120.011 13.8981 117.276 15.9965 117.241 19.7435V19.8934V20.493V26.4884V27.0879H115.839V26.4884V20.493V19.8934V19.7435V13.2985V12.6991H117.241V13.2985V15.4269Z" stroke="#1C1E1E"/>
<path id="Fill-90" fill-rule="evenodd" clip-rule="evenodd" d="M139.049 23.6106L140.171 24.27C139.19 25.4991 137.366 27.0879 133.895 27.0879C129.723 27.0879 126.287 23.9103 126.287 19.8934C126.287 15.8765 129.723 12.6991 133.895 12.6991C137.366 12.6991 139.225 14.1379 140.171 15.3369L139.049 15.9965C138.243 15.0372 136.735 13.8981 133.895 13.8981C130.424 13.8981 127.69 16.596 127.69 19.8934C127.69 23.1908 130.424 25.8888 133.895 25.8888C136.735 25.8888 138.208 24.5998 139.049 23.6106Z" fill="#1C1E1E"/>
<path id="Stroke-91" fill-rule="evenodd" clip-rule="evenodd" d="M139.049 23.6106L140.171 24.27C139.19 25.4991 137.366 27.0879 133.895 27.0879C129.723 27.0879 126.287 23.9103 126.287 19.8934C126.287 15.8765 129.723 12.6991 133.895 12.6991C137.366 12.6991 139.225 14.1379 140.171 15.3369L139.049 15.9965C138.243 15.0372 136.735 13.8981 133.895 13.8981C130.424 13.8981 127.69 16.596 127.69 19.8934C127.69 23.1908 130.424 25.8888 133.895 25.8888C136.735 25.8888 138.208 24.5998 139.049 23.6106Z" stroke="#1C1E1E"/>
<path id="Fill-92" fill-rule="evenodd" clip-rule="evenodd" d="M144.519 13.2985V12.6989H145.921V13.2985V26.4883V27.0879H144.519V26.4883V13.2985ZM145.22 10.2708H144.519V9.07178H145.22H145.255H145.956V10.2708H145.255H145.22Z" fill="#1C1E1E"/>
<path id="Stroke-93" fill-rule="evenodd" clip-rule="evenodd" d="M144.519 13.2985V12.6989H145.921V13.2985V26.4883V27.0879H144.519V26.4883V13.2985ZM145.22 10.2708H144.519V9.07178H145.22H145.255H145.956V10.2708H145.255H145.22Z" stroke="#1C1E1E"/>
<path id="Fill-94" fill-rule="evenodd" clip-rule="evenodd" d="M179.404 16.566H178.001C178.001 15.0072 175.828 13.898 173.478 13.898C171.129 13.898 168.956 15.0072 168.956 16.566C168.956 19.5037 180.035 19.0241 180 23.2209C180 25.2293 177.3 27.0879 173.478 27.0879C169.657 27.0879 166.957 25.2293 166.957 23.2209H168.36C168.36 24.8097 170.849 25.8889 173.478 25.8889C176.108 25.8889 178.597 24.8097 178.597 23.2209C178.597 20.2532 167.588 20.7928 167.553 16.566C167.553 14.5276 170.078 12.699 173.478 12.699C176.879 12.699 179.404 14.5276 179.404 16.566Z" fill="#1C1E1E"/>
<path id="Stroke-95" fill-rule="evenodd" clip-rule="evenodd" d="M179.404 16.566H178.001C178.001 15.0072 175.828 13.898 173.478 13.898C171.129 13.898 168.956 15.0072 168.956 16.566C168.956 19.5037 180.035 19.0241 180 23.2209C180 25.2293 177.3 27.0879 173.478 27.0879C169.657 27.0879 166.957 25.2293 166.957 23.2209H168.36C168.36 24.8097 170.849 25.8889 173.478 25.8889C176.108 25.8889 178.597 24.8097 178.597 23.2209C178.597 20.2532 167.588 20.7928 167.553 16.566C167.553 14.5276 170.078 12.699 173.478 12.699C176.879 12.699 179.404 14.5276 179.404 16.566Z" stroke="#1C1E1E"/>
<path id="Fill-127" fill-rule="evenodd" clip-rule="evenodd" d="M20.3201 12.3033H23.8828C23.9889 12.3033 24.0913 12.3323 24.181 12.3838C24.1799 12.3994 24.1787 12.4147 24.1787 12.4306V19.2565V22.1185V25.799V26.2868V26.6793V28.5947C24.1787 28.9928 24.5648 29.2766 24.9448 29.1576L25.5006 28.9836C26.9711 28.4026 28.7254 27.7761 30.8079 27.1231C30.8448 27.0454 30.8662 26.9597 30.8662 26.8699V26.2868V25.799V12.4306C30.8662 12.4035 30.8645 12.3768 30.8615 12.3504V12.3033H30.8662V2.38997C30.8662 2.05886 30.5979 1.79053 30.2669 1.79053H27.1999C26.9426 1.79053 26.7146 1.95505 26.6325 2.19889C25.6918 4.99829 23.8383 7.10719 20.9898 7.61713C20.757 7.65886 20.5173 7.6899 20.271 7.70973C19.9602 7.73474 19.7207 7.99462 19.7207 8.30641V11.7039C19.7207 12.035 19.9892 12.3033 20.3201 12.3033Z" fill="#DB3A28"/>
<path id="Fill-129" fill-rule="evenodd" clip-rule="evenodd" d="M24.9616 0.721772C24.8276 0.584846 24.6438 0.5 24.4404 0.5H9.76641H9.21474H1.3158C0.589092 0.5 0 1.03391 0 1.69215V5.98618C0 6.22002 0.209183 6.40955 0.466997 6.40955H9.30666V9.71578C9.30666 9.72871 9.30424 9.73975 9.30321 9.75199V29.2157C9.30321 29.3943 9.4203 29.5513 9.59103 29.6042C11.7831 30.2837 13.7631 31.1035 15.3316 31.8316C15.6013 31.9569 15.9093 31.76 15.9093 31.4625V7.33958C15.9093 7.29095 15.9 7.24318 15.8898 7.19575C15.8327 6.93242 15.9355 6.62615 16.199 6.52112C16.2594 6.49715 16.3282 6.4837 16.4053 6.4837H18.9356C18.9449 6.48267 18.9515 6.48198 18.9515 6.48198C24.4585 5.94479 25.0233 1.69129 25.0697 1.20998C25.0711 1.18325 25.0723 1.15721 25.0735 1.13065V1.01304C25.0735 0.904742 25.0361 0.797823 24.9616 0.721772Z" fill="#DB3A28"/>
<g id="Group 1791">
<path id="Fill-131" fill-rule="evenodd" clip-rule="evenodd" d="M154.536 18.2834C154.439 18.3079 154.342 18.3329 154.249 18.359C153.795 19.8676 153.455 21.8351 153.41 24.3798C153.41 24.3798 153.61 21.0351 154.536 18.2834Z" fill="#1C1E1E"/>
<path id="Fill-133" fill-rule="evenodd" clip-rule="evenodd" d="M151.594 24.3413C151.645 24.3526 151.697 24.3688 151.749 24.3877C151.706 24.3348 151.664 24.2825 151.623 24.2275C151.623 24.2275 154.479 25.547 156.575 25.0903C156.575 25.0903 152.908 25.0349 151.132 23.3066C151.16 23.3736 151.188 23.4405 151.215 23.5075C151.322 23.7683 151.437 24.0728 151.594 24.3413Z" fill="#1C1E1E"/>
<path id="Fill-135" fill-rule="evenodd" clip-rule="evenodd" d="M157.927 14.737C157.927 14.737 160.856 14.6863 161.005 23.2631C161.005 23.2631 161.204 15.8155 158.722 14.3627C158.722 14.3627 158.75 14.3658 158.802 14.3752C158.3 14.0361 157.508 13.9568 156.794 13.9642C156.341 14.3317 155.173 15.4802 154.335 18.0835C154.434 18.0596 154.532 18.0366 154.63 18.0158C155.309 16.13 156.348 14.5938 157.927 14.737Z" fill="#1C1E1E"/>
<path id="Fill-137" fill-rule="evenodd" clip-rule="evenodd" d="M154.249 18.3591C154.278 18.2654 154.306 18.1737 154.335 18.0835C153.063 18.3917 151.676 18.9537 150.364 19.9413C150.314 20.3436 150.321 20.7592 150.396 21.1876C150.711 20.4585 151.633 19.0889 154.249 18.3591Z" fill="#1C1E1E"/>
<path id="Fill-139" fill-rule="evenodd" clip-rule="evenodd" d="M159.069 17.8835C159.069 17.8835 157.102 17.4835 154.63 18.0157C154.598 18.1044 154.566 18.1933 154.536 18.2834C155.704 17.9923 157.187 17.8255 159.069 17.8835Z" fill="#1C1E1E"/>
<path id="Fill-141" fill-rule="evenodd" clip-rule="evenodd" d="M161.374 18.0114C161.374 18.4617 161.017 18.827 160.576 18.827C160.135 18.827 159.778 18.4617 159.778 18.0114C159.778 17.561 160.135 17.1959 160.576 17.1959C161.017 17.1959 161.374 17.561 161.374 18.0114Z" fill="#1C1E1E"/>
<path id="Fill-143" fill-rule="evenodd" clip-rule="evenodd" d="M155.997 15.9784C155.997 16.4152 155.651 16.7692 155.224 16.7692C154.797 16.7692 154.45 16.4152 154.45 15.9784C154.45 15.5415 154.797 15.1875 155.224 15.1875C155.651 15.1875 155.997 15.5415 155.997 15.9784Z" fill="#1C1E1E"/>
<path id="Fill-145" fill-rule="evenodd" clip-rule="evenodd" d="M154.45 21.6469C154.45 22.1177 154.077 22.4993 153.616 22.4993C153.156 22.4993 152.782 22.1177 152.782 21.6469C152.782 21.1761 153.156 20.7943 153.616 20.7943C154.077 20.7943 154.45 21.1761 154.45 21.6469Z" fill="#1C1E1E"/>
<path id="Fill-147" fill-rule="evenodd" clip-rule="evenodd" d="M158.463 25.0902C158.463 25.5327 158.112 25.8916 157.679 25.8916C157.246 25.8916 156.896 25.5327 156.896 25.0902C156.896 24.6477 157.246 24.2888 157.679 24.2888C158.112 24.2888 158.463 24.6477 158.463 25.0902Z" fill="#1C1E1E"/>
<path id="Fill-149" fill-rule="evenodd" clip-rule="evenodd" d="M161.456 24.6847C161.456 25.0206 161.189 25.2929 160.861 25.2929C160.532 25.2929 160.266 25.0206 160.266 24.6847C160.266 24.3488 160.532 24.0763 160.861 24.0763C161.189 24.0763 161.456 24.3488 161.456 24.6847Z" fill="#1C1E1E"/>
<path id="Fill-151" fill-rule="evenodd" clip-rule="evenodd" d="M158.871 25.8916C158.871 25.8916 151.176 20.7291 152.318 17.3779C152.318 17.3779 152.964 15.2995 157.68 16.7691C157.68 16.7691 161.154 17.9073 162.445 18.9612C162.445 18.9612 154.552 13.7769 151.871 16.7691C151.871 16.7691 149.041 19.334 158.871 25.8916Z" fill="#1C1E1E"/>
<path id="Fill-153" fill-rule="evenodd" clip-rule="evenodd" d="M150.312 20.1374C150.312 23.5109 153.181 26.2707 156.768 26.2707C160.355 26.2707 163.224 23.5109 163.224 20.1374C163.224 16.7641 160.355 14.0044 156.768 14.0044C153.181 14.0044 150.312 16.7641 150.312 20.1374ZM148.877 20.1374C148.877 16.0283 152.464 12.7776 156.768 12.7776C161.072 12.7776 164.659 16.0283 164.659 20.1374C164.659 24.2468 161.072 27.4975 156.768 27.4975C152.464 27.4975 148.877 24.2468 148.877 20.1374Z" fill="#1C1E1E"/>
</g>
</g>
</g>
</g>
</svg>
