<svg width="26" height="26" viewBox="0 0 26 26" fill="none" xmlns="http://www.w3.org/2000/svg">
<path d="M12.424 2.93052C11.294 3.14052 10.384 3.81052 9.88402 4.82052C9.70402 5.19052 9.54402 5.80052 9.54402 6.13052V6.39052L9.19402 6.57052C7.01402 7.67052 5.39402 9.79052 4.90402 12.2205C4.79402 12.7405 4.71402 13.5605 4.72402 13.9205V14.1605L4.49402 14.2905C3.17402 14.9905 2.45402 16.4705 2.73402 17.9305C2.98402 19.2305 3.95402 20.2705 5.26402 20.6205C5.51402 20.6905 5.69402 20.7105 6.08402 20.7105C6.65402 20.7105 7.02402 20.6305 7.50402 20.4105C7.68402 20.3305 7.79402 20.2905 7.83402 20.3205C8.33402 20.6805 8.98402 21.0805 9.37402 21.2705C11.704 22.3905 14.354 22.3705 16.664 21.2205C16.974 21.0705 17.664 20.6305 18.084 20.3205C18.124 20.2905 18.224 20.3205 18.414 20.4105C18.914 20.6405 19.274 20.7205 19.834 20.7105C20.214 20.7105 20.414 20.6905 20.654 20.6205C21.514 20.3905 22.224 19.8705 22.704 19.1405C23.784 17.4805 23.194 15.2205 21.434 14.2805L21.184 14.1505V13.9105C21.204 13.7805 21.184 13.4505 21.164 13.1705C20.914 10.3405 19.304 7.92052 16.804 6.60052L16.394 6.38052L16.374 6.03052C16.274 4.64052 15.284 3.43052 13.914 3.03052C13.514 2.91052 12.794 2.87052 12.434 2.93052H12.424ZM13.364 4.31052C13.744 4.39052 14.054 4.55052 14.334 4.82052C15.014 5.46052 15.194 6.38052 14.804 7.22052C14.314 8.26052 13.034 8.67052 11.974 8.13052C11.514 7.89052 11.064 7.29052 10.954 6.76052C10.724 5.65052 11.434 4.56052 12.534 4.32052C12.854 4.25052 13.044 4.25052 13.364 4.32052V4.31052ZM10.244 8.40052C10.714 9.01052 11.374 9.45052 12.134 9.65052C12.384 9.72052 12.574 9.74052 12.954 9.74052C13.334 9.74052 13.524 9.72052 13.774 9.65052C14.704 9.40052 15.474 8.81052 15.954 7.97052L16.074 7.76052L16.384 7.93052C17.764 8.71052 18.874 10.0505 19.404 11.5305C19.624 12.1505 19.734 12.7105 19.804 13.5605L19.824 13.8505L19.514 13.8805C18.324 13.9905 17.274 14.7005 16.744 15.7705C16.474 16.3005 16.394 16.6705 16.394 17.2805C16.394 17.9905 16.554 18.5505 16.934 19.1405C17.034 19.2939 16.9174 19.4739 16.584 19.6805C14.344 21.0705 11.544 21.0705 9.29402 19.6805C8.96735 19.4739 8.85069 19.2939 8.94402 19.1405C9.32402 18.5505 9.48402 17.9905 9.48402 17.2805C9.48402 16.6705 9.40402 16.3005 9.13402 15.7705C8.60402 14.7005 7.55402 13.9905 6.36402 13.8805L6.05402 13.8505L6.07402 13.5205C6.18402 11.9005 6.70402 10.6105 7.71402 9.40052C8.19402 8.83052 8.82402 8.31052 9.48402 7.93052L9.80402 7.75052L9.92402 7.96052C9.99402 8.08052 10.124 8.27052 10.214 8.39052L10.244 8.40052ZM6.50402 15.3005C7.36402 15.4805 8.04402 16.2105 8.12402 17.0505C8.20402 17.8505 7.87402 18.5705 7.25402 19.0005C6.87402 19.2505 6.55402 19.3505 6.10402 19.3505C5.28402 19.3505 4.61402 18.9305 4.25402 18.2005C3.59402 16.8605 4.57402 15.2905 6.08402 15.2405C6.16402 15.2405 6.35402 15.2605 6.50402 15.3005ZM20.154 15.2805C20.784 15.3805 21.374 15.8205 21.654 16.4005C21.944 16.9905 21.944 17.6205 21.654 18.1905C21.484 18.5405 21.324 18.7405 21.024 18.9605C19.864 19.8105 18.194 19.2105 17.814 17.8105C17.694 17.3505 17.794 16.6805 18.044 16.2405C18.304 15.7905 18.844 15.4105 19.374 15.3005C19.704 15.2305 19.804 15.2205 20.134 15.2805H20.154Z" fill="#4C4C4C"/>
</svg>
