<svg width="25" height="25" viewBox="0 0 25 25" fill="none" xmlns="http://www.w3.org/2000/svg">
<path d="M8.54297 5.20874H7.04297C5.9384 5.20874 5.04297 6.10417 5.04297 7.20874V21.2087C5.04297 22.3133 5.9384 23.2087 7.04297 23.2087H18.043C19.1475 23.2087 20.043 22.3133 20.043 21.2087V7.20874C20.043 6.10417 19.1475 5.20874 18.043 5.20874H17.043" stroke="#4C4C4C" stroke-width="1.2"/>
<path d="M11.043 9.70874H17.043" stroke="#4C4C4C" stroke-linecap="round"/>
<path d="M11.043 14.2087H17.043" stroke="#4C4C4C" stroke-linecap="round"/>
<path d="M7.54297 9.20874L8.04297 10.2087L9.54297 8.20874" stroke="#4C4C4C" stroke-linecap="round" stroke-linejoin="round"/>
<path d="M7.54297 13.5L8.04297 14.5L9.54297 12.5" stroke="#4C4C4C" stroke-linecap="round" stroke-linejoin="round"/>
<path d="M11.043 19.2087H17.043" stroke="#4C4C4C" stroke-linecap="round"/>
<circle cx="8.54297" cy="18.7087" r="1" stroke="#4C4C4C"/>
<path d="M11.1475 2.09961H13.9385C14.0789 2.09961 14.1934 2.21402 14.1934 2.35449C14.1934 3.15764 14.8443 3.80859 15.6475 3.80859H16.043C16.2639 3.80859 16.4434 3.98807 16.4434 4.20898V5.20898C16.4432 5.42976 16.2638 5.6084 16.043 5.6084H9.04297C8.82215 5.6084 8.64274 5.42976 8.64258 5.20898V4.20898C8.64258 3.98807 8.82205 3.80859 9.04297 3.80859H9.43848C10.2416 3.80859 10.8925 3.15764 10.8926 2.35449C10.8926 2.21402 11.007 2.09961 11.1475 2.09961Z" stroke="#4C4C4C" stroke-width="1.2" stroke-linejoin="round"/>
</svg>
