<svg width="24" height="25" viewBox="0 0 24 25" fill="none" xmlns="http://www.w3.org/2000/svg">
<path fill-rule="evenodd" clip-rule="evenodd" d="M14.2028 21.5C13.8228 21.5 13.5128 21.19 13.5128 20.8V15.97C13.5128 15.74 13.3328 15.56 13.1128 15.56H10.9228C10.7028 15.56 10.5228 15.74 10.5228 15.97V20.8C10.5228 21.18 10.2128 21.5 9.83283 21.5H4.89283C4.51283 21.5 4.20283 21.19 4.20283 20.8V13.36L3.19283 14.38C3.06283 14.51 2.88283 14.59 2.69283 14.59C2.63283 14.59 2.57283 14.59 2.51283 14.57C2.27283 14.51 2.08283 14.31 2.02283 14.07C1.96283 13.83 2.02283 13.57 2.21283 13.39L12.0428 3.5L21.8128 13.4C21.9828 13.58 22.0528 13.83 21.9928 14.07C21.9328 14.31 21.7428 14.5 21.5028 14.56C21.4428 14.58 21.3828 14.58 21.3228 14.58C21.1428 14.58 20.9628 14.51 20.8328 14.37L19.8228 13.35V20.8C19.8228 21.18 19.5128 21.5 19.1328 21.5H14.2028ZM18.4428 20.11V11.96L12.0428 5.47L5.58283 11.97V20.1H9.13283V15.96C9.13283 14.97 9.93283 14.16 10.9228 14.16H13.1128C14.1028 14.16 14.9028 14.97 14.9028 15.96V20.1H18.4528L18.4428 20.11Z" fill="#4C4C4C"/>
</svg>
