<svg width="25" height="25" viewBox="0 0 25 25" fill="none" xmlns="http://www.w3.org/2000/svg">
  <g clip-path="url(#clip0_2549_2321)">
    <path fill-rule="evenodd" clip-rule="evenodd"
      d="M2.08325 12.4999C2.08325 6.76033 6.76033 2.08325 12.4999 2.08325C18.2395 2.08325 22.9166 6.76033 22.9166 12.4999C22.9166 18.2395 18.2395 22.9166 12.4999 22.9166C6.76033 22.9166 2.08325 18.2395 2.08325 12.4999ZM3.33325 12.4999C3.33325 17.552 7.44783 21.6666 12.4999 21.6666C17.552 21.6666 21.6666 17.552 21.6666 12.4999C21.6666 7.44783 17.552 3.33325 12.4999 3.33325C7.44783 3.33325 3.33325 7.44783 3.33325 12.4999ZM11.625 16.3124C11.625 16.6041 11.8541 16.8332 12.1458 16.8332L12.1562 16.8437C12.4479 16.8437 12.677 16.6145 12.677 16.3228V16.0312C13.0208 15.9895 13.3437 15.9062 13.6145 15.7707C14.0208 15.5832 14.3333 15.3124 14.552 14.9791C14.7604 14.6457 14.875 14.2707 14.875 13.8541C14.875 13.4999 14.7916 13.1874 14.6458 12.9374C14.5 12.6978 14.3125 12.4895 14.0833 12.3332C13.8541 12.177 13.625 12.0416 13.3854 11.9582C13.1458 11.8749 12.927 11.802 12.7395 11.7499L12.6562 11.7291V9.38533C12.875 9.42699 13.0625 9.51032 13.2291 9.61449C13.5 9.79157 13.6562 10.0416 13.6979 10.3749C13.7083 10.427 13.75 10.4687 13.802 10.4687H14.6562C14.6875 10.4687 14.7083 10.4582 14.7291 10.4374C14.7604 10.4166 14.7604 10.3957 14.7604 10.3645C14.7395 9.97907 14.625 9.62491 14.3958 9.32282C14.177 9.02074 13.8645 8.78116 13.4895 8.60408C13.2395 8.48949 12.9583 8.41657 12.6562 8.37491V8.06241C12.6562 7.77074 12.427 7.54157 12.1354 7.54157C11.8437 7.54157 11.6145 7.77074 11.6145 8.06241V8.39574C11.3645 8.43741 11.1145 8.51032 10.8958 8.61449C10.5104 8.78116 10.1875 9.03116 9.95829 9.35407C9.71871 9.67699 9.60413 10.052 9.60413 10.4791C9.60413 10.9999 9.78121 11.427 10.1354 11.7499C10.4791 12.0624 10.9479 12.302 11.5312 12.4687L11.6145 12.4895V14.9895C11.5208 14.9687 11.4375 14.9478 11.3541 14.9166C11.125 14.8437 10.927 14.7187 10.7812 14.552C10.6354 14.3853 10.552 14.177 10.5312 13.927C10.5312 13.8749 10.4791 13.8332 10.427 13.8332H9.52079C9.49996 13.8332 9.46871 13.8437 9.44788 13.8645C9.41663 13.8853 9.41663 13.9166 9.41663 13.9478C9.44788 14.3645 9.57288 14.7395 9.80204 15.052C10.0312 15.3645 10.3437 15.6145 10.7395 15.7916C11.0104 15.9062 11.302 15.9791 11.625 16.0207V16.3124ZM13 14.8957C12.8958 14.9374 12.7812 14.9791 12.6666 14.9999L12.6562 14.9895V12.7916C12.8229 12.8437 12.9791 12.9062 13.125 12.9687C13.3333 13.0624 13.5 13.177 13.625 13.3124C13.7395 13.4478 13.802 13.6145 13.802 13.8332C13.802 14.0728 13.7291 14.2916 13.5937 14.4687C13.4479 14.6457 13.25 14.7916 13 14.8957ZM11.375 9.48949C11.4583 9.45824 11.5416 9.42699 11.625 9.40616V9.41657V11.4478L11.5729 11.427C11.427 11.3645 11.2708 11.2916 11.1354 11.2082C11 11.1249 10.8854 11.0207 10.802 10.8957C10.7187 10.7707 10.677 10.6249 10.677 10.4478C10.677 10.2291 10.7291 10.052 10.8541 9.88532C10.9791 9.71866 11.1562 9.58324 11.375 9.48949ZM12.7502 20.4062C8.17729 20.4062 4.45854 16.6874 4.45854 12.1145C4.45854 11.7708 4.73979 11.4895 5.08354 11.4895C5.42729 11.4895 5.70854 11.7708 5.70854 12.1145C5.70854 15.9999 8.86479 19.1562 12.7502 19.1562C13.094 19.1562 13.3752 19.4374 13.3752 19.7812C13.3752 20.1249 13.094 20.4062 12.7502 20.4062ZM19.1768 12.7708C19.1768 13.1146 19.458 13.3958 19.8018 13.3958C20.1455 13.3958 20.4268 13.1146 20.4268 12.7708C20.4268 8.19789 16.708 4.47914 12.1351 4.47914C11.7914 4.47914 11.5101 4.76039 11.5101 5.10414C11.5101 5.44789 11.7914 5.72914 12.1351 5.72914C16.0205 5.72914 19.1768 8.88539 19.1768 12.7708Z"
      fill="currentColor" />
  </g>
  <defs>
    <clipPath id="clip0_2549_2321">
      <rect width="20.8333" height="20.8333" fill="white" transform="translate(2.08325 2.08325)" />
    </clipPath>
  </defs>
</svg>