<svg width="31" height="11" viewBox="0 0 31 11" fill="none" xmlns="http://www.w3.org/2000/svg">
<g clip-path="url(#clip0_2796_94090)">
<path fill-rule="evenodd" clip-rule="evenodd" d="M5.76275 3.95158C6.66441 3.90601 7.52098 3.83763 8.40914 3.79841C8.15383 1.93607 7.24774 0.949219 4.50761 0.949219C1.81697 0.949219 0.648651 2.32214 0.49434 3.58354C0.320701 5.00304 1.39716 5.9123 3.1182 6.40903C4.60473 6.84138 5.85051 7.14183 5.88931 7.86649C5.93109 8.64582 5.03417 9.08377 4.58988 9.08377C3.79584 9.08377 2.93201 8.21068 2.82864 7.41044C1.96444 7.47852 1.06733 7.48217 0.203125 7.55025C0.203125 9.72408 1.98301 10.8754 4.34296 10.8754C6.54371 10.8754 8.70509 9.95679 8.70509 7.60754C8.70509 4.75529 5.59603 4.75615 3.56106 4.0537C2.84947 3.66375 3.22055 2.81055 3.89029 2.7356C5.24244 2.57269 5.47458 3.33624 5.76271 3.95158H5.76275ZM14.2346 1.18021C15.9981 1.18021 17.2468 2.14474 17.2468 4.10001C17.2468 5.89196 16.0044 7.03587 14.2009 7.03587H11.9486V10.4673C11.9486 10.703 11.9486 10.703 11.7388 10.703H9.38889C9.09467 10.703 9.09467 10.703 9.09467 10.4836V1.58759C9.09467 1.18021 9.09467 1.18021 9.50763 1.18021H14.2346ZM12.1751 5.22265C12.0085 5.22265 11.9486 5.15476 11.9486 5.05212V3.20878C11.9486 3.0736 12.0597 2.99765 12.1613 2.99765H13.1486C13.9984 3.12212 14.3095 3.57917 14.3095 4.17511C14.3095 5.02779 13.5437 5.22265 12.8786 5.22265H12.175H12.1751Z" fill="#343084"/>
<path fill-rule="evenodd" clip-rule="evenodd" d="M17.8867 1.44577C17.8867 1.32634 17.9731 1.23494 18.0683 1.23494H25.559C25.7243 1.22751 25.7423 1.29499 25.7423 1.35885V3.05801C25.75 3.13687 25.6846 3.17293 25.6265 3.17293H20.8834C20.7842 3.17293 20.7515 3.27377 20.7515 3.38395V4.53122C20.7515 4.65494 20.8403 4.76807 20.9901 4.76807H25.1869L25.2826 4.86313V6.45633C25.2347 6.52467 25.1867 6.59297 25.1387 6.66134H20.9096C20.8118 6.66134 20.7514 6.72128 20.7514 6.81836V8.34669C20.7514 8.43097 20.8526 8.5248 20.9709 8.5248H25.6465C25.7083 8.5248 25.7423 8.58321 25.7423 8.61982V10.476C25.7423 10.5197 25.6925 10.5674 25.6502 10.5674H17.9632C17.9224 10.5674 17.8867 10.5275 17.8867 10.4915V1.44581V1.44577Z" fill="#FF9400"/>
<path fill-rule="evenodd" clip-rule="evenodd" d="M29.8102 6.5V10.5683H27.1429C27.1021 10.5683 27.0664 10.5284 27.0664 10.4924V6.85793C27.0664 6.76059 27.1342 6.70457 27.1848 6.70457H27.9505C28.0273 6.70457 28.0467 6.76973 28.0467 6.82725V8.52573C28.0467 8.7403 28.2279 8.64786 28.3249 8.52573C28.82 7.85049 29.3151 7.17524 29.8103 6.5H29.8102Z" fill="#343084"/>
<path fill-rule="evenodd" clip-rule="evenodd" d="M26.9493 1.44521C26.9493 1.32578 27.0357 1.23438 27.1309 1.23438H29.5793C29.7489 1.23438 29.8097 1.33746 29.8097 1.41882V4.89276L28.3106 2.81037C28.2782 2.76532 28.2042 2.76823 28.2042 2.8615V4.36132C28.2042 4.44485 28.1626 4.60332 28.0427 4.60332H27.0658C27.0126 4.60332 26.9492 4.48408 26.9492 4.41585V1.44521H26.9493Z" fill="#FF9400"/>
</g>
<defs>
<clipPath id="clip0_2796_94090">
<rect width="30.012" height="9.9262" fill="white" transform="translate(0 0.949219)"/>
</clipPath>
</defs>
</svg>
