<svg width="137" height="42" viewBox="0 0 137 42" fill="none" xmlns="http://www.w3.org/2000/svg">
  <g clip-path="url(#clip0_439_1682)">
    <path fill-rule="evenodd" clip-rule="evenodd"
      d="M31.8471 5.24609C32.0506 5.24609 32.2229 5.32416 32.3638 5.46468H32.3794C32.4577 5.54275 32.489 5.65204 32.489 5.76134V5.88624V5.96431C32.4421 6.44832 31.8784 10.6952 26.3671 11.226H26.3514H23.815C23.7367 11.226 23.6741 11.226 23.6114 11.2572C23.3453 11.3665 23.2357 11.6632 23.2983 11.9286C23.3139 11.9755 23.3139 12.0223 23.3139 12.0691V12.0691V36.0981C23.3139 36.3948 23.0008 36.5978 22.7346 36.4729C21.1689 35.7546 19.1805 34.9271 16.9885 34.2558C16.8162 34.1933 16.7066 34.0372 16.7066 33.8654V14.458V14.4268V11.1323H7.86034C7.59417 11.1323 7.39062 10.945 7.39062 10.7108V6.43271C7.39062 5.77695 7.9856 5.24609 8.70582 5.24609H31.8471ZM31.2834 17.0186H27.7136L27.7449 17.0342C27.4161 17.0342 27.1499 16.7688 27.1499 16.4409V13.0528C27.1499 12.8292 27.2703 12.6377 27.4535 12.5355C27.6718 12.4973 27.9839 12.4423 28.4181 12.3658C31.2521 11.8662 33.1153 9.75836 34.0547 6.96357C34.133 6.72937 34.3678 6.55762 34.6184 6.55762H37.6872C38.016 6.55762 38.2821 6.82305 38.2821 7.15093V17.0342V17.081V17.1591V31.5546C38.2821 31.6483 38.2508 31.7264 38.2195 31.8045C36.1371 32.4602 34.3835 33.0848 32.9117 33.6625L32.3481 33.8342C31.9723 33.9591 31.5809 33.6625 31.5809 33.2721V17.1435V17.0967C31.4869 17.0498 31.393 17.0186 31.2834 17.0186ZM27.4996 12.5122C27.4839 12.5194 27.4685 12.5271 27.4535 12.5355C26.8598 12.6393 26.9611 12.6193 27.1918 12.5738C27.2857 12.5553 27.401 12.5326 27.4996 12.5122ZM27.6979 12.4595C27.6272 12.4665 27.5605 12.4847 27.4996 12.5122C27.6511 12.481 27.7631 12.4554 27.6979 12.4595Z"
      fill="currentColor" />
    <path fill-rule="evenodd" clip-rule="evenodd"
      d="M111.511 11.1947C111.511 7.88471 108.834 5.18359 105.546 5.18359C102.258 5.18359 99.5803 7.88471 99.5803 11.1947V18.2288C98.3845 19.5641 97.6545 21.2991 97.6545 23.2171C97.6545 27.5276 101.342 30.9144 105.718 30.9144C110.094 30.9144 113.781 27.5276 113.781 23.2171C113.781 18.9065 110.094 15.5197 105.718 15.5197C104.18 15.5197 102.728 15.9377 101.49 16.6671V11.1947C101.49 8.93081 103.307 7.08843 105.546 7.08843C107.785 7.08843 109.601 8.93081 109.601 11.1947V13.7241V13.771C109.601 14.1301 109.898 14.4267 110.258 14.4267H110.853C111.214 14.4267 111.511 14.1301 111.511 13.771V13.7241V11.1947ZM106.43 24.5675C106.727 24.372 106.924 24.036 106.924 23.6542C106.924 23.0506 106.433 22.5613 105.828 22.5613C105.222 22.5613 104.732 23.0506 104.732 23.6542C104.732 24.036 104.928 24.372 105.225 24.5675L104.732 26.9487C104.732 27.3234 105.029 27.4327 105.405 27.4327H106.25C106.626 27.4327 106.924 27.3078 106.924 26.9487L106.43 24.5675ZM48.5561 15.5197C46.2426 15.4924 44.1195 16.4423 42.6353 17.9759V15.91V15.5197H42.2439H40.8504H40.459V15.91V36.1918V36.5821H40.8504H42.2439H42.6353V36.1918V28.597C43.0634 29.1427 43.5187 29.6311 44.1315 30.0106C45.0939 30.6067 46.4003 30.9144 48.5224 30.9144C52.8986 30.9144 56.5858 27.5276 56.5858 23.2171C56.5858 18.9083 52.901 15.5209 48.5561 15.5197ZM42.6353 23.2207C42.6373 26.3514 45.2392 28.9159 48.5224 28.9159C51.8062 28.9159 54.4095 26.3344 54.4095 23.2171C54.4095 20.0984 51.8049 17.5182 48.5537 17.5182H48.552L48.5502 17.5181C45.2777 17.4889 42.6959 20.092 42.6353 23.2207ZM66.6534 15.5197C62.2772 15.5197 58.5899 18.9065 58.5899 23.2171C58.5899 27.5276 62.2772 30.9144 66.6534 30.9144C68.963 30.9144 71.0624 29.9855 72.5404 28.4777V30.5241V30.9144H72.9319H74.3254H74.7168V30.5241V15.91V15.5197H74.3254H72.9319H72.5404V15.91V17.8371C72.1124 17.2914 71.657 16.803 71.0442 16.4235C70.0818 15.8274 68.7754 15.5197 66.6534 15.5197ZM60.7663 23.2171C60.7663 20.0997 63.3696 17.5182 66.6534 17.5182C69.9371 17.5182 72.5404 20.0997 72.5404 23.2171C72.5404 26.3344 69.9371 28.9159 66.6534 28.9159C63.3689 28.9159 60.7663 26.3494 60.7663 23.2171ZM78.1402 23.6074H78.1144V23.2171C78.1144 18.9065 81.8017 15.5197 86.1778 15.5197C88.2999 15.5197 89.6063 15.8274 90.5687 16.4235C91.1815 16.803 91.6369 17.2914 92.0649 17.8371V15.9412V15.5509H92.4564H93.9281H94.3402L94.319 15.9612L94.2882 16.5606L94.2569 29.9152V29.9156C94.2568 31.3612 93.4507 33.0194 92.0683 34.3103C90.6762 35.6103 88.6731 36.5658 86.2274 36.5821L86.2261 36.5821H86.2248H85.5202H85.1288V36.1918V34.9739V34.5836H85.5202H86.2231C88.0064 34.5684 89.4762 33.8793 90.4994 32.9468C91.5325 32.0054 92.0806 30.8462 92.0806 29.9152V28.4777C90.6026 29.9855 88.5032 30.9144 86.1935 30.9144C81.9503 30.9144 78.3548 27.7303 78.1402 23.6074ZM86.1935 17.5182C82.9097 17.5182 80.3064 20.0997 80.3064 23.2171C80.3064 26.3494 82.909 28.9159 86.1935 28.9159C89.4773 28.9159 92.0806 26.3344 92.0806 23.2171C92.0806 20.0997 89.4773 17.5182 86.1935 17.5182ZM99.8308 23.2171C99.8308 20.0997 102.434 17.5182 105.718 17.5182C109.002 17.5182 111.605 20.0997 111.605 23.2171C111.605 26.3344 109.002 28.9159 105.718 28.9159C102.433 28.9159 99.8308 26.3494 99.8308 23.2171ZM118.24 16.7776C119.363 16.0027 120.915 15.5197 122.675 15.5197C124.435 15.5197 125.986 16.0027 127.109 16.7776C128.228 17.55 128.953 18.6403 128.953 19.8446V20.2349H128.562H127.168H126.777V19.8446C126.777 19.2525 126.371 18.6791 125.6 18.2323C124.836 17.79 123.783 17.5182 122.675 17.5182C121.565 17.5182 120.512 17.7865 119.749 18.2268C118.98 18.671 118.572 19.244 118.572 19.8446C118.572 20.0809 118.676 20.3027 118.922 20.5311C119.175 20.7664 119.557 20.9875 120.057 21.2007C120.879 21.5513 121.927 21.8447 123.046 22.1582C123.293 22.2274 123.544 22.2975 123.796 22.3694C125.168 22.7606 126.589 23.2042 127.666 23.8331C128.745 24.4631 129.572 25.3366 129.564 26.6065C129.563 27.809 128.779 28.8988 127.568 29.6686C126.351 30.443 124.654 30.9301 122.69 30.9301C120.726 30.9301 119.03 30.443 117.812 29.6686C116.601 28.8985 115.817 27.8082 115.817 26.6052V26.2148H116.208H117.602H117.993V26.6052C117.993 27.1874 118.445 27.7644 119.343 28.2185C120.223 28.6638 121.432 28.9316 122.69 28.9316C123.949 28.9316 125.159 28.6673 126.039 28.224C126.935 27.7725 127.387 27.1958 127.387 26.6052C127.387 26.3626 127.283 26.1381 127.04 25.9094C126.789 25.6735 126.41 25.4525 125.914 25.24C125.093 24.8887 124.045 24.5969 122.924 24.2848C122.683 24.2179 122.439 24.15 122.194 24.0804C120.827 23.6932 119.409 23.2536 118.328 22.6259C117.244 21.9965 116.41 21.1231 116.396 19.8488L116.396 19.8467V19.8446C116.396 18.6403 117.121 17.55 118.24 16.7776Z"
      fill="currentColor" />
  </g>
  <defs>
    <clipPath id="clip0_439_1682">
      <rect width="137" height="42" fill="currentColor" />
    </clipPath>
  </defs>
</svg>