<svg width="25" height="8" viewBox="0 0 25 8" fill="none" xmlns="http://www.w3.org/2000/svg">
  <path fill-rule="evenodd" clip-rule="evenodd"
    d="M9.67742 0.562828L6.34041 7.7145H4.16326L2.52124 2.00714C2.42155 1.6556 2.33486 1.52681 2.03165 1.37871C1.53675 1.13748 0.719255 0.911265 0 0.770793L0.0488531 0.562828H3.5534C4.00011 0.562828 4.40169 0.829939 4.50311 1.29202L5.37038 5.43034L7.51381 0.562828H9.67742ZM18.1559 5.34795C18.1614 4.25565 17.0877 3.78088 16.2286 3.40104C15.6519 3.14603 15.1719 2.9338 15.1803 2.60621C15.1867 2.35801 15.4672 2.09413 16.0812 2.02677C16.3855 1.99321 17.224 1.9676 18.175 2.33633L18.548 0.869503C18.037 0.713224 17.3795 0.562828 16.5614 0.562828C14.4621 0.562828 12.9847 1.50304 12.9723 2.84934C12.9587 3.84514 14.0268 4.40082 14.8314 4.73171C15.6592 5.07057 15.937 5.28832 15.9339 5.59142C15.928 6.05541 15.2736 6.26024 14.6621 6.26832C13.628 6.28172 13.0143 6.04079 12.5281 5.84988L12.4814 5.83154L12.0964 7.34692C12.5927 7.53873 13.5086 7.70608 14.4583 7.7145C16.6895 7.7145 18.1491 6.78594 18.1559 5.34795ZM25.0002 7.7145H23.1288L23.129 7.71438L22.8847 6.64607H20.2887L19.8668 7.71438H17.7422L20.7784 1.0875C20.9235 0.769597 21.2511 0.562828 21.6395 0.562828H23.3667L25.0002 7.7145ZM20.9677 5.569L21.9914 2.70833L22.5806 5.569H20.9679H20.9677ZM11.0778 7.7145L12.903 0.562828H10.6965L8.8707 7.7145H11.0778Z"
    fill="#1434CB" />
</svg>