<svg width="25" height="25" viewBox="0 0 25 25" fill="none" xmlns="http://www.w3.org/2000/svg">
  <path fill-rule="evenodd" clip-rule="evenodd"
    d="M8.67536 4.81905C8.16225 4.97612 7.64915 5.35309 7.35595 5.7929C7.17793 6.05469 6.64388 7.45787 6.07842 9.14379C5.5339 10.7459 5.06268 12.0863 5.03127 12.1386C4.99985 12.191 4.73806 12.1805 4.43439 12.1177C2.80083 11.7826 1.55472 13.3952 2.30867 14.8717C2.60187 15.4477 3.09403 15.7304 4.66476 16.233L6.02606 16.6623L6.047 17.1336C6.07842 18.1074 6.78001 18.987 7.92141 19.5001C9.05233 20.0028 11.1048 19.8352 12.0367 19.1546L12.4556 18.8614L13.0525 19.2174C13.8169 19.6781 14.5289 19.8352 15.618 19.7724C17.44 19.6782 18.7909 18.6415 18.9479 17.2069L19.0108 16.6205L19.7961 16.3901C21.88 15.7932 22.5397 15.3744 22.8329 14.5052C23.2936 13.102 21.7648 11.6151 20.393 12.1386C20.3492 12.1562 20.3128 12.1707 20.2775 12.1683C20.1016 12.1564 19.9544 11.7234 19.0736 9.13335L19.0736 9.13332C18.4139 7.21703 17.9008 5.88714 17.7437 5.67771C17.0526 4.7981 16.0159 4.54679 14.6441 4.93423C13.4608 5.25885 11.6074 5.25885 10.5288 4.93423C9.77487 4.70386 9.16752 4.67244 8.67536 4.81905ZM10.3298 6.60963C10.979 6.78765 11.4502 6.84 12.5707 6.84C13.6911 6.84 14.1624 6.78765 14.8116 6.60963C15.8483 6.33737 15.953 6.33737 16.2776 6.6201C16.487 6.80859 16.7698 7.52065 17.5342 9.81392L18.5185 12.7564L17.6703 12.9868C15.8273 13.4894 14.6126 13.6465 12.5183 13.657C11.0523 13.657 10.267 13.6151 9.53394 13.479C8.52868 13.2905 6.82182 12.8925 6.68569 12.8088C6.6438 12.7878 7.06266 11.437 7.60718 9.81392C8.63339 6.80859 8.83235 6.38973 9.31404 6.38973C9.41876 6.38973 9.86903 6.49444 10.3298 6.60963ZM19.7535 14.1284C14.5072 15.8039 10.0987 15.7829 4.9886 14.0342C3.89956 13.6677 3.88909 13.6677 3.80531 13.8876C3.72154 14.1284 3.81579 14.1808 5.08284 14.5892C10.0463 16.2123 14.0884 16.3065 18.8634 14.9138C20.5598 14.4217 21.2614 14.1494 21.2614 13.9818C21.2614 13.6991 21.031 13.7201 19.7535 14.1284ZM9.30327 17.3325C9.85826 17.4163 10.518 17.4896 10.7588 17.4896C11.3662 17.4896 11.3976 17.6362 10.8635 17.898C10.3085 18.1702 9.18808 18.1912 8.61214 17.9608C7.88961 17.6571 7.39745 16.9555 8.02574 17.1126C8.17234 17.1545 8.74827 17.2487 9.30327 17.3325ZM16.2668 17.9921C16.6647 17.8769 17.2825 17.3743 17.2825 17.1648C17.2825 17.0522 17.2425 17.0597 16.3505 17.2264L16.2877 17.2381C15.8898 17.3114 15.1463 17.4057 14.6437 17.4476C14.1306 17.4895 13.7222 17.5628 13.7222 17.6151C13.7222 17.6675 13.9211 17.8036 14.1725 17.9083C14.6856 18.1492 15.628 18.1806 16.2668 17.9921Z"
    fill="currentColor" />
  <path
    d="M7.35595 5.7929L7.43915 5.84837L7.43864 5.84913L7.35595 5.7929ZM8.67536 4.81905L8.64609 4.72342L8.64681 4.72321L8.67536 4.81905ZM6.07842 9.14379L6.17323 9.17559L6.1731 9.17597L6.07842 9.14379ZM4.43439 12.1177L4.45448 12.0197L4.45465 12.0198L4.43439 12.1177ZM2.30867 14.8717L2.39773 14.8262L2.39778 14.8263L2.30867 14.8717ZM4.66476 16.233L4.63468 16.3284L4.63428 16.3283L4.66476 16.233ZM6.02606 16.6623L6.05614 16.567L6.12286 16.588L6.12596 16.6579L6.02606 16.6623ZM6.047 17.1336L6.14691 17.1291L6.14695 17.1303L6.047 17.1336ZM7.92141 19.5001L7.88079 19.5915L7.88041 19.5913L7.92141 19.5001ZM12.0367 19.1546L11.9777 19.0738L11.9794 19.0727L12.0367 19.1546ZM12.4556 18.8614L12.3982 18.7794L12.4512 18.7423L12.5068 18.7755L12.4556 18.8614ZM13.0525 19.2174L13.1037 19.1315L13.1041 19.1318L13.0525 19.2174ZM15.618 19.7724L15.6122 19.6726L15.6128 19.6725L15.618 19.7724ZM18.9479 17.2069L19.0474 17.2175L19.0473 17.2178L18.9479 17.2069ZM19.0108 16.6205L18.9113 16.6098L18.9185 16.5433L18.9826 16.5245L19.0108 16.6205ZM19.7961 16.3901L19.768 16.2941L19.7686 16.294L19.7961 16.3901ZM22.8329 14.5052L22.9279 14.5364L22.9276 14.5372L22.8329 14.5052ZM20.393 12.1386L20.3559 12.0458L20.3573 12.0452L20.393 12.1386ZM20.2775 12.1683L20.2707 12.2681L20.2775 12.1683ZM19.0736 9.13335L19.1676 9.09917L19.1683 9.10115L19.0736 9.13335ZM19.0736 9.13332L18.9796 9.1675L18.979 9.16587L19.0736 9.13332ZM17.7437 5.67771L17.8224 5.61591L17.8237 5.61771L17.7437 5.67771ZM14.6441 4.93423L14.6713 5.03047L14.6706 5.03067L14.6441 4.93423ZM10.5288 4.93423L10.5 5.02999L10.4996 5.02987L10.5288 4.93423ZM10.3298 6.60963L10.354 6.51259L10.3562 6.51319L10.3298 6.60963ZM14.8116 6.60963L14.7852 6.51319L14.7862 6.51291L14.8116 6.60963ZM16.2776 6.6201L16.3433 6.54468L16.3445 6.54577L16.2776 6.6201ZM17.5342 9.81392L17.4394 9.84564L17.4393 9.84554L17.5342 9.81392ZM18.5185 12.7564L18.6134 12.7247L18.647 12.8252L18.5447 12.8529L18.5185 12.7564ZM17.6703 12.9868L17.644 12.8903L17.6441 12.8903L17.6703 12.9868ZM12.5183 13.657L12.5188 13.757H12.5183V13.657ZM9.53394 13.479L9.51568 13.5773L9.51551 13.5772L9.53394 13.479ZM6.68569 12.8088L6.73058 12.719L6.7381 12.7236L6.68569 12.8088ZM7.60718 9.81392L7.51237 9.78211L7.51255 9.78161L7.60718 9.81392ZM4.9886 14.0342L5.02049 13.9394L5.02098 13.9396L4.9886 14.0342ZM19.7535 14.1284L19.7839 14.2237L19.7839 14.2237L19.7535 14.1284ZM3.80531 13.8876L3.71082 13.8547L3.71187 13.852L3.80531 13.8876ZM5.08284 14.5892L5.11352 14.494L5.11392 14.4941L5.08284 14.5892ZM18.8634 14.9138L18.8354 14.8178L18.8355 14.8178L18.8634 14.9138ZM9.30327 17.3325L9.31819 17.2336L9.30327 17.3325ZM10.8635 17.898L10.8195 17.8082L10.8195 17.8082L10.8635 17.898ZM8.61214 17.9608L8.575 18.0537L8.5734 18.053L8.61214 17.9608ZM8.02574 17.1126L8.05001 17.0155L8.05321 17.0165L8.02574 17.1126ZM16.2668 17.9921L16.2385 17.8962L16.239 17.896L16.2668 17.9921ZM16.3505 17.2264L16.3689 17.3247L16.3689 17.3247L16.3505 17.2264ZM16.2877 17.2381L16.3061 17.3364L16.3058 17.3365L16.2877 17.2381ZM14.6437 17.4476L14.652 17.5472L14.6518 17.5472L14.6437 17.4476ZM14.1725 17.9083L14.211 17.8159L14.215 17.8178L14.1725 17.9083ZM7.27274 5.73743C7.57912 5.27787 8.11155 4.88706 8.64609 4.72343L8.70463 4.91467C8.21296 5.06518 7.71918 5.42832 7.43915 5.84837L7.27274 5.73743ZM5.98361 9.11199C6.26665 8.2681 6.54199 7.49451 6.76903 6.89869C6.88252 6.60085 6.9842 6.34677 7.06892 6.15025C7.15235 5.95671 7.22256 5.81122 7.27325 5.73667L7.43864 5.84913C7.40032 5.90548 7.33702 6.03355 7.25258 6.22942C7.16943 6.42231 7.06887 6.67348 6.95592 6.9699C6.73007 7.5626 6.45565 8.33356 6.17323 9.17559L5.98361 9.11199ZM4.94552 12.0872C4.94262 12.092 4.94327 12.0919 4.94956 12.0764C4.95444 12.0644 4.96106 12.0473 4.96942 12.0252C4.98611 11.9812 5.00902 11.9188 5.03751 11.8399C5.09446 11.6823 5.1732 11.4601 5.26805 11.1893C5.45773 10.6478 5.71156 9.91244 5.98374 9.11161L6.1731 9.17597C5.90076 9.97729 5.64672 10.7132 5.45681 11.2554C5.36186 11.5265 5.28288 11.7494 5.22561 11.9079C5.197 11.9871 5.17369 12.0506 5.15647 12.096C5.14788 12.1187 5.14062 12.1374 5.13488 12.1516C5.13056 12.1622 5.12384 12.1787 5.11702 12.1901L4.94552 12.0872ZM4.45465 12.0198C4.60267 12.0504 4.73829 12.0678 4.83858 12.0714C4.88924 12.0733 4.92709 12.0715 4.95164 12.0676C4.95748 12.0666 4.96193 12.0657 4.96517 12.0648C4.96847 12.0639 4.96983 12.0634 4.96973 12.0634C4.96962 12.0635 4.96894 12.0638 4.96782 12.0644C4.9667 12.065 4.96494 12.0661 4.96277 12.0677C4.95856 12.0708 4.95163 12.077 4.94552 12.0872L5.11702 12.1901C5.09751 12.2226 5.0678 12.239 5.04838 12.2473C5.02732 12.2563 5.00456 12.2616 4.98327 12.265C4.9404 12.2719 4.88794 12.2734 4.83127 12.2713C4.71689 12.2671 4.56978 12.2478 4.41413 12.2156L4.45465 12.0198ZM2.21961 14.9172C1.42655 13.3641 2.74093 11.6682 4.45448 12.0197L4.41429 12.2157C2.86073 11.897 1.68289 13.4263 2.39773 14.8262L2.21961 14.9172ZM4.63428 16.3283C3.06836 15.8272 2.5341 15.535 2.21955 14.9171L2.39778 14.8263C2.66964 15.3603 3.11971 15.6336 4.69524 16.1378L4.63428 16.3283ZM5.99598 16.7577L4.63468 16.3284L4.69484 16.1376L6.05614 16.567L5.99598 16.7577ZM5.9471 17.138L5.92616 16.6668L6.12596 16.6579L6.14691 17.1291L5.9471 17.138ZM7.88041 19.5913C6.71644 19.0681 5.98008 18.1606 5.94706 17.1368L6.14695 17.1303C6.17675 18.0542 6.84358 18.906 7.96241 19.4089L7.88041 19.5913ZM12.0957 19.2353C11.6087 19.591 10.8417 19.8059 10.062 19.8707C9.2813 19.9357 8.46698 19.852 7.88079 19.5915L7.96202 19.4088C8.50676 19.6509 9.28411 19.7348 10.0454 19.6714C10.8076 19.608 11.5328 19.3988 11.9777 19.0738L12.0957 19.2353ZM12.5129 18.9433L12.0941 19.2365L11.9794 19.0727L12.3982 18.7794L12.5129 18.9433ZM13.0012 19.3033L12.4044 18.9473L12.5068 18.7755L13.1037 19.1315L13.0012 19.3033ZM15.6237 19.8722C14.5187 19.936 13.7858 19.7762 13.0008 19.303L13.1041 19.1318C13.848 19.5801 14.5392 19.7345 15.6122 19.6726L15.6237 19.8722ZM19.0473 17.2178C18.8831 18.7176 17.4755 19.7764 15.6231 19.8723L15.6128 19.6725C17.4045 19.5799 18.6986 18.5654 18.8485 17.196L19.0473 17.2178ZM19.1102 16.6311L19.0474 17.2175L18.8485 17.1962L18.9113 16.6098L19.1102 16.6311ZM19.8243 16.486L19.0389 16.7164L18.9826 16.5245L19.768 16.2941L19.8243 16.486ZM22.9276 14.5372C22.7735 14.9939 22.5204 15.3345 22.0389 15.6346C21.5639 15.9306 20.8661 16.1876 19.8237 16.4862L19.7686 16.294C20.81 15.9957 21.4839 15.7448 21.9331 15.4649C22.3757 15.189 22.599 14.8856 22.7381 14.4732L22.9276 14.5372ZM20.3573 12.0452C21.0877 11.7665 21.8526 12.0255 22.3698 12.5277C22.887 13.0298 23.1727 13.7908 22.9279 14.5364L22.7379 14.474C22.9538 13.8165 22.7055 13.1323 22.2305 12.6711C21.7555 12.2099 21.0701 11.9872 20.4287 12.2321L20.3573 12.0452ZM20.2842 12.0686C20.2921 12.0691 20.3054 12.066 20.3559 12.0458L20.4301 12.2315C20.393 12.2463 20.3334 12.2724 20.2707 12.2681L20.2842 12.0686ZM19.1683 9.10115C19.6091 10.3975 19.8652 11.1504 20.0331 11.5813C20.1174 11.7979 20.1769 11.9261 20.2236 11.9999C20.2467 12.0365 20.2634 12.0543 20.2738 12.0626C20.2786 12.0665 20.2814 12.0677 20.2824 12.0681C20.2831 12.0684 20.2835 12.0685 20.2842 12.0686L20.2707 12.2681C20.1773 12.2618 20.1115 12.1969 20.0545 12.1067C19.9966 12.0151 19.9312 11.8709 19.8467 11.6539C19.6768 11.2178 19.4188 10.4592 18.9789 9.16554L19.1683 9.10115ZM19.1676 9.09914L19.1676 9.09917L18.9796 9.16752L18.9796 9.16749L19.1676 9.09914ZM17.8237 5.61771C17.8712 5.68105 17.9371 5.8147 18.0166 5.99646C18.098 6.18245 18.198 6.42975 18.3135 6.7295C18.5444 7.3292 18.8381 8.14196 19.1681 9.10077L18.979 9.16587C18.6494 8.20838 18.3566 7.39806 18.1268 6.80138C18.0119 6.50295 17.913 6.25874 17.8334 6.0766C17.7519 5.89021 17.6947 5.77909 17.6637 5.73771L17.8237 5.61771ZM14.617 4.838C15.314 4.64112 15.9342 4.60412 16.4725 4.7336C17.0127 4.8635 17.4637 5.15944 17.8223 5.61593L17.6651 5.73949C17.3326 5.31638 16.9197 5.04685 16.4258 4.92805C15.9301 4.80883 15.346 4.8399 14.6713 5.03047L14.617 4.838ZM10.5576 4.83848C11.0842 4.99696 11.8066 5.0777 12.5472 5.0777C13.2874 5.0777 14.0371 4.99706 14.6177 4.8378L14.6706 5.03067C14.0678 5.19602 13.2992 5.2777 12.5472 5.2777C11.7956 5.2777 11.052 5.19612 10.5 5.02999L10.5576 4.83848ZM8.64681 4.72321C9.16461 4.56897 9.79342 4.60496 10.558 4.8386L10.4996 5.02987C9.75632 4.80276 9.17044 4.77592 8.70391 4.91488L8.64681 4.72321ZM12.5707 6.94001C11.4458 6.94001 10.9646 6.8874 10.3033 6.70607L10.3562 6.51319C10.9934 6.6879 11.4547 6.74 12.5707 6.74V6.94001ZM14.838 6.70607C14.1767 6.8874 13.6956 6.94001 12.5707 6.94001V6.74C13.6867 6.74 14.148 6.6879 14.7852 6.51319L14.838 6.70607ZM16.2119 6.69551C16.1316 6.6255 16.0723 6.5799 16.013 6.55051C15.9564 6.52249 15.8957 6.50731 15.811 6.50674C15.6311 6.50554 15.3609 6.56875 14.837 6.70635L14.7862 6.51291C15.2989 6.37825 15.5995 6.30533 15.8123 6.30675C15.9239 6.30749 16.015 6.32831 16.1018 6.3713C16.1858 6.41291 16.2614 6.47334 16.3433 6.54469L16.2119 6.69551ZM17.4393 9.84554C17.0571 8.69877 16.7961 7.94981 16.6047 7.46439C16.5091 7.2216 16.4317 7.04711 16.3663 6.92272C16.3001 6.79689 16.2498 6.7296 16.2107 6.69443L16.3445 6.54577C16.4101 6.60485 16.4737 6.69725 16.5433 6.82961C16.6137 6.96341 16.6941 7.14561 16.7908 7.39105C16.9843 7.8821 17.2469 8.63581 17.6291 9.7823L17.4393 9.84554ZM18.4237 12.7881L17.4394 9.84564L17.629 9.7822L18.6134 12.7247L18.4237 12.7881ZM17.6441 12.8903L18.4923 12.6599L18.5447 12.8529L17.6965 13.0833L17.6441 12.8903ZM12.5178 13.557C14.6043 13.5465 15.8102 13.3904 17.644 12.8903L17.6966 13.0833C15.8444 13.5884 14.621 13.7465 12.5188 13.757L12.5178 13.557ZM9.5522 13.3806C10.2756 13.515 11.0531 13.557 12.5183 13.557V13.757C11.0515 13.757 10.2583 13.7152 9.51568 13.5773L9.5522 13.3806ZM6.7381 12.7236C6.73765 12.7233 6.74432 12.727 6.76409 12.7344C6.78193 12.741 6.80582 12.7491 6.83575 12.7584C6.89549 12.7771 6.97574 12.7999 7.07259 12.8257C7.26608 12.8774 7.52253 12.9406 7.80672 13.0072C8.37514 13.1405 9.05164 13.2868 9.55237 13.3807L9.51551 13.5772C9.01098 13.4826 8.33142 13.3357 7.76106 13.202C7.47586 13.1351 7.21724 13.0713 7.021 13.0189C6.92298 12.9928 6.83969 12.9692 6.7761 12.9493C6.74437 12.9394 6.71665 12.9302 6.69404 12.9217C6.67336 12.914 6.65074 12.9047 6.63328 12.8939L6.7381 12.7236ZM7.70199 9.84573C7.42989 10.6568 7.18932 11.3994 7.02209 11.9416C6.93843 12.2129 6.87339 12.4331 6.83196 12.5863C6.81116 12.6633 6.79679 12.7216 6.78894 12.7605C6.78491 12.7804 6.78326 12.7921 6.78284 12.7974C6.78258 12.8007 6.78318 12.7971 6.78226 12.79C6.78182 12.7866 6.78044 12.7775 6.77549 12.7663C6.77074 12.7556 6.75828 12.7333 6.73041 12.7193L6.64097 12.8982C6.61179 12.8836 6.59824 12.86 6.59263 12.8473C6.58682 12.8342 6.5848 12.8225 6.58394 12.8159C6.58218 12.8024 6.58282 12.7898 6.58346 12.7817C6.58484 12.7641 6.58843 12.743 6.5929 12.7208C6.60207 12.6755 6.61781 12.6122 6.63889 12.5341C6.68124 12.3775 6.7471 12.1546 6.83097 11.8827C6.99884 11.3384 7.23995 10.5941 7.51237 9.78211L7.70199 9.84573ZM9.31404 6.48973C9.21167 6.48973 9.13343 6.51079 9.05284 6.57864C8.96651 6.65131 8.87181 6.78249 8.7544 7.01925C8.51979 7.49233 8.21584 8.34089 7.70182 9.84623L7.51255 9.78161C8.02474 8.28162 8.33337 7.41808 8.57522 6.9304C8.69603 6.68678 8.80552 6.52541 8.92404 6.42563C9.0483 6.32102 9.17557 6.28973 9.31404 6.28973V6.48973ZM10.3055 6.70665C10.0755 6.64914 9.84875 6.59441 9.66678 6.55412C9.57573 6.53396 9.49664 6.51758 9.43431 6.50629C9.36912 6.49448 9.3299 6.48973 9.31404 6.48973V6.28973C9.35054 6.28973 9.40687 6.29807 9.46996 6.30949C9.53591 6.32144 9.61782 6.33844 9.71002 6.35885C9.89456 6.39971 10.1233 6.45494 10.354 6.51262L10.3055 6.70665ZM5.02098 13.9396C10.1102 15.6812 14.4967 15.7023 19.723 14.0332L19.7839 14.2237C14.5178 15.9055 10.0872 15.8847 4.95622 14.1288L5.02098 13.9396ZM3.71187 13.852C3.72996 13.8045 3.75434 13.7351 3.8078 13.6899C3.86967 13.6375 3.94807 13.6314 4.03217 13.6417C4.1166 13.6521 4.23031 13.6822 4.38562 13.7302C4.54248 13.7788 4.74865 13.8479 5.02049 13.9394L4.9567 14.129C4.68403 14.0372 4.48049 13.9689 4.32649 13.9213C4.17092 13.8731 4.07258 13.8482 4.00779 13.8403C3.97597 13.8363 3.95745 13.8373 3.9471 13.8391C3.9423 13.84 3.93981 13.841 3.93879 13.8414C3.93788 13.8418 3.93744 13.8422 3.93699 13.8425C3.9309 13.8477 3.92255 13.8608 3.89876 13.9232L3.71187 13.852ZM5.05216 14.6844C4.42372 14.4818 4.07144 14.3633 3.88935 14.2632C3.7983 14.2132 3.72759 14.1564 3.69772 14.0764C3.66752 13.9954 3.68927 13.9168 3.71087 13.8548L3.89976 13.9205C3.87947 13.9788 3.88159 13.997 3.8851 14.0064C3.88893 14.0167 3.90526 14.0437 3.98568 14.0879C4.14654 14.1763 4.47491 14.2882 5.11352 14.494L5.05216 14.6844ZM18.8914 15.0098C14.096 16.4085 10.0334 16.3133 5.05176 14.6842L5.11392 14.4941C10.0593 16.1113 14.0807 16.2046 18.8354 14.8178L18.8914 15.0098ZM21.3614 13.9818C21.3614 14.0386 21.3319 14.0844 21.3015 14.1175C21.2702 14.1516 21.2275 14.1834 21.1776 14.2141C21.0775 14.2757 20.93 14.3434 20.7347 14.4193C20.3428 14.5716 19.7397 14.7637 18.8912 15.0099L18.8355 14.8178C19.6835 14.5718 20.2793 14.3817 20.6623 14.2329C20.8544 14.1582 20.9884 14.0957 21.0728 14.0438C21.1153 14.0177 21.1406 13.9969 21.1543 13.9821C21.1688 13.9663 21.1614 13.967 21.1614 13.9818H21.3614ZM19.723 14.0332C20.358 13.8302 20.7465 13.7186 20.9769 13.6964C21.0896 13.6856 21.1921 13.6926 21.2657 13.7483C21.3458 13.8088 21.3614 13.902 21.3614 13.9818H21.1614C21.1614 13.9203 21.1481 13.9101 21.1451 13.9078C21.1356 13.9006 21.1007 13.8854 20.9961 13.8955C20.7919 13.9152 20.4265 14.0183 19.7839 14.2237L19.723 14.0332ZM10.7588 17.5896C10.5095 17.5896 9.84284 17.5151 9.28834 17.4314L9.31819 17.2336C9.87367 17.3175 10.5264 17.3896 10.7588 17.3896V17.5896ZM10.8195 17.8082C10.9508 17.7438 11.0411 17.6894 11.0951 17.6459C11.1223 17.6239 11.1355 17.6085 11.1408 17.6001C11.1459 17.592 11.1375 17.6009 11.1421 17.6194C11.1465 17.6376 11.1577 17.6412 11.1484 17.6357C11.1392 17.6301 11.1197 17.622 11.0847 17.6142C11.0154 17.5987 10.9082 17.5896 10.7588 17.5896V17.3896C10.9131 17.3896 11.0375 17.3988 11.1283 17.419C11.1733 17.429 11.2159 17.443 11.2509 17.4639C11.2859 17.4848 11.3233 17.5189 11.3363 17.5718C11.3494 17.625 11.3316 17.6727 11.3097 17.7073C11.2879 17.7417 11.2561 17.773 11.2207 17.8016C11.1493 17.8591 11.0432 17.9212 10.9075 17.9878L10.8195 17.8082ZM8.64928 17.868C8.91968 17.9761 9.32862 18.0282 9.7432 18.0179C10.1582 18.0076 10.5605 17.9352 10.8195 17.8082L10.9076 17.9878C10.6115 18.133 10.1762 18.2072 9.74817 18.2179C9.3198 18.2285 8.88054 18.1759 8.57501 18.0537L8.64928 17.868ZM8.00149 17.2096C7.92836 17.1913 7.88017 17.1879 7.85134 17.191C7.82253 17.194 7.8278 17.2012 7.83498 17.19C7.84116 17.1803 7.8339 17.1797 7.84096 17.2049C7.84768 17.2289 7.86425 17.2634 7.89446 17.3068C8.01656 17.4822 8.30376 17.7227 8.65089 17.8686L8.5734 18.053C8.19799 17.8952 7.87785 17.6331 7.7303 17.4211C7.6931 17.3676 7.66336 17.3124 7.64837 17.2589C7.63371 17.2065 7.62931 17.1405 7.66641 17.0824C7.70452 17.0227 7.76878 16.9985 7.83049 16.9921C7.89218 16.9856 7.96604 16.9946 8.04999 17.0156L8.00149 17.2096ZM9.28834 17.4314C9.01051 17.3895 8.72714 17.3449 8.49465 17.3055C8.26495 17.2665 8.07807 17.2316 7.99827 17.2088L8.05321 17.0165C8.12001 17.0355 8.2944 17.0687 8.52807 17.1083C8.75894 17.1474 9.04103 17.1918 9.31819 17.2336L9.28834 17.4314ZM17.3825 17.1648C17.3825 17.2138 17.3651 17.2612 17.3439 17.3019C17.3221 17.344 17.2919 17.3871 17.2571 17.4296C17.1875 17.5147 17.0925 17.6055 16.987 17.6914C16.7779 17.8616 16.5118 18.0253 16.2946 18.0882L16.239 17.896C16.4196 17.8437 16.6615 17.6985 16.8607 17.5363C16.9594 17.4559 17.0438 17.3745 17.1024 17.3029C17.1317 17.2671 17.153 17.2357 17.1664 17.2097C17.1806 17.1824 17.1825 17.1682 17.1825 17.1648H17.3825ZM16.3321 17.1281C16.7739 17.0456 17.015 17.0003 17.1439 16.9911C17.1771 16.9888 17.2076 16.9884 17.2345 16.9916C17.261 16.9947 17.2922 17.0021 17.3201 17.0219C17.3844 17.0675 17.3825 17.1413 17.3825 17.1648H17.1825C17.1825 17.132 17.1756 17.1646 17.2045 17.1851C17.2147 17.1924 17.2207 17.1913 17.2111 17.1902C17.202 17.1891 17.1857 17.1887 17.1581 17.1906C17.044 17.1988 16.8191 17.2406 16.3689 17.3247L16.3321 17.1281ZM16.2693 17.1398L16.3321 17.1281L16.3689 17.3247L16.3061 17.3364L16.2693 17.1398ZM14.6354 17.3479C15.1356 17.3062 15.8757 17.2124 16.2696 17.1398L16.3058 17.3365C15.9039 17.4105 15.157 17.5051 14.652 17.5472L14.6354 17.3479ZM13.6222 17.6151C13.6222 17.5778 13.6405 17.5515 13.653 17.5378C13.6656 17.5239 13.6798 17.5144 13.6904 17.5082C13.7118 17.4957 13.7378 17.4858 13.7634 17.4775C13.8159 17.4606 13.8881 17.4443 13.9727 17.429C14.1431 17.3982 14.3769 17.369 14.6355 17.3479L14.6518 17.5472C14.3974 17.568 14.1704 17.5965 14.0083 17.6258C13.9267 17.6406 13.8647 17.6551 13.8246 17.6679C13.8039 17.6746 13.794 17.6793 13.7911 17.681C13.7895 17.6819 13.7944 17.6794 13.8008 17.6724C13.8071 17.6655 13.8222 17.6459 13.8222 17.6151H13.6222ZM14.134 18.0006C14.0034 17.9462 13.8851 17.8831 13.7979 17.8255C13.7547 17.7969 13.7165 17.7679 13.6878 17.7403C13.6736 17.7266 13.6593 17.7109 13.6479 17.6938C13.6379 17.6787 13.6222 17.6508 13.6222 17.6151H13.8222C13.8222 17.6028 13.8193 17.5939 13.8177 17.5896C13.8168 17.5873 13.8159 17.5856 13.8154 17.5846C13.8149 17.5837 13.8146 17.5832 13.8145 17.5832C13.8145 17.5831 13.8148 17.5835 13.8153 17.5842C13.8158 17.5848 13.8166 17.5858 13.8176 17.587C13.8197 17.5894 13.8226 17.5925 13.8266 17.5963C13.8431 17.6122 13.8703 17.6336 13.9082 17.6587C13.9834 17.7084 14.0902 17.7657 14.2109 17.816L14.134 18.0006ZM16.2951 18.088C15.963 18.186 15.5565 18.2258 15.1687 18.2111C14.7821 18.1965 14.4033 18.1272 14.13 17.9988L14.215 17.8178C14.4547 17.9303 14.8037 17.9972 15.1763 18.0113C15.5477 18.0254 15.9318 17.9867 16.2385 17.8962L16.2951 18.088Z"
    fill="white" />
</svg>