<svg width="25" height="25" viewBox="0 0 25 25" fill="none" xmlns="http://www.w3.org/2000/svg">
  <path
    d="M20.6703 6.82999L12.649 3.62374C12.244 3.46624 11.794 3.46624 11.4003 3.62374L3.36779 6.82999C3.15404 6.91999 3.01904 7.12249 3.01904 7.34749V17.1012C3.01904 17.5625 3.30029 17.9787 3.72779 18.1475L11.8053 21.3762C11.9403 21.4325 12.0865 21.4325 12.2215 21.3762L20.299 18.1475C20.7265 17.9787 21.0078 17.5625 21.0078 17.1012V7.34749C21.0078 7.12249 20.8728 6.90874 20.659 6.82999H20.6703ZM11.8053 4.66999C11.9403 4.61374 12.0865 4.61374 12.2215 4.66999L18.9378 7.35874L16.339 8.39374C16.339 8.39374 16.2828 8.33749 16.2378 8.32624L9.84779 5.44624L11.8053 4.65874V4.66999ZM11.4565 20.0262L4.14404 17.1012V8.17999L11.4565 11.105V20.015V20.0262ZM12.019 10.1262L5.10029 7.34749L8.44154 6.00874C8.44154 6.00874 8.46404 6.03124 8.47529 6.03124L14.9553 8.93374L12.019 10.115V10.1262ZM19.894 8.19124V17.1012L12.5815 20.0262V11.105L19.894 8.17999V8.19124Z"
    fill="currentColor" />
</svg>