<svg width="25" height="25" viewBox="0 0 25 25" fill="none" xmlns="http://www.w3.org/2000/svg">
    <path d="M11.4577 4.6875H5.72852C4.86557 4.6875 4.16602 5.38706 4.16602 6.25V17.1875H20.8327V11.4583"
        stroke="currentColor" stroke-width="1.66667" stroke-linecap="round" stroke-linejoin="round" />
    <path fill-rule="evenodd" clip-rule="evenodd"
        d="M2.08301 17.1875H22.9163V18.2292C22.9163 19.9551 21.5172 21.3542 19.7913 21.3542H5.20801C3.48212 21.3542 2.08301 19.9551 2.08301 18.2292L2.08301 17.1875Z"
        stroke="currentColor" stroke-width="1.66667" stroke-linejoin="round" />
    <path
        d="M17.7761 4.23513C18.1015 3.90969 18.1015 3.38206 17.7761 3.05662C17.4507 2.73118 16.923 2.73118 16.5976 3.05662L17.7761 4.23513ZM15.1035 5.72921L14.5143 5.13995C14.1888 5.46539 14.1888 5.99303 14.5143 6.31846L15.1035 5.72921ZM16.5976 8.4018C16.923 8.72723 17.4507 8.72723 17.7761 8.4018C18.1015 8.07636 18.1015 7.54872 17.7761 7.22328L16.5976 8.4018ZM20.9008 3.05662C20.5753 2.73118 20.0477 2.73118 19.7223 3.05662C19.3968 3.38206 19.3968 3.90969 19.7223 4.23513L20.9008 3.05662ZM22.3949 5.72921L22.9841 6.31846C23.3095 5.99303 23.3095 5.46539 22.9841 5.13995L22.3949 5.72921ZM19.7223 7.22328C19.3968 7.54872 19.3968 8.07636 19.7223 8.4018C20.0477 8.72723 20.5753 8.72723 20.9008 8.4018L19.7223 7.22328ZM16.5976 3.05662L14.5143 5.13995L15.6928 6.31846L17.7761 4.23513L16.5976 3.05662ZM14.5143 6.31846L16.5976 8.4018L17.7761 7.22328L15.6928 5.13995L14.5143 6.31846ZM19.7223 4.23513L21.8056 6.31846L22.9841 5.13995L20.9008 3.05662L19.7223 4.23513ZM21.8056 5.13995L19.7223 7.22328L20.9008 8.4018L22.9841 6.31846L21.8056 5.13995Z"
        fill="currentColor" />
</svg>