<svg width="24" height="25" viewBox="0 0 24 25" fill="none" xmlns="http://www.w3.org/2000/svg">
    <path fill-rule="evenodd" clip-rule="evenodd"
        d="M11.931 3.5575L2.16833 13.4003C2.02528 13.5397 1.96771 13.7463 2.01773 13.9407C2.06776 14.1352 2.2176 14.2871 2.40967 14.3383C2.60173 14.3894 2.80614 14.3318 2.94433 14.1875L4.20506 12.9167V20.7427C4.20506 21.0497 4.45112 21.2986 4.75464 21.2986H9.70084C10.0044 21.2986 10.2504 21.0497 10.2504 20.7427V15.8841C10.2504 15.5771 10.4965 15.3282 10.8 15.3282H12.9983C13.3018 15.3282 13.5479 15.5771 13.5479 15.8841V20.7427C13.5479 21.0497 13.7939 21.2986 14.0975 21.2986H19.0437C19.3472 21.2986 19.5932 21.0497 19.5932 20.7427V12.9084L20.8529 14.1869C20.9916 14.3275 21.1939 14.3826 21.3837 14.3314C21.5734 14.2802 21.7217 14.1305 21.7728 13.9387C21.8238 13.7468 21.7698 13.5421 21.6311 13.4014L11.931 3.5575ZM18.4941 11.7927L11.9283 5.12959L5.30422 11.8082V20.1868H9.15126V15.8841C9.15126 14.9631 9.88942 14.2164 10.8 14.2164H12.9983C13.9089 14.2164 14.647 14.9631 14.647 15.8841V20.1868H18.4941V11.7927Z"
        fill="currentColor" stroke="currentColor" stroke-width="0.3" />
</svg>