<svg width="25" height="25" viewBox="0 0 25 25" fill="none" xmlns="http://www.w3.org/2000/svg">
    <path
        d="M13.1804 8.45304C14.8011 10.0738 15.1737 12.558 14.1128 14.577C13.9497 14.8874 13.566 15.0068 13.2556 14.8437C12.9453 14.6806 12.8259 14.2969 12.989 13.9865C13.7918 12.4587 13.5096 10.5776 12.2827 9.35073C10.7381 7.80612 8.23375 7.80612 6.68915 9.35073L4.37086 11.669C2.82625 13.2136 2.82625 15.7179 4.37086 17.2625C5.91546 18.8071 8.41977 18.8071 9.96437 17.2625L10.8917 16.3352C11.1396 16.0873 11.5415 16.0873 11.7894 16.3352C12.0373 16.5831 12.0373 16.985 11.7894 17.2329L10.8621 18.1602C8.82168 20.2006 5.51355 20.2006 3.47316 18.1602C1.43277 16.1198 1.43277 12.8117 3.47316 10.7713L5.79145 8.45304C7.83184 6.41265 11.14 6.41265 13.1804 8.45304ZM21.8262 6.59841C23.8666 8.6388 23.8666 11.9469 21.8262 13.9873L19.5079 16.3056C17.4675 18.346 14.1594 18.346 12.119 16.3056C10.4982 14.6848 10.1257 12.2006 11.1866 10.1816C11.3496 9.87126 11.7334 9.75187 12.0437 9.91493C12.3541 10.078 12.4735 10.4618 12.3104 10.7721C11.5076 12.3 11.7898 14.181 13.0167 15.4079C14.5613 16.9525 17.0656 16.9525 18.6102 15.4079L20.9285 13.0896C22.4731 11.545 22.4731 9.04071 20.9285 7.4961C19.3839 5.95149 16.8796 5.95149 15.335 7.4961L14.4077 8.42342C14.1598 8.67131 13.7579 8.67131 13.51 8.42342C13.2621 8.17552 13.2621 7.77361 13.51 7.52572L14.4373 6.59841C16.4777 4.55802 19.7858 4.55802 21.8262 6.59841Z"
        fill="currentColor" />
</svg>