<svg width="18" height="19" viewBox="0 0 18 19" fill="none" xmlns="http://www.w3.org/2000/svg">
<g id="Icon">
<path id="Shape" fill-rule="evenodd" clip-rule="evenodd" d="M4.80389 3.62047C4.88068 3.69413 4.92516 3.79647 4.92769 3.90091L4.92824 3.99966C4.94408 4.573 5.09597 5.14708 5.45871 5.4945C5.67765 5.70423 5.95653 5.80587 6.32192 5.80587C6.55824 5.80587 6.75023 5.98709 6.75023 6.2117C6.75023 6.43631 6.55824 6.61753 6.32192 6.61753C5.95218 6.61753 5.67092 6.7215 5.45093 6.93622C5.1113 7.26774 4.96152 7.7905 4.93329 8.29763L4.92842 8.4985C4.9348 8.67084 4.83149 8.82439 4.66914 8.89035C4.61559 8.91212 4.55841 8.92309 4.50054 8.92309C4.26662 8.92072 4.08014 8.74833 4.0726 8.53113L4.07197 8.43759C4.05943 7.86418 3.90897 7.28094 3.54152 6.9289C3.32258 6.71917 3.0437 6.61753 2.67831 6.61753C2.44199 6.61753 2.25 6.43631 2.25 6.2117C2.25 5.98709 2.44199 5.80587 2.67831 5.80587C3.04797 5.80587 3.32898 5.70195 3.54902 5.48718C3.88819 5.15609 4.03774 4.63516 4.06647 4.12701L4.07147 3.91998L4.07533 3.84921C4.09586 3.71025 4.19159 3.58935 4.33065 3.53285C4.49167 3.46715 4.68029 3.50184 4.80389 3.62047ZM11.6451 4.73735C11.6492 4.61867 11.5998 4.49965 11.5097 4.41193C11.3277 4.23484 11.0092 4.23484 10.8273 4.41193C10.7373 4.49953 10.6889 4.61853 10.6931 4.74102L10.6939 4.80259L10.6873 5.11468C10.655 5.86457 10.5016 6.69392 10.1615 7.44079C9.59187 8.69172 8.61375 9.41253 7.1102 9.41253C6.84811 9.41253 6.63501 9.61368 6.63501 9.86312C6.63501 10.1126 6.84811 10.3137 7.1102 10.3137C8.61375 10.3137 9.59187 11.0345 10.1615 12.2855C10.5441 13.1257 10.6904 14.0703 10.6939 14.8895L10.693 14.9889C10.6889 15.1077 10.7373 15.2267 10.8273 15.3143C10.9168 15.4015 11.0398 15.4507 11.1702 15.4507C11.2982 15.4507 11.4212 15.4015 11.5108 15.3143C11.6008 15.2267 11.6492 15.1077 11.645 14.9852L11.6442 14.9237L11.6508 14.6115C11.6831 13.8615 11.8364 13.0323 12.1764 12.2854C12.746 11.0345 13.7241 10.3137 15.2276 10.3137C15.4897 10.3137 15.7028 10.1126 15.7028 9.86312C15.7028 9.61368 15.4897 9.41253 15.2276 9.41253C13.7241 9.41253 12.746 8.69173 12.1764 7.44079C11.7939 6.60058 11.6477 5.65613 11.6442 4.83678L11.6451 4.73735ZM11.1215 7.60942L11.1687 7.48474L11.2165 7.60949C11.62 8.61027 12.2505 9.38845 13.1519 9.85095L13.1769 9.86324L13.1519 9.87526C12.2505 10.3378 11.62 11.1159 11.2165 12.1167L11.1687 12.2408L11.1215 12.1168C10.718 11.1161 10.0874 10.3378 9.1859 9.87527L9.15967 9.86324L9.1859 9.85094C10.0874 9.3884 10.718 8.61013 11.1215 7.60942ZM4.46537 5.68037L4.5 5.62159L4.53117 5.67436C4.61952 5.81325 4.72091 5.93983 4.83627 6.05256L4.94722 6.15286L5.02313 6.21152L4.94704 6.27076C4.90896 6.30267 4.87201 6.33614 4.83621 6.37117L4.72539 6.48842C4.65456 6.56964 4.58978 6.65685 4.53084 6.74956L4.5 6.80144L4.46946 6.74975C4.38109 6.61066 4.27948 6.48382 4.16389 6.37104L4.05272 6.27047L3.97688 6.21152L4.04313 6.16091C4.07983 6.13056 4.11556 6.09874 4.15032 6.06545C4.26975 5.95096 4.37448 5.82202 4.46537 5.68037Z" fill="#DB3B2B"/>
</g>
</svg>
