<svg width="15" height="15" viewBox="0 0 15 15" fill="none" xmlns="http://www.w3.org/2000/svg">
<g id="icon/t1comercios/alert" clip-path="url(#clip0_1582_10153)">
<path id="Vector" d="M7.50002 13.8461C11.0049 13.8461 13.8462 11.0048 13.8462 7.49996C13.8462 3.99508 11.0049 1.15381 7.50002 1.15381C3.99514 1.15381 1.15387 3.99508 1.15387 7.49996C1.15387 11.0048 3.99514 13.8461 7.50002 13.8461Z" fill="#F5A623" stroke="white"/>
<path id="Vector_2" fill-rule="evenodd" clip-rule="evenodd" d="M6.66653 5.36353L6.81077 7.52248C6.83781 7.80193 6.88288 8.01002 6.94598 8.14673C7.00909 8.28345 7.12177 8.35181 7.28403 8.35181C7.44328 8.35181 7.55746 8.28119 7.62658 8.13997C7.69568 7.99874 7.74075 7.79592 7.76179 7.53149L7.9556 5.30944C7.97663 5.10511 7.98716 4.90379 7.98716 4.70547C7.98716 4.36894 7.94358 4.11127 7.85644 3.93248C7.7693 3.75371 7.59652 3.66431 7.33812 3.66431C7.12477 3.66431 6.95275 3.73417 6.82204 3.87389C6.69133 4.01362 6.62598 4.20818 6.62598 4.45758C6.62598 4.64088 6.6395 4.94285 6.66653 5.36353ZM6.83105 10.3102C6.96777 10.4289 7.12777 10.4882 7.31107 10.4882C7.49136 10.4882 7.64912 10.4281 7.78432 10.3079C7.91954 10.1877 7.98716 10.0225 7.98716 9.81215C7.98716 9.62585 7.92029 9.46735 7.78658 9.33664C7.65287 9.20593 7.49136 9.14058 7.30205 9.14058C7.11275 9.14058 6.95275 9.20593 6.82204 9.33664C6.69133 9.46735 6.62598 9.62585 6.62598 9.81215C6.62598 10.0255 6.69433 10.1915 6.83105 10.3102Z" fill="white"/>
</g>
<defs>
<clipPath id="clip0_1582_10153">
<rect width="15" height="15" fill="white"/>
</clipPath>
</defs>
</svg>
