<svg width="38" height="34" viewBox="0 0 38 34" fill="none" xmlns="http://www.w3.org/2000/svg">
<g id="Amazon_logo">
<path id="path8" d="M33.6567 28.6937C29.5794 31.538 23.6696 33.0555 18.5813 33.0555C11.4467 33.0555 5.02378 30.5581 0.164575 26.4044C-0.217197 26.0777 0.124869 25.6326 0.582998 25.8869C5.82703 28.7746 12.3111 30.5119 19.0089 30.5119C23.526 30.5119 28.4952 29.6273 33.0642 27.7918C33.7545 27.5143 34.3317 28.2196 33.6567 28.6937Z" fill="#FF9900"/>
<path id="path10" d="M36.0375 26.7293C35.4962 26.1057 32.4459 26.4347 31.0768 26.5806C30.6597 26.6263 30.596 26.3002 30.9718 26.0656C33.4011 24.5295 37.3875 24.9729 37.8523 25.4878C38.3172 26.0056 37.7314 29.5957 35.4484 31.3092C35.0982 31.5724 34.7639 31.4323 34.9199 31.0832C35.4325 29.9333 36.5819 27.3558 36.0375 26.7293Z" fill="#FF9900"/>
<path id="path30" fill-rule="evenodd" clip-rule="evenodd" d="M26.0538 24.7427C26.3816 24.9146 26.8021 24.8962 27.0928 24.6383L27.1052 24.6506C27.9834 23.8768 29.5789 22.4951 30.4757 21.752C30.8344 21.4572 30.7725 20.9844 30.4881 20.5913C30.4019 20.4728 30.3151 20.3567 30.2289 20.2414C29.5109 19.2805 28.8306 18.3701 28.8306 16.5444V9.74003C28.8306 9.50759 28.832 9.27667 28.8333 9.0475C28.8483 6.43697 28.862 4.05297 26.8949 2.22948C25.2065 0.620522 22.4112 0.055542 20.2714 0.055542C16.0907 0.055542 11.4214 1.6031 10.4381 6.73704C10.3391 7.2836 10.7349 7.57223 11.0936 7.65206L15.3609 8.1065C15.7567 8.08808 16.0474 7.70119 16.1216 7.30816C16.4865 5.53953 17.9831 4.68592 19.6591 4.68592C20.562 4.68592 21.5886 5.01754 22.1267 5.82202C22.6761 6.62661 22.6678 7.69825 22.6603 8.65972C22.6594 8.76967 22.6586 8.87818 22.6586 8.98468V9.54966C22.2469 9.59629 21.8147 9.6402 21.3694 9.68545C19.0581 9.92026 16.3915 10.1912 14.39 11.0665C11.6379 12.2456 9.70215 14.659 9.70215 18.2024C9.70215 22.7407 12.5841 25.0068 16.2824 25.0068C19.4117 25.0068 21.1186 24.276 23.5306 21.8318C23.6578 22.0136 23.7714 22.1806 23.8784 22.3377C24.4468 23.1733 24.8253 23.7296 26.0538 24.7427ZM22.659 13.05V13.9958C22.659 14.0736 22.6591 14.1509 22.6592 14.2276C22.6611 15.8269 22.6627 17.1846 21.8365 18.6262C21.1377 19.8544 20.0306 20.6097 18.7937 20.6097C17.1054 20.6097 16.1221 19.3324 16.1221 17.4471C16.1221 13.7256 19.4802 13.05 22.659 13.05Z" fill="#221F1F"/>
</g>
</svg>
