<svg width="21" height="20" viewBox="0 0 21 20" fill="none" xmlns="http://www.w3.org/2000/svg">
<g id="Icon">
<path id="Shape" fill-rule="evenodd" clip-rule="evenodd" d="M4.96769 1.85572C5.07007 1.95858 5.12937 2.10148 5.13275 2.24731L5.13349 2.3852C5.1546 3.1858 5.35713 3.98742 5.84077 4.47255C6.1327 4.76541 6.50454 4.90733 6.99172 4.90733C7.30682 4.90733 7.56281 5.16039 7.56281 5.47402C7.56281 5.78765 7.30682 6.04071 6.99172 6.04071C6.49875 6.04071 6.12372 6.18588 5.8304 6.48571C5.37757 6.94864 5.17785 7.6786 5.14022 8.38674L5.13372 8.66723C5.14223 8.90787 5.00448 9.12228 4.78801 9.21439C4.71662 9.24479 4.64039 9.26011 4.56322 9.26011C4.25132 9.25679 4.00268 9.01608 3.99263 8.71279L3.9918 8.58218C3.97507 7.78148 3.77446 6.96707 3.28453 6.47549C2.99261 6.18263 2.62077 6.04071 2.13359 6.04071C1.81849 6.04071 1.5625 5.78765 1.5625 5.47402C1.5625 5.16039 1.81849 4.90733 2.13359 4.90733C2.62646 4.90733 3.00114 4.76223 3.29453 4.46233C3.74676 4 3.94615 3.27259 3.98445 2.56303L3.99113 2.27394L3.99627 2.17512C4.02365 1.98109 4.15129 1.81226 4.3367 1.73337C4.5514 1.64163 4.80289 1.69006 4.96769 1.85572ZM14.0897 3.41526C14.0952 3.24954 14.0293 3.08334 13.9092 2.96085C13.6666 2.71358 13.2419 2.71358 12.9993 2.96085C12.8793 3.08319 12.8148 3.24935 12.8204 3.42039L12.8214 3.50636L12.8126 3.94215C12.7696 4.98928 12.5651 6.14734 12.1116 7.19024C11.3521 8.937 10.0479 9.94352 8.04321 9.94352C7.69376 9.94352 7.40963 10.2244 7.40963 10.5727C7.40963 10.921 7.69376 11.2019 8.04321 11.2019C10.0479 11.2019 11.3521 12.2084 12.1116 13.9552C12.6218 15.1284 12.8168 16.4475 12.8214 17.5913L12.8203 17.7301C12.8148 17.8961 12.8793 18.0622 12.9993 18.1846C13.1187 18.3063 13.2827 18.375 13.4565 18.375C13.6273 18.375 13.7913 18.3063 13.9107 18.1846C14.0307 18.0622 14.0952 17.8961 14.0896 17.725L14.0886 17.6391L14.0974 17.2032C14.1404 16.1559 14.3448 14.998 14.7982 13.9552C15.5576 12.2084 16.8617 11.2019 18.8664 11.2019C19.2159 11.2019 19.5 10.921 19.5 10.5727C19.5 10.2244 19.2159 9.94352 18.8664 9.94352C16.8617 9.94352 15.5576 8.93701 14.7982 7.19026C14.2881 6.01701 14.0932 4.69821 14.0886 3.5541L14.0897 3.41526ZM13.3917 7.42575L13.4546 7.25165L13.5183 7.42585C14.0563 8.8233 14.8969 9.90991 16.0988 10.5557L16.1321 10.5729L16.0988 10.5897C14.8969 11.2355 14.0563 12.3221 13.5183 13.7196L13.4546 13.8929L13.3917 13.7197C12.8537 12.3223 12.0128 11.2356 10.8109 10.5897L10.7759 10.5729L10.8109 10.5557C12.0128 9.90985 12.8537 8.8231 13.3917 7.42575ZM4.51633 4.73208L4.5625 4.65001L4.60405 4.7237C4.72185 4.91763 4.85704 5.09439 5.01086 5.2518L5.15879 5.39186L5.26 5.47376L5.15855 5.5565C5.10778 5.60105 5.05852 5.64779 5.01078 5.69669L4.86302 5.86042C4.76858 5.97383 4.68221 6.09562 4.60362 6.22507L4.5625 6.29751L4.52177 6.22534C4.40395 6.03111 4.26847 5.854 4.11435 5.69652L3.96612 5.55608L3.865 5.47376L3.95334 5.4031C4.00227 5.36072 4.04991 5.31629 4.09626 5.26981C4.25551 5.10993 4.39515 4.92988 4.51633 4.73208Z" fill="#DB3B2B"/>
</g>
</svg>
