<svg width="20" height="19" viewBox="0 0 20 19" fill="none" xmlns="http://www.w3.org/2000/svg">
<g id="Group">
<path id="Vector" d="M8.814 0.162918C8.37509 0.382376 8.03023 0.74291 7.80293 1.22885L7.59915 1.64425H6.3843C5.02054 1.64425 5.0127 1.65209 5.0127 2.24776C5.00486 2.67099 4.70703 3.21179 4.32298 3.48611C3.86056 3.80746 3.17084 3.84665 2.66138 3.58017C2.22247 3.35287 1.81491 2.82775 1.75221 2.42019C1.69734 2.08316 1.54843 1.99695 1.12519 2.05181C0.905732 2.07533 0.897895 2.091 0.905732 2.48289C0.929246 3.18828 1.53275 4.01124 2.30085 4.37178C2.49679 4.46583 2.66138 4.57556 2.66138 4.62259C2.66138 4.70096 2.49679 5.0615 1.80707 6.52715C1.58761 6.99742 1.40735 7.3893 1.40735 7.39714C1.40735 7.41282 1.16438 7.93794 0.858706 8.5728C0.560872 9.19982 0.310065 9.74846 0.310065 9.77981C0.310065 9.819 0.239525 9.91305 0.15331 9.99143C-0.183712 10.2971 0.0670954 11.7157 0.592223 12.476C0.890057 12.8992 1.44654 13.3773 1.87761 13.5733C2.69273 13.9495 3.37462 14.0279 4.15055 13.8398C4.76973 13.683 4.93432 13.6125 5.3654 13.2754C6.22755 12.6249 6.58809 11.9901 6.737 10.8928L6.80754 10.3833L6.26674 9.28603C5.97674 8.68253 5.63188 7.96146 5.49864 7.6793C5.37324 7.39714 5.09108 6.80147 4.87162 6.34689C4.4092 5.36717 4.07217 4.63042 4.07217 4.59123C4.07217 4.5834 4.26812 4.47367 4.50325 4.34826C5.04405 4.07394 5.58486 3.48611 5.7808 2.95315L5.93755 2.54559L6.76835 2.52208L7.60699 2.49856L7.76374 2.86694C7.8578 3.06288 8.0459 3.36071 8.19482 3.5253L8.4613 3.82314L8.44563 10.1168L8.42211 16.4184L6.95646 16.4419L5.4908 16.4576L5.46729 17.304L5.44378 18.1427L5.0754 18.1662C4.75406 18.1897 4.69136 18.221 4.65217 18.3778C4.62865 18.4719 4.62082 18.6443 4.63649 18.7383L4.66 18.9264L6.30593 18.9735C7.51294 19.0127 14.2377 19.0048 14.755 18.9735C14.7863 18.9656 14.8099 18.7854 14.8099 18.5737V18.1819H14.5042C14.0183 18.1819 13.9477 18.0565 13.9477 17.2021V16.4576L12.5212 16.4419L11.0869 16.4184L11.0399 14.4981C11.0086 13.44 10.9929 10.6106 11.0007 8.21227L11.0086 3.84665L11.228 3.61936C11.3456 3.49395 11.5415 3.20396 11.6669 2.96882L11.8864 2.54559L12.678 2.52208L13.4696 2.49856L13.7283 3.03153C14.0183 3.64287 14.4493 4.1053 14.9901 4.38745C15.1939 4.49718 15.3585 4.60691 15.3585 4.63826C15.3585 4.70096 15.1626 5.1242 14.5042 6.52715C14.2847 6.99742 14.1045 7.3893 14.1045 7.40498C14.1045 7.49903 12.8426 10.0228 12.7799 10.0698C12.7329 10.0933 12.6937 10.3206 12.6937 10.5636C12.7015 12.1233 13.7283 13.4244 15.3036 13.8398C17.2787 14.3649 19.3714 12.7817 19.442 10.7125C19.4576 10.3049 19.4263 10.1639 19.293 9.96792C19.199 9.84251 19.1206 9.71711 19.1206 9.6936C19.1206 9.67792 18.9247 9.23901 18.6817 8.72956C17.7804 6.81715 17.6785 6.59769 17.2317 5.64933C16.9731 5.11636 16.7693 4.65394 16.7693 4.62259C16.7693 4.59123 16.9261 4.48934 17.122 4.39529C17.8352 4.05827 18.3682 3.41558 18.572 2.64748C18.6974 2.18505 18.6033 2.03614 18.1879 2.03614C17.8587 2.03614 17.7098 2.14586 17.7098 2.38883C17.7098 3.00801 16.8085 3.76044 16.0717 3.76044C15.7034 3.76044 15.0999 3.55665 14.9431 3.38422C14.7001 3.1099 14.4728 2.56126 14.4258 2.13019L14.3788 1.68344L13.1248 1.64425L11.8707 1.60506L11.7061 1.25236C11.5102 0.836964 10.9459 0.288322 10.5305 0.115892C10.1151 -0.0565376 9.20589 -0.0330238 8.814 0.162918ZM10.311 0.98588C10.6559 1.15047 10.9694 1.6756 10.9694 2.07533C10.9694 2.45154 10.648 3.01585 10.3424 3.17261C9.9975 3.35287 9.37048 3.32152 9.04913 3.1099C8.7513 2.9218 8.4613 2.42019 8.4613 2.091C8.4613 1.65993 8.82968 1.09561 9.20589 0.938854C9.46453 0.829126 10.0288 0.852638 10.311 0.98588ZM10.1543 10.2266C10.1621 13.6908 10.1307 16.2459 10.0915 16.3243C10.0367 16.434 9.94263 16.4576 9.69183 16.4419L9.36264 16.4184L9.33913 10.4225C9.33129 7.12282 9.33913 4.37962 9.36264 4.32475C9.38615 4.25421 9.5194 4.2307 9.7702 4.24637L10.1464 4.26989L10.1543 10.2266ZM3.86839 6.28418C4.10353 6.77012 4.37785 7.36579 4.48757 7.60092C4.5973 7.83605 4.86379 8.41605 5.08324 8.88631C5.70242 10.203 5.89053 10.0698 3.41381 10.0933C2.25382 10.1012 1.27411 10.0855 1.23492 10.0463C1.17222 9.98359 1.33681 9.59171 2.32436 7.52254C2.55949 7.02877 2.88084 6.34689 3.02976 6.00986C3.18651 5.68068 3.34327 5.40636 3.38245 5.40636C3.42164 5.40636 3.6411 5.80608 3.86839 6.28418ZM16.2363 5.57095C16.2912 5.67284 16.7223 6.59769 17.1612 7.56173C17.2552 7.77335 17.5296 8.36118 17.7647 8.85496C17.9998 9.34874 18.1958 9.82684 18.2036 9.91305C18.2193 10.0698 18.1722 10.0698 16.1109 10.0933C14.9509 10.1012 13.9634 10.0776 13.932 10.0463C13.8928 10.0071 14.0183 9.64657 14.2142 9.21549C14.418 8.79226 14.5747 8.43172 14.5747 8.41605C14.5747 8.40037 14.8334 7.84389 15.1547 7.18552C15.4761 6.53499 15.7896 5.86095 15.8601 5.69635C15.9855 5.39068 16.1109 5.35149 16.2363 5.57095ZM5.79647 11.1671C5.79647 11.653 5.12243 12.5152 4.50325 12.813C4.28379 12.9227 3.97812 12.9776 3.47651 12.9933C2.873 13.0168 2.71625 13.0011 2.40274 12.8522C1.86977 12.6014 1.39167 12.139 1.1487 11.653C0.788166 10.9163 0.607899 10.9711 3.36678 10.9711H5.79647V11.1671ZM18.4936 11.1906C18.4936 11.4571 18.1095 12.0998 17.7647 12.4133C17.3023 12.8287 16.8006 13.009 16.0796 13.009C15.5309 13.009 15.3585 12.9776 14.998 12.7973C14.4964 12.5544 13.9947 12.0449 13.7753 11.5511C13.5088 10.9476 13.4069 10.9711 16.1031 10.9711H18.4936V11.1906ZM13.0699 17.7273L13.0464 18.1427L9.80155 18.1662C7.47375 18.174 6.52538 18.1583 6.45484 18.0956C6.34512 18.0016 6.30593 17.4686 6.39998 17.3746C6.42349 17.3432 7.94401 17.3197 9.7702 17.3197H13.0934L13.0699 17.7273Z" fill="#4C4C4C"/>
</g>
</svg>
