<svg width="20" height="17" viewBox="0 0 20 17" fill="none" xmlns="http://www.w3.org/2000/svg">
<g id="Group 2020">
<g id="Group 2021">
<path id="Shape" fill-rule="evenodd" clip-rule="evenodd" d="M4.80012 6.1888C4.80012 3.32772 7.12785 1 9.98912 1C12.8502 1 15.1777 3.32772 15.1777 6.1888C15.1777 9.04987 12.8502 11.3778 9.98912 11.3778C7.12785 11.3778 4.80012 9.04987 4.80012 6.1888ZM5.64067 6.1888C5.64067 8.5865 7.59142 10.5372 9.98912 10.5372C12.3868 10.5372 14.3372 8.5865 14.3372 6.1888C14.3372 3.79109 12.3868 1.84055 9.98912 1.84055C7.59142 1.84055 5.64067 3.79109 5.64067 6.1888ZM3.61748 6.3899H1.42027C1.18818 6.3899 1 6.20172 1 5.96963C1 5.73753 1.18818 5.54935 1.42027 5.54935H3.61748C3.84958 5.54935 4.03776 5.73753 4.03776 5.96963C4.03776 6.20172 3.84958 6.3899 3.61748 6.3899ZM4.21753 3.08742C4.3542 3.08742 4.48841 3.02073 4.56905 2.89801C4.6967 2.70408 4.64273 2.44346 4.4488 2.31603L2.61297 1.10897C2.41904 0.981531 2.15863 1.0355 2.03099 1.22922C1.90334 1.42315 1.95732 1.68377 2.15124 1.8112L3.98707 3.01826C4.05828 3.06505 4.13831 3.08742 4.21753 3.08742ZM4.56905 9.04084C4.6967 9.23497 4.64273 9.49559 4.4488 9.62323L2.61297 10.8307C2.54197 10.8775 2.46173 10.8997 2.38252 10.8997C2.24584 10.8997 2.11164 10.8332 2.03099 10.7104C1.90334 10.5163 1.95732 10.2557 2.15124 10.1281L3.98707 8.92058C4.18079 8.79294 4.44182 8.84712 4.56905 9.04084ZM18.5797 6.3899C18.812 6.3899 19 6.20172 19 5.96963C19 5.73753 18.812 5.54935 18.5797 5.54935H16.3827C16.1504 5.54935 15.9624 5.73753 15.9624 5.96963C15.9624 6.20172 16.1504 6.3899 16.3827 6.3899H18.5797ZM15.4309 2.89801C15.3037 2.70408 15.3575 2.44346 15.5512 2.31603L17.387 1.10897C17.582 0.981531 17.8418 1.03509 17.9694 1.22922C18.0967 1.42315 18.0429 1.68377 17.8492 1.8112L16.0133 3.01826C15.9419 3.06505 15.8619 3.08742 15.7827 3.08742C15.646 3.08742 15.5118 3.02093 15.4309 2.89801ZM17.6177 10.8997C17.7544 10.8997 17.8886 10.8332 17.9694 10.7104C18.0967 10.5163 18.0429 10.2557 17.8492 10.1281L16.0133 8.92058C15.8188 8.79294 15.559 8.84712 15.4309 9.04084C15.3037 9.23497 15.3575 9.49559 15.5512 9.62323L17.387 10.8307C17.4584 10.8775 17.5385 10.8997 17.6177 10.8997Z" fill="#4C4C4C" stroke="#4C4C4C" stroke-width="0.5"/>
<path id="Path (Stroke) (Stroke)" fill-rule="evenodd" clip-rule="evenodd" d="M8.98477 14.3035C8.7725 14.3035 8.60039 14.4756 8.60039 14.6879V15.2504C8.60039 15.4626 8.7725 15.6348 8.98477 15.6348H11.516C11.7283 15.6348 11.9004 15.4626 11.9004 15.2504V14.6879C11.9004 14.4756 11.7283 14.3035 11.516 14.3035H8.98477ZM7.40039 14.6879C7.40039 13.8129 8.10972 13.1035 8.98477 13.1035H11.516C12.3911 13.1035 13.1004 13.8129 13.1004 14.6879V15.2504C13.1004 16.1254 12.3911 16.8348 11.516 16.8348H8.98477C8.10972 16.8348 7.40039 16.1254 7.40039 15.2504V14.6879Z" fill="#4C4C4C"/>
</g>
</g>
</svg>
