<svg xmlns="http://www.w3.org/2000/svg" width="14" height="14" viewBox="0 0 14 14" fill="none">
  <g clip-path="url(#clip0_748_57022)">
    <path fill-rule="evenodd" clip-rule="evenodd" d="M11.5211 2.0729H10.7144V1.19795C10.7144 0.970861 10.5344 0.790527 10.3144 0.790527C10.0944 0.790527 9.91439 0.970861 9.91439 1.19795V2.0729H4.58105V1.19795C4.58105 0.970861 4.40105 0.790527 4.18105 0.790527C3.96105 0.790527 3.78105 0.970861 3.78105 1.19795V2.0729H2.97439C1.65439 2.0729 0.581055 3.14822 0.581055 4.47066V11.0762C0.581055 12.3987 1.65439 13.474 2.97439 13.474H11.5144C12.8344 13.474 13.9077 12.3987 13.9077 11.0762V4.47066C13.9077 3.14822 12.8344 2.0729 11.5144 2.0729H11.5211ZM2.97439 2.87438H3.78105V3.72261C3.78105 3.9497 3.96105 4.13003 4.18105 4.13003C4.40105 4.13003 4.58105 3.9497 4.58105 3.72261V2.87438H9.91439V3.72261C9.91439 3.9497 10.0944 4.13003 10.3144 4.13003C10.5344 4.13003 10.7144 3.9497 10.7144 3.72261V2.87438H11.5211C12.4011 2.87438 13.1144 3.58903 13.1144 4.47066V5.26547H1.38105V4.47066C1.38105 3.58903 2.09439 2.87438 2.97439 2.87438ZM11.5144 12.6725H2.97439C2.09439 12.6725 1.38105 11.9578 1.38105 11.0762V6.06695H13.1144V11.0762C13.1144 11.9578 12.4011 12.6725 11.5211 12.6725H11.5144Z" fill="#4C4C4C"/>
  </g>
  <defs>
    <clipPath id="clip0_748_57022">
      <rect width="13.3333" height="12.6834" fill="white" transform="translate(0.581055 0.790527)"/>
    </clipPath>
  </defs>
</svg>