<svg width="22" height="19" viewBox="0 0 22 19" fill="none" xmlns="http://www.w3.org/2000/svg">
<path d="M13.4074 0.40625C14.3306 0.40625 15.1299 1.05681 15.3223 1.96534L15.5022 2.84058C15.5352 3.00113 15.6826 3.12107 15.849 3.12107H17.7788C19.8873 3.12107 21.6004 4.8342 21.6004 6.94267L21.5921 14.8907C21.2952 16.6611 19.7424 18.0416 17.9115 18.1174L4.222 18.1202C2.11352 18.1202 0.400391 16.4071 0.400391 14.2986V6.94267C0.400391 4.8342 2.11352 3.12107 4.222 3.12107H6.15176C6.31573 3.12107 6.46512 2.99935 6.49944 2.83634L6.68147 1.96749C6.86583 1.06108 7.6706 0.40625 8.59683 0.40625H13.4074ZM13.4074 1.60625H8.59683C8.24012 1.60625 7.92783 1.86036 7.85668 2.21011L7.67382 3.08297C7.52268 3.80088 6.8842 4.32107 6.15176 4.32107H4.222C2.77626 4.32107 1.60039 5.49694 1.60039 6.94267V14.2986C1.60039 15.7443 2.77626 16.9202 4.22187 16.9202L17.8864 16.9179C19.1238 16.8663 20.2053 15.9049 20.4004 14.7915V6.94267C20.4004 5.49694 19.2245 4.32107 17.7788 4.32107H15.849C15.1135 4.32107 14.4744 3.80112 14.3268 3.08202L14.1476 2.21049C14.0732 1.85904 13.7626 1.60625 13.4074 1.60625ZM11.0004 6.00625C13.244 6.00625 15.0629 7.82509 15.0629 10.0688C15.0629 12.3124 13.244 14.1313 11.0004 14.1313C8.75673 14.1313 6.93789 12.3124 6.93789 10.0688C6.93789 7.82509 8.75673 6.00625 11.0004 6.00625ZM11.0004 7.20625C9.41947 7.20625 8.13789 8.48784 8.13789 10.0688C8.13789 11.6497 9.41947 12.9312 11.0004 12.9312C12.5813 12.9312 13.8629 11.6497 13.8629 10.0688C13.8629 8.48784 12.5813 7.20625 11.0004 7.20625Z" fill="#4C4C4C"/>
</svg>
