<svg width="24" height="24" viewBox="0 0 24 24" fill="none" xmlns="http://www.w3.org/2000/svg">
<g id="icon/navigation/camera">
<path id="Combined-Shape" d="M14.407 3.40039C15.3302 3.40039 16.1295 4.05095 16.322 4.95948L16.5019 5.83472C16.5348 5.99527 16.6822 6.11521 16.8486 6.11521H18.7784C20.8869 6.11521 22.6 7.82834 22.6 9.93681L22.5918 17.8849C22.2949 19.6553 20.7421 21.0357 18.9111 21.1115L5.22163 21.1144C3.11316 21.1144 1.40002 19.4012 1.40002 17.2928V9.93681C1.40002 7.82834 3.11316 6.11521 5.22163 6.11521H7.1514C7.31536 6.11521 7.46476 5.99349 7.49908 5.83048L7.68111 4.96164C7.86546 4.05522 8.67023 3.40039 9.59646 3.40039H14.407ZM14.407 4.60039H9.59646C9.23976 4.60039 8.92746 4.8545 8.85632 5.20425L8.67346 6.07711C8.52232 6.79503 7.88383 7.31521 7.1514 7.31521H5.22163C3.7759 7.31521 2.60002 8.49108 2.60002 9.93681V17.2928C2.60002 18.7385 3.7759 19.9144 5.22151 19.9144L18.886 19.9121C20.1235 19.8605 21.2049 18.899 21.4 17.7856V9.93681C21.4 8.49108 20.2242 7.31521 18.7784 7.31521H16.8486C16.1131 7.31521 15.474 6.79526 15.3264 6.07616L15.1473 5.20463C15.0728 4.85318 14.7622 4.60039 14.407 4.60039ZM12 9.00039C14.2437 9.00039 16.0625 10.8192 16.0625 13.0629C16.0625 15.3065 14.2437 17.1254 12 17.1254C9.75637 17.1254 7.93752 15.3065 7.93752 13.0629C7.93752 10.8192 9.75637 9.00039 12 9.00039ZM12 10.2004C10.4191 10.2004 9.13752 11.482 9.13752 13.0629C9.13752 14.6438 10.4191 15.9254 12 15.9254C13.5809 15.9254 14.8625 14.6438 14.8625 13.0629C14.8625 11.482 13.5809 10.2004 12 10.2004Z" fill="#4C4C4C"/>
</g>
</svg>
