<svg width="176" height="24" viewBox="0 0 176 24" fill="none" xmlns="http://www.w3.org/2000/svg">
<rect x="0.25" y="0.25" width="37.5" height="23.5" rx="2.75" fill="white" stroke="#E7E7E7" stroke-width="0.5"/>
<rect x="6" y="6" width="25" height="12.5" stroke="#E7E7E7"/>
<path fill-rule="evenodd" clip-rule="evenodd" d="M15.6774 8.34375L12.3404 16.4083H10.1633L8.52124 9.97241C8.42155 9.576 8.33486 9.43078 8.03165 9.26377C7.53675 8.99175 6.71926 8.73666 6 8.57826L6.04885 8.34375H9.5534C10.0001 8.34375 10.4017 8.64496 10.5031 9.16601L11.3704 13.8326L13.5138 8.34375H15.6774ZM24.1559 13.7396C24.1614 12.5079 23.0877 11.9726 22.2286 11.5442C21.6519 11.2567 21.1719 11.0174 21.1803 10.648C21.1867 10.3681 21.4672 10.0705 22.0812 9.99455C22.3855 9.95671 23.224 9.92783 24.175 10.3436L24.548 8.68957C24.037 8.51334 23.3795 8.34375 22.5614 8.34375C20.4621 8.34375 18.9847 9.40397 18.9723 10.9221C18.9587 12.045 20.0268 12.6716 20.8314 13.0448C21.6592 13.4269 21.937 13.6724 21.9339 14.0142C21.928 14.5374 21.2736 14.7684 20.6621 14.7775C19.628 14.7926 19.0143 14.5209 18.5281 14.3056L18.4814 14.285L18.0964 15.9938C18.5927 16.2101 19.5086 16.3988 20.4583 16.4083C22.6895 16.4083 24.1491 15.3612 24.1559 13.7396ZM31.0002 16.4083H29.1288L29.129 16.4081L28.8847 15.2035H26.2887L25.8668 16.4081H23.7422L26.7784 8.93539C26.9235 8.57691 27.2511 8.34375 27.6395 8.34375H29.3667L31.0002 16.4083ZM26.9677 13.9889L27.9914 10.7631L28.5806 13.9889H26.9679H26.9677ZM17.0778 16.4083L18.903 8.34375H16.6965L14.8707 16.4083H17.0778Z" fill="#1434CB"/>
<rect x="46.25" y="0.25" width="37.5" height="23.5" rx="2.75" fill="white" stroke="#E7E7E7" stroke-width="0.5"/>
<rect x="52" y="4" width="25" height="16" stroke="#E7E7E7"/>
<path d="M74.9096 18.2507L73.8003 17.0133L72.6485 18.2507H70.3874H65.5239V12.4907H63.2628L66.0785 6.048H68.8089L69.7901 8.26667V6.048H73.2031L73.8003 7.712L74.3976 6.048H77V5.06667C77 4.46933 76.5307 4 75.9334 4H53.0666C52.4693 4 52 4.46933 52 5.06667V18.9333C52 19.5307 52.4693 20 53.0666 20H75.9334C76.5307 20 77 19.5307 77 18.9333V18.2507H74.9096Z" fill="#0071CE"/>
<path d="M75.2085 17.5677H77.0003L74.6539 15.0504L77.0003 12.5757H75.2511L73.7579 14.197L72.3074 12.5757H70.5156L72.9047 15.093L70.5156 17.5677H72.2648L73.7579 15.9464L75.2085 17.5677Z" fill="#0071CE"/>
<path d="M67.6572 16.4157V15.6477H70.4729V14.4957H67.6572V13.7277H70.5155V12.5757H66.292V17.5677H70.5155V16.4157H67.6572Z" fill="#0071CE"/>
<path d="M75.6777 11.8506H76.9576V6.81592L74.9098 6.85858L73.8006 9.97325L72.6487 6.85858H70.5156V11.8506H71.8808V8.35192L73.1607 11.8506H74.3552L75.6777 8.35192V11.8506Z" fill="#0071CE"/>
<path fill-rule="evenodd" clip-rule="evenodd" d="M66.5905 6.8584H68.3396L70.5581 11.8504H69.0222L68.5956 10.8691H66.2919L65.8652 11.8504H64.3721L66.5905 6.8584ZM67.4433 8.0957L66.7607 9.71704H68.1259L67.4433 8.0957Z" fill="#0071CE"/>
<path d="M76 14.5L77 16V13L76 14.5Z" fill="#0071CE"/>
<rect x="92.25" y="0.25" width="37.5" height="23.5" rx="2.75" fill="white" stroke="#E7E7E7" stroke-width="0.5"/>
<path fill-rule="evenodd" clip-rule="evenodd" d="M118.553 10.1724C117.847 8.09852 114.323 6.52053 110.069 6.52053H110.067C105.814 6.52053 102.289 8.09852 101.584 10.1724C101.501 9.92447 101.448 9.67159 101.448 9.41215C101.448 6.97537 105.309 5 110.069 5C114.829 5 118.688 6.97537 118.69 9.41215C118.69 9.67323 118.636 9.92447 118.553 10.1724ZM118.553 12.7586C117.847 10.6841 114.323 9.10557 110.069 9.10557L110.067 9.10393C105.814 9.10393 102.289 10.6824 101.584 12.757C101.501 12.5106 101.448 12.2576 101.448 11.9981C101.448 9.5622 105.307 7.58621 110.069 7.58621C114.831 7.58621 118.69 9.5622 118.69 11.9998C118.69 12.2593 118.636 12.5122 118.553 12.7586ZM114.431 17.6581L112.643 15.3448H111.793V18.7931H112.604V16.5301L114.366 18.7931H115.241V15.3448H114.431V17.6581ZM99.7934 18.2173C100.005 18.2173 100.187 18.1602 100.34 18.046L100.345 18.0494C100.499 17.9352 100.608 17.7556 100.675 17.5105L101.448 17.7119C101.328 18.0779 101.132 18.3499 100.855 18.5262C100.578 18.7041 100.228 18.7931 99.8028 18.7931C99.2781 18.7931 98.8453 18.6403 98.5075 18.3381C98.1697 18.036 98 17.623 98 17.0975C98 16.5435 98.1681 16.112 98.5091 15.8048C98.85 15.4993 99.2968 15.3448 99.851 15.3448C100.335 15.3448 100.727 15.4657 101.03 15.7058C101.209 15.8485 101.344 16.0533 101.434 16.3202L100.642 16.478C100.595 16.3051 100.497 16.1691 100.349 16.0684C100.2 15.9677 100.021 15.9173 99.809 15.9173C99.5148 15.9173 99.2781 16.0063 99.096 16.1842C98.9154 16.3622 98.8235 16.6493 98.8235 17.0471C98.8235 17.4685 98.9123 17.769 99.0929 17.9487C99.2719 18.1266 99.5054 18.2173 99.7934 18.2173ZM119.553 15.3448V15.9279H120.843V18.7931H121.72V15.9279H123V15.3448H119.553ZM119.295 17.2729H117.02V17.2746V18.21H119.552V18.7931H116.103V15.3448H119.463V15.9279H117.02V16.6898H119.295V17.2729ZM109.796 17.5644C109.661 17.4586 109.487 17.3631 109.28 17.2746C109.7 17.2312 110.015 17.1254 110.228 16.9553C110.439 16.787 110.545 16.5718 110.545 16.3132C110.545 16.1084 110.475 15.9279 110.335 15.77C110.196 15.6121 110.011 15.501 109.778 15.4385C109.546 15.3761 109.174 15.3448 108.66 15.3448H106.621V18.7931L104.903 15.3448H103.983L102.31 18.7931H103.23L103.586 18.0122H105.304L105.677 18.7931H106.621H107.589V17.3562H107.785C108.008 17.3562 108.17 17.3683 108.274 17.3944C108.377 17.4204 108.473 17.4672 108.566 17.5367C108.656 17.6061 108.828 17.7744 109.076 18.0399L109.772 18.7931H110.931L110.345 18.1215C110.115 17.8542 109.932 17.6668 109.796 17.5627V17.5644ZM107.483 17.069H108.114C108.523 17.069 108.779 17.0536 108.881 17.0264C108.984 16.9991 109.064 16.9514 109.12 16.8833C109.179 16.8151 109.207 16.7299 109.207 16.6277C109.207 16.5153 109.17 16.4216 109.094 16.3517C109.017 16.2819 108.911 16.2376 108.773 16.2188C108.703 16.2103 108.495 16.2069 108.148 16.2069H107.483V17.069ZM104.462 16.2069L104.034 17.069H104.897L104.462 16.2069Z" fill="#D3262B"/>
<rect x="138.25" y="0.25" width="37.5" height="23.5" rx="2.75" fill="white" stroke="#E7E7E7" stroke-width="0.5"/>
<rect x="152.745" y="6.58447" width="6.48148" height="11.6481" fill="#FF5F00"/>
<path d="M153.156 12.4074C153.156 10.0453 154.263 7.94033 155.986 6.58436C154.726 5.59259 153.136 5 151.407 5C147.317 5 144 8.31687 144 12.4074C144 16.4979 147.317 19.8148 151.407 19.8148C153.136 19.8148 154.724 19.2222 155.986 18.2305C154.263 16.8745 153.156 14.7695 153.156 12.4074Z" fill="#EB001B"/>
<path d="M167.971 12.4074C167.971 16.4979 164.654 19.8148 160.564 19.8148C158.835 19.8148 157.247 19.2222 155.985 18.2305C157.708 16.8745 158.815 14.7695 158.815 12.4074C158.815 10.0453 157.708 7.94033 155.985 6.58436C157.245 5.59259 158.835 5 160.564 5C164.654 5 167.971 8.31687 167.971 12.4074Z" fill="#F79E1B"/>
<path fill-rule="evenodd" clip-rule="evenodd" d="M167.444 16.9459V18.0885H167.33V16.9459H167.115V16.7095H167.659V16.9459H167.444ZM168.5 16.7095V18.0885L168.504 18.0984H168.386V17.0542L168.207 17.9506H168.084L167.906 17.0542V18.0885H167.787V16.7095H167.952L168.143 17.6551L168.335 16.7095H168.5Z" fill="#F79E1B"/>
</svg>
