<svg width="268" height="24" viewBox="0 0 268 24" fill="none" xmlns="http://www.w3.org/2000/svg">
<rect x="0.25" y="0.25" width="37.5" height="23.5" rx="2.75" fill="white" stroke="#E7E7E7" stroke-width="0.5"/>
<rect x="6" y="6" width="25" height="12.5" stroke="#E7E7E7"/>
<path fill-rule="evenodd" clip-rule="evenodd" d="M15.6774 8.34375L12.3404 16.4083H10.1633L8.52124 9.97241C8.42155 9.576 8.33486 9.43078 8.03165 9.26377C7.53675 8.99175 6.71926 8.73666 6 8.57826L6.04885 8.34375H9.5534C10.0001 8.34375 10.4017 8.64496 10.5031 9.16601L11.3704 13.8326L13.5138 8.34375H15.6774ZM24.1559 13.7396C24.1614 12.5079 23.0877 11.9726 22.2286 11.5442C21.6519 11.2567 21.1719 11.0174 21.1803 10.648C21.1867 10.3681 21.4672 10.0705 22.0812 9.99455C22.3855 9.95671 23.224 9.92783 24.175 10.3436L24.548 8.68957C24.037 8.51334 23.3795 8.34375 22.5614 8.34375C20.4621 8.34375 18.9847 9.40397 18.9723 10.9221C18.9587 12.045 20.0268 12.6716 20.8314 13.0448C21.6592 13.4269 21.937 13.6724 21.9339 14.0142C21.928 14.5374 21.2736 14.7684 20.6621 14.7775C19.628 14.7926 19.0143 14.5209 18.5281 14.3056L18.4814 14.285L18.0964 15.9938C18.5927 16.2101 19.5086 16.3988 20.4583 16.4083C22.6895 16.4083 24.1491 15.3612 24.1559 13.7396ZM31.0002 16.4083H29.1288L29.129 16.4081L28.8847 15.2035H26.2887L25.8668 16.4081H23.7422L26.7784 8.93539C26.9235 8.57691 27.2511 8.34375 27.6395 8.34375H29.3667L31.0002 16.4083ZM26.9677 13.9889L27.9914 10.7631L28.5806 13.9889H26.9679H26.9677ZM17.0778 16.4083L18.903 8.34375H16.6965L14.8707 16.4083H17.0778Z" fill="#1434CB"/>
<rect x="92.25" y="0.25" width="37.5" height="23.5" rx="2.75" fill="white" stroke="#E7E7E7" stroke-width="0.5"/>
<rect x="98" y="4" width="25" height="16" stroke="#E7E7E7"/>
<path d="M120.91 18.2507L119.8 17.0133L118.648 18.2507H116.387H111.524V12.4907H109.263L112.078 6.048H114.809L115.79 8.26667V6.048H119.203L119.8 7.712L120.398 6.048H123V5.06667C123 4.46933 122.531 4 121.933 4H99.0666C98.4693 4 98 4.46933 98 5.06667V18.9333C98 19.5307 98.4693 20 99.0666 20H121.933C122.531 20 123 19.5307 123 18.9333V18.2507H120.91Z" fill="#0071CE"/>
<path d="M121.208 17.5679H123L120.654 15.0506L123 12.5759H121.251L119.758 14.1973L118.307 12.5759H116.516L118.905 15.0933L116.516 17.5679H118.265L119.758 15.9466L121.208 17.5679Z" fill="#0071CE"/>
<path d="M113.657 16.4159V15.6479H116.473V14.4959H113.657V13.7279H116.516V12.5759H112.292V17.5679H116.516V16.4159H113.657Z" fill="#0071CE"/>
<path d="M121.678 11.8506H122.958V6.81592L120.91 6.85858L119.801 9.97325L118.649 6.85858H116.516V11.8506H117.881V8.35192L119.161 11.8506H120.355L121.678 8.35192V11.8506Z" fill="#0071CE"/>
<path fill-rule="evenodd" clip-rule="evenodd" d="M112.591 6.85864H114.34L116.558 11.8506H115.022L114.596 10.8693H112.292L111.865 11.8506H110.372L112.591 6.85864ZM113.443 8.09595L112.761 9.71728H114.126L113.443 8.09595Z" fill="#0071CE"/>
<path d="M122 14.5L123 16V13L122 14.5Z" fill="#0071CE"/>
<rect x="184.25" y="0.25" width="37.5" height="23.5" rx="2.75" fill="white" stroke="#E7E7E7" stroke-width="0.5"/>
<g clip-path="url(#clip0_1_18883)">
<path d="M193.721 3.07568H212.296V21.0647H193.721V3.07568Z" fill="white"/>
<path d="M193.625 2.9375H212.374V21.155H193.625V2.9375Z" fill="#008061"/>
<path d="M205.185 19.9563V20.6856H200.688V19.955H197.285C196.953 19.955 196.682 19.6074 196.682 19.1789L195.258 4.77856C195.258 4.34972 195.59 4.00195 196.001 4.00195H209.751C210.159 4.00195 210.491 4.34972 210.491 4.77849L209.084 19.1789C209.084 19.6074 208.813 19.955 208.48 19.955L205.185 19.9563Z" fill="white"/>
<path d="M197.763 6.11035H206.968C206.062 6.45015 203.303 8.31833 202.614 9.57437H197.771L197.763 6.11035Z" fill="#F5821F"/>
<path d="M205.099 16.0361C204.968 17.2906 204.963 18.8182 204.963 20.4228H200.973C200.973 18.8182 201.04 17.2906 201.171 16.0361H205.099Z" fill="#ED1B2D"/>
<path d="M198.927 14.2234V14.7095H198.288V15.1959H198.927V15.7532H197.468V13.1599H198.927V13.7375H198.288V14.2234H198.927ZM202.319 14.2234V14.7095H201.683V15.1959H202.319V15.7532H200.863V13.1599H202.319V13.7375H201.683V14.2234H202.319ZM206.057 14.2234V14.7095H205.418V15.1959H206.057V15.7532H204.598V13.1599H206.057V13.7375H205.418V14.2234H206.057ZM200.021 13.1599V15.1959H200.659V15.7532H199.2V13.1599H200.021ZM203.496 14.9126L203.185 13.16H202.469L202.876 15.7532H203.93L204.424 13.1599H203.815L203.496 14.9126ZM206.402 13.1599H207.191V15.7529H206.402V13.1599Z" fill="#008061"/>
<path d="M207.19 13.9297C207.233 13.6457 207.636 13.7219 207.636 13.8841V15.7531H208.427V13.5552C208.427 13.0892 207.77 12.9017 207.196 13.312L207.19 13.9298V13.9297Z" fill="#008061"/>
<path d="M205.469 12.7951C205.55 11.8026 206.909 10.182 208.226 9.75644V5.92773C204.603 7.54846 202.249 9.99963 201.739 12.7854L205.469 12.7951Z" fill="#ED1B2D"/>
</g>
<rect x="230.25" y="0.25" width="37.5" height="23.5" rx="2.75" fill="white" stroke="#E7E7E7" stroke-width="0.5"/>
<g clip-path="url(#clip1_1_18883)">
<path d="M234.168 15.8994H263.832V6.15625H234.168V15.8994Z" fill="#E51A13"/>
<path d="M234.168 17.8515H263.832V16.3906H234.168V17.8515Z" fill="#E51A13"/>
<path d="M259.054 11.3282L260.341 9.58489H259.019L257.828 11.2546V9.58489H256.673V13.2112H257.828V11.5407L259.884 14.1939C259.379 14.5076 258.771 14.6859 258.112 14.6859C256.245 14.6859 254.824 13.2657 254.824 11.3965C254.824 9.52955 256.245 8.10938 258.112 8.10938C259.978 8.10938 261.4 9.52955 261.4 11.3965C261.4 12.1824 261.145 12.8829 260.723 13.4337L259.054 11.3282Z" fill="white"/>
<path d="M246.628 10.3733C246.046 10.3733 245.644 10.836 245.644 11.3923C245.644 11.9509 246.046 12.4121 246.628 12.4121C247.023 12.4121 247.322 12.1985 247.51 11.9061L248.231 12.3766C247.899 12.9197 247.318 13.2713 246.608 13.2713C245.511 13.2713 244.703 12.4511 244.703 11.3923C244.703 10.335 245.511 9.51562 246.608 9.51562C247.318 9.51562 247.908 9.8497 248.24 10.4041L247.502 10.8886C247.305 10.5756 247.023 10.3733 246.628 10.3733Z" fill="white"/>
<path d="M238.526 10.3733C237.945 10.3733 237.542 10.836 237.542 11.3923C237.542 11.9509 237.945 12.4121 238.526 12.4121C238.923 12.4121 239.222 12.1985 239.409 11.9061L240.13 12.3766C239.797 12.9197 239.215 13.2713 238.507 13.2713C237.41 13.2713 236.602 12.4511 236.602 11.3923C236.602 10.335 237.41 9.51562 238.507 9.51562C239.215 9.51562 239.807 9.8497 240.139 10.4041L239.401 10.8886C239.204 10.5756 238.923 10.3733 238.526 10.3733Z" fill="white"/>
<path d="M241.766 9.57812V13.2043H242.698V11.684L243.669 13.2043H244.769L243.846 11.8217C244.215 11.6669 244.517 11.3081 244.517 10.7767C244.517 9.97953 243.949 9.57812 242.93 9.57812H241.766ZM242.698 10.3469H242.965C243.344 10.3469 243.592 10.5126 243.592 10.8822C243.592 11.2595 243.329 11.4404 242.959 11.4404H242.698L242.698 10.3469Z" fill="white"/>
<path d="M250.98 9.57812H253.364V10.4015H251.914V11.003H253.299V11.7651H251.914V12.3783H253.368V13.2044H250.98V9.57812Z" fill="white"/>
<path d="M249.419 12.3783H250.675V13.2044H248.473V9.57812H249.419V12.3783Z" fill="white"/>
<path d="M240.402 9.57812H241.336V13.2044H240.402V9.57812Z" fill="white"/>
<path d="M234.168 16.3935H263.832V15.9062H234.168V16.3935Z" fill="white"/>
<path d="M263.831 6.15919H234.167V17.8492H263.831V6.15919ZM234 6L263.998 6V18.0142H234V6Z" fill="white"/>
</g>
<rect x="46.25" y="0.25" width="37.5" height="23.5" rx="2.75" fill="white" stroke="#E7E7E7" stroke-width="0.5"/>
<rect x="60.7451" y="6.58447" width="6.48148" height="11.6481" fill="#FF5F00"/>
<path d="M61.1564 12.4074C61.1564 10.0453 62.2634 7.94033 63.9856 6.58436C62.7263 5.59259 61.1358 5 59.4074 5C55.3169 5 52 8.31687 52 12.4074C52 16.4979 55.3169 19.8148 59.4074 19.8148C61.1358 19.8148 62.7243 19.2222 63.9856 18.2305C62.2634 16.8745 61.1564 14.7695 61.1564 12.4074Z" fill="#EB001B"/>
<path d="M75.9709 12.4074C75.9709 16.4979 72.6541 19.8148 68.5635 19.8148C66.8351 19.8148 65.2467 19.2222 63.9854 18.2305C65.7076 16.8745 66.8146 14.7695 66.8146 12.4074C66.8146 10.0453 65.7076 7.94033 63.9854 6.58436C65.2446 5.59259 66.8351 5 68.5635 5C72.6541 5 75.9709 8.31687 75.9709 12.4074Z" fill="#F79E1B"/>
<path fill-rule="evenodd" clip-rule="evenodd" d="M75.4442 16.9461V18.0888H75.33V16.9461H75.1152V16.7097H75.6589V16.9461H75.4442ZM76.4998 16.7097V18.0888L76.5044 18.0986H76.3856V17.0545L76.2074 17.9509H76.084L75.9059 17.0545V18.0888H75.7871V16.7097H75.9515L76.1434 17.6553L76.3353 16.7097H76.4998Z" fill="#F79E1B"/>
<rect x="138.25" y="0.25" width="37.5" height="23.5" rx="2.75" fill="white" stroke="#E7E7E7" stroke-width="0.5"/>
<path fill-rule="evenodd" clip-rule="evenodd" d="M147.763 10.0247C148.664 9.97877 149.521 9.90989 150.409 9.87037C150.154 7.99419 149.248 7 146.508 7C143.817 7 142.649 8.38313 142.494 9.65391C142.321 11.084 143.397 12 145.118 12.5004C146.605 12.936 147.851 13.2386 147.889 13.9687C147.931 14.7538 147.034 15.195 146.59 15.195C145.796 15.195 144.932 14.3154 144.829 13.5093C143.964 13.5778 143.067 13.5815 142.203 13.6501C142.203 15.8401 143.983 17 146.343 17C148.544 17 150.705 16.0745 150.705 13.7078C150.705 10.8344 147.596 10.8352 145.561 10.1276C144.849 9.73471 145.221 8.87517 145.89 8.79967C147.242 8.63554 147.475 9.40477 147.763 10.0247H147.763ZM156.235 7.23271C157.998 7.23271 159.247 8.20441 159.247 10.1742C159.247 11.9795 158.004 13.1319 156.201 13.1319H153.949V16.5888C153.949 16.8263 153.949 16.8263 153.739 16.8263H151.389C151.095 16.8263 151.095 16.8263 151.095 16.6053V7.64312C151.095 7.23271 151.095 7.23271 151.508 7.23271H156.235ZM154.175 11.3052C154.008 11.3052 153.949 11.2368 153.949 11.1334V9.27636C153.949 9.14017 154.06 9.06366 154.161 9.06366H155.149C155.998 9.18905 156.309 9.64951 156.309 10.2499C156.309 11.1089 155.544 11.3052 154.879 11.3052H154.175H154.175Z" fill="#343084"/>
<path fill-rule="evenodd" clip-rule="evenodd" d="M159.887 7.49422C159.887 7.3739 159.973 7.28182 160.068 7.28182H167.559C167.724 7.27433 167.742 7.34232 167.742 7.40665V9.11844C167.75 9.19789 167.685 9.23421 167.627 9.23421H162.883C162.784 9.23421 162.751 9.33581 162.751 9.44681V10.6026C162.751 10.7272 162.84 10.8412 162.99 10.8412H167.187L167.283 10.937V12.542C167.235 12.6109 167.187 12.6797 167.139 12.7486H162.91C162.812 12.7486 162.751 12.809 162.751 12.9068V14.4464C162.751 14.5314 162.853 14.6259 162.971 14.6259H167.647C167.708 14.6259 167.742 14.6847 167.742 14.7216V16.5916C167.742 16.6356 167.693 16.6837 167.65 16.6837H159.963C159.922 16.6837 159.887 16.6434 159.887 16.6072V7.49426V7.49422Z" fill="#FF9400"/>
<path fill-rule="evenodd" clip-rule="evenodd" d="M171.81 12.5938V16.6923H169.143C169.102 16.6923 169.066 16.6521 169.066 16.6159V12.9543C169.066 12.8563 169.134 12.7998 169.185 12.7998H169.951C170.027 12.7998 170.047 12.8655 170.047 12.9234V14.6345C170.047 14.8507 170.228 14.7576 170.325 14.6345C170.82 13.9543 171.315 13.274 171.81 12.5938H171.81Z" fill="#343084"/>
<path fill-rule="evenodd" clip-rule="evenodd" d="M168.949 7.49365C168.949 7.37333 169.036 7.28125 169.131 7.28125H171.579C171.749 7.28125 171.81 7.3851 171.81 7.46707V10.9668L170.311 8.86896C170.278 8.82358 170.204 8.82651 170.204 8.92047V10.4314C170.204 10.5156 170.163 10.6752 170.043 10.6752H169.066C169.013 10.6752 168.949 10.5551 168.949 10.4864V7.49365H168.949Z" fill="#FF9400"/>
<defs>
<clipPath id="clip0_1_18883">
<rect width="20" height="20" fill="white" transform="translate(193 2)"/>
</clipPath>
<clipPath id="clip1_1_18883">
<rect width="30" height="12.0158" fill="white" transform="translate(234 6)"/>
</clipPath>
</defs>
</svg>
