<svg width="18" height="17" viewBox="0 0 18 17" fill="none" xmlns="http://www.w3.org/2000/svg">
<g id="Symbols">
<g id="menu">
<g id="Menu/canalesventa">
<g id="canal">
<g id="Group">
<path id="Shape" d="M8.54347 0.024765C7.58041 0.200182 6.79621 0.781464 6.36971 1.63791C6.2115 1.95435 6.07736 2.47372 6.07736 2.76264V2.98277L5.77812 3.13411C3.91048 4.07311 2.52781 5.88918 2.10475 7.96323C2.01188 8.41037 1.93965 9.1086 1.95341 9.42159L1.96373 9.62797L1.75392 9.73803C0.625771 10.34 0.0135424 11.6091 0.250867 12.8577C0.460676 13.9721 1.29303 14.8595 2.4143 15.1622C2.62755 15.2207 2.78577 15.2379 3.1194 15.2379C3.60437 15.2379 3.9208 15.1691 4.33354 14.9799C4.49175 14.9077 4.58462 14.8801 4.61557 14.9042C5.04207 15.2138 5.59583 15.5543 5.9329 15.716C7.9278 16.6756 10.191 16.6584 12.1687 15.6712C12.4301 15.5405 13.0217 15.1691 13.3863 14.9042C13.4172 14.8801 13.5066 14.9042 13.6683 14.9799C14.0982 15.1759 14.4009 15.2413 14.8824 15.2379C15.2092 15.2379 15.3777 15.2207 15.5875 15.1622C16.3236 14.9661 16.9324 14.5224 17.3382 13.893C18.26 12.469 17.7544 10.5429 16.2479 9.73803L16.0381 9.62797L16.0484 9.42159C16.0519 9.31153 16.0381 9.02605 16.0175 8.79216C15.8008 6.37072 14.4284 4.30356 12.2891 3.16851L11.9348 2.98277L11.9142 2.68009C11.8316 1.49001 10.9855 0.454708 9.8092 0.110754C9.46869 0.0110073 8.84958 -0.0302677 8.54347 0.024765ZM9.35175 1.20797C9.6785 1.2802 9.9399 1.41434 10.1807 1.64135C10.7654 2.18824 10.9167 2.97589 10.5796 3.69132C10.1635 4.57872 9.06627 4.92955 8.15824 4.47209C7.7627 4.26916 7.38092 3.75667 7.28462 3.29921C7.08856 2.35333 7.69391 1.41778 8.63977 1.21141C8.91149 1.1495 9.07315 1.1495 9.35175 1.20797ZM6.67927 4.70254C7.08169 5.22535 7.64232 5.59682 8.29582 5.77224C8.50907 5.83071 8.67073 5.84791 9.00092 5.84791C9.33111 5.84791 9.49276 5.83071 9.70601 5.77224C10.5005 5.55899 11.1609 5.04994 11.5702 4.33451L11.67 4.15566L11.9348 4.30356C13.1111 4.97427 14.0638 6.11275 14.5213 7.38539C14.707 7.91164 14.8033 8.39661 14.8652 9.12579L14.8859 9.37344L14.6176 9.39752C13.5995 9.49039 12.7052 10.1026 12.2512 11.0141C12.0242 11.4681 11.952 11.7811 11.952 12.3039C11.9486 12.9093 12.0896 13.3908 12.4129 13.8964C12.5401 14.0959 12.5401 14.0959 12.1171 14.3573C10.1979 15.5474 7.80398 15.5474 5.88474 14.3573C5.46169 14.0959 5.46169 14.0959 5.58895 13.8964C5.91226 13.3908 6.05328 12.9093 6.04984 12.3039C6.04984 11.7811 5.97761 11.4681 5.7506 11.0141C5.29659 10.1026 4.40233 9.49039 3.38424 9.39752L3.1194 9.37344L3.14003 9.0914C3.23634 7.70182 3.67659 6.60461 4.54334 5.56931C4.95608 5.08089 5.49264 4.63375 6.06016 4.31043L6.33188 4.15566L6.43162 4.33451C6.49009 4.43426 6.60016 4.59936 6.67927 4.70254ZM3.48054 10.6014C4.22003 10.7596 4.79787 11.3787 4.8701 12.0941C4.93889 12.782 4.66029 13.3977 4.12373 13.7623C3.80042 13.979 3.52182 14.065 3.1366 14.065C2.43494 14.065 1.86055 13.7073 1.55443 13.0813C0.993796 11.9359 1.82615 10.591 3.1194 10.5532C3.18475 10.5532 3.3464 10.5738 3.48054 10.6014ZM15.1576 10.5876C15.6942 10.6736 16.1998 11.0519 16.4405 11.5472C16.6882 12.0528 16.6916 12.5894 16.4474 13.0778C16.2995 13.3805 16.1619 13.5456 15.9074 13.7348C14.9168 14.464 13.486 13.9515 13.1627 12.7545C13.0561 12.3624 13.1421 11.788 13.3622 11.4131C13.5858 11.0313 14.0501 10.7011 14.5041 10.6048C14.7827 10.5429 14.8756 10.5394 15.1576 10.5876Z" fill="#4C4C4C"/>
</g>
</g>
</g>
</g>
</g>
</svg>
