<svg width="13" height="15" viewBox="0 0 13 15" fill="none" xmlns="http://www.w3.org/2000/svg">
<g id="Symbols">
<g id="UI2/Men&#195;&#186;/Open">
<g id="Group-4">
<g id="Icon/Men&#195;&#186;/Dashboard-">
<path id="Ellipse 30" d="M9.5665 4.0835C9.5665 5.82319 8.1562 7.2335 6.4165 7.2335C4.67681 7.2335 3.2665 5.82319 3.2665 4.0835C3.2665 2.3438 4.67681 0.933496 6.4165 0.933496C8.1562 0.933496 9.5665 2.3438 9.5665 4.0835Z" stroke="#4C4C4C" stroke-width="1.2"/>
<path id="Shape" d="M4.29671 7.27096L2.6978 8.3369C2.1268 8.71757 1.67319 9.24984 1.38787 9.87397L1.0002 10.722C1.0002 10.722 2.64846 13.6064 6.35703 13.6064C10.0656 13.6064 11.7139 11.1341 11.7139 11.1341L11.6147 10.601C11.4162 9.53426 10.7586 8.60883 9.81657 8.07051L8.41735 7.27096" stroke="#4C4C4C" stroke-width="1.2" stroke-linecap="round"/>
</g>
</g>
</g>
</g>
</svg>
