<svg width="24" height="25" viewBox="0 0 24 25" fill="none" xmlns="http://www.w3.org/2000/svg">
<path fill-rule="evenodd" clip-rule="evenodd" d="M1.5 12.5859C1.5 18.3785 6.20839 23.0859 12 23.0859C17.7925 23.0859 22.5 18.3775 22.5 12.5859C22.5 6.79339 17.7916 2.08594 12 2.08594C6.20839 2.08594 1.5 6.79433 1.5 12.5859ZM2.96507 12.5859C2.96507 7.60469 7.01875 3.55101 12 3.55101C16.9812 3.55101 21.0349 7.60469 21.0349 12.5859C21.0349 17.5672 16.9812 21.6209 12 21.6209C7.01875 21.6209 2.96507 17.5672 2.96507 12.5859ZM15.4678 16.1022C15.6042 16.2002 15.7507 16.2487 15.9073 16.2487V16.2396C16.1316 16.2396 16.3468 16.1416 16.4933 15.9466C16.7378 15.6243 16.6691 15.1655 16.3468 14.921L12.7327 12.2152V6.72576C12.7327 6.32562 12.4003 5.99323 12.0001 5.99323C11.6 5.99323 11.2676 6.32562 11.2676 6.72576V12.5861C11.2676 12.8205 11.3747 13.0356 11.5606 13.1721L15.4678 16.1022Z" fill="#4C4C4C"/>
</svg>
