<svg width="15" height="16" viewBox="0 0 15 16" fill="none" xmlns="http://www.w3.org/2000/svg">
<path fill-rule="evenodd" clip-rule="evenodd" d="M0.9375 8.39844C0.9375 12.0188 3.88024 14.9609 7.5 14.9609C11.1203 14.9609 14.0625 12.0182 14.0625 8.39844C14.0625 4.7781 11.1198 1.83594 7.5 1.83594C3.88024 1.83594 0.9375 4.77868 0.9375 8.39844ZM1.85317 8.39844C1.85317 5.28516 4.38672 2.75161 7.5 2.75161C10.6133 2.75161 13.1468 5.28516 13.1468 8.39844C13.1468 11.5117 10.6133 14.0453 7.5 14.0453C4.38672 14.0453 1.85317 11.5117 1.85317 8.39844ZM9.66735 10.5961C9.75262 10.6574 9.84419 10.6877 9.94205 10.6877V10.682C10.0823 10.682 10.2168 10.6207 10.3083 10.4988C10.4611 10.2974 10.4182 10.0107 10.2168 9.85787L7.95791 8.16673V4.73583C7.95791 4.48574 7.75016 4.27799 7.50007 4.27799C7.24998 4.27799 7.04224 4.48574 7.04224 4.73583V8.39851C7.04224 8.54502 7.10919 8.67951 7.22537 8.76478L9.66735 10.5961Z" fill="#979797"/>
</svg>
