<svg xmlns="http://www.w3.org/2000/svg" width="14" height="14" viewBox="0 0 14 14" fill="none">
<path fill-rule="evenodd" clip-rule="evenodd" d="M0.682404 0.182404C0.837067 0.0277405 1.08783 0.0277405 1.24249 0.182404L13.7837 12.7237C13.9384 12.8783 13.9384 13.1291 13.7837 13.2837C13.6291 13.4384 13.3783 13.4384 13.2237 13.2837L0.682404 0.742488C0.52774 0.587825 0.52774 0.337067 0.682404 0.182404Z" fill="white"/>
<path fill-rule="evenodd" clip-rule="evenodd" d="M13.2838 0.117157C13.44 -0.0390524 13.6933 -0.0390524 13.8495 0.117157C14.0057 0.273367 14.0057 0.526633 13.8495 0.682843L1.18284 13.3495C1.02663 13.5057 0.773367 13.5057 0.617157 13.3495C0.460948 13.1933 0.460948 12.94 0.617157 12.7838L13.2838 0.117157Z" fill="white"/>
</svg>