<svg width="23" height="23" viewBox="0 0 23 23" fill="none" xmlns="http://www.w3.org/2000/svg">
<g id="Symbols">
<g id="UI2/Men&#195;&#186;/Open">
<g id="Group-11">
<g id="Icon/Men&#195;&#186;/Dashboard-">
<path id="Shape" fill-rule="evenodd" clip-rule="evenodd" d="M19.6957 15.7766L19.7029 15.8781L19.7222 16.3655C19.7662 17.8127 19.6377 18.3776 19.006 18.9913C18.2376 19.7379 17.7177 19.7992 15.951 19.6819C15.7198 19.6509 15.4861 19.6465 15.2545 19.6685L15.1948 19.676L15.0678 19.7447C14.656 19.969 14.4821 20.1062 14.3151 20.3059L14.2594 20.375L13.7567 20.9546C13.4518 21.2951 13.2778 21.4539 13.0218 21.6379C12.5713 21.9618 12.0806 22.125 11.5216 22.125C10.9053 22.125 10.378 21.9282 9.89652 21.5486L9.7152 21.3985C9.50498 21.2132 9.30775 20.9925 8.80645 20.4134C8.67431 20.2389 8.52308 20.0801 8.35577 19.9398L8.31042 19.9052C7.76517 19.7236 7.50893 19.68 7.20957 19.6957L7.10774 19.703L6.62024 19.7222C5.17282 19.7662 4.60793 19.6377 3.99422 19.006C3.24762 18.2376 3.18631 17.7176 3.30381 15.9501C3.33441 15.723 3.33923 15.4935 3.31839 15.2659L3.30729 15.1875C3.06883 14.6884 2.93356 14.4997 2.71228 14.3075L2.32355 13.9743C1.76665 13.4907 1.58337 13.3041 1.3545 12.9825C1.03556 12.5345 0.875 12.047 0.875 11.4928C0.875 10.8365 1.10054 10.283 1.5259 9.77954L1.65211 9.63603C1.84338 9.42819 2.0626 9.23542 2.56785 8.80975C2.74416 8.67675 2.90453 8.52429 3.04601 8.35546L3.07917 8.31146L3.18156 7.98769C3.27888 7.65117 3.30238 7.444 3.29001 7.20991L3.28262 7.10749L3.26337 6.62007C3.21937 5.17289 3.34791 4.60793 3.97956 3.99422C4.74798 3.24763 5.26795 3.18632 7.03519 3.30377C7.26604 3.33484 7.49939 3.33931 7.73067 3.3173L7.80104 3.30729L7.93495 3.23893C8.29447 3.0507 8.476 2.92356 8.62575 2.76838L8.7429 2.63488L9.01137 2.32345C9.49482 1.76671 9.68139 1.58347 10.0028 1.35463C10.451 1.03561 10.9385 0.875 11.4928 0.875C12.1491 0.875 12.7026 1.10055 13.206 1.52591L13.3496 1.65212C13.5343 1.82214 13.7071 2.01423 14.0422 2.40967L14.1758 2.56784C14.3085 2.7437 14.4605 2.9037 14.6288 3.04492L14.6719 3.07812L14.9978 3.18083C15.3362 3.27846 15.543 3.3021 15.7759 3.2899L15.8778 3.28259L16.3653 3.26335C17.8127 3.21938 18.3776 3.34791 18.9913 3.97956C19.738 4.74799 19.7993 5.26796 19.6818 7.03546C19.6507 7.26607 19.6462 7.49918 19.6682 7.73022L19.6771 7.79792L19.7466 7.93325C19.963 8.34561 20.0967 8.52387 20.2717 8.67744L20.3318 8.728L20.7302 9.07626C21.8332 10.0582 22.125 10.5122 22.125 11.4639C22.125 12.0802 21.9282 12.6075 21.5487 13.089L21.3985 13.2703C21.2132 13.4806 20.9925 13.6778 20.4135 14.179C20.2394 14.3108 20.0809 14.4617 19.9409 14.6285L19.9083 14.6698C19.7237 15.2224 19.68 15.4784 19.6957 15.7766ZM11.4928 2.125C10.8146 2.125 10.4631 2.5495 9.69162 3.44878L9.57448 3.58674C9.32955 3.85853 8.99811 4.11455 8.17403 4.51819C7.74313 4.59268 7.30285 4.60107 6.86842 4.54259L6.28063 4.50785C5.63244 4.48023 5.22334 4.52861 4.85061 4.89075C4.50188 5.22957 4.4678 5.68903 4.53126 7.04923L4.54399 7.23644C4.55873 7.61535 4.49964 8.04291 4.19718 8.90933C3.95238 9.25097 3.65693 9.55397 3.32062 9.80766L2.99499 10.0856C2.44059 10.5677 2.125 10.9203 2.125 11.4928C2.125 12.074 2.43688 12.4154 3.09241 12.9869L3.58979 13.4128C3.86789 13.6599 4.13239 13.9891 4.52173 14.8321C4.59301 15.2564 4.60021 15.6895 4.54261 16.117L4.50786 16.7049C4.48023 17.3531 4.52861 17.7622 4.89075 18.135C5.22957 18.4837 5.68903 18.5178 7.04952 18.4543C7.48276 18.4143 7.89405 18.4354 8.91207 18.7904C9.25048 19.0333 9.5509 19.3259 9.80295 19.6587L10.0982 19.9964C10.6049 20.568 10.9458 20.875 11.5216 20.875C12.1975 20.875 12.549 20.4533 13.3087 19.5634L13.4217 19.4247C13.658 19.1515 13.9804 18.8923 14.811 18.4676C15.2421 18.3932 15.6825 18.3847 16.1172 18.443L16.7049 18.4777C17.3531 18.5054 17.7622 18.457 18.135 18.0948C18.4837 17.756 18.5178 17.2965 18.4543 15.9363C18.4143 15.5048 18.4351 15.0952 18.7922 14.0709C19.0348 13.7335 19.3268 13.4339 19.6589 13.1825L19.9965 12.8873C20.568 12.3806 20.875 12.0397 20.875 11.4639C20.875 10.871 20.4903 10.515 19.5156 9.67474C19.2119 9.42949 18.9442 9.14272 18.4672 8.17324C18.3928 7.74263 18.3845 7.30266 18.443 6.86854L18.4777 6.28069C18.5053 5.63245 18.457 5.22334 18.0948 4.85061C17.756 4.50188 17.2965 4.4678 15.936 4.53123C15.5026 4.57129 15.0911 4.5501 14.0736 4.19529C13.733 3.95086 13.4309 3.65606 13.1779 3.32061L12.9 2.99498C12.4178 2.44059 12.0652 2.125 11.4928 2.125ZM11.5 8.24479C13.2978 8.24479 14.7552 9.7022 14.7552 11.5C14.7552 13.2978 13.2978 14.7552 11.5 14.7552C9.7022 14.7552 8.24479 13.2978 8.24479 11.5C8.24479 9.7022 9.7022 8.24479 11.5 8.24479ZM11.5 9.49479C10.3926 9.49479 9.49479 10.3926 9.49479 11.5C9.49479 12.6074 10.3926 13.5052 11.5 13.5052C12.6074 13.5052 13.5052 12.6074 13.5052 11.5C13.5052 10.3926 12.6074 9.49479 11.5 9.49479Z" fill="#4C4C4C"/>
</g>
</g>
</g>
</g>
</svg>
