<svg width="97" height="51" viewBox="0 0 97 51" fill="none" xmlns="http://www.w3.org/2000/svg">
<g filter="url(#filter0_d_612_75646)">
<path d="M5.17188 11.5049C5.17188 8.19117 7.85817 5.50488 11.1719 5.50488H79.6958C83.0095 5.50488 85.6958 8.19117 85.6958 11.5049V39.5049C85.6958 42.8186 83.0095 45.5049 79.6958 45.5049H11.1719C7.85817 45.5049 5.17188 42.8186 5.17188 39.5049V11.5049Z" fill="#51AF70"/>
</g>
<path d="M94.8645 26.9716C95.5308 26.5866 95.5308 25.6248 94.8645 25.2398L83.4724 18.6583C82.8057 18.2732 81.9722 18.7543 81.9722 19.5242L81.9722 32.6872C81.9722 33.4572 82.8057 33.9383 83.4724 33.5531L94.8645 26.9716Z" fill="#51AF70"/>
<path d="M16.7173 24.0249H17.9713V25.2429H16.7173V24.0249ZM16.7173 26.1849H17.9713V32.6649H16.7173V26.1849ZM23.8601 30.6849C22.9961 30.6849 22.2601 30.4969 21.6521 30.1209C21.0441 29.7409 20.5781 29.2129 20.2541 28.5369C19.9341 27.8609 19.7741 27.0769 19.7741 26.1849C19.7741 25.2929 19.9341 24.5089 20.2541 23.8329C20.5781 23.1569 21.0441 22.6309 21.6521 22.2549C22.2601 21.8749 22.9961 21.6849 23.8601 21.6849C24.8561 21.6849 25.6801 21.9369 26.3321 22.4409C26.9881 22.9449 27.4441 23.6229 27.7001 24.4749L26.4281 24.8169C26.2601 24.2129 25.9601 23.7389 25.5281 23.3949C25.1001 23.0509 24.5441 22.8789 23.8601 22.8789C23.2481 22.8789 22.7381 23.0169 22.3301 23.2929C21.9221 23.5689 21.6141 23.9549 21.4061 24.4509C21.2021 24.9469 21.1001 25.5249 21.1001 26.1849C21.0961 26.8449 21.1961 27.4229 21.4001 27.9189C21.6081 28.4149 21.9161 28.8009 22.3241 29.0769C22.7361 29.3529 23.2481 29.4909 23.8601 29.4909C24.5441 29.4909 25.1001 29.3189 25.5281 28.9749C25.9601 28.6269 26.2601 28.1529 26.4281 27.5529L27.7001 27.8949C27.4441 28.7469 26.9881 29.4249 26.3321 29.9289C25.6801 30.4329 24.8561 30.6849 23.8601 30.6849ZM31.8337 30.6849C31.1857 30.6849 30.6237 30.5389 30.1477 30.2469C29.6717 29.9549 29.3037 29.5529 29.0437 29.0409C28.7877 28.5249 28.6597 27.9309 28.6597 27.2589C28.6597 26.5829 28.7917 25.9889 29.0557 25.4769C29.3197 24.9609 29.6897 24.5609 30.1657 24.2769C30.6417 23.9889 31.1977 23.8449 31.8337 23.8449C32.4817 23.8449 33.0437 23.9909 33.5197 24.2829C33.9957 24.5749 34.3637 24.9769 34.6237 25.4889C34.8837 26.0009 35.0137 26.5909 35.0137 27.2589C35.0137 27.9349 34.8817 28.5309 34.6177 29.0469C34.3577 29.5589 33.9897 29.9609 33.5137 30.2529C33.0377 30.5409 32.4777 30.6849 31.8337 30.6849ZM31.8337 29.5029C32.4537 29.5029 32.9157 29.2949 33.2197 28.8789C33.5277 28.4589 33.6817 27.9189 33.6817 27.2589C33.6817 26.5829 33.5257 26.0429 33.2137 25.6389C32.9057 25.2309 32.4457 25.0269 31.8337 25.0269C31.4137 25.0269 31.0677 25.1229 30.7957 25.3149C30.5237 25.5029 30.3217 25.7649 30.1897 26.1009C30.0577 26.4329 29.9917 26.8189 29.9917 27.2589C29.9917 27.9389 30.1477 28.4829 30.4597 28.8909C30.7717 29.2989 31.2297 29.5029 31.8337 29.5029ZM39.3742 30.6849C38.7542 30.6849 38.2342 30.5349 37.8142 30.2349C37.3942 29.9309 37.0762 29.5209 36.8602 29.0049C36.6442 28.4889 36.5362 27.9069 36.5362 27.2589C36.5362 26.6109 36.6422 26.0289 36.8542 25.5129C37.0702 24.9969 37.3862 24.5909 37.8022 24.2949C38.2222 23.9949 38.7382 23.8449 39.3502 23.8449C39.9582 23.8449 40.4822 23.9949 40.9222 24.2949C41.3662 24.5909 41.7082 24.9969 41.9482 25.5129C42.1882 26.0249 42.3082 26.6069 42.3082 27.2589C42.3082 27.9069 42.1882 28.4909 41.9482 29.0109C41.7122 29.5269 41.3742 29.9349 40.9342 30.2349C40.4982 30.5349 39.9782 30.6849 39.3742 30.6849ZM36.3262 33.3849V24.0249H37.4422V28.6869H37.5862V33.3849H36.3262ZM39.2002 29.5509C39.6002 29.5509 39.9302 29.4489 40.1902 29.2449C40.4542 29.0409 40.6502 28.7669 40.7782 28.4229C40.9102 28.0749 40.9762 27.6869 40.9762 27.2589C40.9762 26.8349 40.9102 26.4509 40.7782 26.1069C40.6502 25.7629 40.4522 25.4889 40.1842 25.2849C39.9162 25.0809 39.5742 24.9789 39.1582 24.9789C38.7662 24.9789 38.4422 25.0749 38.1862 25.2669C37.9342 25.4589 37.7462 25.7269 37.6222 26.0709C37.5022 26.4149 37.4422 26.8109 37.4422 27.2589C37.4422 27.7069 37.5022 28.1029 37.6222 28.4469C37.7422 28.7909 37.9322 29.0609 38.1922 29.2569C38.4522 29.4529 38.7882 29.5509 39.2002 29.5509ZM43.753 22.9629V21.7449H45.007V22.9629H43.753ZM43.753 30.5049V24.0249H45.007V30.5049H43.753ZM48.6388 30.6849C48.1588 30.6849 47.7568 30.5969 47.4328 30.4209C47.1088 30.2409 46.8628 30.0049 46.6948 29.7129C46.5308 29.4169 46.4488 29.0929 46.4488 28.7409C46.4488 28.4129 46.5068 28.1249 46.6228 27.8769C46.7388 27.6289 46.9108 27.4189 47.1388 27.2469C47.3668 27.0709 47.6468 26.9289 47.9788 26.8209C48.2668 26.7369 48.5928 26.6629 48.9568 26.5989C49.3208 26.5349 49.7028 26.4749 50.1028 26.4189C50.5068 26.3629 50.9068 26.3069 51.3028 26.2509L50.8468 26.5029C50.8548 25.9949 50.7468 25.6189 50.5228 25.3749C50.3028 25.1269 49.9228 25.0029 49.3828 25.0029C49.0428 25.0029 48.7308 25.0829 48.4468 25.2429C48.1628 25.3989 47.9648 25.6589 47.8528 26.0229L46.6828 25.6629C46.8428 25.1069 47.1468 24.6649 47.5948 24.3369C48.0468 24.0089 48.6468 23.8449 49.3948 23.8449C49.9748 23.8449 50.4788 23.9449 50.9068 24.1449C51.3388 24.3409 51.6548 24.6529 51.8548 25.0809C51.9588 25.2929 52.0228 25.5169 52.0468 25.7529C52.0708 25.9889 52.0828 26.2429 52.0828 26.5149V30.5049H50.9728V29.0229L51.1888 29.2149C50.9208 29.7109 50.5788 30.0809 50.1628 30.3249C49.7508 30.5649 49.2428 30.6849 48.6388 30.6849ZM48.8608 29.6589C49.2168 29.6589 49.5228 29.5969 49.7788 29.4729C50.0348 29.3449 50.2408 29.1829 50.3968 28.9869C50.5528 28.7909 50.6548 28.5869 50.7028 28.3749C50.7708 28.1829 50.8088 27.9669 50.8168 27.7269C50.8288 27.4869 50.8348 27.2949 50.8348 27.1509L51.2428 27.3009C50.8468 27.3609 50.4868 27.4149 50.1628 27.4629C49.8388 27.5109 49.5448 27.5589 49.2808 27.6069C49.0208 27.6509 48.7888 27.7049 48.5848 27.7689C48.4128 27.8289 48.2588 27.9009 48.1228 27.9849C47.9908 28.0689 47.8848 28.1709 47.8048 28.2909C47.7288 28.4109 47.6908 28.5569 47.6908 28.7289C47.6908 28.8969 47.7328 29.0529 47.8168 29.1969C47.9008 29.3369 48.0288 29.4489 48.2008 29.5329C48.3728 29.6169 48.5928 29.6589 48.8608 29.6589ZM56.2148 30.6849C55.6108 30.6849 55.0888 30.5349 54.6488 30.2349C54.2128 29.9349 53.8748 29.5269 53.6348 29.0109C53.3988 28.4909 53.2808 27.9069 53.2808 27.2589C53.2808 26.6069 53.4008 26.0249 53.6408 25.5129C53.8808 24.9969 54.2208 24.5909 54.6608 24.2949C55.1048 23.9949 55.6308 23.8449 56.2388 23.8449C56.8508 23.8449 57.3648 23.9949 57.7808 24.2949C58.2008 24.5909 58.5168 24.9969 58.7288 25.5129C58.9448 26.0289 59.0528 26.6109 59.0528 27.2589C59.0528 27.9069 58.9448 28.4889 58.7288 29.0049C58.5128 29.5209 58.1948 29.9309 57.7748 30.2349C57.3548 30.5349 56.8348 30.6849 56.2148 30.6849ZM56.3888 29.5509C56.8008 29.5509 57.1368 29.4529 57.3968 29.2569C57.6568 29.0609 57.8468 28.7909 57.9668 28.4469C58.0868 28.1029 58.1468 27.7069 58.1468 27.2589C58.1468 26.8109 58.0848 26.4149 57.9608 26.0709C57.8408 25.7269 57.6528 25.4589 57.3968 25.2669C57.1448 25.0749 56.8228 24.9789 56.4308 24.9789C56.0148 24.9789 55.6728 25.0809 55.4048 25.2849C55.1368 25.4889 54.9368 25.7629 54.8048 26.1069C54.6768 26.4509 54.6128 26.8349 54.6128 27.2589C54.6128 27.6869 54.6768 28.0749 54.8048 28.4229C54.9368 28.7669 55.1328 29.0409 55.3928 29.2449C55.6568 29.4489 55.9888 29.5509 56.3888 29.5509ZM58.1468 30.5049V25.8429H58.0028V21.8649H59.2628V30.5049H58.1468ZM63.7556 30.6849C63.1076 30.6849 62.5456 30.5389 62.0696 30.2469C61.5936 29.9549 61.2256 29.5529 60.9656 29.0409C60.7096 28.5249 60.5816 27.9309 60.5816 27.2589C60.5816 26.5829 60.7136 25.9889 60.9776 25.4769C61.2416 24.9609 61.6116 24.5609 62.0876 24.2769C62.5636 23.9889 63.1196 23.8449 63.7556 23.8449C64.4036 23.8449 64.9656 23.9909 65.4416 24.2829C65.9176 24.5749 66.2856 24.9769 66.5456 25.4889C66.8056 26.0009 66.9356 26.5909 66.9356 27.2589C66.9356 27.9349 66.8036 28.5309 66.5396 29.0469C66.2796 29.5589 65.9116 29.9609 65.4356 30.2529C64.9596 30.5409 64.3996 30.6849 63.7556 30.6849ZM63.7556 29.5029C64.3756 29.5029 64.8376 29.2949 65.1416 28.8789C65.4496 28.4589 65.6036 27.9189 65.6036 27.2589C65.6036 26.5829 65.4476 26.0429 65.1356 25.6389C64.8276 25.2309 64.3676 25.0269 63.7556 25.0269C63.3356 25.0269 62.9896 25.1229 62.7176 25.3149C62.4456 25.5029 62.2436 25.7649 62.1116 26.1009C61.9796 26.4329 61.9136 26.8189 61.9136 27.2589C61.9136 27.9389 62.0696 28.4829 62.3816 28.8909C62.6936 29.2989 63.1516 29.5029 63.7556 29.5029ZM68.8541 30.5049V29.2869H70.1081V30.5049H68.8541ZM68.8541 28.3449V21.8649H70.1081V28.3449H68.8541Z" fill="white"/>
<defs>
<filter id="filter0_d_612_75646" x="0.171875" y="0.504883" width="90.5234" height="50" filterUnits="userSpaceOnUse" color-interpolation-filters="sRGB">
<feFlood flood-opacity="0" result="BackgroundImageFix"/>
<feColorMatrix in="SourceAlpha" type="matrix" values="0 0 0 0 0 0 0 0 0 0 0 0 0 0 0 0 0 0 127 0" result="hardAlpha"/>
<feOffset/>
<feGaussianBlur stdDeviation="2.5"/>
<feComposite in2="hardAlpha" operator="out"/>
<feColorMatrix type="matrix" values="0 0 0 0 0 0 0 0 0 0 0 0 0 0 0 0 0 0 0.1 0"/>
<feBlend mode="normal" in2="BackgroundImageFix" result="effect1_dropShadow_612_75646"/>
<feBlend mode="normal" in="SourceGraphic" in2="effect1_dropShadow_612_75646" result="shape"/>
</filter>
</defs>
</svg>
