<svg width="64" height="64" viewBox="0 0 64 64" fill="none" xmlns="http://www.w3.org/2000/svg">
<rect x="15" y="25" width="34" height="20" fill="#FFE40C"/>
<path fill-rule="evenodd" clip-rule="evenodd" d="M41.6562 36.2428H46.7008V40.7428H45.0052V39.0714H43.3519V40.7428H41.6562V36.2428ZM14.4413 17H50.5587C51.3217 17 52 17.7286 52 18.6286V45.3714C52 46.2714 51.3641 47 50.5587 47H14.4413C13.6783 47 13 46.2714 13 45.3714V18.5857C13.0424 17.7286 13.6783 17 14.4413 17ZM48.2696 35.9857H40.7663H27.7522C27.9641 36.4143 28.0489 36.8857 28.0489 37.4C28.0489 39.2857 26.5228 40.8286 24.7 40.8286C22.9196 40.8286 21.4359 39.4143 21.3511 37.6143C20.9696 37.7857 20.5457 37.8714 20.0793 37.8714C18.2141 37.8714 16.7304 36.3286 16.7304 34.4429C16.7304 32.5571 18.2565 31.0143 20.0793 31.0143C20.5033 31.0143 20.9272 31.1 21.3087 31.2714C21.3935 29.4714 22.8772 28.0571 24.6576 28.0571C26.5228 28.0571 28.0065 29.6 28.0065 31.4857C28.0065 32 27.8793 32.5143 27.6674 32.9429H48.2272V35.9857M24.6579 29.8143C25.5057 29.8143 26.1416 30.5001 26.1416 31.3572C26.1416 32.2143 25.4633 32.9001 24.6579 32.9001C23.8101 32.9001 23.1318 32.2143 23.1318 31.3572C23.1742 30.5001 23.8525 29.8143 24.6579 29.8143ZM20.2489 32.9C21.0967 32.9 21.775 33.5857 21.775 34.4429C21.775 35.3 21.0967 35.9857 20.2489 35.9857C19.4011 35.9857 18.7228 35.3 18.7228 34.4429C18.7228 33.5857 19.4011 32.9 20.2489 32.9ZM24.6579 35.9429C25.5057 35.9429 26.1416 36.6286 26.1416 37.4857C26.1416 38.3429 25.4633 39.0286 24.6579 39.0286C23.8101 39.0286 23.1318 38.3429 23.1318 37.4857C23.1742 36.6715 23.8525 35.9429 24.6579 35.9429Z" fill="#0060A9"/>
</svg>
