<svg width="17" height="17" viewBox="0 0 17 17" fill="none" xmlns="http://www.w3.org/2000/svg">
<path d="M8.51225 3.05143C8.53776 3.00509 8.57524 2.96645 8.62078 2.93954C8.66631 2.91263 8.71824 2.89844 8.77113 2.89844C8.82402 2.89844 8.87595 2.91263 8.92149 2.93954C8.96702 2.96645 9.0045 3.00509 9.03001 3.05143L10.7748 6.36369C10.8164 6.44039 10.8745 6.50692 10.9449 6.55852C11.0152 6.61011 11.0961 6.64548 11.1818 6.66209C11.2675 6.6787 11.3557 6.67614 11.4403 6.6546C11.5248 6.63305 11.6036 6.59305 11.6708 6.53746L14.1988 4.37184C14.2473 4.33237 14.3071 4.30932 14.3696 4.306C14.432 4.30268 14.4939 4.31927 14.5464 4.35337C14.5988 4.38747 14.6391 4.43734 14.6614 4.49578C14.6837 4.55422 14.6868 4.61824 14.6704 4.6786L12.9954 10.7345C12.9612 10.8585 12.8875 10.9679 12.7856 11.0461C12.6836 11.1244 12.5589 11.1673 12.4303 11.1684H5.11251C4.98386 11.1675 4.85901 11.1246 4.75693 11.0463C4.65484 10.968 4.58109 10.8586 4.54687 10.7345L2.87242 4.67919C2.85601 4.61883 2.85919 4.55482 2.88148 4.49637C2.90378 4.43793 2.94404 4.38806 2.99648 4.35396C3.04892 4.31986 3.11082 4.30327 3.17329 4.30659C3.23575 4.30991 3.29555 4.33296 3.34408 4.37243L5.87142 6.53805C5.93868 6.59364 6.01742 6.63364 6.10197 6.65519C6.18652 6.67674 6.2748 6.6793 6.36046 6.66268C6.44612 6.64607 6.52704 6.6107 6.59741 6.55911C6.66778 6.50751 6.72585 6.44098 6.76746 6.36428L8.51225 3.05143Z" stroke="#F5A623" stroke-linecap="round" stroke-linejoin="round"/>
<path d="M4.63388 12.8984H12.9086" stroke="#F5A623" stroke-linecap="round" stroke-linejoin="round"/>
</svg>
