<svg width="19" height="23" viewBox="0 0 19 23" fill="none" xmlns="http://www.w3.org/2000/svg">
<g id="Symbols">
<g id="Symbols_2">
<g id="UI2/Men&#195;&#186;/Open">
<g id="Group-4">
<g id="Icon/Men&#195;&#186;/Dashboard-">
<path id="Shape" d="M9.48833 0.697416C12.5751 0.697416 15.0773 3.1997 15.0773 6.28642C15.0773 9.37315 12.5751 11.8754 9.48833 11.8754C6.4016 11.8754 3.89932 9.37315 3.89932 6.28642C3.89932 3.1997 6.4016 0.697416 9.48833 0.697416ZM9.48833 1.00511C6.57154 1.00511 4.20701 3.36963 4.20701 6.28642C4.20701 9.20322 6.57154 11.5677 9.48833 11.5677C12.4051 11.5677 14.7696 9.20322 14.7696 6.28642C14.7696 3.36963 12.4051 1.00511 9.48833 1.00511Z" stroke="#4C4C4C" stroke-width="1.23077"/>
<path id="Shape_2" d="M6.29503 10.9795L3.50297 12.8409C2.81979 13.2963 2.30791 13.9665 2.04826 14.7455L1.16683 17.3898C1.16683 17.3898 3.73093 21.877 9.50016 21.877C15.2694 21.877 17.8335 18.0308 17.8335 18.0308L17.4479 15.3313C17.2867 14.2034 16.6138 13.213 15.6246 12.6477L12.7053 10.9795" stroke="#4C4C4C" stroke-width="1.47692" stroke-linecap="round"/>
</g>
</g>
</g>
</g>
</g>
</svg>
