<svg width="16" height="16" viewBox="0 0 16 16" fill="none" xmlns="http://www.w3.org/2000/svg">
<g id="Symbols">
<g id="Group 4645">
<path id="Vector 31" d="M7.67871 14.9174L1.33944 9.91272C0.885233 9.55413 0.829295 8.88604 1.21755 8.45692L8.11892 0.829087C8.3085 0.619549 8.57789 0.5 8.86046 0.5H14.5C15.0523 0.5 15.5 0.947716 15.5 1.5V7.20127C15.5 7.44731 15.4093 7.68471 15.2452 7.86806L9.0436 14.7993C8.69128 15.1931 8.09342 15.2448 7.67871 14.9174Z" stroke="black" stroke-linejoin="round"/>
<path id="%" d="M8.31839 11.9247L7.57593 11.9247L7.57858 5.02778L8.3237 5.03043L8.31839 11.9247ZM11.0522 9.34997C10.8772 9.52498 10.6748 9.64254 10.445 9.70264C10.2152 9.75921 9.9854 9.75921 9.75559 9.70264C9.52401 9.64431 9.31983 9.52675 9.14306 9.34997C8.96982 9.17673 8.85491 8.97344 8.79834 8.74009C8.74177 8.50675 8.74266 8.27429 8.80099 8.04271C8.85933 7.81113 8.97335 7.61049 9.14306 7.44078C9.31807 7.26577 9.52136 7.1491 9.75294 7.09077C9.98275 7.03066 10.2126 7.03066 10.4424 7.09077C10.6722 7.14733 10.8755 7.26401 11.0522 7.44078C11.229 7.61756 11.3466 7.82174 11.4049 8.05332C11.4633 8.28136 11.4633 8.51117 11.4049 8.74274C11.3448 8.97255 11.2273 9.17496 11.0522 9.34997ZM10.5723 8.87002C10.6589 8.7834 10.7164 8.68352 10.7447 8.57039C10.7729 8.45371 10.7721 8.33793 10.742 8.22302C10.7137 8.10635 10.6571 8.00559 10.5723 7.92073C10.4874 7.83588 10.3867 7.77931 10.27 7.75103C10.1551 7.72098 10.0402 7.72098 9.92529 7.75103C9.81039 7.77754 9.70963 7.83411 9.62301 7.92073C9.53815 8.00559 9.48158 8.10635 9.4533 8.22302C9.42502 8.33616 9.42502 8.45106 9.4533 8.56774C9.48335 8.68264 9.5408 8.78252 9.62566 8.86737C9.71051 8.95223 9.81039 9.00968 9.92529 9.03973C10.042 9.06801 10.1578 9.0689 10.2727 9.04238C10.3876 9.01233 10.4874 8.95488 10.5723 8.87002ZM6.75392 9.51172C6.57891 9.68673 6.3765 9.80429 6.14669 9.86439C5.91511 9.92273 5.68442 9.92361 5.45461 9.86704C5.2248 9.80694 5.02151 9.6885 4.84473 9.51172C4.67149 9.33848 4.55658 9.13519 4.50002 8.90184C4.44345 8.6685 4.44433 8.43604 4.50267 8.20446C4.561 7.97288 4.67503 7.77224 4.84473 7.60253C5.01974 7.42753 5.22215 7.31174 5.45196 7.25517C5.68177 7.19506 5.91246 7.19418 6.14404 7.25252C6.37385 7.30909 6.57714 7.42576 6.75392 7.60253C6.9307 7.77931 7.04825 7.98349 7.10659 8.21507C7.16316 8.44488 7.16227 8.67557 7.10394 8.90715C7.0456 9.13519 6.92893 9.33671 6.75392 9.51172ZM6.27397 9.03177C6.35882 8.94692 6.41628 8.84704 6.44633 8.73214C6.47461 8.61547 6.47373 8.49968 6.44368 8.38477C6.41539 8.2681 6.35882 8.16734 6.27397 8.08248C6.18912 7.99763 6.08835 7.94106 5.97168 7.91278C5.85678 7.88273 5.74187 7.88273 5.62697 7.91278C5.5103 7.94106 5.40953 7.99763 5.32468 8.08248C5.23983 8.16734 5.18326 8.2681 5.15497 8.38477C5.12669 8.49791 5.12669 8.61281 5.15497 8.72949C5.18326 8.84616 5.23983 8.94692 5.32468 9.03177C5.40953 9.11663 5.5103 9.1732 5.62697 9.20148C5.74364 9.22976 5.85943 9.23065 5.97433 9.20413C6.08747 9.17585 6.18735 9.11839 6.27397 9.03177Z" fill="black"/>
<path id="Ellipse 25" d="M12.9998 4.33317C13.7362 4.33317 14.3332 3.73622 14.3332 2.99984C14.3332 2.26346 13.7362 1.6665 12.9998 1.6665C12.2635 1.6665 11.6665 2.26346 11.6665 2.99984C11.6665 3.73622 12.2635 4.33317 12.9998 4.33317Z" stroke="black"/>
</g>
</g>
</svg>
