<svg width="21" height="21" viewBox="0 0 21 21" fill="none" xmlns="http://www.w3.org/2000/svg">
<g id="Symbols">
<g id="UI2/Men&#195;&#186;/Open">
<g id="Group-6">
<g id="Icon/Men&#195;&#186;/Dashboard-">
<path id="Shape" fill-rule="evenodd" clip-rule="evenodd" d="M10.4998 0.0839844L10.6693 0.0872607C12.0166 0.139315 13.224 0.808804 13.9689 1.89451L14.0273 1.98307L14.1502 1.95871C15.4373 1.72471 16.7549 2.10457 17.7393 3.01371L17.8658 3.13529C18.8618 4.13133 19.2857 5.50746 19.0418 6.85035L19.0168 6.97266L19.1061 7.0317C20.192 7.77664 20.8615 8.98403 20.9133 10.3314L20.9166 10.5005C20.9166 11.9155 20.2373 13.1935 19.1062 13.9699L19.0168 14.0286L19.0418 14.1514C19.2755 15.4383 18.8961 16.7553 17.9876 17.7393L17.8661 17.8657C16.8709 18.8625 15.4946 19.2865 14.1508 19.043L14.0273 19.0176L13.9688 19.1073C13.2238 20.1928 12.0163 20.8623 10.6691 20.9141L10.5 20.9173C9.08512 20.9173 7.80715 20.2381 7.03089 19.1074L6.97192 19.0176L6.8489 19.0427C5.56199 19.2755 4.24489 18.8962 3.26079 17.988L3.13434 17.8666C2.13808 16.8706 1.71414 15.4945 1.95807 14.1515L1.98234 14.0286L1.89359 13.9699C0.807696 13.2246 0.138311 12.0171 0.0864976 10.6696L0.083252 10.5004C0.0835139 9.08534 0.762715 7.80764 1.89353 7.0317L1.98234 6.97266L1.95788 6.8502C1.72438 5.56316 2.10407 4.2457 3.01286 3.26118L3.13439 3.13468C4.13043 2.13915 5.50619 1.71584 6.84902 1.95903L6.97127 1.98372L7.03082 1.8944C7.77596 0.808592 8.98349 0.139056 10.3307 0.0872308L10.4998 0.0839844ZM10.501 1.33294L10.3787 1.33631C9.43151 1.37275 8.58602 1.83732 8.07091 2.58773L7.54607 3.37506L6.62627 3.18902C5.67835 3.01735 4.71828 3.31892 4.03579 4.00069L3.93136 4.10902C3.29231 4.80134 3.02342 5.72094 3.18367 6.60538L3.37227 7.54964L2.60076 8.06239C1.80322 8.60964 1.33344 9.50533 1.33302 10.4764L1.33557 10.6215C1.37201 11.5692 1.83649 12.4146 2.58328 12.9274L3.37112 13.4486L3.18794 14.3749C3.01588 15.3222 3.31765 16.2823 4.00023 16.9651L4.1085 17.0694C4.80033 17.7078 5.71985 17.9766 6.59877 17.818L7.55183 17.6233L8.06141 18.3999C8.60899 19.1975 9.50496 19.6673 10.4761 19.6675L10.6211 19.665C11.5683 19.6286 12.4138 19.164 12.9214 18.425L13.4447 17.6218L14.3737 17.813C15.3221 17.9849 16.2822 17.683 16.9648 16.9996L17.0692 16.8914C17.7078 16.1996 17.9764 15.2806 17.8167 14.4L17.6236 13.4485L18.3988 12.9393C19.1967 12.3916 19.6666 11.4957 19.6668 10.5245L19.6643 10.3794C19.6278 9.4321 19.1633 8.58681 18.4166 8.07434L17.6235 7.54987L17.8119 6.62696C17.984 5.67966 17.6822 4.7195 16.9996 4.03647L16.8912 3.93201C16.1991 3.29276 15.2796 3.02387 14.3932 3.18486L13.4459 3.37262L12.9382 2.60167C12.4139 1.83751 11.5685 1.37293 10.6451 1.33703L10.501 1.33294ZM12.8457 12.002C13.8784 12.002 14.719 12.8426 14.719 13.8753C14.719 14.9085 13.8784 15.7491 12.8457 15.7491C11.8125 15.7491 10.9719 14.9085 10.9719 13.8753C10.9719 12.8426 11.8125 12.002 12.8457 12.002ZM13.285 6.20419C13.5778 6.38713 13.6667 6.77272 13.4838 7.06543L8.27546 15.3988C8.09251 15.6915 7.70692 15.7805 7.41421 15.5975C7.1215 15.4146 7.03251 15.029 7.21546 14.7363L12.4238 6.40294C12.6067 6.11022 12.9923 6.02124 13.285 6.20419ZM12.8457 13.252C12.5029 13.252 12.2219 13.533 12.2219 13.8753C12.2219 14.2181 12.5029 14.4991 12.8457 14.4991C13.1881 14.4991 13.469 14.2181 13.469 13.8753C13.469 13.533 13.188 13.252 12.8457 13.252ZM8.35708 5.41295C9.39029 5.41295 10.2306 6.25329 10.2306 7.28649C10.2306 8.31969 9.39029 9.16003 8.35708 9.16003C7.32388 9.16003 6.48355 8.31969 6.48355 7.28649C6.48355 6.25329 7.32388 5.41295 8.35708 5.41295ZM8.35708 6.66295C8.01424 6.66295 7.73355 6.94364 7.73355 7.28649C7.73355 7.62934 8.01424 7.91003 8.35708 7.91003C8.69993 7.91003 8.98062 7.62934 8.98062 7.28649C8.98062 6.94364 8.69993 6.66295 8.35708 6.66295Z" fill="#4C4C4C"/>
</g>
</g>
</g>
</g>
</svg>
