<svg width="28" height="28" viewBox="0 0 28 28" fill="none" xmlns="http://www.w3.org/2000/svg">
<path d="M24.4415 16.2363C24.8106 16.2363 25.1099 16.5385 25.1099 16.9113V20.2863C25.1099 22.5156 23.3973 24.3363 21.267 24.3363H5.39452C3.84871 24.3363 2.60986 23.0192 2.60986 21.4113V16.9113C2.60986 16.5385 2.90908 16.2363 3.27818 16.2363C3.64728 16.2363 3.9465 16.5385 3.9465 16.9113V21.4113C3.9465 22.2887 4.60268 22.9863 5.39452 22.9863H21.267C22.6433 22.9863 23.7732 21.785 23.7732 20.2863V16.9113C23.7732 16.5385 24.0724 16.2363 24.4415 16.2363Z" fill="#4C4C4C"/>
<path d="M13.859 19.8906L9.00644 15.0381C8.74283 14.7745 8.74283 14.3471 9.00644 14.0835C9.27004 13.8199 9.69743 13.8199 9.96103 14.0835L13.1841 17.3065L13.1832 5.21131C13.1832 4.83852 13.4854 4.53631 13.8582 4.53631C14.231 4.53631 14.5332 4.83852 14.5332 5.21131L14.5341 17.3065L17.7569 14.0835C17.9941 13.8463 18.364 13.8225 18.6278 14.0123L18.7115 14.0835C18.9751 14.3471 18.9751 14.7745 18.7115 15.0381L13.859 19.8906Z" fill="#4C4C4C"/>
</svg>
