<svg width="25" height="24" viewBox="0 0 25 24" fill="none" xmlns="http://www.w3.org/2000/svg">
<g clip-path="url(#clip0_3049_4300)">
<path d="M19.2263 19.1042H16.6221C16.4742 19.1042 16.3506 19.0542 16.2513 18.9542C16.1513 18.8542 16.1013 18.7306 16.1013 18.5833C16.1013 18.4361 16.1513 18.3125 16.2513 18.2125C16.3513 18.1132 16.4749 18.0635 16.6221 18.0635H19.2263V15.4594C19.2263 15.3115 19.2763 15.1878 19.3763 15.0885C19.4763 14.9892 19.5999 14.9389 19.7471 14.9375C19.8943 14.9375 20.0179 14.9875 20.1179 15.0875C20.2172 15.1875 20.2669 15.3111 20.2669 15.4583V18.0625H22.8711C23.019 18.0625 23.1426 18.1125 23.2419 18.2125C23.3412 18.3125 23.3916 18.4361 23.3929 18.5833C23.3929 18.7306 23.3429 18.8542 23.2429 18.9542C23.1436 19.0535 23.02 19.1031 22.8721 19.1031H20.2679V21.7073C20.2679 21.8552 20.2179 21.9788 20.1179 22.0781C20.0179 22.1781 19.894 22.2281 19.7461 22.2281C19.5988 22.2281 19.4752 22.1781 19.3752 22.0781C19.2759 21.9795 19.2263 21.8563 19.2263 21.7083V19.1042ZM4.68252 19.625C4.44433 19.625 4.24468 19.5444 4.08356 19.3833C3.92245 19.2222 3.8419 19.0222 3.8419 18.7833V13.375H3.3794C3.11551 13.375 2.89641 13.2691 2.72211 13.0573C2.54711 12.8455 2.49433 12.6083 2.56377 12.3458L3.60544 7.77812C3.64849 7.58785 3.74849 7.4316 3.90544 7.30937C4.06238 7.18646 4.24086 7.125 4.44086 7.125H17.345C17.545 7.125 17.7235 7.18611 17.8804 7.30833C18.0374 7.43125 18.1374 7.5875 18.1804 7.77708L19.2221 12.3458C19.2915 12.6083 19.2388 12.8455 19.0638 13.0573C18.8888 13.2691 18.67 13.375 18.4075 13.375H17.944V16.2604C17.944 16.4076 17.894 16.5309 17.794 16.6302C17.694 16.7302 17.5704 16.7802 17.4231 16.7802C17.2752 16.7802 17.1516 16.7302 17.0523 16.6302C16.9523 16.5309 16.9023 16.4073 16.9023 16.2594V13.375H12.1752V18.7833C12.1752 19.0222 12.0947 19.2222 11.9336 19.3833C11.7718 19.5444 11.5718 19.625 11.3336 19.625H4.68252ZM4.88356 14.5833H11.1336V13.375H4.88356V14.5833ZM4.28252 5.04167C4.13461 5.04167 4.01099 4.99167 3.91169 4.89167C3.81169 4.79167 3.76169 4.66771 3.76169 4.51979C3.76169 4.37187 3.81169 4.24826 3.91169 4.14896C4.01099 4.04965 4.13461 4 4.28252 4H17.5034C17.6513 4 17.7749 4.05 17.8742 4.15C17.9742 4.25 18.0242 4.37396 18.0242 4.52187C18.0242 4.66979 17.9742 4.7934 17.8742 4.89271C17.7749 4.99201 17.6513 5.04167 17.5034 5.04167H4.28252Z" fill="#4C4C4C" stroke="#4C4C4C" stroke-width="0.5"/>
</g>
<defs>
<clipPath id="clip0_3049_4300">
<rect width="24" height="24" fill="white" transform="translate(0.53418)"/>
</clipPath>
</defs>
</svg>
