<svg width="33" height="29" viewBox="0 0 33 29" fill="none" xmlns="http://www.w3.org/2000/svg">
<g id="elektra-1">
<path id="Shape" fill-rule="evenodd" clip-rule="evenodd" d="M17.0439 15.1381C16.1898 15.0501 14.4704 15.0464 12.6721 16.0416C10.1269 17.45 10.3134 20.6762 11.2641 22.2545C12.215 23.833 13.8728 24.3315 13.8728 24.3315L12.2133 29C12.2133 29 8.28265 27.578 6.27877 25.5108C5.35645 22.6537 5.7691 20.0911 7.76313 17.304C9.67037 14.6381 13.4742 13.1985 16.9557 14.2459C17.4623 13.5807 18.3251 12.1556 18.3251 10.1654C18.3251 7.34851 15.3169 5.8904 13.4153 5.8904C11.5136 5.8904 10.2344 7.01709 10.2344 7.01709L6.84584 3.30542C6.84584 3.30542 10.0962 0.753598 12.9659 0.123932C16.0085 0.786758 18.1177 2.41066 19.639 5.45951C21.0942 8.37572 20.4929 12.2528 17.8058 14.619C18.1536 15.3721 19.0099 16.8009 20.8079 17.7959C23.3532 19.2043 26.1748 17.4365 27.1255 15.858C28.0764 14.2795 27.698 12.6543 27.698 12.6543L32.7458 11.6974C32.7458 11.6974 33.4263 15.6712 32.5604 18.3681C30.4402 20.5622 27.9185 21.5011 24.403 21.2393C21.0408 20.9892 17.8384 18.5515 17.0439 15.1381ZM23.968 13.3452C23.968 13.3452 26.5018 10.7295 26.1445 8.27402C25.7869 5.81834 23.2575 4.72481 23.2575 4.72481L22.3155 1.63965L25.2994 0L26.4628 3.43732C26.4628 3.43732 29.4191 4.95841 29.4228 7.86869C29.4265 10.779 26.7048 13.1761 23.968 13.3452ZM12.7238 9.76769C12.7238 9.76769 9.09325 8.97241 7.05342 10.4968C5.01339 12.0213 5.28997 14.6676 5.28997 14.6676L2.97355 16.9923L0 15.3352L2.52399 12.6509C2.52399 12.6509 2.4204 9.43628 5.04798 7.97817C7.67577 6.52007 11.2025 7.58044 12.7238 9.76769ZM15.1134 20.8899C15.1134 20.8899 16.2101 24.3009 18.6075 25.2322C21.0047 26.1633 23.2575 24.6103 23.2575 24.6103L26.5161 25.3709L26.5059 28.6677L22.8184 27.9148C22.8184 27.9148 19.9656 29.6082 17.3344 28.156C14.7029 26.7038 13.8979 23.2463 15.1134 20.8899Z" fill="#ED2E38"/>
</g>
</svg>
