<svg width="20" height="14" viewBox="0 0 20 14" fill="none" xmlns="http://www.w3.org/2000/svg">
<g id="Group">
<g id="Group_2">
<path id="Vector" d="M19.9858 1.41039C19.9855 1.15248 19.8917 0.910089 19.7216 0.727963C19.552 0.546089 19.3266 0.446045 19.087 0.446045C19.0866 0.446045 19.0861 0.446045 19.0857 0.446045L0.897577 0.472902C0.6575 0.47328 0.431953 0.574037 0.262383 0.756709C0.0928524 0.939297 -0.000350571 1.18198 9.90946e-07 1.43985L0.0141416 12.4817C0.0147666 13.0137 0.417852 13.446 0.913085 13.446C0.913437 13.446 0.913905 13.446 0.914218 13.446L19.1023 13.4191C19.3425 13.4188 19.568 13.3181 19.7376 13.1354C19.9071 12.9528 20.0004 12.7101 20 12.4522L19.9858 1.41039ZM18.0991 1.41312L10.0007 7.46139L1.88613 1.43704L18.0991 1.41312ZM13.377 8.43035L18.2071 12.4548L1.77949 12.4791L6.63831 8.43031C6.83444 8.2669 6.87007 7.96362 6.718 7.75292C6.56589 7.54222 6.28358 7.50394 6.08745 7.66735L0.912265 11.9797L0.899374 1.87825L9.74596 8.44605C9.82287 8.50316 9.91217 8.53166 10.0015 8.53166C10.0912 8.53166 10.1809 8.50283 10.258 8.44529L19.0875 1.85102L19.1011 11.9777L13.928 7.66731C13.7318 7.50399 13.4496 7.54222 13.2974 7.75292C13.1452 7.96362 13.1809 8.2669 13.377 8.43035Z" fill="#4C4C4C"/>
</g>
</g>
</svg>
