<svg width="19" height="21" viewBox="0 0 19 21" fill="none" xmlns="http://www.w3.org/2000/svg">
<path d="M13.4818 1H4.32874C4.07706 1 3.87305 1.20402 3.87305 1.4557V19.2278C3.87305 19.4795 4.07706 19.6835 4.32874 19.6835H17.5439C17.7956 19.6835 17.9996 19.4795 17.9996 19.2278V5.51786C17.9996 5.39701 17.9516 5.28111 17.8662 5.19564L13.804 1.13347C13.7185 1.04801 13.6026 1 13.4818 1Z" fill="white" stroke="#979593"/>
<path d="M13.4434 1V5.10127C13.4434 5.35295 13.6474 5.55696 13.8991 5.55696H18.0003" stroke="#979593"/>
<path fill-rule="evenodd" clip-rule="evenodd" d="M9.79801 9.20277H7.51953V8.74707H9.79801C9.92385 8.74707 10.0259 8.84908 10.0259 8.97492C10.0259 9.10076 9.92385 9.20277 9.79801 9.20277ZM7.51953 10.5699H9.79801C9.92385 10.5699 10.0259 10.4678 10.0259 10.342C10.0259 10.2162 9.92385 10.1142 9.79801 10.1142H7.51953V10.5699ZM9.79801 11.9369H7.51953V11.4812H9.79801C9.92385 11.4812 10.0259 11.5833 10.0259 11.7091C10.0259 11.8349 9.92385 11.9369 9.79801 11.9369ZM9.79801 13.304H7.51953V12.8483H9.79801C9.92385 12.8483 10.0259 12.9503 10.0259 13.0762C10.0259 13.202 9.92385 13.304 9.79801 13.304ZM7.51953 14.6711H9.79801C9.92385 14.6711 10.0259 14.5691 10.0259 14.4433C10.0259 14.3174 9.92385 14.2154 9.79801 14.2154H7.51953V14.6711ZM16.1778 13.304H13.8993C13.7734 13.304 13.6714 13.202 13.6714 13.0762C13.6714 12.9503 13.7734 12.8483 13.8993 12.8483H16.1778C16.3036 12.8483 16.4056 12.9503 16.4056 13.0762C16.4056 13.202 16.3036 13.304 16.1778 13.304ZM13.8993 14.6711H16.1778C16.3036 14.6711 16.4056 14.5691 16.4056 14.4433C16.4056 14.3174 16.3036 14.2154 16.1778 14.2154H13.8993C13.7734 14.2154 13.6714 14.3174 13.6714 14.4433C13.6714 14.5691 13.7734 14.6711 13.8993 14.6711ZM16.1778 11.9369H13.8993C13.7734 11.9369 13.6714 11.8349 13.6714 11.7091C13.6714 11.5833 13.7734 11.4812 13.8993 11.4812H16.1778C16.3036 11.4812 16.4056 11.5833 16.4056 11.7091C16.4056 11.8349 16.3036 11.9369 16.1778 11.9369ZM13.8993 10.5699H16.1778C16.3036 10.5699 16.4056 10.4678 16.4056 10.342C16.4056 10.2162 16.3036 10.1142 16.1778 10.1142H13.8993C13.7734 10.1142 13.6714 10.2162 13.6714 10.342C13.6714 10.4678 13.7734 10.5699 13.8993 10.5699ZM16.1778 9.20277H13.8993C13.7734 9.20277 13.6714 9.10076 13.6714 8.97492C13.6714 8.84908 13.7734 8.74707 13.8993 8.74707H16.1778C16.3036 8.74707 16.4056 8.84908 16.4056 8.97492C16.4056 9.10076 16.3036 9.20277 16.1778 9.20277ZM10.7094 13.304H12.9879C13.1137 13.304 13.2157 13.202 13.2157 13.0762C13.2157 12.9503 13.1137 12.8483 12.9879 12.8483H10.7094C10.5836 12.8483 10.4816 12.9503 10.4816 13.0762C10.4816 13.202 10.5836 13.304 10.7094 13.304ZM12.9879 14.6711H10.7094C10.5836 14.6711 10.4816 14.5691 10.4816 14.4433C10.4816 14.3174 10.5836 14.2154 10.7094 14.2154H12.9879C13.1137 14.2154 13.2157 14.3174 13.2157 14.4433C13.2157 14.5691 13.1137 14.6711 12.9879 14.6711ZM10.7094 11.9369H12.9879C13.1137 11.9369 13.2157 11.8349 13.2157 11.7091C13.2157 11.5833 13.1137 11.4812 12.9879 11.4812H10.7094C10.5836 11.4812 10.4816 11.5833 10.4816 11.7091C10.4816 11.8349 10.5836 11.9369 10.7094 11.9369ZM12.9879 10.5699H10.7094C10.5836 10.5699 10.4816 10.4678 10.4816 10.342C10.4816 10.2162 10.5836 10.1142 10.7094 10.1142H12.9879C13.1137 10.1142 13.2157 10.2162 13.2157 10.342C13.2157 10.4678 13.1137 10.5699 12.9879 10.5699ZM10.7094 9.20277H12.9879C13.1137 9.20277 13.2157 9.10076 13.2157 8.97492C13.2157 8.84908 13.1137 8.74707 12.9879 8.74707H10.7094C10.5836 8.74707 10.4816 8.84908 10.4816 8.97492C10.4816 9.10076 10.5836 9.20277 10.7094 9.20277Z" fill="#C8C6C4"/>
<path d="M0.911392 16.2663H8.20253C8.70587 16.2663 9.11392 15.8582 9.11392 15.3549V8.06374C9.11392 7.5604 8.70587 7.15234 8.20253 7.15234H0.911392C0.408053 7.15234 0 7.5604 0 8.06374V15.3549C0 15.8582 0.408053 16.2663 0.911392 16.2663Z" fill="#107C41"/>
<path d="M2.03906 14.443L3.8356 11.7011L2.19015 8.97461H3.51429L4.41256 10.7173C4.49511 10.8826 4.55184 11.006 4.58278 11.0873H4.59436C4.65398 10.9551 4.71584 10.8267 4.78037 10.7022L5.74048 8.97461H6.95605L5.2681 11.686L6.99877 14.443H5.70555L4.668 12.5287C4.62416 12.4577 4.58278 12.3724 4.54407 12.2731H4.52871C4.51069 12.3343 4.47063 12.4169 4.40877 12.521L3.34008 14.443H2.03906Z" fill="white"/>
</svg>
