<svg width="19" height="21" viewBox="0 0 19 21" fill="none" xmlns="http://www.w3.org/2000/svg">
<path d="M13.4823 1H4.32923C4.07755 1 3.87354 1.20402 3.87354 1.4557V19.2278C3.87354 19.4795 4.07755 19.6835 4.32923 19.6835H17.5444C17.7961 19.6835 18.0001 19.4795 18.0001 19.2278V5.51786C18.0001 5.39701 17.9521 5.28111 17.8666 5.19564L13.8045 1.13347C13.719 1.04801 13.6031 1 13.4823 1Z" fill="white" stroke="#979593"/>
<path d="M13.4429 1V5.10127C13.4429 5.35295 13.6469 5.55696 13.8986 5.55696H17.9998" stroke="#979593"/>
<path fill-rule="evenodd" clip-rule="evenodd" d="M9.79752 9.20277H7.51904V8.74707H9.79752C9.92336 8.74707 10.0254 8.84908 10.0254 8.97492C10.0254 9.10076 9.92336 9.20277 9.79752 9.20277ZM7.51904 10.5699H9.79752C9.92336 10.5699 10.0254 10.4678 10.0254 10.342C10.0254 10.2162 9.92336 10.1142 9.79752 10.1142H7.51904V10.5699ZM9.79752 11.9369H7.51904V11.4812H9.79752C9.92336 11.4812 10.0254 11.5833 10.0254 11.7091C10.0254 11.8349 9.92336 11.9369 9.79752 11.9369ZM9.79752 13.3043H7.51904V12.8486H9.79752C9.92336 12.8486 10.0254 12.9506 10.0254 13.0765C10.0254 13.2023 9.92336 13.3043 9.79752 13.3043ZM7.51904 14.6715H9.79752C9.92336 14.6715 10.0254 14.5695 10.0254 14.4437C10.0254 14.3178 9.92336 14.2158 9.79752 14.2158H7.51904V14.6715ZM16.1772 13.3043H13.8987C13.7729 13.3043 13.6709 13.2023 13.6709 13.0765C13.6709 12.9506 13.7729 12.8486 13.8987 12.8486H16.1772C16.3031 12.8486 16.4051 12.9506 16.4051 13.0765C16.4051 13.2023 16.3031 13.3043 16.1772 13.3043ZM13.8987 14.6715H16.1772C16.3031 14.6715 16.4051 14.5695 16.4051 14.4437C16.4051 14.3178 16.3031 14.2158 16.1772 14.2158H13.8987C13.7729 14.2158 13.6709 14.3178 13.6709 14.4437C13.6709 14.5695 13.7729 14.6715 13.8987 14.6715ZM16.1773 11.9369H13.8988C13.7729 11.9369 13.6709 11.8349 13.6709 11.7091C13.6709 11.5833 13.7729 11.4812 13.8988 11.4812H16.1773C16.3031 11.4812 16.4051 11.5833 16.4051 11.7091C16.4051 11.8349 16.3031 11.9369 16.1773 11.9369ZM13.8988 10.5699H16.1773C16.3031 10.5699 16.4051 10.4678 16.4051 10.342C16.4051 10.2162 16.3031 10.1142 16.1773 10.1142H13.8988C13.7729 10.1142 13.6709 10.2162 13.6709 10.342C13.6709 10.4678 13.7729 10.5699 13.8988 10.5699ZM16.1773 9.20277H13.8988C13.7729 9.20277 13.6709 9.10076 13.6709 8.97492C13.6709 8.84908 13.7729 8.74707 13.8988 8.74707H16.1773C16.3031 8.74707 16.4051 8.84908 16.4051 8.97492C16.4051 9.10076 16.3031 9.20277 16.1773 9.20277ZM10.7089 13.3043H12.9874C13.1132 13.3043 13.2153 13.2023 13.2153 13.0765C13.2153 12.9506 13.1132 12.8486 12.9874 12.8486H10.7089C10.5831 12.8486 10.4811 12.9506 10.4811 13.0765C10.4811 13.2023 10.5831 13.3043 10.7089 13.3043ZM12.9874 14.6715H10.7089C10.5831 14.6715 10.4811 14.5695 10.4811 14.4437C10.4811 14.3178 10.5831 14.2158 10.7089 14.2158H12.9874C13.1132 14.2158 13.2153 14.3178 13.2153 14.4437C13.2153 14.5695 13.1132 14.6715 12.9874 14.6715ZM10.7089 11.9369H12.9874C13.1132 11.9369 13.2152 11.8349 13.2152 11.7091C13.2152 11.5833 13.1132 11.4812 12.9874 11.4812H10.7089C10.5831 11.4812 10.4811 11.5833 10.4811 11.7091C10.4811 11.8349 10.5831 11.9369 10.7089 11.9369ZM12.9874 10.5699H10.7089C10.5831 10.5699 10.4811 10.4678 10.4811 10.342C10.4811 10.2162 10.5831 10.1142 10.7089 10.1142H12.9874C13.1132 10.1142 13.2152 10.2162 13.2152 10.342C13.2152 10.4678 13.1132 10.5699 12.9874 10.5699ZM10.7089 9.20277H12.9874C13.1132 9.20277 13.2152 9.10076 13.2152 8.97492C13.2152 8.84908 13.1132 8.74707 12.9874 8.74707H10.7089C10.5831 8.74707 10.4811 8.84908 10.4811 8.97492C10.4811 9.10076 10.5831 9.20277 10.7089 9.20277Z" fill="#C8C6C4"/>
<path d="M0.911392 16.2663H8.20253C8.70587 16.2663 9.11392 15.8582 9.11392 15.3549V8.06374C9.11392 7.5604 8.70587 7.15234 8.20253 7.15234H0.911392C0.408053 7.15234 0 7.5604 0 8.06374V15.3549C0 15.8582 0.408053 16.2663 0.911392 16.2663Z" fill="#107C41"/>
<path d="M2.03906 14.443L3.8356 11.7011L2.19015 8.97461H3.51429L4.41256 10.7173C4.49511 10.8826 4.55184 11.006 4.58278 11.0873H4.59436C4.65398 10.9551 4.71584 10.8267 4.78037 10.7022L5.74048 8.97461H6.95605L5.2681 11.686L6.99877 14.443H5.70555L4.668 12.5287C4.62416 12.4577 4.58278 12.3724 4.54407 12.2731H4.52871C4.51069 12.3343 4.47063 12.4169 4.40877 12.521L3.34008 14.443H2.03906Z" fill="white"/>
</svg>
