<svg width="75" height="16" viewBox="0 0 75 16" xmlns="http://www.w3.org/2000/svg">
    <g fill="#096" fillRule="nonzero">
        <path d="M26 12.912V5.088h5.22v.923h-4.067v2.462h3.842v.923h-3.842v2.593h4.068v.923H26zm10.137-3.989 3.062 3.99h-1.378L35.47 9.768l-2.35 3.143h-1.38l3.063-4-2.927-3.824h1.368l2.237 2.989 2.227-2.99h1.378l-2.95 3.836zm4.012-3.835h3.345c.843 0 1.5.2 1.972.599.47.4.706.943.706 1.632 0 .688-.24 1.232-.718 1.632-.478.399-1.132.598-1.96.598h-2.181v3.363h-1.164V5.088zm3.209 3.56c.557 0 .977-.113 1.26-.34.282-.227.424-.557.424-.99 0-.424-.142-.75-.424-.977-.283-.227-.703-.341-1.26-.341h-2.045v2.648h2.045zm10.68 4.264h-1.233L51.8 10.308c-.106-.279-.26-.471-.464-.577-.203-.106-.482-.16-.836-.16h-1.763v3.341h-1.153V5.088h3.312c.881 0 1.557.19 2.028.571.47.381.706.927.706 1.638 0 .513-.14.948-.418 1.307-.279.36-.674.612-1.186.759.467.08.806.403 1.017.967l.994 2.582zM50.76 8.66c.588 0 1.025-.111 1.31-.335.287-.223.43-.558.43-1.005 0-.447-.141-.779-.424-.995-.282-.216-.72-.324-1.316-.324h-2.023v2.66h2.023zm4.701 4.253V5.088h5.221v.923h-4.068v2.462h3.842v.923h-3.842v2.593h4.068v.923h-5.221zm9.312.088c-.625 0-1.196-.08-1.712-.242a3.752 3.752 0 0 1-1.34-.725l.419-.835c.392.307.798.53 1.22.67.422.14.897.209 1.424.209.603 0 1.07-.11 1.401-.33.332-.22.498-.53.498-.934 0-.337-.155-.591-.464-.764-.309-.172-.798-.331-1.469-.478-.64-.131-1.164-.283-1.57-.456-.407-.172-.728-.403-.961-.692-.234-.29-.35-.661-.35-1.115 0-.455.124-.856.372-1.204.25-.348.601-.619 1.057-.813.456-.194.981-.291 1.577-.291.565 0 1.094.084 1.587.253a3.41 3.41 0 0 1 1.238.714l-.418.835c-.37-.3-.75-.522-1.142-.665a3.633 3.633 0 0 0-1.254-.214c-.58 0-1.036.12-1.368.357a1.135 1.135 0 0 0-.497.973.89.89 0 0 0 .435.802c.29.183.756.348 1.396.494.67.147 1.213.3 1.627.462.415.161.746.38.995.66.248.278.373.637.373 1.076 0 .454-.125.85-.373 1.187-.249.337-.605.599-1.068.786-.464.187-1.008.28-1.633.28zm7.153 0c-.625 0-1.196-.08-1.712-.242a3.752 3.752 0 0 1-1.339-.725l.418-.835c.392.307.799.53 1.22.67.423.14.897.209 1.424.209.603 0 1.07-.11 1.402-.33.331-.22.497-.53.497-.934 0-.337-.154-.591-.463-.764-.31-.172-.799-.331-1.47-.478-.64-.131-1.163-.283-1.57-.456-.407-.172-.727-.403-.96-.692-.234-.29-.351-.661-.351-1.115 0-.455.124-.856.373-1.204.248-.348.6-.619 1.056-.813.456-.194.982-.291 1.577-.291.565 0 1.094.084 1.588.253a3.41 3.41 0 0 1 1.237.714l-.418.835c-.37-.3-.75-.522-1.141-.665a3.633 3.633 0 0 0-1.255-.214c-.58 0-1.036.12-1.367.357a1.135 1.135 0 0 0-.497.973.89.89 0 0 0 .435.802c.29.183.755.348 1.395.494.67.147 1.213.3 1.628.462.414.161.745.38.994.66.249.278.373.637.373 1.076 0 .454-.124.85-.373 1.187-.249.337-.605.599-1.068.786-.463.187-1.007.28-1.633.28zM6.057 4.99c.116-.704.535-1.284 1.257-1.738C9.371 1.862 10.895.896 11.886.355c.99-.54 1.904-.464 2.743.232 2.057 1.159 3.466 2.047 4.228 2.665C19.62 3.87 20 4.566 20 5.338v4.983c0 1.237-.305 2.086-.914 2.55-1.6 1.159-3.01 2.047-4.229 2.665-1.219.619-2.362.619-3.428 0-2.286-1.313-3.772-2.201-4.458-2.665-.685-.464-.99-1.12-.914-1.97V4.99zm7.314 3.361v7.07l5.829-3.94V4.874L13.371 8.35zM7.2 4.063l5.829 3.709 5.942-3.709L13.03.703 7.2 4.063z"/>
        <path d="m9.143 2.904 6.286 3.825v2.897c0 .54.304.618.914.232.61-.386 1.067-.657 1.371-.811.229-.078.343-.387.343-.927V5.222l-6.743-4.056-.571.464 6.514 4.172v2.55l-1.143.695V6.265L9.83 2.21l-.686.695zM13.029.123H7.086c-.305 0-.457.116-.457.348 0 .232.152.347.457.347h5.828l.115-.695zM6.4 5.918H.457c-.305 0-.457.115-.457.347 0 .232.152.348.457.348h5.829l.114-.695zM13.257 15.189H7.314c-.304 0-.457.116-.457.347 0 .232.153.348.457.348h5.829l.114-.695zM6.673 4.063H3.886c-.305 0-.457.116-.457.348 0 .232.152.348.457.348h2.4l.387-.696zM6.673 8.93H3.886c-.305 0-.457.117-.457.348 0 .232.152.348.457.348h2.4l.387-.695zM7.273 12.176H2.97c-.304 0-.457.116-.457.347 0 .232.153.348.457.348 2.08.127 3.514.127 4.302 0v-.695z"/>
    </g>
</svg>
