<svg width="18" height="11" viewBox="0 0 18 11" fill="none" xmlns="http://www.w3.org/2000/svg">
<g id="icon/eye">
<path id="Union" fill-rule="evenodd" clip-rule="evenodd" d="M13.2618 1.15634C14.6574 1.88842 15.9037 2.9605 16.8659 4.25661C17.2366 4.7559 17.2366 5.45326 16.8659 5.95263C15.9037 7.24877 14.6574 8.32082 13.2618 9.05289C11.8371 9.8002 10.3044 10.1879 8.70446 10.2083C8.66039 10.2095 8.48346 10.2095 8.4394 10.2083C6.83943 10.1879 5.30677 9.8002 3.88209 9.05289C2.48644 8.32082 1.24016 7.24873 0.278001 5.95263C-0.092667 5.45333 -0.092667 4.7559 0.278001 4.25661C1.2402 2.96047 2.48644 1.88842 3.88209 1.15634C5.30677 0.409028 6.83946 0.0213186 8.4394 0.000949837C8.48346 -0.000316612 8.66039 -0.000316612 8.70446 0.000949837C10.3044 0.0212834 11.8371 0.409028 13.2618 1.15634ZM0.827943 5.50198C1.72662 6.71253 2.89046 7.71373 4.19366 8.39733C4.56382 8.59148 4.94189 8.75943 5.32686 8.90155C4.33636 7.96625 3.71236 6.61062 3.71236 5.1046C3.71236 3.59865 4.33633 2.24313 5.32672 1.30778C4.94176 1.44991 4.56379 1.61778 4.19366 1.8119C2.89042 2.4955 1.72659 3.4967 0.827943 4.70725C0.654261 4.94123 0.654261 5.26801 0.827943 5.50198ZM4.40976 5.10456C4.40976 7.51581 6.2769 9.47747 8.57196 9.47747C10.867 9.47747 12.7342 7.51585 12.7342 5.1046C12.7342 2.69335 10.867 0.731691 8.57196 0.731691C6.2769 0.731691 4.40976 2.69331 4.40976 5.10456ZM12.9503 8.39729C14.2535 7.71369 15.4173 6.7125 16.316 5.50195C16.4897 5.26797 16.4897 4.94119 16.316 4.70718C15.4173 3.49663 14.2535 2.49543 12.9503 1.81183C12.5801 1.61761 12.2019 1.44952 11.8169 1.30736C12.8074 2.24271 13.4316 3.5984 13.4316 5.10456C13.4316 6.60991 12.8081 7.96501 11.8183 8.90032C12.2028 8.75834 12.5806 8.5912 12.9503 8.39729ZM6.65292 5.10465C6.65292 4.06765 7.45638 3.224 8.44397 3.224C9.43159 3.224 10.235 4.06765 10.235 5.10465C10.235 6.14165 9.43156 6.9853 8.44397 6.9853C7.45638 6.9853 6.65292 6.14165 6.65292 5.10465Z" fill="#4C4C4C"/>
</g>
</svg>
