<svg width="25" height="24" viewBox="0 0 25 24" fill="none" xmlns="http://www.w3.org/2000/svg">
<g clip-path="url(#clip0_33_1966)">
<path d="M20.25 6H5.5C4.39543 6 3.5 6.89543 3.5 8V16.5C3.5 17.6046 4.39543 18.5 5.5 18.5H20.25C21.3546 18.5 22.25 17.6046 22.25 16.5V8C22.25 6.89543 21.3546 6 20.25 6Z" stroke="#4C4C4C" stroke-width="1.5"/>
<path d="M5.58301 9.125H8.70801M17.0413 15.375H20.1663" stroke="#4C4C4C" stroke-width="1.5" stroke-linecap="round"/>
<path d="M12.8753 14.3333C14.0259 14.3333 14.9587 13.4006 14.9587 12.25C14.9587 11.0994 14.0259 10.1666 12.8753 10.1666C11.7247 10.1666 10.792 11.0994 10.792 12.25C10.792 13.4006 11.7247 14.3333 12.8753 14.3333Z" stroke="#4C4C4C" stroke-width="1.5"/>
</g>
<defs>
<clipPath id="clip0_33_1966">
<rect width="24" height="24" fill="white" transform="translate(0.5)"/>
</clipPath>
</defs>
</svg>
