<svg width="18" height="18" viewBox="0 0 18 18" xmlns="http://www.w3.org/2000/svg">
    <g fill="none" fill-rule="evenodd">
        <path d="M0 0h18v18H0z"/>
        <path d="M5.106 1.816C5.246 1.332 5.674 1 6.161 1h4.845c.36 0 .699.184.904.492.205.308.252.701.126 1.052l-1.092 3.029h2.232c.317 0 .605.189.742.485.138.297.1.649-.097.906l-7.266 9.489c-.94 1.226-2.818.214-2.396-1.29l1.408-5.017h-1.74a.815.815 0 0 1-.663-.345.885.885 0 0 1-.13-.758l2.072-7.227zm5.901.327H6.161l-1.966 6.86H6.3c.173 0 .336.084.44.228a.59.59 0 0 1 .087.503l-1.613 5.75a.278.278 0 0 0 .007.198.296.296 0 0 0 .13.135.28.28 0 0 0 .18.033.258.258 0 0 0 .163-.109l6.91-9.025H10.15a.544.544 0 0 1-.452-.246.59.59 0 0 1-.063-.527l1.372-3.8z" fill="#FF6700" fill-rule="nonzero"/>
    </g>
</svg>
