<svg width="24" height="25" viewBox="0 0 24 25" fill="current" xmlns="http://www.w3.org/2000/svg">
<path fill-rule="evenodd" clip-rule="evenodd" d="M16.5 2.75C18.433 2.75 20 4.317 20 6.25V19.25C20 21.183 18.433 22.75 16.5 22.75H7.5C5.567 22.75 4 21.183 4 19.25V6.25C4 4.317 5.567 2.75 7.5 2.75H16.5ZM16.5 3.95H7.5C6.22974 3.95 5.2 4.97974 5.2 6.25V19.25C5.2 20.5203 6.22974 21.55 7.5 21.55H16.5C17.7703 21.55 18.8 20.5203 18.8 19.25V6.25C18.8 4.97974 17.7703 3.95 16.5 3.95ZM16.5 15.65C16.8314 15.65 17.1 15.9186 17.1 16.25C17.1 16.5814 16.8314 16.85 16.5 16.85H7.5C7.16863 16.85 6.9 16.5814 6.9 16.25C6.9 15.9186 7.16863 15.65 7.5 15.65H16.5ZM14.5 11.65C14.8314 11.65 15.1 11.9186 15.1 12.25C15.1 12.5814 14.8314 12.85 14.5 12.85H7.5C7.16863 12.85 6.9 12.5814 6.9 12.25C6.9 11.9186 7.16863 11.65 7.5 11.65H14.5ZM16.5 7.65C16.8314 7.65 17.1 7.91863 17.1 8.25C17.1 8.58137 16.8314 8.85 16.5 8.85H7.5C7.16863 8.85 6.9 8.58137 6.9 8.25C6.9 7.91863 7.16863 7.65 7.5 7.65H16.5Z" fill="#DB3B2B"/>
</svg>
