<svg width="18" height="18" viewBox="0 0 18 18" xmlns="http://www.w3.org/2000/svg">
    <g fill="none" fill-rule="evenodd">
        <path d="M0 0h18v18H0z"/>
        <path d="M9.328.052a1.976 1.976 0 0 1 2.323 1.29l.002.006.076.267c.338-.338.8-.528 1.356-.528.508 0 .995.198 1.354.55.36.35.561.828.561 1.325 0 1.196-.006 2.417-.013 3.637-.007 1.221-.013 2.44-.013 3.632 0 3.914-2.932 6.75-6.202 6.769H8.77c-2.604.006-4.884-1.478-5.683-3.82a1.988 1.988 0 0 1 .52-2.01 2.173 2.173 0 0 1-.21-.249c-.347-.478-.521-1.137-.294-1.772.473-1.316 1.572-2.432 3.031-3.085L4.316 3.152c-.282-.462-.327-1.014-.212-1.495.115-.48.41-.959.895-1.234.953-.54 2.236-.304 2.792.624l.173.273A1.926 1.926 0 0 1 9.328.052M5 10.634c.32 0 .502-.126.715-.385.081-.1.158-.204.232-.31l.143-.198c.139-.188.311-.405.534-.594a2.893 2.893 0 0 1 1.942-.666h.003c.872.031 1.556.392 2.011.936.446.534.65 1.215.642 1.872-.008.657-.23 1.332-.689 1.851-.47.531-1.162.869-2.03.869-.572 0-1.153-.201-1.63-.507-.476-.304-.903-.748-1.111-1.287-.08-.209-.397-.422-.782-.438l-.043-.001h-.002c-.47 0-.895.5-.738 1.054.63 1.823 2.424 3.032 4.567 3.027 2.558-.015 5.04-2.271 5.04-5.626 0-1.196.007-2.417.013-3.637.007-1.221.013-2.44.013-3.632a.739.739 0 0 0-.747-.732c-.317 0-.49.116-.607.292a.835.835 0 0 0-.02.031c-.058.19-.086.386-.084.584v.008l-.07 1.65c-.021.49-.73.567-.861.093l-.303-1.1a.598.598 0 0 1-.013-.042l-.597-2.085c-.08-.26-.44-.599-.93-.497a.767.767 0 0 0-.452.346 2.022 2.022 0 0 0 .041.75l.002.005.584 2.517c.11.475-.546.733-.803.316l-.595-.968-1.581-2.486a.585.585 0 0 1-.01-.016c-.184-.311-.72-.488-1.201-.216-.15.086-.285.263-.343.506a.877.877 0 0 0 .077.647l1.949 3.123c.073.064.155.121.243.172a.46.46 0 0 1 .208.276.642.642 0 0 1-.084.534.448.448 0 0 1-.307.195 3.631 3.631 0 0 0-.142.022l-.007.002c-1.501.489-2.567 1.507-2.973 2.639-.077.215-.032.49.144.732.169.233.404.363.62.373l.032.001zm1.423.554c.185.168.336.375.431.623.1.258.333.527.658.735.324.207.687.32.99.32.536 0 .905-.199 1.149-.475.253-.286.398-.69.403-1.116a1.735 1.735 0 0 0-.377-1.134c-.24-.285-.608-.498-1.148-.517a1.71 1.71 0 0 0-1.14.387l-.002.001a2.282 2.282 0 0 0-.35.398l-.104.144c-.093.131-.201.282-.308.412-.062.076-.129.15-.202.222" fill="#2180FF" fill-rule="nonzero"/>
    </g>
</svg>
