<svg width="15" height="15" viewBox="0 0 15 15" fill="none" xmlns="http://www.w3.org/2000/svg">
<g id="Group">
<path id="Vector" d="M4.86328 7.03125C4.62059 7.03125 4.42383 7.22801 4.42383 7.4707V12.8027C4.42383 13.0454 4.62059 13.2422 4.86328 13.2422H10.1367C10.3794 13.2422 10.5762 13.0454 10.5762 12.8027V7.4707C10.5762 7.22801 10.3794 7.03125 10.1367 7.03125H4.86328ZM7.06055 7.91016H7.93945V8.78906H7.06055V7.91016ZM9.69727 12.3633H5.30273V7.91016H6.18164V9.22852C6.18164 9.47121 6.3784 9.66797 6.62109 9.66797H8.37891C8.6216 9.66797 8.81836 9.47121 8.81836 9.22852V7.91016H9.69727V12.3633Z" fill="#4C4C4C"/>
<path id="Vector_2" d="M14.7928 4.46089L7.73221 0.0663574C7.59006 -0.0221191 7.40994 -0.0221191 7.26779 0.0663574L0.207246 4.46089C0.0783691 4.5411 0 4.68217 0 4.83398V6.90674C0 7.06635 0.086543 7.21342 0.226055 7.29091C0.365684 7.36843 0.536191 7.36415 0.67166 7.27983L0.878906 7.15084V14.5605C0.878906 14.8032 1.07566 15 1.31836 15H13.6816C13.9243 15 14.1211 14.8032 14.1211 14.5605V7.15084L14.3283 7.27983C14.4623 7.36321 14.6329 7.36928 14.7739 7.29091C14.9135 7.21342 15 7.06635 15 6.90674V4.83398C15 4.68217 14.9216 4.5411 14.7928 4.46089ZM13.2422 14.1211H1.75781V6.60381L7.5 3.02988L13.2422 6.60381V14.1211ZM14.1211 6.11561C13.4504 5.69818 8.15089 2.39977 7.73221 2.13917C7.66113 2.09493 7.58057 2.07281 7.5 2.07281C7.41943 2.07281 7.33887 2.09493 7.26779 2.13917C6.84844 2.40018 1.54957 5.69818 0.878906 6.11561V5.07809L7.5 0.95707L14.1211 5.07809V6.11561Z" fill="#4C4C4C"/>
</g>
</svg>
