<svg width="26" height="25" viewBox="0 0 26 25" fill="none" xmlns="http://www.w3.org/2000/svg">
<path d="M12.3891 2.53071C11.1852 2.74998 10.205 3.47659 9.67186 4.54714C9.47409 4.94269 9.30641 5.5919 9.30641 5.95306V6.22822L8.93237 6.41739C6.59782 7.59114 4.86947 9.86124 4.34065 12.4538C4.22457 13.0127 4.13428 13.8855 4.15148 14.2767L4.16438 14.5347L3.90212 14.6723C2.49193 15.4247 1.72664 17.0112 2.0233 18.5719C2.28556 19.9649 3.32601 21.0741 4.7276 21.4525C4.99416 21.5256 5.19193 21.5471 5.60896 21.5471C6.21517 21.5471 6.61071 21.4611 7.12664 21.2246C7.32441 21.1343 7.44049 21.0999 7.47918 21.13C8.0123 21.517 8.7045 21.9426 9.12584 22.1447C11.6195 23.3442 14.4484 23.3227 16.9206 22.0888C17.2473 21.9254 17.9868 21.4611 18.4425 21.13C18.4812 21.0999 18.593 21.13 18.7951 21.2246C19.3325 21.4697 19.7109 21.5514 20.3128 21.5471C20.7212 21.5471 20.9319 21.5256 21.1941 21.4525C22.1142 21.2074 22.8752 20.6528 23.3825 19.866C24.5347 18.086 23.9027 15.6784 22.0196 14.6723L21.7573 14.5347L21.7702 14.2767C21.7745 14.1392 21.7574 13.7823 21.7316 13.49C21.4607 10.4632 19.7453 7.8792 17.0711 6.46039L16.6282 6.22822L16.6024 5.84987C16.4992 4.36227 15.4416 3.06814 13.9712 2.6382C13.5456 2.51351 12.7717 2.46192 12.3891 2.53071ZM10.0588 8.37793C10.5618 9.03145 11.2626 9.49578 12.0795 9.71506C12.3461 9.78815 12.5481 9.80964 12.9609 9.80964C13.3736 9.80964 13.5757 9.78815 13.8422 9.71506C14.8354 9.44849 15.6609 8.81218 16.1725 7.91789L16.2972 7.69432L16.6282 7.8792C18.0986 8.71759 19.2895 10.1407 19.8613 11.7315C20.0935 12.3893 20.2139 12.9955 20.2913 13.907L20.3171 14.2166L19.9817 14.2467C18.7091 14.3627 17.5913 15.128 17.0238 16.2674C16.74 16.8349 16.6497 17.2262 16.6497 17.8797C16.6454 18.6364 16.8217 19.2383 17.2258 19.8703C17.3849 20.1197 17.3849 20.1197 16.8561 20.4464C14.457 21.934 11.4647 21.934 9.06565 20.4464C8.53683 20.1197 8.53683 20.1197 8.6959 19.8703C9.10004 19.2383 9.27632 18.6364 9.27202 17.8797C9.27202 17.2262 9.18173 16.8349 8.89797 16.2674C8.33046 15.128 7.21262 14.3627 5.94001 14.2467L5.60896 14.2166L5.63476 13.864C5.75514 12.127 6.30546 10.7555 7.3889 9.46139C7.90482 8.85087 8.57552 8.29194 9.28491 7.8878L9.62456 7.69432L9.74925 7.91789C9.82233 8.04258 9.95991 8.24895 10.0588 8.37793Z" fill="#4C4C4C"/>
</svg>
