<svg width="19" height="18" viewBox="0 0 19 18" fill="none" xmlns="http://www.w3.org/2000/svg">
<path d="M11.3271 3.9125C11.5091 3.73541 11.8278 3.73541 12.0098 3.9125C12.0997 4.00019 12.1496 4.11914 12.1455 4.23769L12.1445 4.3373C12.1481 5.15655 12.2943 6.10075 12.6768 6.94082C13.2463 8.19169 14.2241 8.91248 15.7275 8.9125C15.9896 8.9125 16.2031 9.11423 16.2031 9.36367C16.2029 9.6129 15.9895 9.81386 15.7275 9.81386C14.2241 9.81388 13.2463 10.5347 12.6768 11.7855C12.3367 12.5324 12.1827 13.3617 12.1504 14.1117L12.1445 14.4242V14.4857C12.1486 14.6081 12.1007 14.7273 12.0107 14.8148C11.9212 14.9018 11.7979 14.9506 11.6699 14.9506C11.5397 14.9505 11.4166 14.9019 11.3271 14.8148C11.2371 14.7272 11.1892 14.6075 11.1934 14.4887L11.1943 14.39C11.1909 13.5709 11.0438 12.6258 10.6611 11.7855C10.0915 10.5347 9.11375 9.81391 7.61035 9.81386C7.34842 9.81386 7.13503 9.6129 7.13477 9.36367C7.13477 9.11423 7.34826 8.9125 7.61035 8.9125C9.11377 8.91245 10.0915 8.19165 10.6611 6.94082C11.0012 6.19395 11.1552 5.36454 11.1875 4.61464L11.1943 4.30312L11.1934 4.2416C11.1891 4.11925 11.2373 4.00007 11.3271 3.9125ZM11.6211 7.10976C11.2176 8.1103 10.5869 8.88849 9.68555 9.35097L9.66016 9.36367L9.68555 9.37539C10.5869 9.83787 11.2176 10.6161 11.6211 11.6166L11.6689 11.7406L11.7168 11.6166C12.1203 10.6159 12.751 9.83785 13.6523 9.37539L13.6768 9.36367L13.6523 9.35097C12.751 8.88851 12.1203 8.11042 11.7168 7.10976L11.6689 6.98476L11.6211 7.10976ZM4.83105 3.03261C4.99192 2.96718 5.18023 3.00207 5.30371 3.1205C5.38044 3.19411 5.42514 3.29642 5.42773 3.40078L5.42871 3.49941C5.44455 4.07275 5.59625 4.64711 5.95898 4.99453C6.17791 5.20418 6.45694 5.30605 6.82227 5.30605C7.05826 5.30623 7.24974 5.48704 7.25 5.71132C7.25 5.93582 7.05843 6.1174 6.82227 6.11757C6.45271 6.11757 6.17112 6.22141 5.95117 6.43593C5.61165 6.76735 5.46189 7.29027 5.43359 7.79726L5.42871 7.99843C5.43509 8.17077 5.3313 8.32408 5.16895 8.39003C5.11554 8.41175 5.0587 8.42318 5.00098 8.42324C4.7672 8.42086 4.58003 8.24864 4.57227 8.03164V7.93789C4.55973 7.36463 4.40922 6.78117 4.04199 6.4291C3.82313 6.21944 3.5439 6.11765 3.17871 6.11757C2.94239 6.11757 2.75 5.93593 2.75 5.71132C2.75026 5.48693 2.94255 5.30605 3.17871 5.30605C3.548 5.30598 3.82892 5.20218 4.04883 4.98769C4.38795 4.65665 4.53765 4.13541 4.56641 3.62734L4.57129 3.42031L4.5752 3.34902C4.59581 3.21017 4.69208 3.08907 4.83105 3.03261ZM4.96582 5.18007C4.87493 5.32173 4.76982 5.45132 4.65039 5.56582C4.6157 5.59903 4.57958 5.63026 4.54297 5.66054L4.47656 5.71132L4.55273 5.77089L4.66406 5.87148C4.77949 5.98415 4.88145 6.11049 4.96973 6.24941L5 6.30117L5.03125 6.24941C5.09014 6.15683 5.15484 6.06978 5.22559 5.98867L5.33594 5.87148C5.37174 5.83646 5.40919 5.8028 5.44727 5.77089L5.52344 5.71132L5.44727 5.65273L5.33594 5.55312C5.22057 5.4404 5.1196 5.3131 5.03125 5.17421L5 5.12148L4.96582 5.18007Z" fill="white"/>
</svg>
