<svg width="25" height="24" viewBox="0 0 25 24" fill="none" xmlns="http://www.w3.org/2000/svg">
<path fill-rule="evenodd" clip-rule="evenodd" d="M16.5 2C18.433 2 20 3.567 20 5.5V18.5C20 20.433 18.433 22 16.5 22H7.5C5.567 22 4 20.433 4 18.5V5.5C4 3.567 5.567 2 7.5 2H16.5ZM16.5 3.2H7.5C6.22974 3.2 5.2 4.22974 5.2 5.5V18.5C5.2 19.7703 6.22974 20.8 7.5 20.8H16.5C17.7703 20.8 18.8 19.7703 18.8 18.5V5.5C18.8 4.22974 17.7703 3.2 16.5 3.2ZM16.5 14.9C16.8314 14.9 17.1 15.1686 17.1 15.5C17.1 15.8314 16.8314 16.1 16.5 16.1H7.5C7.16863 16.1 6.9 15.8314 6.9 15.5C6.9 15.1686 7.16863 14.9 7.5 14.9H16.5ZM14.5 10.9C14.8314 10.9 15.1 11.1686 15.1 11.5C15.1 11.8314 14.8314 12.1 14.5 12.1H7.5C7.16863 12.1 6.9 11.8314 6.9 11.5C6.9 11.1686 7.16863 10.9 7.5 10.9H14.5ZM16.5 6.9C16.8314 6.9 17.1 7.16863 17.1 7.5C17.1 7.83137 16.8314 8.1 16.5 8.1H7.5C7.16863 8.1 6.9 7.83137 6.9 7.5C6.9 7.16863 7.16863 6.9 7.5 6.9H16.5Z" fill="#4C4C4C"/>
<rect x="10.5" y="9.5" width="14" height="8" rx="1.5" fill="white" stroke="#4C4C4C"/>
<path d="M12.918 16V11.68H14.664C14.706 11.68 14.758 11.682 14.82 11.686C14.882 11.688 14.941 11.694 14.997 11.704C15.237 11.742 15.437 11.824 15.597 11.95C15.759 12.076 15.88 12.235 15.96 12.427C16.04 12.619 16.08 12.831 16.08 13.063C16.08 13.297 16.04 13.51 15.96 13.702C15.88 13.894 15.759 14.053 15.597 14.179C15.437 14.305 15.237 14.387 14.997 14.425C14.941 14.433 14.881 14.439 14.817 14.443C14.755 14.447 14.704 14.449 14.664 14.449H13.545V16H12.918ZM13.545 13.855H14.64C14.68 13.855 14.724 13.853 14.772 13.849C14.822 13.845 14.869 13.838 14.913 13.828C15.041 13.798 15.144 13.743 15.222 13.663C15.3 13.581 15.356 13.487 15.39 13.381C15.424 13.275 15.441 13.169 15.441 13.063C15.441 12.957 15.424 12.852 15.39 12.748C15.356 12.642 15.3 12.549 15.222 12.469C15.144 12.387 15.041 12.331 14.913 12.301C14.869 12.289 14.822 12.281 14.772 12.277C14.724 12.273 14.68 12.271 14.64 12.271H13.545V13.855ZM16.6798 16V11.68H18.0328C18.0728 11.68 18.1468 11.681 18.2548 11.683C18.3648 11.685 18.4698 11.693 18.5698 11.707C18.9078 11.749 19.1918 11.87 19.4218 12.07C19.6538 12.27 19.8288 12.524 19.9468 12.832C20.0648 13.138 20.1238 13.474 20.1238 13.84C20.1238 14.208 20.0648 14.546 19.9468 14.854C19.8288 15.16 19.6538 15.413 19.4218 15.613C19.1918 15.811 18.9078 15.931 18.5698 15.973C18.4698 15.987 18.3648 15.995 18.2548 15.997C18.1468 15.999 18.0728 16 18.0328 16H16.6798ZM17.3218 15.403H18.0328C18.1008 15.403 18.1818 15.401 18.2758 15.397C18.3698 15.393 18.4528 15.385 18.5248 15.373C18.7448 15.331 18.9228 15.236 19.0588 15.088C19.1968 14.938 19.2978 14.754 19.3618 14.536C19.4258 14.318 19.4578 14.086 19.4578 13.84C19.4578 13.586 19.4248 13.351 19.3588 13.135C19.2928 12.917 19.1908 12.735 19.0528 12.589C18.9168 12.441 18.7408 12.347 18.5248 12.307C18.4528 12.293 18.3688 12.285 18.2728 12.283C18.1788 12.279 18.0988 12.277 18.0328 12.277H17.3218V15.403ZM20.8223 16V11.68H23.3813V12.307H21.4493V13.525H23.0213V14.155H21.4493V16H20.8223Z" fill="#4C4C4C"/>
</svg>
