<svg width="21" height="21" viewBox="0 0 21 21" fill="none" xmlns="http://www.w3.org/2000/svg">
<g id="warning">
<path id="Triangle" fill-rule="evenodd" clip-rule="evenodd" d="M8.71114 3.57771C9.44819 2.10361 11.5518 2.10361 12.2889 3.57771L19.5528 18.1056C20.2177 19.4354 19.2507 21 17.7639 21H3.23607C1.7493 21 0.782313 19.4354 1.44721 18.1056L8.71114 3.57771Z" fill="#F7641F"/>
<g id="!">
<path id="Shape" fill-rule="evenodd" clip-rule="evenodd" d="M9.55469 10.2969L9.80469 14.0391C9.85156 14.5234 9.92969 14.8841 10.0391 15.1211C10.1484 15.3581 10.3438 15.4766 10.625 15.4766C10.901 15.4766 11.099 15.3542 11.2188 15.1094C11.3385 14.8646 11.4167 14.513 11.4531 14.0547L11.7891 10.2031C11.8255 9.84896 11.8438 9.5 11.8438 9.15625C11.8438 8.57292 11.7682 8.1263 11.6172 7.81641C11.4661 7.50651 11.1667 7.35156 10.7188 7.35156C10.349 7.35156 10.0508 7.47266 9.82422 7.71484C9.59766 7.95703 9.48438 8.29427 9.48438 8.72656C9.48438 9.04427 9.50781 9.56771 9.55469 10.2969ZM9.83984 18.8711C10.0768 19.0768 10.3542 19.1797 10.6719 19.1797C10.9844 19.1797 11.2578 19.0755 11.4922 18.8672C11.7266 18.6589 11.8438 18.3724 11.8438 18.0078C11.8438 17.6849 11.7279 17.4102 11.4961 17.1836C11.2643 16.957 10.9844 16.8438 10.6562 16.8438C10.3281 16.8438 10.0508 16.957 9.82422 17.1836C9.59766 17.4102 9.48438 17.6849 9.48438 18.0078C9.48438 18.3776 9.60286 18.6654 9.83984 18.8711Z" fill="white"/>
</g>
</g>
</svg>
