<svg width="37" height="37" viewBox="0 0 37 37" fill="none" xmlns="http://www.w3.org/2000/svg">
<g id="pin">
<path id="Vector" d="M13.5 31C9.1671 27.2353 7 23.7843 7 20.6471C7 15.9412 11.7892 15 13.5 15C15.2108 15 20 16.2549 20 20.6471C20 23.5747 17.8329 27.0257 13.5 31Z" stroke="#4C4C4C" stroke-width="1.2208"/>
<path id="Vector_2" d="M13.5 24C14.8807 24 16 22.8807 16 21.5C16 20.1193 14.8807 19 13.5 19C12.1193 19 11 20.1193 11 21.5C11 22.8807 12.1193 24 13.5 24Z" fill="#4C4C4C"/>
<rect id="Rectangle 2171" x="8.75" y="7.75" width="19.5" height="4.5" rx="1.25" stroke="#4C4C4C" stroke-width="1.5"/>
<path id="Rectangle 2172" d="M27.0001 20.25H20.3579C20.3548 20.2248 20.3515 20.199 20.348 20.1729C20.279 19.6629 20.1163 18.9703 19.7413 18.2253C19.3166 17.3816 18.6353 16.5022 17.5652 15.75H27.0001C27.6904 15.75 28.2501 16.3096 28.2501 17V19C28.2501 19.6904 27.6904 20.25 27.0001 20.25Z" stroke="#4C4C4C" stroke-width="1.5"/>
<path id="Rectangle 2173" d="M16.5 28.25L19.875 23.75H27C27.6904 23.75 28.25 24.3096 28.25 25V27C28.25 27.6904 27.6904 28.25 27 28.25H16.5Z" stroke="#4C4C4C" stroke-width="1.5"/>
</g>
</svg>
