<svg width="47" height="47" viewBox="0 0 47 47" fill="none" xmlns="http://www.w3.org/2000/svg">
<g id="Group 3 Copy">
<path id="Rectangle" fill-rule="evenodd" clip-rule="evenodd" d="M0 23.5C0 10.5213 10.5213 0 23.5 0C36.4787 0 47 10.5213 47 23.5C47 36.4787 36.4787 47 23.5 47C10.5213 47 0 36.4787 0 23.5Z" fill="#01C671"/>
<g id="palomilla2">
<path id="Path" d="M21.1901 31.6532C20.961 31.8758 20.6484 32 20.3237 32C19.999 32 19.6865 31.8758 19.4574 31.6532L12.5385 24.9693C11.8205 24.2758 11.8205 23.1512 12.5385 22.4589L13.4049 21.6219C14.1231 20.9284 15.2861 20.9284 16.0041 21.6219L20.3237 25.7944L31.9959 14.5201C32.7141 13.8266 33.8782 13.8266 34.5951 14.5201L35.4615 15.3572C36.1795 16.0507 36.1795 17.1751 35.4615 17.8675L21.1901 31.6532Z" fill="white"/>
</g>
</g>
</svg>
