<svg width="34" height="34" viewBox="0 0 34 34" fill="none" xmlns="http://www.w3.org/2000/svg">
<g id="listas_seg">
<path id="Vector" d="M20.4695 4.64884H24.7228C25.4476 4.64884 26.1093 4.94636 26.5889 5.42478L26.5913 5.42716C27.0697 5.90557 27.366 6.56726 27.366 7.29202V28.5254C27.366 29.2501 27.0685 29.9118 26.5901 30.3902L26.5877 30.3926C26.1093 30.871 25.4476 31.1674 24.7228 31.1674H6.89318C6.16604 31.1674 5.50435 30.8698 5.02594 30.3914C4.54753 29.913 4.25 29.2513 4.25 28.5242V7.29084C4.25 6.5637 4.54752 5.90201 5.02594 5.4236C5.50435 4.94519 6.16604 4.64766 6.89318 4.64766H11.1453V4.38108C11.1453 3.95504 11.3191 3.56825 11.5988 3.28741C11.8784 3.00774 12.2664 2.83398 12.6924 2.83398H18.9224C19.3485 2.83398 19.7353 3.00774 20.0161 3.28741C20.2958 3.56708 20.4695 3.95504 20.4695 4.38108L20.4695 4.64884ZM7.67737 14.5266C7.49886 14.348 7.49886 14.0588 7.67737 13.8803C7.85589 13.7018 8.14509 13.7018 8.32359 13.8803L8.93529 14.492L10.4633 12.964C10.6419 12.7855 10.9311 12.7855 11.1096 12.964C11.2881 13.1425 11.2881 13.4317 11.1096 13.6102L9.25899 15.4608C9.08048 15.6393 8.79127 15.6393 8.61277 15.4608L7.67856 14.5266H7.67737ZM12.9721 10.2969C12.7198 10.2969 12.5151 10.0923 12.5151 9.83996C12.5151 9.58766 12.7198 9.38297 12.9721 9.38297H23.6151C23.8674 9.38297 24.0721 9.58766 24.0721 9.83996C24.0721 10.0923 23.8674 10.2969 23.6151 10.2969H12.9721ZM8.00123 10.2969C7.74893 10.2969 7.54424 10.0923 7.54424 9.83996C7.54424 9.58766 7.74893 9.38297 8.00123 9.38297H10.786C11.0383 9.38297 11.243 9.58766 11.243 9.83996C11.243 10.0923 11.0383 10.2969 10.786 10.2969H8.00123ZM12.9721 27.7887C12.7198 27.7887 12.5151 27.584 12.5151 27.3318C12.5151 27.0795 12.7198 26.8748 12.9721 26.8748H23.6151C23.8674 26.8748 24.0721 27.0795 24.0721 27.3318C24.0721 27.584 23.8674 27.7887 23.6151 27.7887H12.9721ZM8.00123 27.7887C7.74893 27.7887 7.54424 27.584 7.54424 27.3318C7.54424 27.0795 7.74893 26.8748 8.00123 26.8748H10.786C11.0383 26.8748 11.243 27.0795 11.243 27.3318C11.243 27.584 11.0383 27.7887 10.786 27.7887H8.00123ZM12.9721 23.4163C12.7198 23.4163 12.5151 23.2116 12.5151 22.9593C12.5151 22.707 12.7198 22.5023 12.9721 22.5023H23.6151C23.8674 22.5023 24.0721 22.707 24.0721 22.9593C24.0721 23.2116 23.8674 23.4163 23.6151 23.4163H12.9721ZM8.00123 23.4163C7.74893 23.4163 7.54424 23.2116 7.54424 22.9593C7.54424 22.707 7.74893 22.5023 8.00123 22.5023H10.786C11.0383 22.5023 11.243 22.707 11.243 22.9593C11.243 23.2116 11.0383 23.4163 10.786 23.4163H8.00123ZM12.9721 14.6704C12.7198 14.6704 12.5151 14.4657 12.5151 14.2134C12.5151 13.9611 12.7198 13.7564 12.9721 13.7564H23.6151C23.8674 13.7564 24.0721 13.9611 24.0721 14.2134C24.0721 14.4657 23.8674 14.6704 23.6151 14.6704H12.9721ZM12.9721 19.0438C12.7198 19.0438 12.5151 18.8391 12.5151 18.5868C12.5151 18.3345 12.7198 18.1298 12.9721 18.1298H23.6151C23.8674 18.1298 24.0721 18.3345 24.0721 18.5868C24.0721 18.8391 23.8674 19.0438 23.6151 19.0438H12.9721ZM8.00123 19.0438C7.74893 19.0438 7.54424 18.8391 7.54424 18.5868C7.54424 18.3345 7.74893 18.1298 8.00123 18.1298H10.786C11.0383 18.1298 11.243 18.3345 11.243 18.5868C11.243 18.8391 11.0383 19.0438 10.786 19.0438H8.00123ZM11.1465 5.56374H6.89439C6.41955 5.56374 5.98635 5.75891 5.67338 6.07191C5.3604 6.38491 5.1652 6.81809 5.1652 7.29293V28.5263C5.1652 29.0011 5.36037 29.4343 5.67338 29.7473C5.98635 30.0603 6.41955 30.2555 6.89439 30.2555H24.7241C25.2001 30.2555 25.6333 30.0615 25.9451 29.7485C26.2592 29.4343 26.4533 29.0023 26.4533 28.5263V7.29293C26.4533 6.8169 26.2593 6.3837 25.9463 6.07191C25.6321 5.75775 25.2001 5.56374 24.7229 5.56374H20.4695V5.82912C20.4695 6.25516 20.2946 6.64315 20.0149 6.9228L19.9851 6.95017C19.7078 7.21437 19.3318 7.37739 18.9224 7.37739H12.6924C12.2687 7.37739 11.8807 7.20245 11.6011 6.92278C11.3202 6.6443 11.1465 6.25633 11.1465 5.8303L11.1465 5.56374ZM18.9236 3.75006H12.6936C12.5199 3.75006 12.3616 3.82147 12.2461 3.93572C12.1319 4.04996 12.0605 4.20943 12.0605 4.3832V5.82915C12.0605 6.0029 12.1319 6.16117 12.2473 6.27664C12.3604 6.39208 12.5198 6.46348 12.6936 6.46348H18.9236C19.089 6.46348 19.2402 6.39922 19.352 6.29687L19.3699 6.27783C19.4841 6.16358 19.5567 6.00411 19.5567 5.83034V4.38439C19.5567 4.21064 19.4853 4.05237 19.371 3.9369C19.2568 3.82266 19.0973 3.75125 18.9236 3.75125L18.9236 3.75006Z" fill="#4C4C4C" stroke="#4C4C4C" stroke-width="0.708334"/>
</g>
</svg>
