<svg width="36" height="36" viewBox="0 0 36 36" fill="none" xmlns="http://www.w3.org/2000/svg">
<g id="icon/navigation/file-text">
<path id="Shape" fill-rule="evenodd" clip-rule="evenodd" d="M24.75 3C27.6495 3 30 5.35051 30 8.25V27.75C30 30.6495 27.6495 33 24.75 33H11.25C8.35051 33 6 30.6495 6 27.75V8.25C6 5.35051 8.35051 3 11.25 3H24.75ZM24.75 4.8H11.25C9.34462 4.8 7.8 6.34462 7.8 8.25V27.75C7.8 29.6554 9.34462 31.2 11.25 31.2H24.75C26.6554 31.2 28.2 29.6554 28.2 27.75V8.25C28.2 6.34462 26.6554 4.8 24.75 4.8ZM24.75 22.35C25.2471 22.35 25.65 22.7529 25.65 23.25C25.65 23.7471 25.2471 24.15 24.75 24.15H11.25C10.7529 24.15 10.35 23.7471 10.35 23.25C10.35 22.7529 10.7529 22.35 11.25 22.35H24.75ZM21.75 16.35C22.2471 16.35 22.65 16.7529 22.65 17.25C22.65 17.7471 22.2471 18.15 21.75 18.15H11.25C10.7529 18.15 10.35 17.7471 10.35 17.25C10.35 16.7529 10.7529 16.35 11.25 16.35H21.75ZM24.75 10.35C25.2471 10.35 25.65 10.7529 25.65 11.25C25.65 11.7471 25.2471 12.15 24.75 12.15H11.25C10.7529 12.15 10.35 11.7471 10.35 11.25C10.35 10.7529 10.7529 10.35 11.25 10.35H24.75Z" fill="#4C4C4C"/>
</g>
</svg>
