<svg width="12" height="15" viewBox="0 0 12 15" xmlns="http://www.w3.org/2000/svg">
    <g fill="#DB3B2B" fillRule="nonzero">
        <path d="M8.406 11.266H3.593a.394.394 0 0 1-.39-.343c-.07-.534-.315-.771-.721-1.164l-.094-.09C1.703 9 .765 8.086.765 5.91c0-1.396.555-2.667 1.563-3.58C3.293 1.458 4.597.978 6 .978s2.707.48 3.672 1.353a4.777 4.777 0 0 1 .998 1.276 4.725 4.725 0 0 1 .337.802c.151.479.228.984.228 1.502 0 .908-.16 1.666-.488 2.316a4.002 4.002 0 0 1-.317.524 4.623 4.623 0 0 1-.276.349c-.183.211-.372.395-.54.557l-.099.096c-.405.39-.65.626-.718 1.168a.394.394 0 0 1-.39.345zm-4.49-.788h4.166c.162-.595.516-.936.886-1.293l.097-.093c.164-.159.333-.323.494-.508a3.848 3.848 0 0 0 .283-.369 3.263 3.263 0 0 0 .201-.343c.272-.538.404-1.18.404-1.96a4.188 4.188 0 0 0-.297-1.559 3.94 3.94 0 0 0-1.007-1.437c-.82-.742-1.936-1.15-3.143-1.15-1.207 0-2.324.408-3.143 1.15-.84.761-1.304 1.825-1.304 2.995 0 1.843.736 2.56 1.386 3.193l.09.088c.37.358.723.699.886 1.286z"/>
        <path d="M6 11.473a.394.394 0 0 1-.394-.394V8.278a.394.394 0 1 1 .788 0v2.801a.394.394 0 0 1-.394.394z"/>
        <path d="M6 8.812a.393.393 0 0 1-.279-.116L4.017 6.993a.394.394 0 0 1 .558-.558L6 7.86l1.425-1.425a.394.394 0 0 1 .558.558L6.279 8.696A.393.393 0 0 1 6 8.812zM10.776 1.618a.393.393 0 0 1-.279-.673l.83-.83a.394.394 0 0 1 .558.558l-.83.83a.393.393 0 0 1-.279.115zM1.224 1.618a.393.393 0 0 1-.279-.115l-.83-.83A.394.394 0 0 1 .673.115l.83.83a.394.394 0 0 1-.28.673zM11.606 11.73a.393.393 0 0 1-.279-.116l-.83-.83a.394.394 0 0 1 .558-.557l.83.83a.394.394 0 0 1-.28.673zM.394 11.73a.393.393 0 0 1-.279-.673l.83-.83a.394.394 0 0 1 .558.558l-.83.83a.393.393 0 0 1-.279.115zM6 14.295a2.05 2.05 0 0 1-2.012-1.675 1.195 1.195 0 0 1-.957-1.17v-.944c0-.218.177-.394.394-.394h5.15c.217 0 .394.176.394.394v.944c0 .577-.412 1.06-.957 1.17A2.05 2.05 0 0 1 6 14.295zM3.82 10.9v.55c0 .223.181.405.404.405h.124c.218 0 .394.176.394.394 0 .693.565 1.257 1.258 1.257a1.26 1.26 0 0 0 1.258-1.257c0-.217.176-.394.394-.394h.124a.405.405 0 0 0 .405-.405v-.55H3.819z"/>
    </g>
</svg>
