<svg width="25" height="25" viewBox="0 0 25 25" fill="none" xmlns="http://www.w3.org/2000/svg">
<path d="M3.63956 3.74805H16.7305L13.8214 22.748L0.730469 20.1805L3.63956 3.74805Z" fill="white"/>
<path fill-rule="evenodd" clip-rule="evenodd" d="M19.4074 3.97656C21.0642 3.97656 22.4074 5.31971 22.4074 6.97656V18.1194C22.4074 19.7763 21.0642 21.1194 19.4074 21.1194H4.83594C3.17908 21.1194 1.83594 19.7763 1.83594 18.1194L1.83594 6.97656C1.83594 5.31971 3.17908 3.97656 4.83594 3.97656L19.4074 3.97656ZM19.4074 5.00513H4.83594C3.74715 5.00513 2.86451 5.88777 2.86451 6.97656V18.1194C2.86451 19.2082 3.74715 20.0908 4.83594 20.0908H19.4074C20.4962 20.0908 21.3788 19.2082 21.3788 18.1194V6.97656C21.3788 5.88777 20.4962 5.00513 19.4074 5.00513Z" fill="#4C4C4C"/>
<path fill-rule="evenodd" clip-rule="evenodd" d="M8.6389 9.97828C8.86975 9.96364 9.09672 10.0429 9.26824 10.1981L15.3642 15.7135L20.827 11.3432V12.6937V12.6814L15.9788 16.4051L18.9038 18.916L17.6931 18.9418L17.2645 18.9691L8.77098 11.2029L6.1606 14.2326L3.55022 17.2623V16.8337L3.52344 15.548L8.04238 10.2759C8.19292 10.1003 8.40805 9.99293 8.6389 9.97828Z" fill="#4C4C4C"/>
<circle cx="17.6917" cy="8.69168" r="1.64286" stroke="#4C4C4C"/>
</svg>
