<svg width="16" height="16" viewBox="0 0 16 16" xmlns="http://www.w3.org/2000/svg">
    <g fill="#DB3B2B" fillRule="nonzero">
        <path d="M8.309.04c-.32.162-.367.596-.091.807.1.074.178.094.528.135 2.68.313 4.922 2.058 5.857 4.563a7.159 7.159 0 0 1 .222 4.182 7.077 7.077 0 0 1-5.87 5.242c-.519.07-1.386.07-1.897 0A7.168 7.168 0 0 1 2.505 12.4c-.245-.296-.356-.376-.524-.376-.33 0-.558.282-.474.595.07.255.864 1.14 1.432 1.59a8.186 8.186 0 0 0 4.062 1.732 9.911 9.911 0 0 0 1.997 0 8.117 8.117 0 0 0 3.843-1.57c.41-.306 1.234-1.13 1.54-1.54a8.083 8.083 0 0 0 1.57-3.843c.057-.458.067-1.39.014-1.867a7.997 7.997 0 0 0-2.216-4.693C12.525 1.167 11.036.377 9.338.09 8.732-.01 8.44-.027 8.308.04zM5.41.403c-.783.273-1.64.713-1.849.949-.198.225-.128.568.145.72.181.103.333.077.652-.118A8.12 8.12 0 0 1 5.7 1.33c.208-.07.41-.147.447-.164.188-.101.265-.464.14-.656C6.124.262 5.902.232 5.41.403zM1.853 3.013a.541.541 0 0 0-.212.12C1.392 3.374.844 4.31.585 4.947c-.161.387-.154.568.024.746.202.202.49.189.686-.03.04-.04.134-.225.212-.41.175-.427.383-.807.696-1.271.195-.293.249-.397.249-.494a.485.485 0 0 0-.599-.474z"/>
        <path d="M5.696 4.875c-.36.115-.595.316-.746.643l-.094.201v4.54l.097.208c.114.252.32.45.585.575l.192.09 2.199.01c1.93.007 2.222.004 2.384-.043.343-.1.581-.306.736-.639l.094-.202V5.72l-.094-.201a1.117 1.117 0 0 0-.73-.636c-.158-.047-.46-.054-2.333-.05-1.644 0-2.189.01-2.29.043zm.958 1.483c0 .605.014.662.192.83.05.051.138.108.188.125.058.024.434.037.965.037.532 0 .908-.013.965-.037a.608.608 0 0 0 .189-.124c.178-.169.191-.226.191-.83v-.556h.36c.286 0 .37.01.42.057.057.05.06.162.06 2.122 0 1.88-.006 2.075-.056 2.132-.05.057-.162.06-2.122.06-1.88 0-2.074-.006-2.132-.057-.057-.05-.06-.161-.06-2.121 0-1.88.007-2.075.057-2.132.047-.05.108-.06.42-.06h.363v.554zm1.749-.269v.286h-.807v-.572h.807v.286zM.209 7.585c-.199.121-.225.219-.202.807.027.693.198 1.671.346 1.957.155.296.646.306.82.017.088-.141.085-.286-.016-.703a8.69 8.69 0 0 1-.202-1.456c-.013-.215-.043-.406-.07-.46-.07-.138-.239-.229-.417-.229a.528.528 0 0 0-.26.067z"/>
    </g>
</svg>
