<svg width="24" height="24" viewBox="0 0 24 24" fill="none" xmlns="http://www.w3.org/2000/svg">
<g id="lock">
<path id="Vector" d="M18.65 9.4L8.15 9.4L8.15 6.25C8.15 3.9302 10.0302 2.05 12.35 2.05C14.6698 2.05 16.55 4.21696 16.55 6.53676V9.4L17.6201 10.0058L17.6 6.53676C17.6 3.64192 15.2448 1 12.35 1C9.45516 1 7.1 3.35516 7.1 6.25L7.1 9.4H6.05C5.47004 9.4 5 9.87004 5 10.45L5 20.95C5 21.53 5.47004 22 6.05 22L18.65 22C19.23 22 19.7 21.53 19.7 20.95L19.7 10.45C19.7 9.87004 19.23 9.4 18.65 9.4ZM18.65 20.95L6.05 20.95L6.05 10.45L18.65 10.45L18.65 20.95Z" fill="#C3C3C3"/>
</g>
</svg>
