<svg width="16" height="16" viewBox="0 0 16 16" fill="none" xmlns="http://www.w3.org/2000/svg">
<g id="lupa">
<g id="Shape">
<path fill-rule="evenodd" clip-rule="evenodd" d="M10.6548 10.2562L14.9145 14.5188C15.0285 14.6327 15.0285 14.8174 14.9146 14.9315C14.8576 14.9884 14.783 15.017 14.7083 15.017C14.6337 15.017 14.5591 14.9884 14.5021 14.9315L10.2423 10.6689C9.25994 11.5543 7.96472 12.0984 6.54167 12.0984C3.48601 12.0984 1 9.61077 1 6.55311C1 3.49545 3.48601 1.00781 6.54167 1.00781C9.59733 1.00781 12.0833 3.49545 12.0833 6.55308C12.0833 7.97706 11.5396 9.27315 10.6548 10.2562ZM1.58335 6.55311C1.58335 9.28897 3.80787 11.5147 6.54167 11.5147C9.27547 11.5147 11.5 9.289 11.5 6.55311C11.5 3.81722 9.27547 1.59152 6.54167 1.59152C3.80787 1.59152 1.58335 3.81725 1.58335 6.55311Z" fill="black"/>
<path d="M14.9145 14.5188L14.7377 14.6955L14.7377 14.6955L14.9145 14.5188ZM10.6548 10.2562L10.469 10.0889L10.3103 10.2652L10.4779 10.4329L10.6548 10.2562ZM14.9146 14.9315L15.0914 15.1082L15.0914 15.1082L14.9146 14.9315ZM14.5021 14.9315L14.3253 15.1082L14.5021 14.9315ZM10.2423 10.6689L10.4192 10.4922L10.2513 10.3242L10.075 10.4832L10.2423 10.6689ZM12.0833 6.55308H12.3333V6.55308L12.0833 6.55308ZM15.0914 14.342L10.8316 10.0795L10.4779 10.4329L14.7377 14.6955L15.0914 14.342ZM15.0914 15.1082C15.3029 14.8965 15.3029 14.5536 15.0914 14.342L14.7377 14.6955C14.7541 14.7119 14.7541 14.7383 14.7377 14.7548L15.0914 15.1082ZM14.7083 15.267C14.8467 15.267 14.9857 15.2139 15.0914 15.1082L14.7378 14.7547C14.7295 14.763 14.7192 14.767 14.7083 14.767V15.267ZM14.3253 15.1082C14.431 15.2139 14.57 15.267 14.7083 15.267V14.767C14.6974 14.767 14.6872 14.763 14.6789 14.7547L14.3253 15.1082ZM10.0655 10.8456L14.3253 15.1082L14.6789 14.7547L10.4192 10.4922L10.0655 10.8456ZM6.54167 12.3484C8.02989 12.3484 9.38393 11.7791 10.4097 10.8546L10.075 10.4832C9.13595 11.3295 7.89956 11.8484 6.54167 11.8484V12.3484ZM0.75 6.55311C0.75 9.74869 3.34778 12.3484 6.54167 12.3484V11.8484C3.62424 11.8484 1.25 9.47285 1.25 6.55311H0.75ZM6.54167 0.757812C3.34778 0.757812 0.75 3.35753 0.75 6.55311H1.25C1.25 3.63337 3.62424 1.25781 6.54167 1.25781V0.757812ZM12.3333 6.55308C12.3333 3.35753 9.73556 0.757812 6.54167 0.757812V1.25781C9.45911 1.25781 11.8333 3.63336 11.8333 6.55308L12.3333 6.55308ZM10.8406 10.4234C11.7644 9.39701 12.3333 8.04213 12.3333 6.55308H11.8333C11.8333 7.912 11.3147 9.1493 10.469 10.0889L10.8406 10.4234ZM6.54167 11.2647C3.94609 11.2647 1.83335 9.15104 1.83335 6.55311H1.33335C1.33335 9.4269 3.66966 11.7647 6.54167 11.7647V11.2647ZM11.25 6.55311C11.25 9.15107 9.13725 11.2647 6.54167 11.2647V11.7647C9.41368 11.7647 11.75 9.42692 11.75 6.55311H11.25ZM6.54167 1.84152C9.13725 1.84152 11.25 3.95515 11.25 6.55311H11.75C11.75 3.6793 9.41369 1.34152 6.54167 1.34152V1.84152ZM1.83335 6.55311C1.83335 3.95517 3.94609 1.84152 6.54167 1.84152V1.34152C3.66965 1.34152 1.33335 3.67932 1.33335 6.55311H1.83335Z" fill="#C3C3C3"/>
</g>
</g>
</svg>
