<svg width="20" height="20" viewBox="0 0 20 20" fill="none" xmlns="http://www.w3.org/2000/svg">
<g id="media">
<path id="Vector (Stroke)" fill-rule="evenodd" clip-rule="evenodd" d="M8.51041 10.9333C8.6643 10.9235 8.81562 10.9764 8.92997 11.0798L12.9939 14.7567L16.6358 11.8432V12.9166L16.6667 13.3333L13.75 15.4166L15.3537 16.8918L14.5465 16.9089L14.2608 16.9272L8.59846 12.0391L6.85821 14.0589L5.11795 16.0787V15.5036L5.1001 14.6464L8.11273 11.1317C8.21309 11.0146 8.35651 10.943 8.51041 10.9333Z" fill="#4C4C4C"/>
<circle id="Ellipse 2" cx="13.7137" cy="9.09508" r="1.02857" stroke="#4C4C4C" stroke-width="0.8"/>
<rect id="Rectangle 2219" x="5.55" y="6.3835" width="10.5667" height="10.5667" rx="1.45" stroke="#4C4C4C" stroke-width="1.1"/>
<path id="Rectangle 2220" d="M15.0002 5.62484V5.62484C15.0002 4.81942 14.3472 4.1665 13.5418 4.1665H9.16683H5.3335C4.22893 4.1665 3.3335 5.06194 3.3335 6.16651V14.3748C3.3335 15.1803 3.98641 15.8332 4.79183 15.8332V15.8332" stroke="#4C4C4C" stroke-width="1.1"/>
</g>
</svg>
