<svg width="20" height="20" viewBox="0 0 20 20" fill="none" xmlns="http://www.w3.org/2000/svg">
<g id="text edit icon /negrita ">
<path id="Shape" fill-rule="evenodd" clip-rule="evenodd" d="M11.891 17.4999C14.747 17.4999 16.2539 15.7009 16.2539 13.452C16.2539 11.5629 14.972 10.0111 13.3752 9.76387C14.792 9.47146 15.9615 8.21205 15.9615 6.32295C15.9615 4.3215 14.4996 2.5 11.6436 2.5H5.35634C4.46927 2.5 3.75 3.21909 3.75 4.10634V15.8937C3.75 16.7807 4.46927 17.5 5.35634 17.5L11.891 17.4999ZM10.9465 8.52689H7.58612C7.23115 8.52689 6.94359 8.23933 6.94359 7.88436V5.86372C6.94359 5.50875 7.23115 5.22119 7.58612 5.22119H10.9465C12.026 5.22119 12.7006 5.94083 12.7006 6.86286C12.7006 7.82988 12.026 8.52694 10.9465 8.52694V8.52689ZM7.58613 14.7788H11.0589C12.2734 14.7788 12.993 14.0816 12.993 13.0021C12.993 12.0577 12.3184 11.248 11.0589 11.248H7.58613C7.23116 11.248 6.9436 11.5356 6.9436 11.8906V14.1362C6.9436 14.491 7.23116 14.7788 7.58613 14.7788Z" fill="#DB3B2B"/>
</g>
</svg>
