<svg width="24" height="24" viewBox="0 0 24 24" fill="none" xmlns="http://www.w3.org/2000/svg">
    <path
        d="M9.14645 14.1464C8.95118 14.3417 8.95118 14.6583 9.14645 14.8536C9.34171 15.0488 9.65829 15.0488 9.85355 14.8536L9.14645 14.1464ZM12.3536 12.3536C12.5488 12.1583 12.5488 11.8417 12.3536 11.6464C12.1583 11.4512 11.8417 11.4512 11.6464 11.6464L12.3536 12.3536ZM13.3134 9.97978C13.1182 10.175 13.1182 10.4916 13.3134 10.6869C13.5087 10.8821 13.8253 10.8821 14.0205 10.6869L13.3134 9.97978ZM14.8539 9.85355C15.0491 9.65829 15.0491 9.34171 14.8539 9.14645C14.6586 8.95118 14.342 8.95118 14.1468 9.14645L14.8539 9.85355ZM9.85355 14.8536L12.3536 12.3536L11.6464 11.6464L9.14645 14.1464L9.85355 14.8536ZM14.0205 10.6869L14.8539 9.85355L14.1468 9.14645L13.3134 9.97978L14.0205 10.6869Z"
        fill="currentColor" />
    <path
        d="M11.167 7.00005L11.5528 6.55338C13.1802 4.92622 15.8186 4.9264 17.4457 6.5538C19.0729 8.1812 19.0727 10.8195 17.4453 12.4467L17.0003 12.8334"
        stroke="currentColor" stroke-linecap="round" stroke-linejoin="round" />
    <path d="M4.5 4.5L19.5 19.5" stroke="currentColor" stroke-linecap="round" stroke-linejoin="round" />
    <path
        d="M12.8331 17L12.5023 17.445C10.8569 19.072 8.20853 19.072 6.56313 17.445C5.77597 16.6666 5.33301 15.6057 5.33301 14.4987C5.33301 13.3917 5.77597 12.3308 6.56313 11.5525L6.99979 11.1666"
        stroke="currentColor" stroke-linecap="round" stroke-linejoin="round" />
</svg>