<svg width="25" height="24" viewBox="0 0 25 24" fill="none" xmlns="http://www.w3.org/2000/svg">
  <path
    d="M19.15 9.4H8.65V6.25C8.65 3.9302 10.5302 2.05 12.85 2.05C15.1698 2.05 17.05 4.21696 17.05 6.53676V9.4L18.1201 10.0058L18.1 6.53676C18.1 3.64192 15.7448 1 12.85 1C9.95516 1 7.6 3.35516 7.6 6.25V9.4H6.55C5.97004 9.4 5.5 9.87004 5.5 10.45V20.95C5.5 21.53 5.97004 22 6.55 22H19.15C19.73 22 20.2 21.53 20.2 20.95V10.45C20.2 9.87004 19.73 9.4 19.15 9.4ZM19.15 20.95H6.55V10.45H19.15V20.95Z"
    fill="currentColor" />
</svg>