<svg width="16" height="16" viewBox="0 0 16 16" fill="none" xmlns="http://www.w3.org/2000/svg">
<path fill-rule="evenodd" clip-rule="evenodd" d="M6.98638 3.54167V3.88889H9.06971V3.54167C9.06971 2.84722 8.72249 2.5 8.02805 2.5C7.3336 2.5 6.98638 2.84722 6.98638 3.54167ZM3.16672 12.2222H12.8889C11.963 11.5812 11.5001 10.8334 11.5001 9.97866V6.77353C11.5001 4.85045 10.3426 3.88892 8.02783 3.88892C5.71301 3.88892 4.55561 4.95729 4.55561 7.09404V9.97866C4.55561 10.8334 4.09264 11.5812 3.16672 12.2222ZM6.63937 12.5694C6.63937 13.7268 7.10234 14.3055 8.02826 14.3055C8.95419 14.3055 9.41715 13.7268 9.41715 12.5694H6.63937Z" fill="#4C4C4C"/>
</svg>
