<svg width="171" height="125" viewBox="0 0 171 125" xmlns="http://www.w3.org/2000/svg">
    <g fill="none" fillRule="evenodd">
        <path fill="#FFF" fillRule="nonzero" d="M0 0h171v125H0z"/>
        <path d="M88.479 32.083c11 8.3 32.749 4.23 34.92 17.125 2.316 13.044-2.316 27.125-9.553 39.427-7.237 12.451-17.225 22.975-29.239 27.57-12.158 4.595-26.343 3.26-38.647-2.075-12.303-5.336-22.725-14.378-26.344-25.346-3.618-10.969-.434-23.716 2.461-35.87 2.895-12.155 5.356-23.716 12.448-32.757C41.618 11.263 43.072 4.074 65.211 4c22.14-.074 12.412 19.782 23.268 28.083z" fill="#F9F9F9" fillRule="nonzero"/>
        <g transform="translate(17 34)" fillRule="nonzero">
            <path fill="#FFF" d="m26.55 66.35 3.804-13.01h22.283l4.347 13.01"/>
            <path fill="#E1E1E1" d="m28.492 59.845 3.319-6.505h19.438l3.793 6.505"/>
            <rect fill="#FFF" x=".648" y=".65" width="81.705" height="53.313" rx="10"/>
            <path d="M75.877 0C79.81 0 83 3.204 83 7.155V47.46c0 3.952-3.19 7.155-7.123 7.155H7.123C3.19 54.614 0 51.411 0 47.46V7.155C0 3.204 3.19 0 7.123 0h68.754zm0 1.301H7.123c-3.219 0-5.828 2.621-5.828 5.854V47.46c0 3.233 2.61 5.854 5.828 5.854h68.754c3.219 0 5.828-2.62 5.828-5.854V7.155c0-3.233-2.61-5.854-5.828-5.854z" fill="#ADADAD"/>
            <path d="M.648 8.456v-1.3C.648 3.562 3.547.65 7.123.65h68.754c3.576 0 6.475 2.913 6.475 6.505v1.301" fill="#E1E1E1"/>
            <path d="M75.877 0C79.81 0 83 3.204 83 7.155v1.301h-1.295v-1.3c0-3.234-2.61-5.855-5.828-5.855H7.123c-3.219 0-5.828 2.621-5.828 5.854v1.301H0v-1.3C0 3.203 3.19 0 7.123 0h68.754z" fill="#ADADAD"/>
            <path fill="#FFF" d="m52.447 53.964 4.273 11.847"/>
            <path fill="#ADADAD" d="m52.836 53.13.22.612 4.272 11.847.22.612-1.217.443-.22-.611-4.272-11.848-.221-.611z"/>
            <path fill="#FFF" d="m26.814 65.811 3.739-11.847"/>
            <path fill="#ADADAD" d="m30.131 53.147 1.235.393-.196.62-3.738 11.848-.196.62-1.234-.393.195-.62 3.738-11.848zM82.886 7.806v1.3h-.647L.915 9.11H.267v-1.3h.648l81.324-.003z"/>
            <circle fill="#ADADAD" cx="41.5" cy="4.689" r="1"/>
            <path d="M66.698 65.699c.357 0 .647.291.647.65 0 .36-.29.651-.647.651h-50.51a.649.649 0 0 1-.647-.65c0-.36.29-.651.648-.651h50.509z" fill="#ADADAD"/>
        </g>
        <path d="M101.667 93v3m-17.334 0v-3" fill="#FFF" fillRule="nonzero"/>
        <path d="M102 93v3h-1.286v-3H102zm-16.714 0v3H84v-3h1.286z" fill="#ADADAD" fillRule="nonzero"/>
        <path d="M85 56v-1.8c0-.663.585-1.2 1.308-1.2h14.384c.723 0 1.308.537 1.308 1.2V56" fill="#F5F5F5" fillRule="nonzero"/>
        <path d="M100.071 53c1.066 0 1.929.895 1.929 2v2h-1.286v-2a.655.655 0 0 0-.643-.667H85.93a.655.655 0 0 0-.643.667v2H84v-2c0-1.105.863-2 1.929-2h14.142z" fill="#4C4C4C" fillRule="nonzero"/>
        <path fill="#E1E1E1" fillRule="nonzero" d="M98 54h3v3h-3z"/>
        <path d="M82.328 95h20.343c.63 0 1.17.443 1.289 1.055l2.016 10.4a1.3 1.3 0 0 1-1.288 1.545H80.312a1.306 1.306 0 0 1-1.288-1.545l2.016-10.4A1.309 1.309 0 0 1 82.328 95z" fill="#F5F5F5" fillRule="nonzero"/>
        <path d="M103.06 95c.932 0 1.734.65 1.91 1.549l1.995 10.182c.202 1.035-.489 2.036-1.544 2.235a1.983 1.983 0 0 1-.368.034H80.946c-1.075 0-1.946-.855-1.946-1.91 0-.12.012-.24.035-.36l1.994-10.181A1.937 1.937 0 0 1 82.94 95h20.12zm0 1.273H82.94a.646.646 0 0 0-.637.516l-1.994 10.182a.643.643 0 0 0 .637.756h24.107a.637.637 0 0 0 .637-.756l-1.994-10.182a.646.646 0 0 0-.637-.516z" fill="#4A4A4A" fillRule="nonzero"/>
        <path fill="#E1E1E1" fillRule="nonzero" d="M98 96h5.714L106 108h-5.714z"/>
        <path d="M108.423 65c2.528 0 4.577 2.057 4.577 4.594v11.812c0 2.537-2.05 4.594-4.577 4.594h-7.846C98.049 86 96 83.943 96 81.406V69.594C96 67.057 98.05 65 100.577 65h7.846zm0 1.313h-7.846a3.275 3.275 0 0 0-3.27 3.28v11.813a3.275 3.275 0 0 0 3.27 3.281h7.846c1.806 0 3.27-1.469 3.27-3.28V69.593a3.275 3.275 0 0 0-3.27-3.281z" fill="#4C4C4C" fillRule="nonzero"/>
        <path stroke="#ADADAD" stroke-width="2" fill="#FFF" fillRule="nonzero" d="M78 57h31l-4.531 36H82.531z"/>
        <path d="M107 68.459 103.915 94H82.291L79 67c5.876.783 11.753 2.935 17.629 6.457 5.876 3.521 9.333 1.855 10.371-4.998z" fill="#E5F2F5" fillRule="nonzero"/>
        <path d="m109 56-.09.735-4.462 36.69-.07.575H81.622l-.07-.575-4.463-36.69L77 56h32zm-1.469 1.31H78.468l4.303 35.38h20.457l4.303-35.38z" fill="#4A4A4A" fillRule="nonzero"/>
        <path d="M88.27 69v23m0-18.4H90m-1.73 4.6H90m-1.73 4.6H90m-1.73 4.6H90" stroke="#4C4C4C" stroke-width="2" stroke-linecap="round"/>
        <path d="M111.35 57c.36 0 .65.224.65.5s-.29.5-.65.5h-35.7c-.36 0-.65-.224-.65-.5s.29-.5.65-.5h35.7z" fill="#4A4A4A" fillRule="nonzero"/>
        <circle fill="#D83C28" fillRule="nonzero" cx="93" cy="102" r="3"/>
        <path d="M123.001 74c1.68 0 2.999 1.282 2.999 2.912V78h-6v-1.088c0-1.63 1.321-2.912 3.001-2.912z" fill="#D83C28" fillRule="nonzero"/>
        <path d="m130 78 1.09-3.654A1.897 1.897 0 0 1 132.913 73h13.174c.843 0 1.585.548 1.823 1.346L149 78" fill="#E1E1E1" fillRule="nonzero"/>
        <path d="M146.343 73c1.167 0 2.195.755 2.525 1.855l1.132 3.78-1.262.365-1.133-3.78a1.313 1.313 0 0 0-1.262-.927h-13.686c-.584 0-1.098.377-1.262.928L130.262 79 129 78.635l1.132-3.78A2.626 2.626 0 0 1 132.657 73h13.686z" fill="#4C4C4C" fillRule="nonzero"/>
        <rect fill="#FFF" fillRule="nonzero" x="115" y="78" width="44" height="30" rx="4"/>
        <path d="M155.786 78A3.222 3.222 0 0 1 159 81.23v24.54c0 1.784-1.44 3.23-3.214 3.23h-38.572a3.222 3.222 0 0 1-3.214-3.23V81.23c0-1.784 1.44-3.23 3.214-3.23h38.572zm0 1.292h-38.572a1.933 1.933 0 0 0-1.928 1.937v24.542c0 1.07.863 1.937 1.928 1.937h38.572a1.933 1.933 0 0 0 1.928-1.937V81.229c0-1.07-.863-1.937-1.928-1.937z" fill="#4C4C4C" fillRule="nonzero"/>
        <path d="M159 85v-3.818c0-1.205-1.159-2.182-2.588-2.182h-38.824c-1.43 0-2.588.977-2.588 2.182V85" fill="#E1E1E1" fillRule="nonzero"/>
        <path d="M115.286 85v-4.05c0-.912.85-1.677 1.928-1.677h38.572c1.078 0 1.928.765 1.928 1.677V85H159v-4.05c0-1.643-1.452-2.95-3.214-2.95h-38.572c-1.762 0-3.214 1.307-3.214 2.95V85h1.286z" fill="#4C4C4C" fillRule="nonzero"/>
        <circle fill="#E1E1E1" fillRule="nonzero" cx="140.5" cy="93.5" r="13.5"/>
        <path fill="#FFF" fillRule="nonzero" d="M115 85.5h44"/>
        <path fill="#4C4C4C" fillRule="nonzero" d="M159 85v1h-45v-1z"/>
        <path fill="#FFF" fillRule="nonzero" d="M116 100.5h43"/>
        <path fill="#4C4C4C" fillRule="nonzero" d="M160 100v1h-45v-1z"/>
        <circle fill="#E1E1E1" fillRule="nonzero" cx="139.5" cy="93.5" r="12.5"/>
        <path d="M140 80c7.18 0 13 5.82 13 13s-5.82 13-13 13-13-5.82-13-13 5.82-13 13-13zm0 1.3c-6.462 0-11.7 5.238-11.7 11.7 0 6.462 5.238 11.7 11.7 11.7 6.462 0 11.7-5.238 11.7-11.7 0-6.462-5.238-11.7-11.7-11.7z" fill="#4C4C4C" fillRule="nonzero"/>
        <circle fill="#E5F2F5" fillRule="nonzero" cx="140" cy="93" r="9"/>
        <path d="M139.5 84a9.5 9.5 0 1 1 0 19 9.5 9.5 0 0 1 0-19zm0 1.267a8.233 8.233 0 1 0 0 16.466 8.233 8.233 0 0 0 0-16.466z" fill="#4C4C4C" fillRule="nonzero"/>
    </g>
</svg>
