<?xml version="1.0" encoding="UTF-8"?>
<svg width="25px" height="25px" viewBox="0 0 25 25" version="1.1" xmlns="http://www.w3.org/2000/svg" xmlns:xlink="http://www.w3.org/1999/xlink">
    <title>icon/pago4</title>
    <g id="Symbols" stroke="none" stroke-width="1" fill="none" fill-rule="evenodd">
        <g id="menu" transform="translate(-19, -391)" fill="#4C4C4C" fill-rule="nonzero" stroke="#4C4C4C" stroke-width="0.5">
            <g id="Pagos1" transform="translate(23, 393)">
                <path d="M1.75256588,21.8796117 C0.908737864,21.6599168 0.239667129,20.9509015 0.0599167822,20.0821082 C-0.0199722607,19.7076283 -0.0199722607,2.26185853 0.0599167822,1.88737864 C0.194729542,1.23828017 0.669070735,0.589181692 1.2332871,0.289597781 C1.76754508,0 1.75755895,0 6.20138696,0 C8.72288488,0 10.3805825,0.0199722607 10.5453537,0.0499306519 C11.4341193,0.214701803 12.2230236,1.0036061 12.3877947,1.89237171 C12.4127601,2.0371706 12.4377254,2.6962552 12.4377254,3.35533981 L12.4377254,4.54868239 L12.3128988,4.66851595 C12.1680999,4.81830791 11.9434119,4.82829404 11.7836338,4.69847434 C11.6638003,4.6036061 11.6638003,4.59361997 11.638835,3.28543689 C11.6138696,2.04216366 11.6088766,1.95728155 11.4940361,1.71262136 C11.3492372,1.38807212 10.9897365,1.04355062 10.6651872,0.918723994 C10.4255201,0.828848821 10.2357836,0.823855756 6.1963939,0.823855756 L1.97725381,0.823855756 L1.6926491,0.963661581 C1.36809986,1.12343967 1.08848821,1.40804438 0.93370319,1.74257975 L0.828848821,1.97226075 L0.828848821,10.9847434 L0.828848821,19.9972261 L0.968654646,20.2818308 C1.12843273,20.60638 1.41303745,20.8859917 1.74757282,21.0407767 C1.95728155,21.1356449 2.08210818,21.1456311 3.03578363,21.1606103 L4.08932039,21.1755895 L4.24909847,20.8760055 C4.52371706,20.3617198 4.37891817,20.3966713 6.23633842,20.3816921 C7.40970874,20.371706 7.90402219,20.3866852 8.00887656,20.4266297 C8.10873786,20.4715673 8.19861304,20.5814147 8.32343967,20.831068 L8.49819695,21.1755895 L9.48183079,21.1606103 C10.6102635,21.140638 10.8,21.0907074 11.179473,20.7062413 C11.5289875,20.3517337 11.6038835,20.1070735 11.638835,19.2832178 C11.6638003,18.6041609 11.6687933,18.5592233 11.7836338,18.4693481 C11.9434119,18.3395284 12.1680999,18.3495146 12.3128988,18.4993065 C12.4327323,18.614147 12.4377254,18.6490985 12.4377254,19.2133148 C12.4377254,19.5428571 12.4127601,19.9323162 12.3877947,20.0771151 C12.2729542,20.7062413 11.7736477,21.3803051 11.2094313,21.679889 C10.6601942,21.9744799 10.7500693,21.9694868 6.22135922,21.9644938 C2.48654646,21.9644938 2.04715673,21.9545076 1.75256588,21.8796117 Z" id="Path" transform="translate(6.2189, 10.9829) scale(-1, 1) rotate(-180) translate(-6.2189, -10.9829)"></path>
                <path d="M11.3642164,16.3469482 C10.5253814,16.2171285 9.95617198,16.0373782 9.27711512,15.6878636 C7.69431345,14.878987 6.55090153,13.3710814 6.16643551,11.583564 C6.03661581,10.9943823 6.03661581,9.77607442 6.16643551,9.18689273 C6.75062413,6.49063753 8.98252427,4.56830743 11.718724,4.41352241 C14.6596394,4.24375819 17.2760055,6.26095653 17.9101248,9.18689273 C17.9800277,9.49646277 18,9.82101201 18,10.3852284 C18,11.4936888 17.8402219,12.1827318 17.3409154,13.1463934 C16.547018,14.6992367 15.0690707,15.8376556 13.3364771,16.2321077 C12.9220527,16.3269759 11.7037448,16.3968789 11.3642164,16.3469482 Z M12.8621359,15.5031202 C15.8729542,15.0137998 17.8052705,12.0678913 17.0563107,9.11199675 C16.8316227,8.21324502 16.3972261,7.44930604 15.7381415,6.77524224 C15.2937587,6.31588024 14.9042996,6.02628246 14.3850208,5.76664307 C12.3428571,4.74306471 9.94618585,5.13252379 8.35839112,6.75027692 C7.61941748,7.49424363 7.16504854,8.35305084 6.93536755,9.41158066 C6.85048544,9.80603281 6.85048544,11.0293338 6.93536755,11.3838414 C7.20998613,12.5122741 7.659362,13.3361299 8.40332871,14.0701105 C8.85270458,14.5095002 9.1223301,14.7092228 9.68654646,14.9988206 C10.6801664,15.5081133 11.7686546,15.6828705 12.8621359,15.5031202 Z" id="Shape" transform="translate(12.0345, 10.3836) scale(-1, 1) rotate(-180) translate(-12.0345, -10.3836)"></path>
                <path d="M11.6987517,14.1014299 C11.5789182,14.0564923 11.489043,13.7918599 11.489043,13.4872829 C11.489043,13.2376296 11.4740638,13.187699 11.4041609,13.187699 C11.2294036,13.187699 10.8099861,12.9480318 10.6052705,12.73333 C10.2208044,12.3288918 10.0710125,11.809613 10.2058252,11.3352718 C10.3905687,10.7011525 10.7900139,10.3366587 11.7836338,9.89227594 C12.8221914,9.42292781 13.0768377,9.19823988 13.021914,8.78381547 C12.9869626,8.52417608 12.8821082,8.37937719 12.6524272,8.26952976 C12.1631068,8.02986263 11.5889043,8.22958523 11.0546463,8.82375999 C10.7500693,9.15829536 10.7001387,9.19324682 10.5303745,9.19324682 C10.3256588,9.19324682 10.1409154,9.01848953 10.1409154,8.82375999 C10.1409154,8.55912754 10.7101248,7.93998745 11.2294036,7.64539661 L11.5339806,7.47063933 L11.5389736,7.16606235 C11.5389736,6.91640909 11.5589459,6.84650618 11.6538141,6.756631 C11.9284327,6.49699161 12.2679612,6.69172116 12.2979196,7.1161317 L12.3128988,7.36079189 L12.5725381,7.42570174 C13.1217753,7.56550756 13.4662968,7.81516082 13.6560333,8.20961297 C13.8307906,8.57410673 13.865742,8.91363517 13.7608877,9.27313586 C13.6909847,9.51779605 13.6260749,9.61765736 13.3664355,9.87230368 C13.0618585,10.1718876 12.8421637,10.3017073 11.873509,10.736104 C11.2943135,10.9957433 10.9398058,11.3652302 10.9398058,11.6997655 C10.9398058,11.8944951 11.1545076,12.2040651 11.3642164,12.3238987 C11.6288488,12.4736906 12.2130374,12.4836768 12.5226075,12.3438709 C12.8221914,12.2040651 12.9070735,12.0542732 12.867129,11.7197378 C12.8371706,11.4850637 12.8471567,11.4351331 12.9520111,11.3152995 C13.1067961,11.1305561 13.3414702,11.125563 13.5212205,11.3003203 C13.8108183,11.5949112 13.6909847,12.4487253 13.3065187,12.7832607 C13.0818308,12.9829833 12.7772538,13.1377683 12.5226075,13.1777128 L12.3128988,13.2126643 L12.2979196,13.5621789 C12.2879334,13.8367974 12.257975,13.9366587 12.178086,14.0215409 C12.0732316,14.1313883 11.8585298,14.1663397 11.6987517,14.1014299 Z" id="Path" transform="translate(11.9804, 10.3867) scale(-1, 1) rotate(-180) translate(-11.9804, -10.3867)"></path>
            </g>
        </g>
    </g>
</svg>