<svg width="17" height="16" viewBox="0 0 17 16" fill="none" xmlns="http://www.w3.org/2000/svg">
<g id="Group 1943">
<g id="Group">
<g id="Group_2">
<path id="Vector" d="M16.3544 12.2086L13.0233 9.15096C12.6257 8.78599 11.9788 8.78599 11.5811 9.15096L10.7149 9.94608C10.4435 10.1952 10.3577 10.5509 10.4569 10.8678L10.13 11.1678C10.1299 11.1679 10.1299 11.1679 10.1298 11.168C9.89768 11.3813 8.45225 11.054 6.70503 9.45017C4.95809 7.84661 4.60142 6.52001 4.83351 6.30657C4.83351 6.30651 4.83357 6.30651 4.83357 6.30651L5.16069 6.00627C5.25303 6.03062 5.34832 6.04305 5.44368 6.04305C5.70482 6.04305 5.96593 5.95183 6.16479 5.76936L7.03099 4.97424C7.4286 4.60926 7.4286 4.01545 7.03099 3.65044L3.69995 0.592726C3.50738 0.415951 3.25128 0.318604 2.97892 0.318604C2.70648 0.318604 2.45049 0.416012 2.25788 0.592726L1.39161 1.38791C1.12021 1.63704 1.03441 1.99278 1.13352 2.3096C1.13352 2.3096 0.856474 2.56635 0.842695 2.58257C-0.0787911 3.5228 -0.25168 5.0031 0.359224 6.77295C0.957444 8.50586 2.24705 10.3416 3.99055 11.9419C5.73398 13.5423 7.73383 14.7261 9.62166 15.2753C10.38 15.4958 11.0895 15.6051 11.7337 15.6051C12.79 15.6051 13.6707 15.3111 14.302 14.7316L14.4837 14.5648C14.5747 14.5888 14.6697 14.6017 14.767 14.6017C15.0394 14.6017 15.2955 14.5043 15.4881 14.3276L16.3543 13.5324C16.7519 13.1675 16.7519 12.5736 16.3544 12.2086ZM2.97892 1.25459L6.30998 4.31234L5.44425 5.10788C5.44425 5.10788 5.44408 5.10773 5.44378 5.10746L5.43133 5.09603L3.77825 3.5786L2.11268 2.04978L2.97892 1.25459ZM13.581 14.0697C13.5809 14.0698 13.5809 14.0698 13.5808 14.0699C12.8472 14.7432 11.5506 14.8544 9.92975 14.3829C8.19482 13.8782 6.34166 12.7762 4.71169 11.28C3.08165 9.78376 1.88115 8.08273 1.33141 6.49014C0.817759 5.00228 0.938917 3.81201 1.67257 3.13852L1.67264 3.13846L1.76461 3.05404L4.34971 5.42696L4.1126 5.64461C4.11244 5.64476 4.1123 5.64494 4.1121 5.64513C3.12979 6.54796 4.31009 8.57553 5.98403 10.1121C7.23692 11.2622 8.78946 12.1584 9.90369 12.1584C10.2784 12.1584 10.6035 12.0571 10.8509 11.8299C10.851 11.8298 10.8511 11.8298 10.8512 11.8297L11.088 11.6123L13.6731 13.9852L13.581 14.0697ZM14.7671 13.6657L11.436 10.608L12.3022 9.81289L15.6333 12.8705C15.6333 12.8705 14.7674 13.666 14.7671 13.6657Z" fill="#4C4C4C"/>
</g>
</g>
<g id="Group_3">
<g id="Group_4">
<path id="Vector_2" d="M12.91 3.75424C11.9401 2.86399 10.6508 2.37375 9.2794 2.37378C8.9978 2.37378 8.76953 2.58332 8.76953 2.84181C8.76953 3.10029 8.99784 3.30983 9.2794 3.30983C10.3784 3.30977 11.4117 3.7027 12.1889 4.41611C12.9661 5.12948 13.394 6.07794 13.394 7.08674C13.394 7.34523 13.6223 7.55483 13.9039 7.55483C14.1854 7.55483 14.4137 7.34529 14.4137 7.08686C14.4138 5.82799 13.8797 4.64448 12.91 3.75424Z" fill="#4C4C4C"/>
</g>
</g>
<g id="Group_5">
<g id="Group_6">
<path id="Vector_3" d="M14.7386 2.07579C13.2803 0.73715 11.3414 -6.0953e-05 9.27915 3.77988e-09C8.99756 3.77988e-09 8.76929 0.209569 8.76929 0.468026C8.76929 0.726513 8.99759 0.936052 9.27915 0.936052C11.069 0.935991 12.7518 1.57585 14.0175 2.73766C15.2832 3.89943 15.9802 5.44411 15.9802 7.08711C15.9802 7.34559 16.2084 7.55513 16.49 7.55513C16.7716 7.55513 16.9999 7.34559 16.9999 7.08717C17 5.19409 16.1969 3.4144 14.7386 2.07579Z" fill="#4C4C4C"/>
</g>
</g>
<g id="Group_7">
<g id="Group_8">
<path id="Vector_4" d="M11.081 5.43311C10.5927 4.98489 9.96986 4.74805 9.27953 4.74805H9.27933C8.99774 4.74811 8.76946 4.95762 8.76953 5.21613C8.7696 5.47462 8.9979 5.68416 9.27946 5.6841C9.27953 5.6841 9.27956 5.6841 9.27963 5.6841C9.69945 5.6841 10.063 5.82235 10.36 6.09498C10.6528 6.3638 10.8076 6.70683 10.8076 7.08687C10.8075 7.34535 11.0358 7.55489 11.3174 7.55495H11.3174C11.599 7.55495 11.8272 7.34541 11.8273 7.08699C11.8273 6.45328 11.5693 5.88139 11.081 5.43311Z" fill="#4C4C4C"/>
</g>
</g>
</g>
</svg>
