<svg width="28" height="28" viewBox="0 0 28 28" fill="none" xmlns="http://www.w3.org/2000/svg">
<path d="M16.6965 4.64697C17.7304 4.64697 18.6255 5.37554 18.841 6.393L19.0425 7.37319C19.0794 7.55299 19.2445 7.68731 19.4309 7.68731H21.592C23.9533 7.68731 25.8719 9.60585 25.8719 11.9671L25.8626 20.8682C25.5301 22.8509 23.7911 24.3968 21.7406 24.4818L6.40972 24.4849C4.04843 24.4849 2.12988 22.5664 2.12988 20.2051V11.9671C2.12988 9.60585 4.04843 7.68731 6.40972 7.68731H8.57087C8.7545 7.68731 8.9218 7.551 8.96024 7.36844L9.16409 6.39542C9.37055 5.38032 10.2718 4.64697 11.3091 4.64697H16.6965ZM16.6965 5.99086H11.3091C10.9096 5.99086 10.5599 6.27543 10.4802 6.66712L10.2754 7.64464C10.1062 8.44864 9.39112 9.03119 8.57087 9.03119H6.40972C4.79063 9.03119 3.47377 10.3481 3.47377 11.9671V20.2051C3.47377 21.8242 4.79063 23.141 6.40958 23.141L21.7125 23.1384C23.0984 23.0807 24.3095 22.004 24.528 20.7571V11.9671C24.528 10.3481 23.2111 9.03119 21.592 9.03119H19.4309C18.6071 9.03119 17.8914 8.4489 17.7261 7.64357L17.5255 6.66754C17.4421 6.27396 17.0943 5.99086 16.6965 5.99086ZM14.0009 10.9184C16.5135 10.9184 18.5505 12.9554 18.5505 15.468C18.5505 17.9807 16.5135 20.0177 14.0009 20.0177C11.4882 20.0177 9.45126 17.9807 9.45126 15.468C9.45126 12.9554 11.4882 10.9184 14.0009 10.9184ZM14.0009 12.2623C12.2304 12.2623 10.7951 13.6976 10.7951 15.468C10.7951 17.2385 12.2304 18.6738 14.0009 18.6738C15.7713 18.6738 17.2066 17.2385 17.2066 15.468C17.2066 13.6976 15.7713 12.2623 14.0009 12.2623Z" fill="#4C4C4C"/>
</svg>
