<svg xmlns="http://www.w3.org/2000/svg" width="25" height="25" viewBox="0 0 25 25" fill="none">
<g clip-path="url(#clip0_6926_5200)">
<path d="M24.0327 0.22168H0.0327148V24.2217H24.0327V0.22168Z" fill="white"/>
<path d="M12.0326 20.8216C11.7026 20.8216 11.4326 20.5516 11.4326 20.2216V4.22158C11.4326 3.89158 11.7026 3.62158 12.0326 3.62158C12.3626 3.62158 12.6326 3.89158 12.6326 4.22158V20.2216C12.6326 20.5516 12.3626 20.8216 12.0326 20.8216Z" fill="#4C4C4C"/>
<path d="M12.0327 4.22168V20.2217" stroke="#4C4C4C" stroke-linecap="round"/>
<path d="M20.0326 12.8216H4.03262C3.70262 12.8216 3.43262 12.5516 3.43262 12.2216C3.43262 11.8916 3.70262 11.6216 4.03262 11.6216H20.0326C20.3626 11.6216 20.6326 11.8916 20.6326 12.2216C20.6326 12.5516 20.3626 12.8216 20.0326 12.8216Z" fill="#4C4C4C"/>
<path d="M4.03271 12.2217H20.0327" stroke="#4C4C4C" stroke-linecap="round"/>
</g>
<defs>
<clipPath id="clip0_6926_5200">
<rect width="24" height="24" fill="white" transform="translate(0.0327148 0.22168)"/>
</clipPath>
</defs>
</svg>