<svg width="21" height="21" viewBox="0 0 21 21" fill="none" xmlns="http://www.w3.org/2000/svg">
<g id="Symbols">
<g id="UI2/Men&#195;&#186;/Open">
<g id="Group-10">
<g id="Icon/Men&#195;&#186;/Dashboard-">
<path id="Shape" fill-rule="evenodd" clip-rule="evenodd" d="M16.2691 0.0839844C17.4197 0.0839844 18.3525 1.01672 18.3525 2.16732C18.3525 3.31791 17.4197 4.25065 16.2691 4.25065H14.6666V5.85273L16.1998 5.85322C17.8845 5.85322 19.4879 7.47502 19.8511 9.46242L20.9088 15.2492L20.9166 15.3356V17.2314C20.9166 19.2671 19.2664 20.9173 17.2307 20.9173H3.76915C1.73348 20.9173 0.083252 19.2671 0.083252 17.2314V15.084H0.120752L1.14871 9.46242C1.51194 7.47502 3.11536 5.85322 4.80006 5.85322L13.6249 5.85273V4.25065H11.782C10.6314 4.25065 9.69864 3.31791 9.69864 2.16732C9.69864 1.01672 10.6314 0.0839844 11.782 0.0839844H16.2691ZM19.6666 16.334H1.33221L1.33325 17.2314C1.33325 18.5207 2.33485 19.576 3.60237 19.6617L3.76915 19.6673H17.2307C18.576 19.6673 19.6666 18.5767 19.6666 17.2314V16.334ZM16.1998 7.10321H4.80006C3.7831 7.10321 2.64321 8.23795 2.37835 9.68715L1.3895 15.084H19.6083L18.6215 9.68715C18.3681 8.30096 17.3142 7.20248 16.333 7.10958L16.1998 7.10321ZM9.5484 8.54753C10.522 8.54753 11.3112 9.33677 11.3112 10.3103V11.5924C11.3112 12.566 10.522 13.3552 9.5484 13.3552H5.70224C4.72866 13.3552 3.93942 12.566 3.93942 11.5924V10.3103C3.93942 9.33677 4.72866 8.54753 5.70224 8.54753H9.5484ZM13.3709 11.4254C13.8634 11.4254 14.2626 11.8247 14.2626 12.3172C14.2626 12.8097 13.8634 13.209 13.3709 13.209C12.8783 13.209 12.4791 12.8097 12.4791 12.3172C12.4791 11.8247 12.8783 11.4254 13.3709 11.4254ZM15.9623 11.4254C16.4548 11.4254 16.8541 11.8247 16.8541 12.3172C16.8541 12.8097 16.4548 13.209 15.9623 13.209C15.4698 13.209 15.0705 12.8097 15.0705 12.3172C15.0705 11.8247 15.4698 11.4254 15.9623 11.4254ZM9.5484 9.79753H5.70224C5.41902 9.79753 5.18942 10.0271 5.18942 10.3103V11.5924C5.18942 11.8756 5.41902 12.1052 5.70224 12.1052H9.5484C9.83162 12.1052 10.0612 11.8756 10.0612 11.5924V10.3103C10.0612 10.0271 9.83162 9.79753 9.5484 9.79753ZM13.3709 8.83398C13.8634 8.83398 14.2626 9.23324 14.2626 9.72575C14.2626 10.2183 13.8634 10.6175 13.3709 10.6175C12.8783 10.6175 12.4791 10.2183 12.4791 9.72575C12.4791 9.23324 12.8783 8.83398 13.3709 8.83398ZM15.9623 8.83398C16.4548 8.83398 16.8541 9.23324 16.8541 9.72575C16.8541 10.2183 16.4548 10.6175 15.9623 10.6175C15.4698 10.6175 15.0705 10.2183 15.0705 9.72575C15.0705 9.23324 15.4698 8.83398 15.9623 8.83398ZM16.2691 1.33398H11.782C11.3217 1.33398 10.9486 1.70708 10.9486 2.16732C10.9486 2.62755 11.3217 3.00065 11.782 3.00065H16.2691C16.7294 3.00065 17.1025 2.62755 17.1025 2.16732C17.1025 1.70708 16.7294 1.33398 16.2691 1.33398Z" fill="#4C4C4C"/>
</g>
</g>
</g>
</g>
</svg>
