<svg width="17" height="17" viewBox="0 0 17 17" fill="none" xmlns="http://www.w3.org/2000/svg">
<g id="Symbols">
<g id="Group 4647">
<path id="Polygon 1" d="M8.3501 1.32179C8.5048 1.23247 8.6954 1.23247 8.8501 1.32179L14.7783 4.74444C14.933 4.83375 15.0283 4.99881 15.0283 5.17745V12.0227C15.0283 12.2014 14.933 12.3664 14.7783 12.4558L8.8501 15.8784C8.6954 15.9677 8.5048 15.9677 8.3501 15.8784L2.42189 12.4558C2.26719 12.3664 2.17189 12.2014 2.17189 12.0227V5.17745C2.17189 4.99882 2.26719 4.83375 2.42189 4.74444L8.3501 1.32179Z" stroke="#4C4C4C" stroke-linejoin="round"/>
<path id="Vector 41" d="M3 5.3999L8.6 8.1999M8.6 8.1999L13.8 5.3999M8.6 8.1999V14.1999" stroke="#4C4C4C" stroke-linecap="round" stroke-linejoin="round"/>
<path id="Vector 42" d="M3.80029 3.8001L10.2003 7.0001V11.0001L12.6003 9.8001V5.8001L6.20029 2.6001L3.80029 3.8001Z" stroke="#4C4C4C" stroke-linecap="round" stroke-linejoin="round"/>
</g>
</g>
</svg>
