<svg width="14" height="14" viewBox="0 0 14 14" xmlns="http://www.w3.org/2000/svg">
    <g fill="none" fill-rule="evenodd">
        <path d="M0 0h14v14H0z"/>
        <g fill-rule="nonzero">
            <path d="M12.444 12.444V6.658c0-.24-.184-.44-.414-.44H8.678V4.444h.838v.53c0 .2.15.36.335.36h1.42c.189 0 .34-.16.34-.356v-3.73c0-.2-.151-.36-.335-.36h-1.42c-.19 0-.34.16-.34.36v.53h-.838V.408A.397.397 0 0 0 8.293 0H1.94a.397.397 0 0 0-.385.409v12.027h.83v-2.2c0-.254.192-.458.43-.458h4.592c.24 0 .432.204.432.458v2.208h-.415v-2.066c0-.085-.063-.156-.146-.156h-.956a.15.15 0 0 0-.146.156v2.066h-1.27 7.537zm-3.766-1.328V9.778h.628c.118 0 .21.102.21.222v.889a.22.22 0 0 1-.21.227h-.628zm0-2.223V7.556h.628c.118 0 .21.102.21.222v.889a.22.22 0 0 1-.21.226h-.628zM9.516 4h-.838V2.222h.838V4zm2.095 3.778v.889a.22.22 0 0 1-.21.226h-.846c-.117 0-.21-.102-.21-.222v-.893c0-.125.097-.222.21-.222h.846c.118 0 .21.102.21.222m0 2.222v.889a.22.22 0 0 1-.21.227h-.846c-.117 0-.21-.103-.21-.223V10c0-.124.097-.222.21-.222h.846c.118 0 .21.102.21.222M5.749 1.111V2c0 .124-.092.222-.21.222h-.845c-.118 0-.21-.102-.21-.222v-.889c0-.124.096-.222.21-.222h.846c.117 0 .21.102.21.222m0 3.111c0 .125-.093.222-.21.222h-.846c-.118 0-.21-.102-.21-.222v-.889c0-.124.096-.222.21-.222h.846c.117 0 .21.102.21.222v.89zm0 1.334v.888a.22.22 0 0 1-.21.227h-.846c-.118 0-.21-.102-.21-.222v-.893c0-.125.096-.223.21-.223h.846c.117 0 .21.103.21.223m0 2.222v.889a.22.22 0 0 1-.21.226h-.846c-.118 0-.21-.102-.21-.222v-.893c0-.125.096-.222.21-.222h.846c.117 0 .21.102.21.222m2.098.889a.224.224 0 0 1-.21.226h-.845c-.118 0-.21-.102-.21-.222v-.893c0-.125.096-.222.21-.222h.846c.117 0 .21.102.21.222v.889zm0-3.111v.888a.224.224 0 0 1-.21.227h-.845c-.118 0-.21-.102-.21-.222v-.893c0-.125.096-.223.21-.223h.846c.117 0 .21.103.21.223m0-1.334a.217.217 0 0 1-.21.222h-.846c-.118 0-.21-.102-.21-.222v-.889c0-.124.092-.222.21-.222h.846c.117 0 .21.102.21.222v.89zm0-3.11V2a.217.217 0 0 1-.21.222h-.846c-.118 0-.21-.098-.21-.222v-.889c0-.124.092-.222.21-.222h.846c.117 0 .21.102.21.222M3.654 8.667a.22.22 0 0 1-.21.226H2.6c-.118 0-.21-.102-.21-.222v-.893c0-.125.097-.222.21-.222h.846c.117 0 .21.102.21.222v.889zm0-3.111v.888a.22.22 0 0 1-.21.227H2.6c-.118 0-.21-.102-.21-.222v-.893c0-.125.097-.223.21-.223h.846c.117 0 .21.103.21.223m0-1.334c0 .125-.093.222-.21.222H2.6c-.118 0-.21-.102-.21-.222v-.889c0-.124.097-.222.21-.222h.846c.117 0 .21.102.21.222v.89zm0-3.11V2c0 .124-.093.222-.21.222H2.6c-.118 0-.21-.102-.21-.222v-.889c0-.124.097-.222.21-.222h.846c.117 0 .21.102.21.222" fill="#DB3A28"/>
            <path d="M5.745 12.444H4.497v-2.066a.15.15 0 0 1 .146-.156H5.6a.15.15 0 0 1 .146.156v2.066zm-1.684-2.066v2.066H2.812v-2.066c0-.09.063-.156.147-.156h.955c.084 0 .147.071.147.156" fill="#E02020"/>
        </g>
    </g>
</svg>
