<svg width="16" height="16" viewBox="0 0 16 16" xmlns="http://www.w3.org/2000/svg">
    <g fill="none" fill-rule="evenodd">
        <path d="M0 0h16v16H0z"/>
        <path d="m14.886 7.342-.737-.962a1.826 1.826 0 0 0-1.452-.706H9.563V4.236c0-.928-.8-1.68-1.788-1.68H2.789c-.987.002-1.786.753-1.789 1.68v6.682c0 .556.48 1.008 1.073 1.008h.873c.112.743.789 1.296 1.588 1.296.8 0 1.477-.553 1.588-1.296H10.1c.112.743.789 1.296 1.588 1.296.8 0 1.477-.553 1.588-1.296h.873c.593 0 1.073-.452 1.073-1.008V8.316c-.002-.35-.119-.69-.336-.974M4.534 12.55c-.494 0-.894-.376-.894-.84 0-.464.4-.84.894-.84s.894.376.894.84c0 .464-.4.84-.894.84m4.314-1.297H6.072c-.214-.63-.835-1.056-1.538-1.056-.702 0-1.324.427-1.538 1.056h-.923c-.197 0-.358-.15-.358-.336V4.236c0-.557.48-1.008 1.074-1.008h4.986c.593 0 1.073.451 1.073 1.008v7.018zm2.84 1.297c-.494 0-.894-.376-.894-.84 0-.464.4-.84.894-.84s.894.376.894.84c0 .464-.4.84-.894.84m2.819-1.633c0 .185-.16.336-.358.336h-.923c-.213-.63-.835-1.056-1.538-1.056-.702 0-1.324.427-1.538 1.056h-.587V6.347h3.134c.346.002.67.16.873.423l.737.961a.985.985 0 0 1 .2.585v2.602z" fill="#DB3A28" fill-rule="nonzero"/>
    </g>
</svg>
