<svg width="17" height="17" viewBox="0 0 17 17" fill="none" xmlns="http://www.w3.org/2000/svg">
<path fill-rule="evenodd" clip-rule="evenodd" d="M11.6922 11.3126L16.5605 16.181C16.6908 16.3112 16.6908 16.5221 16.5606 16.6523C16.4954 16.7174 16.4102 16.75 16.3249 16.75C16.2396 16.75 16.1543 16.7174 16.0892 16.6523L11.2209 11.784C10.0981 12.7952 8.61789 13.4167 6.99154 13.4167C3.49936 13.4167 0.658203 10.5755 0.658203 7.08334C0.658203 3.59115 3.49936 0.75 6.99154 0.75C10.4837 0.75 13.3249 3.59115 13.3249 7.08331C13.3249 8.70965 12.7034 10.1899 11.6922 11.3126ZM1.32489 7.08334C1.32489 10.208 3.8672 12.75 6.99154 12.75C10.1159 12.75 12.6582 10.208 12.6582 7.08334C12.6582 3.95865 10.1159 1.41666 6.99154 1.41666C3.8672 1.41666 1.32489 3.95869 1.32489 7.08334Z" fill="#E0E0E0"/>
<path d="M16.5605 16.181L16.3838 16.3578L16.3838 16.3578L16.5605 16.181ZM11.6922 11.3126L11.5065 11.1453L11.3477 11.3216L11.5154 11.4894L11.6922 11.3126ZM16.5606 16.6523L16.7373 16.8292L16.7374 16.8291L16.5606 16.6523ZM16.0892 16.6523L15.9124 16.8291L16.0892 16.6523ZM11.2209 11.784L11.3977 11.6072L11.2299 11.4395L11.0536 11.5983L11.2209 11.784ZM13.3249 7.08331H13.5749V7.08331L13.3249 7.08331ZM16.7373 16.0042L11.869 11.1359L11.5154 11.4894L16.3838 16.3578L16.7373 16.0042ZM16.7374 16.8291C16.9651 16.6013 16.9652 16.232 16.7373 16.0042L16.3838 16.3578C16.4163 16.3903 16.4164 16.443 16.3838 16.4756L16.7374 16.8291ZM16.3249 17C16.4738 17 16.6235 16.9429 16.7373 16.8292L16.3838 16.4755C16.3674 16.4919 16.3465 16.5 16.3249 16.5V17ZM15.9124 16.8291C16.0262 16.9429 16.176 17 16.3249 17V16.5C16.3032 16.5 16.2823 16.4919 16.266 16.4756L15.9124 16.8291ZM11.0441 11.9608L15.9124 16.8291L16.266 16.4756L11.3977 11.6072L11.0441 11.9608ZM6.99154 13.6667C8.683 13.6667 10.2221 13.02 11.3882 11.9698L11.0536 11.5983C9.97421 12.5704 8.55277 13.1667 6.99154 13.1667V13.6667ZM0.408203 7.08334C0.408203 10.7136 3.36129 13.6667 6.99154 13.6667V13.1667C3.63743 13.1667 0.908203 10.4375 0.908203 7.08334H0.408203ZM6.99154 0.5C3.36129 0.5 0.408203 3.45308 0.408203 7.08334H0.908203C0.908203 3.72923 3.63743 1 6.99154 1V0.5ZM13.5749 7.08331C13.5748 3.45308 10.6218 0.5 6.99154 0.5V1C10.3457 1 13.0749 3.72922 13.0749 7.08331L13.5749 7.08331ZM11.878 11.48C12.9283 10.3139 13.5749 8.77477 13.5749 7.08331H13.0749C13.0749 8.64454 12.4786 10.066 11.5065 11.1453L11.878 11.48ZM6.99154 12.5C4.00526 12.5 1.57489 10.0699 1.57489 7.08334H1.07489C1.07489 10.3461 3.72914 13 6.99154 13V12.5ZM12.4082 7.08334C12.4082 10.0699 9.97782 12.5 6.99154 12.5V13C10.2539 13 12.9082 10.3461 12.9082 7.08334H12.4082ZM6.99154 1.66666C9.97782 1.66666 12.4082 4.09673 12.4082 7.08334H12.9082C12.9082 3.82057 10.2539 1.16666 6.99154 1.16666V1.66666ZM1.57489 7.08334C1.57489 4.09676 4.00526 1.66666 6.99154 1.66666V1.16666C3.72914 1.16666 1.07489 3.82061 1.07489 7.08334H1.57489Z" fill="#E0E0E0"/>
</svg>
