<svg width="95" height="95" viewBox="0 0 95 95" fill="none" xmlns="http://www.w3.org/2000/svg">
<g id="search 1">
<path id="Vector" d="M76.3265 72.1109L56.9109 52.6953C60.9079 47.6232 62.8163 41.2157 62.2456 34.7833C61.6749 28.3508 58.6683 22.3794 53.8407 18.0902C49.0131 13.8011 42.7293 11.5183 36.2744 11.7088C29.8194 11.8992 23.6811 14.5485 19.1148 19.1148C14.5485 23.6811 11.8992 29.8194 11.7088 36.2744C11.5183 42.7293 13.8011 49.0131 18.0902 53.8407C22.3794 58.6683 28.3508 61.6749 34.7833 62.2456C41.2157 62.8163 47.6232 60.9079 52.6953 56.9109L72.1109 76.3265C72.3869 76.6048 72.7152 76.8256 73.077 76.9764C73.4388 77.1271 73.8268 77.2047 74.2187 77.2047C74.6106 77.2047 74.9987 77.1271 75.3604 76.9764C75.7222 76.8256 76.0505 76.6048 76.3265 76.3265C76.6048 76.0505 76.8256 75.7222 76.9764 75.3604C77.1271 74.9987 77.2047 74.6106 77.2047 74.2187C77.2047 73.8268 77.1271 73.4388 76.9764 73.077C76.8256 72.7152 76.6048 72.3869 76.3265 72.1109ZM17.8125 37.1093C17.8125 33.2928 18.9442 29.5619 21.0646 26.3886C23.1849 23.2152 26.1987 20.7419 29.7247 19.2813C33.2508 17.8208 37.1307 17.4387 40.874 18.1832C44.6172 18.9278 48.0556 20.7657 50.7543 23.4644C53.453 26.1631 55.2909 29.6015 56.0354 33.3447C56.78 37.0879 56.3979 40.9679 54.9373 44.4939C53.4768 48.02 51.0035 51.0337 47.8301 53.1541C44.6567 55.2745 40.9259 56.4062 37.1093 56.4062C31.9939 56.3984 27.0902 54.3628 23.4731 50.7456C19.8559 47.1284 17.8203 42.2248 17.8125 37.1093Z" fill="#8C9EFF"/>
<path id="Vector_2" d="M72.1107 76.3265C72.3867 76.6047 72.715 76.8256 73.0768 76.9763C73.4386 77.127 73.8266 77.2046 74.2185 77.2046C74.6104 77.2046 74.9985 77.127 75.3602 76.9763C75.722 76.8256 76.0503 76.6047 76.3263 76.3265L50.7357 50.7358C48.9462 52.5253 46.8218 53.9448 44.4838 54.9132C42.1457 55.8817 39.6398 56.3801 37.1091 56.3801C34.5785 56.3801 32.0726 55.8817 29.7345 54.9132C27.3965 53.9448 25.272 52.5253 23.4826 50.7358C21.6931 48.9464 20.2736 46.822 19.3052 44.4839C18.3367 42.1459 17.8383 39.64 17.8383 37.1093C17.8383 34.5786 18.3367 32.0727 19.3052 29.7346C20.2736 27.3966 21.6931 25.2722 23.4826 23.4827L19.267 19.2671C14.6602 23.7988 11.97 29.9268 11.7521 36.3853C11.5342 42.8437 13.8053 49.1391 18.0961 53.971C22.3869 58.803 28.3697 61.8023 34.8086 62.3494C41.2475 62.8965 47.6505 60.9496 52.6951 56.9108L72.1107 76.3265Z" fill="#5F7CF9"/>
</g>
</svg>
