<?xml version="1.0" encoding="UTF-8"?>
<svg width="40px" height="40px" viewBox="0 0 40 40" version="1.1" xmlns="http://www.w3.org/2000/svg" xmlns:xlink="http://www.w3.org/1999/xlink">
    <title>1E992913-4A4B-4BB4-B7B2-E91262296B38</title>
    <g id="Desktop-SHEIN" stroke="none" stroke-width="1" fill="none" fill-rule="evenodd">
        <g id="02-Pedidos-Shein-Guias-Manual" transform="translate(-601, -459)">
            <g id="Group-14-Copy" transform="translate(341, 459)">
                <g id="Group-2" transform="translate(260, 0)">
                    <path d="M0,0 L35,0 C37.7614237,-5.07265313e-16 40,2.23857625 40,5 L40,35 C40,37.7614237 37.7614237,40 35,40 L0,40 L0,40 L0,0 Z" id="Rectangle" fill="#FADEDE" fill-rule="nonzero"></path>
                    <g id="ph:magnifying-glass" transform="translate(9, 9)">
                        <rect id="ViewBox" x="0" y="0" width="22" height="22"></rect>
                        <path d="M15.4690364,14.4913476 C18.0751464,11.362546 17.7593637,6.73731814 14.7521876,3.99175798 C11.7450116,1.24619782 7.11021309,1.35153123 4.23087216,4.23087216 C1.35153123,7.11021309 1.24619782,11.7450116 3.99175798,14.7521876 C6.73731814,17.7593637 11.362546,18.0751464 14.4913476,15.4690364 L18.818766,19.7973192 C18.9935677,19.9721209 19.2483467,20.0403888 19.4871303,19.9764069 C19.7259138,19.912425 19.912425,19.7259138 19.9764069,19.4871303 C20.0403888,19.2483467 19.9721209,18.9935677 19.7973192,18.818766 L15.4690364,14.4913476 Z M3.40222996,9.6262436 C3.40222996,6.18881579 6.18881579,3.40222996 9.6262436,3.40222996 C13.0636714,3.40222996 15.8502572,6.18881579 15.8502572,9.6262436 C15.8502572,13.0636714 13.0636714,15.8502572 9.6262436,15.8502572 C6.1903957,15.846446 3.40604122,13.0620915 3.40222996,9.6262436" id="Shape" fill="#DB3A28" fill-rule="nonzero"></path>
                    </g>
                </g>
            </g>
        </g>
    </g>
</svg>