<svg width="25" height="24" viewBox="0 0 25 24" fill="none" xmlns="http://www.w3.org/2000/svg">
<path d="M18.5123 18.0784C18.4087 18.2424 18.2018 18.314 18.0153 18.2503L16.011 17.4691C15.5985 17.7803 15.1457 18.0372 14.6642 18.2329L14.3613 20.2969C14.3254 20.4863 14.1563 20.624 13.9587 20.6251H10.7519C10.5525 20.6281 10.3813 20.4873 10.3511 20.2952L10.0482 18.2346C9.55788 18.0447 9.09826 17.7869 8.68352 17.4691L6.69531 18.2503C6.50836 18.3195 6.29749 18.2459 6.19826 18.0767L4.59487 15.3756C4.50263 15.2076 4.54264 14.9997 4.69107 14.8757L6.39067 13.5789C6.32659 13.0705 6.32659 12.5563 6.39067 12.0479L4.69107 10.7511C4.53537 10.6313 4.4943 10.4179 4.59487 10.2512L6.19826 7.54839C6.30153 7.38291 6.50961 7.3105 6.69709 7.3748L8.68352 8.15596C9.10388 7.84775 9.56163 7.59122 10.0464 7.39216L10.3511 5.3299C10.3861 5.14046 10.5544 5.00202 10.7519 5.00002H13.9587C14.1547 4.99789 14.3207 5.14022 14.3435 5.3299L14.6482 7.39216C15.1377 7.58165 15.5968 7.83889 16.011 8.15596L17.9992 7.3748C18.1867 7.30454 18.3987 7.37831 18.4981 7.54839L20.1015 10.2512C20.1933 10.4196 20.1525 10.6276 20.0035 10.7511L18.3039 12.0479C18.3496 12.3 18.3711 12.5557 18.368 12.8117C18.3633 13.0685 18.3419 13.3248 18.3039 13.5789L20.0195 14.8757C20.168 14.9997 20.208 15.2076 20.1157 15.3756L18.5123 18.0784Z" stroke="black" stroke-width="1.2"/>
<circle cx="12.04" cy="12.5" r="2" stroke="black"/>
</svg>
