<svg width="25" height="24" viewBox="0 0 25 24" fill="none" xmlns="http://www.w3.org/2000/svg">
<path fill-rule="evenodd" clip-rule="evenodd" d="M18.0153 18.2503C18.2018 18.314 18.4087 18.2424 18.5123 18.0784L20.1157 15.3756C20.208 15.2076 20.168 14.9997 20.0195 14.8757L18.3039 13.5789C18.3419 13.3248 18.3633 13.0685 18.368 12.8117C18.3711 12.5557 18.3496 12.3 18.3039 12.0479L20.0035 10.7511C20.1525 10.6276 20.1933 10.4196 20.1015 10.2512L18.4981 7.54839C18.3987 7.37831 18.1867 7.30454 17.9992 7.3748L16.011 8.15596C15.5968 7.83889 15.1377 7.58165 14.6482 7.39216L14.3435 5.3299C14.3207 5.14022 14.1547 4.99789 13.9587 5.00002H10.7519C10.5544 5.00202 10.3861 5.14046 10.3511 5.3299L10.0464 7.39216C9.56163 7.59122 9.10388 7.84775 8.68352 8.15596L6.69709 7.3748C6.50961 7.3105 6.30153 7.38291 6.19826 7.54839L4.59487 10.2512C4.4943 10.4179 4.53537 10.6313 4.69107 10.7511L6.39067 12.0479C6.32659 12.5563 6.32659 13.0705 6.39067 13.5789L4.69107 14.8757C4.54264 14.9997 4.50263 15.2076 4.59487 15.3756L6.19826 18.0767C6.29749 18.2459 6.50836 18.3195 6.69531 18.2503L8.68352 17.4691C9.09826 17.7869 9.55788 18.0447 10.0482 18.2346L10.3511 20.2952C10.3813 20.4873 10.5525 20.6281 10.7519 20.6251H13.9587C14.1563 20.624 14.3254 20.4863 14.3613 20.2969L14.6642 18.2329C15.1457 18.0372 15.5985 17.7803 16.011 17.4691L18.0153 18.2503ZM12.04 15C13.4208 15 14.54 13.8807 14.54 12.5C14.54 11.1193 13.4208 10 12.04 10C10.6593 10 9.54004 11.1193 9.54004 12.5C9.54004 13.8807 10.6593 15 12.04 15Z" fill="#4C4C4C"/>
</svg>
