<svg width="25" height="24" viewBox="0 0 25 24" fill="none" xmlns="http://www.w3.org/2000/svg">
<path d="M22.8984 11.651L21.8255 10.1615C21.3383 9.47717 20.5509 9.06991 19.7109 9.06771H15.1484V6.83854C15.1484 5.4003 13.9825 4.23438 12.5443 4.23438H5.28385C3.84728 4.23838 2.68369 5.40196 2.67969 6.83854V17.1927C2.67969 18.0557 3.37924 18.7552 4.24219 18.7552H5.51302C5.67565 19.9075 6.6618 20.7643 7.82552 20.7643C8.98924 20.7643 9.9754 19.9075 10.138 18.7552H15.9297C16.0923 19.9075 17.0785 20.7643 18.2422 20.7643C19.4059 20.7643 20.3921 19.9075 20.5547 18.7552H21.8255C22.6885 18.7552 23.388 18.0557 23.388 17.1927V13.1615C23.3855 12.6194 23.2144 12.0915 22.8984 11.651ZM7.82552 19.724C7.1064 19.724 6.52344 19.141 6.52344 18.4219C6.52344 17.7028 7.1064 17.1198 7.82552 17.1198C8.54464 17.1198 9.1276 17.7028 9.1276 18.4219C9.1276 19.141 8.54464 19.724 7.82552 19.724ZM14.1068 17.7135H10.0651C9.75389 16.7392 8.84839 16.0778 7.82552 16.0778C6.80265 16.0778 5.89715 16.7392 5.58594 17.7135H4.24219C3.95454 17.7135 3.72135 17.4804 3.72135 17.1927V6.83854C3.72135 5.9756 4.42091 5.27604 5.28385 5.27604H12.5443C13.4072 5.27604 14.1068 5.9756 14.1068 6.83854V17.7135ZM18.2422 19.724C17.5231 19.724 16.9401 19.141 16.9401 18.4219C16.9401 17.7028 17.5231 17.1198 18.2422 17.1198C18.9613 17.1198 19.5443 17.7028 19.5443 18.4219C19.5443 19.141 18.9613 19.724 18.2422 19.724ZM22.3464 17.1927C22.3464 17.4804 22.1132 17.7135 21.8255 17.7135H20.4818C20.1706 16.7392 19.2651 16.0778 18.2422 16.0778C17.2193 16.0778 16.3138 16.7392 16.0026 17.7135H15.1484V10.1094H19.7109C20.215 10.1128 20.6872 10.3566 20.9818 10.7656L22.0547 12.2552C22.2422 12.5204 22.3439 12.8367 22.3464 13.1615V17.1927Z" fill="#4C4C4C" stroke="#4C4C4C" stroke-width="0.4"/>
<path d="M19.3141 12.7135H17.2308C16.9431 12.7135 16.71 12.4804 16.71 12.1927C16.71 11.9051 16.9431 11.6719 17.2308 11.6719H19.3141C19.6018 11.6719 19.835 11.9051 19.835 12.1927C19.835 12.4804 19.6018 12.7135 19.3141 12.7135Z" fill="#4C4C4C"/>
</svg>
