<svg width="25" height="24" viewBox="0 0 25 24" fill="none" xmlns="http://www.w3.org/2000/svg">
<g clip-path="url(#clip0_3049_4286)">
<path d="M15.1484 6.83854V9.06771V18.7552H11.0342C11.0342 18 10.5342 15.5 8.03418 15.5C5.53418 15.5 5.03418 18 5.03418 18.7552H4.24219C3.37924 18.7552 2.67969 18.0557 2.67969 17.1927V6.83854C2.68369 5.40196 3.84728 4.23838 5.28385 4.23438H12.5443C13.9825 4.23438 15.1484 5.4003 15.1484 6.83854Z" fill="#4C4C4C"/>
<path fill-rule="evenodd" clip-rule="evenodd" d="M19.0342 8.99999C17.5976 9.00399 15.5342 8.99999 15.5342 8.99999L15.5345 17.1927C15.5345 18.0556 15.5347 18.7552 15.5347 18.7552H15.9063C15.9063 18 16.5345 15.5 19.0345 15.5C21.5345 15.5 22.0345 18 22.0345 18.7552H22.8037C23.356 18.7552 23.8037 18.3075 23.8037 17.7552V13.7489C23.8037 13.1286 23.6196 12.5176 23.328 11.9701L23.3152 11.946C22.9724 11.3024 22.5576 10.5234 22.0342 9.99999L22.0275 9.99335C21.2331 9.19885 21.0286 8.99443 19.0342 8.99999ZM18.055 12.0417H20.1383C20.426 12.0417 20.6592 11.8085 20.6592 11.5208C20.6592 11.2332 20.426 11 20.1383 11H18.055C17.7674 11 17.5342 11.2332 17.5342 11.5208C17.5342 11.8085 17.7674 12.0417 18.055 12.0417Z" fill="#4C4C4C"/>
<circle cx="8.03418" cy="18.5" r="2.5" fill="#4C4C4C"/>
<circle cx="19.0342" cy="18.5" r="2.5" fill="#4C4C4C"/>
</g>
<defs>
<clipPath id="clip0_3049_4286">
<rect width="24" height="24" fill="white" transform="translate(0.53418)"/>
</clipPath>
</defs>
</svg>
