<svg width="20" height="21" viewBox="0 0 20 21" fill="none" xmlns="http://www.w3.org/2000/svg">
<g id="Symbols">
<path id="Shape" fill-rule="evenodd" clip-rule="evenodd" d="M16.5 0.5C18.433 0.5 20 2.067 20 4V17C20 18.933 18.433 20.5 16.5 20.5H3.5C1.567 20.5 0 18.933 0 17V4C0 2.067 1.567 0.5 3.5 0.5H16.5ZM16.5 1.7H14.012L14.0119 8.29067L13.9935 8.49168C13.9799 8.59116 13.9576 8.64758 13.8905 8.81684L13.6854 9.04225C13.2269 9.53547 13.1276 9.51818 12.2836 9.37121L9.86088 8.189L7.75628 9.31693L7.57649 9.39245C7.50667 9.41909 7.45703 9.43154 7.38291 9.44101L7.18876 9.45928L6.79449 9.34157C6.24839 9.1642 6.21103 9.03463 5.98688 8.25717L5.987 1.7H3.5C2.22974 1.7 1.2 2.72974 1.2 4V17C1.2 18.2703 2.22974 19.3 3.5 19.3H16.5C17.7703 19.3 18.8 18.2703 18.8 17V4C18.8 2.72974 17.7703 1.7 16.5 1.7ZM12.812 1.7H7.187L7.18982 8.25905L9.4816 7.03188C9.67503 6.92825 9.90169 6.91139 10.1064 6.98236L10.1926 7.01815L12.8119 8.29055L12.812 1.7Z" fill="#4C4C4C"/>
</g>
</svg>
