<svg width="846" height="183" viewBox="0 0 846 183" fill="none" xmlns="http://www.w3.org/2000/svg">
<path fill-rule="evenodd" clip-rule="evenodd" d="M117.827 70.0251H138.355C138.968 70.0251 139.557 70.1931 140.074 70.4901C140.069 70.5791 140.061 70.6681 140.061 70.7581V110.091V126.583V147.792V150.602V152.864V163.901C140.061 166.195 142.286 167.831 144.475 167.145L147.678 166.142C156.152 162.795 166.261 159.184 178.261 155.421C178.473 154.974 178.597 154.48 178.597 153.963V150.602V147.792V70.7581C178.597 70.6021 178.586 70.4491 178.569 70.2971V70.0251H178.597V12.9021C178.597 10.9951 177.05 9.44812 175.143 9.44812H157.47C155.987 9.44812 154.673 10.3961 154.201 11.8011C148.78 27.9321 138.099 40.0851 121.686 43.0231C120.344 43.2631 118.963 43.4421 117.544 43.5561C115.753 43.7001 114.373 45.1971 114.373 46.9941V66.5721C114.373 68.4791 115.92 70.0251 117.827 70.0251" fill="#CC4236"/>
<path fill-rule="evenodd" clip-rule="evenodd" d="M144.569 3.2897C143.797 2.4997 142.738 2.0127 141.566 2.0127H57.0103H53.8323H8.3163C4.1283 2.0127 0.734299 5.0877 0.734299 8.8817V33.6247C0.734299 34.9717 1.9393 36.0627 3.4253 36.0627H54.3623V55.1147C54.3623 55.1887 54.3473 55.2537 54.3413 55.3237V167.478C54.3413 168.508 55.0163 169.413 55.9993 169.718C68.6313 173.633 80.0413 178.357 89.0793 182.553C90.6333 183.274 92.4073 182.141 92.4073 180.427V41.4227C92.4073 41.1427 92.3543 40.8677 92.2953 40.5947C91.9663 39.0767 92.5583 37.3107 94.0773 36.7067C94.4253 36.5687 94.8213 36.4907 95.2653 36.4907H109.845C109.9 36.4847 109.938 36.4807 109.938 36.4807C141.67 33.3857 144.925 8.8757 145.193 6.1027C145.2 5.9477 145.207 5.7987 145.214 5.6447V4.9677C145.214 4.3437 144.998 3.7277 144.569 3.2897" fill="#CC4236"/>
<path fill-rule="evenodd" clip-rule="evenodd" d="M200.236 77.9362C200.236 97.5112 216.887 113.528 237.702 113.528C258.516 113.528 275.168 97.5112 275.168 77.9362C275.168 58.3602 258.516 42.3432 237.91 42.3432C217.095 42.1652 200.652 58.3602 200.236 77.9362V77.9362ZM200.236 53.5542C208.562 42.3432 222.507 35.0462 237.91 35.2242C262.679 35.2242 283.494 54.0882 283.494 77.9362C283.494 101.783 262.679 120.647 237.702 120.647C222.299 120.647 208.562 113.528 200.236 102.495V150.189V153.748H191.91V150.189V77.9362V38.7842V35.2242H200.236V38.7842V53.5542Z" fill="#1C1E1E"/>
<path d="M200.236 77.9362L197.737 77.8831L197.736 77.9096V77.9362H200.236ZM237.91 42.3432L237.889 44.8431L237.9 44.8432H237.91V42.3432ZM200.236 53.5542H197.736V61.1135L202.243 55.0448L200.236 53.5542ZM237.91 35.2242L237.881 37.724L237.896 37.7242H237.91V35.2242ZM200.236 102.495L202.232 100.989L197.736 95.0321V102.495H200.236ZM200.236 153.748V156.248H202.736V153.748H200.236ZM191.91 153.748H189.41V156.248H191.91V153.748ZM191.91 35.2242V32.7242H189.41V35.2242H191.91ZM200.236 35.2242H202.736V32.7242H200.236V35.2242ZM197.736 77.9362C197.736 99.0024 215.62 116.028 237.702 116.028V111.028C218.155 111.028 202.736 96.02 202.736 77.9362H197.736ZM237.702 116.028C259.784 116.028 277.668 99.0024 277.668 77.9362H272.668C272.668 96.02 257.249 111.028 237.702 111.028V116.028ZM277.668 77.9362C277.668 56.8779 259.793 39.8432 237.91 39.8432V44.8432C257.239 44.8432 272.668 59.8425 272.668 77.9362H277.668ZM237.932 39.8433C215.782 39.6539 198.183 56.906 197.737 77.8831L202.736 77.9893C203.122 59.8144 218.409 44.6765 237.889 44.8431L237.932 39.8433ZM202.243 55.0448C210.093 44.4752 223.282 37.5553 237.881 37.724L237.939 32.7244C221.733 32.5371 207.032 40.2112 198.229 52.0636L202.243 55.0448ZM237.91 37.7242C261.479 37.7242 280.994 55.6431 280.994 77.9362H285.994C285.994 52.5333 263.879 32.7242 237.91 32.7242V37.7242ZM280.994 77.9362C280.994 100.221 261.487 118.147 237.702 118.147V123.147C263.871 123.147 285.994 103.345 285.994 77.9362H280.994ZM237.702 118.147C223.07 118.147 210.077 111.385 202.232 100.989L198.241 104.001C207.047 115.671 221.529 123.147 237.702 123.147V118.147ZM197.736 102.495V150.189H202.736V102.495H197.736ZM197.736 150.189V153.748H202.736V150.189H197.736ZM200.236 151.248H191.91V156.248H200.236V151.248ZM194.41 153.748V150.189H189.41V153.748H194.41ZM194.41 150.189V77.9362H189.41V150.189H194.41ZM194.41 77.9362V38.7842H189.41V77.9362H194.41ZM194.41 38.7842V35.2242H189.41V38.7842H194.41ZM191.91 37.7242H200.236V32.7242H191.91V37.7242ZM197.736 35.2242V38.7842H202.736V35.2242H197.736ZM197.736 38.7842V53.5542H202.736V38.7842H197.736Z" fill="#1C1E1E"/>
<path fill-rule="evenodd" clip-rule="evenodd" d="M299.521 77.9362C299.521 97.5112 316.173 113.528 336.988 113.528C357.802 113.528 374.454 97.5112 374.454 77.9362C374.454 58.3602 357.802 42.3432 336.988 42.3432C316.173 42.3432 299.521 58.3602 299.521 77.9362M291.196 77.9362C291.196 54.0882 312.01 35.2242 336.988 35.2242C352.39 35.2242 366.127 42.3432 374.454 53.3762V38.7842V35.2242H382.779V38.7842V77.9362V117.087V120.647H374.454V117.087V102.495C366.127 113.528 352.39 120.647 336.988 120.647C312.01 120.647 291.196 101.783 291.196 77.9362" fill="#1C1E1E"/>
<path d="M374.454 53.3762L372.459 54.8822L376.954 60.8386V53.3762H374.454ZM374.454 35.2242V32.7242H371.954V35.2242H374.454ZM382.779 35.2242H385.279V32.7242H382.779V35.2242ZM382.779 120.647V123.147H385.279V120.647H382.779ZM374.454 120.647H371.954V123.147H374.454V120.647ZM374.454 102.495H376.954V95.0328L372.459 100.989L374.454 102.495ZM297.021 77.9362C297.021 99.0024 314.906 116.028 336.988 116.028V111.028C317.441 111.028 302.021 96.0199 302.021 77.9362H297.021ZM336.988 116.028C359.07 116.028 376.954 99.0024 376.954 77.9362H371.954C371.954 96.02 356.535 111.028 336.988 111.028V116.028ZM376.954 77.9362C376.954 56.869 359.07 39.8432 336.988 39.8432V44.8432C356.535 44.8432 371.954 59.8514 371.954 77.9362H376.954ZM336.988 39.8432C314.906 39.8432 297.021 56.869 297.021 77.9362H302.021C302.021 59.8514 317.441 44.8432 336.988 44.8432V39.8432ZM293.696 77.9362C293.696 55.6501 313.203 37.7242 336.988 37.7242V32.7242C310.818 32.7242 288.696 52.5263 288.696 77.9362H293.696ZM336.988 37.7242C351.62 37.7242 364.613 44.486 372.459 54.8822L376.45 51.8701C367.642 40.2003 353.161 32.7242 336.988 32.7242V37.7242ZM376.954 53.3762V38.7842H371.954V53.3762H376.954ZM376.954 38.7842V35.2242H371.954V38.7842H376.954ZM374.454 37.7242H382.779V32.7242H374.454V37.7242ZM380.279 35.2242V38.7842H385.279V35.2242H380.279ZM380.279 38.7842V77.9362H385.279V38.7842H380.279ZM380.279 77.9362V117.087H385.279V77.9362H380.279ZM380.279 117.087V120.647H385.279V117.087H380.279ZM382.779 118.147H374.454V123.147H382.779V118.147ZM376.954 120.647V117.087H371.954V120.647H376.954ZM376.954 117.087V102.495H371.954V117.087H376.954ZM372.459 100.989C364.613 111.385 351.62 118.147 336.988 118.147V123.147C353.161 123.147 367.642 115.671 376.45 104.001L372.459 100.989ZM336.988 118.147C313.203 118.147 293.696 100.221 293.696 77.9362H288.696C288.696 103.345 310.818 123.147 336.988 123.147V118.147Z" fill="#1C1E1E"/>
<path fill-rule="evenodd" clip-rule="evenodd" d="M407.133 77.9362C407.133 97.5112 423.785 113.528 444.6 113.528C465.414 113.528 482.066 97.5112 482.066 77.9362C482.066 58.3602 465.414 42.3432 444.6 42.3432C423.785 42.3432 407.133 58.3602 407.133 77.9362M398.808 77.9362C398.808 54.0882 419.622 35.2242 444.6 35.2242C460.002 35.2242 473.739 42.3432 482.066 53.3762V38.7842V35.4022H490.808L490.6 38.9612L490.391 117.087C490.391 132.392 472.699 153.57 444.808 153.748H440.645V146.629H444.808C467.287 146.452 482.066 129.544 482.066 117.087V102.495C473.739 113.528 460.002 120.647 444.6 120.647C419.622 120.647 398.808 101.783 398.808 77.9362" fill="#1C1E1E"/>
<path d="M482.066 53.3762L480.07 54.8822L484.566 60.8386V53.3762H482.066ZM482.066 35.4022V32.9022H479.566V35.4022H482.066ZM490.808 35.4022L493.304 35.548L493.458 32.9022H490.808V35.4022ZM490.6 38.9612L488.104 38.8153L488.1 38.8848L488.1 38.9545L490.6 38.9612ZM490.391 117.087L487.891 117.08V117.087H490.391ZM444.808 153.748V156.248H444.816L444.824 156.248L444.808 153.748ZM440.645 153.748H438.145V156.248H440.645V153.748ZM440.645 146.629V144.129H438.145V146.629H440.645ZM444.808 146.629V149.129H444.818L444.827 149.129L444.808 146.629ZM482.066 102.495H484.566V95.0328L480.07 100.989L482.066 102.495ZM404.633 77.9362C404.633 99.0024 422.517 116.028 444.6 116.028V111.028C425.052 111.028 409.633 96.0199 409.633 77.9362H404.633ZM444.6 116.028C466.681 116.028 484.566 99.0024 484.566 77.9362H479.566C479.566 96.02 464.146 111.028 444.6 111.028V116.028ZM484.566 77.9362C484.566 56.869 466.681 39.8432 444.6 39.8432V44.8432C464.146 44.8432 479.566 59.8514 479.566 77.9362H484.566ZM444.6 39.8432C422.517 39.8432 404.633 56.869 404.633 77.9362H409.633C409.633 59.8514 425.052 44.8432 444.6 44.8432V39.8432ZM401.308 77.9362C401.308 55.6501 420.814 37.7242 444.6 37.7242V32.7242C418.43 32.7242 396.308 52.5263 396.308 77.9362H401.308ZM444.6 37.7242C459.231 37.7242 472.224 44.486 480.07 54.8822L484.061 51.8701C475.254 40.2003 460.772 32.7242 444.6 32.7242V37.7242ZM484.566 53.3762V38.7842H479.566V53.3762H484.566ZM484.566 38.7842V35.4022H479.566V38.7842H484.566ZM482.066 37.9022H490.808V32.9022H482.066V37.9022ZM488.312 35.2563L488.104 38.8153L493.096 39.107L493.304 35.548L488.312 35.2563ZM488.1 38.9545L487.891 117.08L492.891 117.094L493.1 38.9679L488.1 38.9545ZM487.891 117.087C487.891 123.856 483.914 132.35 476.372 139.245C468.893 146.081 458.084 151.163 444.792 151.248L444.824 156.248C459.422 156.155 471.405 150.559 479.745 142.936C488.021 135.371 492.891 125.624 492.891 117.087H487.891ZM444.808 151.248H440.645V156.248H444.808V151.248ZM443.145 153.748V146.629H438.145V153.748H443.145ZM440.645 149.129H444.808V144.129H440.645V149.129ZM444.827 149.129C456.708 149.036 466.599 144.516 473.531 138.328C480.397 132.199 484.566 124.228 484.566 117.087H479.566C479.566 122.404 476.345 129.115 470.202 134.598C464.124 140.023 455.387 144.046 444.788 144.129L444.827 149.129ZM484.566 117.087V102.495H479.566V117.087H484.566ZM480.07 100.989C472.224 111.385 459.231 118.147 444.6 118.147V123.147C460.772 123.147 475.254 115.671 484.061 104.001L480.07 100.989ZM444.6 118.147C420.814 118.147 401.308 100.221 401.308 77.9362H396.308C396.308 103.345 418.43 123.147 444.6 123.147V118.147Z" fill="#1C1E1E"/>
<path fill-rule="evenodd" clip-rule="evenodd" d="M514.744 38.7839V35.2239H523.07V38.7839V117.088V120.647H514.744V117.088V38.7839ZM518.907 20.8089H514.744V13.6909H518.907H519.115H523.278V20.8089H519.115H518.907Z" fill="#1C1E1E"/>
<path d="M514.744 35.2239V32.7239H512.244V35.2239H514.744ZM523.07 35.2239H525.57V32.7239H523.07V35.2239ZM523.07 120.647V123.147H525.57V120.647H523.07ZM514.744 120.647H512.244V123.147H514.744V120.647ZM514.744 20.8089H512.244V23.3089H514.744V20.8089ZM514.744 13.6909V11.1909H512.244V13.6909H514.744ZM523.278 13.6909H525.778V11.1909H523.278V13.6909ZM523.278 20.8089V23.3089H525.778V20.8089H523.278ZM517.244 38.7839V35.2239H512.244V38.7839H517.244ZM514.744 37.7239H523.07V32.7239H514.744V37.7239ZM520.57 35.2239V38.7839H525.57V35.2239H520.57ZM520.57 38.7839V117.088H525.57V38.7839H520.57ZM520.57 117.088V120.647H525.57V117.088H520.57ZM523.07 118.147H514.744V123.147H523.07V118.147ZM517.244 120.647V117.088H512.244V120.647H517.244ZM517.244 117.088V38.7839H512.244V117.088H517.244ZM518.907 18.3089H514.744V23.3089H518.907V18.3089ZM517.244 20.8089V13.6909H512.244V20.8089H517.244ZM514.744 16.1909H518.907V11.1909H514.744V16.1909ZM518.907 16.1909H519.115V11.1909H518.907V16.1909ZM519.115 16.1909H523.278V11.1909H519.115V16.1909ZM520.778 13.6909V20.8089H525.778V13.6909H520.778ZM523.278 18.3089H519.115V23.3089H523.278V18.3089ZM519.115 18.3089H518.907V23.3089H519.115V18.3089Z" fill="#1C1E1E"/>
<path fill-rule="evenodd" clip-rule="evenodd" d="M626.518 117.088L626.726 120.825H618.608L618.4 117.266L618.192 71.3516C618.192 55.5126 604.455 42.3436 586.97 42.3436C569.486 42.3436 555.748 55.5126 555.748 71.3516V74.9106V117.088V120.648H547.422V117.088V74.9106V71.3516V38.7836V35.2246H555.748V38.7836V49.1066C563.034 40.7416 574.273 35.2246 586.97 35.2246C608.618 35.2246 626.518 51.2406 626.518 71.3516V117.088Z" fill="#1C1E1E"/>
<path fill-rule="evenodd" clip-rule="evenodd" d="M626.518 117.088L626.726 120.825H618.608L618.4 117.266L618.192 71.3516C618.192 55.5126 604.455 42.3436 586.97 42.3436C569.486 42.3436 555.748 55.5126 555.748 71.3516V74.9106V117.088V120.648H547.422V117.088V74.9106V71.3516V38.7836V35.2246H555.748V38.7836V49.1066C563.034 40.7416 574.273 35.2246 586.97 35.2246C608.618 35.2246 626.518 51.2406 626.518 71.3516V117.088Z" stroke="#1C1E1E" stroke-width="5"/>
<path fill-rule="evenodd" clip-rule="evenodd" d="M839.241 58.1813H830.915C830.915 48.9273 818.01 42.3433 804.064 42.3433C790.118 42.3433 777.214 48.9273 777.214 58.1813C777.214 75.6213 842.987 72.7753 842.779 97.6903C842.779 109.613 826.752 120.647 804.064 120.647C781.376 120.647 765.349 109.613 765.349 97.6903H773.675C773.675 107.121 788.453 113.528 804.064 113.528C819.675 113.528 834.453 107.121 834.453 97.6903C834.453 80.0713 769.095 83.2753 768.887 58.1813C768.887 46.0803 783.874 35.2243 804.064 35.2243C824.254 35.2243 839.241 46.0803 839.241 58.1813" fill="#1C1E1E"/>
<path fill-rule="evenodd" clip-rule="evenodd" d="M839.241 58.1813H830.915C830.915 48.9273 818.01 42.3433 804.064 42.3433C790.118 42.3433 777.214 48.9273 777.214 58.1813C777.214 75.6213 842.987 72.7753 842.779 97.6903C842.779 109.613 826.752 120.647 804.064 120.647C781.376 120.647 765.349 109.613 765.349 97.6903H773.675C773.675 107.121 788.453 113.528 804.064 113.528C819.675 113.528 834.453 107.121 834.453 97.6903C834.453 80.0713 769.095 83.2753 768.887 58.1813C768.887 46.0803 783.874 35.2243 804.064 35.2243C824.254 35.2243 839.241 46.0803 839.241 58.1813Z" stroke="#1C1E1E" stroke-width="5"/>
<path fill-rule="evenodd" clip-rule="evenodd" d="M347.297 19.9479C346.386 21.9659 345.11 22.9749 343.478 22.9749H336.843C335.884 22.9749 335.246 22.8079 334.934 22.4709C334.621 22.1349 334.467 21.6319 334.467 20.9579C334.564 20.6219 334.634 20.2499 334.683 19.8409C334.732 19.4309 334.921 18.9379 335.259 18.3619L341.604 3.58591C342.18 2.52691 342.743 1.75991 343.298 1.27791C343.848 0.798908 344.583 0.555908 345.498 0.555908H352.634C353.879 0.555908 354.508 1.08691 354.508 2.14191C354.508 2.52691 354.482 2.93591 354.434 3.36791C354.385 3.80191 354.192 4.28291 353.857 4.81091L347.297 19.9479Z" fill="#1C1E1E"/>
<path fill-rule="evenodd" clip-rule="evenodd" d="M740.898 122.922L750.806 113.796L740.732 33.8025L746.052 111.449L743.962 116.81L740.898 122.922Z" fill="#1C1E1E"/>
<path fill-rule="evenodd" clip-rule="evenodd" d="M651.605 77.5905C651.605 97.1665 668.257 113.184 689.072 113.184C709.886 113.184 726.538 97.1665 726.538 77.5905C726.538 58.0145 709.886 41.9975 689.072 41.9975C668.257 41.9975 651.605 58.0145 651.605 77.5905M643.082 77.2575C643.082 53.4105 664.094 34.8795 689.072 34.8795C704.474 34.8795 718.211 41.9975 726.538 53.0315V38.4385V34.8795H734.863V38.4385V77.5905V116.743V120.302H726.538V116.743V102.15C718.211 113.184 704.474 120.302 689.072 120.302C664.094 120.302 643.082 101.105 643.082 77.2575" fill="#1C1E1E"/>
<path d="M726.538 53.0315L724.542 54.5375L729.038 60.4944V53.0315H726.538ZM726.538 34.8795V32.3795H724.038V34.8795H726.538ZM734.863 34.8795H737.363V32.3795H734.863V34.8795ZM734.863 120.302V122.802H737.363V120.302H734.863ZM726.538 120.302H724.038V122.802H726.538V120.302ZM726.538 102.15H729.038V94.6866L724.542 100.644L726.538 102.15ZM649.105 77.5905C649.105 98.6577 666.989 115.684 689.072 115.684V110.684C669.524 110.684 654.105 95.6753 654.105 77.5905H649.105ZM689.072 115.684C711.153 115.684 729.038 98.6577 729.038 77.5905H724.038C724.038 95.6753 708.618 110.684 689.072 110.684V115.684ZM729.038 77.5905C729.038 56.5233 711.153 39.4975 689.072 39.4975V44.4975C708.618 44.4975 724.038 59.5057 724.038 77.5905H729.038ZM689.072 39.4975C666.989 39.4975 649.105 56.5233 649.105 77.5905H654.105C654.105 59.5057 669.524 44.4975 689.072 44.4975V39.4975ZM645.582 77.2575C645.582 55.0102 665.245 37.3795 689.072 37.3795V32.3795C662.942 32.3795 640.582 51.8108 640.582 77.2575H645.582ZM689.072 37.3795C703.703 37.3795 716.696 44.1404 724.542 54.5375L728.533 51.5256C719.725 39.8546 705.244 32.3795 689.072 32.3795V37.3795ZM729.038 53.0315V38.4385H724.038V53.0315H729.038ZM729.038 38.4385V34.8795H724.038V38.4385H729.038ZM726.538 37.3795H734.863V32.3795H726.538V37.3795ZM732.363 34.8795V38.4385H737.363V34.8795H732.363ZM732.363 38.4385V77.5905H737.363V38.4385H732.363ZM732.363 77.5905V116.743H737.363V77.5905H732.363ZM732.363 116.743V120.302H737.363V116.743H732.363ZM734.863 117.802H726.538V122.802H734.863V117.802ZM729.038 120.302V116.743H724.038V120.302H729.038ZM729.038 116.743V102.15H724.038V116.743H729.038ZM724.542 100.644C716.696 111.041 703.703 117.802 689.072 117.802V122.802C705.244 122.802 719.725 115.326 728.533 103.655L724.542 100.644ZM689.072 117.802C665.298 117.802 645.582 99.5535 645.582 77.2575H640.582C640.582 102.656 662.89 122.802 689.072 122.802V117.802Z" fill="#1C1E1E"/>
<path fill-rule="evenodd" clip-rule="evenodd" d="M673.048 42.8249V27.4389C673.048 17.6469 680.402 9.67992 689.443 9.67992C698.482 9.67992 705.834 17.6469 705.834 27.4389V42.8249H712.195V27.4389C712.195 13.8469 701.988 2.78992 689.443 2.78992C676.896 2.78992 666.688 13.8469 666.688 27.4389V42.8249H673.048Z" fill="#1C1E1E"/>
<path fill-rule="evenodd" clip-rule="evenodd" d="M673.048 42.8249V27.4389C673.048 17.6469 680.402 9.67992 689.443 9.67992C698.482 9.67992 705.834 17.6469 705.834 27.4389V42.8249H712.195V27.4389C712.195 13.8469 701.988 2.78992 689.443 2.78992C676.896 2.78992 666.688 13.8469 666.688 27.4389V42.8249H673.048Z" stroke="#1C1E1E" stroke-width="0.704"/>
<path fill-rule="evenodd" clip-rule="evenodd" d="M737.356 32.3649L643.414 31.5339L640.586 76.0939C640.586 76.0939 644.079 39.5139 688.566 37.2129C688.566 37.2129 721.82 43.7459 737.338 72.0529L737.356 32.3649Z" fill="#1C1E1E"/>
<path fill-rule="evenodd" clip-rule="evenodd" d="M682.559 122.155L735.221 122.822L733.669 81.144C718.151 109.965 684.897 116.615 684.897 116.615C683.439 116.629 682.028 116.602 680.657 116.546C680.657 116.546 680.059 120.141 683.058 122.072" fill="#1C1E1E"/>
</svg>
