<svg width="130" height="29" viewBox="0 0 130 29" fill="none" xmlns="http://www.w3.org/2000/svg">
<g id="Men&#195;&#186;">
<g id="Logo-T1-P&#195;&#161;ginas">
<g id="Group">
<path id="Fill-96" fill-rule="evenodd" clip-rule="evenodd" d="M17.9534 10.7703H21.101C21.195 10.7703 21.2853 10.7961 21.3646 10.8418C21.3638 10.8555 21.3626 10.8691 21.3626 10.883V16.927V19.4612V22.7202V23.152V23.4996V25.1955C21.3626 25.548 21.7037 25.7994 22.0394 25.694L22.5305 25.5399C23.8298 25.0256 25.3798 24.4707 27.2198 23.8925C27.2523 23.8238 27.2713 23.7479 27.2713 23.6684V23.152V22.7202V10.883C27.2713 10.859 27.2696 10.8355 27.267 10.8121V10.7703H27.2713V1.99266C27.2713 1.69963 27.0341 1.46191 26.7417 1.46191H24.0319C23.8045 1.46191 23.603 1.60759 23.5307 1.82348C22.6995 4.30221 21.0617 6.16967 18.5451 6.62113C18.3394 6.65801 18.1276 6.68552 17.91 6.70303C17.6354 6.72516 17.4238 6.95519 17.4238 7.23133V10.2397C17.4238 10.5328 17.661 10.7703 17.9534 10.7703Z" fill="white"/>
<path id="Fill-97" fill-rule="evenodd" clip-rule="evenodd" d="M22.0543 0.515563C21.9359 0.39417 21.7735 0.319336 21.5938 0.319336H8.62882H8.14153H1.16255C0.520403 0.319336 0 0.791848 0 1.37484V5.17691C0 5.3839 0.184763 5.55154 0.412612 5.55154H8.2228V8.47912C8.2228 8.49049 8.2205 8.50048 8.21958 8.51124V25.7451C8.21958 25.9034 8.32308 26.0424 8.4738 26.0893C10.4107 26.6909 12.1602 27.4168 13.546 28.0616C13.7842 28.1724 14.0563 27.9983 14.0563 27.7349V6.37517C14.0563 6.33215 14.0481 6.28989 14.0391 6.24794C13.9886 6.01468 14.0794 5.74331 14.3123 5.6505C14.3657 5.6293 14.4264 5.61731 14.4945 5.61731H16.73C16.7385 5.61639 16.7443 5.61577 16.7443 5.61577C21.6098 5.14019 22.1089 1.37392 22.1499 0.947816C22.151 0.923998 22.1521 0.901102 22.1532 0.877438V0.773409C22.1532 0.677523 22.12 0.582867 22.0543 0.515563Z" fill="white"/>
<path id="Fill-100" fill-rule="evenodd" clip-rule="evenodd" d="M30.5901 11.9861C30.5901 14.994 33.1432 17.4552 36.3348 17.4552C39.5262 17.4552 42.0795 14.994 42.0795 11.9861C42.0795 8.97799 39.5262 6.51678 36.3667 6.51678C33.1751 6.48942 30.6539 8.97799 30.5901 11.9861ZM30.5901 8.23949C31.8667 6.51678 34.0049 5.3955 36.3667 5.42285C40.1645 5.42285 43.3561 8.32154 43.3561 11.9861C43.3561 15.6505 40.1645 18.5492 36.3348 18.5492C33.973 18.5492 31.8667 17.4552 30.5901 15.7599V23.0887V23.6355H29.3135V23.0887V11.9861V5.96989V5.42285H30.5901V5.96989V8.23949Z" fill="white"/>
<path id="Stroke-101" d="M36.286 5.03809L36.3662 5.03857C40.4059 5.03857 43.7389 8.13625 43.7389 11.986C43.7389 15.8405 40.4007 18.9332 36.3343 18.9332C34.3135 18.9332 32.4225 18.1658 31.049 16.8519L30.9728 16.7777L30.973 24.0196H28.9297V5.03857H30.973L30.9728 7.21055L31.0254 7.15875C32.3915 5.82407 34.2843 5.03711 36.286 5.03809ZM36.3618 5.80686C34.2073 5.78191 32.187 6.77306 30.9454 8.40452L30.8974 8.46841L30.2063 9.40095L30.2062 5.80684H29.6962V23.2512H30.2062L30.2063 14.613L30.8956 15.5284C32.1308 17.1686 34.145 18.1649 36.3343 18.1649C39.9902 18.1649 42.9723 15.4021 42.9723 11.986C42.9723 8.60818 40.0541 5.86229 36.4749 5.80771L36.3618 5.80686ZM36.2656 6.13242H36.3662C39.7278 6.13242 42.4623 8.75607 42.4623 11.986C42.4623 15.2208 39.7225 17.8393 36.3343 17.8393C32.98 17.8393 30.2612 15.2729 30.2071 12.0828L30.2064 11.9778C30.2741 8.78733 32.8977 6.20868 36.1654 6.13393L36.2656 6.13242ZM30.9754 11.9093L30.9729 11.9941L30.9737 12.0699C31.0208 14.8336 33.3913 17.071 36.3343 17.071C39.307 17.071 41.6957 14.7881 41.6957 11.986C41.6957 9.18807 39.3116 6.90081 36.3629 6.90079C33.4751 6.87605 31.128 9.07135 30.9792 11.8257L30.9754 11.9093Z" fill="white"/>
<path id="Fill-102" fill-rule="evenodd" clip-rule="evenodd" d="M45.8136 11.9861C45.8136 14.994 48.3668 17.4552 51.5584 17.4552C54.7498 17.4552 57.3031 14.994 57.3031 11.9861C57.3031 8.97799 54.7498 6.51678 51.5584 6.51678C48.3668 6.51678 45.8136 8.97799 45.8136 11.9861ZM44.5371 11.9861C44.5371 8.32154 47.7285 5.42285 51.5584 5.42285C53.92 5.42285 56.0263 6.51678 57.3031 8.21213V5.96989V5.42285H58.5796V5.96989V11.9861V18.0021V18.5492H57.3031V18.0021V15.7599C56.0263 17.4552 53.92 18.5492 51.5584 18.5492C47.7285 18.5492 44.5371 15.6505 44.5371 11.9861Z" fill="white"/>
<path id="Stroke-103" d="M58.9624 5.03857V18.9332H56.9193L56.9193 16.7777L56.9082 16.7889C55.5706 18.101 53.7244 18.8856 51.7407 18.9311L51.6446 18.9327L51.5579 18.9332C47.4915 18.9332 44.1533 15.8405 44.1533 11.986C44.1533 8.13128 47.4914 5.03857 51.5579 5.03857C53.5787 5.03857 55.4696 5.80598 56.8432 7.11986L56.9193 7.1938L56.9193 5.03857H58.9624ZM58.1957 5.80684H57.6859L57.686 9.3587L56.9967 8.44343C55.7614 6.80315 53.7471 5.80684 51.5579 5.80684C47.902 5.80684 44.92 8.56967 44.92 11.986C44.92 15.4021 47.902 18.1649 51.5579 18.1649C53.7183 18.1649 55.7083 17.1947 56.9475 15.5928L56.9967 15.5283L57.686 14.6131L57.6859 18.1649H58.1957V5.80684ZM51.5579 6.1325C54.9461 6.1325 57.686 8.75101 57.686 11.986C57.686 15.2208 54.9461 17.8393 51.5579 17.8393C48.1697 17.8393 45.4298 15.2208 45.4298 11.986C45.4298 8.75099 48.1697 6.1325 51.5579 6.1325ZM51.5579 6.90081C48.5851 6.90081 46.1964 9.18369 46.1964 11.986C46.1964 14.7881 48.5852 17.071 51.5579 17.071C54.5306 17.071 56.9193 14.7881 56.9193 11.986C56.9193 9.18371 54.5306 6.90081 51.5579 6.90081Z" fill="white"/>
<path id="Fill-104" fill-rule="evenodd" clip-rule="evenodd" d="M62.3136 11.9861C62.3136 14.994 64.8668 17.4552 68.0584 17.4552C71.2498 17.4552 73.8031 14.994 73.8031 11.9861C73.8031 8.97799 71.2498 6.51678 68.0584 6.51678C64.8668 6.51678 62.3136 8.97799 62.3136 11.9861ZM61.0371 11.9861C61.0371 8.32154 64.2285 5.42285 68.0584 5.42285C70.42 5.42285 72.5263 6.51678 73.8031 8.21213V5.96989V5.4502H75.1435L75.1116 5.99709L75.0796 18.0021C75.0796 20.3539 72.3668 23.6082 68.0903 23.6355H67.452V22.5416H68.0903C71.537 22.5144 73.8031 19.9163 73.8031 18.0021V15.7599C72.5263 17.4552 70.42 18.5492 68.0584 18.5492C64.2285 18.5492 61.0371 15.6505 61.0371 11.9861Z" fill="white"/>
<path id="Stroke-105" d="M68.0579 5.03857C70.0787 5.03857 71.9696 5.80598 73.3432 7.11986L73.4192 7.1938L73.4193 5.06593H75.5494L75.4944 6.00937L75.4624 18.002C75.4624 19.2774 74.7583 20.7164 73.5754 21.8533L73.5115 21.9139L73.4468 21.9739C72.0756 23.23 70.243 23.9817 68.1909 24.0184L68.0898 24.0196H67.0682V22.1573L68.0868 22.1574C69.6026 22.1454 70.9659 21.6031 71.9835 20.6928C72.8677 19.9018 73.3965 18.9022 73.4186 18.0569L73.4193 18.002L73.4192 16.7777L73.4082 16.7889C72.0706 18.101 70.2244 18.8856 68.2407 18.9311L68.1446 18.9327L68.0579 18.9332C63.9915 18.9332 60.6533 15.8405 60.6533 11.986C60.6533 8.13128 63.9914 5.03857 68.0579 5.03857ZM68.0579 5.80689C64.402 5.80689 61.42 8.56967 61.42 11.986C61.42 15.4021 64.402 18.1649 68.0579 18.1649C70.2183 18.1649 72.2083 17.1947 73.4475 15.5928L73.4967 15.5283L74.1859 14.6131V18.002C74.1859 19.0959 73.5501 20.3212 72.494 21.266C71.3603 22.2801 69.8535 22.8898 68.1828 22.9243L68.0898 22.9257L67.8348 22.9256V23.2513H68.0874C69.9199 23.2396 71.5573 22.6032 72.7981 21.5241L72.8642 21.4659L72.9295 21.4068C74.0198 20.4081 74.6713 19.1388 74.6951 18.0617L74.6958 18.001L74.7278 5.99594L74.7285 5.97455L74.7365 5.83419H74.1859L74.1859 9.3587L73.4967 8.44343C72.2614 6.80315 70.2471 5.80689 68.0579 5.80689ZM68.0579 6.1325C71.4461 6.1325 74.1859 8.75101 74.1859 11.986C74.1859 15.2208 71.4461 17.8393 68.0579 17.8393C64.6697 17.8393 61.9298 15.2208 61.9298 11.986C61.9298 8.75099 64.6697 6.1325 68.0579 6.1325ZM68.0579 6.90081C65.0851 6.90081 62.6964 9.18369 62.6964 11.986C62.6964 14.7881 65.0852 17.071 68.0579 17.071C71.0306 17.071 73.4193 14.7881 73.4193 11.986C73.4193 9.18371 71.0306 6.90081 68.0579 6.90081Z" fill="white"/>
<path id="Fill-106" fill-rule="evenodd" clip-rule="evenodd" d="M78.8132 5.97011V5.42307H80.0899V5.97011V18.0025V18.5494H78.8132V18.0025V5.97011ZM79.4515 3.20803H78.8132V2.11426H79.4515H79.4834H80.1217V3.20803H79.4834H79.4515Z" fill="white"/>
<path id="Stroke-107" d="M80.473 5.03879V18.9334H78.4297V5.03879H80.473ZM79.7062 5.80695H79.1962V18.165H79.7062V5.80695ZM80.5049 1.72998V3.59206H78.4297V1.72998H80.5049ZM79.7381 2.49814H79.1962V2.8236H79.7381V2.49814Z" fill="white"/>
<path id="Fill-108" fill-rule="evenodd" clip-rule="evenodd" d="M95.952 18.0021L95.9839 18.5764H94.7392L94.7073 18.0295L94.6754 10.9742C94.6754 8.54036 92.5691 6.51678 89.8881 6.51678C87.2073 6.51678 85.1008 8.54036 85.1008 10.9742V11.5211V18.0021V18.5492H83.8242V18.0021V11.5211V10.9742V5.96974V5.42285H85.1008V5.96974V7.55599C86.218 6.27061 87.9413 5.42285 89.8881 5.42285C93.2074 5.42285 95.952 7.88391 95.952 10.9742V18.0021Z" fill="white"/>
<path id="Stroke-109" d="M85.4837 5.03906H83.4404V18.9337H85.4837V10.9746C85.4837 8.73695 87.4363 6.9013 89.8877 6.9013C92.3392 6.9013 94.2916 8.7369 94.2916 10.9746L94.3235 18.0316L94.3242 18.0523L94.3772 18.9609H96.3887L96.3348 17.9921L96.3349 10.9746C96.3349 7.68111 93.4303 5.03906 89.8877 5.03906L89.7971 5.03965C88.1997 5.06021 86.6993 5.6244 85.5419 6.58896L85.4837 6.63797L85.4837 5.03906ZM84.717 5.80727L84.7171 8.5823L85.3894 7.80867C86.4763 6.55811 88.116 5.80727 89.8877 5.80727C93.0226 5.80727 95.5682 8.12294 95.5682 10.9746V18.0025L95.5688 18.0238L95.5782 18.1925H95.1002L95.0901 18.017L95.0583 10.9728C95.0583 8.30121 92.752 6.13299 89.8877 6.13299L89.8019 6.13363C86.9775 6.1764 84.7171 8.32799 84.7171 10.9746L84.717 18.1653H84.207V5.80727H84.717Z" fill="white"/>
<path id="Fill-110" fill-rule="evenodd" clip-rule="evenodd" d="M128.568 8.95048H127.292C127.292 7.52849 125.313 6.51677 123.174 6.51677C121.036 6.51677 119.058 7.52849 119.058 8.95048C119.058 11.6304 129.143 11.193 129.111 15.0215C129.111 16.8537 126.653 18.5492 123.174 18.5492C119.696 18.5492 117.238 16.8537 117.238 15.0215H118.515C118.515 16.4707 120.781 17.4552 123.174 17.4552C125.568 17.4552 127.834 16.4707 127.834 15.0215C127.834 12.3142 117.813 12.8065 117.781 8.95048C117.781 7.09101 120.079 5.42285 123.174 5.42285C126.27 5.42285 128.568 7.09101 128.568 8.95048Z" fill="white"/>
<path id="Stroke-111" d="M123.175 5.03857C119.978 5.03857 117.398 6.78138 117.398 8.95036C117.406 10.0083 118.033 10.8258 119.171 11.4761L119.28 11.5373L119.391 11.5973C119.41 11.6072 119.429 11.617 119.448 11.6268L119.563 11.6851C119.64 11.7236 119.72 11.7614 119.801 11.7988L119.924 11.8544C119.945 11.8636 119.966 11.8728 119.987 11.882L120.116 11.9366L120.248 11.9908L120.384 12.0445L120.524 12.098L120.668 12.1512L120.817 12.2044L120.971 12.2575L121.129 12.3108L121.293 12.3643L121.461 12.4182L121.636 12.4725L121.816 12.5273L122.003 12.5827L122.294 12.6674L122.496 12.7249L123.854 13.0987L124.098 13.1666L124.332 13.2333L124.557 13.2989L124.772 13.3634L124.978 13.4269L125.174 13.4896L125.362 13.5514L125.482 13.5922L125.655 13.6529C125.674 13.6596 125.692 13.6663 125.711 13.6729L125.872 13.7328L125.975 13.7725L126.073 13.8119L126.169 13.8512L126.26 13.8903L126.348 13.9293C126.362 13.9358 126.376 13.9423 126.39 13.9488L126.472 13.9876C126.486 13.9941 126.499 14.0006 126.512 14.007L126.589 14.0458L126.662 14.0845C126.686 14.0974 126.71 14.1103 126.732 14.1233L126.799 14.162C126.809 14.1685 126.82 14.1749 126.831 14.1814L126.892 14.2202C126.961 14.2655 127.024 14.311 127.08 14.3568L127.126 14.3962C127.349 14.5933 127.451 14.7973 127.451 15.0214C127.451 15.6133 126.888 16.1636 126 16.5446L125.9 16.5862L125.798 16.6264C125.746 16.6462 125.693 16.6654 125.639 16.684L125.531 16.7204C125.494 16.7323 125.457 16.744 125.42 16.7553L125.306 16.7886C125.192 16.8211 125.074 16.851 124.954 16.8784L124.832 16.9049C124.812 16.9091 124.791 16.9133 124.77 16.9174L124.646 16.9411C124.604 16.9488 124.562 16.956 124.52 16.963L124.392 16.983C124.005 17.0401 123.597 17.071 123.175 17.071C122.753 17.071 122.344 17.0401 121.958 16.983L121.83 16.963C121.787 16.956 121.745 16.9488 121.704 16.9411L121.579 16.9174C121.558 16.9133 121.538 16.9091 121.518 16.9049L121.396 16.8784C121.336 16.8647 121.276 16.8504 121.217 16.8354L121.101 16.8046L120.986 16.7722C120.93 16.7555 120.874 16.7383 120.819 16.7204L120.71 16.684C120.656 16.6654 120.604 16.6462 120.552 16.6264L120.449 16.5862L120.349 16.5446C119.462 16.1636 118.899 15.6133 118.899 15.0214V14.6373H116.855V15.0214C116.855 17.1973 119.645 18.9332 123.175 18.9332C126.705 18.9332 129.494 17.1973 129.494 15.0214C129.503 13.9704 128.881 13.1514 127.739 12.4983L127.632 12.4383L127.523 12.3794C127.449 12.3405 127.375 12.3023 127.298 12.2648L127.181 12.2088C127.142 12.1903 127.102 12.172 127.062 12.1537L126.939 12.0992C126.919 12.0902 126.898 12.0812 126.877 12.0723L126.75 12.0187C126.728 12.0098 126.706 12.0009 126.685 11.992L126.552 11.939C126.529 11.9302 126.507 11.9214 126.484 11.9127L126.345 11.8601L126.202 11.8076L126.055 11.7552C126.03 11.7465 126.004 11.7377 125.979 11.729L125.825 11.6764L125.665 11.6237L125.501 11.5706L125.331 11.5171L125.155 11.4631L124.881 11.3809L124.691 11.3251L124.494 11.2685L124.291 11.211L122.951 10.8403L122.711 10.7726L122.557 10.7282L122.333 10.6624L122.118 10.5977L121.98 10.5552L121.781 10.4921L121.591 10.4298L121.469 10.3888L121.351 10.3481L121.237 10.3076L121.127 10.2675L121.02 10.2276L120.918 10.188L120.819 10.1485L120.724 10.1093C120.709 10.1027 120.693 10.0962 120.678 10.0897L120.588 10.0507L120.503 10.0118L120.42 9.97304L120.342 9.93435C120.329 9.92791 120.316 9.92147 120.304 9.91503L120.23 9.87643L120.161 9.83786L120.094 9.79929C120.083 9.79286 120.073 9.78643 120.062 9.78L120.001 9.7414L119.943 9.70274C119.896 9.67051 119.853 9.63819 119.813 9.60574L119.767 9.56673C119.752 9.5537 119.738 9.54065 119.724 9.52756L119.684 9.48822C119.518 9.31733 119.441 9.14082 119.441 8.95036C119.441 8.28036 120.069 7.66451 121.024 7.28643L121.124 7.24817C121.394 7.14846 121.688 7.06732 122 7.00861L122.117 6.98765C122.453 6.9313 122.808 6.90081 123.175 6.90081C123.541 6.90081 123.896 6.9313 124.232 6.98766L124.35 7.00861C124.662 7.06732 124.955 7.14846 125.225 7.24818L125.325 7.28644C125.358 7.29947 125.391 7.31279 125.423 7.32639L125.518 7.36799C126.364 7.74972 126.908 8.32658 126.908 8.95036V9.33452H128.952V8.95036C128.952 6.78138 126.372 5.03857 123.175 5.03857ZM123.259 5.80733C125.816 5.8341 127.834 7.07385 128.144 8.55484L128.146 8.56614L127.636 8.56602C127.34 7.12952 125.398 6.1325 123.175 6.1325C120.758 6.1325 118.674 7.31044 118.674 8.95036C118.674 9.6605 119.161 10.1986 120.044 10.6434L120.13 10.6863L120.219 10.7284L120.309 10.7699L120.402 10.8109L120.497 10.8516L120.595 10.8919L120.696 10.932L120.8 10.9721L120.908 11.0121L121.019 11.0523L121.135 11.0926L121.254 11.1332L121.379 11.1743L121.574 11.2369L121.71 11.2794L121.925 11.3446L122.231 11.4347L122.563 11.5293L123.981 11.9219L124.18 11.978L124.375 12.0338L124.564 12.0894L124.75 12.1447L124.93 12.1999L125.106 12.2549L125.277 12.3098C125.306 12.3189 125.334 12.328 125.361 12.3372L125.526 12.3919L125.686 12.4466L125.842 12.5013L125.993 12.5559C126.018 12.5651 126.043 12.5742 126.067 12.5833L126.212 12.6381C126.26 12.6564 126.306 12.6747 126.353 12.693L126.489 12.748L126.62 12.8032L126.748 12.8586L126.871 12.9143C126.952 12.9515 127.03 12.9888 127.105 13.0264L127.216 13.083C127.252 13.1019 127.287 13.1208 127.322 13.1399L127.425 13.1972L127.523 13.255C128.357 13.7575 128.734 14.3129 128.728 15.0182C128.728 16.6761 126.335 18.1649 123.175 18.1649L123.08 18.1644C120.247 18.1377 118.05 16.9134 117.678 15.4588L117.665 15.4055H118.174L118.176 15.4116C118.394 16.3718 119.414 17.122 120.8 17.5212L120.927 17.5565C120.97 17.5679 121.013 17.5791 121.056 17.5899L121.187 17.6212C121.802 17.763 122.476 17.8393 123.175 17.8393C125.889 17.8393 128.218 16.6899 128.218 15.0214C128.218 14.3045 127.73 13.762 126.847 13.3161L126.76 13.2732C126.745 13.2661 126.731 13.2591 126.716 13.2521L126.627 13.2102L126.535 13.1689L126.441 13.1281L126.345 13.0877L126.245 13.0475L126.143 13.0075L126.037 12.9675L125.927 12.9275L125.813 12.8874L125.635 12.8267L125.511 12.7858L125.316 12.7235L125.109 12.6597L124.889 12.5941L124.657 12.5263L124.41 12.4561L122.91 12.0431L122.712 11.9877L122.519 11.9325L122.331 11.8775L122.147 11.8227L121.968 11.7682L121.793 11.7137L121.622 11.6593C121.594 11.6503 121.566 11.6412 121.539 11.6322L121.375 11.5779L121.216 11.5237L121.061 11.4695L120.91 11.4152L120.764 11.3608C120.716 11.3426 120.669 11.3245 120.622 11.3063L120.485 11.2516C120.462 11.2425 120.44 11.2334 120.417 11.2242L120.286 11.1693C120.265 11.1602 120.243 11.151 120.222 11.1418L120.097 11.0865C120.056 11.068 120.016 11.0495 119.976 11.0309L119.86 10.9751C119.822 10.9564 119.784 10.9376 119.747 10.9188L119.639 10.8622C118.629 10.3226 118.171 9.72705 118.164 8.94718C118.164 7.28454 120.352 5.80689 123.175 5.80689L123.259 5.80733Z" fill="white"/>
<path id="Fill-112" fill-rule="evenodd" clip-rule="evenodd" d="M53.1381 3.07553C52.9984 3.38562 52.8028 3.54066 52.5526 3.54066H51.5352C51.3882 3.54066 51.2903 3.515 51.2425 3.46322C51.1945 3.41159 51.1709 3.33429 51.1709 3.23073C51.1858 3.17909 51.1965 3.12193 51.204 3.05908C51.2115 2.99608 51.2405 2.92033 51.2923 2.83182L52.2652 0.5613C52.3535 0.398572 52.4399 0.280713 52.525 0.206647C52.6093 0.133043 52.722 0.0957031 52.8623 0.0957031H53.9565C54.1473 0.0957031 54.2438 0.177298 54.2438 0.339412C54.2438 0.398572 54.2398 0.46142 54.2324 0.527802C54.2249 0.594492 54.1953 0.668403 54.144 0.749537L53.1381 3.07553Z" fill="white"/>
<path id="Fill-113" fill-rule="evenodd" clip-rule="evenodd" d="M99.798 11.9332C99.798 14.9413 102.351 17.4025 105.543 17.4025C108.734 17.4025 111.288 14.9413 111.288 11.9332C111.288 8.9251 108.734 6.46389 105.543 6.46389C102.351 6.46389 99.798 8.9251 99.798 11.9332ZM98.4912 11.882C98.4912 8.21764 101.713 5.37012 105.543 5.37012C107.904 5.37012 110.011 6.46389 111.288 8.1594V5.917V5.37012H112.564V5.917V11.9332V17.9494V18.4963H111.288V17.9494V15.707C110.011 17.4025 107.904 18.4963 105.543 18.4963C101.713 18.4963 98.4912 15.5464 98.4912 11.882Z" fill="white"/>
<path id="Stroke-114" d="M112.948 4.98584V18.8803H110.905L110.905 16.7249L110.894 16.7361C109.556 18.0482 107.71 18.8327 105.726 18.8782L105.63 18.8798L105.543 18.8803C101.481 18.8803 98.1084 15.7403 98.1084 11.8819C98.1084 8.04056 101.461 4.98584 105.543 4.98584C107.564 4.98584 109.455 5.7532 110.829 7.06711L110.905 7.14102L110.905 4.98584H112.948ZM112.181 5.75406H111.671L111.671 9.30605L110.982 8.39069C109.747 6.75036 107.733 5.75406 105.543 5.75406C101.869 5.75406 98.875 8.48209 98.875 11.8819C98.875 15.3028 101.893 18.112 105.543 18.112C107.704 18.112 109.694 17.1418 110.933 15.5399L110.982 15.4755L111.671 14.5601L111.671 18.112H112.181V5.75406ZM105.543 6.07961C108.932 6.07961 111.671 8.69813 111.671 11.9331C111.671 15.168 108.932 17.7865 105.543 17.7865C102.155 17.7865 99.4152 15.168 99.4152 11.9331C99.4152 8.6981 102.155 6.07961 105.543 6.07961ZM105.543 6.84792C102.571 6.84792 100.182 9.1308 100.182 11.9331C100.182 14.7353 102.571 17.0182 105.543 17.0182C108.516 17.0182 110.905 14.7353 110.905 11.9331C110.905 9.13082 108.516 6.84792 105.543 6.84792Z" fill="white"/>
<path id="Fill-115" fill-rule="evenodd" clip-rule="evenodd" d="M103.087 6.59084V4.22659C103.087 2.72193 104.214 1.4977 105.6 1.4977C106.986 1.4977 108.114 2.72193 108.114 4.22659V6.59084H109.089V4.22659C109.089 2.13801 107.524 0.438965 105.6 0.438965C103.677 0.438965 102.111 2.13801 102.111 4.22659V6.59084H103.087Z" fill="white"/>
<path id="Stroke-116" d="M105.6 0.384766C103.645 0.384766 102.057 2.10899 102.057 4.22648V6.64482H103.14V4.22648C103.14 2.75071 104.244 1.55168 105.6 1.55168C106.955 1.55168 108.059 2.75069 108.059 4.22648V6.64482H109.142V4.22648C109.142 2.10901 107.554 0.384766 105.6 0.384766ZM105.656 0.493445C107.523 0.526462 109.034 2.1875 109.034 4.22648L109.034 6.53664H108.167L108.167 4.22648C108.167 2.6928 107.016 1.4435 105.6 1.4435L105.551 1.44398C104.157 1.47193 103.032 2.71023 103.032 4.22648L103.032 6.53664H102.164L102.165 4.22648C102.165 2.16689 103.707 0.492944 105.6 0.492944L105.656 0.493445Z" fill="white"/>
<path id="Fill-117" fill-rule="evenodd" clip-rule="evenodd" d="M112.946 4.98365L98.542 4.85596L98.1084 11.7032C98.1084 11.7032 98.644 6.08218 105.465 5.72861C105.465 5.72861 110.564 6.73248 112.943 11.0822L112.946 4.98365Z" fill="white"/>
<path id="Fill-118" fill-rule="evenodd" clip-rule="evenodd" d="M104.544 18.7809L112.619 18.8834L112.381 12.479C110.002 16.9077 104.903 17.9296 104.903 17.9296C104.679 17.9317 104.463 17.9276 104.253 17.919C104.253 17.919 104.161 18.4714 104.621 18.7681" fill="white"/>
</g>
</g>
</g>
</svg>
