<svg width="18" height="18" viewBox="0 0 18 18" fill="none" xmlns="http://www.w3.org/2000/svg">
<g id="Symbols">
<g id="UI2/Men&#195;&#186;/Open">
<g id="Group-9">
<g id="Icon/Men&#195;&#186;/Dashboard-">
<path id="Shape" d="M14.0075 0.875C15.1193 0.875 16.0946 1.61676 16.3916 2.68824L17.5269 6.7851L17.5375 6.86458L17.5411 14.5469C17.5411 16.2009 16.2003 17.5417 14.5463 17.5417H3.86925C2.21527 17.5417 0.874459 16.2009 0.874459 14.5469V6.88943L0.884915 6.80917L0.871582 6.64629L0.926582 6.64583L2.02403 2.68824C2.32098 1.61676 3.29626 0.875 4.40813 0.875H14.0075ZM12.9013 8.52138L12.8436 8.63004C12.4656 9.29093 11.7539 9.72962 10.9484 9.72962C10.097 9.72962 9.35402 9.24038 8.99504 8.52138C8.63655 9.24038 7.89357 9.72962 7.04216 9.72962C6.19075 9.72962 5.44777 9.24038 5.08879 8.52138C4.7303 9.24038 3.98732 9.72962 3.13591 9.72962C2.667 9.72962 2.23099 9.58123 1.87389 9.32778L1.87446 14.5469C1.87446 15.6027 2.69468 16.4669 3.73268 16.5371L3.86925 16.5417H4.27992L4.28071 12.2031C4.28071 11.5751 4.75943 11.0521 5.36404 11.0521H8.36404C8.96865 11.0521 9.44738 11.5751 9.44738 12.2031L9.44658 16.5417H14.5463C15.648 16.5417 16.5411 15.6486 16.5411 14.5473L16.539 8.93503C16.1377 9.42153 15.5303 9.72962 14.8547 9.72962C14.0032 9.72962 13.2603 9.24038 12.9013 8.52138ZM8.36404 12.0521H5.36404C5.33242 12.0521 5.28071 12.1086 5.28071 12.2031L5.27992 16.5417H8.44658L8.44738 12.2031C8.44738 12.1086 8.39566 12.0521 8.36404 12.0521ZM4.31403 7.64629H1.95779C2.00802 8.25294 2.5163 8.72962 3.13591 8.72962C3.75552 8.72962 4.2638 8.25294 4.31403 7.64629ZM8.22028 7.64629H5.86404C5.91427 8.25294 6.42255 8.72962 7.04216 8.72962C7.66177 8.72962 8.17005 8.25294 8.22028 7.64629ZM12.1265 7.64629H9.77029C9.82052 8.25294 10.3288 8.72962 10.9484 8.72962C11.5442 8.72962 12.037 8.2889 12.1187 7.71569L12.1265 7.64629ZM16.0328 7.64629H13.6765C13.7268 8.25294 14.235 8.72962 14.8547 8.72962C15.4743 8.72962 15.9826 8.25294 16.0328 7.64629ZM5.76408 1.87417L4.40813 1.875C3.74569 1.875 3.16463 2.31693 2.98771 2.95531L1.96408 6.64583H4.92575L5.76408 1.87417ZM11.8941 1.87417H9.91575V6.64583H12.6891L11.8941 1.87417ZM14.0075 1.875L12.9074 1.87417L13.7024 6.64583H16.4499L15.4279 2.95531C15.262 2.35683 14.741 1.93101 14.1306 1.88012L14.0075 1.875ZM8.91575 1.87417H6.77742L5.93908 6.64583H8.91575V1.87417Z" fill="#4C4C4C"/>
</g>
</g>
</g>
</g>
</svg>
