<svg width="38" height="24" viewBox="0 0 38 24" fill="none" xmlns="http://www.w3.org/2000/svg">
<rect x="0.25" y="0.25" width="37.5" height="23.3229" rx="2.75" fill="white" stroke="#E7E7E7" stroke-width="0.5"/>
<g clip-path="url(#clip0_1_20308)">
<path fill-rule="evenodd" clip-rule="evenodd" d="M9.76275 9.95158C10.6644 9.90601 11.521 9.83763 12.4091 9.79841C12.1538 7.93607 11.2477 6.94922 8.50761 6.94922C5.81697 6.94922 4.64865 8.32214 4.49434 9.58354C4.3207 11.003 5.39716 11.9123 7.1182 12.409C8.60473 12.8414 9.85051 13.1418 9.88931 13.8665C9.93109 14.6458 9.03417 15.0838 8.58988 15.0838C7.79584 15.0838 6.93201 14.2107 6.82864 13.4104C5.96444 13.4785 5.06733 13.4822 4.20312 13.5503C4.20312 15.7241 5.98301 16.8754 8.34296 16.8754C10.5437 16.8754 12.7051 15.9568 12.7051 13.6075C12.7051 10.7553 9.59603 10.7561 7.56106 10.0537C6.84947 9.66375 7.22055 8.81055 7.89029 8.7356C9.24244 8.57269 9.47458 9.33624 9.76271 9.95158H9.76275ZM18.2346 7.18021C19.9981 7.18021 21.2468 8.14474 21.2468 10.1C21.2468 11.892 20.0044 13.0359 18.2009 13.0359H15.9486V16.4673C15.9486 16.703 15.9486 16.703 15.7388 16.703H13.3889C13.0947 16.703 13.0947 16.703 13.0947 16.4836V7.58759C13.0947 7.18021 13.0947 7.18021 13.5076 7.18021H18.2346ZM16.1751 11.2226C16.0085 11.2226 15.9486 11.1548 15.9486 11.0521V9.20878C15.9486 9.0736 16.0597 8.99765 16.1613 8.99765H17.1486C17.9984 9.12212 18.3095 9.57917 18.3095 10.1751C18.3095 11.0278 17.5437 11.2226 16.8786 11.2226H16.175H16.1751Z" fill="#343084"/>
<path fill-rule="evenodd" clip-rule="evenodd" d="M21.8867 7.44577C21.8867 7.32634 21.9731 7.23494 22.0683 7.23494H29.559C29.7243 7.22751 29.7423 7.29499 29.7423 7.35885V9.05801C29.75 9.13687 29.6846 9.17293 29.6265 9.17293H24.8834C24.7842 9.17293 24.7515 9.27377 24.7515 9.38395V10.5312C24.7515 10.6549 24.8403 10.7681 24.9901 10.7681H29.1869L29.2826 10.8631V12.4563C29.2347 12.5247 29.1867 12.593 29.1387 12.6613H24.9096C24.8118 12.6613 24.7514 12.7213 24.7514 12.8184V14.3467C24.7514 14.431 24.8526 14.5248 24.9709 14.5248H29.6465C29.7083 14.5248 29.7423 14.5832 29.7423 14.6198V16.476C29.7423 16.5197 29.6925 16.5674 29.6502 16.5674H21.9632C21.9224 16.5674 21.8867 16.5275 21.8867 16.4915V7.44581V7.44577Z" fill="#FF9400"/>
<path fill-rule="evenodd" clip-rule="evenodd" d="M33.8102 12.5V16.5683H31.1429C31.1021 16.5683 31.0664 16.5284 31.0664 16.4924V12.8579C31.0664 12.7606 31.1342 12.7046 31.1848 12.7046H31.9505C32.0273 12.7046 32.0467 12.7697 32.0467 12.8272V14.5257C32.0467 14.7403 32.2279 14.6479 32.3249 14.5257C32.82 13.8505 33.3151 13.1752 33.8103 12.5H33.8102Z" fill="#343084"/>
<path fill-rule="evenodd" clip-rule="evenodd" d="M30.9493 7.44521C30.9493 7.32578 31.0357 7.23438 31.1309 7.23438H33.5793C33.7489 7.23438 33.8097 7.33746 33.8097 7.41882V10.8928L32.3106 8.81037C32.2782 8.76532 32.2042 8.76823 32.2042 8.8615V10.3613C32.2042 10.4448 32.1626 10.6033 32.0427 10.6033H31.0658C31.0126 10.6033 30.9492 10.4841 30.9492 10.4158V7.44521H30.9493Z" fill="#FF9400"/>
</g>
<defs>
<clipPath id="clip0_1_20308">
<rect width="30.012" height="9.9262" fill="white" transform="translate(4 6.94922)"/>
</clipPath>
</defs>
</svg>
