<svg width="18" height="19" viewBox="0 0 18 19" fill="none" xmlns="http://www.w3.org/2000/svg">
<path d="M16.5 7.69214C16.575 7.31714 16.275 6.86714 15.9 6.86714L11.625 6.26714L9.675 2.36714C9.6 2.21714 9.525 2.14214 9.375 2.06714C9 1.84214 8.55 1.99214 8.325 2.36714L6.45 6.26714L2.175 6.86714C1.95 6.86714 1.8 6.94214 1.725 7.09214C1.425 7.39214 1.425 7.84214 1.725 8.14214L4.8 11.1421L4.05 15.4171C4.05 15.5671 4.05 15.7171 4.125 15.8671C4.35 16.2421 4.8 16.3921 5.175 16.1671L9 14.1421L12.825 16.1671C12.9 16.2421 13.05 16.2421 13.2 16.2421H13.35C13.725 16.1671 14.025 15.7921 13.95 15.3421L13.2 11.0671L16.275 8.06714C16.425 7.99214 16.5 7.84214 16.5 7.69214Z" fill="white"/>
</svg>
