<svg width="18" height="18" viewBox="0 0 18 18" xmlns="http://www.w3.org/2000/svg">
    <g fill="none" fill-rule="evenodd">
        <path d="M0 0h18v18H0z"/>
        <path d="M7.365 3.556C8.315 1.852 8.79 1 9.5 1c.71 0 1.185.852 2.135 2.556l.246.441c.27.485.405.727.615.887.21.16.473.219.998.337l.477.108c1.845.418 2.766.626 2.986 1.332.22.705-.41 1.44-1.667 2.912l-.326.38c-.357.418-.536.627-.616.885-.08.259-.053.538 0 1.095l.05.508c.19 1.962.285 2.943-.29 3.379-.574.437-1.438.038-3.164-.757l-.448-.205c-.49-.227-.736-.34-.996-.34s-.505.113-.996.34l-.447.205c-1.727.795-2.591 1.193-3.165.758-.575-.437-.48-1.418-.29-3.38l.05-.507c.053-.558.08-.837 0-1.095-.08-.26-.26-.468-.616-.885l-.326-.381C2.452 8.103 1.824 7.367 2.043 6.66c.22-.706 1.142-.915 2.987-1.332l.477-.108c.524-.118.786-.178.997-.337.21-.16.345-.402.615-.887l.246-.441z" stroke="#33D18D" stroke-width="1.5"/>
    </g>
</svg>
