<svg width="57" height="56" viewBox="0 0 57 56" fill="none" xmlns="http://www.w3.org/2000/svg">
<path d="M36.6288 19.6641L38.4296 24.7827C38.7379 26.0037 37.7389 27.2495 36.6658 27.6935C34.8281 28.4705 32.5586 27.2371 32.3243 25.239C32.0652 25.535 32.0406 25.9421 31.8186 26.3367C30.3262 28.8529 26.5026 28.0265 26.1819 25.1527L25.7996 26.1024C24.4305 28.8282 20.3726 28.4212 19.8423 25.387C20.2986 23.4383 21.2484 21.6128 21.7911 19.6641H36.6288Z" fill="#4C4C4C"/>
<path d="M21.5 35.5039V29.0039C24.5 29.5043 25 28.5043 26 27.0039C27 28.5043 27.1 29.0039 29.5 29.0039C31.5 29.0039 32 28.5042 32.5 27.5039C33.5 29.0039 35.8333 29.3372 37.5 29.0039V35.5039C37.5 36.6085 36.6046 37.5039 35.5 37.5039H31.5V34.0039C31.5 33.4516 31.0523 33.0039 30.5 33.0039H28.5C27.9477 33.0039 27.5 33.4516 27.5 34.0039V37.5039H23.5C22.3954 37.5039 21.5 36.6085 21.5 35.5039Z" fill="#4C4C4C"/>
</svg>
