<svg width="35" height="23" viewBox="0 0 35 23" fill="none" xmlns="http://www.w3.org/2000/svg">
<g id="Group">
<path id="Fill 127" fill-rule="evenodd" clip-rule="evenodd" d="M13.9526 8.83443H16.3988C16.4716 8.83443 16.5419 8.85433 16.6035 8.88973C16.6028 8.90039 16.602 8.91092 16.602 8.92182V13.6086V15.5737V18.1007V18.4357V18.7052V20.0204C16.602 20.2936 16.8671 20.4885 17.1279 20.4068L17.5096 20.2874C18.5192 19.8885 19.7238 19.4583 21.1537 19.0099C21.179 18.9566 21.1937 18.8977 21.1937 18.8361V18.4357V18.1007V8.92182C21.1937 8.90323 21.1925 8.88487 21.1905 8.86676V8.83443H21.1937V2.02779C21.1937 1.80045 21.0094 1.61621 20.7822 1.61621H18.6763C18.4997 1.61621 18.3431 1.72917 18.2868 1.8966C17.6409 3.8187 16.3682 5.26671 14.4124 5.61684C14.2525 5.64549 14.0879 5.6668 13.9189 5.68042C13.7055 5.69759 13.541 5.87603 13.541 6.09011V8.42285C13.541 8.65019 13.7254 8.83443 13.9526 8.83443Z" fill="#CC4236"/>
<path id="Fill 129" fill-rule="evenodd" clip-rule="evenodd" d="M17.139 0.88274C17.047 0.788725 16.9207 0.730469 16.7811 0.730469H6.70576H6.32697H0.903447C0.404479 0.730469 0 1.09706 0 1.54902V4.49736C0 4.65792 0.143628 4.78805 0.320647 4.78805H6.39008V7.05815C6.39008 7.06703 6.38842 7.07461 6.38771 7.08302V20.447C6.38771 20.5697 6.46811 20.6775 6.58534 20.7138C8.09041 21.1803 9.44996 21.7433 10.5269 22.2432C10.7121 22.3292 10.9235 22.194 10.9235 21.9898V5.42662C10.9235 5.39323 10.9171 5.36043 10.9102 5.32787C10.871 5.14706 10.9415 4.93677 11.1225 4.86466C11.1639 4.8482 11.2112 4.83896 11.2641 4.83896H13.0015C13.0079 4.83825 13.0124 4.83778 13.0124 4.83778C16.7936 4.46894 17.1814 1.54843 17.2132 1.21795C17.2142 1.1996 17.215 1.18172 17.2158 1.16348V1.08273C17.2158 1.00837 17.1901 0.934958 17.139 0.88274Z" fill="#CC4236"/>
<path id="Fill 131" fill-rule="evenodd" clip-rule="evenodd" d="M27.6462 12.9404C27.5792 12.9572 27.5132 12.9744 27.4491 12.9923C27.1373 14.0281 26.9037 15.379 26.873 17.1262C26.873 17.1262 27.0099 14.8297 27.6462 12.9404Z" fill="#1C1E1E"/>
<path id="Fill 133" fill-rule="evenodd" clip-rule="evenodd" d="M25.6258 17.1011C25.6607 17.1088 25.6964 17.1199 25.7321 17.1329C25.7031 17.0966 25.6739 17.0607 25.6456 17.0229C25.6456 17.0229 27.6068 17.9289 29.0462 17.6153C29.0462 17.6153 26.5281 17.5773 25.3086 16.3906C25.3279 16.4366 25.3472 16.4825 25.366 16.5286C25.4391 16.7076 25.5182 16.9167 25.6258 17.1011Z" fill="#1C1E1E"/>
<path id="Fill 135" fill-rule="evenodd" clip-rule="evenodd" d="M29.9725 10.5065C29.9725 10.5065 31.9835 10.4717 32.0859 16.3607C32.0859 16.3607 32.2221 11.247 30.5179 10.2495C30.5179 10.2495 30.5374 10.2517 30.5731 10.2581C30.2283 10.0253 29.6843 9.97081 29.194 9.9759C28.8829 10.2282 28.0813 11.0168 27.5059 12.8043C27.5738 12.7878 27.6414 12.7721 27.7083 12.7578C28.1744 11.463 28.8883 10.4082 29.9725 10.5065Z" fill="#1C1E1E"/>
<path id="Fill 137" fill-rule="evenodd" clip-rule="evenodd" d="M27.4475 12.9919C27.4668 12.9277 27.4865 12.8647 27.5065 12.8027C26.6329 13.0143 25.6807 13.4002 24.7799 14.0783C24.7454 14.3546 24.7503 14.6399 24.8018 14.9341C25.018 14.4334 25.6514 13.493 27.4475 12.9919Z" fill="#1C1E1E"/>
<path id="Fill 139" fill-rule="evenodd" clip-rule="evenodd" d="M30.757 12.6664C30.757 12.6664 29.4064 12.3918 27.7088 12.7572C27.6869 12.8181 27.6654 12.8792 27.6445 12.941C28.4465 12.7411 29.4643 12.6266 30.757 12.6664Z" fill="#1C1E1E"/>
<path id="Fill 141" fill-rule="evenodd" clip-rule="evenodd" d="M32.3395 12.7553C32.3395 13.0644 32.0943 13.3152 31.7919 13.3152C31.4894 13.3152 31.2441 13.0644 31.2441 12.7553C31.2441 12.446 31.4894 12.1953 31.7919 12.1953C32.0943 12.1953 32.3395 12.446 32.3395 12.7553Z" fill="#1C1E1E"/>
<path id="Fill 143" fill-rule="evenodd" clip-rule="evenodd" d="M28.6483 11.3584C28.6483 11.6584 28.4104 11.9015 28.1172 11.9015C27.8238 11.9015 27.5859 11.6584 27.5859 11.3584C27.5859 11.0585 27.8238 10.8154 28.1172 10.8154C28.4104 10.8154 28.6483 11.0585 28.6483 11.3584Z" fill="#1C1E1E"/>
<path id="Fill 145" fill-rule="evenodd" clip-rule="evenodd" d="M27.5865 15.2495C27.5865 15.5727 27.3302 15.8348 27.014 15.8348C26.6978 15.8348 26.4414 15.5727 26.4414 15.2495C26.4414 14.9262 26.6978 14.6641 27.014 14.6641C27.3302 14.6641 27.5865 14.9262 27.5865 15.2495Z" fill="#1C1E1E"/>
<path id="Fill 147" fill-rule="evenodd" clip-rule="evenodd" d="M30.3421 17.6147C30.3421 17.9185 30.1011 18.1649 29.8039 18.1649C29.5066 18.1649 29.2656 17.9185 29.2656 17.6147C29.2656 17.3109 29.5066 17.0645 29.8039 17.0645C30.1011 17.0645 30.3421 17.3109 30.3421 17.6147Z" fill="#1C1E1E"/>
<path id="Fill 149" fill-rule="evenodd" clip-rule="evenodd" d="M32.3971 17.3357C32.3971 17.5664 32.2141 17.7533 31.9886 17.7533C31.763 17.7533 31.5801 17.5664 31.5801 17.3357C31.5801 17.1051 31.763 16.918 31.9886 16.918C32.2141 16.918 32.3971 17.1051 32.3971 17.3357Z" fill="#1C1E1E"/>
<path id="Fill 151" fill-rule="evenodd" clip-rule="evenodd" d="M30.622 18.165C30.622 18.165 25.339 14.6203 26.1228 12.3193C26.1228 12.3193 26.5664 10.8923 29.8043 11.9013C29.8043 11.9013 32.1899 12.6828 33.0762 13.4064C33.0762 13.4064 27.6567 9.84686 25.816 11.9013C25.816 11.9013 23.8732 13.6624 30.622 18.165Z" fill="#1C1E1E"/>
<path id="Fill 153" fill-rule="evenodd" clip-rule="evenodd" d="M24.7454 14.2142C24.7454 16.5305 26.7157 18.4254 29.1783 18.4254C31.6411 18.4254 33.6114 16.5305 33.6114 14.2142C33.6114 11.898 31.6411 10.0032 29.1783 10.0032C26.7157 10.0032 24.7454 11.898 24.7454 14.2142ZM23.7598 14.2145C23.7598 11.3931 26.2225 9.16113 29.1778 9.16113C32.1332 9.16113 34.5959 11.3931 34.5959 14.2145C34.5959 17.036 32.1332 19.268 29.1778 19.268C26.2225 19.268 23.7598 17.036 23.7598 14.2145Z" fill="#1C1E1E"/>
</g>
</svg>
