<svg width="192" height="127" viewBox="0 0 192 127" xmlns="http://www.w3.org/2000/svg">
    <g fill="none" fill-rule="evenodd">
        <path d="M83.107 47.67h14.37c.427 0 .84.116 1.203.326-.005.062-.01.125-.01.188v65.44c0 1.612 1.558 2.76 3.09 2.28l2.241-.705c5.932-2.352 13.008-4.89 21.408-7.533.149-.314.235-.66.235-1.024V48.184c0-.11-.008-.217-.019-.324v-.19h.019V7.534a2.422 2.422 0 0 0-2.418-2.427h-12.37a2.414 2.414 0 0 0-2.288 1.654c-3.794 11.333-11.271 19.871-22.76 21.935-.939.17-1.905.295-2.899.375a2.42 2.42 0 0 0-2.22 2.416v13.754a2.422 2.422 0 0 0 2.418 2.427" fill="#CC4236"/>
        <path d="M101.537.898A2.924 2.924 0 0 0 99.435 0H6.164C3.234 0 .857 2.161.857 4.827V22.21c0 .946.843 1.713 1.885 1.713h35.653v13.385c0 .052-.01.098-.015.147v78.798c0 .723.473 1.359 1.161 1.573 8.842 2.75 16.829 6.07 23.154 9.018 1.089.506 2.33-.29 2.33-1.495V27.69c0-.197-.036-.39-.078-.583-.23-1.065.185-2.306 1.248-2.73a2.23 2.23 0 0 1 .832-.152h10.205l.064-.007c22.212-2.176 24.49-19.396 24.677-21.344l.016-.322v-.475c0-.438-.151-.871-.452-1.18" fill="#CC4236"/>
        <path d="M150.785 70.675c-.397.1-.787.202-1.166.308-1.842 6.144-3.222 14.157-3.403 24.521 0 0 .808-13.622 4.569-24.829" fill="#1C1E1E"/>
        <path d="M138.847 95.347c.207.046.417.112.628.19-.172-.216-.344-.43-.51-.653 0 0 11.588 5.373 20.095 3.514 0 0-14.88-.226-22.087-7.265.114.273.227.545.339.818.432 1.062.9 2.303 1.535 3.396M164.545 56.231s11.884-.206 12.49 34.725c0 0 .804-30.332-9.267-36.249 0 0 .116.013.326.05-2.037-1.38-5.252-1.703-8.15-1.673-1.838 1.497-6.576 6.174-9.976 16.777.401-.098.802-.191 1.197-.276 2.754-7.68 6.972-13.937 13.38-13.354" fill="#1C1E1E"/>
        <path d="M149.62 70.983c.114-.381.23-.755.348-1.122-5.162 1.255-10.79 3.544-16.112 7.566a17.055 17.055 0 0 0 .13 5.076c1.276-2.97 5.019-8.548 15.633-11.52M169.178 69.046s-7.982-1.628-18.013.539c-.13.361-.257.723-.38 1.09 4.74-1.185 10.754-1.865 18.393-1.629M178.527 69.567c0 1.834-1.45 3.322-3.237 3.322-1.788 0-3.236-1.488-3.236-3.322s1.448-3.321 3.236-3.321c1.788 0 3.237 1.487 3.237 3.321M156.712 61.287c0 1.779-1.405 3.22-3.138 3.22-1.734 0-3.14-1.441-3.14-3.22 0-1.78 1.406-3.221 3.14-3.221 1.733 0 3.138 1.442 3.138 3.221M150.435 84.374c0 1.917-1.515 3.472-3.384 3.472s-3.384-1.555-3.384-3.472c0-1.918 1.515-3.473 3.384-3.473 1.87 0 3.384 1.555 3.384 3.473M166.72 98.397c0 1.803-1.424 3.264-3.18 3.264-1.757 0-3.18-1.461-3.18-3.264 0-1.802 1.423-3.263 3.18-3.263 1.756 0 3.18 1.461 3.18 3.263M178.86 96.746c0 1.368-1.08 2.477-2.414 2.477-1.333 0-2.414-1.109-2.414-2.477 0-1.368 1.08-2.478 2.414-2.478 1.333 0 2.414 1.11 2.414 2.478" fill="#1C1E1E"/>
        <path d="M168.372 101.661s-31.22-21.025-26.588-34.674c0 0 2.621-8.465 21.756-2.48 0 0 14.098 4.636 19.335 8.928 0 0-32.027-21.114-42.904-8.927 0 0-11.481 10.446 28.4 37.153" fill="#1C1E1E"/>
        <path d="M133.642 78.226c0 13.74 11.644 24.979 26.197 24.979 14.554 0 26.197-11.24 26.197-24.98 0-13.738-11.643-24.977-26.197-24.977-14.553 0-26.197 11.24-26.197 24.978m-5.821 0c0-16.736 14.553-29.975 32.018-29.975 17.464 0 32.018 13.24 32.018 29.975 0 16.736-14.554 29.975-32.018 29.975-17.465 0-32.018-13.239-32.018-29.975" fill="#1C1E1E"/>
    </g>
</svg>
