<svg width="79" height="20" viewBox="0 0 79 20" fill="none" xmlns="http://www.w3.org/2000/svg">
<g id="Cotizador">
<g id="Cotizador-Servicio-paqueteria-tooltip_v2_1">
<g id="t1envios-fulfillment">
<path id="Path" d="M10.5598 3.50707L12.7934 3.5362C13.6919 3.54818 14.5581 3.2202 15.198 2.62563C15.838 2.03106 16.1983 1.21952 16.1986 0.372561C16.1967 0.166297 16.0188 0 15.8 0H0.577455C0.258966 0 0.000608965 0.243045 0 0.543231V3.17925C0.00181827 3.37805 0.173314 3.53829 0.384234 3.53829H6.06935V17.0858C6.06913 17.3255 6.21827 17.5431 6.45027 17.6415L9.8874 19.0984C9.98676 19.1406 10.102 19.1322 10.1934 19.0762C10.2847 19.0202 10.3396 18.9243 10.339 18.8216L10.2164 3.82863C10.2155 3.74273 10.2515 3.66012 10.3161 3.59957C10.3808 3.53902 10.4687 3.50566 10.5598 3.50707Z" fill="#DB3A28"/>
<path id="Path_2" d="M19.2611 0.53125H17.1561C17.0873 0.53125 17.0316 0.585293 17.0316 0.651959C17.0316 2.56515 15.4316 4.11609 13.458 4.11609H12.6164C12.5638 4.11524 12.513 4.13514 12.4758 4.17123C12.4386 4.20733 12.418 4.25653 12.4189 4.30756V6.56773C12.4189 6.74014 12.5631 6.87991 12.7409 6.87991L15.2002 6.89136V16.6178C15.2001 16.7425 15.2629 16.8595 15.3683 16.931C15.4738 17.0025 15.6086 17.0196 15.7295 16.9768L19.4383 15.6729V0.70607C19.4383 0.610726 19.3595 0.532953 19.2611 0.53125Z" fill="#DB3A28"/>
<path id="Shape" d="M27.9609 7.15042C27.1825 6.75537 26.3205 6.55795 25.4495 6.57527C24.4786 6.57527 23.6199 6.76975 22.8733 7.15873C22.1457 7.5293 21.5415 8.10674 21.1352 8.81982C20.7238 9.54032 20.5182 10.3795 20.5182 11.3374C20.5182 12.2953 20.7307 13.1373 21.1558 13.8633C21.5711 14.5808 22.1804 15.1639 22.9123 15.5441C23.698 15.9482 24.5699 16.1514 25.4515 16.1359C26.6404 16.1359 27.6345 15.857 28.4339 15.2991C28.9551 14.9455 29.3886 14.4755 29.701 13.9256L28.2519 13.1283C28.0608 13.6451 27.7053 14.0832 27.241 14.3741C26.761 14.6849 26.1635 14.8399 25.4484 14.8392C24.5743 14.8392 23.8311 14.5828 23.2188 14.0699C22.6065 13.557 22.2696 12.8445 22.2079 11.9323H30.1823C30.2176 11.6221 30.2358 11.3102 30.2368 10.9979C30.2489 10.2001 30.0444 9.41416 29.6454 8.72534C29.2426 8.05027 28.6585 7.50421 27.9609 7.15042ZM22.2274 10.6802C22.3117 9.80194 22.6484 9.11466 23.2373 8.61841C23.8263 8.12216 24.5393 7.87438 25.3764 7.87507C25.9248 7.86795 26.4682 7.98057 26.9695 8.20521C27.9442 8.62727 28.5622 9.61022 28.5255 10.6802H22.2274Z" fill="#282828"/>
<path id="Path_3" d="M39.6952 8.15174C38.9206 7.49803 37.9108 7.17151 36.6657 7.17217C36.006 7.16487 35.3524 7.29174 34.7496 7.54411C34.1988 7.77078 33.7241 8.13455 33.3764 8.59628V7.33427H31.6758V16.2031H33.3764V11.2973C33.3764 10.3691 33.6412 9.66237 34.1708 9.17706C34.7003 8.69175 35.414 8.4491 36.3119 8.4491C37.1971 8.4491 37.8953 8.6838 38.4065 9.15319C38.9177 9.62259 39.173 10.2995 39.1723 11.1839V16.2011H40.855V10.9761C40.8543 9.74624 40.4677 8.80479 39.6952 8.15174Z" fill="#282828"/>
<path id="Path_4" d="M48.5064 14.8188L45.4053 7.17188H43.6289L47.527 16.2031H49.4499L53.348 7.17188H51.589L48.5064 14.8188Z" fill="#282828"/>
<path id="Rectangle" d="M56.6042 7.17188H54.9844V16.2031H56.6042V7.17188Z" fill="#282828"/>
<path id="Shape_2" d="M66.3103 7.15754C64.6581 6.37978 62.7411 6.37978 61.0889 7.15754C60.328 7.53101 59.6893 8.11081 59.2469 8.82975C58.788 9.58614 58.5538 10.4558 58.5712 11.3386C58.5712 12.2956 58.7905 13.1374 59.2291 13.864C59.6602 14.5841 60.2894 15.1671 61.0428 15.5445C61.843 15.9456 62.729 16.1486 63.6253 16.1362C64.5366 16.1479 65.4378 15.9451 66.2549 15.5445C67.8677 14.7627 68.873 13.1193 68.8279 11.3386C68.8279 10.3815 68.6027 9.5425 68.1522 8.82144C67.7077 8.10637 67.0694 7.52978 66.3103 7.15754ZM66.6157 13.2308C66.3063 13.731 65.8601 14.1338 65.3292 14.3924C64.7994 14.6515 64.216 14.7848 63.6253 14.7816C63.0473 14.7879 62.4761 14.6573 61.9591 14.4007C61.4492 14.1448 61.0273 13.7445 60.7468 13.2506C60.4442 12.733 60.2929 12.0967 60.2929 11.3417C60.2929 10.5985 60.4473 9.96774 60.7562 9.44943C61.0421 8.95045 61.4705 8.54665 61.9873 8.28895C63.0557 7.78239 64.2975 7.78239 65.3658 8.28895C65.8876 8.54703 66.3233 8.94885 66.621 9.44632C66.9417 9.96462 67.1021 10.5954 67.1021 11.3386C67.1021 12.0818 66.94 12.7125 66.6157 13.2308Z" fill="#282828"/>
<path id="Path_5" d="M77.5912 12.1019C77.2772 11.7544 76.8899 11.4857 76.4593 11.3165C75.8994 11.1043 75.3277 10.9269 74.7472 10.7853C74.1893 10.6393 73.7529 10.5068 73.438 10.3879C73.149 10.2852 72.8827 10.1243 72.6545 9.91475C72.4484 9.72375 72.3342 9.44905 72.3423 9.16356C72.3423 8.78174 72.5145 8.47048 72.8589 8.22976C73.2033 7.98905 73.6669 7.87077 74.2497 7.87492C74.8795 7.87492 75.383 8.02156 75.7604 8.31484C76.1248 8.58791 76.3508 9.01539 76.3757 9.47898H77.9921C77.9437 8.57977 77.5872 7.87077 76.9225 7.352C76.2579 6.83322 75.385 6.57422 74.3041 6.57487C73.6632 6.56428 73.0265 6.68307 72.4299 6.92452C71.9356 7.11514 71.4991 7.43735 71.165 7.85832C70.8768 8.22661 70.7194 8.6853 70.7188 9.15837C70.7188 9.75531 70.8823 10.2367 71.2093 10.6026C71.5346 10.9684 71.937 11.2524 72.3856 11.4327C72.964 11.6567 73.5565 11.8401 74.1591 11.9816C74.956 12.1732 75.5445 12.3675 75.9245 12.5647C76.3045 12.7618 76.4945 13.0627 76.4945 13.4673C76.4945 13.8616 76.3163 14.1881 75.9598 14.4468C75.6032 14.7055 75.1161 14.8352 74.4985 14.8359C73.8324 14.8359 73.2953 14.6892 72.8871 14.3959C72.4789 14.1027 72.25 13.7257 72.2003 13.265H70.5235C70.553 13.8131 70.7529 14.3369 71.0935 14.7591C71.4706 15.2167 71.9564 15.5659 72.5034 15.7728C73.1465 16.0237 73.83 16.1469 74.5176 16.1359C75.1547 16.1477 75.7878 16.03 76.3807 15.7894C76.8754 15.594 77.3097 15.2646 77.6376 14.8359C77.9302 14.4437 78.0869 13.9619 78.0827 13.4673C78.0693 12.9098 77.9055 12.4547 77.5912 12.1019Z" fill="#282828"/>
<path id="Path_6" d="M55.6773 6.50032L56.1367 6.25956C56.1482 6.25336 56.1547 6.24471 56.1547 6.23566C56.1547 6.22661 56.1482 6.21796 56.1367 6.21176L55.6994 5.98425C55.6847 5.97644 55.6633 5.97438 55.645 5.97901C55.6266 5.98364 55.6148 5.99407 55.615 6.00556V6.48534C55.6132 6.49425 55.6219 6.50277 55.6363 6.50624C55.6508 6.50971 55.6675 6.5073 55.6773 6.50032Z" fill="#282828"/>
<path id="Path_7" d="M58.7588 3.32487L54.5988 4.60035C54.5673 4.60946 54.544 4.63086 54.5372 4.65692C54.5303 4.68299 54.5409 4.71003 54.5651 4.72842L55.1154 5.15329C55.1453 5.17743 55.167 5.2072 55.1785 5.23982L55.4656 6.01861C55.4688 6.02654 55.4787 6.03152 55.4891 6.03046C55.4995 6.0294 55.5074 6.0226 55.508 6.01428V5.37914C55.5082 5.30142 55.5556 5.22858 55.6353 5.18357L58.2553 3.69782C58.2603 3.69603 58.2663 3.69723 58.2696 3.70073C58.273 3.70423 58.2729 3.70911 58.2694 3.71253L55.8038 5.43452C55.7771 5.45356 55.7617 5.48079 55.7617 5.50937C55.7617 5.53795 55.7771 5.56517 55.8038 5.58422L57.0415 6.48415C57.0695 6.50412 57.1079 6.51211 57.1446 6.50558C57.1813 6.49905 57.2118 6.47882 57.2264 6.45127L58.848 3.39842C58.8604 3.37788 58.8554 3.35338 58.8355 3.33698C58.8156 3.32058 58.785 3.31575 58.7588 3.32487Z" fill="#282828"/>
</g>
</g>
</g>
</svg>
