<svg width="31" height="20" viewBox="0 0 31 20" xmlns="http://www.w3.org/2000/svg">
    <g fill="none" fill-rule="evenodd">
        <path d="M12.376 7.524h2.238c.067 0 .13.018.187.05l-.001.029v10.031a.37.37 0 0 0 .48.349l.35-.108c.924-.36 2.025-.75 3.333-1.155a.362.362 0 0 0 .037-.157V7.603a.42.42 0 0 0-.003-.05v-.03H19V1.373A.374.374 0 0 0 18.623 1h-1.926a.376.376 0 0 0-.356.253c-.59 1.738-1.755 3.046-3.544 3.363a4.757 4.757 0 0 1-.451.057.373.373 0 0 0-.346.37v2.109c0 .205.169.372.376.372" fill="#CC4236"/>
        <path d="M15.929.141A.464.464 0 0 0 15.596 0H.84C.376 0 0 .34 0 .76v2.738c0 .149.133.27.298.27h5.64v2.107l-.001.024v12.409a.26.26 0 0 0 .183.247c1.4.434 2.663.956 3.663 1.42a.26.26 0 0 0 .37-.235V4.36a.443.443 0 0 0-.013-.091c-.037-.168.029-.363.197-.43a.352.352 0 0 1 .132-.024h1.614l.01-.001C15.608 3.47 15.968.759 15.998.453L16 .402V.327a.265.265 0 0 0-.071-.186" fill="#CC4236"/>
        <path d="M20.929 11.5c0 2.063 1.814 3.75 4.082 3.75s4.082-1.687 4.082-3.75c0-2.063-1.814-3.75-4.082-3.75s-4.082 1.687-4.082 3.75M20 11.465C20 8.953 22.29 7 25.01 7c1.679 0 3.176.75 4.083 1.912V7H30v9h-.907v-1.912C28.186 15.25 26.689 16 25.01 16 22.289 16 20 13.978 20 11.465" fill="#1C1E1E"/>
        <path d="M20.929 11.5c0 2.063 1.814 3.75 4.082 3.75s4.082-1.687 4.082-3.75c0-2.063-1.814-3.75-4.082-3.75s-4.082 1.687-4.082 3.75zM20 11.465C20 8.953 22.29 7 25.01 7c1.679 0 3.176.75 4.083 1.912V7H30v9h-.907v-1.912C28.186 15.25 26.689 16 25.01 16 22.289 16 20 13.978 20 11.465z" stroke="#1C1E1E" stroke-width=".2"/>
        <path d="M23.699 8V6.463c0-.979.808-1.775 1.801-1.775.993 0 1.801.796 1.801 1.775V8H28V6.463C28 5.105 26.879 4 25.5 4 24.122 4 23 5.105 23 6.463V8h.699z" fill="#1C1E1E"/>
        <path d="M23.699 8V6.463c0-.979.808-1.775 1.801-1.775.993 0 1.801.796 1.801 1.775V8H28V6.463C28 5.105 26.879 4 25.5 4 24.122 4 23 5.105 23 6.463V8h.699z"/>
        <path d="M31 7.093 20.321 7 20 12s.397-4.105 5.454-4.363c0 0 3.78.733 5.544 3.91L31 7.093zM24.214 16.92 30 17l-.17-5c-1.705 3.457-5.359 4.255-5.359 4.255a8.44 8.44 0 0 1-.466-.008s-.065.431.264.663" fill="#1C1E1E"/>
    </g>
</svg>
