<svg xmlns="http://www.w3.org/2000/svg" fill="none" viewBox="9.658792650918635 6.132 45.186351706036746 30.24" style="max-height: 500px" width="45.186351706036746" height="30.24">
<g clip-path="url(#clip0_667_1721)">
<path fill="#D93A26" d="M29.1129 17.5054H32.4926C32.591 17.5054 32.6895 17.5383 32.7715 17.5875C32.7715 17.5875 32.7715 17.6203 32.7715 17.6367V32.9765C32.7715 33.3539 33.1324 33.6164 33.4934 33.5179L34.0184 33.3539C35.4129 32.7961 37.0863 32.2054 39.0551 31.582C39.0879 31.5164 39.1043 31.4344 39.1043 31.3359V17.6367C39.1043 17.6039 39.1043 17.5875 39.1043 17.5547V17.5054V8.08826C39.1043 7.77654 38.8418 7.51404 38.5301 7.51404H35.6262C35.3801 7.51404 35.1668 7.6781 35.0848 7.90779C34.1988 10.5656 32.427 12.5672 29.7199 13.0594C29.5066 13.0922 29.277 13.125 29.0309 13.1414C28.7355 13.1578 28.5059 13.4039 28.5059 13.7156V16.9476C28.5059 17.2594 28.7684 17.5219 29.0801 17.5219L29.1129 17.5054Z"/>
<path fill="#D93A26" d="M33.5256 6.51333C33.3943 6.38208 33.2303 6.30005 33.0334 6.30005H11.0818C10.3928 6.30005 9.83496 6.80864 9.83496 7.43208V11.5008C9.83496 11.7305 10.0318 11.8946 10.2779 11.8946H18.6615V15.0282C18.6615 15.0282 18.6615 15.0446 18.6615 15.061V33.5344C18.6615 33.6985 18.7764 33.8461 18.9404 33.8954C21.024 34.5352 22.8943 35.3227 24.3873 36.0118C24.6498 36.1266 24.9287 35.9461 24.9287 35.6672V12.7969C24.9287 12.7477 24.9287 12.6985 24.9123 12.6657C24.8631 12.4196 24.9615 12.1243 25.2076 12.0258C25.2568 12.0094 25.3225 11.993 25.4045 11.993H27.7998C33.0334 11.4844 33.5584 7.44849 33.6076 6.98911C33.6076 6.9563 33.6076 6.93989 33.6076 6.90708V6.79224C33.6076 6.6938 33.5748 6.59536 33.5092 6.51333H33.5256Z"/>
<path fill="#282828" d="M46.9621 24.4945L46.2402 27.9726C46.2402 28.3172 46.5191 28.432 46.8637 28.432H47.6676C48.0121 28.432 48.291 28.3172 48.291 27.9726L47.5691 24.4945H46.9457H46.9621Z"/>
<path fill="#282828" d="M47.2738 25.9054C47.8447 25.9054 48.3074 25.4427 48.3074 24.8719C48.3074 24.301 47.8447 23.8383 47.2738 23.8383C46.703 23.8383 46.2402 24.301 46.2402 24.8719C46.2402 25.4427 46.703 25.9054 47.2738 25.9054Z"/>
<path fill="#282828" d="M52.6061 13.1414C52.6061 10.0242 50.0959 7.4812 47.0115 7.4812C43.9271 7.4812 41.417 10.0242 41.417 13.1414V20.2125H43.2053V13.1414C43.2053 11.0085 44.9115 9.26948 47.0115 9.26948C49.1115 9.26948 50.8178 11.0085 50.8178 13.1414V15.5203C50.8178 15.5203 50.8178 15.5531 50.8178 15.5695C50.8178 15.914 51.0967 16.1765 51.4248 16.1765H51.9826C52.3271 16.1765 52.5896 15.8976 52.5896 15.5695C52.5896 15.2414 52.5896 15.5367 52.5896 15.5203V13.1414H52.6061Z"/>
<path stroke-miterlimit="10" stroke-width="0.5" stroke="#282828" fill="#282828" d="M39.957 24.4617C39.957 20.6226 43.2383 17.571 47.1594 17.571C51.0805 17.571 54.3617 20.6062 54.3617 24.4617C54.3617 28.3171 51.0805 31.3523 47.1594 31.3523C43.2383 31.3523 39.957 28.3171 39.957 24.4617ZM41.2695 24.4617C41.2695 27.6117 43.8945 30.2039 47.1594 30.2039C50.4242 30.2039 53.0492 27.6281 53.0492 24.4617C53.0492 21.2953 50.4242 18.7195 47.1594 18.7195C43.8945 18.7195 41.2695 21.2953 41.2695 24.4617Z"/>
</g>
<defs>
<clipPath id="clip0_667_1721">
<rect fill="white" height="42" width="64"/>
</clipPath>
</defs>
</svg>