<svg width="30" height="30" viewBox="0 0 30 30" fill="none" xmlns="http://www.w3.org/2000/svg">
<g id="Property 1=color">
<mask id="mask0_5436_4984" style="mask-type:luminance" maskUnits="userSpaceOnUse" x="0" y="0" width="30" height="30">
<path id="Mask" d="M0 8C0 3.58172 3.58172 0 8 0H22C26.4183 0 30 3.58172 30 8V22C30 26.4183 26.4183 30 22 30H8C3.58172 30 0 26.4183 0 22V8Z" fill="white"/>
</mask>
<g mask="url(#mask0_5436_4984)">
<rect id="Bitmap" x="-12" width="53.3333" height="30" fill="#0084C0"/>
</g>
<g id="icon_telmex 1">
<path id="Vector" fill-rule="evenodd" clip-rule="evenodd" d="M12.2195 13.1701V17.3701H18.0695V13.2101H21.4675L25.7315 20.8561H22.2995L20.1095 17.3721L15.1275 20.8541L10.1795 17.3341L7.95353 20.8541H4.52153L8.74753 13.2081L12.2195 13.1701ZM25.7315 9.61011V13.1701H22.2995L21.8455 12.3741H17.2795V16.5401H13.0115V12.3741H8.37153L7.95553 13.1701H4.51953V9.61011H25.7315Z" fill="white"/>
</g>
</g>
</svg>
