<svg width="33" height="24" viewBox="0 0 33 24" fill="none" xmlns="http://www.w3.org/2000/svg">
<g id="tiendanube-1">
<g id="a">
<path id="Shape" fill-rule="evenodd" clip-rule="evenodd" d="M21.1361 0H21.1598C27.698 0 33.0236 5.4 32.9998 12C32.9998 18.624 27.6742 24 21.1123 24C17.9027 24 14.9783 22.704 12.8386 20.592C11.7211 21.072 10.4848 21.336 9.24852 21.336C4.13687 21.336 0 17.16 0 12C0 6.84 4.16064 2.664 9.24852 2.664C10.5086 2.664 11.7449 2.928 12.8623 3.408C15.0734 1.224 18.0215 0 21.1361 0ZM11.8872 12.0001C11.8872 17.1601 16.0478 21.3361 21.1357 21.3361C26.2473 21.3361 30.3842 17.1361 30.408 12.0001C30.408 6.86406 26.2473 2.66406 21.1595 2.66406C18.9722 2.66406 16.88 3.45606 15.2157 4.84806C17.3317 6.62406 18.5204 9.21606 18.5204 12.0001H15.8576C15.8576 9.88806 14.9066 7.94406 13.2186 6.67206C12.0536 5.78406 10.6984 5.32806 9.24815 5.32806C5.61056 5.32806 2.63867 8.32806 2.63867 12.0001C2.63867 15.6721 5.61056 18.6721 9.24815 18.6721C9.8663 18.6721 10.4845 18.5761 11.0788 18.4081C9.91385 16.5601 9.24815 14.3521 9.24815 12.0001H11.8872Z" fill="#024FC3"/>
</g>
<g id="a_2">
<path id="Shape_2" fill-rule="evenodd" clip-rule="evenodd" d="M21.1361 0H21.1598C27.698 0 33.0236 5.4 32.9998 12C32.9998 18.624 27.6742 24 21.1123 24C17.9027 24 14.9783 22.704 12.8386 20.592C11.7211 21.072 10.4848 21.336 9.24852 21.336C4.13687 21.336 0 17.16 0 12C0 6.84 4.16064 2.664 9.24852 2.664C10.5086 2.664 11.7449 2.928 12.8623 3.408C15.0734 1.224 18.0215 0 21.1361 0ZM11.8872 12.0001C11.8872 17.1601 16.0478 21.3361 21.1357 21.3361C26.2473 21.3361 30.3842 17.1361 30.408 12.0001C30.408 6.86406 26.2473 2.66406 21.1595 2.66406C18.9722 2.66406 16.88 3.45606 15.2157 4.84806C17.3317 6.62406 18.5204 9.21606 18.5204 12.0001H15.8576C15.8576 9.88806 14.9066 7.94406 13.2186 6.67206C12.0536 5.78406 10.6984 5.32806 9.24815 5.32806C5.61056 5.32806 2.63867 8.32806 2.63867 12.0001C2.63867 15.6721 5.61056 18.6721 9.24815 18.6721C9.8663 18.6721 10.4845 18.5761 11.0788 18.4081C9.91385 16.5601 9.24815 14.3521 9.24815 12.0001H11.8872Z" fill="#024FC3"/>
</g>
</g>
</svg>
