<svg width="20" height="20" viewBox="0 0 20 20" fill="none" xmlns="http://www.w3.org/2000/svg">
<path fill-rule="evenodd" clip-rule="evenodd" d="M11.793 1.79102C12.7542 1.79102 13.543 2.54226 13.543 3.48149L13.5423 4.33185L17.9173 4.33268C18.1935 4.33268 18.4173 4.55654 18.4173 4.83268C18.4173 5.10882 18.1935 5.33268 17.9173 5.33268L16.9048 5.33185L16.3363 15.276C16.2327 17.0912 14.8147 18.539 13.0738 18.539H6.90101C5.16014 18.539 3.74211 17.0912 3.63855 15.2762L3.06898 5.33185L2.08398 5.33268C1.80784 5.33268 1.58398 5.10882 1.58398 4.83268C1.58398 4.55654 1.80784 4.33268 2.08398 4.33268L6.70898 4.33185L6.70965 3.48149C6.70965 2.54226 7.49846 1.79102 8.45965 1.79102H11.793ZM15.9017 5.35649H4.07261L4.63692 15.2191C4.71147 16.5256 5.71215 17.539 6.90101 17.539H13.0738C14.2627 17.539 15.2634 16.5256 15.3379 15.2191L15.9017 5.35649ZM8.83398 7.16602C8.83398 6.88987 8.61013 6.66602 8.33398 6.66602C8.05784 6.66602 7.83398 6.88987 7.83398 7.16602V13.8327C7.83398 14.1088 8.05784 14.3327 8.33398 14.3327C8.61013 14.3327 8.83398 14.1088 8.83398 13.8327V7.16602ZM11.6673 6.66602C11.9435 6.66602 12.1673 6.88987 12.1673 7.16602V13.8327C12.1673 14.1088 11.9435 14.3327 11.6673 14.3327C11.3912 14.3327 11.1673 14.1088 11.1673 13.8327V7.16602C11.1673 6.88987 11.3912 6.66602 11.6673 6.66602ZM8.45965 2.79102H11.793L11.8881 2.79649C12.2614 2.8398 12.543 3.13466 12.543 3.48149V4.33018H7.70965V3.48149C7.70965 3.10576 8.04012 2.79102 8.45965 2.79102Z" fill="#2180FF"/>
</svg>
