<svg width="19" height="19" viewBox="0 0 19 19" fill="none" xmlns="http://www.w3.org/2000/svg">
<path d="M10.8502 2.10254C11.7153 2.10254 12.4252 2.77866 12.4252 3.62397L12.4246 4.38929L16.3621 4.39004C16.6106 4.39004 16.8121 4.59151 16.8121 4.84004C16.8121 5.08857 16.6106 5.29004 16.3621 5.29004L15.4509 5.28929L14.9392 14.239C14.846 15.8727 13.5698 17.1758 12.003 17.1758H6.44743C4.88065 17.1758 3.60443 15.8727 3.51122 14.2392L2.99861 5.28929L2.11211 5.29004C1.86358 5.29004 1.66211 5.08857 1.66211 4.84004C1.66211 4.59151 1.86358 4.39004 2.11211 4.39004L6.27461 4.38929L6.27521 3.62397C6.27521 2.77866 6.98514 2.10254 7.85021 2.10254H10.8502ZM14.5481 5.31147H3.90187L4.40975 14.1878C4.47684 15.3637 5.37746 16.2758 6.44743 16.2758H12.003C13.073 16.2758 13.9736 15.3637 14.0407 14.1878L14.5481 5.31147ZM7.73711 6.49004C7.98564 6.49004 8.18711 6.69151 8.18711 6.94004V12.94C8.18711 13.1886 7.98564 13.39 7.73711 13.39C7.48858 13.39 7.28711 13.1886 7.28711 12.94V6.94004C7.28711 6.69151 7.48858 6.49004 7.73711 6.49004ZM10.7371 6.49004C10.9856 6.49004 11.1871 6.69151 11.1871 6.94004V12.94C11.1871 13.1886 10.9856 13.39 10.7371 13.39C10.4886 13.39 10.2871 13.1886 10.2871 12.94V6.94004C10.2871 6.69151 10.4886 6.49004 10.7371 6.49004ZM10.8502 3.00254H7.85021C7.47264 3.00254 7.1752 3.28581 7.1752 3.62397V4.38779H11.5252V3.62397C11.5252 3.31182 11.2718 3.04644 10.9358 3.00746L10.8502 3.00254Z" fill="#4C4C4C"/>
</svg>
