<svg width="24" height="25" viewBox="0 0 24 25" fill="none" xmlns="http://www.w3.org/2000/svg">
<path d="M14.1512 2.64062C15.3046 2.64062 16.2512 3.54212 16.2512 4.6692L16.2504 5.68962L21.5004 5.69062C21.8318 5.69062 22.1004 5.95925 22.1004 6.29063C22.1004 6.622 21.8318 6.89062 21.5004 6.89062L20.2854 6.88963L19.6032 18.8226C19.4789 21.0009 17.7773 22.7382 15.6882 22.7382H8.28082C6.19178 22.7382 4.49015 21.0009 4.36587 18.8229L3.68239 6.88963L2.50039 6.89062C2.16902 6.89062 1.90039 6.622 1.90039 6.29063C1.90039 5.95925 2.16902 5.69062 2.50039 5.69062L8.05039 5.68962L8.05118 4.6692C8.05118 3.54212 8.99776 2.64062 10.1512 2.64062H14.1512ZM19.0817 6.9192H4.88674L5.56391 18.7543C5.65337 20.3221 6.85419 21.5382 8.28082 21.5382H15.6882C17.1148 21.5382 18.3157 20.3221 18.4051 18.7543L19.0817 6.9192ZM10.0004 8.49062C10.3318 8.49062 10.6004 8.75925 10.6004 9.09063V17.0906C10.6004 17.422 10.3318 17.6906 10.0004 17.6906C9.66902 17.6906 9.40039 17.422 9.40039 17.0906V9.09063C9.40039 8.75925 9.66902 8.49062 10.0004 8.49062ZM14.0004 8.49062C14.3318 8.49062 14.6004 8.75925 14.6004 9.09063V17.0906C14.6004 17.422 14.3318 17.6906 14.0004 17.6906C13.669 17.6906 13.4004 17.422 13.4004 17.0906V9.09063C13.4004 8.75925 13.669 8.49062 14.0004 8.49062ZM14.1512 3.84062H10.1512C9.64776 3.84062 9.25118 4.21831 9.25118 4.6692V5.68762H15.0512V4.6692C15.0512 4.253 14.7133 3.89916 14.2653 3.84719L14.1512 3.84062Z" fill="#DB3B2B"/>
</svg>
