<svg width="18" height="18" viewBox="0 0 18 18" fill="none" xmlns="http://www.w3.org/2000/svg">
<g clip-path="url(#clip0_5745_491275)">
<path d="M10.9609 5.12891V6.80078V14.0664H7.87524C7.87524 13.5 7.50024 11.625 5.62524 11.625C3.75024 11.625 3.37524 13.5 3.37524 14.0664H2.78125C2.13404 14.0664 1.60938 13.5417 1.60938 12.8945V5.12891C1.61238 4.05147 2.48507 3.17879 3.5625 3.17578H9.00781C10.0865 3.17578 10.9609 4.05022 10.9609 5.12891Z" fill="#4C4C4C"/>
<path fill-rule="evenodd" clip-rule="evenodd" d="M13.875 6.75008C12.7976 6.75309 11.25 6.75008 11.25 6.75008L11.2502 12.8946L11.2504 14.0665H11.5291C11.5291 13.5001 12.0002 11.6251 13.8752 11.6251C15.7502 11.6251 16.1252 13.5001 16.1252 14.0665H16.4521C17.0044 14.0665 17.4521 13.6188 17.4521 13.0665V10.5502C17.4521 9.92982 17.2772 9.31354 16.983 8.7674C16.7466 8.32861 16.4667 7.84175 16.125 7.50008L16.12 7.4951C15.5242 6.89923 15.3708 6.74591 13.875 6.75008ZM13.1406 9.03133H14.7031C14.9189 9.03133 15.0938 8.85644 15.0938 8.64071C15.0938 8.42497 14.9189 8.25008 14.7031 8.25008H13.1406C12.9249 8.25008 12.75 8.42497 12.75 8.64071C12.75 8.85644 12.9249 9.03133 13.1406 9.03133Z" fill="#4C4C4C"/>
<circle cx="5.625" cy="13.875" r="1.875" fill="#4C4C4C"/>
<circle cx="13.875" cy="13.875" r="1.875" fill="#4C4C4C"/>
</g>
<defs>
<clipPath id="clip0_5745_491275">
<rect width="18" height="18" fill="white"/>
</clipPath>
</defs>
</svg>
