<svg width="100" height="100" viewBox="0 0 100 100" xmlns="http://www.w3.org/2000/svg">
    <g fill="#4C4C4C" fillRule="nonzero">
        <path d="M3.337.246C2.317.579.567 2.371.254 3.433-.33 5.392.087 6.954 1.566 8.413c1.458 1.458 1.917 1.562 7.25 1.562 4.104 0 4.5.041 4.604.354.812 2.812 11.583 42.623 11.583 42.853 0 .208-.188.333-.48.333-.27 0-1.104.187-1.833.437-3.458 1.125-6.312 3.542-7.854 6.667-1.958 3.979-1.979 8-.062 11.937a12.82 12.82 0 0 0 4.562 5.145c1.896 1.25 3.396 1.813 5.604 2.125l1.709.25-.73.938c-3.666 4.625-3.312 11.416.855 15.5 4.666 4.603 11.937 4.582 16.52-.042 1.562-1.584 2.812-4.021 3.187-6.167.542-3.25-.375-6.854-2.396-9.27-.416-.5-.75-.938-.75-.98 0-.041 4.896-.083 10.854-.083h10.875l-.563.667c-1.541 1.937-2.562 4.396-2.77 6.708-.563 6.708 4.874 12.624 11.603 12.624 6.73 0 12.167-5.916 11.604-12.582-.208-2.375-1.125-4.688-2.562-6.396l-.771-.917 2.375-.104c2.812-.146 3.52-.416 4.687-1.729 1.77-2.02 1.77-4.52 0-6.541-1.562-1.771 1.438-1.604-32.749-1.73l-30.436-.104-.77-.604c-1.876-1.416-1.792-3.958.166-5.416.562-.438.687-.438 30.394-.542 33.29-.125 30.458.021 32.75-1.562 1.228-.854 1.978-1.75 2.708-3.25.687-1.438 9.27-33.02 9.27-34.082-.02-1.604-1.187-3.313-2.812-4.042-.73-.333-1.417-.396-5.167-.396-4.333 0-4.333 0-4.833.521-.688.667-.688 1.625 0 2.292.5.52.52.52 4.583.52 3.792 0 4.083.021 4.48.417.228.23.416.542.416.709 0 .166-1.98 7.562-4.375 16.416C87.5 58.43 87.625 58.077 85.73 59.244l-1 .625-23.708.062-23.686.042-.334-1.083c-.166-.605-2.395-8.75-4.937-18.083-2.542-9.333-4.666-17.104-4.708-17.25-.083-.187.812-.25 4.083-.25 4.187 0 4.208 0 4.708-.52a1.615 1.615 0 0 0 .125-2.208c-.396-.5-.458-.5-5.145-.605l-4.771-.104-1.98-7.291c-1.27-4.667-2.207-7.687-2.603-8.396-.792-1.437-2.104-2.625-3.813-3.437L16.566.079l-6.25-.041c-4.208-.021-6.48.041-6.98.208zm12.729 3.291c.916.313 1.916 1.063 2.583 1.938.416.562 2 6.104 7.812 27.395 4.02 14.687 7.291 26.79 7.291 26.895 0 .104-2 .208-4.416.25-4.23.062-4.48.083-5.479.583-1.333.646-2.583 1.896-3.23 3.229-.728 1.5-.728 4.125 0 5.625.647 1.333 1.897 2.583 3.23 3.229l1.042.52 30.478.105 30.499.104.395.5c.542.667.5 1.604-.125 2.208l-.5.521H55.772c-19.457 0-30.27-.083-30.998-.208-3.688-.709-6.813-3.688-7.792-7.396-1.583-6.146 3.313-12.395 9.75-12.395 1 0 1.291-.084 1.708-.521.292-.27.52-.708.52-.98 0-.27-2.916-11.124-6.457-24.123-5.25-19.333-6.52-23.708-6.896-24-.396-.333-1-.374-5.854-.374H4.358l-.5-.521c-.334-.313-.521-.75-.521-1.146 0-.396.187-.833.52-1.146l.5-.52h5.5c3.563 0 5.75.083 6.209.228zm22.353 77.227c1.896.875 3.104 2.083 4.041 3.958.73 1.5.771 1.687.771 3.583 0 1.896-.041 2.083-.77 3.583-.938 1.896-2.146 3.063-4.084 3.98-1.27.604-1.583.666-3.375.666-1.791 0-2.104-.062-3.374-.667-1.938-.916-3.146-2.083-4.084-3.979-.729-1.5-.77-1.687-.77-3.562 0-1.812.062-2.125.666-3.396.833-1.77 2.02-3.062 3.583-3.875 1.625-.874 2.542-1.083 4.438-1 1.27.063 1.916.23 2.958.709zm38.332 0c1.896.875 3.104 2.083 4.041 3.958.73 1.5.771 1.687.771 3.583 0 1.896-.041 2.083-.77 3.583-.938 1.896-2.146 3.063-4.084 3.98-1.27.604-1.583.666-3.375.666-1.791 0-2.104-.062-3.375-.667-1.937-.916-3.145-2.083-4.083-3.979-.729-1.5-.77-1.687-.77-3.562 0-1.812.062-2.125.666-3.396.833-1.77 2.02-3.062 3.583-3.875 1.625-.874 2.542-1.083 4.438-1 1.27.063 1.916.23 2.958.709z"/>
        <path d="M33.336 83.576c-1.021.334-2.77 2.125-3.083 3.188-.584 1.958-.167 3.52 1.312 4.979 2.104 2.125 4.77 2.125 6.875 0 2.125-2.104 2.125-4.771 0-6.875-1.459-1.48-3.167-1.896-5.104-1.292zm2.812 3.583c1.042 1.021.313 2.813-1.146 2.813-.395 0-.833-.188-1.145-.521-.334-.312-.521-.75-.521-1.146 0-.396.187-.833.52-1.146.313-.333.75-.52 1.146-.52.396 0 .834.187 1.146.52zM71.668 83.576c-1.021.334-2.771 2.125-3.084 3.188-.583 1.958-.166 3.52 1.313 4.979 1.458 1.479 3.02 1.895 4.979 1.312 1.146-.333 2.875-2.062 3.208-3.208.583-1.958.167-3.52-1.312-4.98-1.459-1.478-3.167-1.895-5.104-1.29zm2.812 3.583c1.042 1.021.313 2.813-1.146 2.813-.854 0-1.666-.813-1.666-1.667 0-.854.812-1.666 1.666-1.666.396 0 .834.187 1.146.52zM59.168.1c-9.916 1.458-17.312 8.541-18.853 18.104-1.917 11.75 6.124 22.874 17.916 24.79 4.645.75 9.166.021 13.416-2.187 2.208-1.146 3.354-1.98 5.187-3.792 5-4.937 7.333-11.916 6.208-18.666C81.46 8.891 74.522 1.913 65.126.288 63.46-.004 60.501-.087 59.168.1zm6.98 3.792c6.77 1.854 11.54 6.666 13.353 13.5.27 1.062.375 2.187.375 4.249s-.104 3.187-.375 4.25c-1.854 6.937-6.75 11.812-13.666 13.583-2.125.541-6.375.541-8.438 0-6.854-1.813-11.728-6.708-13.562-13.583-.562-2.146-.541-6.5.063-8.729 2-7.354 7.812-12.562 15.374-13.729 1.354-.208 5.438.063 6.875.459z"/>
        <path d="m65.48 20.433-7.145 7.124-3.812-3.791c-3.375-3.354-3.896-3.792-4.5-3.792-.896 0-1.688.792-1.688 1.709 0 .604.48 1.166 4.646 5.312 4.25 4.27 4.687 4.646 5.354 4.646.667 0 1.27-.563 8.687-7.98 7.25-7.249 7.979-8.02 7.979-8.645 0-.916-.792-1.708-1.708-1.708-.604 0-1.354.687-7.813 7.125z"/>
    </g>
</svg>
