<svg width="40" height="33" viewBox="0 0 40 33" fill="none" xmlns="http://www.w3.org/2000/svg">
<rect x="1.12546" y="8.28631" width="20" height="17" rx="1.5" transform="rotate(-20.4211 1.12546 8.28631)" stroke="#4C4C4C"/>
<path d="M13.1042 16.0977L10.7754 9.84277L16.6753 10.8114L13.1042 16.0977Z" stroke="#4C4C4C" stroke-linejoin="round"/>
<rect x="7.186" y="18.8342" width="3" height="3" rx="0.5" transform="rotate(-20.4211 7.186 18.8342)" stroke="#4C4C4C"/>
<rect x="5.44186" y="14.1486" width="3" height="3" rx="0.5" transform="rotate(-20.4211 5.44186 14.1486)" stroke="#4C4C4C"/>
<rect x="3.69772" y="9.46306" width="3" height="3" rx="0.5" transform="rotate(-20.4211 3.69772 9.46306)" stroke="#4C4C4C"/>
<rect x="19.3696" y="14.298" width="3" height="3" rx="0.5" transform="rotate(-20.4211 19.3696 14.298)" stroke="#4C4C4C"/>
<rect x="17.6255" y="9.61248" width="3" height="3" rx="0.5" transform="rotate(-20.4211 17.6255 9.61248)" stroke="#4C4C4C"/>
<rect x="15.8813" y="4.92693" width="3" height="3" rx="0.5" transform="rotate(-20.4211 15.8813 4.92693)" stroke="#4C4C4C"/>
<path d="M17.3915 10.665H30.4824L27.5733 29.665L14.4824 27.0975L17.3915 10.665Z" fill="white"/>
<path fill-rule="evenodd" clip-rule="evenodd" d="M34.1597 11.8586C35.8039 12.0631 36.9709 13.5618 36.7664 15.2059L35.3909 26.2636C35.1863 27.9078 33.6877 29.0748 32.0435 28.8703L17.5835 27.0715C15.9393 26.867 14.7723 25.3683 14.9768 23.7241L16.3523 12.6665C16.5569 11.0223 18.0555 9.85526 19.6997 10.0598L34.1597 11.8586ZM34.0327 12.8793L19.5727 11.0805C18.4923 10.9461 17.5074 11.713 17.373 12.7935L15.9975 23.8511C15.8631 24.9316 16.63 25.9164 17.7105 26.0508L32.1705 27.8496C33.2509 27.984 34.2358 27.2171 34.3702 26.1366L35.7457 15.079C35.8801 13.9985 35.1132 13.0137 34.0327 12.8793Z" fill="#4C4C4C"/>
<path fill-rule="evenodd" clip-rule="evenodd" d="M22.7324 16.4847C22.9633 16.4987 23.1787 16.6054 23.3298 16.7806L28.6983 23.0063L34.6588 19.3438L34.4921 20.6839L34.4936 20.6718L29.2228 23.7685L31.8155 26.6213L30.6108 26.4974L30.1821 26.4716L22.7123 17.7163L19.7479 20.4006L16.7834 23.0849L16.8364 22.6596L16.9685 21.3804L22.1037 16.7064C22.2747 16.5507 22.5015 16.4708 22.7324 16.4847Z" fill="#4C4C4C"/>
<circle cx="31.8776" cy="16.3246" r="1.64286" transform="rotate(7.09096 31.8776 16.3246)" stroke="#4C4C4C"/>
</svg>
