<svg width="22" height="24" viewBox="0 0 22 24" fill="none" xmlns="http://www.w3.org/2000/svg">
<g id="user-light" clip-path="url(#clip0_1_5740)">
<path id="Vector" d="M15.631 6C15.631 5.40905 15.5146 4.82389 15.2884 4.27792C15.0623 3.73196 14.7308 3.23588 14.313 2.81802C13.8951 2.40016 13.399 2.06869 12.8531 1.84254C12.3071 1.6164 11.7219 1.5 11.131 1.5C10.54 1.5 9.95487 1.6164 9.40891 1.84254C8.86294 2.06869 8.36686 2.40016 7.949 2.81802C7.53114 3.23588 7.19967 3.73196 6.97352 4.27792C6.74738 4.82389 6.63098 5.40905 6.63098 6C6.63098 6.59095 6.74738 7.17611 6.97352 7.72208C7.19967 8.26804 7.53114 8.76412 7.949 9.18198C8.36686 9.59984 8.86294 9.93131 9.40891 10.1575C9.95487 10.3836 10.54 10.5 11.131 10.5C11.7219 10.5 12.3071 10.3836 12.8531 10.1575C13.399 9.93131 13.8951 9.59984 14.313 9.18198C14.7308 8.76412 15.0623 8.26804 15.2884 7.72208C15.5146 7.17611 15.631 6.59095 15.631 6ZM5.13098 6C5.13098 4.4087 5.76312 2.88258 6.88834 1.75736C8.01356 0.632141 9.53968 0 11.131 0C12.7223 0 14.2484 0.632141 15.3736 1.75736C16.4988 2.88258 17.131 4.4087 17.131 6C17.131 7.5913 16.4988 9.11742 15.3736 10.2426C14.2484 11.3679 12.7223 12 11.131 12C9.53968 12 8.01356 11.3679 6.88834 10.2426C5.76312 9.11742 5.13098 7.5913 5.13098 6ZM2.13098 22.5H20.131C20.0747 18.7641 17.0279 15.75 13.2732 15.75H8.98879C5.23879 15.75 2.19192 18.7641 2.13098 22.5ZM0.630981 22.6078C0.630981 17.9906 4.37161 14.25 8.98879 14.25H13.2732C17.8904 14.25 21.631 17.9906 21.631 22.6078C21.631 23.3766 21.0075 24 20.2388 24H2.02317C1.25442 24 0.630981 23.3766 0.630981 22.6078Z" fill="#4C4C4C"/>
</g>
<defs>
<clipPath id="clip0_1_5740">
<rect width="21" height="24" fill="white" transform="translate(0.630981)"/>
</clipPath>
</defs>
</svg>
