<svg width="24" height="24" viewBox="0 0 24 24" fill="none" xmlns="http://www.w3.org/2000/svg">
<path d="M7 8H18.5C19.3284 8 20 8.67157 20 9.5V17C20 18.1046 19.1046 19 18 19H6C4.89543 19 4 18.1046 4 17V8C4 6.89543 4.89543 6 6 6H17C17.8284 6 18.5 6.67157 18.5 7.5" stroke="#333333"/>
<path fill-rule="evenodd" clip-rule="evenodd" d="M8 8L15.5 5L17 8H8Z" fill="white" stroke="#333333" stroke-linejoin="round"/>
<path d="M20 11.5H17.5C16.3954 11.5 15.5 12.3954 15.5 13.5C15.5 14.6046 16.3954 15.5 17.5 15.5H20" stroke="#333333"/>
<path d="M17.5 14.5C18.0523 14.5 18.5 14.0523 18.5 13.5C18.5 12.9477 18.0523 12.5 17.5 12.5C16.9477 12.5 16.5 12.9477 16.5 13.5C16.5 14.0523 16.9477 14.5 17.5 14.5Z" stroke="#333333"/>
</svg>
