<svg width="26" height="26" viewBox="0 0 26 26" fill="none" xmlns="http://www.w3.org/2000/svg">
<path d="M6.2555 2.58621C5.41167 2.8059 4.7426 3.51492 4.56285 4.38371C4.48296 4.75819 4.48296 22.204 4.56285 22.5784C4.69766 23.2275 5.172 23.8766 5.73622 24.1762C6.27047 24.4658 6.26049 24.4658 10.7043 24.4658C13.2258 24.4658 14.8835 24.4458 15.0483 24.4159C15.937 24.2511 16.726 23.4622 16.8907 22.5734C16.9157 22.4286 16.9407 21.7696 16.9407 21.1105V19.9171L16.8158 19.7973C16.671 19.6475 16.4463 19.6375 16.2866 19.7673C16.1667 19.8622 16.1667 19.8722 16.1418 21.1804C16.1168 22.4237 16.1118 22.5085 15.997 22.7532C15.8522 23.0777 15.4927 23.4223 15.1681 23.5471C14.9284 23.637 14.7387 23.642 10.6993 23.642H6.48018L6.19558 23.5022C5.87103 23.3424 5.59142 23.0578 5.43663 22.7232L5.33178 22.4936L5.33178 13.4811L5.33178 4.46859L5.47158 4.18399C5.63136 3.85944 5.91597 3.57983 6.2505 3.42504C6.46021 3.33018 6.58504 3.32019 7.53871 3.30521L8.59225 3.29023L8.75203 3.58982C9.02665 4.1041 8.88185 4.06915 10.7393 4.08413C11.9126 4.09411 12.407 4.07913 12.5118 4.03919C12.6117 3.99425 12.7015 3.88441 12.8264 3.63475L13.0011 3.29023L13.9848 3.30521C15.1132 3.32518 15.3029 3.37511 15.6824 3.75958C16.0319 4.11409 16.1068 4.35875 16.1418 5.1826C16.1667 5.86166 16.1717 5.9066 16.2866 5.99647C16.4463 6.12629 16.671 6.11631 16.8158 5.96651C16.9357 5.85168 16.9407 5.81672 16.9407 5.25251C16.9407 4.92296 16.9157 4.5335 16.8907 4.3887C16.7759 3.75958 16.2766 3.08551 15.7124 2.78593C15.1631 2.49134 15.253 2.49633 10.7243 2.50133C6.98948 2.50133 6.55009 2.51131 6.2555 2.58621Z" fill="#4C4C4C" stroke="#4C4C4C" stroke-width="0.5"/>
<path d="M15.8674 6.92026C15.0286 7.05008 14.4594 7.22983 13.7803 7.57935C12.1975 8.38822 11.0541 9.89613 10.6696 11.6836C10.5398 12.2728 10.5398 13.4911 10.6696 14.0803C11.2538 16.7766 13.4857 18.6989 16.2219 18.8537C19.1628 19.0235 21.7792 17.0063 22.4133 14.0803C22.4832 13.7707 22.5032 13.4462 22.5032 12.882C22.5032 11.7735 22.3434 11.0845 21.8441 10.1208C21.0502 8.56797 19.5723 7.42955 17.8397 7.0351C17.4252 6.94023 16.2069 6.87033 15.8674 6.92026ZM17.3653 7.76409C20.3761 8.25341 22.3085 11.1993 21.5595 14.1552C21.3348 15.054 20.9004 15.8179 20.2413 16.492C19.797 16.9513 19.4075 17.2409 18.8882 17.5006C16.8461 18.5241 14.4494 18.1347 12.8616 16.5169C12.1226 15.773 11.6682 14.9142 11.4386 13.8556C11.3537 13.4612 11.3537 12.2379 11.4386 11.8834C11.7132 10.7549 12.1626 9.93108 12.9065 9.1971C13.3559 8.75771 13.6255 8.55799 14.1897 8.26839C15.1834 7.7591 16.2718 7.58434 17.3653 7.76409Z" fill="#4C4C4C" stroke="#4C4C4C" stroke-width="0.5"/>
<path d="M16.2014 9.17195C16.0816 9.21689 15.9917 9.48152 15.9917 9.7861C15.9917 10.0357 15.9767 10.0857 15.9068 10.0857C15.732 10.0857 15.3126 10.3253 15.1079 10.54C14.7234 10.9445 14.5737 11.4638 14.7085 11.9381C14.8932 12.5722 15.2927 12.9367 16.2863 13.3811C17.3248 13.8505 17.5795 14.0751 17.5246 14.4896C17.4896 14.7492 17.3847 14.894 17.1551 15.0038C16.6657 15.2435 16.0915 15.0438 15.5573 14.4496C15.2527 14.1151 15.2028 14.0801 15.033 14.0801C14.8283 14.0801 14.6436 14.2549 14.6436 14.4496C14.6436 14.7143 15.2128 15.3334 15.732 15.628L16.0366 15.8027L16.0416 16.1073C16.0416 16.357 16.0616 16.4269 16.1565 16.5167C16.4311 16.7764 16.7706 16.5817 16.8006 16.1572L16.8155 15.9126L17.0752 15.8477C17.6244 15.7079 17.9689 15.4582 18.1587 15.0638C18.3334 14.6993 18.3684 14.3597 18.2635 14.0002C18.1936 13.7556 18.1287 13.6557 17.8691 13.4011C17.5645 13.1015 17.3448 12.9717 16.3761 12.5373C15.797 12.2776 15.4424 11.9081 15.4424 11.5736C15.4424 11.3789 15.6571 11.0693 15.8669 10.9495C16.1315 10.7997 16.7157 10.7897 17.0252 10.9295C17.3248 11.0693 17.4097 11.2191 17.3698 11.5536C17.3398 11.7883 17.3498 11.8382 17.4546 11.9581C17.6094 12.1428 17.8441 12.1478 18.0239 11.9731C18.3135 11.6785 18.1936 10.8247 17.8092 10.4901C17.5845 10.2904 17.2799 10.1356 17.0252 10.0957L16.8155 10.0607L16.8006 9.7112C16.7906 9.43658 16.7606 9.33672 16.6807 9.25184C16.5759 9.14199 16.3612 9.10704 16.2014 9.17195Z" fill="#4C4C4C" stroke="#4C4C4C" stroke-width="0.5"/>
</svg>
