<svg width="25" height="26" viewBox="0 0 25 26" fill="none" xmlns="http://www.w3.org/2000/svg">
<path d="M12.25 3.22168C12.3854 3.14353 12.5482 3.13377 12.6904 3.19238L12.75 3.22168L20.8438 7.89453C20.9981 7.98387 21.0937 8.14877 21.0938 8.32715V17.6729C21.0937 17.829 21.0201 17.9745 20.8984 18.0684L20.8438 18.1055L12.75 22.7783C12.6146 22.8565 12.4518 22.8662 12.3096 22.8076L12.25 22.7783L4.15625 18.1055C4.00187 18.0161 3.90632 17.8512 3.90625 17.6729V8.32715C3.90631 8.171 3.97985 8.02548 4.10156 7.93164L4.15625 7.89453L12.25 3.22168Z" stroke="#4C4C4C" stroke-linejoin="round"/>
<path d="M5.1499 8.80005L12.4999 12.475M12.4999 12.475L19.3249 8.80005M12.4999 12.475V20.35" stroke="#4C4C4C" stroke-linecap="round" stroke-linejoin="round"/>
<path d="M6.19995 6.7L14.6 10.9V16.15L17.75 14.575V9.325L9.34995 5.125L6.19995 6.7Z" stroke="#4C4C4C" stroke-linecap="round" stroke-linejoin="round"/>
</svg>
