<svg width="24" height="25" viewBox="0 0 24 25" fill="none" xmlns="http://www.w3.org/2000/svg">
<g clip-path="url(#clip0_51_3718)">
<path d="M2.74993 11.6465C2.88993 11.8366 3.08993 11.9366 3.30993 11.9366C3.44993 11.9366 3.58993 11.9066 3.70993 11.8066L3.64993 11.7265L3.66993 11.7565L3.70993 11.8066L9.37993 7.6851L14.0999 11.7665C14.3899 12.0166 14.8199 11.9866 15.0699 11.7065L21.4099 4.65402C21.6699 4.36392 21.6499 3.92376 21.3599 3.67367C21.0699 3.42358 20.6299 3.44359 20.3799 3.73369L14.4999 10.276L9.86993 6.2746L9.80993 6.34462L9.86993 6.26459C9.62993 6.05452 9.26993 6.04451 9.00993 6.23458L2.89993 10.6762C2.58993 10.9062 2.52993 11.3364 2.74993 11.6465Z" fill="#4C4C4C"/>
<path d="M14.6401 14.6475C13.5001 14.6475 12.5601 15.5878 12.5601 16.7282V19.4192C12.5601 20.5596 13.5001 21.4999 14.6401 21.4999C15.7801 21.4999 16.7201 20.5596 16.7201 19.4192V16.7282C16.7201 15.5878 15.7801 14.6475 14.6401 14.6475ZM15.3301 19.4192C15.3301 19.7993 15.0201 20.1094 14.6401 20.1094C14.2601 20.1094 13.9501 19.7993 13.9501 19.4192V16.7282C13.9501 16.3481 14.2601 16.038 14.6401 16.038C15.0201 16.038 15.3301 16.3481 15.3301 16.7282V19.4192Z" fill="#4C4C4C"/>
<path d="M19.9201 10.406C18.7801 10.406 17.8401 11.3463 17.8401 12.4867V19.4192C17.8401 20.5596 18.7801 21.4999 19.9201 21.4999C21.0601 21.4999 22.0001 20.5596 22.0001 19.4192V12.4867C22.0001 11.3463 21.0601 10.406 19.9201 10.406ZM20.6101 19.4192C20.6101 19.7993 20.3001 20.1095 19.9201 20.1095C19.5401 20.1095 19.2301 19.7993 19.2301 19.4192V12.4867C19.2301 12.1066 19.5401 11.7965 19.9201 11.7965C20.3001 11.7965 20.6101 12.1066 20.6101 12.4867V19.4192Z" fill="#4C4C4C"/>
<path d="M9.36003 10.406C8.22003 10.406 7.28003 11.3463 7.28003 12.4867V19.4192C7.28003 20.5596 8.22003 21.4999 9.36003 21.4999C10.5 21.4999 11.44 20.5596 11.44 19.4192V12.4867C11.44 11.3463 10.5 10.406 9.36003 10.406ZM10.05 19.4192C10.05 19.7993 9.74003 20.1095 9.36003 20.1095C8.98003 20.1095 8.67003 19.7993 8.67003 19.4192V12.4867C8.67003 12.1066 8.98003 11.7965 9.36003 11.7965C9.74003 11.7965 10.05 12.1066 10.05 12.4867V19.4192Z" fill="#4C4C4C"/>
<path d="M4.08 14.6475C2.94 14.6475 2 15.5878 2 16.7282V19.4192C2 20.5596 2.94 21.4999 4.08 21.4999C5.22 21.4999 6.16 20.5596 6.16 19.4192V16.7282C6.16 15.5878 5.22 14.6475 4.08 14.6475ZM4.77 19.4192C4.77 19.7993 4.46 20.1094 4.08 20.1094C3.7 20.1094 3.39 19.7993 3.39 19.4192V16.7282C3.39 16.3481 3.7 16.038 4.08 16.038C4.46 16.038 4.77 16.3481 4.77 16.7282V19.4192Z" fill="#4C4C4C"/>
</g>
<defs>
<clipPath id="clip0_51_3718">
<rect width="24" height="24" fill="white" transform="translate(0 0.5)"/>
</clipPath>
</defs>
</svg>
