<svg width="16" height="16" viewBox="0 0 16 16" fill="none" xmlns="http://www.w3.org/2000/svg">
<path fill-rule="evenodd" clip-rule="evenodd" d="M10.3119 14.5515C10.3119 14.5515 10.2758 14.52 10.2578 14.502C9.93728 14.1827 9.75673 13.7465 9.75673 13.2969V12.9102H1.53694C1.4918 12.9102 1.45117 12.9461 1.45117 12.9956V13.081C1.45117 13.8949 2.11471 14.5515 2.92721 14.5515H10.3119Z" fill="#4C4C4C"/>
<path d="M12.7354 13.291C12.7352 13.9879 12.1667 14.5498 11.4717 14.5498C11.1377 14.5498 10.8173 14.4189 10.5781 14.1807C10.3391 13.9424 10.2081 13.6236 10.208 13.291V12.6797C10.208 12.5538 10.1087 12.4542 9.98242 12.4541H2.65625V2.44922H12.7354V13.291ZM7.74805 5.11523C7.62166 5.11523 7.52246 5.21491 7.52246 5.34082V5.57422C6.91766 5.61918 6.45224 6.08233 6.45215 6.63086C6.45215 7.20636 6.96243 7.68346 7.6123 7.68359H7.90625C8.09122 7.68366 8.2676 7.74643 8.39844 7.86328C8.52004 7.97111 8.58782 8.11492 8.58789 8.26758C8.58789 8.57783 8.2942 8.8115 7.95117 8.81152H7.61719C7.42761 8.81152 7.24247 8.74445 7.10254 8.62305C7.05289 8.57808 7.00816 8.52369 6.97656 8.46973C6.91333 8.36191 6.77723 8.32672 6.66895 8.38965C6.56088 8.45269 6.52476 8.58751 6.58789 8.69531C6.64202 8.7941 6.71904 8.87911 6.80469 8.95996C6.99878 9.13084 7.25163 9.23885 7.52246 9.25684V9.49512C7.52246 9.62103 7.62166 9.7207 7.74805 9.7207C7.87441 9.72067 7.97363 9.62101 7.97363 9.49512V9.26172C8.57393 9.25273 9.04386 8.80301 9.04395 8.27246C9.04395 7.99366 8.92138 7.72813 8.7002 7.53027C8.48813 7.34157 8.20399 7.23835 7.90625 7.23828H7.6123C7.22882 7.23816 6.90444 6.9773 6.9043 6.63574C6.9043 6.2895 7.23388 6.02441 7.62207 6.02441H7.8252C8.14548 6.02458 8.42529 6.19518 8.53809 6.44238C8.58783 6.55463 8.72317 6.60412 8.83594 6.55469C8.94875 6.50521 8.99789 6.37022 8.94824 6.25781C8.78571 5.90265 8.41593 5.63246 7.97363 5.58301V5.34082C7.97363 5.21493 7.87441 5.11527 7.74805 5.11523Z" fill="#4C4C4C"/>
</svg>
