<svg width="26" height="26" viewBox="0 0 26 26" fill="none" xmlns="http://www.w3.org/2000/svg">
<path d="M12.8891 3.03071C11.6852 3.24998 10.705 3.97659 10.1719 5.04714C9.97409 5.44269 9.80641 6.0919 9.80641 6.45306V6.72822L9.43237 6.91739C7.09782 8.09114 5.36947 10.3612 4.84065 12.9538C4.72457 13.5127 4.63428 14.3855 4.65148 14.7767L4.66438 15.0347L4.40212 15.1723C2.99193 15.9247 2.22664 17.5112 2.5233 19.0719C2.78556 20.4649 3.82601 21.5741 5.2276 21.9525C5.49416 22.0256 5.69193 22.0471 6.10896 22.0471C6.71517 22.0471 7.11071 21.9611 7.62664 21.7246C7.82441 21.6343 7.94049 21.5999 7.97918 21.63C8.5123 22.017 9.2045 22.4426 9.62584 22.6447C12.1195 23.8442 14.9484 23.8227 17.4206 22.5888C17.7473 22.4254 18.4868 21.9611 18.9425 21.63C18.9812 21.5999 19.093 21.63 19.2951 21.7246C19.8325 21.9697 20.2109 22.0514 20.8128 22.0471C21.2212 22.0471 21.4319 22.0256 21.6941 21.9525C22.6142 21.7074 23.3752 21.1528 23.8825 20.366C25.0347 18.586 24.4027 16.1784 22.5196 15.1723L22.2573 15.0347L22.2702 14.7767C22.2745 14.6392 22.2574 14.2823 22.2316 13.99C21.9607 10.9632 20.2453 8.3792 17.5711 6.96039L17.1282 6.72822L17.1024 6.34987C16.9992 4.86227 15.9416 3.56814 14.4712 3.1382C14.0456 3.01351 13.2717 2.96192 12.8891 3.03071ZM10.5588 8.87793C11.0618 9.53145 11.7626 9.99578 12.5795 10.2151C12.8461 10.2881 13.0481 10.3096 13.4609 10.3096C13.8736 10.3096 14.0757 10.2881 14.3422 10.2151C15.3354 9.94849 16.1609 9.31218 16.6725 8.41789L16.7972 8.19432L17.1282 8.3792C18.5986 9.21759 19.7895 10.6407 20.3613 12.2315C20.5935 12.8893 20.7139 13.4955 20.7913 14.407L20.8171 14.7166L20.4817 14.7467C19.2091 14.8627 18.0913 15.628 17.5238 16.7674C17.24 17.3349 17.1497 17.7262 17.1497 18.3797C17.1454 19.1364 17.3217 19.7383 17.7258 20.3703C17.8849 20.6197 17.8849 20.6197 17.3561 20.9464C14.957 22.434 11.9647 22.434 9.56565 20.9464C9.03683 20.6197 9.03683 20.6197 9.1959 20.3703C9.60004 19.7383 9.77632 19.1364 9.77202 18.3797C9.77202 17.7262 9.68173 17.3349 9.39797 16.7674C8.83046 15.628 7.71262 14.8627 6.44001 14.7467L6.10896 14.7166L6.13476 14.364C6.25514 12.627 6.80546 11.2555 7.8889 9.96139C8.40482 9.35087 9.07552 8.79194 9.78491 8.3878L10.1246 8.19432L10.2492 8.41789C10.3223 8.54258 10.4599 8.74895 10.5588 8.87793Z" fill="#4C4C4C"/>
</svg>
