<svg width="16" height="16" viewBox="0 0 16 16" fill="none" xmlns="http://www.w3.org/2000/svg">
<path d="M12 1C12.5523 1 13 1.44772 13 2V14C13 14.5523 12.5523 15 12 15H4C3.44772 15 3 14.5523 3 14V2C3 1.44772 3.44772 1 4 1H12ZM4.25 12C4.11193 12 4 12.1119 4 12.25C4 12.3881 4.11193 12.5 4.25 12.5H11.75C11.8881 12.5 12 12.3881 12 12.25C12 12.1119 11.8881 12 11.75 12H4.25ZM4.25 7C4.11193 7 4 7.11193 4 7.25C4 7.38807 4.11193 7.5 4.25 7.5H11.75C11.8881 7.5 12 7.38807 12 7.25C12 7.11193 11.8881 7 11.75 7H4.25ZM4.25 5.5C4.11193 5.5 4 5.61193 4 5.75C4 5.88807 4.11193 6 4.25 6H11.75C11.8881 6 12 5.88807 12 5.75C12 5.61193 11.8881 5.5 11.75 5.5H4.25ZM4.25 4C4.11193 4 4 4.11193 4 4.25C4 4.38807 4.11193 4.5 4.25 4.5H11.75C11.8881 4.5 12 4.38807 12 4.25C12 4.11193 11.8881 4 11.75 4H4.25Z" fill="#4C4C4C"/>
</svg>
