<svg width="24" height="25" viewBox="0 0 24 25" fill="none" xmlns="http://www.w3.org/2000/svg">
<path fill-rule="evenodd" clip-rule="evenodd" d="M11.934 3.5L2.17126 13.3246C2.02821 13.4638 1.97064 13.67 2.02066 13.864C2.07069 14.0581 2.22053 14.2098 2.4126 14.2609C2.60466 14.3119 2.80907 14.2544 2.94726 14.1104L4.20799 12.8419V20.6535C4.20799 20.9599 4.45405 21.2083 4.75757 21.2083H9.70377C10.0073 21.2083 10.2533 20.9599 10.2533 20.6535V15.8038C10.2533 15.4974 10.4994 15.249 10.8029 15.249H13.0012C13.3048 15.249 13.5508 15.4974 13.5508 15.8038V20.6535C13.5508 20.9599 13.7969 21.2083 14.1004 21.2083H19.0466C19.3501 21.2083 19.5962 20.9599 19.5962 20.6535V12.8336L20.8558 14.1098C20.9945 14.2501 21.1969 14.3051 21.3866 14.254C21.5763 14.2029 21.7247 14.0535 21.7757 13.862C21.8267 13.6705 21.7727 13.4661 21.634 13.3258L11.934 3.5Z" fill="#4C4C4C"/>
<path d="M5.30715 20.0986H9.15419V15.8038C9.15419 14.8845 9.89235 14.1392 10.8029 14.1392H13.0012C13.9118 14.1392 14.65 14.8845 14.65 15.8038V20.0986H18.497M11.934 3.5L2.17126 13.3246C2.02821 13.4638 1.97064 13.67 2.02066 13.864C2.07069 14.0581 2.22053 14.2098 2.4126 14.2609C2.60466 14.3119 2.80907 14.2544 2.94726 14.1104L4.20799 12.8419V20.6535C4.20799 20.9599 4.45405 21.2083 4.75757 21.2083H9.70377C10.0073 21.2083 10.2533 20.9599 10.2533 20.6535V15.8038C10.2533 15.4974 10.4994 15.249 10.8029 15.249H13.0012C13.3048 15.249 13.5508 15.4974 13.5508 15.8038V20.6535C13.5508 20.9599 13.7969 21.2083 14.1004 21.2083H19.0466C19.3501 21.2083 19.5962 20.9599 19.5962 20.6535V12.8336L20.8558 14.1098C20.9945 14.2501 21.1969 14.3051 21.3866 14.254C21.5763 14.2029 21.7247 14.0535 21.7757 13.862C21.8267 13.6705 21.7727 13.4661 21.634 13.3258L11.934 3.5Z" stroke="#4C4C4C" stroke-width="0.3"/>
</svg>
