<svg width="26" height="26" viewBox="0 0 26 26" fill="none" xmlns="http://www.w3.org/2000/svg">
<path d="M6.2555 2.58621C5.41167 2.8059 4.7426 3.51492 4.56285 4.38371C4.48296 4.75819 4.48296 22.204 4.56285 22.5784C4.69766 23.2275 5.172 23.8766 5.73622 24.1762C6.27047 24.4658 6.26049 24.4658 10.7043 24.4658C13.2258 24.4658 14.8835 24.4458 15.0483 24.4159C15.937 24.2511 16.726 23.4622 16.8907 22.5734C16.9157 22.4286 16.9407 21.7696 16.9407 21.1105V19.9171L16.8158 19.7973C16.671 19.6475 16.4463 19.6375 16.2866 19.7673C16.1667 19.8622 16.1667 19.8722 16.1418 21.1804C16.1168 22.4237 16.1118 22.5085 15.997 22.7532C15.8522 23.0777 15.4927 23.4223 15.1681 23.5471C14.9284 23.637 14.7387 23.642 10.6993 23.642H6.48018L6.19558 23.5022C5.87103 23.3424 5.59142 23.0578 5.43663 22.7232L5.33178 22.4936L5.33178 13.4811L5.33178 4.46859L5.47158 4.18399C5.63136 3.85944 5.91597 3.57983 6.2505 3.42504C6.46021 3.33018 6.58504 3.32019 7.53871 3.30521L8.59225 3.29023L8.75203 3.58982C9.02665 4.1041 8.88185 4.06915 10.7393 4.08413C11.9126 4.09411 12.407 4.07913 12.5118 4.03919C12.6117 3.99425 12.7015 3.88441 12.8264 3.63475L13.0011 3.29023L13.9848 3.30521C15.1132 3.32518 15.3029 3.37511 15.6824 3.75958C16.0319 4.11409 16.1068 4.35875 16.1418 5.1826C16.1667 5.86166 16.1717 5.9066 16.2866 5.99647C16.4463 6.12629 16.671 6.11631 16.8158 5.96651C16.9357 5.85168 16.9407 5.81672 16.9407 5.25251C16.9407 4.92296 16.9157 4.5335 16.8907 4.3887C16.7759 3.75958 16.2766 3.08551 15.7124 2.78593C15.1631 2.49134 15.253 2.49633 10.7243 2.50133C6.98948 2.50133 6.55009 2.51131 6.2555 2.58621Z" fill="#4C4C4C" stroke="#4C4C4C" stroke-width="0.5"/>
<path fill-rule="evenodd" clip-rule="evenodd" d="M13.7803 7.57936C14.4594 7.22985 15.0286 7.0501 15.8674 6.92028C16.2069 6.87034 17.4252 6.94025 17.8397 7.03512C19.5723 7.42957 21.0502 8.56799 21.8441 10.1208C22.3434 11.0845 22.5032 11.7735 22.5032 12.882C22.5032 13.4462 22.4832 13.7708 22.4133 14.0803C21.7792 17.0063 19.1628 19.0235 16.2219 18.8537C13.4857 18.6989 11.2538 16.7766 10.6696 14.0803C10.5398 13.4911 10.5398 12.2728 10.6696 11.6837C11.0541 9.89614 12.1975 8.38824 13.7803 7.57936ZM15.9917 9.78612C15.9917 9.48155 16.0816 9.21691 16.2014 9.17198C16.3612 9.10707 16.5759 9.14202 16.6807 9.25187C16.7606 9.33675 16.7906 9.43661 16.8006 9.71123L16.8155 10.0607L17.0252 10.0957C17.2799 10.1356 17.5845 10.2904 17.8092 10.4901C18.1936 10.8247 18.3135 11.6785 18.0239 11.9731C17.8441 12.1478 17.6094 12.1428 17.4546 11.9581C17.3498 11.8383 17.3398 11.7883 17.3698 11.5537C17.4097 11.2191 17.3248 11.0693 17.0252 10.9295C16.7157 10.7897 16.1315 10.7997 15.8669 10.9495C15.6571 11.0693 15.4424 11.3789 15.4424 11.5736C15.4424 11.9082 15.797 12.2777 16.3761 12.5373C17.3448 12.9717 17.5645 13.1015 17.8691 13.4011C18.1287 13.6557 18.1936 13.7556 18.2635 14.0003C18.3684 14.3598 18.3334 14.6993 18.1587 15.0638C17.9689 15.4582 17.6244 15.7079 17.0752 15.8477L16.8155 15.9126L16.8006 16.1573C16.7706 16.5817 16.4311 16.7764 16.1565 16.5168C16.0616 16.4269 16.0416 16.357 16.0416 16.1073L16.0366 15.8028L15.732 15.628C15.2128 15.3334 14.6436 14.7143 14.6436 14.4496C14.6436 14.2549 14.8283 14.0802 15.033 14.0802C15.2028 14.0802 15.2527 14.1151 15.5573 14.4496C16.0915 15.0438 16.6657 15.2435 17.1551 15.0039C17.3847 14.894 17.4896 14.7492 17.5246 14.4896C17.5795 14.0752 17.3248 13.8505 16.2863 13.3811C15.2927 12.9367 14.8932 12.5723 14.7085 11.9381C14.5737 11.4638 14.7234 10.9445 15.1079 10.5401C15.3126 10.3254 15.732 10.0857 15.9068 10.0857C15.9767 10.0857 15.9917 10.0358 15.9917 9.78612Z" fill="#4C4C4C"/>
</svg>
