<svg width="16" height="16" viewBox="0 0 16 16" fill="none" xmlns="http://www.w3.org/2000/svg">
<path d="M14.6665 12.1006C14.6664 13.205 13.771 14.1006 12.6665 14.1006H3.3335C2.22901 14.1006 1.33364 13.205 1.3335 12.1006V6.43457H14.6665V12.1006ZM12.6665 2.76758C13.7711 2.76758 14.6665 3.66301 14.6665 4.76758V5.43457H1.3335V4.76758C1.3335 3.66301 2.22893 2.76758 3.3335 2.76758H4.28271V4.43457L4.29639 4.56543C4.35712 4.86133 4.61927 5.08383 4.93311 5.08398C5.24704 5.08398 5.50902 4.86137 5.56982 4.56543L5.5835 4.43457V2.76758H10.3501V4.43457L10.3638 4.56543C10.4246 4.86137 10.6866 5.08398 11.0005 5.08398C11.3143 5.08383 11.5765 4.86133 11.6372 4.56543L11.6509 4.43457V2.76758H12.6665ZM4.93311 1.11719C5.29209 1.11719 5.5835 1.40859 5.5835 1.76758V2.76758H4.28271V1.76758C4.28271 1.4087 4.57427 1.11736 4.93311 1.11719ZM11.0005 1.11719C11.3593 1.11736 11.6509 1.4087 11.6509 1.76758V2.76758H10.3501V1.76758C10.3501 1.40859 10.6415 1.11719 11.0005 1.11719Z" fill="#4C4C4C"/>
</svg>
