<svg width="24" height="25" viewBox="0 0 24 25" fill="none" xmlns="http://www.w3.org/2000/svg">
<path d="M7.04297 5.70874H18.043C18.8714 5.70874 19.543 6.38031 19.543 7.20874V21.2087C19.543 22.0372 18.8714 22.7087 18.043 22.7087H7.04297C6.21454 22.7087 5.54297 22.0372 5.54297 21.2087V7.20874C5.54297 6.38031 6.21454 5.70874 7.04297 5.70874Z" fill="#4C4C4C" stroke="#4C4C4C"/>
<path d="M11.043 9.70874H17.043" stroke="white" stroke-linecap="round"/>
<path d="M11.043 14.2087H17.043" stroke="white" stroke-linecap="round"/>
<path d="M7.54297 9.20874L8.04297 10.2087L9.54297 8.20874" stroke="white" stroke-linecap="round" stroke-linejoin="round"/>
<path d="M7.54297 13.5L8.04297 14.5L9.54297 12.5" stroke="white" stroke-linecap="round" stroke-linejoin="round"/>
<path d="M11.043 19.2087H17.043" stroke="white" stroke-linecap="round"/>
<circle cx="8.54297" cy="18.7087" r="1" stroke="white"/>
<path d="M11.1475 2H13.9385C14.1342 2 14.293 2.15879 14.293 2.35449C14.293 3.10241 14.8995 3.70898 15.6475 3.70898H16.043C16.3191 3.70898 16.543 3.93284 16.543 4.20898V5.20898C16.5428 5.48499 16.319 5.70898 16.043 5.70898H9.04297C8.76692 5.70898 8.54313 5.48499 8.54297 5.20898V4.20898C8.54297 3.93284 8.76683 3.70898 9.04297 3.70898H9.43848C10.1864 3.70898 10.7929 3.10241 10.793 2.35449C10.793 2.15879 10.9518 2 11.1475 2Z" stroke="#4C4C4C" stroke-linejoin="round"/>
</svg>
