<svg width="16" height="16" viewBox="0 0 16 16" fill="none" xmlns="http://www.w3.org/2000/svg">
<path d="M10.2202 11.0657C10.6738 10.7409 10.979 10.2425 11.0574 9.67969H9.41943C9.48943 10.2341 9.78063 10.7353 10.2202 11.0657Z" fill="#4C4C4C"/>
<path d="M14.4398 6.60156H10.5198V7.16156C10.5198 7.62356 10.1418 8.00156 9.67977 8.00156H5.75977V13.0416C5.75977 13.1956 5.88577 13.3216 6.03977 13.3216H11.6902L13.4094 14.926C13.4626 14.9736 13.5298 15.0016 13.5998 15.0016C13.639 15.0016 13.6754 14.9932 13.7118 14.9764C13.8126 14.9316 13.8798 14.8308 13.8798 14.7216V13.3216H14.4398C14.5938 13.3216 14.7198 13.1956 14.7198 13.0416V6.88156C14.7198 6.72476 14.5938 6.60156 14.4398 6.60156ZM11.9198 9.68156H11.623C11.553 10.3368 11.2394 10.9332 10.7578 11.356C10.7634 11.3588 10.769 11.3616 10.7718 11.3616L11.7322 11.6976C11.8778 11.748 11.9562 11.9076 11.903 12.0532C11.8638 12.168 11.7546 12.2408 11.6398 12.2408C11.609 12.2408 11.5782 12.2352 11.5474 12.224L10.587 11.888C10.4554 11.8432 10.3322 11.7872 10.2118 11.7228C10.097 11.7816 9.97657 11.832 9.85337 11.874L8.92657 12.182C8.89857 12.196 8.87057 12.2016 8.83977 12.2016C8.72217 12.2016 8.61297 12.1288 8.57377 12.0112C8.52617 11.8656 8.60457 11.706 8.75017 11.6584L9.67697 11.3504C9.67697 11.3504 9.67977 11.3504 9.67977 11.3476C9.21497 10.9192 8.91537 10.3284 8.85097 9.68436H8.55977C8.40577 9.68436 8.27977 9.55836 8.27977 9.40436C8.27977 9.25036 8.40577 9.12436 8.55977 9.12436H9.95977V8.56436C9.95977 8.41036 10.0858 8.28436 10.2398 8.28436C10.3938 8.28436 10.5198 8.41036 10.5198 8.56436V9.12436H11.9198C12.0738 9.12436 12.1998 9.25036 12.1998 9.40436C12.1998 9.55836 12.0738 9.68156 11.9198 9.68156Z" fill="#4C4C4C"/>
<path d="M5.48001 3.02344L4.95361 4.07904H6.00641L5.48001 3.02344Z" fill="#4C4C4C"/>
<path d="M1.84 7.44V8.56C1.84 8.6664 1.9016 8.7644 1.9968 8.8092C2.036 8.8288 2.078 8.84 2.12 8.84C2.1816 8.84 2.2432 8.8176 2.2936 8.7784L4.0156 7.44H9.68C9.834 7.44 9.96 7.314 9.96 7.16V1.28C9.96 1.1232 9.834 1 9.68 1H1.28C1.126 1 1 1.1232 1 1.28V7.16C1 7.314 1.126 7.44 1.28 7.44H1.84ZM3.5508 5.634L5.2308 2.274C5.326 2.0836 5.6368 2.0836 5.732 2.274L7.412 5.634C7.482 5.7712 7.426 5.9392 7.286 6.0092C7.244 6.0288 7.202 6.04 7.16 6.04C7.0564 6.04 6.9584 5.984 6.908 5.886L6.2864 4.64H4.6736L4.052 5.886C3.982 6.0232 3.814 6.0792 3.6768 6.012C3.5368 5.9392 3.4808 5.7712 3.5508 5.634Z" fill="#4C4C4C"/>
</svg>
