<svg width="16" height="16" viewBox="0 0 16 16" fill="none" xmlns="http://www.w3.org/2000/svg">
<path d="M8.3335 3.26758C9.65898 3.26758 10.7339 4.34249 10.7339 5.66797C10.7339 6.99345 9.65898 8.06836 8.3335 8.06836C7.00801 8.06836 5.93311 6.99345 5.93311 5.66797C5.93311 4.34249 7.00801 3.26758 8.3335 3.26758Z" fill="#4C4C4C" stroke="#4C4C4C" stroke-width="1.2"/>
<path d="M12.5713 11.3072L12.5545 11.2171C12.3561 10.1504 11.6985 9.22499 10.7564 8.68667L9.93408 8.21677H6.63756L5.53313 8.95305C4.96213 9.33372 4.50852 9.86599 4.2232 10.4901L4.00035 10.9776C4.00035 10.9776 5.31896 13.2852 8.28582 13.2852C11.2527 13.2852 12.5713 11.3072 12.5713 11.3072Z" fill="#4C4C4C" stroke="#4C4C4C" stroke-width="1.2" stroke-linecap="round"/>
</svg>
