<svg width="14" height="14" viewBox="0 0 14 14" fill="none" xmlns="http://www.w3.org/2000/svg">
<g id="Group 1000003137">
<path id="Vector" d="M7.00065 13.6663C10.6825 13.6663 13.6673 10.6816 13.6673 6.99967C13.6673 3.31778 10.6825 0.333008 7.00065 0.333008C3.31875 0.333008 0.333984 3.31778 0.333984 6.99967C0.333984 10.6816 3.31875 13.6663 7.00065 13.6663Z" fill="#F5A623"/>
<path id="Vector_2" fill-rule="evenodd" clip-rule="evenodd" d="M6.12464 4.75575L6.27615 7.02373C6.30456 7.3173 6.35191 7.53589 6.4182 7.67952C6.48449 7.82314 6.60287 7.89495 6.77332 7.89495C6.94061 7.89495 7.06056 7.82076 7.13317 7.67241C7.20576 7.52405 7.25311 7.31098 7.27521 7.0332L7.47881 4.69892C7.5009 4.48428 7.51196 4.27279 7.51196 4.06445C7.51196 3.71092 7.46618 3.44024 7.37464 3.25242C7.2831 3.06462 7.10159 2.9707 6.83014 2.9707C6.60602 2.9707 6.4253 3.0441 6.28799 3.19087C6.15069 3.33766 6.08203 3.54205 6.08203 3.80404C6.08203 3.99659 6.09624 4.31382 6.12464 4.75575ZM6.29746 9.95224C6.44109 10.0769 6.60917 10.1393 6.80173 10.1393C6.99112 10.1393 7.15684 10.0761 7.29888 9.94987C7.44093 9.82361 7.51196 9.65 7.51196 9.42904C7.51196 9.23333 7.44172 9.06682 7.30126 8.92951C7.16078 8.79221 6.99112 8.72355 6.79225 8.72355C6.59339 8.72355 6.4253 8.79221 6.28799 8.92951C6.15069 9.06682 6.08203 9.23333 6.08203 9.42904C6.08203 9.65315 6.15384 9.82755 6.29746 9.95224Z" fill="white"/>
</g>
</svg>
