<svg width="24" height="24" viewBox="0 0 24 24" fill="none" xmlns="http://www.w3.org/2000/svg">
<g id="icon-nav/arrow-left">
<path id="Union" fill-rule="evenodd" clip-rule="evenodd" d="M11.71 20.8205C11.82 20.9305 11.98 20.9905 12.13 20.9905V21.0005C12.28 21.0005 12.43 20.9505 12.55 20.8305C12.78 20.6005 12.78 20.2205 12.55 19.9905L5.04884 12.6005H21.4C21.73 12.6005 22 12.3305 22 12.0005C22 11.6705 21.73 11.4005 21.4 11.4005H5.06766L12.55 4.01055C12.78 3.78055 12.78 3.40055 12.55 3.17055C12.31 2.94055 11.93 2.94055 11.7 3.17055L3.18 11.5805C3.06 11.6905 3 11.8405 3 12.0005C3 12.1605 3.07 12.3105 3.18 12.4205L11.71 20.8205Z" fill="#4C4C4C"/>
</g>
</svg>
