<svg width="14" height="11" viewBox="0 0 14 11" fill="none" xmlns="http://www.w3.org/2000/svg">
<g id="Group 2185">
<path id="Shape" fill-rule="evenodd" clip-rule="evenodd" d="M11.023 0.285156C12.1275 0.285156 13.023 1.18059 13.023 2.28516L13.023 8.88039C13.023 9.98496 12.1275 10.8804 11.023 10.8804L2.97534 10.8804C1.87077 10.8804 0.975342 9.98496 0.975342 8.88039L0.975342 2.28516C0.975342 1.18059 1.87077 0.285156 2.97534 0.285156L11.023 0.285156ZM11.023 0.970871L2.97534 0.970871C2.24948 0.970871 1.66106 1.5593 1.66106 2.28516L1.66106 8.88039C1.66106 9.60625 2.24948 10.1947 2.97534 10.1947L11.023 10.1947C11.7488 10.1947 12.3372 9.60625 12.3372 8.88039L12.3372 2.28516C12.3372 1.5593 11.7488 0.970871 11.023 0.970871Z" fill="#4C4C4C"/>
<path id="Vector (Stroke)" fill-rule="evenodd" clip-rule="evenodd" d="M4.6774 4.2863C4.8313 4.27654 4.98261 4.32939 5.09696 4.43285L9.16093 8.10978L12.8028 5.19626V6.09657V6.08841L9.57066 8.57087L11.5207 10.2448L10.7135 10.262L10.4278 10.2802L4.76545 5.10269L3.0252 7.12249L1.28495 9.1423L1.28495 8.85658L1.26709 7.99944L4.27972 4.48471C4.38008 4.36762 4.5235 4.29607 4.6774 4.2863Z" fill="#4C4C4C"/>
<circle id="Ellipse 2" cx="10.7137" cy="3.42857" r="1.02857" stroke="#4C4C4C" stroke-width="0.8"/>
</g>
</svg>
