<svg width="18" height="18" viewBox="0 0 18 18" fill="none" xmlns="http://www.w3.org/2000/svg">
<g clip-path="url(#clip0_5745_491280)">
<path fill-rule="evenodd" clip-rule="evenodd" d="M7.85962 3.98437V4.375H10.2034V3.98437C10.2034 3.20312 9.81274 2.8125 9.03149 2.8125C8.25024 2.8125 7.85962 3.20312 7.85962 3.98437ZM14.5 13.75C13.4583 13.0289 12.9375 12.1875 12.9375 11.226V7.62022C12.9375 5.45676 11.6354 4.37503 9.03125 4.37503C6.42708 4.37503 5.125 5.57695 5.125 7.9808V11.226C5.125 12.1875 4.60417 13.0289 3.5625 13.75H14.5ZM7.46924 14.1406C7.46924 15.4427 7.99007 16.0937 9.03174 16.0937C10.0734 16.0937 10.5942 15.4427 10.5942 14.1406H7.46924Z" fill="#4C4C4C"/>
</g>
<defs>
<clipPath id="clip0_5745_491280">
<rect width="18" height="18" fill="white"/>
</clipPath>
</defs>
</svg>
