<svg width="30" height="30" viewBox="0 0 30 30" fill="none" xmlns="http://www.w3.org/2000/svg">
<path fill-rule="evenodd" clip-rule="evenodd" d="M2.30859 15C2.30859 7.99028 7.99113 2.30774 15.0009 2.30774C22.0107 2.30774 27.6932 7.99028 27.6932 15C27.6932 22.0098 22.0107 27.6924 15.0009 27.6924C7.99113 27.6924 2.30859 22.0098 2.30859 15Z" fill="white"/>
<path d="M13.7526 19.4035C13.6289 19.5237 13.46 19.5908 13.2847 19.5908C13.1093 19.5908 12.9405 19.5237 12.8168 19.4035L9.07992 15.7935C8.69211 15.4189 8.69211 14.8115 9.07992 14.4377L9.54783 13.9856C9.93575 13.611 10.5639 13.611 10.9517 13.9856L13.2847 16.2392L19.5888 10.15C19.9767 9.77537 20.6055 9.77537 20.9927 10.15L21.4606 10.602C21.8484 10.9766 21.8484 11.5839 21.4606 11.9579L13.7526 19.4035Z" fill="#51AF70"/>
</svg>
