<svg width="20" height="20" viewBox="0 0 20 20" fill="none" xmlns="http://www.w3.org/2000/svg">
<path fill-rule="evenodd" clip-rule="evenodd" d="M1.53833 10.0006C1.53833 5.32742 5.32669 1.53906 9.99987 1.53906C14.6731 1.53906 18.4614 5.32742 18.4614 10.0006C18.4614 14.6738 14.6731 18.4621 9.99987 18.4621C5.32669 18.4621 1.53833 14.6738 1.53833 10.0006Z" fill="#F8F8F8"/>
<path d="M9.1684 12.9344C9.08591 13.0146 8.97336 13.0593 8.85646 13.0593C8.73955 13.0593 8.627 13.0146 8.54452 12.9344L6.05328 10.5278C5.79474 10.2781 5.79474 9.87315 6.05328 9.6239L6.36522 9.32252C6.62383 9.0728 7.04258 9.0728 7.30112 9.32252L8.85646 10.8249L13.0592 6.76541C13.3178 6.5157 13.737 6.5157 13.9951 6.76541L14.307 7.06679C14.5656 7.31651 14.5656 7.72136 14.307 7.97069L9.1684 12.9344Z" fill="#51AF70"/>
</svg>
