<svg width="14" height="18" viewBox="0 0 14 18" fill="none" xmlns="http://www.w3.org/2000/svg">
<path d="M10.2552 0.666016C11.9092 0.666016 13.25 2.00683 13.25 3.66081V14.3379C13.25 15.9919 11.9092 17.3327 10.2552 17.3327H3.74479C2.09081 17.3327 0.75 15.9919 0.75 14.3379V3.66081C0.75 2.00683 2.09081 0.666016 3.74479 0.666016H10.2552ZM6.5 1.66518L3.74479 1.66602C2.6431 1.66602 1.75 2.55911 1.75 3.66081V14.3379C1.75 15.4396 2.6431 16.3327 3.74479 16.3327H6.5V1.66518ZM10.2552 1.66602L7.5 1.66518V16.3327H10.2552C11.3569 16.3327 12.25 15.4396 12.25 14.3379V3.66081C12.25 2.55911 11.3569 1.66602 10.2552 1.66602Z" fill="#DB3B2B"/>
</svg>
