<svg width="20" height="21" viewBox="0 0 20 21" fill="none" xmlns="http://www.w3.org/2000/svg">
<g id="desplegable">
<path id="Shape" fill-rule="evenodd" clip-rule="evenodd" d="M4.88339 7.93902C5.06 7.93902 5.20316 8.15742 5.20316 8.42683C5.20316 8.69624 5.06 8.91463 4.88339 8.91463H1.15278C0.976173 8.91463 0.833008 8.69624 0.833008 8.42683C0.833008 8.15742 0.976173 7.93902 1.15278 7.93902H4.88339ZM13.0132 5.5C13.1898 5.5 13.333 5.7184 13.333 5.9878C13.333 6.25721 13.1898 6.47561 13.0132 6.47561H1.15278C0.976173 6.47561 0.833008 6.25721 0.833008 5.9878C0.833008 5.7184 0.976173 5.5 1.15278 5.5H13.0132Z" fill="#4C4C4C"/>
<path id="Shape_2" fill-rule="evenodd" clip-rule="evenodd" d="M4.88339 15.439C5.06 15.439 5.20316 15.6574 5.20316 15.9268C5.20316 16.1962 5.06 16.4146 4.88339 16.4146H1.15278C0.976173 16.4146 0.833008 16.1962 0.833008 15.9268C0.833008 15.6574 0.976173 15.439 1.15278 15.439H4.88339ZM13.0132 13C13.1898 13 13.333 13.2184 13.333 13.4878C13.333 13.7572 13.1898 13.9756 13.0132 13.9756H1.15278C0.976173 13.9756 0.833008 13.7572 0.833008 13.4878C0.833008 13.2184 0.976173 13 1.15278 13H13.0132Z" fill="#4C4C4C"/>
<path id="Vector 9" d="M19.167 5.49935L17.795 6.87139C17.6322 7.03411 17.3684 7.03411 17.2057 6.87139L15.8337 5.49935" stroke="#4C4C4C" stroke-width="0.666667" stroke-linecap="round"/>
<path id="Vector 10" d="M19.167 12.9993L17.795 14.3714C17.6322 14.5341 17.3684 14.5341 17.2057 14.3714L15.8337 12.9993" stroke="#4C4C4C" stroke-width="0.666667" stroke-linecap="round"/>
</g>
</svg>
