<svg width="24" height="24" viewBox="0 0 24 24" fill="none" xmlns="http://www.w3.org/2000/svg">
<g id="icon-edit/copy">
<path id="Vector" d="M15.8 2.5H11.88C9.56999 2.5 7.69999 4.36 7.67999 6.66C5.36999 6.66 3.48999 8.54 3.48999 10.86V17.3C3.48999 19.62 5.36999 21.5 7.68999 21.5H11.61C13.92 21.5 15.79 19.64 15.81 17.34C18.12 17.34 20 15.46 20 13.14V6.7C20 4.38 18.12 2.5 15.8 2.5ZM11.62 20.3H7.69999C6.04999 20.3 4.69999 18.95 4.69999 17.3V10.86C4.69999 9.21 6.03999 7.87 7.67999 7.86V13.13C7.67999 15.45 9.55999 17.33 11.88 17.33H14.61C14.59 18.97 13.26 20.29 11.61 20.29L11.62 20.3ZM18.8 6.73V13.17C18.8 14.82 17.45 16.17 15.8 16.17H11.88C10.23 16.17 8.87999 14.82 8.87999 13.17V6.73C8.87999 6.73 8.87999 6.68 8.87999 6.66C8.87999 6.56 8.89999 6.47 8.90999 6.38C8.91999 6.29 8.91999 6.2 8.93999 6.11C9.20999 4.74 10.42 3.7 11.87 3.7H15.79C17.44 3.7 18.79 5.05 18.79 6.7V6.73H18.8Z" fill="#4C4C4C"/>
</g>
</svg>
