<svg width="18" height="18" viewBox="0 0 18 18" fill="none" xmlns="http://www.w3.org/2000/svg">
<g clip-path="url(#clip0_1_5744)">
<path d="M13.5 0H4.5C2.01472 0 0 2.01472 0 4.5V13.5C0 15.9853 2.01472 18 4.5 18H13.5C15.9853 18 18 15.9853 18 13.5V4.5C18 2.01472 15.9853 0 13.5 0Z" fill="#F3F3F3" stroke="#E7E7E7"/>
<g clip-path="url(#clip1_1_5744)">
<path fill-rule="evenodd" clip-rule="evenodd" d="M7.49917 13.0707L3.60951 9.17495C3.29683 8.86179 3.29683 8.3482 3.60951 8.03503C3.92218 7.72187 4.43496 7.72187 4.74764 8.03503L7.49917 10.7784L13.2524 5.01612C13.565 4.70296 14.0778 4.70296 14.3905 5.01612C14.7032 5.32929 14.7032 5.84288 14.3905 6.15604L7.49917 13.0707Z" fill="#E7E7E7"/>
</g>
</g>
<rect x="0.5" y="0.5" width="17" height="17" rx="3.5" stroke="#E7E7E7"/>
<defs>
<clipPath id="clip0_1_5744">
<rect width="18" height="18" rx="4" fill="white"/>
</clipPath>
<clipPath id="clip1_1_5744">
<rect width="11.25" height="11.25" fill="white" transform="translate(3.375 3.375)"/>
</clipPath>
</defs>
</svg>
