<svg width="19" height="19" viewBox="0 0 19 19" fill="none" xmlns="http://www.w3.org/2000/svg">
<g clip-path="url(#clip0_5745_491279)">
<path fill-rule="evenodd" clip-rule="evenodd" d="M3 3.56396C1.34315 3.56396 0 4.90711 0 6.56397V12.439C0 14.0958 1.34315 15.439 3 15.439H16C17.6569 15.439 19 14.0958 19 12.439V6.56396C19 4.90711 17.6569 3.56396 16 3.56396H3ZM6.36171 9.95065V8.31396H6.34641H5.07581V9.87692C5.07581 10.2161 4.96866 10.3635 4.73903 10.3635C4.52471 10.3635 4.40225 10.2308 4.40225 9.87692V8.31396H3.13166V9.87692C3.13166 10.2161 3.00919 10.3635 2.79487 10.3635C2.58056 10.3635 2.45809 10.2308 2.45809 9.87692V8.31396H1.1875V9.95065C1.1875 10.8501 1.75391 11.3367 2.76426 11.3367C3.16227 11.3367 3.51437 11.2629 3.77461 10.9975C4.03485 11.2482 4.38694 11.3367 4.78496 11.3367C5.78 11.3367 6.36171 10.8353 6.36171 9.95065ZM12.087 8.31396V9.95065C12.087 10.8353 11.5053 11.3367 10.5102 11.3367C10.1122 11.3367 9.76013 11.2482 9.49989 10.9975C9.23965 11.2629 8.88756 11.3367 8.48954 11.3367C7.47919 11.3367 6.89747 10.8501 6.89747 9.95065V8.31396H8.16806V9.87692C8.16806 10.2308 8.29053 10.3635 8.50485 10.3635C8.71916 10.3635 8.84163 10.2161 8.84163 9.87692V8.31396H10.1122V9.87692C10.1122 10.2308 10.2347 10.3635 10.449 10.3635C10.6786 10.3635 10.7858 10.2161 10.7858 9.87692V8.31396H12.0564H12.087ZM17.8127 9.95065V8.31396H17.782H16.5115V9.87692C16.5115 10.2161 16.4043 10.3635 16.1747 10.3635C15.9604 10.3635 15.8379 10.2308 15.8379 9.87692V8.31396H14.5673V9.87692C14.5673 10.2161 14.4448 10.3635 14.2305 10.3635C14.0162 10.3635 13.8937 10.2308 13.8937 9.87692V8.31396H12.6231V9.95065C12.6231 10.8501 13.2049 11.3367 14.2152 11.3367C14.6132 11.3367 14.9653 11.2629 15.2256 10.9975C15.4858 11.2482 15.8379 11.3367 16.2359 11.3367C17.2309 11.3367 17.8127 10.8353 17.8127 9.95065Z" fill="#4C4C4C"/>
</g>
<defs>
<clipPath id="clip0_5745_491279">
<rect width="19" height="19" fill="white"/>
</clipPath>
</defs>
</svg>
