<svg width="18" height="16" viewBox="0 0 18 16" fill="none" xmlns="http://www.w3.org/2000/svg">
<g id="Icon/Importar">
<path id="Path" d="M16.8384 9.33203C17.1118 9.33203 17.3334 9.55589 17.3334 9.83203V12.332C17.3334 13.9833 16.0648 15.332 14.4869 15.332H2.72945C1.58441 15.332 0.666748 14.3564 0.666748 13.1654V9.83203C0.666748 9.55589 0.888389 9.33203 1.1618 9.33203C1.43521 9.33203 1.65685 9.55589 1.65685 9.83203V13.1654C1.65685 13.8153 2.14291 14.332 2.72945 14.332H14.4869C15.5063 14.332 16.3433 13.4422 16.3433 12.332V9.83203C16.3433 9.55589 16.565 9.33203 16.8384 9.33203Z" fill="#108395"/>
<path id="Path_2" d="M8.99933 12.0391L5.40487 8.4446C5.20961 8.24934 5.20961 7.93276 5.40487 7.7375C5.60013 7.54223 5.91671 7.54223 6.11198 7.7375L8.4994 10.1249L8.49878 1.1655C8.49878 0.889356 8.72264 0.665498 8.99878 0.665498C9.27492 0.665498 9.49878 0.889356 9.49878 1.1655L9.4994 10.1249L11.8867 7.7375C12.0624 7.56176 12.3364 7.54419 12.5318 7.68478L12.5938 7.7375C12.789 7.93276 12.789 8.24934 12.5938 8.4446L8.99933 12.0391Z" fill="#108395"/>
</g>
</svg>
