<svg width="18" height="13" viewBox="0 0 18 13" fill="none" xmlns="http://www.w3.org/2000/svg">
<g id="Capa_1" clip-path="url(#clip0_628_1877)">
<path id="Union" fill-rule="evenodd" clip-rule="evenodd" d="M5.11669 0.0431259C5.3112 -0.0616067 5.55379 0.0111717 5.65852 0.205681L11.9165 11.828C12.0212 12.0225 11.9484 12.2651 11.7539 12.3698C11.5594 12.4745 11.3168 12.4018 11.2121 12.2073L4.95414 0.584952C4.8494 0.390442 4.92218 0.147859 5.11669 0.0431259ZM6.86001 5.33998C6.88001 5.29998 6.91001 5.25998 6.91001 5.25998H6.92001L8.44001 8.08998C7.46001 8.07998 6.66001 7.23998 6.66001 6.20998C6.66001 5.83998 6.77001 5.51998 6.86001 5.33998ZM8.44028 4.32992H8.45028L9.98028 7.15992C9.98028 7.15992 10.0003 7.13992 10.0003 7.11992C10.1503 6.84992 10.2303 6.53992 10.2303 6.19992C10.2303 5.15992 9.43028 4.31992 8.44028 4.31992V4.32992ZM16.8598 5.35998C15.8998 4.05998 14.6498 2.98998 13.2598 2.25998C11.8398 1.50998 10.2998 1.11998 8.6998 1.09998H8.4298C7.8798 1.09998 7.3398 1.16998 6.7998 1.26998L7.2398 2.07998C7.6598 1.92998 8.0998 1.82998 8.5698 1.82998C10.8598 1.82998 12.7298 3.78998 12.7298 6.19998C12.7298 7.52998 12.1498 8.70998 11.2498 9.51998L11.8998 10.73C12.3598 10.57 12.8198 10.38 13.2598 10.15C14.6598 9.41998 15.8998 8.34998 16.8598 7.04998C17.2298 6.54998 17.2298 5.84998 16.8598 5.34998V5.35998ZM16.3098 6.60998C15.4098 7.81998 14.2498 8.81998 12.9398 9.50998C12.5698 9.69998 12.1898 9.86998 11.8098 10.01C12.7998 9.06998 13.4198 7.71998 13.4198 6.20998C13.4198 4.69998 12.7998 3.34998 11.8098 2.40998C12.1998 2.54998 12.5698 2.71998 12.9398 2.90998C14.2398 3.58998 15.4098 4.58998 16.3098 5.80998C16.4798 6.03998 16.4798 6.36998 16.3098 6.59998V6.60998ZM3.88043 2.26002C2.48043 2.99002 1.24043 4.06002 0.28043 5.36002C-0.0895703 5.86002 -0.0895703 6.56002 0.28043 7.06002C1.24043 8.36002 2.49043 9.43002 3.88043 10.16C5.30043 10.91 6.84043 11.3 8.44043 11.32H8.71043C9.18043 11.32 9.65043 11.27 10.1104 11.2L9.69043 10.42C9.33043 10.52 8.97043 10.6 8.58043 10.6C6.29043 10.6 4.42043 8.64002 4.42043 6.23002C4.42043 4.98002 4.93043 3.86002 5.73043 3.06002L5.03043 1.77002L3.88043 2.26002ZM4.20043 9.52002C2.90043 8.84002 1.73043 7.84002 0.83043 6.62002C0.66043 6.39002 0.66043 6.06002 0.83043 5.83002C1.73043 4.62002 2.89043 3.62002 4.20043 2.93002C4.57043 2.74002 4.95043 2.57002 5.33043 2.43002C4.34043 3.37002 3.72043 4.72002 3.72043 6.23002C3.72043 7.74002 4.34043 9.09002 5.33043 10.03C4.95043 9.89002 4.57043 9.72002 4.20043 9.53002V9.52002Z" fill="#4C4C4C"/>
</g>
<defs>
<clipPath id="clip0_628_1877">
<rect width="17.14" height="12.42" fill="white"/>
</clipPath>
</defs>
</svg>
