<svg width="20" height="20" viewBox="0 0 20 20" fill="none" xmlns="http://www.w3.org/2000/svg">
<g id="Footer">
<path id="Rectangle 2179" d="M3.20978 10.6443C2.59868 10.3909 2.10986 9.90205 1.85645 9.29095L2.24134 9.13135C2.13971 8.88629 2.08341 8.61723 2.08341 8.33398V7.50065H1.66675V5.83398H2.08341V5.00065C2.08341 4.83039 2.11722 4.66908 2.1781 4.52228L1.79322 4.36267C1.96216 3.95527 2.28803 3.62939 2.69543 3.46045L2.85504 3.84534C3.00185 3.78446 3.16316 3.75065 3.33341 3.75065H4.16675V3.33398H5.83341V3.75065H7.50008V3.33398H9.16675V3.75065H10.8334V3.33398H12.5001V3.75065H14.1667V3.33398H15.8334V3.75065H16.6667C16.837 3.75065 16.9983 3.78446 17.1451 3.84534L17.3047 3.46045C17.7121 3.62939 18.038 3.95527 18.2069 4.36267L17.8221 4.52228C17.8829 4.66908 17.9167 4.83039 17.9167 5.00065V5.83398H18.3334V7.50065H17.9167V8.33398C17.9167 8.61723 17.8605 8.88629 17.7588 9.13135L18.1437 9.29095C17.8903 9.90205 17.4015 10.3909 16.7904 10.6443L16.6308 10.2594C16.3857 10.361 16.1167 10.4173 15.8334 10.4173H15.1042V10.834H13.6459V10.4173H12.1876V10.834H10.7292V10.4173H9.27091V10.834H7.81258V10.4173H6.35425V10.834H4.89591V10.4173H4.16675C3.8835 10.4173 3.61445 10.361 3.36938 10.2594L3.20978 10.6443Z" stroke="black" stroke-width="0.833333" stroke-dasharray="1.67 1.67"/>
<rect id="Rectangle 2180" x="2.08341" y="12.0827" width="15.8333" height="4.16667" rx="1.25" stroke="black" stroke-width="0.833333"/>
</g>
</svg>
