<svg width="25" height="24" viewBox="0 0 25 24" fill="none" xmlns="http://www.w3.org/2000/svg">
<g id="Property 1=line">
<path id="Shape" fill-rule="evenodd" clip-rule="evenodd" d="M12.434 3L2.67126 12.8246C2.52821 12.9638 2.47064 13.17 2.52066 13.364C2.57069 13.5581 2.72053 13.7098 2.9126 13.7609C3.10466 13.8119 3.30907 13.7544 3.44726 13.6104L4.70799 12.3419V20.1535C4.70799 20.4599 4.95405 20.7083 5.25757 20.7083H10.2038C10.5073 20.7083 10.7533 20.4599 10.7533 20.1535V15.3038C10.7533 14.9974 10.9994 14.749 11.3029 14.749H13.5012C13.8048 14.749 14.0508 14.9974 14.0508 15.3038V20.1535C14.0508 20.4599 14.2969 20.7083 14.6004 20.7083H19.5466C19.8501 20.7083 20.0962 20.4599 20.0962 20.1535V12.3336L21.3558 13.6098C21.4945 13.7501 21.6969 13.8051 21.8866 13.754C22.0763 13.7029 22.2247 13.5535 22.2757 13.362C22.3267 13.1705 22.2727 12.9661 22.134 12.8258L12.434 3ZM18.997 11.2199L12.4312 4.56919L5.80715 11.2355V19.5986H9.65419V15.3038C9.65419 14.3845 10.3924 13.6392 11.3029 13.6392H13.5012C14.4118 13.6392 15.15 14.3845 15.15 15.3038V19.5986H18.997V11.2199Z" fill="#4C4C4C" stroke="#4C4C4C" stroke-width="0.52"/>
</g>
</svg>
