<svg width="20" height="20" viewBox="0 0 20 20" fill="none" xmlns="http://www.w3.org/2000/svg">
<g id="Img + text">
<path id="Shape" fill-rule="evenodd" clip-rule="evenodd" d="M15.9029 1.66602C17.2452 1.66602 18.3334 2.51481 18.3334 3.56185V10.6035C18.3334 11.6506 17.2452 12.4993 15.9029 12.4993H4.0973C2.75494 12.4993 1.66675 11.6506 1.66675 10.6035V3.56185C1.66675 2.51481 2.75494 1.66602 4.0973 1.66602H15.9029ZM15.9029 2.49935H4.0973C3.21518 2.49935 2.50008 3.47796 2.50008 4.16602V9.99935C2.50008 10.6874 3.14574 11.666 4.02786 11.666H15.8334C16.7155 11.666 17.5001 10.6874 17.5001 9.99935V4.16602C17.5001 3.47796 16.785 2.49935 15.9029 2.49935Z" fill="#4C4C4C"/>
<path id="Vector (Stroke)" fill-rule="evenodd" clip-rule="evenodd" d="M7.09736 3.69089C7.28973 3.67868 7.47887 3.74475 7.62181 3.87407L12.7018 8.47023L17.2541 4.82834V5.95372V5.94352L13.2139 9.0466L15.6515 11.139L14.6425 11.1605L14.2854 11.1832L7.20743 4.71137L5.03211 7.23613L2.85679 9.76088V9.40374L2.83447 8.33231L6.60026 3.93889C6.72571 3.79253 6.90498 3.70309 7.09736 3.69089Z" fill="#4C4C4C"/>
<circle id="Ellipse 2" cx="12.9764" cy="5.95173" r="1.36905" stroke="#4C4C4C" stroke-width="0.833333"/>
<path id="Shape_2" fill-rule="evenodd" clip-rule="evenodd" d="M8.00008 16.666C8.27622 16.666 8.50008 16.8899 8.50008 17.166C8.50008 17.4422 8.27622 17.666 8.00008 17.666H2.16675C1.89061 17.666 1.66675 17.4422 1.66675 17.166C1.66675 16.8899 1.89061 16.666 2.16675 16.666H8.00008ZM15.5001 14.166C15.7762 14.166 16.0001 14.3899 16.0001 14.666C16.0001 14.9422 15.7762 15.166 15.5001 15.166H2.16675C1.89061 15.166 1.66675 14.9422 1.66675 14.666C1.66675 14.3899 1.89061 14.166 2.16675 14.166H15.5001Z" fill="#4C4C4C"/>
</g>
</svg>
