<svg width="14" height="14" viewBox="0 0 14 14" fill="none" xmlns="http://www.w3.org/2000/svg">
<g id="Group 1000004075">
<path id="Vector" d="M9.22072 10.0662C9.67432 9.74138 9.97952 9.24298 10.0579 8.68018H8.41992C8.48992 9.23458 8.78112 9.73578 9.22072 10.0662Z" fill="#4C4C4C"/>
<path id="Vector_2" d="M13.4398 5.6001H9.51977V6.1601C9.51977 6.6221 9.14177 7.0001 8.67977 7.0001H4.75977V12.0401C4.75977 12.1941 4.88577 12.3201 5.03977 12.3201H10.6902L12.4094 13.9245C12.4626 13.9721 12.5298 14.0001 12.5998 14.0001C12.639 14.0001 12.6754 13.9917 12.7118 13.9749C12.8126 13.9301 12.8798 13.8293 12.8798 13.7201V12.3201H13.4398C13.5938 12.3201 13.7198 12.1941 13.7198 12.0401V5.8801C13.7198 5.7233 13.5938 5.6001 13.4398 5.6001ZM10.9198 8.6801H10.623C10.553 9.3353 10.2394 9.9317 9.75777 10.3545C9.76337 10.3573 9.76897 10.3601 9.77177 10.3601L10.7322 10.6961C10.8778 10.7465 10.9562 10.9061 10.903 11.0517C10.8638 11.1665 10.7546 11.2393 10.6398 11.2393C10.609 11.2393 10.5782 11.2337 10.5474 11.2225L9.58697 10.8865C9.45537 10.8417 9.33217 10.7857 9.21177 10.7213C9.09697 10.7801 8.97657 10.8305 8.85337 10.8725L7.92657 11.1805C7.89857 11.1945 7.87057 11.2001 7.83977 11.2001C7.72217 11.2001 7.61297 11.1273 7.57377 11.0097C7.52617 10.8641 7.60457 10.7045 7.75017 10.6569L8.67697 10.3489C8.67697 10.3489 8.67977 10.3489 8.67977 10.3461C8.21497 9.9177 7.91537 9.3269 7.85097 8.6829H7.55977C7.40577 8.6829 7.27977 8.5569 7.27977 8.4029C7.27977 8.2489 7.40577 8.1229 7.55977 8.1229H8.95977V7.5629C8.95977 7.4089 9.08577 7.2829 9.23977 7.2829C9.39377 7.2829 9.51977 7.4089 9.51977 7.5629V8.1229H10.9198C11.0738 8.1229 11.1998 8.2489 11.1998 8.4029C11.1998 8.5569 11.0738 8.6801 10.9198 8.6801Z" fill="#4C4C4C"/>
<path id="Vector_3" d="M4.47952 2.02441L3.95312 3.08001H5.00592L4.47952 2.02441Z" fill="#4C4C4C"/>
<path id="Vector_4" d="M0.84 6.44V7.56C0.84 7.6664 0.9016 7.7644 0.9968 7.8092C1.036 7.8288 1.078 7.84 1.12 7.84C1.1816 7.84 1.2432 7.8176 1.2936 7.7784L3.0156 6.44H8.68C8.834 6.44 8.96 6.314 8.96 6.16V0.28C8.96 0.1232 8.834 0 8.68 0H0.28C0.126 0 0 0.1232 0 0.28V6.16C0 6.314 0.126 6.44 0.28 6.44H0.84ZM2.5508 4.634L4.2308 1.274C4.326 1.0836 4.6368 1.0836 4.732 1.274L6.412 4.634C6.482 4.7712 6.426 4.9392 6.286 5.0092C6.244 5.0288 6.202 5.04 6.16 5.04C6.0564 5.04 5.9584 4.984 5.908 4.886L5.2864 3.64H3.6736L3.052 4.886C2.982 5.0232 2.814 5.0792 2.6768 5.012C2.5368 4.9392 2.4808 4.7712 2.5508 4.634Z" fill="#4C4C4C"/>
</g>
</svg>
