<svg xmlns="http://www.w3.org/2000/svg" width="25" height="25" viewBox="0 0 25 25" fill="none">
<g clip-path="url(#clip0_6926_5215)">
<path d="M24.5327 0.22168H0.532715V24.2217H24.5327V0.22168Z" fill="white"/>
<path d="M22.5327 2.22168H2.53271V22.2217H22.5327V2.22168Z" fill="white"/>
<path d="M21.1328 18.8315H3.93276C3.60139 18.8315 3.33276 19.1002 3.33276 19.4315C3.33276 19.7629 3.60139 20.0315 3.93276 20.0315H21.1328C21.4641 20.0315 21.7328 19.7629 21.7328 19.4315C21.7328 19.1002 21.4641 18.8315 21.1328 18.8315Z" fill="#4C4C4C"/>
<path d="M21.1328 11.6318H3.93276C3.60139 11.6318 3.33276 11.9005 3.33276 12.2318C3.33276 12.5632 3.60139 12.8318 3.93276 12.8318H21.1328C21.4641 12.8318 21.7328 12.5632 21.7328 12.2318C21.7328 11.9005 21.4641 11.6318 21.1328 11.6318Z" fill="#4C4C4C"/>
<path d="M21.1328 4.43164H3.93276C3.60139 4.43164 3.33276 4.70027 3.33276 5.03164C3.33276 5.36301 3.60139 5.63164 3.93276 5.63164H21.1328C21.4641 5.63164 21.7328 5.36301 21.7328 5.03164C21.7328 4.70027 21.4641 4.43164 21.1328 4.43164Z" fill="#4C4C4C"/>
</g>
<defs>
<clipPath id="clip0_6926_5215">
<rect width="24" height="24" fill="white" transform="translate(0.532715 0.22168)"/>
</clipPath>
</defs>
</svg>