<svg width="20" height="20" viewBox="0 0 20 20" fill="none" xmlns="http://www.w3.org/2000/svg">
<g id="Multicolumna">
<path id="Shape" fill-rule="evenodd" clip-rule="evenodd" d="M15.9028 4.16602C17.2451 4.16602 18.3333 5.01481 18.3333 6.06185V13.1035C18.3333 14.1506 17.2451 14.9993 15.9028 14.9993H12.4306C11.0882 14.9993 10 14.1506 10 13.1035V6.06185C10 5.01481 11.0882 4.16602 12.4306 4.16602H15.9028ZM15.9028 4.99935H12.4306C11.5484 4.99935 10.8333 5.97796 10.8333 6.66602V12.4993C10.8333 13.1874 11.479 14.166 12.3611 14.166H15.8333C16.7155 14.166 17.5 13.1874 17.5 12.4993V6.66602C17.5 5.97796 16.7849 4.99935 15.9028 4.99935Z" fill="#4C4C4C"/>
<path id="Shape_2" fill-rule="evenodd" clip-rule="evenodd" d="M6.73603 4.16602C8.07839 4.16602 9.16658 5.01481 9.16658 6.06185V13.1035C9.16658 14.1506 8.07839 14.9993 6.73603 14.9993H3.26381C1.92145 14.9993 0.833252 14.1506 0.833252 13.1035V6.06185C0.833252 5.01481 1.92145 4.16602 3.26381 4.16602H6.73603ZM6.73603 4.99935H3.26381C2.38169 4.99935 1.66659 5.97796 1.66659 6.66602V12.4993C1.66659 13.1874 2.31224 14.166 3.19436 14.166H6.66658C7.54871 14.166 8.33325 13.1874 8.33325 12.4993V6.66602C8.33325 5.97796 7.61815 4.99935 6.73603 4.99935Z" fill="#4C4C4C"/>
<path id="Vector (Stroke)" d="M2.66181 8.33542C2.89793 8.32321 3.13008 8.38928 3.30552 8.5186L8.33325 12.2248V13.334L2.79691 9.3559L0.833252 11.2128V9.74156L2.05168 8.58342C2.20565 8.43707 2.42569 8.34763 2.66181 8.33542Z" fill="#4C4C4C"/>
<path id="Vector (Stroke)_2" d="M11.8286 8.33542C12.0647 8.32321 12.2968 8.38928 12.4723 8.5186L17.5 12.2248V13.334L11.9637 9.3559L10 11.2128V9.74156L11.2184 8.58342C11.3724 8.43707 11.5924 8.34763 11.8286 8.33542Z" fill="#4C4C4C"/>
<circle id="Ellipse 2" cx="5.95246" cy="7.6197" r="1.36905" stroke="#4C4C4C" stroke-width="0.833333"/>
<circle id="Ellipse 3" cx="15.119" cy="7.6197" r="1.36905" stroke="#4C4C4C" stroke-width="0.833333"/>
</g>
</svg>
