<svg width="57" height="56" viewBox="0 0 57 56" fill="none" xmlns="http://www.w3.org/2000/svg">
<path d="M34.1849 22.6602C34.1849 19.543 31.6677 17 28.5746 17C25.4816 17 22.9644 19.543 22.9644 22.6602V28.7312L24.7577 27.7312V22.6602C24.7577 20.5273 26.4687 18.7883 28.5746 18.7883C30.6806 18.7883 32.3916 20.5273 32.3916 22.6602V27.0391C32.3916 27.0391 32.3916 27.0719 32.3916 27.0883C32.3916 27.4328 32.6713 27.6953 33.0003 27.6953H33.5597C33.9052 27.6953 34.1685 27.4164 34.1685 27.0883C34.1685 26.7602 34.1685 27.0555 34.1685 27.0391V22.6602H34.1849Z" fill="#4C4C4C"/>
<path d="M21.5 31.9805C21.5 28.1414 24.7905 25.0898 28.7226 25.0898C32.6548 25.0898 35.9452 28.125 35.9452 31.9805C35.9452 35.8359 32.6548 38.8711 28.7226 38.8711C24.7905 38.8711 21.5 35.8359 21.5 31.9805Z" fill="#4C4C4C"/>
<path d="M22.8162 31.9805C22.8162 35.1305 25.4486 37.7227 28.7226 37.7227M21.5 31.9805C21.5 28.1414 24.7905 25.0898 28.7226 25.0898C32.6548 25.0898 35.9452 28.125 35.9452 31.9805C35.9452 35.8359 32.6548 38.8711 28.7226 38.8711C24.7905 38.8711 21.5 35.8359 21.5 31.9805Z" stroke="#4C4C4C" stroke-width="0.5" stroke-miterlimit="10"/>
<path d="M28.4573 30.6562L27.5764 34.8887C27.5764 35.3079 27.9168 35.4477 28.3372 35.4477H29.3182C29.7386 35.4477 30.079 35.3079 30.079 34.8887L29.1981 30.6562H28.4373H28.4573Z" fill="white"/>
<path d="M28.8377 32.3749C29.5343 32.3749 30.099 31.8118 30.099 31.1171C30.099 30.4225 29.5343 29.8594 28.8377 29.8594C28.1411 29.8594 27.5764 30.4225 27.5764 31.1171C27.5764 31.8118 28.1411 32.3749 28.8377 32.3749Z" fill="white"/>
</svg>
