<svg width="18" height="18" viewBox="0 0 18 18" fill="none" xmlns="http://www.w3.org/2000/svg">
<mask id="path-1-inside-1_5745_491292" fill="white">
<path fill-rule="evenodd" clip-rule="evenodd" d="M4.69922 6.04395C3.59465 6.04395 2.69922 6.93938 2.69922 8.04395V14.2018C2.69922 15.3063 3.59465 16.2018 4.69922 16.2018H12.9388C14.0434 16.2018 14.9388 15.3063 14.9388 14.2018V8.04395C14.9388 6.93938 14.0434 6.04395 12.9388 6.04395H4.69922ZM7.93965 13.8135C8.031 13.8135 8.11893 13.7779 8.18338 13.7142L12.1983 9.7688C12.4003 9.57062 12.4003 9.24882 12.1983 9.05033L11.9546 8.81078C11.7529 8.61229 11.4254 8.61229 11.2234 8.81078L7.93965 12.0375L6.72443 10.8433C6.52243 10.6448 6.19525 10.6448 5.99319 10.8433L5.74946 11.0829C5.54746 11.281 5.54746 11.6028 5.74946 11.8013L7.69593 13.7142C7.76038 13.7779 7.84831 13.8135 7.93965 13.8135Z"/>
</mask>
<path fill-rule="evenodd" clip-rule="evenodd" d="M4.69922 6.04395C3.59465 6.04395 2.69922 6.93938 2.69922 8.04395V14.2018C2.69922 15.3063 3.59465 16.2018 4.69922 16.2018H12.9388C14.0434 16.2018 14.9388 15.3063 14.9388 14.2018V8.04395C14.9388 6.93938 14.0434 6.04395 12.9388 6.04395H4.69922ZM7.93965 13.8135C8.031 13.8135 8.11893 13.7779 8.18338 13.7142L12.1983 9.7688C12.4003 9.57062 12.4003 9.24882 12.1983 9.05033L11.9546 8.81078C11.7529 8.61229 11.4254 8.61229 11.2234 8.81078L7.93965 12.0375L6.72443 10.8433C6.52243 10.6448 6.19525 10.6448 5.99319 10.8433L5.74946 11.0829C5.54746 11.281 5.54746 11.6028 5.74946 11.8013L7.69593 13.7142C7.76038 13.7779 7.84831 13.8135 7.93965 13.8135Z" fill="#4C4C4C"/>
<path d="M8.18338 13.7142L7.13202 12.6444L7.12893 12.6474L8.18338 13.7142ZM12.1983 9.7688L11.1479 8.69805L11.147 8.69892L12.1983 9.7688ZM12.1983 9.05033L11.1469 10.1201L11.147 10.1203L12.1983 9.05033ZM11.9546 8.81078L10.9025 9.87988L10.9032 9.88057L11.9546 8.81078ZM11.2234 8.81078L10.1722 7.7407L10.172 7.74087L11.2234 8.81078ZM7.93965 12.0375L6.88831 13.1074L7.93964 14.1404L8.99098 13.1074L7.93965 12.0375ZM6.72443 10.8433L7.77577 9.77341L7.77575 9.77338L6.72443 10.8433ZM5.99319 10.8433L4.94204 9.77322L4.94173 9.77352L5.99319 10.8433ZM5.74946 11.0829L6.79977 12.1538L6.80092 12.1526L5.74946 11.0829ZM5.74946 11.8013L6.80086 10.7315L6.80078 10.7314L5.74946 11.8013ZM7.69593 13.7142L8.75038 12.6474L8.74733 12.6444L7.69593 13.7142ZM4.19922 8.04395C4.19922 7.7678 4.42308 7.54395 4.69922 7.54395V4.54395C2.76622 4.54395 1.19922 6.11095 1.19922 8.04395H4.19922ZM4.19922 14.2018V8.04395H1.19922V14.2018H4.19922ZM4.69922 14.7018C4.42308 14.7018 4.19922 14.4779 4.19922 14.2018H1.19922C1.19922 16.1348 2.76622 17.7018 4.69922 17.7018V14.7018ZM12.9388 14.7018H4.69922V17.7018H12.9388V14.7018ZM13.4388 14.2018C13.4388 14.4779 13.215 14.7018 12.9388 14.7018V17.7018C14.8718 17.7018 16.4388 16.1348 16.4388 14.2018H13.4388ZM13.4388 8.04395V14.2018H16.4388V8.04395H13.4388ZM12.9388 7.54395C13.215 7.54395 13.4388 7.7678 13.4388 8.04395H16.4388C16.4388 6.11095 14.8718 4.54395 12.9388 4.54395V7.54395ZM4.69922 7.54395H12.9388V4.54395H4.69922V7.54395ZM7.12893 12.6474C7.35103 12.4279 7.64439 12.3135 7.93965 12.3135V15.3135C8.4176 15.3135 8.88683 15.128 9.23783 14.7811L7.12893 12.6474ZM11.147 8.69892L7.13202 12.6444L9.23474 14.7841L13.2497 10.8387L11.147 8.69892ZM11.147 10.1203C10.7512 9.73136 10.75 9.08835 11.1479 8.69805L13.2488 10.8395C14.0506 10.0529 14.0494 8.76628 13.2497 7.98041L11.147 10.1203ZM10.9032 9.88057L11.1469 10.1201L13.2498 7.98055L13.0061 7.741L10.9032 9.88057ZM12.2745 9.88087C11.8936 10.2551 11.2851 10.2565 10.9025 9.87988L13.0068 7.74168C12.2207 6.96812 10.9573 6.96953 10.1722 7.7407L12.2745 9.88087ZM8.99098 13.1074L12.2747 9.8807L10.172 7.74087L6.88833 10.9675L8.99098 13.1074ZM5.67309 11.9132L6.88831 13.1074L8.991 10.9676L7.77577 9.77341L5.67309 11.9132ZM7.04434 11.9134C6.66295 12.288 6.05479 12.2883 5.67311 11.9132L7.77575 9.77338C6.99007 9.00136 5.72756 9.0016 4.94204 9.77322L7.04434 11.9134ZM6.80092 12.1526L7.04464 11.9131L4.94173 9.77352L4.69801 10.0131L6.80092 12.1526ZM6.80078 10.7314C7.19646 11.1202 7.19792 11.7633 6.79977 12.1538L4.69915 10.0119C3.897 10.7987 3.89846 12.0855 4.69814 12.8712L6.80078 10.7314ZM8.74733 12.6444L6.80086 10.7315L4.69806 12.8712L6.64453 14.7841L8.74733 12.6444ZM7.93965 12.3135C8.23492 12.3135 8.52828 12.4279 8.75038 12.6474L6.64148 14.7811C6.99248 15.128 7.46171 15.3135 7.93965 15.3135V12.3135Z" fill="#4C4C4C" mask="url(#path-1-inside-1_5745_491292)"/>
<path d="M5.54402 6.21405C4.90245 0.767496 12.5366 0.75002 12.3615 5.96566" stroke="#4C4C4C" stroke-width="1.5" stroke-linecap="round"/>
</svg>
