<svg xmlns="http://www.w3.org/2000/svg" width="15" height="16" viewBox="0 0 15 16" fill="none">
<path fill-rule="evenodd" clip-rule="evenodd" d="M9.83228 10.2552L14.0364 14.5178C14.1488 14.6318 14.1488 14.8165 14.0364 14.9305C13.9802 14.9875 13.9065 15.016 13.8329 15.016C13.7592 15.016 13.6855 14.9875 13.6293 14.9305L9.42524 10.6679C8.45568 11.5533 7.17739 12.0974 5.77294 12.0974C2.75722 12.0974 0.303711 9.60979 0.303711 6.55213C0.303711 3.49447 2.75722 1.00684 5.77294 1.00684C8.78866 1.00684 11.2421 3.49447 11.2422 6.5521C11.2422 7.97609 10.7055 9.27218 9.83228 10.2552ZM0.879437 6.55213C0.879437 9.28799 3.07488 11.5137 5.77294 11.5137C8.47101 11.5137 10.6664 9.28802 10.6664 6.55213C10.6664 3.81624 8.47101 1.59054 5.77294 1.59054C3.07488 1.59054 0.879437 3.81627 0.879437 6.55213Z" fill="black"/>
<path d="M14.0364 14.5178L13.8584 14.6933L13.8584 14.6934L14.0364 14.5178ZM9.83228 10.2552L9.64537 10.0892L9.48995 10.2641L9.65428 10.4307L9.83228 10.2552ZM14.0364 14.9305L14.2143 15.1061L14.2144 15.106L14.0364 14.9305ZM13.6293 14.9305L13.8073 14.7549H13.8073L13.6293 14.9305ZM9.42524 10.6679L9.60323 10.4924L9.43431 10.3211L9.25666 10.4833L9.42524 10.6679ZM11.2422 6.5521H11.4922V6.5521L11.2422 6.5521ZM14.2144 14.3422L10.0103 10.0796L9.65428 10.4307L13.8584 14.6933L14.2144 14.3422ZM14.2144 15.106C14.4228 14.8947 14.4228 14.5536 14.2143 14.3422L13.8584 14.6934C13.8748 14.71 13.8748 14.7383 13.8584 14.7549L14.2144 15.106ZM13.8329 15.266C13.9713 15.266 14.1097 15.2122 14.2143 15.1061L13.8584 14.7549C13.8506 14.7628 13.8417 14.766 13.8329 14.766V15.266ZM13.4513 15.106C13.556 15.2122 13.6945 15.266 13.8329 15.266V14.766C13.824 14.766 13.8151 14.7628 13.8073 14.7549L13.4513 15.106ZM9.24725 10.8435L13.4513 15.106L13.8073 14.7549L9.60323 10.4924L9.24725 10.8435ZM5.77294 12.3474C7.24356 12.3474 8.58106 11.7773 9.59382 10.8525L9.25666 10.4833C8.33029 11.3292 7.11122 11.8474 5.77294 11.8474V12.3474ZM0.0537109 6.55213C0.0537109 9.7446 2.61591 12.3474 5.77294 12.3474V11.8474C2.89854 11.8474 0.553711 9.47499 0.553711 6.55213H0.0537109ZM5.77294 0.756836C2.61591 0.756836 0.0537109 3.35967 0.0537109 6.55213H0.553711C0.553711 3.62928 2.89854 1.25684 5.77294 1.25684V0.756836ZM11.4922 6.5521C11.4921 3.35967 8.92998 0.756836 5.77294 0.756836V1.25684C8.64734 1.25684 10.9921 3.62928 10.9922 6.55211L11.4922 6.5521ZM10.0192 10.4212C10.9311 9.39465 11.4922 8.04016 11.4922 6.5521H10.9922C10.9922 7.91201 10.4799 9.1497 9.64537 10.0892L10.0192 10.4212ZM5.77294 11.2637C3.21619 11.2637 1.12944 9.15318 1.12944 6.55213H0.629437C0.629437 9.42281 2.93357 11.7637 5.77294 11.7637V11.2637ZM10.4164 6.55213C10.4164 9.1532 8.3297 11.2637 5.77294 11.2637V11.7637C8.61231 11.7637 10.9164 9.42283 10.9164 6.55213H10.4164ZM5.77294 1.84054C8.3297 1.84054 10.4164 3.95106 10.4164 6.55213H10.9164C10.9164 3.68143 8.61231 1.34054 5.77294 1.34054V1.84054ZM1.12944 6.55213C1.12944 3.95108 3.21619 1.84054 5.77294 1.84054V1.34054C2.93357 1.34054 0.629437 3.68146 0.629437 6.55213H1.12944Z" fill="#C3C3C3"/>
</svg>