<svg width="24" height="24" viewBox="0 0 24 24" fill="none" xmlns="http://www.w3.org/2000/svg">
<path fill-rule="evenodd" clip-rule="evenodd" d="M10.5833 3.5C14.4954 3.5 17.6667 6.67132 17.6667 10.5833C17.6667 12.3596 17.0129 13.9831 15.9328 15.2264L20.0617 19.3546C20.2569 19.5498 20.2569 19.8664 20.0617 20.0617C19.8664 20.2569 19.5498 20.2569 19.3546 20.0617L15.2298 15.9369C13.9831 17.0129 12.3596 17.6667 10.5833 17.6667C6.67132 17.6667 3.5 14.4954 3.5 10.5833C3.5 6.67132 6.67132 3.5 10.5833 3.5ZM10.5833 4.5C7.2236 4.5 4.5 7.2236 4.5 10.5833C4.5 13.9431 7.2236 16.6667 10.5833 16.6667C13.9431 16.6667 16.6667 13.9431 16.6667 10.5833C16.6667 7.2236 13.9431 4.5 10.5833 4.5Z" fill="#4C4C4C"/>
</svg>
