<svg width="15" height="15" viewBox="0 0 15 15" fill="none" xmlns="http://www.w3.org/2000/svg">
<g id="Symbols">
<g id="Men&#195;&#186;-lateral">
<g id="Group 4648">
<path id="Shape" d="M12.9771 12.0652C12.8907 12.2019 12.7183 12.2615 12.5629 12.2084L10.8927 11.5574C10.5489 11.8168 10.1715 12.0308 9.77029 12.1939L9.5179 13.9139C9.48795 14.0717 9.34709 14.1865 9.18237 14.1874H6.51005C6.34385 14.1899 6.20122 14.0726 6.17601 13.9125L5.92362 12.1954C5.51503 12.0371 5.13201 11.8223 4.7864 11.5574L3.12956 12.2084C2.97377 12.2661 2.79804 12.2047 2.71535 12.0637L1.37919 9.81284C1.30232 9.67284 1.33566 9.49959 1.45935 9.39622L2.87569 8.31562C2.82229 7.89191 2.82229 7.46343 2.87569 7.03973L1.45935 5.95912C1.32961 5.85924 1.29538 5.6814 1.37919 5.5425L2.71535 3.29016C2.8014 3.15226 2.9748 3.09192 3.13104 3.1455L4.7864 3.79647C5.1367 3.53963 5.51815 3.32585 5.92214 3.15997L6.17601 1.44142C6.20522 1.28355 6.34543 1.16819 6.51005 1.16652H9.18237C9.34569 1.16475 9.48407 1.28335 9.50305 1.44142L9.75692 3.15997C10.1649 3.31788 10.5474 3.53225 10.8927 3.79647L12.5495 3.1455C12.7057 3.08695 12.8824 3.14843 12.9652 3.29016L14.3014 5.5425C14.3779 5.68284 14.3439 5.85614 14.2197 5.95912L12.8034 7.03973C12.8415 7.24981 12.8594 7.4629 12.8568 7.67623C12.8529 7.89024 12.8351 8.10381 12.8034 8.31562L14.2331 9.39622C14.3568 9.49959 14.3901 9.67284 14.3132 9.81284L12.9771 12.0652Z" stroke="black" stroke-width="1.2"/>
<circle id="Ellipse 32" cx="7.58333" cy="7.41634" r="1.58333" stroke="black"/>
</g>
</g>
</g>
</svg>
