<svg width="11" height="12" viewBox="0 0 11 12" fill="none" xmlns="http://www.w3.org/2000/svg">
<g id="Symbols">
<g id="UI2/Men&#195;&#186;/Open">
<g id="Group-4">
<g id="Icon/Men&#195;&#186;/Dashboard-">
<path id="Ellipse 30" d="M7.73301 3.6665C7.73301 4.99199 6.65849 6.0665 5.33301 6.0665C4.00752 6.0665 2.93301 4.99199 2.93301 3.6665C2.93301 2.34102 4.00752 1.2665 5.33301 1.2665C6.65849 1.2665 7.73301 2.34102 7.73301 3.6665Z" stroke="#4C4C4C" stroke-width="1.2"/>
<path id="Shape" d="M3.63756 6.21628L2.53313 6.95257C1.96213 7.33324 1.50852 7.8655 1.2232 8.48964L1.00035 8.97711C1.00035 8.97711 2.31896 11.2847 5.28582 11.2847C8.25268 11.2847 9.57129 9.30676 9.57129 9.30676L9.55452 9.21665C9.35607 8.14993 8.69846 7.2245 7.7564 6.68618L6.93408 6.21628" stroke="#4C4C4C" stroke-width="1.2" stroke-linecap="round"/>
</g>
</g>
</g>
</g>
</svg>
