<svg width="28" height="26" viewBox="0 0 28 26" fill="none" xmlns="http://www.w3.org/2000/svg">
<path d="M18.6907 10.8276H21.4561C21.5611 10.8276 21.6312 10.8276 21.7012 10.8976C21.7012 10.8976 21.7012 10.8976 21.7012 10.9326V24.6199C21.7012 25.215 22.2613 25.635 22.8563 25.46C24.1516 24.9349 25.8318 24.2698 27.057 23.7097C27.2671 23.6047 27.5471 23.4997 27.5471 23.0796V10.9326C27.5471 10.9326 27.5471 10.8976 27.5471 10.8626C27.5471 10.8276 27.5471 10.8276 27.5471 10.8276V2.49624C27.5471 2.00616 27.1621 1.62109 26.672 1.62109H24.6066C24.2216 1.62109 23.9065 1.86613 23.7665 2.21619C22.9264 4.56158 21.3161 6.31186 18.9007 6.73193C18.7957 6.73193 18.6907 6.76694 18.5506 6.76694C18.0956 6.83695 17.7805 7.18701 17.7805 7.64208V9.91745C17.7805 10.4075 18.1656 10.7926 18.6557 10.7926L18.6907 10.8276Z" fill="#D93A26"/>
<path d="M22.331 0.710034C22.226 0.605017 22.0509 0.5 21.8759 0.5H1.60758C0.977478 0.5 0.452393 0.955075 0.452393 1.55017V4.63068C0.452393 5.3658 0.592416 5.71585 1.50256 5.71585H8.25867C8.4337 5.71585 8.57372 5.85588 8.57372 6.03091V8.62133V23.0437C8.57372 23.3587 8.78376 23.6038 9.09881 23.7438C9.69391 23.9888 11.7592 25.004 12.4594 25.3891C13.1595 25.7741 14.3847 25.109 14.3847 24.1289V6.52099C14.3847 6.48598 14.3847 6.38096 14.3847 6.38096C14.3497 6.13592 14.3847 5.89088 14.6297 5.78587C14.6997 5.78587 14.7347 5.78587 14.8047 5.78587H17.0101C21.8409 5.33079 22.331 1.58518 22.366 1.16511C22.366 1.16511 22.366 1.1301 22.366 1.0951V0.990081C22.366 0.885064 22.366 0.815052 22.261 0.74504L22.331 0.710034Z" fill="#D93A26"/>
</svg>
