<svg width="20" height="20" viewBox="0 0 20 20" fill="none" xmlns="http://www.w3.org/2000/svg">
<g id="Bloque texto">
<path id="Shape" fill-rule="evenodd" clip-rule="evenodd" d="M15.5001 11.666C15.7762 11.666 16.0001 11.8899 16.0001 12.166C16.0001 12.4422 15.7762 12.666 15.5001 12.666H9.66675C9.39061 12.666 9.16675 12.4422 9.16675 12.166C9.16675 11.8899 9.39061 11.666 9.66675 11.666H15.5001ZM17.1667 9.16602C17.4429 9.16602 17.6667 9.38987 17.6667 9.66602C17.6667 9.94216 17.4429 10.166 17.1667 10.166H9.66675C9.39061 10.166 9.16675 9.94216 9.16675 9.66602C9.16675 9.38987 9.39061 9.16602 9.66675 9.16602H17.1667Z" fill="#4C4C4C"/>
<path id="T" d="M3.20801 5.07617H11.6821L11.7627 7.625H11.4038C11.228 6.82422 11.0034 6.3042 10.73 6.06494C10.4614 5.8208 9.89258 5.69873 9.02344 5.69873H8.18848V13.3745C8.18848 13.9556 8.27881 14.3169 8.45947 14.4585C8.64014 14.5952 9.03564 14.6855 9.646 14.7295V15.0005H5.27344V14.7295C5.9082 14.6807 6.30371 14.5757 6.45996 14.4146C6.61621 14.2534 6.69434 13.8481 6.69434 13.1987V5.69873H5.85938C5.0293 5.69873 4.46289 5.81836 4.16016 6.05762C3.8623 6.29688 3.6377 6.81934 3.48633 7.625H3.12012L3.20801 5.07617Z" fill="#4C4C4C"/>
</g>
</svg>
