<svg width="22" height="24" viewBox="0 0 22 24" fill="none" xmlns="http://www.w3.org/2000/svg">
<g id="user-duotone" clip-path="url(#clip0_1_5719)">
<path id="Vector" opacity="0.4" d="M5.13098 6C5.13098 7.5913 5.76312 9.11742 6.88834 10.2426C8.01356 11.3679 9.53968 12 11.131 12C12.7223 12 14.2484 11.3679 15.3736 10.2426C16.4988 9.11742 17.131 7.5913 17.131 6C17.131 4.4087 16.4988 2.88258 15.3736 1.75736C14.2484 0.632141 12.7223 0 11.131 0C9.53968 0 8.01356 0.632141 6.88834 1.75736C5.76312 2.88258 5.13098 4.4087 5.13098 6Z" fill="#4C4C4C"/>
<path id="Vector_2" d="M0.630981 22.6078C0.630981 17.9906 4.37161 14.25 8.98879 14.25H13.2732C17.8904 14.25 21.631 17.9906 21.631 22.6078C21.631 23.3766 21.0075 24 20.2388 24H2.02317C1.25442 24 0.630981 23.3766 0.630981 22.6078Z" fill="#4C4C4C"/>
</g>
<defs>
<clipPath id="clip0_1_5719">
<rect width="21" height="24" fill="white" transform="translate(0.630981)"/>
</clipPath>
</defs>
</svg>
