<svg width="14" height="14" viewBox="0 0 14 14" fill="none" xmlns="http://www.w3.org/2000/svg">
<g id="Group 1000003137">
<path id="Vector" d="M6.99995 13.6673C10.6818 13.6673 13.6666 10.6825 13.6666 7.00065C13.6666 3.31875 10.6818 0.333984 6.99995 0.333984C3.31805 0.333984 0.333282 3.31875 0.333282 7.00065C0.333282 10.6825 3.31805 13.6673 6.99995 13.6673Z" fill="#F5A623"/>
<path id="Vector_2" fill-rule="evenodd" clip-rule="evenodd" d="M6.12459 4.75575L6.27611 7.02373C6.30452 7.3173 6.35186 7.53589 6.41816 7.67952C6.48445 7.82314 6.60282 7.89495 6.77327 7.89495C6.94057 7.89495 7.06052 7.82076 7.13312 7.67241C7.20572 7.52405 7.25306 7.31098 7.27516 7.0332L7.47876 4.69892C7.50086 4.48428 7.51191 4.27279 7.51191 4.06445C7.51191 3.71092 7.46613 3.44024 7.37459 3.25242C7.28305 3.06462 7.10155 2.9707 6.83009 2.9707C6.60597 2.9707 6.42526 3.0441 6.28795 3.19087C6.15064 3.33766 6.08199 3.54205 6.08199 3.80404C6.08199 3.99659 6.09619 4.31382 6.12459 4.75575ZM6.29742 9.95224C6.44104 10.0769 6.60912 10.1393 6.80168 10.1393C6.99108 10.1393 7.1568 10.0761 7.29883 9.94987C7.44088 9.82361 7.51191 9.65 7.51191 9.42904C7.51191 9.23333 7.44167 9.06682 7.30121 8.92951C7.16074 8.79221 6.99108 8.72355 6.7922 8.72355C6.59334 8.72355 6.42526 8.79221 6.28795 8.92951C6.15064 9.06682 6.08199 9.23333 6.08199 9.42904C6.08199 9.65315 6.15379 9.82755 6.29742 9.95224Z" fill="white"/>
</g>
</svg>
