<svg width="18" height="18" viewBox="0 0 18 18" fill="none" xmlns="http://www.w3.org/2000/svg">
<path d="M13 3H15C16.1046 3 17 3.89543 17 5V9" stroke="black"/>
<path d="M9.87988 5.4873H10.1807V4.83789L9.87988 4.79688V5.4873ZM9.39453 3.42969H9.10742V4.11328L9.39453 4.1543V3.42969ZM9.87988 2.15137V2.91699H10.7275V3.75781H10.2148V3.42969H9.87988V4.22266L10.7139 4.33887V5.99316H9.87988V6.56055H9.39453V6H8.56055V5.22754H9.08008V5.4873H9.39453V4.72168L8.56055 4.59863V2.91699H9.39453V2.15137H9.87988Z" fill="black"/>
<path d="M3 17H15C16.1046 17 17 16.1046 17 15V8.5C17 7.39543 16.1046 6.5 15 6.5H6C4.66667 6.5 3 6.6 3 5C3 3.4 4.66667 3.16667 6 3H3C1.89543 3 1 3.89543 1 5V15C1 16.1046 1.89543 17 3 17Z" stroke="black"/>
<path d="M6.60616 6.35263C6.2533 5.73007 6 5.01461 6 4.42857C6 2.53502 7.567 1 9.5 1C11.433 1 13 2.53502 13 4.42857C13 4.97865 12.712 5.71189 12.3456 6.35263" stroke="black"/>
<path d="M16.5 10H13.75C12.7835 10 12 10.7835 12 11.75V11.75C12 12.7165 12.7835 13.5 13.75 13.5H17" stroke="black"/>
</svg>
