<svg width="25" height="26" viewBox="0 0 25 26" fill="none" xmlns="http://www.w3.org/2000/svg">
<path d="M12.4497 1.80223C12.7903 1.6058 13.2097 1.6058 13.5503 1.80223L21.9888 6.6743C22.3296 6.87107 22.5396 7.23486 22.5396 7.6284V17.3716C22.5396 17.7651 22.3296 18.1289 21.9888 18.3257L13.5503 23.1977C13.2098 23.3941 12.7902 23.3941 12.4497 23.1977L4.01123 18.3257C3.67041 18.1289 3.46045 17.7651 3.46045 17.3716V7.6284C3.46045 7.23485 3.67041 6.87107 4.01123 6.6743L12.4497 1.80223ZM10.188 4.48484C9.87787 4.32979 9.51275 4.32979 9.20264 4.48484L8.36084 4.90574C7.54958 5.31182 7.54959 6.46939 8.36084 6.87547L14.5942 9.99265C14.7332 10.0622 14.853 10.1586 14.9487 10.2739L12.9907 11.3286L5.53564 7.60105C5.26359 7.46503 4.93244 7.57512 4.79639 7.84715C4.66035 8.11922 4.77139 8.45037 5.04346 8.58641L12.4497 12.2895V20.2104C12.4497 20.5146 12.6963 20.7612 13.0005 20.7612C13.3045 20.761 13.5513 20.5145 13.5513 20.2104V12.2778L15.2026 11.3882V14.022C15.2026 14.8408 16.0649 15.3735 16.7974 15.0073L17.8989 14.4565C18.272 14.2699 18.5073 13.8883 18.5073 13.4712V9.60887L20.4214 8.57859C20.6891 8.43434 20.7892 8.10028 20.645 7.8325C20.5008 7.56473 20.1667 7.46467 19.8989 7.60887L18.1733 8.53758C18.0933 8.45961 18.002 8.39189 17.8989 8.34031L10.188 4.48484ZM18.1733 8.53758C18.3829 8.74173 18.5073 9.0238 18.5073 9.32566V9.60887L15.2026 11.3882V10.978C15.2026 10.7162 15.1101 10.4682 14.9487 10.2739L18.1733 8.53758Z" fill="#4C4C4C"/>
</svg>
