<svg width="24" height="25" viewBox="0 0 24 25" fill="none" xmlns="http://www.w3.org/2000/svg">
<path fill-rule="evenodd" clip-rule="evenodd" d="M3.23006 12.3222C3.04006 12.3222 2.86006 12.2322 2.74006 12.0722C2.55006 11.8022 2.60006 11.4322 2.87006 11.2322L9.04006 6.75223C9.26006 6.59223 9.57006 6.60223 9.78006 6.78223L14.5301 10.8822L20.5401 4.20223C20.7601 3.95223 21.1401 3.93223 21.3901 4.15223C21.6401 4.37223 21.6601 4.75223 21.4301 5.00223L15.0301 12.1222C14.8101 12.3622 14.4401 12.3922 14.1901 12.1722L9.36006 8.00223L3.58006 12.2122C3.47006 12.2922 3.35006 12.3222 3.23006 12.3222ZM4 15.2622C2.9 15.2622 2 16.1622 2 17.2622V19.9822C2 21.0822 2.9 21.9822 4 21.9822C5.1 21.9822 6 21.0822 6 19.9822V17.2622C6 16.1622 5.1 15.2622 4 15.2622ZM7.33008 12.9822C7.33008 11.8822 8.23008 10.9822 9.33008 10.9822C10.4301 10.9822 11.3301 11.8822 11.3301 12.9822V19.9822C11.3301 21.0822 10.4301 21.9822 9.33008 21.9822C8.23008 21.9822 7.33008 21.0822 7.33008 19.9822V12.9822ZM14.6699 15.2622C13.5699 15.2622 12.6699 16.1622 12.6699 17.2622V19.9822C12.6699 21.0822 13.5699 21.9822 14.6699 21.9822C15.7699 21.9822 16.6699 21.0822 16.6699 19.9822V17.2622C16.6699 16.1622 15.7699 15.2622 14.6699 15.2622ZM18 12.9822C18 11.8822 18.9 10.9822 20 10.9822C21.1 10.9822 22 11.8822 22 12.9822V19.9822C22 21.0822 21.1 21.9822 20 21.9822C18.9 21.9822 18 21.0822 18 19.9822V12.9822Z" fill="#4C4C4C"/>
</svg>
