<?xml version="1.0" encoding="UTF-8"?>
<svg width="24px" height="24px" viewBox="0 0 24 24" version="1.1" xmlns="http://www.w3.org/2000/svg"
    xmlns:xlink="http://www.w3.org/1999/xlink">
    <title>Más</title>
    <g id="Set-de-reglas" stroke="none" stroke-width="1" fill="none" fill-rule="evenodd">
        <g id="Reglas_nuevo-set" transform="translate(-911, -475)">
            <g id="Group-20" transform="translate(861, 139)">
                <g id="Group-7-Copy-17" transform="translate(34, 323)">
                    <g id="Más" transform="translate(16, 13)">
                        <circle id="Oval" fill="#currentColor" cx="12" cy="12" r="12"></circle>
                        <path
                            d="M11.9874844,5.12448271 C12.3236405,5.12447841 12.5961332,5.39697106 12.5961267,5.73312182 L12.5958939,11.3916027 L18.2544004,11.3913634 C18.55319,11.3913711 18.8016968,11.6066693 18.8532287,11.8906018 L18.8630335,12.0000073 C18.8630271,12.3361558 18.5905309,12.608648 18.2543967,12.6086394 L12.5958939,12.6083921 L12.5961369,18.2668857 C12.5961312,18.5656875 12.3808251,18.8141941 12.0969048,18.8657168 L11.9875048,18.8755177 C11.6513493,18.8755242 11.3788553,18.6030302 11.3788596,18.2668772 L11.3791045,12.6083921 L5.7206186,12.6086422 C5.42183688,12.6086346 5.17333991,12.3933347 5.12179494,12.1094013 L5.11198415,11.9999955 C5.11199276,11.6638512 5.3844831,11.3913662 5.72063524,11.3913532 L11.3791045,11.3916027 L11.3788521,5.73311609 C11.3788578,5.43431508 11.5941629,5.18580846 11.878084,5.13428424 L11.9874844,5.12448271 Z"
                            id="Path" fill="currentColor" fill-rule="nonzero"></path>
                    </g>
                </g>
            </g>
        </g>
    </g>
</svg>