<svg width="24" height="24" viewBox="0 0 24 24" fill="none" xmlns="http://www.w3.org/2000/svg">
    <path
        d="M3 2.375C3 1.61561 3.61561 1 4.375 1H18.125C18.8844 1 19.5 1.61561 19.5 2.375V11.3125C19.5 11.6922 19.1922 12 18.8125 12C18.4328 12 18.125 11.6922 18.125 11.3125V2.375H4.375V21.625H8.5V18.1875C8.5 17.8078 8.8078 17.5 9.1875 17.5H11.25V23H4.375C3.61561 23 3 22.3844 3 21.625V2.375Z"
        fill="currentColor" />
    <path fill-rule="evenodd" clip-rule="evenodd"
        d="M5.75 4.4375C5.75 4.0578 6.0578 3.75 6.4375 3.75H7.8125C8.1922 3.75 8.5 4.0578 8.5 4.4375V5.8125C8.5 6.1922 8.1922 6.5 7.8125 6.5H6.4375C6.0578 6.5 5.75 6.1922 5.75 5.8125V4.4375ZM9.875 4.4375C9.875 4.0578 10.1828 3.75 10.5625 3.75H11.9375C12.3172 3.75 12.625 4.0578 12.625 4.4375V5.8125C12.625 6.1922 12.3172 6.5 11.9375 6.5H10.5625C10.1828 6.5 9.875 6.1922 9.875 5.8125V4.4375ZM14.6875 3.75C14.3078 3.75 14 4.0578 14 4.4375V5.8125C14 6.1922 14.3078 6.5 14.6875 6.5H16.0625C16.4422 6.5 16.75 6.1922 16.75 5.8125V4.4375C16.75 4.0578 16.4422 3.75 16.0625 3.75H14.6875ZM5.75 8.5625C5.75 8.1828 6.0578 7.875 6.4375 7.875H7.8125C8.1922 7.875 8.5 8.1828 8.5 8.5625V9.9375C8.5 10.3172 8.1922 10.625 7.8125 10.625H6.4375C6.0578 10.625 5.75 10.3172 5.75 9.9375V8.5625ZM10.5625 7.875C10.1828 7.875 9.875 8.1828 9.875 8.5625V9.9375C9.875 10.3172 10.1828 10.625 10.5625 10.625H11.9375C12.3172 10.625 12.625 10.3172 12.625 9.9375V8.5625C12.625 8.1828 12.3172 7.875 11.9375 7.875H10.5625ZM14 8.5625C14 8.1828 14.3078 7.875 14.6875 7.875H16.0625C16.4422 7.875 16.75 8.1828 16.75 8.5625V9.9375C16.75 10.3172 16.4422 10.625 16.0625 10.625H14.6875C14.3078 10.625 14 10.3172 14 9.9375V8.5625ZM6.4375 12C6.0578 12 5.75 12.3078 5.75 12.6875V14.0625C5.75 14.4422 6.0578 14.75 6.4375 14.75H7.8125C8.1922 14.75 8.5 14.4422 8.5 14.0625V12.6875C8.5 12.3078 8.1922 12 7.8125 12H6.4375ZM9.875 12.6875C9.875 12.3078 10.1828 12 10.5625 12H11.9375C12.3172 12 12.625 12.3078 12.625 12.6875V14.0625C12.625 14.4422 12.3172 14.75 11.9375 14.75H10.5625C10.1828 14.75 9.875 14.4422 9.875 14.0625V12.6875ZM17.4375 23C20.0954 23 22.25 20.8454 22.25 18.1875C22.25 15.5296 20.0954 13.375 17.4375 13.375C14.7796 13.375 12.625 15.5296 12.625 18.1875C12.625 20.8454 14.7796 23 17.4375 23ZM17.4375 17.2154L16.5492 16.3257C16.2804 16.0569 15.8446 16.0569 15.5757 16.3257C15.3069 16.5946 15.3069 17.0304 15.5757 17.2992L16.4654 18.1875L15.5757 19.0757C15.3069 19.3446 15.3069 19.7804 15.5757 20.0492C15.8446 20.3181 16.2804 20.3181 16.5492 20.0492L17.4375 19.1596L18.3257 20.0492C18.5946 20.3181 19.0304 20.3181 19.2992 20.0492C19.5681 19.7804 19.5681 19.3446 19.2992 19.0757L18.4096 18.1875L19.2992 17.2992C19.5681 17.0304 19.5681 16.5946 19.2992 16.3257C19.0304 16.0569 18.5946 16.0569 18.3257 16.3257L17.4375 17.2154Z"
        fill="currentColor" />
</svg>