<svg width="24" height="24" viewBox="0 0 24 24" fill="none" xmlns="http://www.w3.org/2000/svg">
    <g clip-path="url(#clip0_636_2728)">
        <path
            d="M19.75 6H5C3.89543 6 3 6.89543 3 8V16.5C3 17.6046 3.89543 18.5 5 18.5H19.75C20.8546 18.5 21.75 17.6046 21.75 16.5V8C21.75 6.89543 20.8546 6 19.75 6Z"
            stroke="currentColor" stroke-width="1.5" />
        <path d="M5.08301 9.125H8.20801M16.5413 15.375H19.6663" stroke="currentColor" stroke-width="1.5"
            stroke-linecap="round" />
        <path
            d="M12.3753 14.3333C13.5259 14.3333 14.4587 13.4006 14.4587 12.25C14.4587 11.0994 13.5259 10.1666 12.3753 10.1666C11.2247 10.1666 10.292 11.0994 10.292 12.25C10.292 13.4006 11.2247 14.3333 12.3753 14.3333Z"
            stroke="currentColor" stroke-width="1.5" />
    </g>
    <defs>
        <clipPath id="clip0_636_2728">
            <rect width="24" height="24" fill="white" />
        </clipPath>
    </defs>
</svg>