<svg width="24" height="24" viewBox="0 0 24 24" fill="none" xmlns="http://www.w3.org/2000/svg">
    <path fill-rule="evenodd" clip-rule="evenodd"
        d="M15.8 8.5494V8.2335C14.7551 7.8609 14 6.8718 14 5.7C14 4.2114 15.2114 3 16.7 3C18.1886 3 19.4 4.2114 19.4 5.7C19.3961 6.84036 18.6754 7.85504 17.6 8.2344V8.5503C17.6 9.7716 17.0726 10.8732 16.2302 11.6634C15.7368 11.2519 15.1836 10.918 14.5895 10.6734C15.3185 10.2162 15.8 9.4359 15.8 8.5494ZM8.6 15.7656V15.15C8.6 14.3868 9.0608 13.7145 9.7583 13.3077C9.16272 13.0545 8.60964 12.7112 8.1185 12.2898C7.3049 13.0224 6.8 14.034 6.8 15.15V15.7656C5.72458 16.145 5.00392 17.1596 5 18.3C5 19.7886 6.2114 21 7.7 21C9.1886 21 10.4 19.7886 10.4 18.3C10.3961 17.1596 9.67542 16.145 8.6 15.7656ZM7.70048 19.2C7.21907 19.1785 6.83984 18.7819 6.83984 18.3C6.83984 17.8181 7.21907 17.4216 7.70048 17.4C8.1819 17.4216 8.56113 17.8181 8.56113 18.3C8.56113 18.7819 8.1819 19.1785 7.70048 19.2ZM16.7 4.8C17.0645 4.79964 17.3934 5.019 17.5331 5.35572C17.6727 5.69245 17.5957 6.08016 17.3379 6.33793C17.0802 6.5957 16.6924 6.67272 16.3557 6.53305C16.019 6.39338 15.7996 6.06454 15.8 5.7C15.8 5.2041 16.2032 4.8 16.7 4.8ZM12.2 11.1C14.9216 11.1 17.1725 13.1259 17.5415 15.7476C18.617 16.104 19.4 17.1066 19.4 18.3C19.4 19.7886 18.1886 21 16.7 21C15.2114 21 14 19.7886 14 18.3C14.0029 17.1865 14.6891 16.189 15.728 15.7881C15.3879 14.1092 13.913 12.9018 12.2 12.9C9.4784 12.9 7.2275 10.8741 6.8585 8.2524C5.783 7.896 5 6.8934 5 5.7C5 4.2114 6.2114 3 7.7 3C9.1886 3 10.4 4.2114 10.4 5.7C10.3971 6.81352 9.71087 7.81104 8.672 8.2119C9.01211 9.89075 10.487 11.0982 12.2 11.1ZM7.7 4.8C8.06454 4.79964 8.39338 5.019 8.53305 5.35572C8.67272 5.69245 8.5957 6.08016 8.33793 6.33793C8.08016 6.5957 7.69245 6.67272 7.35572 6.53305C7.019 6.39338 6.79964 6.06454 6.8 5.7C6.8 5.2041 7.2032 4.8 7.7 4.8ZM15.8398 18.3C15.8398 18.7819 16.2191 19.1785 16.7005 19.2C17.1819 19.1785 17.5611 18.7819 17.5611 18.3C17.5611 17.8181 17.1819 17.4216 16.7005 17.4C16.2191 17.4216 15.8398 17.8181 15.8398 18.3Z"
        fill="currentColor" />
</svg>