<svg width="21" height="16" viewBox="0 0 21 16" fill="none" xmlns="http://www.w3.org/2000/svg">
<path fill-rule="evenodd" clip-rule="evenodd" d="M0 12.11C0 13.84 1.4 15.24 3.13 15.24H17.28C19 15.24 20.41 13.84 20.41 12.11V3.63C20.41 1.9 19.01 0.5 17.28 0.5H3.13C1.41 0.5 0 1.9 0 3.63V12.11ZM1.21 3.63C1.21 2.57 2.07 1.71 3.13 1.71H17.28C18.34 1.71 19.2 2.57 19.2 3.63V12.11C19.2 13.17 18.34 14.03 17.28 14.03H3.13C2.07 14.03 1.21 13.17 1.21 12.11V3.63ZM7.57993 7.83C8.34993 8.37 9.26993 8.65 10.2099 8.65H10.2299C11.1699 8.65 12.0799 8.37 12.8599 7.83C13.7999 7.18 16.6299 5.23 16.6299 5.23C16.7599 5.14 16.8499 5 16.8799 4.84C16.9099 4.68001 16.8699 4.52 16.7799 4.39C16.6699 4.23 16.4799 4.13 16.2799 4.13C16.1599 4.13 16.0399 4.17 15.9399 4.24C15.8679 4.28982 15.7905 4.34334 15.7086 4.4C14.7215 5.08262 13.0748 6.22135 12.1699 6.84C11.5899 7.24001 10.9199 7.45 10.2199 7.45C9.51993 7.45 8.84993 7.24001 8.26993 6.84L4.49993 4.24C4.39993 4.17 4.27993 4.13 4.15993 4.13C3.95993 4.13 3.76993 4.23 3.65993 4.39C3.55993 4.52 3.52993 4.68001 3.55993 4.84C3.58993 5 3.67993 5.14 3.80993 5.23L7.57993 7.83Z" fill="#4C4C4C"/>
</svg>
