<svg width="24" height="25" viewBox="0 0 24 25" fill="none" xmlns="http://www.w3.org/2000/svg">
    <g clip-path="url(#clip0_1153_1651)">
        <path
            d="M22.335 11.4487C22.5276 11.054 22.6277 10.6205 22.6275 10.1812C22.6265 9.48086 22.3761 8.80373 21.9212 8.27119C21.4663 7.73865 20.8366 7.38549 20.145 7.27499C18.9383 5.35588 17.0962 3.92124 14.94 3.22125C14.94 2.44151 14.6302 1.69371 14.0789 1.14236C13.5275 0.590999 12.7797 0.28125 12 0.28125C11.2203 0.28125 10.4725 0.590999 9.9211 1.14236C9.36974 1.69371 9.05999 2.44151 9.05999 3.22125C6.9038 3.92124 5.06172 5.35588 3.855 7.27499C3.16339 7.38549 2.53372 7.73865 2.07882 8.27119C1.62393 8.80373 1.37353 9.48086 1.3725 10.1812C1.37232 10.6205 1.47236 11.054 1.665 11.4487C1.14879 11.8474 0.730457 12.3586 0.441904 12.9435C0.153351 13.5285 0.00220645 14.1715 0 14.8237C0 16.0237 0.49875 16.8262 1.4775 17.205C2.25643 17.4437 3.07171 17.5415 3.885 17.4937C4.82629 18.9948 6.16259 20.2079 7.74749 21C7.70718 21.2354 7.68586 21.4737 7.68374 21.7125C7.68374 22.9125 8.17874 23.7112 9.16124 24.0937C9.91124 24.3825 10.8562 24.3825 11.8612 24.3825H12.2775C13.1416 24.4377 14.0086 24.3399 14.8387 24.0937C15.8212 23.7187 16.3162 22.9125 16.3162 21.7125C16.3141 21.4737 16.2928 21.2354 16.2525 21C17.8323 20.2142 19.1677 19.0123 20.115 17.5237C20.9284 17.568 21.7433 17.469 22.5225 17.2312C23.5012 16.8562 24 16.05 24 14.85C24.0018 14.1934 23.8526 13.5451 23.5639 12.9553C23.2752 12.3656 22.8547 11.8501 22.335 11.4487ZM21.1275 10.1812C21.1267 10.4666 21.0414 10.7454 20.8823 10.9823C20.7233 11.2193 20.4975 11.4037 20.2336 11.5124C19.9698 11.6211 19.6796 11.6492 19.3998 11.593C19.12 11.5369 18.8631 11.3991 18.6615 11.1971C18.46 10.995 18.3229 10.7377 18.2675 10.4578C18.2121 10.1778 18.2409 9.88772 18.3502 9.62413C18.4596 9.36054 18.6447 9.13528 18.882 8.9768C19.1194 8.81833 19.3983 8.73375 19.6837 8.73374C20.067 8.73474 20.4342 8.88768 20.7048 9.15903C20.9755 9.43038 21.1275 9.79799 21.1275 10.1812ZM10.3162 5.73C10.809 6.08076 11.3989 6.26925 12.0037 6.26925C12.6086 6.26925 13.1985 6.08076 13.6912 5.73C14.0418 5.99075 14.3263 6.3302 14.5217 6.72101C14.7171 7.11182 14.818 7.54306 14.8162 7.97999C14.8162 8.69999 14.5612 8.86124 14.295 8.96249C13.8112 9.14999 12.9975 9.14999 12.1425 9.14999H11.8575C10.9987 9.14999 10.1887 9.14999 9.70499 8.96249C9.43874 8.86124 9.18374 8.69999 9.18374 7.97999C9.18285 7.54242 9.28489 7.11077 9.48162 6.71991C9.67835 6.32906 9.96426 5.98995 10.3162 5.73ZM12 1.875C12.2866 1.87426 12.567 1.95862 12.8056 2.11738C13.0442 2.27615 13.2303 2.50218 13.3403 2.76683C13.4504 3.03148 13.4793 3.32283 13.4236 3.60397C13.3679 3.8851 13.2299 4.14337 13.0273 4.34603C12.8246 4.54869 12.5663 4.68663 12.2852 4.74236C12.0041 4.79809 11.7127 4.76911 11.4481 4.65909C11.1834 4.54907 10.9574 4.36296 10.7986 4.12434C10.6399 3.88573 10.5555 3.60535 10.5562 3.31875C10.5562 2.93584 10.7084 2.56862 10.9791 2.29786C11.2499 2.02711 11.6171 1.875 12 1.875ZM4.31625 8.73374C4.60269 8.733 4.88292 8.81727 5.12145 8.97587C5.35999 9.13447 5.5461 9.36028 5.65623 9.62471C5.76637 9.88914 5.79557 10.1803 5.74014 10.4613C5.68471 10.7424 5.54715 11.0006 5.34486 11.2034C5.14257 11.4063 4.88466 11.5445 4.60377 11.6006C4.32288 11.6568 4.03165 11.6284 3.76693 11.5189C3.50222 11.4095 3.27593 11.2239 3.11671 10.9858C2.95749 10.7477 2.8725 10.4677 2.8725 10.1812C2.872 9.99133 2.90898 9.80319 2.98132 9.62759C3.05365 9.452 3.15992 9.29239 3.29403 9.15793C3.42815 9.02347 3.58747 8.91679 3.76288 8.844C3.93829 8.77121 4.12634 8.73374 4.31625 8.73374ZM1.5 14.8425C1.49883 14.4057 1.59997 13.9746 1.79533 13.5839C1.99069 13.1932 2.27483 12.8537 2.625 12.5925C3.11905 12.9401 3.7084 13.1267 4.3125 13.1267C4.91659 13.1267 5.50594 12.9401 6 12.5925C6.35038 12.8534 6.63469 13.1929 6.83007 13.5837C7.02545 13.9745 7.12646 14.4056 7.12499 14.8425C7.12499 15.5662 6.87 15.7237 6.6075 15.825C6.12 16.0162 5.31 16.0125 4.45125 16.0162H4.16625C3.3075 16.0162 2.4975 16.0162 2.01375 15.825C1.755 15.7237 1.5 15.5662 1.5 14.8425ZM14.295 22.6875C13.8112 22.875 12.9975 22.875 12.1425 22.875H11.8575C10.9987 22.875 10.1887 22.875 9.70499 22.6875C9.43874 22.5862 9.18374 22.425 9.18374 21.705C9.18198 21.268 9.28286 20.8368 9.47827 20.446C9.67367 20.0552 9.95814 19.7157 10.3087 19.455C10.8026 19.8031 11.392 19.99 11.9962 19.99C12.6005 19.99 13.1899 19.8031 13.6837 19.455C14.0343 19.7157 14.3188 20.0552 14.5142 20.446C14.7096 20.8368 14.8105 21.268 14.8087 21.705C14.8162 22.425 14.5612 22.5862 14.295 22.6875ZM12 18.4837C11.7144 18.4837 11.4353 18.3991 11.1979 18.2404C10.9605 18.0818 10.7754 17.8563 10.6661 17.5925C10.5569 17.3287 10.5283 17.0384 10.584 16.7583C10.6397 16.4783 10.7772 16.221 10.9791 16.0191C11.181 15.8172 11.4383 15.6797 11.7183 15.624C11.9984 15.5683 12.2887 15.5969 12.5525 15.7061C12.8163 15.8154 13.0418 16.0005 13.2004 16.2379C13.3591 16.4753 13.4437 16.7544 13.4437 17.04C13.4427 17.4226 13.2903 17.7892 13.0198 18.0598C12.7492 18.3303 12.3826 18.4827 12 18.4837ZM15.75 19.5675C15.4724 19.08 15.1016 18.6518 14.6587 18.3075C14.8736 17.8588 14.9713 17.3629 14.9426 16.8662C14.9139 16.3695 14.7597 15.8881 14.4946 15.4671C14.2294 15.0461 13.8619 14.6992 13.4263 14.4588C12.9907 14.2184 12.5013 14.0923 12.0037 14.0923C11.5062 14.0923 11.0168 14.2184 10.5812 14.4588C10.1456 14.6992 9.77807 15.0461 9.5129 15.4671C9.24774 15.8881 9.09361 16.3695 9.0649 16.8662C9.03619 17.3629 9.13385 17.8588 9.34874 18.3075C8.90314 18.6511 8.52975 19.0793 8.24999 19.5675C7.2685 19.0558 6.402 18.3488 5.70375 17.49C6.19726 17.478 6.68578 17.3882 7.15124 17.2237C8.13374 16.8487 8.62874 16.0425 8.62874 14.8425C8.62642 14.1907 8.47561 13.548 8.18776 12.9632C7.89991 12.3784 7.48259 11.8669 6.96749 11.4675C7.14013 11.1136 7.23981 10.7285 7.2606 10.3353C7.28139 9.94205 7.22287 9.54865 7.08852 9.17849C6.95417 8.80834 6.74674 8.46898 6.47856 8.18063C6.21039 7.89227 5.88695 7.6608 5.5275 7.49999C6.43669 6.29907 7.6588 5.37147 9.05999 4.81875C8.62413 5.22239 8.27676 5.7121 8.03987 6.25688C7.80298 6.80167 7.68172 7.38969 7.68374 7.98374C7.68374 9.18374 8.17874 9.98624 9.16124 10.365C9.91124 10.6575 10.845 10.6537 11.8612 10.6537H12.2775C13.1416 10.709 14.0086 10.6112 14.8387 10.365C15.8212 9.98999 16.3162 9.18374 16.3162 7.98374C16.3183 7.38969 16.197 6.80167 15.9601 6.25688C15.7232 5.7121 15.3759 5.22239 14.94 4.81875C16.3412 5.37147 17.5633 6.29907 18.4725 7.49999C18.1151 7.66058 17.7935 7.89107 17.5265 8.17788C17.2596 8.4647 17.0528 8.80204 16.9182 9.17002C16.7837 9.53801 16.7241 9.9292 16.7431 10.3206C16.7621 10.7119 16.8592 11.0955 17.0287 11.4487C16.5136 11.8481 16.0963 12.3597 15.8085 12.9444C15.5206 13.5292 15.3698 14.1719 15.3675 14.8237C15.3675 16.0237 15.8625 16.8262 16.845 17.205C17.3105 17.3694 17.799 17.4593 18.2925 17.4712C17.5972 18.3364 16.7319 19.0499 15.75 19.5675ZM21.9825 15.8175C21.495 16.0087 20.685 16.005 19.83 16.0087H19.545C18.6825 16.0087 17.8762 16.0087 17.3887 15.8175C17.1262 15.7162 16.8712 15.5587 16.8712 14.835C16.8698 14.3981 16.9708 13.967 17.1662 13.5762C17.3615 13.1854 17.6459 12.8459 17.9962 12.585C18.4903 12.9326 19.0796 13.1192 19.6837 13.1192C20.2878 13.1192 20.8772 12.9326 21.3712 12.585C21.7214 12.8462 22.0055 13.1857 22.2009 13.5764C22.3963 13.9671 22.4974 14.3982 22.4962 14.835C22.5 15.5662 22.245 15.7237 21.9787 15.825L21.9825 15.8175Z"
            fill="currentColor" />
    </g>
    <defs>
        <clipPath id="clip0_1153_1651">
            <rect width="24" height="25" fill="white" />
        </clipPath>
    </defs>
</svg>